<svg width="1310" height="863" viewBox="0 0 1310 863" fill="none" xmlns="http://www.w3.org/2000/svg">
<path d="M811.635 28.164C800.794 41.4006 784.101 49.8849 765.364 49.8849H544.636C525.899 49.8849 509.206 41.4006 498.365 28.164C483.55 10.075 460.707 0.0100043 436.961 0.0100043H9.99999C4.47715 0.0100043 0 4.48716 0 10.01V853C0 858.523 4.47715 863 10 863H1300C1305.52 863 1310 858.523 1310 853V10C1310 4.47717 1305.52 0 1300 0H873.049C849.293 0 826.46 10.075 811.635 28.164Z" fill="#272C4B"/>
<path d="M765.364 50.3849C784.254 50.3849 801.088 41.8305 812.022 28.4809C826.745 10.5168 849.431 0.5 873.049 0.5H1300C1305.25 0.5 1309.5 4.75331 1309.5 10V853C1309.5 858.247 1305.25 862.5 1300 862.5H10C4.75329 862.5 0.5 858.247 0.5 853V10.01C0.5 4.7633 4.75329 0.510004 9.99999 0.510004H436.961C460.57 0.510004 483.266 10.517 497.978 28.4808L498.365 28.164L497.978 28.4809C508.912 41.8305 525.746 50.3849 544.636 50.3849H765.364Z" stroke="white" stroke-opacity="0.08"/>
</svg>
