<svg width="55" height="11" viewBox="0 0 55 11" fill="none" xmlns="http://www.w3.org/2000/svg">
<path d="M4.98313 1.93161C4.35496 1.93161 4.17335 2.2119 4.17335 2.83012V3.85567H5.84889L5.68095 5.51252H4.174V10.5407H2.16322V5.51252H0.808594V3.85567H2.16322V2.85828C2.16322 1.18701 2.83304 0.304226 4.70192 0.304226C5.09355 0.303301 5.48486 0.326704 5.87363 0.374298V1.93358L4.98313 1.93161Z" fill="#8990AE"/>
<path d="M5.98828 6.98732C5.98828 5.11958 6.86771 3.71289 8.71055 3.71289C9.71561 3.71289 10.3295 4.23287 10.623 4.87859V3.85566H12.5492V10.5407H10.623V9.52958C10.3438 10.176 9.71561 10.6815 8.71055 10.6815C6.86771 10.6815 5.98828 9.27679 5.98828 7.4071V6.98732ZM7.99841 7.43722C7.99841 8.43396 8.36099 9.09408 9.2964 9.09408C10.1205 9.09408 10.5391 8.49028 10.5391 7.53546V6.8642C10.5391 5.90938 10.1205 5.30557 9.2964 5.30557C8.36099 5.30557 7.99841 5.9657 7.99841 6.96243V7.43722Z" fill="#8990AE"/>
<path d="M16.7371 3.71484C17.5183 3.71484 18.2584 3.8838 18.6633 4.1641L18.2167 5.59698C17.7979 5.39633 17.3403 5.2908 16.8764 5.28788C15.7874 5.28788 15.3142 5.91984 15.3142 7.00171V7.39464C15.3142 8.47651 15.7887 9.10848 16.8764 9.10848C17.3403 9.10555 17.7979 9.00002 18.2167 8.79937L18.6633 10.2316C18.2584 10.5126 17.5189 10.6815 16.7371 10.6815C14.3775 10.6815 13.3027 9.40318 13.3027 7.35273V7.04363C13.3027 4.99318 14.3775 3.71484 16.7371 3.71484Z" fill="#8990AE"/>
<path d="M18.9277 7.45355V6.86415C18.9277 4.96826 20.0025 3.7207 22.1948 3.7207C24.261 3.7207 25.1684 4.98463 25.1684 6.83861V7.90608H20.9372C20.9795 8.81899 21.3844 9.22632 22.4995 9.22632C23.2539 9.22632 24.0494 9.07177 24.6359 8.81899L25.0037 10.2041C24.4732 10.4857 23.3841 10.6959 22.4214 10.6959C19.8768 10.6952 18.9277 9.41821 18.9277 7.45355ZM20.9379 6.58255H23.3672V6.41425C23.3672 5.68405 23.0743 5.10448 22.1955 5.10448C21.2874 5.10513 20.9379 5.68143 20.9379 6.57993V6.58255Z" fill="#8990AE"/>
<path d="M32.6201 7.40915C32.6201 9.27688 31.727 10.6836 29.8862 10.6836C28.8811 10.6836 28.1833 10.178 27.904 9.53163V10.5428H26.0059V0.498798L28.016 0.31543V4.78175C28.3089 4.19235 28.9514 3.71428 29.8868 3.71428C31.7297 3.71428 32.6208 5.11901 32.6208 6.98871L32.6201 7.40915ZM30.61 6.94549C30.61 6.00442 30.2474 5.30238 29.284 5.30238C28.4599 5.30238 28.0134 5.89178 28.0134 6.84726V7.54929C28.0134 8.50412 28.4599 9.09417 29.284 9.09417C30.2474 9.09417 30.61 8.39213 30.61 7.45106V6.94549Z" fill="#8990AE"/>
<path d="M33.293 7.36648V7.02987C33.293 5.10516 34.382 3.71484 36.6017 3.71484C38.8215 3.71484 39.9112 5.10516 39.9112 7.02987V7.36648C39.9112 9.29054 38.8221 10.6815 36.6024 10.6815C34.3827 10.6815 33.293 9.29054 33.293 7.36648ZM37.9004 6.88907C37.9004 6.00432 37.5372 5.30228 36.5985 5.30228C35.6598 5.30228 35.2998 6.00432 35.2998 6.88907V7.50728C35.2998 8.39203 35.6631 9.09407 36.5985 9.09407C37.5339 9.09407 37.9004 8.39203 37.9004 7.50728V6.88907Z" fill="#8990AE"/>
<path d="M40.5801 7.36648V7.02987C40.5801 5.10516 41.6691 3.71484 43.8888 3.71484C46.1086 3.71484 47.1976 5.10516 47.1976 7.02987V7.36648C47.1976 9.29054 46.1086 10.6815 43.8888 10.6815C41.6691 10.6815 40.5801 9.29054 40.5801 7.36648ZM45.1875 6.88907C45.1875 6.00432 44.8243 5.30228 43.8888 5.30228C42.9534 5.30228 42.5909 6.00432 42.5909 6.88907V7.50728C42.5909 8.39203 42.9534 9.09407 43.8888 9.09407C44.8243 9.09407 45.1875 8.39203 45.1875 7.50728V6.88907Z" fill="#8990AE"/>
<path d="M49.962 7.04372L51.9441 3.85574H54.0799L52.0001 7.15636L54.1638 10.5408H52.0281L49.962 7.26638V10.5408H47.9512V0.498798L49.962 0.31543V7.04372Z" fill="#8990AE"/>
</svg>
