<svg width="20" height="20" viewBox="0 0 20 20" fill="none" xmlns="http://www.w3.org/2000/svg">
<g clip-path="url(#clip0_175_8917)">
<path d="M7.49935 7.49984L7.77877 6.66157C8.36509 4.9026 10.6857 4.52603 11.7981 6.00932C12.4498 6.8782 12.4043 8.08463 11.6891 8.902L10.9231 9.77743C10.3276 10.458 9.99935 11.3316 9.99935 12.236V12.4998M18.3327 9.99984C18.3327 14.6022 14.6017 18.3332 9.99935 18.3332C5.39698 18.3332 1.66602 14.6022 1.66602 9.99984C1.66602 5.39746 5.39698 1.6665 9.99935 1.6665C14.6017 1.6665 18.3327 5.39746 18.3327 9.99984Z" stroke="white" stroke-width="1.5" stroke-linecap="round"/>
<path d="M10.8327 14.9998C10.8327 15.4601 10.4596 15.8332 9.99935 15.8332C9.53911 15.8332 9.16602 15.4601 9.16602 14.9998C9.16602 14.5396 9.53911 14.1665 9.99935 14.1665C10.4596 14.1665 10.8327 14.5396 10.8327 14.9998Z" fill="white"/>
</g>
<defs>
<clipPath id="clip0_175_8917">
<rect width="20" height="20" fill="white"/>
</clipPath>
</defs>
</svg>
