<svg width="18" height="18" viewBox="0 0 18 18" fill="none" xmlns="http://www.w3.org/2000/svg">
<path d="M6.75 6.75L7.00148 5.99556C7.52917 4.41249 9.61768 4.07357 10.6189 5.40853C11.2054 6.19052 11.1645 7.27631 10.5208 8.01195L9.83139 8.79984C9.29542 9.41237 9 10.1986 9 11.0125V11.25M16.5 9C16.5 13.1421 13.1421 16.5 9 16.5C4.85786 16.5 1.5 13.1421 1.5 9C1.5 4.85786 4.85786 1.5 9 1.5C13.1421 1.5 16.5 4.85786 16.5 9Z" stroke="#8990AE" stroke-width="1.5" stroke-linecap="round"/>
<path d="M9.75 13.5C9.75 13.9142 9.41421 14.25 9 14.25C8.58579 14.25 8.25 13.9142 8.25 13.5C8.25 13.0858 8.58579 12.75 9 12.75C9.41421 12.75 9.75 13.0858 9.75 13.5Z" fill="#8990AE"/>
</svg>
