<svg width="16" height="16" viewBox="0 0 16 16" fill="none" xmlns="http://www.w3.org/2000/svg">
<path d="M3.72037 2.72417C5.72048 1.271 6.72054 0.544419 7.86265 0.502521C7.95427 0.49916 8.04598 0.49916 8.1376 0.502521C9.27971 0.544419 10.2798 1.271 12.2799 2.72417C14.28 4.17734 15.28 4.90392 15.6728 5.97718C15.7043 6.06328 15.7327 6.1505 15.7578 6.23868C16.0709 7.33784 15.6889 8.51347 14.9249 10.8647L13.6341 14.8373C13.4291 15.4685 12.8408 15.8959 12.1771 15.8959C11.3311 15.8959 10.6452 15.21 10.6452 14.3639V12.3022C10.6452 11.5083 10.0016 10.8647 9.20769 10.8647H6.79257C5.99867 10.8647 5.35509 11.5083 5.35509 12.3022V14.3639C5.35509 15.21 4.6692 15.8959 3.82311 15.8959C3.15941 15.8959 2.5712 15.4685 2.36611 14.8373L1.07534 10.8647C0.311364 8.51347 -0.0706237 7.33784 0.24246 6.23868C0.267576 6.1505 0.295916 6.06328 0.327425 5.97718C0.720204 4.90392 1.72026 4.17734 3.72037 2.72417Z" fill="#8990AE"/>
</svg>
