<svg width="22" height="22" viewBox="0 0 22 22" fill="none" xmlns="http://www.w3.org/2000/svg">
<path d="M12.4954 13.3124L13.3654 10.0658C13.8458 8.27277 12.7817 6.42975 10.9887 5.9493C9.19566 5.46886 7.35263 6.53293 6.87219 8.32597L4.69739 16.4424C4.21695 18.2355 5.28102 20.0785 7.07406 20.5589C7.89743 20.7796 8.73134 20.6745 9.43901 20.3227C9.8733 20.1068 10.26 19.798 10.5676 19.4145M10.1188 9.19589L9.24886 12.4425C8.76841 14.2355 9.83248 16.0785 11.6255 16.559C13.4186 17.0394 15.2616 15.9753 15.742 14.1823L17.9168 6.06585C18.3973 4.27281 17.3332 2.42979 15.5402 1.94935C14.7168 1.72872 13.8829 1.83379 13.1752 2.18558C12.7409 2.40147 12.3542 2.71027 12.0466 3.09375" stroke="white" stroke-width="1.5" stroke-linecap="round"/>
</svg>
