<svg width="20" height="22" viewBox="0 0 20 22" fill="none" xmlns="http://www.w3.org/2000/svg">
<path d="M4.45492 20.7553L4.68668 20.042L4.45492 20.7553ZM1.24472 17.5451L1.95801 17.3133L1.24472 17.5451ZM18.7553 17.5451L18.042 17.3133L18.7553 17.5451ZM15.5451 20.7553L15.3133 20.042L15.5451 20.7553ZM15.5451 7.24472L15.3133 7.95801L15.5451 7.24472ZM18.7553 10.4549L18.042 10.6867L18.7553 10.4549ZM4.45492 7.24472L4.68668 7.95801L4.45492 7.24472ZM1.24472 10.4549L1.95801 10.6867L1.24472 10.4549ZM10.75 12C10.75 11.5858 10.4142 11.25 10 11.25C9.58579 11.25 9.25 11.5858 9.25 12H10.75ZM9.25 16C9.25 16.4142 9.58579 16.75 10 16.75C10.4142 16.75 10.75 16.4142 10.75 16H9.25ZM8 7.75H12V6.25H8V7.75ZM12 20.25H8V21.75H12V20.25ZM8 20.25C6.08034 20.25 5.29839 20.2407 4.68668 20.042L4.22315 21.4686C5.11777 21.7593 6.19709 21.75 8 21.75V20.25ZM0.25 14C0.25 15.8029 0.240747 16.8822 0.531425 17.7768L1.95801 17.3133C1.75925 16.7016 1.75 15.9197 1.75 14H0.25ZM4.68668 20.042C3.39282 19.6216 2.37841 18.6072 1.95801 17.3133L0.531425 17.7768C1.1002 19.5274 2.47263 20.8998 4.22315 21.4686L4.68668 20.042ZM18.25 14C18.25 15.9197 18.2407 16.7016 18.042 17.3133L19.4686 17.7768C19.7593 16.8822 19.75 15.8029 19.75 14H18.25ZM12 21.75C13.8029 21.75 14.8822 21.7593 15.7768 21.4686L15.3133 20.042C14.7016 20.2407 13.9197 20.25 12 20.25V21.75ZM18.042 17.3133C17.6216 18.6072 16.6072 19.6216 15.3133 20.042L15.7768 21.4686C17.5274 20.8998 18.8998 19.5274 19.4686 17.7768L18.042 17.3133ZM19.75 14C19.75 12.1971 19.7593 11.1178 19.4686 10.2232L18.042 10.6867C18.2407 11.2984 18.25 12.0803 18.25 14H19.75ZM15.3133 7.95801C16.6072 8.37841 17.6216 9.39282 18.042 10.6867L19.4686 10.2232C18.8998 8.47263 17.5274 7.1002 15.7768 6.53142L15.3133 7.95801ZM1.75 14C1.75 12.0803 1.75925 11.2984 1.95801 10.6867L0.531425 10.2232C0.240747 11.1178 0.25 12.1971 0.25 14H1.75ZM4.22315 6.53142C2.47263 7.1002 1.1002 8.47263 0.531425 10.2232L1.95801 10.6867C2.37841 9.39282 3.39282 8.37841 4.68668 7.95801L4.22315 6.53142ZM14.25 6V7H15.75V6H14.25ZM5.75 7V6H4.25V7H5.75ZM10 1.75C12.3472 1.75 14.25 3.65279 14.25 6H15.75C15.75 2.82436 13.1756 0.25 10 0.25V1.75ZM10 0.25C6.82436 0.25 4.25 2.82436 4.25 6H5.75C5.75 3.65279 7.65279 1.75 10 1.75V0.25ZM9.25 12V16H10.75V12H9.25ZM8 6.25C6.58853 6.25 5.6278 6.24738 4.8754 6.37414L5.1246 7.85329C5.7222 7.75262 6.52815 7.75 8 7.75V6.25ZM4.8754 6.37414C4.64772 6.4125 4.43257 6.46338 4.22315 6.53142L4.68668 7.95801C4.81685 7.91571 4.95935 7.88113 5.1246 7.85329L4.8754 6.37414ZM4.25 7V7.11372H5.75V7H4.25ZM12 7.75C13.4719 7.75 14.2778 7.75262 14.8754 7.85329L15.1246 6.37414C14.3722 6.24738 13.4115 6.25 12 6.25V7.75ZM14.8754 7.85329C15.0407 7.88113 15.1831 7.91571 15.3133 7.95801L15.7768 6.53142C15.5674 6.46338 15.3523 6.4125 15.1246 6.37414L14.8754 7.85329ZM14.25 7V7.11372H15.75V7H14.25Z" fill="#9DA6CA"/>
</svg>
