<svg width="40" height="40" viewBox="0 0 40 40" fill="none" xmlns="http://www.w3.org/2000/svg">
<circle cx="20" cy="20" r="20" fill="#3586FF"/>
<path d="M17.9981 17.5226L18.6179 17.945L17.9981 17.5226ZM21.5457 17.9358L21.9388 17.297L21.5457 17.9358ZM19.1295 16.8263L19.046 16.081L19.1295 16.8263ZM19.1295 23.7893L19.046 24.5346L19.1295 23.7893ZM17.9981 23.093L17.3784 23.5154L17.9981 23.093ZM23.6552 21.0041L22.9631 20.715L23.6552 21.0041ZM23.6552 19.6115L22.9631 19.9006L23.6552 19.6115ZM28.2748 20.3078C28.2748 24.7084 24.7074 28.2757 20.3068 28.2757V29.7757C25.5358 29.7757 29.7748 25.5368 29.7748 20.3078H28.2748ZM20.3068 28.2757C15.9062 28.2757 12.3389 24.7084 12.3389 20.3078H10.8389C10.8389 25.5368 15.0778 29.7757 20.3068 29.7757V28.2757ZM12.3389 20.3078C12.3389 15.9072 15.9062 12.3398 20.3068 12.3398V10.8398C15.0778 10.8398 10.8389 15.0788 10.8389 20.3078H12.3389ZM20.3068 12.3398C24.7074 12.3398 28.2748 15.9072 28.2748 20.3078H29.7748C29.7748 15.0788 25.5358 10.8398 20.3068 10.8398V12.3398ZM18.4414 20.3078C18.4414 19.5155 18.4421 18.9701 18.477 18.5644C18.5124 18.1529 18.5763 18.0059 18.6179 17.945L17.3784 17.1002C17.1132 17.4892 17.0238 17.9564 16.9825 18.4358C16.9408 18.9211 16.9414 19.5433 16.9414 20.3078H18.4414ZM21.9388 17.297C21.3195 16.9159 20.8095 16.6011 20.3888 16.3943C19.9733 16.19 19.5246 16.0273 19.046 16.081L19.213 17.5716C19.2533 17.5671 19.3804 17.57 19.727 17.7404C20.0685 17.9083 20.507 18.1772 21.1526 18.5745L21.9388 17.297ZM18.6179 17.945C18.7683 17.7243 18.9881 17.5968 19.213 17.5716L19.046 16.081C18.3657 16.1572 17.763 16.5359 17.3784 17.1002L18.6179 17.945ZM21.1526 22.0411C20.507 22.4384 20.0685 22.7073 19.727 22.8752C19.3804 23.0456 19.2533 23.0485 19.213 23.044L19.046 24.5346C19.5246 24.5882 19.9733 24.4256 20.3888 24.2213C20.8095 24.0145 21.3195 23.6997 21.9388 23.3185L21.1526 22.0411ZM16.9414 20.3078C16.9414 21.0723 16.9408 21.6945 16.9825 22.1798C17.0238 22.6591 17.1132 23.1264 17.3784 23.5154L18.6179 22.6706C18.5763 22.6097 18.5124 22.4627 18.477 22.0512C18.4421 21.6455 18.4414 21.1001 18.4414 20.3078H16.9414ZM19.213 23.044C18.9881 23.0187 18.7683 22.8913 18.6179 22.6706L17.3784 23.5154C17.763 24.0797 18.3657 24.4584 19.046 24.5346L19.213 23.044ZM21.9388 23.3185C22.5584 22.9372 23.0687 22.6241 23.4463 22.3397C23.8238 22.0554 24.1637 21.7325 24.3472 21.2931L22.9631 20.715C22.9344 20.7837 22.8519 20.9095 22.5439 21.1415C22.2361 21.3734 21.7978 21.644 21.1526 22.0411L21.9388 23.3185ZM21.1526 18.5745C21.7978 18.9716 22.2361 19.2422 22.5439 19.4741C22.8519 19.7061 22.9344 19.8318 22.9631 19.9006L24.3472 19.3225C24.1637 18.8831 23.8238 18.5602 23.4463 18.2759C23.0687 17.9915 22.5584 17.6784 21.9388 17.297L21.1526 18.5745ZM24.3472 21.2931C24.6096 20.665 24.6096 19.9506 24.3472 19.3225L22.9631 19.9006C23.071 20.1588 23.071 20.4568 22.9631 20.715L24.3472 21.2931Z" fill="white"/>
</svg>
