<svg width="22" height="22" viewBox="0 0 22 22" fill="none" xmlns="http://www.w3.org/2000/svg">
<path d="M3.06107 19.2164L3.64886 18.4074H3.64886L3.06107 19.2164ZM1.95491 18.1102L1.1459 18.698H1.1459L1.95491 18.1102ZM16.9389 19.2164L16.3511 18.4074H16.3511L16.9389 19.2164ZM18.0451 18.1102L17.2361 17.5225V17.5225L18.0451 18.1102ZM1.95491 4.23238L1.1459 3.6446H1.1459L1.95491 4.23238ZM3.06107 3.12623L3.64886 3.93524L3.06107 3.12623ZM8.01199 3.17845C8.56423 3.17183 9.00655 2.71878 8.99993 2.16653C8.99331 1.61429 8.54026 1.17197 7.98801 1.17859L8.01199 3.17845ZM19.9927 13.1833C19.9993 12.6311 19.557 12.178 19.0048 12.1714C18.4525 12.1648 17.9995 12.6071 17.9929 13.1593L19.9927 13.1833ZM10.7976 15.1758L10.6871 14.1819L10.7976 15.1758ZM6.67777 14.8783L5.97067 15.5854L5.97067 15.5854L6.67777 14.8783ZM6.3803 10.7585L7.37418 10.8689L6.3803 10.7585ZM7.5274 8.3718L6.8203 7.66469L7.5274 8.3718ZM6.64293 9.41572L5.74163 8.98253V8.98253L6.64293 9.41572ZM13.1843 14.0287L13.8914 14.7358L13.1843 14.0287ZM12.1403 14.9131L12.5735 15.8144H12.5735L12.1403 14.9131ZM10 19.1713C8.10286 19.1713 6.76033 19.1699 5.72497 19.0578C4.70833 18.9476 4.10714 18.7403 3.64886 18.4074L2.47329 20.0254C3.32933 20.6474 4.32274 20.9175 5.50955 21.0461C6.67764 21.1727 8.14741 21.1713 10 21.1713V19.1713ZM0 11.1713C0 13.0239 -0.00137258 14.4937 0.125182 15.6618C0.253765 16.8486 0.523946 17.842 1.1459 18.698L2.76393 17.5225C2.43097 17.0642 2.22369 16.463 2.11355 15.4463C2.00137 14.411 2 13.0685 2 11.1713H0ZM3.64886 18.4074C3.30928 18.1607 3.01065 17.862 2.76393 17.5225L1.1459 18.698C1.51598 19.2074 1.96392 19.6553 2.47329 20.0254L3.64886 18.4074ZM10 21.1713C11.8526 21.1713 13.3224 21.1727 14.4905 21.0461C15.6773 20.9175 16.6707 20.6474 17.5267 20.0254L16.3511 18.4074C15.8929 18.7403 15.2917 18.9476 14.275 19.0578C13.2397 19.1699 11.8971 19.1713 10 19.1713V21.1713ZM17.2361 17.5225C16.9894 17.862 16.6907 18.1607 16.3511 18.4074L17.5267 20.0254C18.0361 19.6553 18.484 19.2074 18.8541 18.698L17.2361 17.5225ZM2 11.1713C2 9.27417 2.00137 7.93164 2.11355 6.89628C2.22369 5.87964 2.43097 5.27845 2.76393 4.82017L1.1459 3.6446C0.523946 4.50064 0.253765 5.49405 0.125182 6.68086C-0.00137258 7.84895 0 9.31872 0 11.1713H2ZM2.47329 2.31721C1.96392 2.68729 1.51598 3.13523 1.1459 3.6446L2.76393 4.82017C3.01065 4.48059 3.30928 4.18196 3.64886 3.93524L2.47329 2.31721ZM7.98801 1.17859C5.57388 1.20753 3.82605 1.33437 2.47329 2.31721L3.64886 3.93524C4.40915 3.38286 5.4988 3.20857 8.01199 3.17845L7.98801 1.17859ZM17.9929 13.1593C17.9627 15.6725 17.7885 16.7622 17.2361 17.5225L18.8541 18.698C19.8369 17.3453 19.9638 15.5974 19.9927 13.1833L17.9929 13.1593ZM17.849 7.94975L12.4772 13.3215L13.8914 14.7358L19.2632 9.36396L17.849 7.94975ZM8.23451 9.07891L13.6063 3.70711L12.1921 2.29289L6.8203 7.66469L8.23451 9.07891ZM10.6871 14.1819C9.50938 14.3127 8.7343 14.3964 8.16481 14.378C7.62215 14.3605 7.46668 14.253 7.38488 14.1712L5.97067 15.5854C6.56857 16.1833 7.3263 16.352 8.10026 16.377C8.84739 16.4011 9.79235 16.2936 10.908 16.1696L10.6871 14.1819ZM5.38641 10.6481C5.26245 11.7637 5.15498 12.7087 5.17911 13.4558C5.2041 14.2298 5.37276 14.9875 5.97067 15.5854L7.38488 14.1712C7.30308 14.0894 7.19559 13.9339 7.17807 13.3913C7.15968 12.8218 7.24332 12.0467 7.37418 10.8689L5.38641 10.6481ZM6.8203 7.66469C6.37723 8.10777 5.97999 8.48659 5.74163 8.98253L7.54424 9.84891C7.60097 9.73086 7.69502 9.6184 8.23451 9.07891L6.8203 7.66469ZM7.37418 10.8689C7.45844 10.1106 7.4875 9.96695 7.54424 9.84891L5.74163 8.98253C5.50327 9.47847 5.45561 10.0253 5.38641 10.6481L7.37418 10.8689ZM12.4772 13.3215C11.9377 13.861 11.8252 13.9551 11.7072 14.0118L12.5735 15.8144C13.0695 15.5761 13.4483 15.1788 13.8914 14.7358L12.4772 13.3215ZM10.908 16.1696C11.5307 16.1004 12.0776 16.0528 12.5735 15.8144L11.7072 14.0118C11.5891 14.0686 11.4454 14.0976 10.6871 14.1819L10.908 16.1696ZM17.849 3.70711C18.5356 4.39376 18.978 4.83912 19.261 5.21013C19.5265 5.55807 19.5561 5.72077 19.5561 5.82843H21.5561C21.5561 5.10766 21.2523 4.52281 20.8511 3.99697C20.4675 3.49421 19.9098 2.93957 19.2632 2.29289L17.849 3.70711ZM19.2632 9.36396C19.9098 8.71728 20.4675 8.16264 20.8511 7.65988C21.2523 7.13404 21.5561 6.5492 21.5561 5.82843H19.5561C19.5561 5.93608 19.5265 6.09879 19.261 6.44672C18.978 6.81773 18.5356 7.26309 17.849 7.94975L19.2632 9.36396ZM19.2632 2.29289C18.6165 1.64622 18.0619 1.08857 17.5591 0.704978C17.0332 0.303777 16.4484 0 15.7276 0V2C15.8353 2 15.998 2.02956 16.3459 2.29502C16.7169 2.57809 17.1623 3.02045 17.849 3.70711L19.2632 2.29289ZM13.6063 3.70711C14.293 3.02045 14.7383 2.57809 15.1093 2.29502C15.4573 2.02956 15.62 2 15.7276 2V0C15.0069 0 14.422 0.303777 13.8962 0.704978C13.3934 1.08857 12.8388 1.64622 12.1921 2.29289L13.6063 3.70711ZM19.2632 7.94975L13.6063 2.29289L12.1921 3.70711L17.849 9.36396L19.2632 7.94975Z" fill="white"/>
</svg>
