<svg width="18" height="14" viewBox="0 0 18 14" fill="none" xmlns="http://www.w3.org/2000/svg">
<path d="M10.5 3.8125C10.5 4.64093 9.82843 5.3125 9 5.3125V6.8125C10.6569 6.8125 12 5.46935 12 3.8125H10.5ZM9 5.3125C8.17157 5.3125 7.5 4.64093 7.5 3.8125H6C6 5.46935 7.34315 6.8125 9 6.8125V5.3125ZM7.5 3.8125C7.5 2.98407 8.17157 2.3125 9 2.3125V0.8125C7.34315 0.8125 6 2.15565 6 3.8125H7.5ZM9 2.3125C9.82843 2.3125 10.5 2.98407 10.5 3.8125H12C12 2.15565 10.6569 0.8125 9 0.8125V2.3125ZM6.75 9.0625H11.25V7.5625H6.75V9.0625ZM11.25 12.0625H6.75V13.5625H11.25V12.0625ZM6.75 12.0625C5.92157 12.0625 5.25 11.3909 5.25 10.5625H3.75C3.75 12.2194 5.09315 13.5625 6.75 13.5625V12.0625ZM12.75 10.5625C12.75 11.3909 12.0784 12.0625 11.25 12.0625V13.5625C12.9069 13.5625 14.25 12.2194 14.25 10.5625H12.75ZM11.25 9.0625C12.0784 9.0625 12.75 9.73407 12.75 10.5625H14.25C14.25 8.90565 12.9069 7.5625 11.25 7.5625V9.0625ZM6.75 7.5625C5.09315 7.5625 3.75 8.90565 3.75 10.5625H5.25C5.25 9.73407 5.92157 9.0625 6.75 9.0625V7.5625Z" fill="#8990AE"/>
<path d="M5.81411 5.79149C5.69581 5.60145 5.47385 5.5 5.25 5.5C4.31802 5.5 3.5625 4.74448 3.5625 3.8125C3.5625 2.88052 4.31802 2.125 5.25 2.125C5.47385 2.125 5.69581 2.02355 5.81411 1.83351C5.81934 1.82511 5.8246 1.81672 5.8299 1.80836C6.02685 1.49748 5.92706 1.0573 5.56125 1.01703C5.45905 1.00578 5.3552 1 5.25 1C3.6967 1 2.4375 2.2592 2.4375 3.8125C2.4375 5.3658 3.6967 6.625 5.25 6.625C5.3552 6.625 5.45905 6.61922 5.56125 6.60797C5.92706 6.5677 6.02685 6.12752 5.8299 5.81664C5.8246 5.80828 5.81934 5.79989 5.81411 5.79149Z" fill="#8990AE"/>
<path d="M3.53122 11.7377C3.44608 11.5956 3.2958 11.5 3.13019 11.5H3C2.06802 11.5 1.3125 10.7445 1.3125 9.8125C1.3125 8.88052 2.06802 8.125 3 8.125H3.13019C3.2958 8.125 3.44608 8.02939 3.53122 7.88735C3.73904 7.54062 3.51351 7 3.10927 7H3C1.4467 7 0.1875 8.2592 0.1875 9.8125C0.1875 11.3658 1.4467 12.625 3 12.625H3.10927C3.51351 12.625 3.73904 12.0844 3.53122 11.7377Z" fill="#8990AE"/>
<path d="M12.1701 5.81664C11.9732 6.12752 12.0729 6.5677 12.4387 6.60797C12.5409 6.61922 12.6448 6.625 12.75 6.625C14.3033 6.625 15.5625 5.3658 15.5625 3.8125C15.5625 2.2592 14.3033 1 12.75 1C12.6448 1 12.5409 1.00578 12.4387 1.01703C12.0729 1.0573 11.9732 1.49748 12.1701 1.80836C12.1754 1.81672 12.1807 1.8251 12.1859 1.83351C12.3042 2.02354 12.5262 2.125 12.75 2.125C13.682 2.125 14.4375 2.88052 14.4375 3.8125C14.4375 4.74448 13.682 5.5 12.75 5.5C12.5262 5.5 12.3042 5.60145 12.1859 5.79149C12.1807 5.79989 12.1754 5.80828 12.1701 5.81664Z" fill="#8990AE"/>
<path d="M14.4688 11.7377C14.261 12.0844 14.4865 12.625 14.8907 12.625H15C16.5533 12.625 17.8125 11.3658 17.8125 9.8125C17.8125 8.2592 16.5533 7 15 7H14.8907C14.4865 7 14.261 7.54062 14.4688 7.88735C14.5539 8.02939 14.7042 8.125 14.8698 8.125H15C15.932 8.125 16.6875 8.88052 16.6875 9.8125C16.6875 10.7445 15.932 11.5 15 11.5H14.8698C14.7042 11.5 14.5539 11.5956 14.4688 11.7377Z" fill="#8990AE"/>
</svg>
