<svg width="16" height="15" viewBox="0 0 16 15" fill="none" xmlns="http://www.w3.org/2000/svg">
<path d="M10.1668 0.799175L8.57582 2.39017C8.33619 2.62979 8.08279 2.94484 8 3.25002C7.91721 2.94484 7.78145 2.6298 7.54182 2.39018L5.95083 0.799185C5.21859 0.0669518 4.03141 0.0669518 3.29917 0.799185C2.63869 1.45967 2.60061 2.51697 3.13166 3.25L8 3.25002L2.375 3.25001C1.33947 3.25001 0.5 4.08948 0.5 5.12501C0.5 5.63603 0.704435 6.09931 1.03598 6.43751H7.99637L8 6.4375L8.00363 6.43751H14.964C15.2956 6.09931 15.5 5.63603 15.5 5.12501C15.5 4.08948 14.6605 3.25001 13.625 3.25001L12.8185 3.25001L13.0126 3.25C13.5437 2.51697 13.4789 1.45966 12.8185 0.799175C12.0862 0.0669417 10.899 0.0669417 10.1668 0.799175Z" fill="#8990AE"/>
<path d="M1.23579 7.62671L1.23346 7.53585H7.4375V14.4733H6.87499C5.12772 14.4733 4.25408 14.4733 3.56494 14.1743C2.64609 13.7756 1.91606 13.0108 1.53546 12.0482C1.25003 11.3263 1.25003 10.4107 1.25003 8.5805C1.25003 8.17935 1.24228 7.87852 1.23579 7.62671Z" fill="#8990AE"/>
<path d="M12.4351 14.1743C11.7459 14.4733 10.8723 14.4733 9.125 14.4733H8.5625V7.53585H14.7457C14.75 7.80597 14.75 8.12996 14.75 8.58049C14.75 10.411 14.75 11.3262 14.4646 12.0482C14.084 13.0108 13.3539 13.7756 12.4351 14.1743Z" fill="#8990AE"/>
</svg>
