<svg width="18" height="18" viewBox="0 0 18 18" fill="none" xmlns="http://www.w3.org/2000/svg">
<path d="M8.79972 5.9718C8.86653 5.75939 9.13347 5.75939 9.20028 5.9718C9.37467 6.52623 9.88245 6.91854 10.4737 6.91854C10.5313 6.91854 10.5683 6.93564 10.5958 6.95763C10.6272 6.9827 10.657 7.02364 10.674 7.07785C10.7084 7.18731 10.6788 7.28847 10.5915 7.35399C10.1245 7.70447 9.93756 8.31578 10.1111 8.86747C10.1493 8.98884 10.1061 9.08545 10.0286 9.14362C9.9889 9.1734 9.94751 9.18635 9.91301 9.18742C9.88325 9.18834 9.8434 9.18141 9.79306 9.14362C9.32144 8.78967 8.67856 8.78967 8.20695 9.14362C8.1566 9.18141 8.11675 9.18834 8.08699 9.18742C8.05249 9.18634 8.0111 9.1734 7.97143 9.14362C7.89392 9.08545 7.85073 8.98884 7.8889 8.86747C8.06244 8.31578 7.8755 7.70447 7.40851 7.35399C7.32121 7.28847 7.29156 7.18731 7.32599 7.07785C7.34304 7.02364 7.37284 6.9827 7.40422 6.95763C7.43173 6.93564 7.46865 6.91854 7.52627 6.91854C8.11755 6.91854 8.62533 6.52622 8.79972 5.9718Z" fill="#8990AE"/>
<path fill-rule="evenodd" clip-rule="evenodd" d="M6.16744 1.14856C6.81808 0.937157 7.59899 0.93728 8.8787 0.937482H9.12146C10.4012 0.93728 11.1821 0.937157 11.8327 1.14856C13.1456 1.57515 14.1749 2.60447 14.6015 3.91736L14.608 3.93749H14.8271C17.6063 3.93749 18.8001 7.46405 16.5925 9.15225L16.5845 9.15835L14.7385 10.4681C14.6696 10.517 14.5984 10.5624 14.5251 10.6041C14.5171 10.625 14.509 10.6459 14.5006 10.6667C14.3089 11.1427 13.9349 11.7138 13.5752 12.0797C12.989 12.6759 12.3823 12.9403 11.4136 13.3625L11.3492 13.3905C10.9319 13.5725 10.51 13.7375 10.1183 13.8579C9.93272 13.9149 9.74542 13.9646 9.56258 14.0008V15.9375H12.0001C12.3107 15.9375 12.5626 16.1893 12.5626 16.5C12.5626 16.8107 12.3107 17.0625 12.0001 17.0625H6.00008C5.68942 17.0625 5.43758 16.8107 5.43758 16.5C5.43758 16.1893 5.68942 15.9375 6.00008 15.9375H8.43758V14.0008C8.25474 13.9646 8.06744 13.9149 7.8819 13.8579C7.49014 13.7375 7.06822 13.5725 6.65095 13.3905L6.58657 13.3625C5.61783 12.9403 5.01117 12.6759 4.42495 12.0797C4.06524 11.7138 3.69121 11.1427 3.4996 10.6667C3.49096 10.6453 3.48256 10.6238 3.47437 10.6023C3.40259 10.5625 3.33301 10.5187 3.26596 10.4711L1.41578 9.15835L1.40779 9.15225C-0.799852 7.46405 0.394 3.93749 3.17316 3.93749H3.39218L3.39865 3.91736C3.82523 2.60447 4.85455 1.57515 6.16744 1.14856ZM3.21238 5.06249H3.17316C1.47298 5.06249 0.740826 7.21591 2.08368 8.25284L3.20256 9.04673C3.18747 8.68506 3.18752 8.28077 3.18757 7.81198L3.18758 6.68703C3.18755 6.02762 3.18753 5.50133 3.21238 5.06249ZM14.7976 9.0468L15.9166 8.25284C17.2594 7.21591 16.5273 5.06249 14.8271 5.06249H14.7878C14.8126 5.50128 14.8126 6.02765 14.8126 6.68696L14.8126 7.81268C14.8126 8.2812 14.8127 8.68527 14.7976 9.0468ZM10.2734 5.63424C9.87639 4.37191 8.12361 4.37191 7.72655 5.63424C7.6935 5.73933 7.60631 5.79354 7.52627 5.79354C6.19466 5.79354 5.72638 7.49813 6.73322 8.25377C6.80933 8.3109 6.84965 8.4221 6.81574 8.52992C6.62198 9.14592 6.87132 9.72457 7.29613 10.0434C7.72358 10.3642 8.35577 10.4385 8.88224 10.0434C8.95373 9.98974 9.04627 9.98974 9.11776 10.0434C9.64424 10.4385 10.2764 10.3642 10.7039 10.0434C11.1287 9.72457 11.378 9.14592 11.1843 8.52992C11.1503 8.4221 11.1907 8.3109 11.2668 8.25377C12.2736 7.49813 11.8053 5.79354 10.4737 5.79354C10.3937 5.79354 10.3065 5.73933 10.2734 5.63424Z" fill="#8990AE"/>
</svg>
