<svg width="19" height="18" viewBox="0 0 19 18" fill="none" xmlns="http://www.w3.org/2000/svg">
<path d="M14.921 12.9697C14.6281 12.6768 14.1532 12.6768 13.8603 12.9697C13.5675 13.2626 13.5674 13.7375 13.8603 14.0304L14.921 12.9697ZM16.8603 17.0304C17.1532 17.3233 17.628 17.3233 17.9209 17.0304C18.2138 16.7375 18.2138 16.2626 17.9209 15.9697L16.8603 17.0304ZM13.8603 14.0304L16.8603 17.0304L17.9209 15.9697L14.921 12.9697L13.8603 14.0304ZM8.39062 13.5C5.07692 13.5 2.39062 10.8137 2.39062 7.5H0.890625C0.890625 11.6421 4.24849 15 8.39062 15V13.5ZM14.3906 7.5C14.3906 10.8137 11.7043 13.5 8.39062 13.5V15C12.5328 15 15.8906 11.6421 15.8906 7.5H14.3906ZM8.39062 1.5C11.7043 1.5 14.3906 4.18629 14.3906 7.5H15.8906C15.8906 3.35786 12.5328 0 8.39062 0V1.5ZM8.39062 0C4.24849 0 0.890625 3.35786 0.890625 7.5H2.39062C2.39062 4.18629 5.07692 1.5 8.39062 1.5V0Z" fill="#9AA8E7"/>
</svg>
