<svg width="18" height="18" viewBox="0 0 18 18" fill="none" xmlns="http://www.w3.org/2000/svg">
<path d="M7.3125 9.00038C7.3125 8.0684 8.06802 7.31288 9 7.31288C9.93198 7.31288 10.6875 8.0684 10.6875 9.00038C10.6875 9.93236 9.93198 10.6879 9 10.6879C8.06802 10.6879 7.3125 9.93236 7.3125 9.00038Z" fill="#A0ABDB"/>
<path fill-rule="evenodd" clip-rule="evenodd" d="M6.43892 2.42459C7.17423 -0.151946 10.8257 -0.151947 11.561 2.42459C11.7888 3.22289 12.609 3.69641 13.4142 3.49456C16.0132 2.84309 17.839 6.00534 15.9753 7.93041C15.3978 8.52686 15.3978 9.4739 15.9753 10.0704C17.839 11.9954 16.0132 15.1577 13.4142 14.5062C12.609 14.3043 11.7888 14.7779 11.561 15.5762C10.8257 18.1527 7.17423 18.1527 6.43892 15.5762C6.2111 14.7779 5.39094 14.3043 4.58568 14.5062C1.98668 15.1577 0.160949 11.9954 2.02464 10.0704C2.60208 9.4739 2.60208 8.52686 2.02464 7.93041C0.16095 6.00534 1.98668 2.84309 4.58568 3.49456C5.39094 3.69641 6.2111 3.22289 6.43892 2.42459ZM9 6.18788C7.4467 6.18788 6.1875 7.44708 6.1875 9.00038C6.1875 10.5537 7.4467 11.8129 9 11.8129C10.5533 11.8129 11.8125 10.5537 11.8125 9.00038C11.8125 7.44708 10.5533 6.18788 9 6.18788Z" fill="#A0ABDB"/>
</svg>
