<svg width="18" height="18" viewBox="0 0 18 18" fill="none" xmlns="http://www.w3.org/2000/svg">
<path fill-rule="evenodd" clip-rule="evenodd" d="M5.87669 3.20669C6.85977 0.181102 11.1402 0.181102 12.1232 3.20669C12.4123 4.09625 13.2412 4.69853 14.1766 4.69853C17.3579 4.69853 18.6806 8.76944 16.1069 10.6394C15.3502 11.1891 15.0335 12.1636 15.3226 13.0532C16.3056 16.0788 12.8427 18.5948 10.269 16.7248C9.5123 16.1751 8.48764 16.1751 7.73094 16.7248C5.15721 18.5948 1.69429 16.0788 2.67737 13.0532C2.9664 12.1636 2.64977 11.1891 1.89306 10.6394C-0.68066 8.76944 0.642058 4.69853 3.82335 4.69853C4.75869 4.69853 5.58766 4.09625 5.87669 3.20669ZM11.0327 5.73406C10.933 5.43982 10.6137 5.28209 10.3195 5.38176C10.0252 5.48143 9.86751 5.80075 9.96717 6.09499C10.2905 7.04949 11.2075 7.67525 12.2193 7.67525C12.53 7.67525 12.7818 7.42341 12.7818 7.11275C12.7818 6.80209 12.53 6.55025 12.2193 6.55025C11.6647 6.55025 11.1934 6.20853 11.0327 5.73406Z" fill="#8990AE"/>
</svg>
