<svg width="12" height="10" viewBox="0 0 12 10" fill="none" xmlns="http://www.w3.org/2000/svg">
<path d="M0.676905 4.57492C0.676905 4.57492 5.55963 2.5184 7.25304 1.79425C7.90221 1.50461 10.1037 0.577693 10.1037 0.577693C10.1037 0.577693 11.1197 0.172202 11.035 1.15701C11.0068 1.56254 10.781 2.98182 10.5553 4.51699C10.2165 6.68941 9.84964 9.06455 9.84964 9.06455C9.84964 9.06455 9.79319 9.73077 9.3134 9.84663C8.8336 9.96248 8.0433 9.44114 7.90221 9.32524C7.78928 9.23837 5.78541 7.93491 5.0516 7.29767C4.85402 7.12388 4.62824 6.77632 5.0798 6.37079C6.09587 5.41493 7.30949 4.22736 8.0433 3.47426C8.38201 3.12666 8.72067 2.31563 7.30949 3.30044C5.30561 4.71976 3.32995 6.05217 3.32995 6.05217C3.32995 6.05217 2.87835 6.3418 2.03165 6.08111C1.1849 5.82046 0.197069 5.47285 0.197069 5.47285C0.197069 5.47285 -0.480263 5.03838 0.676905 4.57492Z" fill="#8990AE"/>
</svg>
