<svg width="70" height="61" viewBox="0 0 70 61" fill="none" xmlns="http://www.w3.org/2000/svg">
<path d="M32 50.5427C32 52.1996 33.3431 53.5427 35 53.5427C36.6569 53.5427 38 52.1996 38 50.5427H32ZM38 10.457C38 8.80018 36.6569 7.45703 35 7.45703C33.3431 7.45703 32 8.80018 32 10.457L38 10.457ZM18.0669 18.1843C16.7999 19.2519 16.6382 21.1445 17.7058 22.4115C18.7734 23.6786 20.666 23.8402 21.9331 22.7726L18.0669 18.1843ZM25.2419 16.0616L23.3088 13.7674L25.2419 16.0616ZM44.7581 16.0616L42.825 18.3558V18.3558L44.7581 16.0616ZM48.0669 22.7726C49.334 23.8402 51.2266 23.6786 52.2942 22.4115C53.3618 21.1445 53.2001 19.2519 51.9331 18.1843L48.0669 22.7726ZM34.06 10.5069L33.7425 7.52372L33.7425 7.52372L34.06 10.5069ZM35.94 10.5069L36.2575 7.52372L36.2575 7.52372L35.94 10.5069ZM38 50.5427L38 10.457L32 10.457L32 50.5427H38ZM21.9331 22.7726L27.175 18.3558L23.3088 13.7674L18.0669 18.1843L21.9331 22.7726ZM42.825 18.3558L48.0669 22.7726L51.9331 18.1843L46.6912 13.7674L42.825 18.3558ZM27.175 18.3558C29.3156 16.5521 30.739 15.3582 31.9343 14.5566C33.0676 13.7964 33.761 13.5556 34.3775 13.49L33.7425 7.52372C31.8115 7.72926 30.1859 8.50463 28.5922 9.5735C27.0604 10.6008 25.3486 12.0488 23.3088 13.7674L27.175 18.3558ZM46.6912 13.7674C44.6514 12.0488 42.9396 10.6008 41.4078 9.5735C39.8141 8.50464 38.1885 7.72926 36.2575 7.52372L35.6225 13.49C36.239 13.5556 36.9324 13.7964 38.0657 14.5566C39.261 15.3582 40.6844 16.5521 42.825 18.3558L46.6912 13.7674ZM34.3775 13.49C34.7906 13.446 35.2094 13.446 35.6225 13.49L36.2575 7.52372C35.4223 7.4348 34.5777 7.4348 33.7425 7.52372L34.3775 13.49Z" fill="#3586FF"/>
</svg>
