<svg width="10" height="13" viewBox="0 0 10 13" fill="none" xmlns="http://www.w3.org/2000/svg">
<path d="M7.33335 3.49984C7.33335 4.7885 6.28868 5.83317 5.00002 5.83317C3.71136 5.83317 2.66669 4.7885 2.66669 3.49984C2.66669 2.21117 3.71136 1.1665 5.00002 1.1665C6.28868 1.1665 7.33335 2.21117 7.33335 3.49984Z" fill="#AEB8E9"/>
<path d="M0.916687 9.9165C0.916687 8.62784 1.96136 7.58317 3.25002 7.58317H6.75002C8.03868 7.58317 9.08335 8.62784 9.08335 9.9165C9.08335 11.2052 8.03868 12.2498 6.75002 12.2498H3.25002C1.96136 12.2498 0.916687 11.2052 0.916687 9.9165Z" fill="#AEB8E9"/>
<path d="M6.58335 3.49984C6.58335 4.37429 5.87447 5.08317 5.00002 5.08317V6.58317C6.7029 6.58317 8.08335 5.20272 8.08335 3.49984H6.58335ZM5.00002 5.08317C4.12557 5.08317 3.41669 4.37429 3.41669 3.49984H1.91669C1.91669 5.20272 3.29714 6.58317 5.00002 6.58317V5.08317ZM3.41669 3.49984C3.41669 2.62539 4.12557 1.9165 5.00002 1.9165V0.416504C3.29714 0.416504 1.91669 1.79696 1.91669 3.49984H3.41669ZM5.00002 1.9165C5.87447 1.9165 6.58335 2.62539 6.58335 3.49984H8.08335C8.08335 1.79696 6.7029 0.416504 5.00002 0.416504V1.9165ZM3.25002 8.33317H6.75002V6.83317H3.25002V8.33317ZM6.75002 11.4998H3.25002V12.9998H6.75002V11.4998ZM3.25002 11.4998C2.37557 11.4998 1.66669 10.791 1.66669 9.9165H0.166687C0.166687 11.6194 1.54714 12.9998 3.25002 12.9998V11.4998ZM8.33335 9.9165C8.33335 10.791 7.62447 11.4998 6.75002 11.4998V12.9998C8.4529 12.9998 9.83335 11.6194 9.83335 9.9165H8.33335ZM6.75002 8.33317C7.62447 8.33317 8.33335 9.04205 8.33335 9.9165H9.83335C9.83335 8.21363 8.4529 6.83317 6.75002 6.83317V8.33317ZM3.25002 6.83317C1.54714 6.83317 0.166687 8.21363 0.166687 9.9165H1.66669C1.66669 9.04205 2.37557 8.33317 3.25002 8.33317V6.83317Z" fill="#AEB8E9"/>
</svg>
