<svg width="39" height="17" viewBox="0 0 39 17" fill="none" xmlns="http://www.w3.org/2000/svg">
<path fill-rule="evenodd" clip-rule="evenodd" d="M11.1591 13.1942H8.18871L5.96128 4.52869C5.85555 4.13008 5.63107 3.77768 5.30087 3.61159C4.4768 3.1942 3.56874 2.86203 2.57812 2.69449V2.36087H7.3632C8.02361 2.36087 8.51892 2.86203 8.60147 3.44406L9.75719 9.69478L12.7261 2.36087H15.614L11.1591 13.1942ZM17.2645 13.1942H14.4592L16.7692 2.36087H19.5745L17.2645 13.1942ZM23.2051 5.36039C23.2876 4.77691 23.783 4.44329 24.3608 4.44329C25.2689 4.35952 26.258 4.52705 27.0836 4.943L27.5789 2.61053C26.7533 2.27691 25.8453 2.10938 25.0212 2.10938C22.2985 2.10938 20.3172 3.60995 20.3172 5.69256C20.3172 7.27691 21.7206 8.1088 22.7112 8.60995C23.783 9.10966 24.1957 9.44328 24.1132 9.943C24.1132 10.6926 23.2876 11.0262 22.4636 11.0262C21.473 11.0262 20.4824 10.7763 19.5757 10.3589L19.0804 12.6929C20.071 13.1088 21.1428 13.2763 22.1334 13.2763C25.1863 13.3587 27.0836 11.8595 27.0836 9.60937C27.0836 6.77575 23.2051 6.60966 23.2051 5.36039ZM36.8996 13.1942L34.6722 2.36087H32.2796C31.7843 2.36087 31.289 2.69449 31.1239 3.1942L26.9993 13.1942H29.8871L30.4635 11.6113H34.0118L34.342 13.1942H36.8996ZM32.6928 5.27709L33.5168 9.35999H31.2068L32.6928 5.27709Z" fill="#8990AE"/>
</svg>
