<svg width="12" height="11" viewBox="0 0 12 11" fill="none" xmlns="http://www.w3.org/2000/svg">
<path d="M2.19377 9.74547L2.43864 9.30954L2.19377 9.74547ZM1.36841 8.9889L1.78409 8.71102H1.78408L1.36841 8.9889ZM10.6316 8.9889L10.2159 8.71102L10.6316 8.9889ZM9.80626 9.74547L9.56138 9.30954L9.80626 9.74547ZM9.80626 2.6292L9.56138 3.06513L9.80626 2.6292ZM10.6316 3.38578L10.2159 3.66366L10.6316 3.38578ZM2.19377 2.6292L2.43864 3.06513L2.19377 2.6292ZM1.36841 3.38578L1.78408 3.66366H1.78409L1.36841 3.38578ZM9.2384 1.16696L9.58385 0.805483V0.805483L9.2384 1.16696ZM1.92212 1.32478L2.20729 1.73549V1.73549L1.92212 1.32478ZM1.42724 1.79773L1.82527 2.10033L1.42724 1.79773ZM9.50001 2.35124H10L10 2.34854L9.50001 2.35124ZM9.18183 6.39568C9.45797 6.39568 9.68183 6.17182 9.68183 5.89568C9.68183 5.61953 9.45797 5.39568 9.18183 5.39568V6.39568ZM7.8182 5.39568C7.54205 5.39568 7.3182 5.61953 7.3182 5.89568C7.3182 6.17182 7.54205 6.39568 7.8182 6.39568V5.39568ZM5.25001 2.7915H6.75001V1.7915H5.25001V2.7915ZM6.75001 9.58317H5.25001V10.5832H6.75001V9.58317ZM5.25001 9.58317C4.42277 9.58317 3.83454 9.58273 3.37698 9.54285C2.92518 9.50347 2.65077 9.4287 2.43864 9.30954L1.94889 10.1814C2.33793 10.3999 2.7733 10.494 3.29015 10.5391C3.80123 10.5836 4.44054 10.5832 5.25001 10.5832V9.58317ZM0.500014 6.18734C0.500014 6.92695 0.499388 7.51994 0.548732 7.99567C0.59906 8.48088 0.705379 8.89675 0.952743 9.26678L1.78408 8.71102C1.66305 8.52996 1.58517 8.29522 1.5434 7.8925C1.50064 7.4803 1.50001 6.94805 1.50001 6.18734H0.500014ZM2.43864 9.30954C2.16798 9.1575 1.94474 8.95133 1.78409 8.71102L0.952743 9.26678C1.20437 9.64318 1.54678 9.95552 1.94889 10.1814L2.43864 9.30954ZM6.75001 10.5832C7.55949 10.5832 8.19879 10.5836 8.70988 10.5391C9.22673 10.494 9.6621 10.3999 10.0511 10.1814L9.56138 9.30954C9.34925 9.4287 9.07485 9.50347 8.62305 9.54285C8.16549 9.58273 7.57726 9.58317 6.75001 9.58317V10.5832ZM10.2159 8.71102C10.0553 8.95133 9.83205 9.1575 9.56138 9.30954L10.0511 10.1814C10.4532 9.95552 10.7957 9.64318 11.0473 9.26678L10.2159 8.71102ZM9.56138 3.06513C9.83205 3.21718 10.0553 3.42335 10.2159 3.66366L11.0473 3.1079C10.7957 2.7315 10.4532 2.41915 10.0511 2.19327L9.56138 3.06513ZM5.25001 1.7915C4.44054 1.7915 3.80123 1.79106 3.29015 1.8356C2.7733 1.88065 2.33793 1.97473 1.94889 2.19327L2.43864 3.06513C2.65077 2.94597 2.92518 2.87121 3.37698 2.83183C3.83454 2.79195 4.42277 2.7915 5.25001 2.7915V1.7915ZM1.50001 6.18734C1.50001 5.42663 1.50064 4.89438 1.5434 4.48218C1.58517 4.07945 1.66305 3.84471 1.78408 3.66366L0.952743 3.1079C0.705379 3.47792 0.59906 3.8938 0.548732 4.379C0.499388 4.85474 0.500014 5.44772 0.500014 6.18734H1.50001ZM1.94889 2.19327C1.54678 2.41915 1.20437 2.7315 0.952743 3.1079L1.78409 3.66366C1.94474 3.42335 2.16798 3.21718 2.43864 3.06513L1.94889 2.19327ZM5.02655 1.4165H7.71091V0.416504H5.02655V1.4165ZM7.71091 1.4165C8.14624 1.4165 8.42464 1.41748 8.62901 1.44373C8.82124 1.46843 8.87103 1.50749 8.89295 1.52844L9.58385 0.805483C9.3437 0.575977 9.05155 0.489803 8.75645 0.451888C8.4735 0.415533 8.11919 0.416504 7.71091 0.416504V1.4165ZM5.02655 0.416504C4.1984 0.416504 3.53889 0.415876 3.01425 0.470197C2.48152 0.525356 2.02936 0.641618 1.63696 0.914075L2.20729 1.73549C2.40291 1.59967 2.66416 1.51179 3.11724 1.46488C3.5784 1.41713 4.1771 1.4165 5.02655 1.4165V0.416504ZM1.50001 4.7645C1.50001 3.95125 1.50076 3.38332 1.55023 2.94696C1.59848 2.52137 1.68787 2.28105 1.82527 2.10033L1.0292 1.49512C0.739376 1.87635 0.615155 2.31781 0.5566 2.83431C0.499264 3.34005 0.500014 3.97454 0.500014 4.7645H1.50001ZM1.63696 0.914075C1.40461 1.0754 1.19935 1.27131 1.0292 1.49512L1.82527 2.10033C1.93107 1.96117 2.05982 1.83788 2.20729 1.73549L1.63696 0.914075ZM10 2.34854C9.99834 2.04003 9.99147 1.75509 9.94552 1.51347C9.8965 1.25565 9.79647 1.00868 9.58385 0.805483L8.89295 1.52844C8.91068 1.54538 8.93978 1.57751 8.96313 1.70028C8.98955 1.83925 8.99831 2.03638 9.00002 2.35393L10 2.34854ZM0.500014 4.7645C0.500014 5.20459 0.489917 5.62308 0.500223 5.97289L1.49979 5.94345C1.49001 5.61144 1.50001 5.24295 1.50001 4.7645H0.500014ZM10.75 6.64568H7.8182V7.64568H10.75V6.64568ZM5.95456 5.89568C5.95456 6.90224 6.83078 7.64568 7.8182 7.64568V6.64568C7.29938 6.64568 6.95456 6.26983 6.95456 5.89568H5.95456ZM6.95456 5.89568C6.95456 5.52153 7.29938 5.14568 7.8182 5.14568V4.14568C6.83078 4.14568 5.95456 4.88912 5.95456 5.89568H6.95456ZM9.18183 5.39568H7.8182V6.39568H9.18183V5.39568ZM6.75001 2.7915C7.44329 2.7915 7.97048 2.79168 8.39663 2.81579C8.82261 2.83988 9.11219 2.88659 9.33563 2.96437L9.6644 2.01996C9.31144 1.89709 8.91401 1.84346 8.4531 1.81738C7.99235 1.79132 7.43274 1.7915 6.75001 1.7915V2.7915ZM9.33563 2.96437C9.41882 2.99333 9.49296 3.0267 9.56138 3.06513L10.0511 2.19327C9.92803 2.12412 9.79963 2.06704 9.6644 2.01996L9.33563 2.96437ZM9.00001 2.35124V2.49217H10V2.35124H9.00001ZM7.8182 5.14568H10.9722V4.14568H7.8182V5.14568ZM11.5 6.18734C11.5 5.55973 11.5003 5.04016 11.4711 4.61166L10.4734 4.67969C10.4998 5.06651 10.5 5.547 10.5 6.18734H11.5ZM11.4711 4.61166C11.431 4.02419 11.3326 3.5347 11.0473 3.1079L10.2159 3.66366C10.3561 3.87329 10.4375 4.15299 10.4734 4.67969L11.4711 4.61166ZM10.5 6.18734C10.5 6.54876 10.5 6.86076 10.495 7.13662L11.4948 7.15473C11.5 6.86798 11.5 6.54617 11.5 6.18734H10.5ZM10.495 7.13662C10.4787 8.03603 10.4049 8.42841 10.2159 8.71102L11.0473 9.26678C11.4183 8.71179 11.4789 8.0366 11.4948 7.15473L10.495 7.13662ZM10.75 7.64568H10.9949V6.64568H10.75V7.64568Z" fill="#8990AE"/>
</svg>
