<svg width="14" height="19" viewBox="0 0 14 19" fill="none" xmlns="http://www.w3.org/2000/svg">
<path d="M9.58073 5.00002C9.58073 6.42676 8.42413 7.58335 6.9974 7.58335V9.08335C9.25256 9.08335 11.0807 7.25518 11.0807 5.00002H9.58073ZM6.9974 7.58335C5.57066 7.58335 4.41406 6.42676 4.41406 5.00002H2.91406C2.91406 7.25518 4.74223 9.08335 6.9974 9.08335V7.58335ZM4.41406 5.00002C4.41406 3.57328 5.57066 2.41669 6.9974 2.41669V0.916687C4.74223 0.916687 2.91406 2.74486 2.91406 5.00002H4.41406ZM6.9974 2.41669C8.42413 2.41669 9.58073 3.57328 9.58073 5.00002H11.0807C11.0807 2.74486 9.25256 0.916687 6.9974 0.916687V2.41669ZM4.4974 11.5834H9.4974V10.0834H4.4974V11.5834ZM9.4974 16.75H4.4974V18.25H9.4974V16.75ZM4.4974 16.75C3.07066 16.75 1.91406 15.5934 1.91406 14.1667H0.414062C0.414062 16.4218 2.24223 18.25 4.4974 18.25V16.75ZM12.0807 14.1667C12.0807 15.5934 10.9241 16.75 9.4974 16.75V18.25C11.7526 18.25 13.5807 16.4218 13.5807 14.1667H12.0807ZM9.4974 11.5834C10.9241 11.5834 12.0807 12.74 12.0807 14.1667H13.5807C13.5807 11.9115 11.7526 10.0834 9.4974 10.0834V11.5834ZM4.4974 10.0834C2.24223 10.0834 0.414062 11.9115 0.414062 14.1667H1.91406C1.91406 12.74 3.07066 11.5834 4.4974 11.5834V10.0834Z" fill="#A6B0DA"/>
</svg>
