<svg width="18" height="18" viewBox="0 0 18 18" fill="none" xmlns="http://www.w3.org/2000/svg">
<circle cx="9" cy="9" r="9" fill="#DFA73A"/>
<path d="M10.1833 6.66667C10.1833 7.36623 9.61623 7.93333 8.91667 7.93333V8.73333C10.0581 8.73333 10.9833 7.80806 10.9833 6.66667H10.1833ZM8.91667 7.93333C8.21711 7.93333 7.65 7.36623 7.65 6.66667H6.85C6.85 7.80806 7.77528 8.73333 8.91667 8.73333V7.93333ZM7.65 6.66667C7.65 5.96711 8.21711 5.4 8.91667 5.4V4.6C7.77528 4.6 6.85 5.52528 6.85 6.66667H7.65ZM8.91667 5.4C9.61623 5.4 10.1833 5.96711 10.1833 6.66667H10.9833C10.9833 5.52528 10.0581 4.6 8.91667 4.6V5.4ZM7.66667 9.98333H10.1667V9.18333H7.66667V9.98333ZM10.1667 12.5167H7.66667V13.3167H10.1667V12.5167ZM7.66667 12.5167C6.96711 12.5167 6.4 11.9496 6.4 11.25H5.6C5.6 12.3914 6.52528 13.3167 7.66667 13.3167V12.5167ZM11.4333 11.25C11.4333 11.9496 10.8662 12.5167 10.1667 12.5167V13.3167C11.3081 13.3167 12.2333 12.3914 12.2333 11.25H11.4333ZM10.1667 9.98333C10.8662 9.98333 11.4333 10.5504 11.4333 11.25H12.2333C12.2333 10.1086 11.3081 9.18333 10.1667 9.18333V9.98333ZM7.66667 9.18333C6.52528 9.18333 5.6 10.1086 5.6 11.25H6.4C6.4 10.5504 6.96711 9.98333 7.66667 9.98333V9.18333Z" fill="white"/>
</svg>
