<svg width="650" height="308" viewBox="0 0 650 308" fill="none" xmlns="http://www.w3.org/2000/svg">
<rect y="256" width="650" height="52" rx="10" fill="#1D2036"/>
<path d="M150.72 279.2C149.613 279.2 148.613 278.92 147.72 278.36C146.84 277.8 146.147 276.987 145.64 275.92C145.133 274.84 144.88 273.533 144.88 272C144.88 270.467 145.133 269.167 145.64 268.1C146.147 267.02 146.84 266.2 147.72 265.64C148.613 265.08 149.613 264.8 150.72 264.8C151.84 264.8 152.84 265.08 153.72 265.64C154.6 266.2 155.293 267.02 155.8 268.1C156.32 269.167 156.58 270.467 156.58 272C156.58 273.533 156.32 274.84 155.8 275.92C155.293 276.987 154.6 277.8 153.72 278.36C152.84 278.92 151.84 279.2 150.72 279.2ZM150.72 276.94C151.373 276.94 151.94 276.767 152.42 276.42C152.9 276.06 153.273 275.513 153.54 274.78C153.82 274.047 153.96 273.12 153.96 272C153.96 270.867 153.82 269.94 153.54 269.22C153.273 268.487 152.9 267.947 152.42 267.6C151.94 267.24 151.373 267.06 150.72 267.06C150.093 267.06 149.533 267.24 149.04 267.6C148.56 267.947 148.18 268.487 147.9 269.22C147.633 269.94 147.5 270.867 147.5 272C147.5 273.12 147.633 274.047 147.9 274.78C148.18 275.513 148.56 276.06 149.04 276.42C149.533 276.767 150.093 276.94 150.72 276.94ZM157.442 279L162.142 272.88L162.102 274.22L157.622 268.32H160.402L163.542 272.52H162.482L165.642 268.32H168.342L163.822 274.22L163.842 272.88L168.522 279H165.702L162.402 274.54L163.442 274.68L160.202 279H157.442Z" fill="#90A3C7"/>
<path d="M140.704 301.14C139.929 301.14 139.229 300.944 138.604 300.552C137.988 300.16 137.503 299.591 137.148 298.844C136.793 298.088 136.616 297.173 136.616 296.1C136.616 295.027 136.793 294.117 137.148 293.37C137.503 292.614 137.988 292.04 138.604 291.648C139.229 291.256 139.929 291.06 140.704 291.06C141.488 291.06 142.188 291.256 142.804 291.648C143.42 292.04 143.905 292.614 144.26 293.37C144.624 294.117 144.806 295.027 144.806 296.1C144.806 297.173 144.624 298.088 144.26 298.844C143.905 299.591 143.42 300.16 142.804 300.552C142.188 300.944 141.488 301.14 140.704 301.14ZM140.704 299.558C141.161 299.558 141.558 299.437 141.894 299.194C142.23 298.942 142.491 298.559 142.678 298.046C142.874 297.533 142.972 296.884 142.972 296.1C142.972 295.307 142.874 294.658 142.678 294.154C142.491 293.641 142.23 293.263 141.894 293.02C141.558 292.768 141.161 292.642 140.704 292.642C140.265 292.642 139.873 292.768 139.528 293.02C139.192 293.263 138.926 293.641 138.73 294.154C138.543 294.658 138.45 295.307 138.45 296.1C138.45 296.884 138.543 297.533 138.73 298.046C138.926 298.559 139.192 298.942 139.528 299.194C139.873 299.437 140.265 299.558 140.704 299.558ZM157.493 291.2H159.313V301H157.493V291.2ZM152.425 301H150.605V291.2H152.425V301ZM157.633 296.8H152.271V295.246H157.633V296.8ZM161.771 301V293.524H163.521V301H161.771ZM162.653 292.292C162.326 292.292 162.056 292.189 161.841 291.984C161.636 291.779 161.533 291.531 161.533 291.242C161.533 290.943 161.636 290.696 161.841 290.5C162.056 290.295 162.326 290.192 162.653 290.192C162.98 290.192 163.246 290.29 163.451 290.486C163.666 290.673 163.773 290.911 163.773 291.2C163.773 291.508 163.67 291.769 163.465 291.984C163.26 292.189 162.989 292.292 162.653 292.292ZM168.632 301.098C167.811 301.098 167.176 300.888 166.728 300.468C166.28 300.039 166.056 299.409 166.056 298.578V291.872H167.806V298.536C167.806 298.891 167.895 299.166 168.072 299.362C168.259 299.558 168.515 299.656 168.842 299.656C169.234 299.656 169.561 299.553 169.822 299.348L170.312 300.594C170.107 300.762 169.855 300.888 169.556 300.972C169.257 301.056 168.949 301.098 168.632 301.098ZM164.824 294.98V293.58H169.808V294.98H164.824ZM174.062 301.098C173.436 301.098 172.834 301.019 172.256 300.86C171.686 300.692 171.234 300.491 170.898 300.258L171.57 298.928C171.906 299.143 172.307 299.32 172.774 299.46C173.24 299.6 173.707 299.67 174.174 299.67C174.724 299.67 175.121 299.595 175.364 299.446C175.616 299.297 175.742 299.096 175.742 298.844C175.742 298.639 175.658 298.485 175.49 298.382C175.322 298.27 175.102 298.186 174.832 298.13C174.561 298.074 174.258 298.023 173.922 297.976C173.595 297.929 173.264 297.869 172.928 297.794C172.601 297.71 172.302 297.593 172.032 297.444C171.761 297.285 171.542 297.075 171.374 296.814C171.206 296.553 171.122 296.207 171.122 295.778C171.122 295.302 171.257 294.891 171.528 294.546C171.798 294.191 172.176 293.921 172.662 293.734C173.156 293.538 173.74 293.44 174.412 293.44C174.916 293.44 175.424 293.496 175.938 293.608C176.451 293.72 176.876 293.879 177.212 294.084L176.54 295.414C176.185 295.199 175.826 295.055 175.462 294.98C175.107 294.896 174.752 294.854 174.398 294.854C173.866 294.854 173.469 294.933 173.208 295.092C172.956 295.251 172.83 295.451 172.83 295.694C172.83 295.918 172.914 296.086 173.082 296.198C173.25 296.31 173.469 296.399 173.74 296.464C174.01 296.529 174.309 296.585 174.636 296.632C174.972 296.669 175.303 296.73 175.63 296.814C175.956 296.898 176.255 297.015 176.526 297.164C176.806 297.304 177.03 297.505 177.198 297.766C177.366 298.027 177.45 298.368 177.45 298.788C177.45 299.255 177.31 299.661 177.03 300.006C176.759 300.351 176.372 300.622 175.868 300.818C175.364 301.005 174.762 301.098 174.062 301.098Z" fill="#90A3C7"/>
<path d="M488.12 279V266L489.26 267.18H485.16V265H490.72V279H488.12ZM492.797 279L497.497 272.88L497.457 274.22L492.977 268.32H495.757L498.897 272.52H497.837L500.997 268.32H503.697L499.177 274.22L499.197 272.88L503.877 279H501.057L497.757 274.54L498.797 274.68L495.557 279H492.797Z" fill="#90A3C7"/>
<path d="M478.184 301V291.9L478.982 292.726H476.112V291.2H480.004V301H478.184ZM493.405 291.2H495.225V301H493.405V291.2ZM488.337 301H486.517V291.2H488.337V301ZM493.545 296.8H488.183V295.246H493.545V296.8ZM497.683 301V293.524H499.433V301H497.683ZM498.565 292.292C498.238 292.292 497.968 292.189 497.753 291.984C497.548 291.779 497.445 291.531 497.445 291.242C497.445 290.943 497.548 290.696 497.753 290.5C497.968 290.295 498.238 290.192 498.565 290.192C498.892 290.192 499.158 290.29 499.363 290.486C499.578 290.673 499.685 290.911 499.685 291.2C499.685 291.508 499.582 291.769 499.377 291.984C499.172 292.189 498.901 292.292 498.565 292.292ZM504.544 301.098C503.723 301.098 503.088 300.888 502.64 300.468C502.192 300.039 501.968 299.409 501.968 298.578V291.872H503.718V298.536C503.718 298.891 503.807 299.166 503.984 299.362C504.171 299.558 504.427 299.656 504.754 299.656C505.146 299.656 505.473 299.553 505.734 299.348L506.224 300.594C506.019 300.762 505.767 300.888 505.468 300.972C505.169 301.056 504.861 301.098 504.544 301.098ZM500.736 294.98V293.58H505.72V294.98H500.736ZM509.974 301.098C509.348 301.098 508.746 301.019 508.168 300.86C507.598 300.692 507.146 300.491 506.81 300.258L507.482 298.928C507.818 299.143 508.219 299.32 508.686 299.46C509.152 299.6 509.619 299.67 510.086 299.67C510.636 299.67 511.033 299.595 511.276 299.446C511.528 299.297 511.654 299.096 511.654 298.844C511.654 298.639 511.57 298.485 511.402 298.382C511.234 298.27 511.014 298.186 510.744 298.13C510.473 298.074 510.17 298.023 509.834 297.976C509.507 297.929 509.176 297.869 508.84 297.794C508.513 297.71 508.214 297.593 507.944 297.444C507.673 297.285 507.454 297.075 507.286 296.814C507.118 296.553 507.034 296.207 507.034 295.778C507.034 295.302 507.169 294.891 507.44 294.546C507.71 294.191 508.088 293.921 508.574 293.734C509.068 293.538 509.652 293.44 510.324 293.44C510.828 293.44 511.336 293.496 511.85 293.608C512.363 293.72 512.788 293.879 513.124 294.084L512.452 295.414C512.097 295.199 511.738 295.055 511.374 294.98C511.019 294.896 510.664 294.854 510.31 294.854C509.778 294.854 509.381 294.933 509.12 295.092C508.868 295.251 508.742 295.451 508.742 295.694C508.742 295.918 508.826 296.086 508.994 296.198C509.162 296.31 509.381 296.399 509.652 296.464C509.922 296.529 510.221 296.585 510.548 296.632C510.884 296.669 511.215 296.73 511.542 296.814C511.868 296.898 512.167 297.015 512.438 297.164C512.718 297.304 512.942 297.505 513.11 297.766C513.278 298.027 513.362 298.368 513.362 298.788C513.362 299.255 513.222 299.661 512.942 300.006C512.671 300.351 512.284 300.622 511.78 300.818C511.276 301.005 510.674 301.098 509.974 301.098Z" fill="#90A3C7"/>
<rect width="56" height="51" rx="10" fill="#485299"/>
<rect x="66" width="56" height="51" rx="10" fill="#485299"/>
<rect x="132" width="56" height="51" rx="10" fill="#485299"/>
<rect x="198" width="56" height="51" rx="10" fill="#485299"/>
<rect x="264" width="56" height="51" rx="10" fill="#485299"/>
<rect x="330" width="56" height="51" rx="10" fill="#485299"/>
<rect x="396" width="56" height="51" rx="10" fill="#485299"/>
<rect x="462" width="56" height="51" rx="10" fill="#485299"/>
<rect x="528" width="56" height="51" rx="10" fill="#485299"/>
<rect x="594" width="56" height="51" rx="10" fill="#485299"/>
<rect y="61" width="56" height="51" rx="10" fill="#485299"/>
<rect x="66" y="61" width="56" height="51" rx="10" fill="#485299"/>
<rect x="132" y="61" width="56" height="51" rx="10" fill="#485299"/>
<rect x="198" y="61" width="56" height="51" rx="10" fill="#485299"/>
<rect x="264" y="61" width="56" height="51" rx="10" fill="#485299"/>
<rect x="330" y="61" width="56" height="51" rx="10" fill="#485299"/>
<rect x="396" y="61" width="56" height="51" rx="10" fill="#485299"/>
<rect x="462" y="61" width="56" height="51" rx="10" fill="#485299"/>
<rect x="528" y="61" width="56" height="51" rx="10" fill="#485299"/>
<rect x="594" y="61" width="56" height="51" rx="10" fill="#485299"/>
<rect y="122" width="56" height="51" rx="10" fill="#485299"/>
<rect x="66" y="122" width="56" height="51" rx="10" fill="#485299"/>
<rect x="132" y="122" width="56" height="51" rx="10" fill="#485299"/>
<rect x="198" y="122" width="56" height="51" rx="10" fill="#485299"/>
<rect x="264" y="122" width="56" height="51" rx="10" fill="#485299"/>
<rect x="330" y="122" width="56" height="51" rx="10" fill="#485299"/>
<rect x="396" y="122" width="56" height="51" rx="10" fill="#485299"/>
<rect x="462" y="122" width="56" height="51" rx="10" fill="#485299"/>
<rect x="528" y="122" width="56" height="51" rx="10" fill="#485299"/>
<rect x="594" y="122" width="56" height="51" rx="10" fill="#485299"/>
<rect y="183" width="56" height="51" rx="10" fill="#485299"/>
<rect x="66" y="183" width="56" height="51" rx="10" fill="#485299"/>
<rect x="132" y="183" width="56" height="51" rx="10" fill="#485299"/>
<rect x="198" y="183" width="56" height="51" rx="10" fill="#485299"/>
<rect x="264" y="183" width="56" height="51" rx="10" fill="#485299"/>
<rect x="330" y="183" width="56" height="51" rx="10" fill="#485299"/>
<rect x="396" y="183" width="56" height="51" rx="10" fill="#485299"/>
<rect x="462" y="183" width="56" height="51" rx="10" fill="#485299"/>
<rect x="528" y="183" width="56" height="51" rx="10" fill="#485299"/>
<rect x="594" y="183" width="56" height="51" rx="10" fill="#485299"/>
<path d="M27.12 33V20L28.26 21.18H24.16V19H29.72V33H27.12Z" fill="white"/>
<path d="M88.7 33V31.26L94.26 25.98C94.7267 25.54 95.0733 25.1533 95.3 24.82C95.5267 24.4867 95.6733 24.18 95.74 23.9C95.82 23.6067 95.86 23.3333 95.86 23.08C95.86 22.44 95.64 21.9467 95.2 21.6C94.76 21.24 94.1133 21.06 93.26 21.06C92.58 21.06 91.96 21.18 91.4 21.42C90.8533 21.66 90.38 22.0267 89.98 22.52L88.16 21.12C88.7067 20.3867 89.44 19.82 90.36 19.42C91.2933 19.0067 92.3333 18.8 93.48 18.8C94.4933 18.8 95.3733 18.9667 96.12 19.3C96.88 19.62 97.46 20.08 97.86 20.68C98.2733 21.28 98.48 21.9933 98.48 22.82C98.48 23.2733 98.42 23.7267 98.3 24.18C98.18 24.62 97.9533 25.0867 97.62 25.58C97.2867 26.0733 96.8 26.6267 96.16 27.24L91.38 31.78L90.84 30.8H99.02V33H88.7Z" fill="white"/>
<path d="M159.28 33.2C158.293 33.2 157.327 33.06 156.38 32.78C155.447 32.4867 154.66 32.0867 154.02 31.58L155.14 29.56C155.647 29.9733 156.26 30.3067 156.98 30.56C157.7 30.8133 158.453 30.94 159.24 30.94C160.173 30.94 160.9 30.7533 161.42 30.38C161.94 29.9933 162.2 29.4733 162.2 28.82C162.2 28.18 161.96 27.6733 161.48 27.3C161 26.9267 160.227 26.74 159.16 26.74H157.88V24.96L161.88 20.2L162.22 21.18H154.7V19H164.24V20.74L160.24 25.5L158.88 24.7H159.66C161.38 24.7 162.667 25.0867 163.52 25.86C164.387 26.62 164.82 27.6 164.82 28.8C164.82 29.5867 164.62 30.3133 164.22 30.98C163.82 31.6467 163.207 32.1867 162.38 32.6C161.567 33 160.533 33.2 159.28 33.2Z" fill="white"/>
<path d="M219.68 29.82V28.02L226.58 19H229.36L222.56 28.02L221.26 27.62H232.36V29.82H219.68ZM227.36 33V29.82L227.44 27.62V24.8H229.88V33H227.36Z" fill="white"/>
<path d="M290.52 33.2C289.533 33.2 288.567 33.06 287.62 32.78C286.687 32.4867 285.9 32.0867 285.26 31.58L286.36 29.56C286.867 29.9733 287.48 30.3067 288.2 30.56C288.933 30.8133 289.693 30.94 290.48 30.94C291.4 30.94 292.12 30.7467 292.64 30.36C293.173 29.9733 293.44 29.4533 293.44 28.8C293.44 28.36 293.327 27.9733 293.1 27.64C292.887 27.3067 292.5 27.0533 291.94 26.88C291.393 26.7067 290.64 26.62 289.68 26.62H286.3L287.02 19H295.24V21.18H287.98L289.34 19.94L288.8 25.64L287.44 24.42H290.26C291.647 24.42 292.76 24.6067 293.6 24.98C294.453 25.34 295.073 25.8467 295.46 26.5C295.86 27.14 296.06 27.8733 296.06 28.7C296.06 29.5133 295.86 30.26 295.46 30.94C295.06 31.62 294.447 32.1667 293.62 32.58C292.807 32.9933 291.773 33.2 290.52 33.2Z" fill="white"/>
<path d="M358.94 33.2C357.673 33.2 356.587 32.9333 355.68 32.4C354.773 31.8533 354.08 31.0667 353.6 30.04C353.12 29.0133 352.88 27.7467 352.88 26.24C352.88 24.64 353.167 23.2867 353.74 22.18C354.327 21.0733 355.133 20.2333 356.16 19.66C357.2 19.0867 358.393 18.8 359.74 18.8C360.447 18.8 361.12 18.8733 361.76 19.02C362.413 19.1667 362.967 19.3933 363.42 19.7L362.46 21.66C362.073 21.4067 361.653 21.2333 361.2 21.14C360.76 21.0333 360.293 20.98 359.8 20.98C358.48 20.98 357.433 21.3867 356.66 22.2C355.887 23.0133 355.5 24.2133 355.5 25.8C355.5 26.0533 355.507 26.3533 355.52 26.7C355.533 27.0333 355.58 27.3733 355.66 27.72L354.86 26.84C355.1 26.2933 355.427 25.84 355.84 25.48C356.267 25.1067 356.767 24.8267 357.34 24.64C357.927 24.4533 358.56 24.36 359.24 24.36C360.16 24.36 360.98 24.54 361.7 24.9C362.42 25.2467 362.993 25.7467 363.42 26.4C363.847 27.04 364.06 27.7933 364.06 28.66C364.06 29.58 363.833 30.38 363.38 31.06C362.927 31.74 362.313 32.2667 361.54 32.64C360.767 33.0133 359.9 33.2 358.94 33.2ZM358.8 31.16C359.333 31.16 359.807 31.0667 360.22 30.88C360.633 30.68 360.953 30.4 361.18 30.04C361.42 29.68 361.54 29.26 361.54 28.78C361.54 28.0467 361.287 27.4667 360.78 27.04C360.273 26.6133 359.593 26.4 358.74 26.4C358.18 26.4 357.687 26.5067 357.26 26.72C356.847 26.92 356.513 27.2 356.26 27.56C356.02 27.92 355.9 28.3333 355.9 28.8C355.9 29.2267 356.013 29.62 356.24 29.98C356.467 30.34 356.793 30.6267 357.22 30.84C357.66 31.0533 358.187 31.16 358.8 31.16Z" fill="white"/>
<path d="M420.22 33L426 20.04L426.68 21.2H418.74L419.98 19.94V23.58H417.56V19H428.44V20.74L423 33H420.22Z" fill="white"/>
<path d="M489.5 33.2C488.34 33.2 487.333 33.0267 486.48 32.68C485.627 32.3333 484.967 31.8467 484.5 31.22C484.033 30.58 483.8 29.8333 483.8 28.98C483.8 28.1267 484.027 27.4067 484.48 26.82C484.933 26.2333 485.587 25.7867 486.44 25.48C487.293 25.1733 488.313 25.02 489.5 25.02C490.687 25.02 491.707 25.1733 492.56 25.48C493.427 25.7867 494.087 26.24 494.54 26.84C495.007 27.4267 495.24 28.14 495.24 28.98C495.24 29.8333 495 30.58 494.52 31.22C494.053 31.8467 493.387 32.3333 492.52 32.68C491.667 33.0267 490.66 33.2 489.5 33.2ZM489.5 31.16C490.46 31.16 491.22 30.96 491.78 30.56C492.34 30.16 492.62 29.6067 492.62 28.9C492.62 28.2067 492.34 27.66 491.78 27.26C491.22 26.86 490.46 26.66 489.5 26.66C488.54 26.66 487.787 26.86 487.24 27.26C486.693 27.66 486.42 28.2067 486.42 28.9C486.42 29.6067 486.693 30.16 487.24 30.56C487.787 30.96 488.54 31.16 489.5 31.16ZM489.5 26.38C488.42 26.38 487.493 26.24 486.72 25.96C485.947 25.6667 485.347 25.2467 484.92 24.7C484.507 24.14 484.3 23.4733 484.3 22.7C484.3 21.9 484.513 21.2133 484.94 20.64C485.38 20.0533 485.993 19.6 486.78 19.28C487.567 18.96 488.473 18.8 489.5 18.8C490.54 18.8 491.453 18.96 492.24 19.28C493.027 19.6 493.64 20.0533 494.08 20.64C494.52 21.2133 494.74 21.9 494.74 22.7C494.74 23.4733 494.527 24.14 494.1 24.7C493.687 25.2467 493.087 25.6667 492.3 25.96C491.513 26.24 490.58 26.38 489.5 26.38ZM489.5 24.78C490.327 24.78 490.98 24.6067 491.46 24.26C491.94 23.9 492.18 23.42 492.18 22.82C492.18 22.1933 491.933 21.7067 491.44 21.36C490.947 21.0133 490.3 20.84 489.5 20.84C488.7 20.84 488.06 21.0133 487.58 21.36C487.1 21.7067 486.86 22.1933 486.86 22.82C486.86 23.42 487.093 23.9 487.56 24.26C488.04 24.6067 488.687 24.78 489.5 24.78Z" fill="white"/>
<path d="M554.6 18.8C555.88 18.8 556.967 19.0733 557.86 19.62C558.767 20.1533 559.46 20.9333 559.94 21.96C560.42 22.9867 560.66 24.2533 560.66 25.76C560.66 27.36 560.367 28.7133 559.78 29.82C559.207 30.9267 558.407 31.7667 557.38 32.34C556.353 32.9133 555.16 33.2 553.8 33.2C553.093 33.2 552.42 33.1267 551.78 32.98C551.14 32.8333 550.587 32.6067 550.12 32.3L551.08 30.34C551.467 30.5933 551.887 30.7733 552.34 30.88C552.793 30.9733 553.26 31.02 553.74 31.02C555.06 31.02 556.107 30.6133 556.88 29.8C557.653 28.9867 558.04 27.7867 558.04 26.2C558.04 25.9467 558.033 25.6533 558.02 25.32C558.007 24.9733 557.96 24.6267 557.88 24.28L558.68 25.16C558.453 25.7067 558.127 26.1667 557.7 26.54C557.273 26.9 556.773 27.1733 556.2 27.36C555.627 27.5467 554.993 27.64 554.3 27.64C553.393 27.64 552.573 27.4667 551.84 27.12C551.12 26.76 550.547 26.26 550.12 25.62C549.693 24.9667 549.48 24.2067 549.48 23.34C549.48 22.4067 549.707 21.6067 550.16 20.94C550.613 20.26 551.227 19.7333 552 19.36C552.787 18.9867 553.653 18.8 554.6 18.8ZM554.74 20.84C554.207 20.84 553.733 20.94 553.32 21.14C552.907 21.3267 552.58 21.6 552.34 21.96C552.113 22.3067 552 22.7267 552 23.22C552 23.9533 552.253 24.5333 552.76 24.96C553.267 25.3867 553.947 25.6 554.8 25.6C555.36 25.6 555.853 25.5 556.28 25.3C556.707 25.0867 557.04 24.8 557.28 24.44C557.52 24.0667 557.64 23.6533 557.64 23.2C557.64 22.76 557.527 22.3667 557.3 22.02C557.073 21.66 556.747 21.3733 556.32 21.16C555.893 20.9467 555.367 20.84 554.74 20.84Z" fill="white"/>
<path d="M614.12 33V20L615.26 21.18H611.16V19H616.72V33H614.12ZM625.337 33.2C624.231 33.2 623.231 32.92 622.337 32.36C621.457 31.8 620.764 30.9867 620.257 29.92C619.751 28.84 619.497 27.5333 619.497 26C619.497 24.4667 619.751 23.1667 620.257 22.1C620.764 21.02 621.457 20.2 622.337 19.64C623.231 19.08 624.231 18.8 625.337 18.8C626.457 18.8 627.457 19.08 628.337 19.64C629.217 20.2 629.911 21.02 630.417 22.1C630.937 23.1667 631.197 24.4667 631.197 26C631.197 27.5333 630.937 28.84 630.417 29.92C629.911 30.9867 629.217 31.8 628.337 32.36C627.457 32.92 626.457 33.2 625.337 33.2ZM625.337 30.94C625.991 30.94 626.557 30.7667 627.037 30.42C627.517 30.06 627.891 29.5133 628.157 28.78C628.437 28.0467 628.577 27.12 628.577 26C628.577 24.8667 628.437 23.94 628.157 23.22C627.891 22.4867 627.517 21.9467 627.037 21.6C626.557 21.24 625.991 21.06 625.337 21.06C624.711 21.06 624.151 21.24 623.657 21.6C623.177 21.9467 622.797 22.4867 622.517 23.22C622.251 23.94 622.117 24.8667 622.117 26C622.117 27.12 622.251 28.0467 622.517 28.78C622.797 29.5133 623.177 30.06 623.657 30.42C624.151 30.7667 624.711 30.94 625.337 30.94Z" fill="white"/>
<path d="M23.12 94V81L24.26 82.18H20.16V80H25.72V94H23.12ZM30.7372 94V81L31.8772 82.18H27.7772V80H33.3372V94H30.7372Z" fill="white"/>
<path d="M87.12 94V81L88.26 82.18H84.16V80H89.72V94H87.12ZM92.3172 94V92.26L97.8772 86.98C98.3439 86.54 98.6905 86.1533 98.9172 85.82C99.1439 85.4867 99.2905 85.18 99.3572 84.9C99.4372 84.6067 99.4772 84.3333 99.4772 84.08C99.4772 83.44 99.2572 82.9467 98.8172 82.6C98.3772 82.24 97.7305 82.06 96.8772 82.06C96.1972 82.06 95.5772 82.18 95.0172 82.42C94.4705 82.66 93.9972 83.0267 93.5972 83.52L91.7772 82.12C92.3239 81.3867 93.0572 80.82 93.9772 80.42C94.9105 80.0067 95.9505 79.8 97.0972 79.8C98.1105 79.8 98.9905 79.9667 99.7372 80.3C100.497 80.62 101.077 81.08 101.477 81.68C101.891 82.28 102.097 82.9933 102.097 83.82C102.097 84.2733 102.037 84.7267 101.917 85.18C101.797 85.62 101.571 86.0867 101.237 86.58C100.904 87.0733 100.417 87.6267 99.7772 88.24L94.9972 92.78L94.4572 91.8H102.637V94H92.3172Z" fill="white"/>
<path d="M153.12 94V81L154.26 82.18H150.16V80H155.72V94H153.12ZM162.897 94.2C161.911 94.2 160.944 94.06 159.997 93.78C159.064 93.4867 158.277 93.0867 157.637 92.58L158.757 90.56C159.264 90.9733 159.877 91.3067 160.597 91.56C161.317 91.8133 162.071 91.94 162.857 91.94C163.791 91.94 164.517 91.7533 165.037 91.38C165.557 90.9933 165.817 90.4733 165.817 89.82C165.817 89.18 165.577 88.6733 165.097 88.3C164.617 87.9267 163.844 87.74 162.777 87.74H161.497V85.96L165.497 81.2L165.837 82.18H158.317V80H167.857V81.74L163.857 86.5L162.497 85.7H163.277C164.997 85.7 166.284 86.0867 167.137 86.86C168.004 87.62 168.437 88.6 168.437 89.8C168.437 90.5867 168.237 91.3133 167.837 91.98C167.437 92.6467 166.824 93.1867 165.997 93.6C165.184 94 164.151 94.2 162.897 94.2Z" fill="white"/>
<path d="M218.12 94V81L219.26 82.18H215.16V80H220.72V94H218.12ZM223.297 90.82V89.02L230.197 80H232.977L226.177 89.02L224.877 88.62H235.977V90.82H223.297ZM230.977 94V90.82L231.057 88.62V85.8H233.497V94H230.977Z" fill="white"/>
<path d="M285.12 94V81L286.26 82.18H282.16V80H287.72V94H285.12ZM295.137 94.2C294.151 94.2 293.184 94.06 292.237 93.78C291.304 93.4867 290.517 93.0867 289.877 92.58L290.977 90.56C291.484 90.9733 292.097 91.3067 292.817 91.56C293.551 91.8133 294.311 91.94 295.097 91.94C296.017 91.94 296.737 91.7467 297.257 91.36C297.791 90.9733 298.057 90.4533 298.057 89.8C298.057 89.36 297.944 88.9733 297.717 88.64C297.504 88.3067 297.117 88.0533 296.557 87.88C296.011 87.7067 295.257 87.62 294.297 87.62H290.917L291.637 80H299.857V82.18H292.597L293.957 80.94L293.417 86.64L292.057 85.42H294.877C296.264 85.42 297.377 85.6067 298.217 85.98C299.071 86.34 299.691 86.8467 300.077 87.5C300.477 88.14 300.677 88.8733 300.677 89.7C300.677 90.5133 300.477 91.26 300.077 91.94C299.677 92.62 299.064 93.1667 298.237 93.58C297.424 93.9933 296.391 94.2 295.137 94.2Z" fill="white"/>
<path d="M350.12 94V81L351.26 82.18H347.16V80H352.72V94H350.12ZM361.557 94.2C360.291 94.2 359.204 93.9333 358.297 93.4C357.391 92.8533 356.697 92.0667 356.217 91.04C355.737 90.0133 355.497 88.7467 355.497 87.24C355.497 85.64 355.784 84.2867 356.357 83.18C356.944 82.0733 357.751 81.2333 358.777 80.66C359.817 80.0867 361.011 79.8 362.357 79.8C363.064 79.8 363.737 79.8733 364.377 80.02C365.031 80.1667 365.584 80.3933 366.037 80.7L365.077 82.66C364.691 82.4067 364.271 82.2333 363.817 82.14C363.377 82.0333 362.911 81.98 362.417 81.98C361.097 81.98 360.051 82.3867 359.277 83.2C358.504 84.0133 358.117 85.2133 358.117 86.8C358.117 87.0533 358.124 87.3533 358.137 87.7C358.151 88.0333 358.197 88.3733 358.277 88.72L357.477 87.84C357.717 87.2933 358.044 86.84 358.457 86.48C358.884 86.1067 359.384 85.8267 359.957 85.64C360.544 85.4533 361.177 85.36 361.857 85.36C362.777 85.36 363.597 85.54 364.317 85.9C365.037 86.2467 365.611 86.7467 366.037 87.4C366.464 88.04 366.677 88.7933 366.677 89.66C366.677 90.58 366.451 91.38 365.997 92.06C365.544 92.74 364.931 93.2667 364.157 93.64C363.384 94.0133 362.517 94.2 361.557 94.2ZM361.417 92.16C361.951 92.16 362.424 92.0667 362.837 91.88C363.251 91.68 363.571 91.4 363.797 91.04C364.037 90.68 364.157 90.26 364.157 89.78C364.157 89.0467 363.904 88.4667 363.397 88.04C362.891 87.6133 362.211 87.4 361.357 87.4C360.797 87.4 360.304 87.5067 359.877 87.72C359.464 87.92 359.131 88.2 358.877 88.56C358.637 88.92 358.517 89.3333 358.517 89.8C358.517 90.2267 358.631 90.62 358.857 90.98C359.084 91.34 359.411 91.6267 359.837 91.84C360.277 92.0533 360.804 92.16 361.417 92.16Z" fill="white"/>
<path d="M417.12 94V81L418.26 82.18H414.16V80H419.72V94H417.12ZM424.837 94L430.617 81.04L431.297 82.2H423.357L424.597 80.94V84.58H422.177V80H433.057V81.74L427.617 94H424.837Z" fill="white"/>
<path d="M482.12 94V81L483.26 82.18H479.16V80H484.72V94H482.12ZM493.117 94.2C491.957 94.2 490.951 94.0267 490.097 93.68C489.244 93.3333 488.584 92.8467 488.117 92.22C487.651 91.58 487.417 90.8333 487.417 89.98C487.417 89.1267 487.644 88.4067 488.097 87.82C488.551 87.2333 489.204 86.7867 490.057 86.48C490.911 86.1733 491.931 86.02 493.117 86.02C494.304 86.02 495.324 86.1733 496.177 86.48C497.044 86.7867 497.704 87.24 498.157 87.84C498.624 88.4267 498.857 89.14 498.857 89.98C498.857 90.8333 498.617 91.58 498.137 92.22C497.671 92.8467 497.004 93.3333 496.137 93.68C495.284 94.0267 494.277 94.2 493.117 94.2ZM493.117 92.16C494.077 92.16 494.837 91.96 495.397 91.56C495.957 91.16 496.237 90.6067 496.237 89.9C496.237 89.2067 495.957 88.66 495.397 88.26C494.837 87.86 494.077 87.66 493.117 87.66C492.157 87.66 491.404 87.86 490.857 88.26C490.311 88.66 490.037 89.2067 490.037 89.9C490.037 90.6067 490.311 91.16 490.857 91.56C491.404 91.96 492.157 92.16 493.117 92.16ZM493.117 87.38C492.037 87.38 491.111 87.24 490.337 86.96C489.564 86.6667 488.964 86.2467 488.537 85.7C488.124 85.14 487.917 84.4733 487.917 83.7C487.917 82.9 488.131 82.2133 488.557 81.64C488.997 81.0533 489.611 80.6 490.397 80.28C491.184 79.96 492.091 79.8 493.117 79.8C494.157 79.8 495.071 79.96 495.857 80.28C496.644 80.6 497.257 81.0533 497.697 81.64C498.137 82.2133 498.357 82.9 498.357 83.7C498.357 84.4733 498.144 85.14 497.717 85.7C497.304 86.2467 496.704 86.6667 495.917 86.96C495.131 87.24 494.197 87.38 493.117 87.38ZM493.117 85.78C493.944 85.78 494.597 85.6067 495.077 85.26C495.557 84.9 495.797 84.42 495.797 83.82C495.797 83.1933 495.551 82.7067 495.057 82.36C494.564 82.0133 493.917 81.84 493.117 81.84C492.317 81.84 491.677 82.0133 491.197 82.36C490.717 82.7067 490.477 83.1933 490.477 83.82C490.477 84.42 490.711 84.9 491.177 85.26C491.657 85.6067 492.304 85.78 493.117 85.78Z" fill="white"/>
<path d="M548.12 94V81L549.26 82.18H545.16V80H550.72V94H548.12ZM558.217 79.8C559.497 79.8 560.584 80.0733 561.477 80.62C562.384 81.1533 563.077 81.9333 563.557 82.96C564.037 83.9867 564.277 85.2533 564.277 86.76C564.277 88.36 563.984 89.7133 563.397 90.82C562.824 91.9267 562.024 92.7667 560.997 93.34C559.971 93.9133 558.777 94.2 557.417 94.2C556.711 94.2 556.037 94.1267 555.397 93.98C554.757 93.8333 554.204 93.6067 553.737 93.3L554.697 91.34C555.084 91.5933 555.504 91.7733 555.957 91.88C556.411 91.9733 556.877 92.02 557.357 92.02C558.677 92.02 559.724 91.6133 560.497 90.8C561.271 89.9867 561.657 88.7867 561.657 87.2C561.657 86.9467 561.651 86.6533 561.637 86.32C561.624 85.9733 561.577 85.6267 561.497 85.28L562.297 86.16C562.071 86.7067 561.744 87.1667 561.317 87.54C560.891 87.9 560.391 88.1733 559.817 88.36C559.244 88.5467 558.611 88.64 557.917 88.64C557.011 88.64 556.191 88.4667 555.457 88.12C554.737 87.76 554.164 87.26 553.737 86.62C553.311 85.9667 553.097 85.2067 553.097 84.34C553.097 83.4067 553.324 82.6067 553.777 81.94C554.231 81.26 554.844 80.7333 555.617 80.36C556.404 79.9867 557.271 79.8 558.217 79.8ZM558.357 81.84C557.824 81.84 557.351 81.94 556.937 82.14C556.524 82.3267 556.197 82.6 555.957 82.96C555.731 83.3067 555.617 83.7267 555.617 84.22C555.617 84.9533 555.871 85.5333 556.377 85.96C556.884 86.3867 557.564 86.6 558.417 86.6C558.977 86.6 559.471 86.5 559.897 86.3C560.324 86.0867 560.657 85.8 560.897 85.44C561.137 85.0667 561.257 84.6533 561.257 84.2C561.257 83.76 561.144 83.3667 560.917 83.02C560.691 82.66 560.364 82.3733 559.937 82.16C559.511 81.9467 558.984 81.84 558.357 81.84Z" fill="white"/>
<path d="M609.7 94V92.26L615.26 86.98C615.727 86.54 616.073 86.1533 616.3 85.82C616.527 85.4867 616.673 85.18 616.74 84.9C616.82 84.6067 616.86 84.3333 616.86 84.08C616.86 83.44 616.64 82.9467 616.2 82.6C615.76 82.24 615.113 82.06 614.26 82.06C613.58 82.06 612.96 82.18 612.4 82.42C611.853 82.66 611.38 83.0267 610.98 83.52L609.16 82.12C609.707 81.3867 610.44 80.82 611.36 80.42C612.293 80.0067 613.333 79.8 614.48 79.8C615.493 79.8 616.373 79.9667 617.12 80.3C617.88 80.62 618.46 81.08 618.86 81.68C619.273 82.28 619.48 82.9933 619.48 83.82C619.48 84.2733 619.42 84.7267 619.3 85.18C619.18 85.62 618.953 86.0867 618.62 86.58C618.287 87.0733 617.8 87.6267 617.16 88.24L612.38 92.78L611.84 91.8H620.02V94H609.7ZM627.361 94.2C626.254 94.2 625.254 93.92 624.361 93.36C623.481 92.8 622.787 91.9867 622.281 90.92C621.774 89.84 621.521 88.5333 621.521 87C621.521 85.4667 621.774 84.1667 622.281 83.1C622.787 82.02 623.481 81.2 624.361 80.64C625.254 80.08 626.254 79.8 627.361 79.8C628.481 79.8 629.481 80.08 630.361 80.64C631.241 81.2 631.934 82.02 632.441 83.1C632.961 84.1667 633.221 85.4667 633.221 87C633.221 88.5333 632.961 89.84 632.441 90.92C631.934 91.9867 631.241 92.8 630.361 93.36C629.481 93.92 628.481 94.2 627.361 94.2ZM627.361 91.94C628.014 91.94 628.581 91.7667 629.061 91.42C629.541 91.06 629.914 90.5133 630.181 89.78C630.461 89.0467 630.601 88.12 630.601 87C630.601 85.8667 630.461 84.94 630.181 84.22C629.914 83.4867 629.541 82.9467 629.061 82.6C628.581 82.24 628.014 82.06 627.361 82.06C626.734 82.06 626.174 82.24 625.681 82.6C625.201 82.9467 624.821 83.4867 624.541 84.22C624.274 84.94 624.141 85.8667 624.141 87C624.141 88.12 624.274 89.0467 624.541 89.78C624.821 90.5133 625.201 91.06 625.681 91.42C626.174 91.7667 626.734 91.94 627.361 91.94Z" fill="white"/>
<path d="M18.7 155V153.26L24.26 147.98C24.7267 147.54 25.0733 147.153 25.3 146.82C25.5267 146.487 25.6733 146.18 25.74 145.9C25.82 145.607 25.86 145.333 25.86 145.08C25.86 144.44 25.64 143.947 25.2 143.6C24.76 143.24 24.1133 143.06 23.26 143.06C22.58 143.06 21.96 143.18 21.4 143.42C20.8533 143.66 20.38 144.027 19.98 144.52L18.16 143.12C18.7067 142.387 19.44 141.82 20.36 141.42C21.2933 141.007 22.3333 140.8 23.48 140.8C24.4933 140.8 25.3733 140.967 26.12 141.3C26.88 141.62 27.46 142.08 27.86 142.68C28.2733 143.28 28.48 143.993 28.48 144.82C28.48 145.273 28.42 145.727 28.3 146.18C28.18 146.62 27.9533 147.087 27.62 147.58C27.2867 148.073 26.8 148.627 26.16 149.24L21.38 153.78L20.84 152.8H29.02V155H18.7ZM32.7606 155V142L33.9006 143.18H29.8006V141H35.3606V155H32.7606Z" fill="white"/>
<path d="M82.7 155V153.26L88.26 147.98C88.7267 147.54 89.0733 147.153 89.3 146.82C89.5267 146.487 89.6733 146.18 89.74 145.9C89.82 145.607 89.86 145.333 89.86 145.08C89.86 144.44 89.64 143.947 89.2 143.6C88.76 143.24 88.1133 143.06 87.26 143.06C86.58 143.06 85.96 143.18 85.4 143.42C84.8533 143.66 84.38 144.027 83.98 144.52L82.16 143.12C82.7067 142.387 83.44 141.82 84.36 141.42C85.2933 141.007 86.3333 140.8 87.48 140.8C88.4933 140.8 89.3733 140.967 90.12 141.3C90.88 141.62 91.46 142.08 91.86 142.68C92.2733 143.28 92.48 143.993 92.48 144.82C92.48 145.273 92.42 145.727 92.3 146.18C92.18 146.62 91.9533 147.087 91.62 147.58C91.2867 148.073 90.8 148.627 90.16 149.24L85.38 153.78L84.84 152.8H93.02V155H82.7ZM94.3406 155V153.26L99.9006 147.98C100.367 147.54 100.714 147.153 100.941 146.82C101.167 146.487 101.314 146.18 101.381 145.9C101.461 145.607 101.501 145.333 101.501 145.08C101.501 144.44 101.281 143.947 100.841 143.6C100.401 143.24 99.754 143.06 98.9006 143.06C98.2206 143.06 97.6006 143.18 97.0406 143.42C96.494 143.66 96.0206 144.027 95.6206 144.52L93.8006 143.12C94.3473 142.387 95.0806 141.82 96.0006 141.42C96.934 141.007 97.974 140.8 99.1206 140.8C100.134 140.8 101.014 140.967 101.761 141.3C102.521 141.62 103.101 142.08 103.501 142.68C103.914 143.28 104.121 143.993 104.121 144.82C104.121 145.273 104.061 145.727 103.941 146.18C103.821 146.62 103.594 147.087 103.261 147.58C102.927 148.073 102.441 148.627 101.801 149.24L97.0206 153.78L96.4806 152.8H104.661V155H94.3406Z" fill="white"/>
<path d="M148.7 155V153.26L154.26 147.98C154.727 147.54 155.073 147.153 155.3 146.82C155.527 146.487 155.673 146.18 155.74 145.9C155.82 145.607 155.86 145.333 155.86 145.08C155.86 144.44 155.64 143.947 155.2 143.6C154.76 143.24 154.113 143.06 153.26 143.06C152.58 143.06 151.96 143.18 151.4 143.42C150.853 143.66 150.38 144.027 149.98 144.52L148.16 143.12C148.707 142.387 149.44 141.82 150.36 141.42C151.293 141.007 152.333 140.8 153.48 140.8C154.493 140.8 155.373 140.967 156.12 141.3C156.88 141.62 157.46 142.08 157.86 142.68C158.273 143.28 158.48 143.993 158.48 144.82C158.48 145.273 158.42 145.727 158.3 146.18C158.18 146.62 157.953 147.087 157.62 147.58C157.287 148.073 156.8 148.627 156.16 149.24L151.38 153.78L150.84 152.8H159.02V155H148.7ZM164.921 155.2C163.934 155.2 162.967 155.06 162.021 154.78C161.087 154.487 160.301 154.087 159.661 153.58L160.781 151.56C161.287 151.973 161.901 152.307 162.621 152.56C163.341 152.813 164.094 152.94 164.881 152.94C165.814 152.94 166.541 152.753 167.061 152.38C167.581 151.993 167.841 151.473 167.841 150.82C167.841 150.18 167.601 149.673 167.121 149.3C166.641 148.927 165.867 148.74 164.801 148.74H163.521V146.96L167.521 142.2L167.861 143.18H160.341V141H169.881V142.74L165.881 147.5L164.521 146.7H165.301C167.021 146.7 168.307 147.087 169.161 147.86C170.027 148.62 170.461 149.6 170.461 150.8C170.461 151.587 170.261 152.313 169.861 152.98C169.461 153.647 168.847 154.187 168.021 154.6C167.207 155 166.174 155.2 164.921 155.2Z" fill="white"/>
<path d="M213.7 155V153.26L219.26 147.98C219.727 147.54 220.073 147.153 220.3 146.82C220.527 146.487 220.673 146.18 220.74 145.9C220.82 145.607 220.86 145.333 220.86 145.08C220.86 144.44 220.64 143.947 220.2 143.6C219.76 143.24 219.113 143.06 218.26 143.06C217.58 143.06 216.96 143.18 216.4 143.42C215.853 143.66 215.38 144.027 214.98 144.52L213.16 143.12C213.707 142.387 214.44 141.82 215.36 141.42C216.293 141.007 217.333 140.8 218.48 140.8C219.493 140.8 220.373 140.967 221.12 141.3C221.88 141.62 222.46 142.08 222.86 142.68C223.273 143.28 223.48 143.993 223.48 144.82C223.48 145.273 223.42 145.727 223.3 146.18C223.18 146.62 222.953 147.087 222.62 147.58C222.287 148.073 221.8 148.627 221.16 149.24L216.38 153.78L215.84 152.8H224.02V155H213.7ZM225.028 151.82V150.02L231.928 141H234.708L227.908 150.02L226.608 149.62H237.708V151.82H225.028ZM232.708 155V151.82L232.788 149.62V146.8H235.228V155H232.708Z" fill="white"/>
<path d="M280.7 155V153.26L286.26 147.98C286.727 147.54 287.073 147.153 287.3 146.82C287.527 146.487 287.673 146.18 287.74 145.9C287.82 145.607 287.86 145.333 287.86 145.08C287.86 144.44 287.64 143.947 287.2 143.6C286.76 143.24 286.113 143.06 285.26 143.06C284.58 143.06 283.96 143.18 283.4 143.42C282.853 143.66 282.38 144.027 281.98 144.52L280.16 143.12C280.707 142.387 281.44 141.82 282.36 141.42C283.293 141.007 284.333 140.8 285.48 140.8C286.493 140.8 287.373 140.967 288.12 141.3C288.88 141.62 289.46 142.08 289.86 142.68C290.273 143.28 290.48 143.993 290.48 144.82C290.48 145.273 290.42 145.727 290.3 146.18C290.18 146.62 289.953 147.087 289.62 147.58C289.287 148.073 288.8 148.627 288.16 149.24L283.38 153.78L282.84 152.8H291.02V155H280.7ZM297.161 155.2C296.174 155.2 295.207 155.06 294.261 154.78C293.327 154.487 292.541 154.087 291.901 153.58L293.001 151.56C293.507 151.973 294.121 152.307 294.841 152.56C295.574 152.813 296.334 152.94 297.121 152.94C298.041 152.94 298.761 152.747 299.281 152.36C299.814 151.973 300.081 151.453 300.081 150.8C300.081 150.36 299.967 149.973 299.741 149.64C299.527 149.307 299.141 149.053 298.581 148.88C298.034 148.707 297.281 148.62 296.321 148.62H292.941L293.661 141H301.881V143.18H294.621L295.981 141.94L295.441 147.64L294.081 146.42H296.901C298.287 146.42 299.401 146.607 300.241 146.98C301.094 147.34 301.714 147.847 302.101 148.5C302.501 149.14 302.701 149.873 302.701 150.7C302.701 151.513 302.501 152.26 302.101 152.94C301.701 153.62 301.087 154.167 300.261 154.58C299.447 154.993 298.414 155.2 297.161 155.2Z" fill="white"/>
<path d="M345.7 155V153.26L351.26 147.98C351.727 147.54 352.073 147.153 352.3 146.82C352.527 146.487 352.673 146.18 352.74 145.9C352.82 145.607 352.86 145.333 352.86 145.08C352.86 144.44 352.64 143.947 352.2 143.6C351.76 143.24 351.113 143.06 350.26 143.06C349.58 143.06 348.96 143.18 348.4 143.42C347.853 143.66 347.38 144.027 346.98 144.52L345.16 143.12C345.707 142.387 346.44 141.82 347.36 141.42C348.293 141.007 349.333 140.8 350.48 140.8C351.493 140.8 352.373 140.967 353.12 141.3C353.88 141.62 354.46 142.08 354.86 142.68C355.273 143.28 355.48 143.993 355.48 144.82C355.48 145.273 355.42 145.727 355.3 146.18C355.18 146.62 354.953 147.087 354.62 147.58C354.287 148.073 353.8 148.627 353.16 149.24L348.38 153.78L347.84 152.8H356.02V155H345.7ZM363.581 155.2C362.314 155.2 361.227 154.933 360.321 154.4C359.414 153.853 358.721 153.067 358.241 152.04C357.761 151.013 357.521 149.747 357.521 148.24C357.521 146.64 357.807 145.287 358.381 144.18C358.967 143.073 359.774 142.233 360.801 141.66C361.841 141.087 363.034 140.8 364.381 140.8C365.087 140.8 365.761 140.873 366.401 141.02C367.054 141.167 367.607 141.393 368.061 141.7L367.101 143.66C366.714 143.407 366.294 143.233 365.841 143.14C365.401 143.033 364.934 142.98 364.441 142.98C363.121 142.98 362.074 143.387 361.301 144.2C360.527 145.013 360.141 146.213 360.141 147.8C360.141 148.053 360.147 148.353 360.161 148.7C360.174 149.033 360.221 149.373 360.301 149.72L359.501 148.84C359.741 148.293 360.067 147.84 360.481 147.48C360.907 147.107 361.407 146.827 361.981 146.64C362.567 146.453 363.201 146.36 363.881 146.36C364.801 146.36 365.621 146.54 366.341 146.9C367.061 147.247 367.634 147.747 368.061 148.4C368.487 149.04 368.701 149.793 368.701 150.66C368.701 151.58 368.474 152.38 368.021 153.06C367.567 153.74 366.954 154.267 366.181 154.64C365.407 155.013 364.541 155.2 363.581 155.2ZM363.441 153.16C363.974 153.16 364.447 153.067 364.861 152.88C365.274 152.68 365.594 152.4 365.821 152.04C366.061 151.68 366.181 151.26 366.181 150.78C366.181 150.047 365.927 149.467 365.421 149.04C364.914 148.613 364.234 148.4 363.381 148.4C362.821 148.4 362.327 148.507 361.901 148.72C361.487 148.92 361.154 149.2 360.901 149.56C360.661 149.92 360.541 150.333 360.541 150.8C360.541 151.227 360.654 151.62 360.881 151.98C361.107 152.34 361.434 152.627 361.861 152.84C362.301 153.053 362.827 153.16 363.441 153.16Z" fill="white"/>
<path d="M412.7 155V153.26L418.26 147.98C418.727 147.54 419.073 147.153 419.3 146.82C419.527 146.487 419.673 146.18 419.74 145.9C419.82 145.607 419.86 145.333 419.86 145.08C419.86 144.44 419.64 143.947 419.2 143.6C418.76 143.24 418.113 143.06 417.26 143.06C416.58 143.06 415.96 143.18 415.4 143.42C414.853 143.66 414.38 144.027 413.98 144.52L412.16 143.12C412.707 142.387 413.44 141.82 414.36 141.42C415.293 141.007 416.333 140.8 417.48 140.8C418.493 140.8 419.373 140.967 420.12 141.3C420.88 141.62 421.46 142.08 421.86 142.68C422.273 143.28 422.48 143.993 422.48 144.82C422.48 145.273 422.42 145.727 422.3 146.18C422.18 146.62 421.953 147.087 421.62 147.58C421.287 148.073 420.8 148.627 420.16 149.24L415.38 153.78L414.84 152.8H423.02V155H412.7ZM426.861 155L432.641 142.04L433.321 143.2H425.381L426.621 141.94V145.58H424.201V141H435.081V142.74L429.641 155H426.861Z" fill="white"/>
<path d="M477.7 155V153.26L483.26 147.98C483.727 147.54 484.073 147.153 484.3 146.82C484.527 146.487 484.673 146.18 484.74 145.9C484.82 145.607 484.86 145.333 484.86 145.08C484.86 144.44 484.64 143.947 484.2 143.6C483.76 143.24 483.113 143.06 482.26 143.06C481.58 143.06 480.96 143.18 480.4 143.42C479.853 143.66 479.38 144.027 478.98 144.52L477.16 143.12C477.707 142.387 478.44 141.82 479.36 141.42C480.293 141.007 481.333 140.8 482.48 140.8C483.493 140.8 484.373 140.967 485.12 141.3C485.88 141.62 486.46 142.08 486.86 142.68C487.273 143.28 487.48 143.993 487.48 144.82C487.48 145.273 487.42 145.727 487.3 146.18C487.18 146.62 486.953 147.087 486.62 147.58C486.287 148.073 485.8 148.627 485.16 149.24L480.38 153.78L479.84 152.8H488.02V155H477.7ZM495.141 155.2C493.981 155.2 492.974 155.027 492.121 154.68C491.267 154.333 490.607 153.847 490.141 153.22C489.674 152.58 489.441 151.833 489.441 150.98C489.441 150.127 489.667 149.407 490.121 148.82C490.574 148.233 491.227 147.787 492.081 147.48C492.934 147.173 493.954 147.02 495.141 147.02C496.327 147.02 497.347 147.173 498.201 147.48C499.067 147.787 499.727 148.24 500.181 148.84C500.647 149.427 500.881 150.14 500.881 150.98C500.881 151.833 500.641 152.58 500.161 153.22C499.694 153.847 499.027 154.333 498.161 154.68C497.307 155.027 496.301 155.2 495.141 155.2ZM495.141 153.16C496.101 153.16 496.861 152.96 497.421 152.56C497.981 152.16 498.261 151.607 498.261 150.9C498.261 150.207 497.981 149.66 497.421 149.26C496.861 148.86 496.101 148.66 495.141 148.66C494.181 148.66 493.427 148.86 492.881 149.26C492.334 149.66 492.061 150.207 492.061 150.9C492.061 151.607 492.334 152.16 492.881 152.56C493.427 152.96 494.181 153.16 495.141 153.16ZM495.141 148.38C494.061 148.38 493.134 148.24 492.361 147.96C491.587 147.667 490.987 147.247 490.561 146.7C490.147 146.14 489.941 145.473 489.941 144.7C489.941 143.9 490.154 143.213 490.581 142.64C491.021 142.053 491.634 141.6 492.421 141.28C493.207 140.96 494.114 140.8 495.141 140.8C496.181 140.8 497.094 140.96 497.881 141.28C498.667 141.6 499.281 142.053 499.721 142.64C500.161 143.213 500.381 143.9 500.381 144.7C500.381 145.473 500.167 146.14 499.741 146.7C499.327 147.247 498.727 147.667 497.941 147.96C497.154 148.24 496.221 148.38 495.141 148.38ZM495.141 146.78C495.967 146.78 496.621 146.607 497.101 146.26C497.581 145.9 497.821 145.42 497.821 144.82C497.821 144.193 497.574 143.707 497.081 143.36C496.587 143.013 495.941 142.84 495.141 142.84C494.341 142.84 493.701 143.013 493.221 143.36C492.741 143.707 492.501 144.193 492.501 144.82C492.501 145.42 492.734 145.9 493.201 146.26C493.681 146.607 494.327 146.78 495.141 146.78Z" fill="white"/>
<path d="M543.7 155V153.26L549.26 147.98C549.727 147.54 550.073 147.153 550.3 146.82C550.527 146.487 550.673 146.18 550.74 145.9C550.82 145.607 550.86 145.333 550.86 145.08C550.86 144.44 550.64 143.947 550.2 143.6C549.76 143.24 549.113 143.06 548.26 143.06C547.58 143.06 546.96 143.18 546.4 143.42C545.853 143.66 545.38 144.027 544.98 144.52L543.16 143.12C543.707 142.387 544.44 141.82 545.36 141.42C546.293 141.007 547.333 140.8 548.48 140.8C549.493 140.8 550.373 140.967 551.12 141.3C551.88 141.62 552.46 142.08 552.86 142.68C553.273 143.28 553.48 143.993 553.48 144.82C553.48 145.273 553.42 145.727 553.3 146.18C553.18 146.62 552.953 147.087 552.62 147.58C552.287 148.073 551.8 148.627 551.16 149.24L546.38 153.78L545.84 152.8H554.02V155H543.7ZM560.241 140.8C561.521 140.8 562.607 141.073 563.501 141.62C564.407 142.153 565.101 142.933 565.581 143.96C566.061 144.987 566.301 146.253 566.301 147.76C566.301 149.36 566.007 150.713 565.421 151.82C564.847 152.927 564.047 153.767 563.021 154.34C561.994 154.913 560.801 155.2 559.441 155.2C558.734 155.2 558.061 155.127 557.421 154.98C556.781 154.833 556.227 154.607 555.761 154.3L556.721 152.34C557.107 152.593 557.527 152.773 557.981 152.88C558.434 152.973 558.901 153.02 559.381 153.02C560.701 153.02 561.747 152.613 562.521 151.8C563.294 150.987 563.681 149.787 563.681 148.2C563.681 147.947 563.674 147.653 563.661 147.32C563.647 146.973 563.601 146.627 563.521 146.28L564.321 147.16C564.094 147.707 563.767 148.167 563.341 148.54C562.914 148.9 562.414 149.173 561.841 149.36C561.267 149.547 560.634 149.64 559.941 149.64C559.034 149.64 558.214 149.467 557.481 149.12C556.761 148.76 556.187 148.26 555.761 147.62C555.334 146.967 555.121 146.207 555.121 145.34C555.121 144.407 555.347 143.607 555.801 142.94C556.254 142.26 556.867 141.733 557.641 141.36C558.427 140.987 559.294 140.8 560.241 140.8ZM560.381 142.84C559.847 142.84 559.374 142.94 558.961 143.14C558.547 143.327 558.221 143.6 557.981 143.96C557.754 144.307 557.641 144.727 557.641 145.22C557.641 145.953 557.894 146.533 558.401 146.96C558.907 147.387 559.587 147.6 560.441 147.6C561.001 147.6 561.494 147.5 561.921 147.3C562.347 147.087 562.681 146.8 562.921 146.44C563.161 146.067 563.281 145.653 563.281 145.2C563.281 144.76 563.167 144.367 562.941 144.02C562.714 143.66 562.387 143.373 561.961 143.16C561.534 142.947 561.007 142.84 560.381 142.84Z" fill="white"/>
<path d="M614.28 155.2C613.293 155.2 612.327 155.06 611.38 154.78C610.447 154.487 609.66 154.087 609.02 153.58L610.14 151.56C610.647 151.973 611.26 152.307 611.98 152.56C612.7 152.813 613.453 152.94 614.24 152.94C615.173 152.94 615.9 152.753 616.42 152.38C616.94 151.993 617.2 151.473 617.2 150.82C617.2 150.18 616.96 149.673 616.48 149.3C616 148.927 615.227 148.74 614.16 148.74H612.88V146.96L616.88 142.2L617.22 143.18H609.7V141H619.24V142.74L615.24 147.5L613.88 146.7H614.66C616.38 146.7 617.667 147.087 618.52 147.86C619.387 148.62 619.82 149.6 619.82 150.8C619.82 151.587 619.62 152.313 619.22 152.98C618.82 153.647 618.207 154.187 617.38 154.6C616.567 155 615.533 155.2 614.28 155.2ZM627.361 155.2C626.254 155.2 625.254 154.92 624.361 154.36C623.481 153.8 622.787 152.987 622.281 151.92C621.774 150.84 621.521 149.533 621.521 148C621.521 146.467 621.774 145.167 622.281 144.1C622.787 143.02 623.481 142.2 624.361 141.64C625.254 141.08 626.254 140.8 627.361 140.8C628.481 140.8 629.481 141.08 630.361 141.64C631.241 142.2 631.934 143.02 632.441 144.1C632.961 145.167 633.221 146.467 633.221 148C633.221 149.533 632.961 150.84 632.441 151.92C631.934 152.987 631.241 153.8 630.361 154.36C629.481 154.92 628.481 155.2 627.361 155.2ZM627.361 152.94C628.014 152.94 628.581 152.767 629.061 152.42C629.541 152.06 629.914 151.513 630.181 150.78C630.461 150.047 630.601 149.12 630.601 148C630.601 146.867 630.461 145.94 630.181 145.22C629.914 144.487 629.541 143.947 629.061 143.6C628.581 143.24 628.014 143.06 627.361 143.06C626.734 143.06 626.174 143.24 625.681 143.6C625.201 143.947 624.821 144.487 624.541 145.22C624.274 145.94 624.141 146.867 624.141 148C624.141 149.12 624.274 150.047 624.541 150.78C624.821 151.513 625.201 152.06 625.681 152.42C626.174 152.767 626.734 152.94 627.361 152.94Z" fill="white"/>
<path d="M23.28 216.2C22.2933 216.2 21.3267 216.06 20.38 215.78C19.4467 215.487 18.66 215.087 18.02 214.58L19.14 212.56C19.6467 212.973 20.26 213.307 20.98 213.56C21.7 213.813 22.4533 213.94 23.24 213.94C24.1733 213.94 24.9 213.753 25.42 213.38C25.94 212.993 26.2 212.473 26.2 211.82C26.2 211.18 25.96 210.673 25.48 210.3C25 209.927 24.2267 209.74 23.16 209.74H21.88V207.96L25.88 203.2L26.22 204.18H18.7V202H28.24V203.74L24.24 208.5L22.88 207.7H23.66C25.38 207.7 26.6667 208.087 27.52 208.86C28.3867 209.62 28.82 210.6 28.82 211.8C28.82 212.587 28.62 213.313 28.22 213.98C27.82 214.647 27.2067 215.187 26.38 215.6C25.5667 216 24.5333 216.2 23.28 216.2ZM32.7606 216V203L33.9006 204.18H29.8006V202H35.3606V216H32.7606Z" fill="white"/>
<path d="M87.28 216.2C86.2933 216.2 85.3267 216.06 84.38 215.78C83.4467 215.487 82.66 215.087 82.02 214.58L83.14 212.56C83.6467 212.973 84.26 213.307 84.98 213.56C85.7 213.813 86.4533 213.94 87.24 213.94C88.1733 213.94 88.9 213.753 89.42 213.38C89.94 212.993 90.2 212.473 90.2 211.82C90.2 211.18 89.96 210.673 89.48 210.3C89 209.927 88.2267 209.74 87.16 209.74H85.88V207.96L89.88 203.2L90.22 204.18H82.7V202H92.24V203.74L88.24 208.5L86.88 207.7H87.66C89.38 207.7 90.6667 208.087 91.52 208.86C92.3867 209.62 92.82 210.6 92.82 211.8C92.82 212.587 92.62 213.313 92.22 213.98C91.82 214.647 91.2067 215.187 90.38 215.6C89.5667 216 88.5333 216.2 87.28 216.2ZM94.243 216V214.26L99.803 208.98C100.27 208.54 100.616 208.153 100.843 207.82C101.07 207.487 101.216 207.18 101.283 206.9C101.363 206.607 101.403 206.333 101.403 206.08C101.403 205.44 101.183 204.947 100.743 204.6C100.303 204.24 99.6563 204.06 98.803 204.06C98.123 204.06 97.503 204.18 96.943 204.42C96.3963 204.66 95.923 205.027 95.523 205.52L93.703 204.12C94.2496 203.387 94.983 202.82 95.903 202.42C96.8363 202.007 97.8763 201.8 99.023 201.8C100.036 201.8 100.916 201.967 101.663 202.3C102.423 202.62 103.003 203.08 103.403 203.68C103.816 204.28 104.023 204.993 104.023 205.82C104.023 206.273 103.963 206.727 103.843 207.18C103.723 207.62 103.496 208.087 103.163 208.58C102.83 209.073 102.343 209.627 101.703 210.24L96.923 214.78L96.383 213.8H104.563V216H94.243Z" fill="white"/>
<path d="M153.28 216.2C152.293 216.2 151.327 216.06 150.38 215.78C149.447 215.487 148.66 215.087 148.02 214.58L149.14 212.56C149.647 212.973 150.26 213.307 150.98 213.56C151.7 213.813 152.453 213.94 153.24 213.94C154.173 213.94 154.9 213.753 155.42 213.38C155.94 212.993 156.2 212.473 156.2 211.82C156.2 211.18 155.96 210.673 155.48 210.3C155 209.927 154.227 209.74 153.16 209.74H151.88V207.96L155.88 203.2L156.22 204.18H148.7V202H158.24V203.74L154.24 208.5L152.88 207.7H153.66C155.38 207.7 156.667 208.087 157.52 208.86C158.387 209.62 158.82 210.6 158.82 211.8C158.82 212.587 158.62 213.313 158.22 213.98C157.82 214.647 157.207 215.187 156.38 215.6C155.567 216 154.533 216.2 153.28 216.2ZM164.823 216.2C163.836 216.2 162.87 216.06 161.923 215.78C160.99 215.487 160.203 215.087 159.563 214.58L160.683 212.56C161.19 212.973 161.803 213.307 162.523 213.56C163.243 213.813 163.996 213.94 164.783 213.94C165.716 213.94 166.443 213.753 166.963 213.38C167.483 212.993 167.743 212.473 167.743 211.82C167.743 211.18 167.503 210.673 167.023 210.3C166.543 209.927 165.77 209.74 164.703 209.74H163.423V207.96L167.423 203.2L167.763 204.18H160.243V202H169.783V203.74L165.783 208.5L164.423 207.7H165.203C166.923 207.7 168.21 208.087 169.063 208.86C169.93 209.62 170.363 210.6 170.363 211.8C170.363 212.587 170.163 213.313 169.763 213.98C169.363 214.647 168.75 215.187 167.923 215.6C167.11 216 166.076 216.2 164.823 216.2Z" fill="white"/>
<path d="M218.28 216.2C217.293 216.2 216.327 216.06 215.38 215.78C214.447 215.487 213.66 215.087 213.02 214.58L214.14 212.56C214.647 212.973 215.26 213.307 215.98 213.56C216.7 213.813 217.453 213.94 218.24 213.94C219.173 213.94 219.9 213.753 220.42 213.38C220.94 212.993 221.2 212.473 221.2 211.82C221.2 211.18 220.96 210.673 220.48 210.3C220 209.927 219.227 209.74 218.16 209.74H216.88V207.96L220.88 203.2L221.22 204.18H213.7V202H223.24V203.74L219.24 208.5L217.88 207.7H218.66C220.38 207.7 221.667 208.087 222.52 208.86C223.387 209.62 223.82 210.6 223.82 211.8C223.82 212.587 223.62 213.313 223.22 213.98C222.82 214.647 222.207 215.187 221.38 215.6C220.567 216 219.533 216.2 218.28 216.2ZM225.321 212.82V211.02L232.221 202H235.001L228.201 211.02L226.901 210.62H238.001V212.82H225.321ZM233.001 216V212.82L233.081 210.62V207.8H235.521V216H233.001Z" fill="white"/>
<path d="M285.28 216.2C284.293 216.2 283.327 216.06 282.38 215.78C281.447 215.487 280.66 215.087 280.02 214.58L281.14 212.56C281.647 212.973 282.26 213.307 282.98 213.56C283.7 213.813 284.453 213.94 285.24 213.94C286.173 213.94 286.9 213.753 287.42 213.38C287.94 212.993 288.2 212.473 288.2 211.82C288.2 211.18 287.96 210.673 287.48 210.3C287 209.927 286.227 209.74 285.16 209.74H283.88V207.96L287.88 203.2L288.22 204.18H280.7V202H290.24V203.74L286.24 208.5L284.88 207.7H285.66C287.38 207.7 288.667 208.087 289.52 208.86C290.387 209.62 290.82 210.6 290.82 211.8C290.82 212.587 290.62 213.313 290.22 213.98C289.82 214.647 289.207 215.187 288.38 215.6C287.567 216 286.533 216.2 285.28 216.2ZM296.965 216.2C295.979 216.2 295.012 216.06 294.065 215.78C293.132 215.487 292.345 215.087 291.705 214.58L292.805 212.56C293.312 212.973 293.925 213.307 294.645 213.56C295.379 213.813 296.139 213.94 296.925 213.94C297.845 213.94 298.565 213.747 299.085 213.36C299.619 212.973 299.885 212.453 299.885 211.8C299.885 211.36 299.772 210.973 299.545 210.64C299.332 210.307 298.945 210.053 298.385 209.88C297.839 209.707 297.085 209.62 296.125 209.62H292.745L293.465 202H301.685V204.18H294.425L295.785 202.94L295.245 208.64L293.885 207.42H296.705C298.092 207.42 299.205 207.607 300.045 207.98C300.899 208.34 301.519 208.847 301.905 209.5C302.305 210.14 302.505 210.873 302.505 211.7C302.505 212.513 302.305 213.26 301.905 213.94C301.505 214.62 300.892 215.167 300.065 215.58C299.252 215.993 298.219 216.2 296.965 216.2Z" fill="white"/>
<path d="M350.28 216.2C349.293 216.2 348.327 216.06 347.38 215.78C346.447 215.487 345.66 215.087 345.02 214.58L346.14 212.56C346.647 212.973 347.26 213.307 347.98 213.56C348.7 213.813 349.453 213.94 350.24 213.94C351.173 213.94 351.9 213.753 352.42 213.38C352.94 212.993 353.2 212.473 353.2 211.82C353.2 211.18 352.96 210.673 352.48 210.3C352 209.927 351.227 209.74 350.16 209.74H348.88V207.96L352.88 203.2L353.22 204.18H345.7V202H355.24V203.74L351.24 208.5L349.88 207.7H350.66C352.38 207.7 353.667 208.087 354.52 208.86C355.387 209.62 355.82 210.6 355.82 211.8C355.82 212.587 355.62 213.313 355.22 213.98C354.82 214.647 354.207 215.187 353.38 215.6C352.567 216 351.533 216.2 350.28 216.2ZM363.581 216.2C362.314 216.2 361.227 215.933 360.321 215.4C359.414 214.853 358.721 214.067 358.241 213.04C357.761 212.013 357.521 210.747 357.521 209.24C357.521 207.64 357.807 206.287 358.381 205.18C358.967 204.073 359.774 203.233 360.801 202.66C361.841 202.087 363.034 201.8 364.381 201.8C365.087 201.8 365.761 201.873 366.401 202.02C367.054 202.167 367.607 202.393 368.061 202.7L367.101 204.66C366.714 204.407 366.294 204.233 365.841 204.14C365.401 204.033 364.934 203.98 364.441 203.98C363.121 203.98 362.074 204.387 361.301 205.2C360.527 206.013 360.141 207.213 360.141 208.8C360.141 209.053 360.147 209.353 360.161 209.7C360.174 210.033 360.221 210.373 360.301 210.72L359.501 209.84C359.741 209.293 360.067 208.84 360.481 208.48C360.907 208.107 361.407 207.827 361.981 207.64C362.567 207.453 363.201 207.36 363.881 207.36C364.801 207.36 365.621 207.54 366.341 207.9C367.061 208.247 367.634 208.747 368.061 209.4C368.487 210.04 368.701 210.793 368.701 211.66C368.701 212.58 368.474 213.38 368.021 214.06C367.567 214.74 366.954 215.267 366.181 215.64C365.407 216.013 364.541 216.2 363.581 216.2ZM363.441 214.16C363.974 214.16 364.447 214.067 364.861 213.88C365.274 213.68 365.594 213.4 365.821 213.04C366.061 212.68 366.181 212.26 366.181 211.78C366.181 211.047 365.927 210.467 365.421 210.04C364.914 209.613 364.234 209.4 363.381 209.4C362.821 209.4 362.327 209.507 361.901 209.72C361.487 209.92 361.154 210.2 360.901 210.56C360.661 210.92 360.541 211.333 360.541 211.8C360.541 212.227 360.654 212.62 360.881 212.98C361.107 213.34 361.434 213.627 361.861 213.84C362.301 214.053 362.827 214.16 363.441 214.16Z" fill="white"/>
<path d="M417.28 216.2C416.293 216.2 415.327 216.06 414.38 215.78C413.447 215.487 412.66 215.087 412.02 214.58L413.14 212.56C413.647 212.973 414.26 213.307 414.98 213.56C415.7 213.813 416.453 213.94 417.24 213.94C418.173 213.94 418.9 213.753 419.42 213.38C419.94 212.993 420.2 212.473 420.2 211.82C420.2 211.18 419.96 210.673 419.48 210.3C419 209.927 418.227 209.74 417.16 209.74H415.88V207.96L419.88 203.2L420.22 204.18H412.7V202H422.24V203.74L418.24 208.5L416.88 207.7H417.66C419.38 207.7 420.667 208.087 421.52 208.86C422.387 209.62 422.82 210.6 422.82 211.8C422.82 212.587 422.62 213.313 422.22 213.98C421.82 214.647 421.207 215.187 420.38 215.6C419.567 216 418.533 216.2 417.28 216.2ZM426.665 216L432.445 203.04L433.125 204.2H425.185L426.425 202.94V206.58H424.005V202H434.885V203.74L429.445 216H426.665Z" fill="white"/>
<path d="M482.28 216.2C481.293 216.2 480.327 216.06 479.38 215.78C478.447 215.487 477.66 215.087 477.02 214.58L478.14 212.56C478.647 212.973 479.26 213.307 479.98 213.56C480.7 213.813 481.453 213.94 482.24 213.94C483.173 213.94 483.9 213.753 484.42 213.38C484.94 212.993 485.2 212.473 485.2 211.82C485.2 211.18 484.96 210.673 484.48 210.3C484 209.927 483.227 209.74 482.16 209.74H480.88V207.96L484.88 203.2L485.22 204.18H477.7V202H487.24V203.74L483.24 208.5L481.88 207.7H482.66C484.38 207.7 485.667 208.087 486.52 208.86C487.387 209.62 487.82 210.6 487.82 211.8C487.82 212.587 487.62 213.313 487.22 213.98C486.82 214.647 486.207 215.187 485.38 215.6C484.567 216 483.533 216.2 482.28 216.2ZM495.141 216.2C493.981 216.2 492.974 216.027 492.121 215.68C491.267 215.333 490.607 214.847 490.141 214.22C489.674 213.58 489.441 212.833 489.441 211.98C489.441 211.127 489.667 210.407 490.121 209.82C490.574 209.233 491.227 208.787 492.081 208.48C492.934 208.173 493.954 208.02 495.141 208.02C496.327 208.02 497.347 208.173 498.201 208.48C499.067 208.787 499.727 209.24 500.181 209.84C500.647 210.427 500.881 211.14 500.881 211.98C500.881 212.833 500.641 213.58 500.161 214.22C499.694 214.847 499.027 215.333 498.161 215.68C497.307 216.027 496.301 216.2 495.141 216.2ZM495.141 214.16C496.101 214.16 496.861 213.96 497.421 213.56C497.981 213.16 498.261 212.607 498.261 211.9C498.261 211.207 497.981 210.66 497.421 210.26C496.861 209.86 496.101 209.66 495.141 209.66C494.181 209.66 493.427 209.86 492.881 210.26C492.334 210.66 492.061 211.207 492.061 211.9C492.061 212.607 492.334 213.16 492.881 213.56C493.427 213.96 494.181 214.16 495.141 214.16ZM495.141 209.38C494.061 209.38 493.134 209.24 492.361 208.96C491.587 208.667 490.987 208.247 490.561 207.7C490.147 207.14 489.941 206.473 489.941 205.7C489.941 204.9 490.154 204.213 490.581 203.64C491.021 203.053 491.634 202.6 492.421 202.28C493.207 201.96 494.114 201.8 495.141 201.8C496.181 201.8 497.094 201.96 497.881 202.28C498.667 202.6 499.281 203.053 499.721 203.64C500.161 204.213 500.381 204.9 500.381 205.7C500.381 206.473 500.167 207.14 499.741 207.7C499.327 208.247 498.727 208.667 497.941 208.96C497.154 209.24 496.221 209.38 495.141 209.38ZM495.141 207.78C495.967 207.78 496.621 207.607 497.101 207.26C497.581 206.9 497.821 206.42 497.821 205.82C497.821 205.193 497.574 204.707 497.081 204.36C496.587 204.013 495.941 203.84 495.141 203.84C494.341 203.84 493.701 204.013 493.221 204.36C492.741 204.707 492.501 205.193 492.501 205.82C492.501 206.42 492.734 206.9 493.201 207.26C493.681 207.607 494.327 207.78 495.141 207.78Z" fill="white"/>
<path d="M548.28 216.2C547.293 216.2 546.327 216.06 545.38 215.78C544.447 215.487 543.66 215.087 543.02 214.58L544.14 212.56C544.647 212.973 545.26 213.307 545.98 213.56C546.7 213.813 547.453 213.94 548.24 213.94C549.173 213.94 549.9 213.753 550.42 213.38C550.94 212.993 551.2 212.473 551.2 211.82C551.2 211.18 550.96 210.673 550.48 210.3C550 209.927 549.227 209.74 548.16 209.74H546.88V207.96L550.88 203.2L551.22 204.18H543.7V202H553.24V203.74L549.24 208.5L547.88 207.7H548.66C550.38 207.7 551.667 208.087 552.52 208.86C553.387 209.62 553.82 210.6 553.82 211.8C553.82 212.587 553.62 213.313 553.22 213.98C552.82 214.647 552.207 215.187 551.38 215.6C550.567 216 549.533 216.2 548.28 216.2ZM560.241 201.8C561.521 201.8 562.607 202.073 563.501 202.62C564.407 203.153 565.101 203.933 565.581 204.96C566.061 205.987 566.301 207.253 566.301 208.76C566.301 210.36 566.007 211.713 565.421 212.82C564.847 213.927 564.047 214.767 563.021 215.34C561.994 215.913 560.801 216.2 559.441 216.2C558.734 216.2 558.061 216.127 557.421 215.98C556.781 215.833 556.227 215.607 555.761 215.3L556.721 213.34C557.107 213.593 557.527 213.773 557.981 213.88C558.434 213.973 558.901 214.02 559.381 214.02C560.701 214.02 561.747 213.613 562.521 212.8C563.294 211.987 563.681 210.787 563.681 209.2C563.681 208.947 563.674 208.653 563.661 208.32C563.647 207.973 563.601 207.627 563.521 207.28L564.321 208.16C564.094 208.707 563.767 209.167 563.341 209.54C562.914 209.9 562.414 210.173 561.841 210.36C561.267 210.547 560.634 210.64 559.941 210.64C559.034 210.64 558.214 210.467 557.481 210.12C556.761 209.76 556.187 209.26 555.761 208.62C555.334 207.967 555.121 207.207 555.121 206.34C555.121 205.407 555.347 204.607 555.801 203.94C556.254 203.26 556.867 202.733 557.641 202.36C558.427 201.987 559.294 201.8 560.241 201.8ZM560.381 203.84C559.847 203.84 559.374 203.94 558.961 204.14C558.547 204.327 558.221 204.6 557.981 204.96C557.754 205.307 557.641 205.727 557.641 206.22C557.641 206.953 557.894 207.533 558.401 207.96C558.907 208.387 559.587 208.6 560.441 208.6C561.001 208.6 561.494 208.5 561.921 208.3C562.347 208.087 562.681 207.8 562.921 207.44C563.161 207.067 563.281 206.653 563.281 206.2C563.281 205.76 563.167 205.367 562.941 205.02C562.714 204.66 562.387 204.373 561.961 204.16C561.534 203.947 561.007 203.84 560.381 203.84Z" fill="white"/>
<path d="M608.68 212.82V211.02L615.58 202H618.36L611.56 211.02L610.26 210.62H621.36V212.82H608.68ZM616.36 216V212.82L616.44 210.62V207.8H618.88V216H616.36ZM628.294 216.2C627.188 216.2 626.188 215.92 625.294 215.36C624.414 214.8 623.721 213.987 623.214 212.92C622.708 211.84 622.454 210.533 622.454 209C622.454 207.467 622.708 206.167 623.214 205.1C623.721 204.02 624.414 203.2 625.294 202.64C626.188 202.08 627.188 201.8 628.294 201.8C629.414 201.8 630.414 202.08 631.294 202.64C632.174 203.2 632.868 204.02 633.374 205.1C633.894 206.167 634.154 207.467 634.154 209C634.154 210.533 633.894 211.84 633.374 212.92C632.868 213.987 632.174 214.8 631.294 215.36C630.414 215.92 629.414 216.2 628.294 216.2ZM628.294 213.94C628.948 213.94 629.514 213.767 629.994 213.42C630.474 213.06 630.848 212.513 631.114 211.78C631.394 211.047 631.534 210.12 631.534 209C631.534 207.867 631.394 206.94 631.114 206.22C630.848 205.487 630.474 204.947 629.994 204.6C629.514 204.24 628.948 204.06 628.294 204.06C627.668 204.06 627.108 204.24 626.614 204.6C626.134 204.947 625.754 205.487 625.474 206.22C625.208 206.94 625.074 207.867 625.074 209C625.074 210.12 625.208 211.047 625.474 211.78C625.754 212.513 626.134 213.06 626.614 213.42C627.108 213.767 627.668 213.94 628.294 213.94Z" fill="white"/>
</svg>
