<svg width="20" height="16" viewBox="0 0 20 16" fill="none" xmlns="http://www.w3.org/2000/svg">
<path d="M3.10902 14.2127L3.44952 13.5444L3.10902 14.2127ZM1.28812 12.3918L1.95638 12.0513L1.28812 12.3918ZM18.7132 12.3918L18.0449 12.0513L18.7132 12.3918ZM16.8923 14.2127L16.5518 13.5444L16.8923 14.2127ZM16.8923 1.78764L16.5518 2.45589L16.8923 1.78764ZM18.7132 3.60854L18.0449 3.94903L18.7132 3.60854ZM3.10902 1.78764L3.44952 2.45589L3.10902 1.78764ZM1.28812 3.60854L1.95638 3.94903L1.28812 3.60854ZM6.66732 9.75016C6.2531 9.75016 5.91732 10.0859 5.91732 10.5002C5.91732 10.9144 6.2531 11.2502 6.66732 11.2502V9.75016ZM13.334 11.2502C13.7482 11.2502 14.084 10.9144 14.084 10.5002C14.084 10.0859 13.7482 9.75016 13.334 9.75016V11.2502ZM13.334 4.75016C12.9198 4.75016 12.584 5.08595 12.584 5.50016C12.584 5.91438 12.9198 6.25016 13.334 6.25016V4.75016ZM16.6673 6.25016C17.0815 6.25016 17.4173 5.91438 17.4173 5.50016C17.4173 5.08595 17.0815 4.75016 16.6673 4.75016V6.25016ZM7.50065 2.0835H12.5007V0.583496H7.50065V2.0835ZM12.5007 13.9168H7.50065V15.4168H12.5007V13.9168ZM7.50065 13.9168C6.3215 13.9168 5.48224 13.9162 4.82507 13.8626C4.17665 13.8096 3.77182 13.7087 3.44952 13.5444L2.76853 14.8809C3.33753 15.1709 3.96174 15.297 4.70292 15.3576C5.43534 15.4174 6.34625 15.4168 7.50065 15.4168V13.9168ZM0.0839844 8.00016C0.0839844 9.15456 0.0834011 10.0655 0.143243 10.7979C0.2038 11.5391 0.329949 12.1633 0.619869 12.7323L1.95638 12.0513C1.79216 11.729 1.69124 11.3242 1.63826 10.6757C1.58457 10.0186 1.58398 9.17931 1.58398 8.00016H0.0839844ZM3.44952 13.5444C2.80663 13.2169 2.28395 12.6942 1.95638 12.0513L0.619869 12.7323C1.09125 13.6574 1.8434 14.4096 2.76853 14.8809L3.44952 13.5444ZM18.4173 8.00016C18.4173 9.17931 18.4167 10.0186 18.363 10.6757C18.3101 11.3242 18.2091 11.729 18.0449 12.0513L19.3814 12.7323C19.6714 12.1633 19.7975 11.5391 19.8581 10.7979C19.9179 10.0655 19.9173 9.15456 19.9173 8.00016H18.4173ZM12.5007 15.4168C13.6551 15.4168 14.566 15.4174 15.2984 15.3576C16.0396 15.297 16.6638 15.1709 17.2328 14.8809L16.5518 13.5444C16.2295 13.7087 15.8247 13.8096 15.1762 13.8626C14.5191 13.9162 13.6798 13.9168 12.5007 13.9168V15.4168ZM18.0449 12.0513C17.7174 12.6942 17.1947 13.2169 16.5518 13.5444L17.2328 14.8809C18.1579 14.4096 18.9101 13.6574 19.3814 12.7323L18.0449 12.0513ZM12.5007 2.0835C13.6798 2.0835 14.5191 2.08408 15.1762 2.13777C15.8247 2.19075 16.2295 2.29167 16.5518 2.45589L17.2328 1.11938C16.6638 0.829461 16.0396 0.703311 15.2984 0.642754C14.566 0.582913 13.6551 0.583496 12.5007 0.583496V2.0835ZM19.9173 8.00016C19.9173 6.84576 19.9179 5.93486 19.8581 5.20243C19.7975 4.46125 19.6714 3.83704 19.3814 3.26804L18.0449 3.94903C18.2091 4.27133 18.3101 4.67616 18.363 5.32458C18.4167 5.98175 18.4173 6.82101 18.4173 8.00016H19.9173ZM16.5518 2.45589C17.1947 2.78346 17.7174 3.30614 18.0449 3.94903L19.3814 3.26804C18.9101 2.34291 18.1579 1.59076 17.2328 1.11938L16.5518 2.45589ZM7.50065 0.583496C6.34625 0.583496 5.43534 0.582913 4.70292 0.642754C3.96174 0.703311 3.33753 0.829461 2.76853 1.11938L3.44952 2.45589C3.77182 2.29167 4.17665 2.19075 4.82507 2.13777C5.48224 2.08408 6.3215 2.0835 7.50065 2.0835V0.583496ZM1.58398 8.00016C1.58398 6.82101 1.58457 5.98175 1.63826 5.32458C1.69124 4.67616 1.79216 4.27133 1.95638 3.94903L0.619869 3.26804C0.329949 3.83704 0.2038 4.46125 0.143243 5.20243C0.0834011 5.93486 0.0839844 6.84576 0.0839844 8.00016H1.58398ZM2.76853 1.11938C1.8434 1.59076 1.09125 2.34291 0.619869 3.26804L1.95638 3.94903C2.28395 3.30614 2.80663 2.78346 3.44952 2.45589L2.76853 1.11938ZM6.66732 11.2502H13.334V9.75016H6.66732V11.2502ZM13.334 6.25016L16.6673 6.25016V4.75016L13.334 4.75016V6.25016Z" fill="#9AA3D9"/>
<path d="M5.00065 10.5002C5.00065 10.9604 4.62755 11.3335 4.16732 11.3335C3.70708 11.3335 3.33398 10.9604 3.33398 10.5002C3.33398 10.0399 3.70708 9.66684 4.16732 9.66684C4.62755 9.66684 5.00065 10.0399 5.00065 10.5002Z" fill="#9AA3D9"/>
<path d="M16.6673 10.5002C16.6673 10.9604 16.2942 11.3335 15.834 11.3335C15.3737 11.3335 15.0007 10.9604 15.0007 10.5002C15.0007 10.0399 15.3737 9.66684 15.834 9.66684C16.2942 9.66684 16.6673 10.0399 16.6673 10.5002Z" fill="#9AA3D9"/>
<path d="M8.33398 5.50017C8.33398 5.96041 7.96089 6.33351 7.50065 6.33351C7.04041 6.33351 6.66732 5.96041 6.66732 5.50017C6.66732 5.03994 7.04041 4.66684 7.50065 4.66684C7.96089 4.66684 8.33398 5.03994 8.33398 5.50017Z" fill="#9AA3D9"/>
<path d="M11.6673 5.50017C11.6673 5.96041 11.2942 6.33351 10.834 6.33351C10.3737 6.33351 10.0007 5.96041 10.0007 5.50017C10.0007 5.03994 10.3737 4.66684 10.834 4.66684C11.2942 4.66684 11.6673 5.03994 11.6673 5.50017Z" fill="#9AA3D9"/>
<path d="M5.00065 5.50017C5.00065 5.96041 4.62755 6.33351 4.16732 6.33351C3.70708 6.33351 3.33398 5.96041 3.33398 5.50017C3.33398 5.03994 3.70708 4.66684 4.16732 4.66684C4.62755 4.66684 5.00065 5.03994 5.00065 5.50017Z" fill="#9AA3D9"/>
</svg>
