<svg width="20" height="20" viewBox="0 0 20 20" fill="none" xmlns="http://www.w3.org/2000/svg">
<path d="M14.1654 13.1095L14.4987 12.7762C14.5486 12.7263 14.5735 12.7014 14.5943 12.68C16.1656 11.063 16.1656 8.48941 14.5943 6.87241C14.5735 6.85101 14.5486 6.82607 14.4987 6.7762L14.1654 6.44286M15.832 15.6095L16.4154 15.0262C16.9131 14.5285 17.1619 14.2796 17.3529 14.0511C19.4209 11.5763 19.4209 7.97607 17.3529 5.50131C17.1619 5.27276 16.9131 5.02389 16.4154 4.5262L15.832 3.94286M5.76116 13.2434L6.59116 13.9275C8.60963 15.5911 9.61887 16.4229 10.4651 16.1762C10.633 16.1273 10.7922 16.0522 10.9368 15.9537C11.6654 15.4575 11.6654 14.1497 11.6654 11.534V8.01835C11.6654 5.40268 11.6654 4.09485 10.9368 3.59871C10.7922 3.50023 10.633 3.42513 10.4651 3.37618C9.61887 3.12954 8.60963 3.96132 6.59116 5.6249L5.76116 6.30896C5.59957 6.44215 5.51877 6.50874 5.43706 6.56962C4.77347 7.06412 3.97764 7.34981 3.15105 7.39026C3.04927 7.39524 2.94457 7.39524 2.73516 7.39524C2.51555 7.39524 2.40574 7.39524 2.31336 7.40558C1.53964 7.49216 0.928944 8.10286 0.842368 8.87657C0.832031 8.96895 0.832031 9.07876 0.832031 9.29838V10.254C0.832031 10.4736 0.832031 10.5834 0.842368 10.6758C0.928944 11.4495 1.53964 12.0602 2.31336 12.1468C2.40574 12.1571 2.51555 12.1571 2.73516 12.1571C2.94457 12.1571 3.04927 12.1571 3.15105 12.1621C3.97764 12.2026 4.77347 12.4883 5.43707 12.9828C5.51877 13.0437 5.59957 13.1102 5.76116 13.2434Z" stroke="#9AA3D9" stroke-width="1.5" stroke-linecap="round"/>
</svg>
