<svg width="14" height="14" viewBox="0 0 14 14" fill="none" xmlns="http://www.w3.org/2000/svg">
<path d="M9.33335 3.49984C9.33335 4.7885 8.28868 5.83317 7.00002 5.83317C5.71136 5.83317 4.66669 4.7885 4.66669 3.49984C4.66669 2.21117 5.71136 1.1665 7.00002 1.1665C8.28868 1.1665 9.33335 2.21117 9.33335 3.49984Z" fill="#AEB8E9"/>
<path d="M2.91669 9.9165C2.91669 8.62784 3.96136 7.58317 5.25002 7.58317H8.75002C10.0387 7.58317 11.0834 8.62784 11.0834 9.9165C11.0834 11.2052 10.0387 12.2498 8.75002 12.2498H5.25002C3.96136 12.2498 2.91669 11.2052 2.91669 9.9165Z" fill="#AEB8E9"/>
<path d="M8.58335 3.49984C8.58335 4.37429 7.87447 5.08317 7.00002 5.08317V6.58317C8.7029 6.58317 10.0834 5.20272 10.0834 3.49984H8.58335ZM7.00002 5.08317C6.12557 5.08317 5.41669 4.37429 5.41669 3.49984H3.91669C3.91669 5.20272 5.29714 6.58317 7.00002 6.58317V5.08317ZM5.41669 3.49984C5.41669 2.62539 6.12557 1.9165 7.00002 1.9165V0.416504C5.29714 0.416504 3.91669 1.79696 3.91669 3.49984H5.41669ZM7.00002 1.9165C7.87447 1.9165 8.58335 2.62539 8.58335 3.49984H10.0834C10.0834 1.79696 8.7029 0.416504 7.00002 0.416504V1.9165ZM5.25002 8.33317H8.75002V6.83317H5.25002V8.33317ZM8.75002 11.4998H5.25002V12.9998H8.75002V11.4998ZM5.25002 11.4998C4.37557 11.4998 3.66669 10.791 3.66669 9.9165H2.16669C2.16669 11.6194 3.54714 12.9998 5.25002 12.9998V11.4998ZM10.3334 9.9165C10.3334 10.791 9.62447 11.4998 8.75002 11.4998V12.9998C10.4529 12.9998 11.8334 11.6194 11.8334 9.9165H10.3334ZM8.75002 8.33317C9.62447 8.33317 10.3334 9.04205 10.3334 9.9165H11.8334C11.8334 8.21363 10.4529 6.83317 8.75002 6.83317V8.33317ZM5.25002 6.83317C3.54714 6.83317 2.16669 8.21363 2.16669 9.9165H3.66669C3.66669 9.04205 4.37557 8.33317 5.25002 8.33317V6.83317Z" fill="#AEB8E9"/>
</svg>
