<svg width="18" height="18" viewBox="0 0 18 18" fill="none" xmlns="http://www.w3.org/2000/svg">
<g clip-path="url(#clip0_10_2304)">
<path fill-rule="evenodd" clip-rule="evenodd" d="M0 0H18V18H0V0Z" fill="#229E45"/>
<path fill-rule="evenodd" clip-rule="evenodd" d="M9.03939 16.35L17.5191 9.01124L8.98877 1.64999L0.480957 9.02624L9.03939 16.35Z" fill="#F8E509"/>
<path fill-rule="evenodd" clip-rule="evenodd" d="M12.735 9C12.735 11.6362 11.129 13.7737 9.14623 13.7737C8.43767 13.7723 7.74535 13.4907 7.15679 12.9647C6.56823 12.4387 6.10985 11.6918 5.8396 10.8185C5.56934 9.94514 5.49935 8.98459 5.63847 8.05823C5.77759 7.13188 6.11957 6.28132 6.62118 5.61408C7.1228 4.94683 7.76152 4.49286 8.45661 4.30955C9.1517 4.12624 9.87195 4.22182 10.5263 4.58421C11.1807 4.9466 11.7397 5.55953 12.1329 6.34552C12.526 7.13151 12.7355 8.05526 12.735 9Z" fill="#2B49A3"/>
<path fill-rule="evenodd" clip-rule="evenodd" d="M7.96782 11.8612L7.85532 11.775L7.74282 11.85L7.76813 11.6812L7.67813 11.5537L7.80469 11.535L7.86657 11.385L7.92001 11.5425L8.04376 11.5725L7.95094 11.685M10.3697 12.6712L10.26 12.585L10.1475 12.66L10.17 12.4912L10.0828 12.3675L10.2094 12.3487L10.2684 12.195L10.3247 12.3525L10.4484 12.3825L10.3528 12.4987M9.33469 11.3737L9.23907 11.2987L9.14063 11.3662L9.16313 11.22L9.08438 11.1112L9.19688 11.0962L9.2475 10.9612L9.29251 11.1L9.40219 11.1262L9.31782 11.2275M11.7647 10.9087L11.6691 10.8337L11.5706 10.9012L11.5931 10.755L11.5172 10.65L11.6269 10.635L11.6775 10.5037L11.7225 10.6387L11.8294 10.665L11.7478 10.7625M9.29251 9.9375L9.18001 9.855L9.06751 9.93L9.09001 9.7575L9.00282 9.63375L9.12938 9.615L9.18844 9.46125L9.24469 9.61875L9.36844 9.64875L9.27282 9.76875M6.33094 8.45625L6.21844 8.37375L6.10594 8.44875L6.13407 8.27625L6.04126 8.1525L6.17063 8.13375L6.22688 7.98L6.28313 8.1375L6.40688 8.1675L6.31407 8.28375M6.68813 10.4287L6.57563 10.3425L6.46313 10.4175L6.48844 10.2487L6.39844 10.125L6.52501 10.1025L6.58407 9.9525L6.64032 10.11L6.76407 10.14L6.67125 10.2562M10.3838 7.7325L10.2825 7.6575L10.1813 7.725L10.2038 7.575L10.125 7.4625L10.2375 7.44375L10.2909 7.30875L10.3388 7.45125L10.4513 7.4775L10.3669 7.57875M10.1784 9.015L10.1025 8.955L10.0209 9.0075L10.0378 8.8875L9.97594 8.80125L10.0659 8.78625L10.1081 8.68125L10.1447 8.79375L10.2291 8.8125L10.1672 8.895M6.16782 10.785L6.09188 10.7287L6.01594 10.7775L6.03282 10.665L5.97375 10.5825L6.05813 10.5675L6.09751 10.4662L6.13407 10.5712L6.21844 10.5937L6.15376 10.6687M11.7844 11.2425L11.7225 11.2012L11.6606 11.2387L11.6747 11.1525L11.6269 11.0925L11.6944 11.0812L11.7281 11.0062L11.7563 11.0812L11.8266 11.1L11.7731 11.1562" fill="#FFFFEF"/>
<path fill-rule="evenodd" clip-rule="evenodd" d="M6.16782 10.785L6.09188 10.7287L6.01594 10.7775L6.03282 10.665L5.97375 10.5825L6.05813 10.5675L6.0975 10.4662L6.13407 10.5712L6.21844 10.5937L6.15375 10.6687" fill="#FFFFEF"/>
<path fill-rule="evenodd" clip-rule="evenodd" d="M6.16782 10.785L6.09188 10.7287L6.01594 10.7775L6.03282 10.665L5.97375 10.5825L6.05813 10.5675L6.09751 10.4662L6.13407 10.5712L6.21844 10.5937L6.15376 10.6687M7.34344 10.7812L7.27032 10.7287L7.19438 10.7775L7.21125 10.665L7.15219 10.5825L7.23657 10.5675L7.27594 10.4662L7.3125 10.5712L7.39688 10.59L7.33219 10.6687M7.19719 11.3062L7.12407 11.25L7.04813 11.3025L7.065 11.19L7.00594 11.1037L7.09032 11.0887L7.12969 10.9875L7.16625 11.0925L7.25063 11.115L7.18594 11.19M9.64407 10.3575L9.57094 10.2975L9.49219 10.35L9.50907 10.2375L9.45282 10.1512L9.53719 10.14L9.57657 10.0387L9.61032 10.1437L9.69469 10.1625L9.63282 10.2412M8.92688 10.3537L8.85094 10.2975L8.775 10.35L8.79188 10.2375L8.73563 10.1512L8.82 10.14L8.85938 10.035L8.89313 10.1437L8.97751 10.1625L8.91563 10.2412M6.98063 10.0237L6.93282 9.98625L6.88501 10.0162L6.89625 9.945L6.85969 9.8925L6.91313 9.885L6.93563 9.82125L6.95813 9.88875L7.01157 9.9L6.97219 9.94875M11.6916 11.6512L11.6184 11.595L11.5425 11.6475L11.5594 11.535L11.5003 11.4487L11.5847 11.4337L11.6241 11.3325L11.6606 11.4375L11.745 11.46L11.6803 11.535M11.0953 11.76L11.0334 11.7075L10.9688 11.7525L10.9828 11.655L10.935 11.5875L11.0053 11.5762L11.0391 11.49L11.0672 11.58L11.1375 11.595L11.0841 11.6625M11.3766 11.7487L11.3203 11.7037L11.2613 11.7412L11.2725 11.655L11.2275 11.5912L11.2922 11.58L11.3231 11.505L11.3513 11.58L11.4159 11.5987L11.3681 11.6587M12.1866 10.8037L12.1303 10.7662L12.0741 10.8037L12.0881 10.7175L12.0431 10.6537L12.1078 10.6425L12.1359 10.5675L12.1641 10.6462L12.2231 10.6612L12.1781 10.7212M11.0869 12.2887L11.0166 12.2362L10.9406 12.2812L10.9575 12.1762L10.9013 12.1012L10.9856 12.09L11.0222 11.9962L11.0559 12.0937L11.1403 12.1125L11.0756 12.1837M11.0925 12.7162L11.025 12.6637L10.9575 12.7125L10.9744 12.6075L10.9209 12.5325L10.9969 12.5175L11.0306 12.4237L11.0616 12.5212L11.1375 12.54L11.0813 12.615M10.5469 11.7487L10.4934 11.7037L10.4372 11.7412L10.4484 11.6587L10.4063 11.595L10.4681 11.5875L10.4963 11.5125L10.5244 11.5875L10.5863 11.6025L10.5413 11.6625M10.0406 11.7487L9.98438 11.7037L9.92813 11.7412L9.94219 11.6587L9.89719 11.595L9.96188 11.5875L9.99001 11.5125L10.0181 11.5875L10.0772 11.6025L10.0322 11.6625M9.17719 10.74L9.12094 10.6987L9.06469 10.7362L9.07875 10.65L9.03376 10.59L9.09563 10.5787L9.12375 10.5037L9.15188 10.5787L9.21375 10.5975L9.16875 10.6537M9.27282 12.7912L9.22782 12.7575L9.17719 12.7912L9.18844 12.7162L9.15188 12.6637L9.20532 12.6562L9.23063 12.5925L9.25313 12.66L9.30657 12.6712L9.26719 12.72M7.96782 9.4725L7.85532 9.38625L7.74282 9.46125L7.76813 9.2925L7.67813 9.16875L7.80469 9.14625L7.86657 8.99625L7.92001 9.15375L8.04375 9.18375L7.95094 9.3" fill="#FFFFEF"/>
<path fill-rule="evenodd" clip-rule="evenodd" d="M12.4987 10.7175C12.5684 10.4764 12.623 10.2281 12.6619 9.97499C10.755 7.74374 8.63154 6.59999 5.94841 6.83624C5.8511 7.08731 5.77108 7.34964 5.70935 7.61999C8.88748 7.21499 11.2219 9.08999 12.4987 10.7175Z" fill="white"/>
<path d="M11.6438 9.46501L11.7085 9.51376C11.6988 9.53922 11.6958 9.56827 11.7 9.59626C11.7066 9.62339 11.7207 9.64618 11.7394 9.66001C11.7591 9.67876 11.7788 9.69001 11.7957 9.68626C11.8125 9.68626 11.8238 9.67501 11.8322 9.66001C11.8371 9.65005 11.8391 9.63805 11.8378 9.62626C11.8355 9.61241 11.8307 9.59952 11.8238 9.58876C11.8182 9.57751 11.8041 9.55126 11.7816 9.52126C11.7585 9.48943 11.7411 9.45094 11.731 9.40876C11.7239 9.37683 11.7258 9.34261 11.7361 9.31232C11.7464 9.28203 11.7646 9.2577 11.7872 9.24376C11.8077 9.23237 11.8303 9.22975 11.8519 9.23626C11.8783 9.24438 11.9032 9.2597 11.925 9.28126C11.9644 9.31876 11.9897 9.35626 11.9982 9.40126C12.002 9.4223 12.0025 9.44421 11.9996 9.46554C11.9967 9.48687 11.9905 9.50713 11.9813 9.52501L11.9138 9.46876C11.9222 9.44626 11.925 9.42376 11.9194 9.40501C11.9166 9.38626 11.9053 9.36751 11.8857 9.35251C11.8712 9.33701 11.8535 9.32785 11.835 9.32626C11.8299 9.32603 11.8249 9.32765 11.8204 9.33095C11.816 9.33426 11.8123 9.33911 11.8097 9.34501C11.8041 9.35626 11.8041 9.36751 11.8069 9.38251C11.8097 9.39751 11.8238 9.42751 11.8519 9.46501C11.88 9.50251 11.8969 9.53626 11.9082 9.55876C11.9182 9.58333 11.9227 9.61124 11.9212 9.63916C11.9197 9.66707 11.9123 9.69383 11.8997 9.71626C11.8866 9.74175 11.8679 9.76136 11.8463 9.77251C11.8252 9.78545 11.8016 9.78938 11.7788 9.78376C11.7535 9.77626 11.7282 9.76126 11.7 9.73501C11.6578 9.69751 11.6325 9.65626 11.6241 9.61126C11.6149 9.56023 11.621 9.50645 11.641 9.46126L11.6438 9.46501ZM11.3175 9.18001L11.3878 9.22876C11.3791 9.25466 11.3772 9.28369 11.3822 9.31126C11.3894 9.33699 11.4034 9.35834 11.4216 9.37126C11.4441 9.39001 11.461 9.39751 11.4778 9.39376C11.4947 9.39376 11.506 9.38251 11.5144 9.36376C11.5187 9.35484 11.5206 9.34431 11.52 9.33376C11.52 9.32251 11.5144 9.30751 11.506 9.29626C11.4916 9.27307 11.4765 9.25055 11.461 9.22876C11.43 9.18751 11.4103 9.15376 11.4047 9.12376C11.4001 9.10446 11.3987 9.08405 11.4007 9.06397C11.4026 9.04389 11.4078 9.02461 11.416 9.00751C11.4267 8.98436 11.4423 8.96607 11.461 8.95501C11.4803 8.94313 11.5018 8.93921 11.5228 8.94376C11.5489 8.9496 11.5737 8.96235 11.596 8.98126C11.6382 9.01876 11.6635 9.05626 11.6719 9.09751C11.677 9.11858 11.6787 9.14089 11.6767 9.1629C11.6748 9.1849 11.6693 9.20609 11.6607 9.22501L11.5903 9.17251C11.5988 9.14626 11.6016 9.12751 11.596 9.10876C11.5903 9.09001 11.5791 9.07126 11.5594 9.05626C11.5438 9.04137 11.5251 9.03348 11.506 9.03376C11.5013 9.03417 11.4969 9.0361 11.493 9.03937C11.489 9.04264 11.4858 9.04715 11.4835 9.05251C11.4778 9.06376 11.4778 9.07501 11.4807 9.09001C11.4835 9.10501 11.5003 9.13501 11.5285 9.17251C11.5566 9.21001 11.5763 9.24001 11.5847 9.26251C11.596 9.28602 11.602 9.31335 11.602 9.34126C11.602 9.36916 11.596 9.39649 11.5847 9.42001C11.5726 9.44617 11.555 9.46702 11.5341 9.48001C11.513 9.49295 11.4894 9.49688 11.4666 9.49126C11.4376 9.48473 11.4099 9.47072 11.385 9.45001C11.3487 9.42417 11.3207 9.38148 11.3063 9.33001C11.2954 9.27994 11.2994 9.22621 11.3175 9.18001ZM10.9182 9.03751L11.1235 8.58751L11.371 8.79376L11.3372 8.86876L11.1572 8.71876L11.1122 8.82001L11.281 8.95876L11.2444 9.03376L11.0757 8.89501L11.0194 9.01876L11.2078 9.16876L11.1741 9.24376L10.921 9.03751H10.9182ZM10.336 8.40001L10.3669 8.32501L10.5188 8.42626L10.4485 8.61376C10.426 8.62126 10.3978 8.62501 10.3641 8.62126C10.3317 8.61649 10.3002 8.60378 10.2713 8.58376C10.2372 8.56165 10.2082 8.52803 10.1869 8.48626C10.1676 8.44745 10.1577 8.40158 10.1588 8.35501C10.1602 8.30652 10.1698 8.2591 10.1869 8.21626C10.2038 8.17116 10.2289 8.13247 10.26 8.10376C10.2898 8.07635 10.3251 8.06193 10.3613 8.06251C10.3894 8.06251 10.4175 8.07376 10.4513 8.10001C10.4963 8.12626 10.5244 8.16376 10.5385 8.20501C10.5531 8.24596 10.5561 8.29259 10.5469 8.33626L10.471 8.30626C10.4756 8.28114 10.4736 8.25465 10.4653 8.23126C10.4569 8.20876 10.4428 8.19376 10.4203 8.17876C10.4072 8.16878 10.3927 8.16261 10.3776 8.16067C10.3626 8.15874 10.3475 8.16106 10.3332 8.16751C10.305 8.17876 10.2797 8.21251 10.26 8.26501C10.2403 8.31751 10.2319 8.36626 10.2403 8.40751C10.2442 8.42707 10.2513 8.44526 10.261 8.46081C10.2707 8.47636 10.2829 8.48888 10.2966 8.49751C10.3107 8.50876 10.3275 8.51626 10.3444 8.51626C10.3612 8.51965 10.3782 8.51965 10.395 8.51626L10.4175 8.45626L10.336 8.40001ZM7.79909 7.56376L7.85534 7.03876L7.97346 7.06501L8.0044 7.43251L8.11409 7.09501L8.23221 7.11751L8.17596 7.63501L8.10003 7.62001L8.14784 7.21126L8.02409 7.60501L7.94815 7.59001L7.91721 7.16626L7.87221 7.57876L7.79909 7.56376ZM7.40253 7.50001L7.43909 6.97501L7.72878 7.01251L7.72315 7.10251L7.51221 7.07626L7.50378 7.18876L7.70065 7.21501L7.69221 7.30501L7.49534 7.27876L7.4869 7.42126L7.70628 7.44751L7.70065 7.53751L7.40253 7.50001Z" fill="#309E3A"/>
<path d="M6.08905 7.17375C6.08905 7.1175 6.09749 7.07625 6.10874 7.03875C6.1186 7.01208 6.13193 6.98795 6.14811 6.9675C6.16254 6.9481 6.17976 6.93279 6.19874 6.9225C6.22686 6.91125 6.25499 6.90375 6.28311 6.90375C6.34217 6.90375 6.38717 6.93375 6.42374 6.97875C6.44114 7.00741 6.45408 7.04042 6.46181 7.07583C6.46954 7.11125 6.47189 7.14836 6.46874 7.185C6.46874 7.2675 6.44905 7.335 6.41249 7.38375C6.3937 7.4069 6.37147 7.42454 6.34725 7.43552C6.32302 7.4465 6.29734 7.45058 6.27186 7.4475C6.24672 7.44784 6.22179 7.44136 6.19859 7.42847C6.17538 7.41558 6.15438 7.39654 6.13686 7.3725C6.10186 7.31727 6.08467 7.24582 6.08905 7.17375Z" fill="#309E3A"/>
<path d="M6.17059 7.17375C6.17059 7.23 6.17903 7.275 6.19872 7.30875C6.21841 7.33875 6.24372 7.3575 6.27747 7.3575C6.29207 7.35886 6.30671 7.35587 6.32034 7.34873C6.33396 7.3416 6.34622 7.3305 6.35622 7.31625C6.37591 7.28625 6.38434 7.24125 6.38716 7.1775C6.38716 7.1175 6.38153 7.0725 6.35903 7.0425C6.34987 7.02739 6.33831 7.01517 6.32517 7.00674C6.31204 6.99831 6.29767 6.99388 6.28309 6.99375C6.2683 6.99312 6.25358 6.99682 6.23997 7.0046C6.22637 7.01237 6.2142 7.02403 6.20434 7.03875C6.18184 7.06875 6.17341 7.11375 6.17059 7.17375Z" fill="#F7FFFF"/>
<path d="M6.5531 7.44376L6.55873 6.91876H6.72748C6.76966 6.91876 6.79779 6.92626 6.81748 6.93751C6.83716 6.94501 6.85123 6.96376 6.86248 6.98626C6.87373 7.00876 6.87935 7.03876 6.87935 7.07251C6.87957 7.10859 6.86952 7.14343 6.85123 7.17001C6.83043 7.19598 6.80368 7.21184 6.77529 7.21501L6.81748 7.26001C6.82873 7.27501 6.84279 7.30501 6.85966 7.34626L6.90748 7.45126H6.81185L6.7556 7.33126L6.71623 7.25626C6.70941 7.24594 6.70068 7.23819 6.69091 7.23376C6.67812 7.22879 6.66486 7.22626 6.65154 7.22626H6.63466V7.44376H6.5531Z" fill="#309E3A"/>
<path d="M6.63745 7.14376H6.6937C6.73308 7.14376 6.75839 7.14376 6.76683 7.13626C6.77526 7.13626 6.7837 7.12501 6.78933 7.11751C6.79495 7.11001 6.79776 7.09126 6.79776 7.08001C6.79776 7.05751 6.79495 7.04251 6.78651 7.03501C6.78089 7.02376 6.76964 7.01626 6.75839 7.01251H6.70214L6.63745 7.00876V7.14001V7.14376Z" fill="white"/>
<path d="M7.00315 6.94501L7.1494 6.95626C7.18033 6.95626 7.20565 6.96001 7.22252 6.96751C7.24441 6.9781 7.26382 6.99621 7.27877 7.02001C7.29497 7.04623 7.30651 7.077 7.31252 7.11001C7.32096 7.14376 7.32377 7.18501 7.32096 7.23376C7.32093 7.27203 7.31618 7.31004 7.3069 7.34626C7.29565 7.38376 7.27877 7.41376 7.25908 7.43626C7.2427 7.45426 7.22347 7.46708 7.20283 7.47376C7.18596 7.48126 7.16065 7.48126 7.13252 7.48126L6.98346 7.47001L7.00315 6.94501Z" fill="#309E3A"/>
<path d="M7.07906 7.03876L7.065 7.38751H7.17188C7.18594 7.38751 7.19719 7.38001 7.20563 7.36876C7.21407 7.35751 7.2225 7.34251 7.22813 7.32001C7.23375 7.29751 7.23938 7.26376 7.23938 7.22251L7.23656 7.12876C7.23255 7.10898 7.2248 7.09091 7.21406 7.07626C7.20472 7.06373 7.19309 7.05468 7.18031 7.05001C7.15905 7.04369 7.1374 7.03993 7.11563 7.03876H7.07906Z" fill="white"/>
<path d="M8.9325 7.8825L9.02531 7.3725L9.14906 7.41L9.23906 7.4475C9.25874 7.4625 9.27562 7.485 9.28406 7.51875C9.29531 7.54875 9.29531 7.5825 9.28968 7.62375C9.28406 7.65375 9.27562 7.68 9.26156 7.69875C9.25124 7.71521 9.23834 7.72845 9.22376 7.73753C9.20917 7.7466 9.19327 7.75128 9.17718 7.75125C9.15749 7.75125 9.12937 7.74375 9.09281 7.7325L9.045 7.71375L9.01124 7.90875L8.9325 7.8825Z" fill="#309E3A"/>
<path d="M9.08439 7.48499L9.06189 7.62748L9.10408 7.64249C9.1322 7.64999 9.1547 7.65749 9.16595 7.65374C9.17689 7.65171 9.18709 7.64521 9.19515 7.63514C9.20321 7.62507 9.20873 7.61191 9.21095 7.59749C9.21095 7.57874 9.21095 7.56374 9.20533 7.54874C9.19916 7.53349 9.18922 7.52157 9.1772 7.51498L9.12376 7.49623L9.0872 7.48499H9.08439Z" fill="white"/>
<path d="M9.2981 8.02875L9.43028 7.53375L9.58497 7.60875C9.62716 7.6275 9.65247 7.64625 9.66935 7.66125C9.68341 7.68 9.69466 7.69875 9.69747 7.72875C9.70028 7.75875 9.7031 7.785 9.69747 7.815C9.68622 7.8525 9.66935 7.87875 9.64685 7.8975C9.62435 7.9125 9.59622 7.91625 9.56247 7.90875C9.57372 7.9275 9.58497 7.94625 9.5906 7.96875L9.6131 8.07L9.62997 8.18625L9.54278 8.145L9.51466 8.01C9.50955 7.97947 9.50297 7.94941 9.49497 7.92C9.49124 7.90834 9.48545 7.89804 9.4781 7.89C9.47247 7.87875 9.46122 7.87125 9.44153 7.86375L9.42747 7.85625L9.37122 8.06625L9.2981 8.02875Z" fill="#309E3A"/>
<path d="M9.44996 7.7775L9.50339 7.80375C9.53996 7.8225 9.56246 7.83 9.57371 7.83C9.58214 7.83 9.59058 7.83 9.59902 7.81875C9.60746 7.81125 9.61308 7.8 9.61589 7.785C9.62152 7.77 9.62152 7.755 9.61589 7.74C9.61173 7.72546 9.60373 7.71346 9.59339 7.70625L9.53714 7.68L9.48089 7.65375L9.44714 7.7775H9.44996Z" fill="white"/>
<path d="M9.75937 8.01C9.76904 7.96609 9.78531 7.92526 9.80718 7.89C9.82141 7.86737 9.83855 7.84832 9.85781 7.83375C9.87524 7.82061 9.89429 7.81173 9.91406 7.8075C9.94218 7.8075 9.97031 7.8075 10.0012 7.8225C10.0264 7.83079 10.0499 7.84611 10.0703 7.86745C10.0906 7.88878 10.1074 7.91564 10.1194 7.94625C10.1419 8.00625 10.1419 8.0775 10.125 8.16C10.1111 8.23087 10.0767 8.29153 10.0294 8.32875C9.98718 8.3625 9.93656 8.36625 9.88312 8.34375C9.85805 8.33523 9.83459 8.31983 9.81425 8.29851C9.79391 8.2772 9.77713 8.25046 9.765 8.22C9.75373 8.18721 9.74743 8.15178 9.74647 8.11574C9.7455 8.07971 9.74989 8.04377 9.75937 8.01Z" fill="#309E3A"/>
<path d="M9.83813 8.04001C9.82688 8.09626 9.82407 8.14501 9.83813 8.18251C9.8522 8.22001 9.87188 8.24251 9.90282 8.25751C9.93095 8.26876 9.95907 8.26501 9.9872 8.24251C10.0153 8.22376 10.0322 8.18251 10.0463 8.12251C10.0603 8.06626 10.0603 8.02126 10.0463 7.98376C10.0407 7.96597 10.0323 7.95002 10.0216 7.93706C10.0109 7.9241 9.99819 7.91444 9.98438 7.90876C9.97055 7.90239 9.95584 7.90009 9.94127 7.90204C9.9267 7.90398 9.91263 7.91011 9.90001 7.92001C9.87188 7.94251 9.8522 7.98001 9.83813 8.04001Z" fill="white"/>
<path d="M10.5272 8.74125L10.7072 8.27625L10.8562 8.3775C10.8843 8.39547 10.91 8.41955 10.9322 8.44875C10.9462 8.4675 10.9547 8.49 10.9547 8.52C10.9547 8.55 10.9547 8.57625 10.9434 8.6025C10.9326 8.63621 10.9125 8.66308 10.8872 8.6775C10.859 8.685 10.8309 8.685 10.8 8.67C10.8112 8.6925 10.8168 8.715 10.8225 8.73375C10.8281 8.75625 10.8309 8.79 10.8337 8.83875L10.8393 8.95875L10.755 8.9025L10.7437 8.76375C10.7424 8.73229 10.7396 8.70098 10.7353 8.67C10.7334 8.65597 10.7285 8.64296 10.7212 8.6325L10.6875 8.60625L10.6734 8.595L10.5975 8.79L10.5272 8.74125Z" fill="#309E3A"/>
<path d="M10.7015 8.51999L10.755 8.55749C10.7887 8.57999 10.8112 8.59499 10.8197 8.59499C10.8281 8.59499 10.8394 8.59499 10.8478 8.58749C10.8562 8.58374 10.8619 8.57249 10.8675 8.55749C10.8731 8.54249 10.8759 8.52749 10.8731 8.51249C10.8696 8.49756 10.8627 8.48445 10.8534 8.47499C10.837 8.46152 10.8201 8.44901 10.8028 8.43749L10.7465 8.39999L10.7015 8.51999Z" fill="white"/>
<path d="M11.9841 9.70124C12.0023 9.66269 12.0262 9.6295 12.0544 9.60374C12.0733 9.58759 12.0943 9.57616 12.1163 9.56999C12.1367 9.56444 12.1577 9.56444 12.1782 9.56999C12.2063 9.57749 12.2316 9.59249 12.2569 9.61499C12.2788 9.63317 12.2976 9.65723 12.3121 9.68564C12.3267 9.71405 12.3366 9.74618 12.3413 9.77999C12.3497 9.84374 12.3357 9.91499 12.3019 9.98624C12.2737 10.0482 12.2282 10.0927 12.1753 10.11C12.1502 10.1172 12.1241 10.1173 12.0989 10.1102C12.0737 10.1031 12.0499 10.089 12.0291 10.0687C12.0072 10.0506 11.9884 10.0265 11.9739 9.99809C11.9593 9.96969 11.9494 9.93755 11.9447 9.90374C11.9363 9.83624 11.9503 9.76874 11.9841 9.70124Z" fill="#309E3A"/>
<path d="M12.0544 9.76123C12.0262 9.80998 12.0178 9.85498 12.0234 9.89623C12.0255 9.91523 12.0306 9.93341 12.0384 9.94958C12.0461 9.96575 12.0564 9.97952 12.0684 9.98998C12.0966 10.0162 12.1247 10.0237 12.1528 10.0125C12.1809 10.0012 12.2091 9.97498 12.2344 9.92248C12.2597 9.86998 12.2709 9.82498 12.2653 9.78748C12.2625 9.74998 12.2456 9.71623 12.2203 9.68998C12.195 9.66373 12.1641 9.65998 12.1359 9.67123C12.1078 9.67873 12.0797 9.70873 12.0516 9.76123H12.0544Z" fill="white"/>
<path d="M8.4881 7.66874L8.55279 7.30124L8.75529 7.36499L8.74685 7.42499L8.59779 7.37999L8.58372 7.46249L8.72154 7.50374L8.71029 7.56749L8.57247 7.52249L8.5556 7.62374L8.71029 7.67249L8.69904 7.73249L8.4881 7.66874Z" fill="#309E3A"/>
</g>
<defs>
<clipPath id="clip0_10_2304">
<rect width="18" height="18" rx="2" fill="white"/>
</clipPath>
</defs>
</svg>
