<svg width="18" height="18" viewBox="0 0 18 18" fill="none" xmlns="http://www.w3.org/2000/svg">
<g clip-path="url(#clip0_10_2340)">
<path d="M0 0H18V18H0V0Z" fill="#EE1C25"/>
<path d="M2.16003 6.65999L3.37501 1.79999L4.59 6.65999L1.35004 3.68999H5.39999L2.16003 6.65999Z" fill="#FFFF00"/>
<path d="M7.4298 1.89314L6.17943 2.26259L7.01347 0.966717L6.93167 2.71079L6.23779 1.16676L7.4298 1.89314Z" fill="#FFFF00"/>
<path d="M8.69172 4.02553L7.43175 3.71947L8.57745 2.95633L7.99475 4.5216L7.8043 2.7396L8.69172 4.02553Z" fill="#FFFF00"/>
<path d="M8.50783 7.01717L7.45104 6.05254L8.73055 5.9788L7.71972 7.09108L8.09092 5.36046L8.50783 7.01717Z" fill="#FFFF00"/>
<path d="M6.91842 8.97153L6.22306 7.53753L7.42464 8.12843L6.17006 8.63384L7.01376 7.22868L6.91842 8.97153Z" fill="#FFFF00"/>
</g>
<defs>
<clipPath id="clip0_10_2340">
<rect width="18" height="18" rx="2" fill="white"/>
</clipPath>
</defs>
</svg>
