<svg width="18" height="18" viewBox="0 0 18 18" fill="none" xmlns="http://www.w3.org/2000/svg">
<g clip-path="url(#clip0_10_2347)">
<path fill-rule="evenodd" clip-rule="evenodd" d="M9 0H18V18H9V0Z" fill="#CE0000"/>
<path fill-rule="evenodd" clip-rule="evenodd" d="M0 0H9V18H0V0Z" fill="white"/>
<path fill-rule="evenodd" clip-rule="evenodd" d="M4.36313 5.31934C4.36313 5.37329 4.32267 5.40926 4.27321 5.40926C4.21926 5.40926 4.18329 5.37329 4.18329 5.32533C4.18329 5.27738 4.21926 5.23541 4.27321 5.23541C4.32267 5.23541 4.36313 5.27738 4.36313 5.32533V5.31934Z" fill="#F1EEEE"/>
<path fill-rule="evenodd" clip-rule="evenodd" d="M1.48114 4.8997V7.12974H3.15817C3.15817 7.50142 3.43693 7.87309 3.71568 7.87309V10.1031H5.39271V7.87309C5.67147 7.87309 5.95023 7.50142 5.95023 7.12974H7.62276V4.8997H5.94573C5.94573 4.52802 5.66697 4.15635 5.38822 4.15635V1.9263H3.71568V4.15635C3.43243 4.15635 3.15368 4.52802 3.15368 4.8997H1.48114Z" fill="#CC0000"/>
<path fill-rule="evenodd" clip-rule="evenodd" d="M1.53961 4.97163V7.0578H3.21215C3.21215 7.42947 3.4909 7.80115 3.76966 7.80115V10.0312H5.32979V7.80714C5.60855 7.80714 5.8873 7.43547 5.8873 7.06379H7.56434V4.97762H5.8918C5.8918 4.60595 5.61304 4.23427 5.33429 4.23427V1.99823H3.76966V4.22828C3.4909 4.22828 3.21215 4.59995 3.21215 4.97163H1.53961Z" fill="#FFE600"/>
<path fill-rule="evenodd" clip-rule="evenodd" d="M1.59357 5.04957V6.97988H3.2661C3.2661 7.35155 3.54486 7.72323 3.82361 7.72323V9.95327H5.27584V7.72323C5.5546 7.72323 5.83335 7.35155 5.83335 6.97988H7.50589V5.04957H5.83335C5.83335 4.67789 5.5546 4.30622 5.27584 4.30622V2.07617H3.82361V4.30022C3.54486 4.30022 3.2661 4.6719 3.2661 5.04357H1.59357V5.04957Z" fill="#707070"/>
<path fill-rule="evenodd" clip-rule="evenodd" d="M1.65202 5.1215V6.90793H3.32455C3.32455 7.27961 3.60331 7.65128 3.88206 7.65128V9.87533H5.2174V7.64529C5.49615 7.64529 5.77491 7.27361 5.77491 6.90194H7.44744V5.1155H5.77491C5.77491 4.74383 5.49615 4.37215 5.2174 4.37215V2.1481H3.88206V4.37815C3.60331 4.37815 3.32455 4.74982 3.32455 5.1215H1.64752H1.65202Z" fill="#A0A0A0"/>
<path fill-rule="evenodd" clip-rule="evenodd" d="M3.89554 4.19231C3.98996 4.3242 3.91352 4.64192 3.7157 4.90569C3.51787 5.16945 3.28407 5.26537 3.18516 5.14548C3.08625 5.0076 3.16718 4.68987 3.365 4.42611C3.56283 4.16234 3.79662 4.06642 3.89554 4.19231Z" fill="#D0D0D0"/>
<path fill-rule="evenodd" clip-rule="evenodd" d="M3.77412 4.34817C3.87304 4.48005 3.84606 4.72583 3.71568 4.90568C3.58529 5.08552 3.40095 5.11549 3.30204 4.98361C3.20312 4.85172 3.2301 4.60594 3.36049 4.43209C3.49087 4.25824 3.67521 4.22228 3.77412 4.34817Z" fill="#808080"/>
<path fill-rule="evenodd" clip-rule="evenodd" d="M3.28406 4.74384L3.32003 4.69588L3.47739 4.79779L3.40096 4.58797L3.44142 4.53402L3.59878 4.95365L3.28406 4.74384ZM3.51785 4.43211L3.56281 4.37216L3.79661 4.69588L3.75614 4.74384L3.51785 4.43211Z" fill="#D0D0D0"/>
<path fill-rule="evenodd" clip-rule="evenodd" d="M5.91428 5.13948C5.81536 5.27136 5.57707 5.16345 5.38374 4.89969C5.19041 4.63592 5.10498 4.32419 5.2039 4.1923C5.30281 4.06042 5.5411 4.16833 5.73893 4.43209C5.93676 4.69586 6.00869 5.00759 5.91877 5.13948H5.91428Z" fill="#D0D0D0"/>
<path fill-rule="evenodd" clip-rule="evenodd" d="M5.79735 4.98362C5.69844 5.11551 5.5141 5.07954 5.38372 4.90569C5.25333 4.73184 5.22635 4.48606 5.32077 4.35417C5.41968 4.22229 5.60852 4.25826 5.7389 4.43211C5.86929 4.60595 5.89627 4.85174 5.79735 4.98362Z" fill="#808080"/>
<path fill-rule="evenodd" clip-rule="evenodd" d="M5.50062 4.32419L5.54109 4.37814L5.46016 4.58796L5.61752 4.48005L5.66248 4.54L5.34326 4.74382L5.50062 4.32419ZM5.73891 4.64191L5.77488 4.68987L5.54109 5.00759L5.50062 4.95364L5.73891 4.64191Z" fill="#D0D0D0"/>
<path fill-rule="evenodd" clip-rule="evenodd" d="M5.2039 7.83712C5.10498 7.70523 5.18591 7.38751 5.38374 7.12374C5.58157 6.85997 5.81536 6.75806 5.91428 6.88395C6.01319 7.01584 5.93226 7.33356 5.73443 7.59733C5.53661 7.8611 5.30281 7.96301 5.2039 7.83712Z" fill="#D0D0D0"/>
<path fill-rule="evenodd" clip-rule="evenodd" d="M5.32529 7.67527C5.22638 7.54339 5.25336 7.2976 5.38374 7.12376C5.51413 6.94991 5.69847 6.91394 5.79738 7.04582C5.89629 7.17771 5.86932 7.42349 5.73893 7.59734C5.60854 7.77119 5.42421 7.80716 5.3208 7.67527H5.32529Z" fill="#808080"/>
<path fill-rule="evenodd" clip-rule="evenodd" d="M5.81537 7.27961L5.7749 7.33956L5.61754 7.23165L5.69847 7.44147L5.658 7.48943L5.50064 7.06979L5.81537 7.27961ZM5.58607 7.59733L5.54111 7.65128L5.30731 7.33356L5.34778 7.27961L5.58607 7.59733Z" fill="#D0D0D0"/>
<path fill-rule="evenodd" clip-rule="evenodd" d="M3.18517 6.88996C3.28408 6.75808 3.52237 6.86598 3.7157 7.12376C3.90903 7.38153 3.98996 7.70525 3.89555 7.83114C3.79663 7.96302 3.55834 7.86111 3.36051 7.59734C3.16269 7.33357 3.09075 7.01585 3.18067 6.88996H3.18517Z" fill="#D0D0D0"/>
<path fill-rule="evenodd" clip-rule="evenodd" d="M3.30204 7.04582C3.40095 6.91394 3.58529 6.94991 3.71568 7.12376C3.84606 7.2976 3.87304 7.54339 3.77412 7.67527C3.67971 7.80716 3.49087 7.77119 3.36049 7.59734C3.2301 7.42349 3.20312 7.17771 3.30204 7.04582Z" fill="#808080"/>
<path fill-rule="evenodd" clip-rule="evenodd" d="M3.59878 7.70525L3.55832 7.64531L3.63925 7.44148L3.48189 7.54339L3.43693 7.48944L3.75615 7.27963L3.59878 7.69926V7.70525ZM3.36049 7.38753L3.32452 7.33358L3.55832 7.02185L3.59878 7.06981L3.36049 7.38753Z" fill="#D0D0D0"/>
<path fill-rule="evenodd" clip-rule="evenodd" d="M4.55453 4.46526C3.91164 4.46526 3.39092 5.15937 3.39092 6.01605C3.39092 6.87276 3.91011 7.56685 4.55299 7.56685C5.19587 7.56685 5.7166 6.87065 5.7166 6.01605V6.00569H5.71811C5.71393 5.15377 5.19482 4.46526 4.55453 4.46526ZM5.73212 6.02642H5.73369V6.01605C5.73369 5.14791 5.206 4.44452 4.55453 4.44452C3.90305 4.44452 3.37537 5.14791 3.37537 6.01605C3.37537 6.88419 3.9015 7.58759 4.55299 7.58759C5.20187 7.58759 5.72793 6.88772 5.73212 6.02642Z" fill="#707070"/>
<path fill-rule="evenodd" clip-rule="evenodd" d="M4.54873 4.83135C4.05891 4.83135 3.66218 5.3602 3.66218 6.01291C3.66218 6.66564 4.05775 7.19448 4.54756 7.19448C5.03737 7.19448 5.4341 6.66404 5.4341 6.01291V6.00501H5.43526C5.43207 5.35594 5.03656 4.83135 4.54873 4.83135ZM5.44594 6.02081H5.44713V6.01291C5.44713 5.35147 5.04508 4.81555 4.54873 4.81555C4.05237 4.81555 3.65033 5.35147 3.65033 6.01291C3.65033 6.67435 4.05119 7.21028 4.54756 7.21028C5.04194 7.21028 5.44274 6.67704 5.44594 6.02081Z" fill="#707070"/>
<path fill-rule="evenodd" clip-rule="evenodd" d="M4.1608 7.27962C4.1608 7.29949 4.15488 7.31855 4.14434 7.3326C4.1338 7.34666 4.11951 7.35455 4.1046 7.35455C4.0897 7.35455 4.0754 7.34666 4.06486 7.3326C4.05432 7.31855 4.0484 7.29949 4.0484 7.27962C4.0484 7.25974 4.05432 7.24068 4.06486 7.22663C4.0754 7.21258 4.0897 7.20468 4.1046 7.20468C4.11951 7.20468 4.1338 7.21258 4.14434 7.22663C4.15488 7.24068 4.1608 7.25974 4.1608 7.27962ZM5.05102 7.27962C5.05102 7.29949 5.0451 7.31855 5.03456 7.3326C5.02402 7.34666 5.00973 7.35455 4.99482 7.35455C4.97992 7.35455 4.96562 7.34666 4.95508 7.3326C4.94454 7.31855 4.93862 7.29949 4.93862 7.27962C4.93862 7.25974 4.94454 7.24068 4.95508 7.22663C4.96562 7.21258 4.97992 7.20468 4.99482 7.20468C5.00973 7.20468 5.02402 7.21258 5.03456 7.22663C5.0451 7.24068 5.05102 7.25974 5.05102 7.27962ZM4.5115 7.27962V7.35755H4.43956C4.36313 7.35755 4.36313 7.43548 4.43956 7.43548H4.5115V7.50742C4.5115 7.59134 4.57894 7.59734 4.58343 7.51341V7.42948H4.65987C4.7363 7.42948 4.7363 7.35755 4.65987 7.35755H4.58793V7.27962C4.58793 7.20168 4.5115 7.20168 4.5115 7.27962Z" fill="#D0D0D0"/>
<path fill-rule="evenodd" clip-rule="evenodd" d="M4.27321 6.17657V6.22453C4.27321 6.22453 4.25523 6.2545 4.14283 6.26649C4.03043 6.27848 4.01244 6.26649 4.01244 6.26649C4.01694 6.30845 4.03942 6.38039 4.03043 6.46432C4.03492 6.56623 4.01244 6.65615 4.01244 6.65615C4.01244 6.66214 3.99895 6.66814 3.97647 6.66214C3.99446 6.63816 3.99446 6.57822 3.99446 6.4823C3.99446 6.39837 3.92702 6.26049 3.9405 6.22453C3.95399 6.18856 4.27321 6.17657 4.27321 6.17657ZM4.71383 6.0207L5.00607 6.01471C5.00607 6.01471 5.05103 6.1346 5.04654 6.19455C5.04654 6.2545 5.02855 6.31445 5.01057 6.28447C4.98809 6.2545 5.01956 6.26049 5.02406 6.19455C5.02406 6.12261 4.98809 6.05667 4.98809 6.05667C4.98809 6.05667 4.90716 6.09864 4.79026 6.09264C4.67336 6.08065 4.72731 6.0207 4.71383 6.0207Z" fill="#D0D0D0"/>
<path fill-rule="evenodd" clip-rule="evenodd" d="M5.00807 6.01337L5.00811 6.01347L5.0082 6.01373L5.00858 6.01476C5.00891 6.01566 5.0094 6.01698 5.01001 6.01869C5.01124 6.0221 5.01298 6.02704 5.01506 6.03315C5.01922 6.04536 5.02472 6.06228 5.03008 6.08109C5.03544 6.09989 5.04067 6.12062 5.04428 6.14046C5.04788 6.16018 5.04991 6.17924 5.04877 6.19471C5.04876 6.22493 5.04423 6.25531 5.03731 6.27454C5.03389 6.28404 5.02965 6.29148 5.02463 6.29427C5.02202 6.29572 5.01925 6.29588 5.01647 6.29448C5.01379 6.29313 5.01126 6.29042 5.00888 6.28648C5.00326 6.27897 5.00048 6.27305 5.0003 6.26718C5.00013 6.26131 5.00262 6.25637 5.00536 6.25126C5.00566 6.25069 5.00598 6.25011 5.0063 6.24951C5.01185 6.23925 5.01971 6.22471 5.0218 6.19442C5.02177 6.15912 5.01294 6.12517 5.00403 6.09992C4.99957 6.0873 4.99512 6.07691 4.99178 6.06968C4.99011 6.06606 4.98873 6.06324 4.98776 6.06133C4.98757 6.06095 4.98739 6.0606 4.98723 6.06029C4.98667 6.06057 4.98596 6.06091 4.98511 6.0613C4.98264 6.06245 4.979 6.06407 4.97426 6.06601C4.96479 6.06987 4.95096 6.07495 4.93346 6.07984C4.89847 6.08962 4.84883 6.09865 4.79016 6.09564L4.79008 6.09564C4.76074 6.09263 4.74188 6.08659 4.72993 6.07906C4.7179 6.07148 4.71266 6.06223 4.71106 6.05285C4.70953 6.04386 4.71148 6.03538 4.7128 6.02967L4.71286 6.02938C4.7132 6.02791 4.71348 6.02668 4.71368 6.02561C4.71384 6.02474 4.71391 6.02413 4.71393 6.02371C4.71389 6.02371 4.71386 6.02371 4.71382 6.02371L4.71378 6.01771L4.71382 6.01771L5.00744 6.01169L5.00807 6.01337ZM4.71843 6.02361L5.00467 6.01774C5.00499 6.01861 5.00542 6.0198 5.00596 6.02128C5.00717 6.02466 5.0089 6.02956 5.01097 6.03562C5.0151 6.04776 5.02056 6.06456 5.02588 6.08322C5.0312 6.10189 5.03636 6.12237 5.03991 6.14187C5.04348 6.16143 5.04537 6.17978 5.04429 6.19426L5.04428 6.19456C5.04428 6.22423 5.03982 6.25373 5.03326 6.27194C5.02993 6.28117 5.02631 6.28684 5.0229 6.28874C5.0213 6.28963 5.01971 6.2897 5.01806 6.28887C5.01635 6.28801 5.0144 6.28609 5.01231 6.28261L5.01215 6.28236C5.00658 6.27494 5.0049 6.2704 5.00479 6.26694C5.00469 6.26344 5.00613 6.26013 5.00901 6.25475C5.00932 6.25418 5.00963 6.25361 5.00995 6.25302C5.01566 6.24245 5.0241 6.22683 5.02628 6.19483L5.02629 6.19456C5.02629 6.15797 5.01716 6.12304 5.00809 6.09736C5.00356 6.08451 4.99902 6.07392 4.99561 6.06653C4.99391 6.06284 4.99248 6.05995 4.99149 6.05798C4.99099 6.05699 4.99059 6.05623 4.99032 6.05571L4.99001 6.05513L4.98993 6.05497L4.9899 6.05493L4.98888 6.05305L4.98726 6.05388L4.98721 6.05391L4.98704 6.054L4.98636 6.05434C4.98575 6.05464 4.98484 6.05508 4.98363 6.05564C4.98121 6.05676 4.97762 6.05837 4.97295 6.06027C4.96359 6.06409 4.94989 6.06913 4.93254 6.07398C4.89785 6.08368 4.84859 6.09263 4.79038 6.08965C4.76129 6.08667 4.74307 6.08071 4.73185 6.07364C4.72069 6.06661 4.71666 6.05862 4.71545 6.05152C4.71419 6.04416 4.7158 6.03704 4.71716 6.03114C4.71749 6.02971 4.71781 6.0283 4.71805 6.02703C4.71825 6.02593 4.71842 6.02474 4.71843 6.02361ZM3.94746 6.22074C3.94447 6.22275 3.943 6.22454 3.9425 6.22587C3.9411 6.22962 3.94064 6.23504 3.94118 6.24219C3.94171 6.24929 3.94319 6.25774 3.94538 6.2673C3.94967 6.28599 3.95656 6.30845 3.96396 6.33258L3.96449 6.3343C3.97207 6.35901 3.98012 6.38534 3.98626 6.41076C3.99239 6.43615 3.99669 6.46085 3.99669 6.48231V6.48247C3.99669 6.53029 3.99669 6.56938 3.99444 6.5995C3.99241 6.6265 3.98854 6.64699 3.98079 6.66014C3.98999 6.66212 3.99734 6.66194 4.00247 6.6607C4.00541 6.65999 4.00751 6.65895 4.0088 6.6579C4.01011 6.65684 4.01018 6.65614 4.01018 6.65614C4.01018 6.65614 4.01018 6.65614 4.01018 6.65614L4.01018 6.65567L4.0103 6.65521L4.01031 6.65515L4.01036 6.65496L4.01054 6.65421C4.0107 6.65354 4.01094 6.65253 4.01124 6.65122C4.01184 6.64859 4.01269 6.64471 4.0137 6.63973C4.01573 6.62977 4.01838 6.61541 4.0209 6.59789C4.02594 6.56282 4.0304 6.51513 4.02817 6.4645L4.02816 6.4642L4.02819 6.4639C4.03264 6.4224 4.02931 6.3838 4.02428 6.35026C4.02195 6.33474 4.01926 6.32033 4.01681 6.3072C4.01661 6.30613 4.01642 6.30508 4.01622 6.30403C4.01363 6.2901 4.01135 6.27759 4.01021 6.26692L4.0096 6.26125L4.01341 6.26379L4.0135 6.26384C4.0136 6.2639 4.0138 6.264 4.01411 6.26413C4.01473 6.2644 4.01579 6.26479 4.01745 6.26524C4.02076 6.26614 4.02641 6.26725 4.03561 6.268C4.05401 6.26949 4.08649 6.26949 4.14264 6.26351C4.19872 6.25752 4.2311 6.24707 4.24939 6.2382C4.25853 6.23377 4.26413 6.22974 4.26741 6.22689C4.26904 6.22547 4.27009 6.22434 4.27072 6.2236C4.2708 6.2235 4.27088 6.2234 4.27095 6.22331V6.17966L4.26968 6.17971C4.26734 6.17981 4.26391 6.17995 4.25954 6.18015C4.25079 6.18055 4.23827 6.18116 4.22321 6.182C4.19308 6.18369 4.15278 6.18631 4.11206 6.19005C4.07133 6.1938 4.03023 6.19866 3.99849 6.20483C3.98262 6.20791 3.96915 6.21131 3.95927 6.21503C3.95433 6.21689 3.95036 6.2188 3.94746 6.22074ZM4.2732 6.17657C4.27314 6.17358 4.27314 6.17358 4.27314 6.17358L4.27222 6.17361L4.26954 6.17372C4.2672 6.17382 4.26376 6.17396 4.25938 6.17416C4.25062 6.17456 4.2381 6.17517 4.22302 6.17601C4.19287 6.1777 4.15252 6.18032 4.11175 6.18407C4.07099 6.18782 4.02976 6.1927 3.99785 6.1989C3.9819 6.20199 3.96821 6.20544 3.95805 6.20926C3.95298 6.21117 3.9487 6.2132 3.94544 6.21539C3.94228 6.21751 3.93967 6.22003 3.93848 6.22319C3.93652 6.22843 3.93613 6.23519 3.9367 6.24279C3.93728 6.25045 3.93885 6.25932 3.94108 6.26906C3.94543 6.28801 3.95239 6.31069 3.95975 6.33467L3.96033 6.33657C3.96792 6.36131 3.9759 6.38744 3.98198 6.4126C3.98807 6.43779 3.9922 6.46179 3.9922 6.48231C3.9922 6.53032 3.9922 6.56911 3.98996 6.5989C3.98772 6.62885 3.98326 6.64885 3.97487 6.66003L3.9719 6.66399L3.97602 6.66509C3.98747 6.66814 3.99675 6.66818 4.00328 6.6666C4.00653 6.66581 4.00921 6.66459 4.01114 6.66302C4.01287 6.66162 4.01447 6.65952 4.01466 6.6567L4.01482 6.65603C4.01499 6.65533 4.01523 6.6543 4.01554 6.65296C4.01615 6.65028 4.01702 6.64634 4.01804 6.64129C4.02009 6.63121 4.02278 6.61671 4.02532 6.59902C4.03039 6.56371 4.0349 6.51561 4.03267 6.46445C4.03717 6.42213 4.03376 6.3829 4.02869 6.34908C4.02634 6.33342 4.02363 6.31889 4.02118 6.30577C4.02098 6.3047 4.02078 6.30364 4.02058 6.30258C4.01836 6.29065 4.01642 6.28 4.01521 6.27073C4.01562 6.27086 4.01606 6.27098 4.01655 6.27112C4.02012 6.27209 4.02599 6.27323 4.03534 6.27398C4.05403 6.27549 4.08674 6.27548 4.143 6.26948C4.19932 6.26347 4.23213 6.25295 4.25093 6.24383C4.26033 6.23927 4.26625 6.23506 4.26987 6.23191C4.27167 6.23034 4.2729 6.22903 4.2737 6.22808C4.2741 6.22761 4.2744 6.22722 4.2746 6.22694C4.2747 6.2268 4.27478 6.22668 4.27484 6.22659L4.27491 6.22648L4.27494 6.22643C4.27494 6.22643 4.27496 6.2264 4.2732 6.22453L4.27496 6.2264L4.27545 6.22558V6.17657H4.2732Z" fill="#707070"/>
<path fill-rule="evenodd" clip-rule="evenodd" d="M4.74979 6.1346C4.8577 6.12861 4.92964 6.14659 4.92964 6.14659C4.92964 6.14659 4.9746 6.26649 4.9746 6.32644C4.9701 6.38638 4.95661 6.44633 4.93413 6.41636C4.91615 6.39238 4.94312 6.39837 4.94762 6.32644C4.94762 6.26049 4.91165 6.18856 4.91165 6.18856C4.91165 6.18856 4.83522 6.23052 4.71832 6.22452C4.60142 6.21254 4.63739 6.20654 4.6239 6.20055C4.61042 6.20055 4.60592 6.2485 4.43057 6.2545C4.25073 6.2545 4.16081 6.20055 4.16081 6.20055C4.16081 6.20055 4.14282 6.23651 4.03492 6.2485H3.90004C3.90453 6.28447 3.92701 6.35641 3.92252 6.44633C3.92252 6.54225 3.90004 6.63816 3.90004 6.63816H3.86857C3.88655 6.62018 3.88205 6.55424 3.88655 6.46431C3.88655 6.37439 3.81461 6.24251 3.8281 6.20055C3.84608 6.16458 3.92701 6.20055 3.9405 6.18256C3.95399 6.15858 3.86857 6.0207 3.88655 5.89481C3.90004 5.76892 3.99445 5.80489 4.10686 5.80489C4.21926 5.81089 4.46654 5.85285 4.52949 5.80489C4.59243 5.76293 4.56545 5.60107 4.61941 5.49916C4.63731 5.47001 4.66001 5.44674 4.68573 5.43115C4.71146 5.41556 4.73953 5.40806 4.76778 5.40924C4.80824 5.40924 4.8577 5.58908 4.8577 5.63104L4.84421 5.65502H4.82623V5.67301C4.78127 5.679 4.77677 5.62505 4.74979 5.58908C4.7408 5.64903 4.78576 5.85285 4.78576 5.98473C4.78576 6.09264 4.75429 6.1406 4.74979 6.1346Z" fill="#D0D0D0"/>
<path fill-rule="evenodd" clip-rule="evenodd" d="M4.7677 5.41224C4.7398 5.41108 4.71207 5.41848 4.68665 5.43388C4.66127 5.44927 4.63887 5.47223 4.62119 5.50098C4.5969 5.54692 4.58922 5.60524 4.58205 5.65974C4.58137 5.66488 4.5807 5.66998 4.58002 5.67504C4.57609 5.70425 4.57184 5.73191 4.56457 5.75492C4.55728 5.77797 4.54688 5.79662 4.53054 5.80754C4.51429 5.81989 4.48658 5.82625 4.45283 5.82897C4.41892 5.83169 4.3785 5.83075 4.3366 5.82813C4.2947 5.8255 4.25125 5.82119 4.21128 5.81716C4.20948 5.81698 4.20769 5.8168 4.20591 5.81662C4.16805 5.8128 4.13359 5.80933 4.1068 5.8079C4.08524 5.80789 4.06433 5.80657 4.04458 5.80532C4.03854 5.80494 4.03261 5.80457 4.02681 5.80424C4.00193 5.80284 3.97935 5.80229 3.95989 5.80562C3.94043 5.80896 3.92435 5.81614 3.91231 5.82993C3.90032 5.84368 3.89208 5.8643 3.88876 5.89524L3.88875 5.89538C3.8799 5.95736 3.89648 6.02256 3.91389 6.07571C3.91823 6.08897 3.92261 6.10144 3.92664 6.11291L3.9269 6.11365C3.93083 6.12481 3.93442 6.13503 3.93729 6.14402C3.94022 6.15319 3.94245 6.16125 3.94351 6.16786C3.94453 6.17427 3.94461 6.18024 3.94229 6.18437L3.9421 6.18471C3.93992 6.18762 3.9366 6.18914 3.93291 6.18998C3.92916 6.19084 3.92466 6.19105 3.91972 6.1909C3.91312 6.19071 3.90549 6.18988 3.89757 6.18902C3.89369 6.1886 3.88975 6.18817 3.88582 6.18781C3.87375 6.18668 3.86173 6.18615 3.85166 6.18806C3.84162 6.18998 3.83406 6.19423 3.83008 6.20199C3.82867 6.20652 3.82832 6.21249 3.82896 6.2199C3.82961 6.22742 3.83127 6.23615 3.83367 6.24589C3.83828 6.26461 3.84554 6.28664 3.85334 6.3103L3.85431 6.31325C3.86246 6.33796 3.87107 6.3643 3.87764 6.39011C3.8842 6.41589 3.88879 6.44136 3.88879 6.46432V6.46452C3.88767 6.48695 3.8871 6.50789 3.88661 6.52699L3.88654 6.52954C3.88608 6.54762 3.88566 6.56406 3.88485 6.57845C3.884 6.59349 3.88272 6.60647 3.88048 6.61689C3.87892 6.62416 3.87684 6.63036 3.87401 6.63517H3.89836C3.89849 6.63458 3.89865 6.63386 3.89884 6.63302C3.89945 6.63023 3.90032 6.62613 3.90137 6.62091C3.90347 6.61046 3.90627 6.59553 3.90907 6.57761C3.91467 6.54175 3.92026 6.49401 3.92026 6.44634V6.44614C3.92249 6.40156 3.91804 6.3614 3.91245 6.32784C3.90975 6.31167 3.90679 6.29705 3.90419 6.28418L3.9039 6.28273C3.90124 6.26957 3.89896 6.25817 3.89781 6.249L3.89737 6.24551H4.03482C4.08855 6.23953 4.11974 6.2276 4.13742 6.21729C4.14626 6.21213 4.15171 6.20739 4.15491 6.20401C4.15651 6.20232 4.15755 6.20097 4.15817 6.20008C4.15848 6.19963 4.15869 6.1993 4.15881 6.1991L4.15893 6.19889L4.15999 6.19678L4.16172 6.19782L4.16178 6.19785L4.16196 6.19796L4.16273 6.1984C4.16341 6.19878 4.16445 6.19935 4.16584 6.20008C4.16861 6.20154 4.17279 6.20363 4.17838 6.20614C4.18955 6.21117 4.20633 6.21788 4.22873 6.2246C4.27353 6.23804 4.3408 6.2515 4.43053 6.25151C4.51807 6.24851 4.56273 6.23505 4.58711 6.22248C4.59928 6.21622 4.60643 6.21016 4.61139 6.20566C4.61195 6.20515 4.61249 6.20465 4.61302 6.20417C4.61479 6.20255 4.61636 6.2011 4.6178 6.20001C4.61973 6.19856 4.62166 6.19755 4.62389 6.19755H4.62426L4.6246 6.19771C4.62644 6.19853 4.62776 6.19948 4.62867 6.20076C4.62956 6.20203 4.62986 6.20339 4.63003 6.20416C4.63004 6.20421 4.63005 6.20425 4.63005 6.2043C4.63021 6.205 4.63028 6.20524 4.63051 6.20555C4.63079 6.20595 4.63146 6.20664 4.63313 6.2075C4.63651 6.20923 4.64316 6.21126 4.65643 6.2136C4.66964 6.21593 4.68925 6.21854 4.71844 6.22154C4.77665 6.22452 4.82478 6.21556 4.85834 6.20587C4.87512 6.20102 4.88826 6.19598 4.89719 6.19217C4.90165 6.19026 4.90506 6.18866 4.90735 6.18754C4.9085 6.18698 4.90936 6.18654 4.90994 6.18624L4.91058 6.1859L4.91074 6.18582L4.91078 6.1858L4.91249 6.18486L4.91351 6.1869L4.91354 6.18696L4.91362 6.18713L4.91393 6.18776C4.9142 6.18831 4.91459 6.18913 4.91509 6.19019C4.91609 6.19231 4.91751 6.19541 4.91921 6.19933C4.92261 6.20717 4.92714 6.21831 4.93167 6.23153C4.94071 6.2579 4.94986 6.29283 4.94986 6.32644V6.32669C4.94757 6.36331 4.93951 6.38026 4.93433 6.39101L4.9343 6.39107C4.93302 6.39371 4.93202 6.39579 4.93131 6.39768C4.93061 6.39956 4.93028 6.40103 4.93026 6.40238C4.93021 6.405 4.93128 6.40833 4.93571 6.41424C4.94101 6.42131 4.94515 6.42233 4.94848 6.4206C4.95214 6.41869 4.95575 6.41305 4.95907 6.40383C4.96563 6.38561 4.97009 6.35613 4.97234 6.32629C4.97232 6.31175 4.96958 6.29339 4.9654 6.27387C4.96121 6.25434 4.95562 6.23383 4.95002 6.21515C4.94442 6.19648 4.93881 6.17967 4.93461 6.16753C4.93251 6.16146 4.93076 6.15655 4.92953 6.15317C4.92892 6.15148 4.92844 6.15017 4.92811 6.14928C4.92758 6.14916 4.92686 6.149 4.92596 6.1488C4.9238 6.14832 4.92058 6.14764 4.91638 6.14685C4.90799 6.14527 4.89566 6.14321 4.87997 6.14134C4.84918 6.13768 4.80542 6.13473 4.75295 6.13744C4.75236 6.13778 4.75174 6.13802 4.7511 6.13809C4.75012 6.13819 4.74904 6.13785 4.74819 6.13673L4.74978 6.13461L4.74969 6.13162C4.75039 6.13158 4.75109 6.13154 4.75178 6.1315C4.75274 6.13072 4.75405 6.12924 4.75562 6.1269C4.75902 6.12184 4.76326 6.11332 4.76741 6.10115C4.77569 6.07685 4.7835 6.03831 4.7835 5.98474C4.7835 5.91912 4.77231 5.83549 4.76218 5.76047L4.76186 5.7581C4.75693 5.72154 4.75228 5.6871 4.74938 5.65805C4.74644 5.62849 4.74525 5.60404 4.74758 5.5885L4.7484 5.58301L4.75137 5.58697C4.75829 5.59619 4.76373 5.60651 4.76867 5.61658C4.76987 5.61903 4.77104 5.62147 4.7722 5.62386C4.77581 5.63136 4.77925 5.63851 4.78303 5.64494C4.78797 5.65337 4.79335 5.6603 4.8001 5.66481C4.80641 5.66901 4.81407 5.6712 4.82397 5.67026V5.65203H4.84308L4.85543 5.63007C4.85525 5.61986 4.85228 5.60161 4.84718 5.57957C4.84194 5.55694 4.83453 5.53065 4.82586 5.50567C4.81719 5.48067 4.8073 5.45711 4.79712 5.43985C4.79203 5.43122 4.78693 5.42427 4.78194 5.41949C4.77694 5.41471 4.77219 5.41224 4.76777 5.41224L4.7677 5.41224ZM4.7588 6.13116C4.80882 6.12895 4.8506 6.13183 4.88037 6.13537C4.89615 6.13725 4.90855 6.13932 4.91702 6.14092C4.92125 6.14172 4.9245 6.1424 4.92669 6.14288C4.92779 6.14312 4.92862 6.14332 4.92918 6.14345L4.92982 6.1436L4.92998 6.14364L4.93002 6.14365L4.92963 6.1466L4.93164 6.14526L4.93167 6.14535L4.93177 6.14561L4.93215 6.14664C4.93248 6.14754 4.93297 6.14886 4.93358 6.15057C4.93482 6.15397 4.93658 6.15891 4.93869 6.16501C4.94292 6.17722 4.94856 6.19413 4.95419 6.21293C4.95983 6.23172 4.96548 6.25243 4.96972 6.27223C4.97396 6.29199 4.97683 6.31104 4.97683 6.32644V6.32674C4.97458 6.3568 4.97004 6.3872 4.96312 6.40642C4.9597 6.41593 4.95545 6.4234 4.95011 6.42618C4.94445 6.42913 4.93848 6.42641 4.93253 6.41848C4.92797 6.4124 4.92567 6.4075 4.92576 6.40224C4.92581 6.39966 4.92643 6.39729 4.92729 6.395C4.92811 6.39281 4.92923 6.3905 4.93042 6.38802L4.93054 6.38777C4.93547 6.37754 4.94314 6.36155 4.94536 6.32632C4.94534 6.29402 4.93651 6.26007 4.92758 6.23402C4.92312 6.22101 4.91866 6.21004 4.91532 6.20233C4.91364 6.19848 4.91225 6.19544 4.91128 6.19337C4.91109 6.19296 4.91091 6.19258 4.91075 6.19225C4.91024 6.19251 4.90963 6.19281 4.9089 6.19317C4.90656 6.19432 4.90309 6.19595 4.89856 6.19788C4.8895 6.20175 4.87623 6.20683 4.85929 6.21172C4.82542 6.22151 4.77689 6.23053 4.71822 6.22753L4.71814 6.22752C4.6889 6.22452 4.66918 6.22189 4.65584 6.21954C4.64257 6.2172 4.63544 6.2151 4.63152 6.21309C4.62954 6.21208 4.62817 6.21099 4.62724 6.20967C4.62625 6.20827 4.62594 6.20687 4.62574 6.20599C4.62555 6.20514 4.62551 6.20504 4.62539 6.20486C4.62524 6.20465 4.6248 6.20417 4.62355 6.20356C4.62251 6.20366 4.62144 6.20416 4.62001 6.20523C4.61877 6.20617 4.61742 6.20741 4.6157 6.20898C4.61515 6.20949 4.61456 6.21004 4.61392 6.21062C4.60876 6.2153 4.6013 6.2216 4.58874 6.22808C4.56367 6.24099 4.51842 6.2545 4.43062 6.2575L4.43056 6.2575C4.34047 6.2575 4.27287 6.24399 4.22775 6.23045C4.20519 6.22369 4.18825 6.21691 4.17694 6.21182C4.17128 6.20928 4.16703 6.20715 4.16419 6.20566C4.16305 6.20506 4.16214 6.20456 4.16145 6.20418C4.16066 6.2053 4.15946 6.20685 4.1577 6.20871C4.15416 6.21245 4.14836 6.21745 4.13922 6.22278C4.12094 6.23344 4.08921 6.24548 4.0351 6.2515L4.03491 6.25152L3.90272 6.25151C3.90392 6.2597 3.9059 6.26961 3.90824 6.28117L3.90854 6.28265C3.91114 6.2955 3.91412 6.31023 3.91683 6.32654C3.92248 6.3604 3.92701 6.40113 3.92476 6.44644C3.92475 6.49464 3.9191 6.54278 3.91347 6.57883C3.91065 6.59688 3.90783 6.61192 3.90571 6.62246C3.90465 6.62773 3.90377 6.63187 3.90315 6.6347C3.90284 6.63611 3.9026 6.6372 3.90243 6.63794L3.90224 6.63877L3.90219 6.63899L3.90218 6.63904L3.90168 6.64117H3.86181L3.86721 6.63577C3.87114 6.63184 3.87404 6.62508 3.87616 6.61524C3.87827 6.60542 3.87952 6.59293 3.88036 6.578C3.88117 6.56373 3.88158 6.54741 3.88205 6.52928L3.88211 6.52679C3.88261 6.50771 3.88317 6.48672 3.88429 6.46422C3.88428 6.44225 3.87987 6.41754 3.87338 6.39204C3.86688 6.36651 3.85835 6.3404 3.8502 6.31566L3.84918 6.31257C3.84142 6.28903 3.83408 6.26677 3.8294 6.24776C3.82695 6.23783 3.8252 6.22867 3.8245 6.22059C3.8238 6.21254 3.82412 6.20529 3.82602 6.19937L3.82611 6.19912L3.82622 6.19889C3.83126 6.18881 3.84051 6.18413 3.85103 6.18213C3.86161 6.18011 3.87404 6.1807 3.88613 6.18183C3.8902 6.1822 3.89422 6.18264 3.89812 6.18307C3.90595 6.18392 3.91335 6.18472 3.91982 6.18491C3.92465 6.18505 3.92882 6.18483 3.93215 6.18407C3.93543 6.18333 3.93757 6.18212 3.93878 6.1806C3.93976 6.17869 3.94007 6.17513 3.93911 6.16911C3.93815 6.16309 3.93606 6.15547 3.93315 6.14637C3.93032 6.13747 3.92675 6.12734 3.92281 6.11613L3.92257 6.11545C3.91854 6.10399 3.91414 6.09145 3.90977 6.07811C3.89234 6.02487 3.87521 5.95822 3.88432 5.89433C3.88775 5.86237 3.89637 5.84029 3.90938 5.82539C3.92235 5.81052 3.93943 5.80309 3.95931 5.79968C3.97919 5.79627 4.00213 5.79685 4.027 5.79825C4.03285 5.79858 4.0388 5.79896 4.04486 5.79934C4.06461 5.80059 4.08539 5.8019 4.10685 5.8019H4.10694C4.13381 5.80333 4.16836 5.80682 4.2062 5.81064C4.208 5.81082 4.20981 5.811 4.21162 5.81118C4.2516 5.81521 4.29498 5.81952 4.33681 5.82214C4.37865 5.82476 4.41889 5.82569 4.45256 5.82298C4.48635 5.82027 4.51313 5.8139 4.52836 5.8023L4.52847 5.80221C4.54357 5.79215 4.55339 5.77485 4.56042 5.75259C4.56748 5.73027 4.57166 5.70322 4.5756 5.67398C4.57628 5.6689 4.57696 5.66375 4.57764 5.65856C4.58477 5.60426 4.59262 5.54455 4.61756 5.49744L4.61765 5.49726C4.63578 5.46776 4.65875 5.44421 4.68479 5.42843C4.71082 5.41265 4.73923 5.40506 4.7678 5.40625C4.77348 5.40626 4.77912 5.40942 4.78456 5.41462C4.79002 5.41984 4.79542 5.42726 4.80066 5.43615C4.81114 5.45392 4.8212 5.47795 4.82994 5.50315C4.8387 5.52838 4.84618 5.55492 4.85148 5.57781C4.85675 5.60057 4.85994 5.62006 4.85994 5.63105V5.63205L4.84532 5.65803H4.82846V5.67573L4.82644 5.676C4.81484 5.67754 4.8057 5.67524 4.79809 5.67017C4.79052 5.66512 4.78466 5.65744 4.77949 5.64863C4.77557 5.64196 4.77197 5.63449 4.76833 5.62693C4.76719 5.62457 4.76606 5.62221 4.7649 5.61986C4.76081 5.61151 4.75647 5.60322 4.75132 5.5956C4.75012 5.61017 4.75126 5.63137 4.75384 5.65726C4.75672 5.68617 4.76135 5.72049 4.7663 5.75713L4.76661 5.75941C4.77671 5.83426 4.788 5.91848 4.788 5.98474C4.788 6.03908 4.78008 6.07847 4.7715 6.10363C4.76722 6.11619 4.76275 6.12527 4.75898 6.13089C4.75892 6.13098 4.75886 6.13107 4.7588 6.13116ZM4.92963 6.1466L4.93164 6.14526L4.93114 6.14393L4.93002 6.14365L4.92963 6.1466Z" fill="#707070"/>
<path fill-rule="evenodd" clip-rule="evenodd" d="M4.39457 5.94277C4.39457 5.98474 4.2552 6.08665 4.24171 6.12262C4.23272 6.16458 4.27768 6.18256 4.26419 6.20654C4.2507 6.23052 4.23721 6.21853 4.23272 6.22453L4.17876 6.07466C4.17876 6.07466 4.31365 5.99073 4.30915 5.95476C4.30465 5.91879 4.21024 5.89481 4.19225 5.81089C4.17427 5.72696 4.18326 5.55311 4.16977 5.51715C4.15628 5.48118 3.98993 5.44521 3.98993 5.39725C3.98993 5.3373 4.16078 5.19343 4.17876 5.16945C4.19675 5.14547 4.21473 5.19343 4.19675 5.21141C4.17876 5.23539 4.04838 5.37327 4.04838 5.39126C4.04838 5.41523 4.15628 5.43921 4.19225 5.43921C4.23272 5.43921 4.2507 5.41523 4.2507 5.39126C4.2507 5.37327 4.21024 5.37327 4.21024 5.33131C4.21024 5.28934 4.23272 5.25937 4.26868 5.25937C4.28667 5.25937 4.32264 5.28934 4.32264 5.32531C4.32264 5.36128 4.29117 5.36728 4.28667 5.39126C4.28217 5.42123 4.32264 5.43921 4.35861 5.43921C4.39457 5.43921 4.52046 5.5651 4.53845 5.58908C4.56093 5.60707 4.57891 5.60707 4.56093 5.63105C4.54294 5.65502 4.55194 5.679 4.53395 5.65502C4.5252 5.64349 4.51898 5.62898 4.51597 5.61306C4.51597 5.59508 4.38109 5.50516 4.35861 5.52314C4.34062 5.54712 4.35861 5.81089 4.35861 5.83487C4.35861 5.87683 4.39907 5.87683 4.39457 5.94277Z" fill="#D0D0D0"/>
<path fill-rule="evenodd" clip-rule="evenodd" d="M4.1911 5.16627C4.18811 5.1652 4.18441 5.16616 4.18034 5.17158C4.17796 5.17476 4.17318 5.17976 4.16682 5.18608C4.16041 5.19244 4.15224 5.20028 4.14297 5.20917L4.1428 5.20934C4.12428 5.22711 4.10134 5.24912 4.07897 5.27224C4.05651 5.29544 4.03469 5.3197 4.01851 5.34184C4.01041 5.35291 4.00378 5.36338 3.99918 5.37287C3.99456 5.38242 3.99217 5.39063 3.99217 5.39726C3.99217 5.40204 3.99424 5.4071 3.99862 5.41251C4.00297 5.41787 4.00931 5.42321 4.01714 5.42849C4.03278 5.43906 4.05385 5.44912 4.0755 5.45886C4.08054 5.46113 4.0856 5.46338 4.09063 5.46561C4.10717 5.47296 4.12333 5.48014 4.13679 5.4872C4.14558 5.49181 4.15331 5.49642 4.15929 5.50105C4.16517 5.50561 4.16977 5.51047 4.17177 5.51581C4.17361 5.52072 4.17499 5.52772 4.17608 5.53615C4.17717 5.54464 4.17801 5.55481 4.17868 5.56619C4.17987 5.58638 4.18055 5.61057 4.18128 5.63617C4.18137 5.6394 4.18147 5.64266 4.18156 5.64593C4.18325 5.7045 4.1855 5.76853 4.1944 5.81007C4.20313 5.8508 4.23048 5.87726 4.2569 5.89824C4.26182 5.90216 4.26674 5.9059 4.27148 5.9095C4.2793 5.91545 4.28664 5.92103 4.29275 5.92642C4.29769 5.93078 4.30197 5.93514 4.30519 5.93964C4.3084 5.94413 4.31069 5.94896 4.31136 5.95428C4.31208 5.96004 4.30997 5.96615 4.30662 5.97206C4.3032 5.97808 4.29814 5.98448 4.29208 5.99101C4.27992 6.00409 4.26337 6.01804 4.24675 6.0308C4.23013 6.04358 4.21337 6.05522 4.20077 6.06367C4.19447 6.06789 4.18921 6.07132 4.18552 6.07369C4.18398 6.07468 4.18271 6.07549 4.18176 6.07609L4.23369 6.22034C4.23497 6.21977 4.23633 6.21963 4.23755 6.21957C4.23839 6.21953 4.23921 6.21954 4.24003 6.21954C4.24154 6.21954 4.24307 6.21954 4.24485 6.2193C4.24989 6.21863 4.25604 6.21602 4.26238 6.20475C4.26383 6.20217 4.26441 6.19984 4.26447 6.19767C4.26453 6.19546 4.26406 6.19314 4.26309 6.19058C4.2613 6.18588 4.25809 6.18106 4.25435 6.17544C4.25389 6.17474 4.25342 6.17404 4.25294 6.17332C4.24456 6.16065 4.23467 6.1445 4.23954 6.1218L4.23959 6.12153L4.23969 6.12128C4.24157 6.11627 4.24549 6.11043 4.25061 6.10409C4.25579 6.09769 4.2624 6.09053 4.26991 6.08287C4.28047 6.0721 4.29288 6.06024 4.30567 6.04804C4.31104 6.04291 4.31648 6.03772 4.32187 6.03252C4.34014 6.01491 4.35789 5.9972 4.37107 5.9813C4.37766 5.97335 4.38303 5.96594 4.38675 5.95929C4.39051 5.95255 4.39232 5.94703 4.39232 5.94278H4.39456L4.39233 5.94251C4.39342 5.92645 4.39177 5.91459 4.38877 5.90517C4.38576 5.89573 4.38134 5.88854 4.37663 5.8819C4.3754 5.88016 4.37414 5.87845 4.37287 5.87673C4.36464 5.86558 4.35635 5.85435 4.35635 5.83488C4.35635 5.83019 4.35564 5.81596 4.35463 5.79584C4.35438 5.79079 4.35411 5.78536 4.35382 5.77962C4.35242 5.75114 4.35073 5.71514 4.34961 5.67914C4.34848 5.64315 4.34792 5.60708 4.34876 5.57848C4.34919 5.56419 4.34996 5.55168 4.35122 5.54194C4.35184 5.53707 4.3526 5.53282 4.35351 5.52935C4.35441 5.52593 4.35553 5.523 4.35701 5.52103L4.3572 5.52077L4.35744 5.52058C4.36091 5.5178 4.36612 5.51735 4.37203 5.51813C4.37807 5.51893 4.38533 5.52109 4.3933 5.52421C4.40925 5.53045 4.42833 5.54063 4.44665 5.5519C4.46497 5.56318 4.48262 5.5756 4.49571 5.58635C4.50225 5.59172 4.50771 5.59673 4.51156 5.601C4.51348 5.60313 4.51506 5.60516 4.51619 5.60702C4.51717 5.60863 4.51808 5.61057 4.51819 5.61263C4.52112 5.6279 4.52711 5.64182 4.53552 5.6529C4.53775 5.65587 4.53951 5.65803 4.54092 5.65952C4.54237 5.66104 4.54328 5.66168 4.54383 5.66189C4.54419 5.66203 4.54426 5.66195 4.54429 5.66191C4.5443 5.6619 4.54429 5.66191 4.54429 5.66191C4.54451 5.6617 4.54489 5.66111 4.54542 5.65969C4.54584 5.65858 4.54627 5.65716 4.54679 5.65549C4.54878 5.64901 4.55191 5.63883 4.55933 5.62894C4.5638 5.62297 4.56558 5.61905 4.56594 5.61638C4.5661 5.61518 4.56598 5.61424 4.56564 5.61335C4.56527 5.61239 4.56459 5.61135 4.56347 5.61019C4.56118 5.60781 4.55765 5.60553 4.553 5.60257L4.55265 5.60235C4.54816 5.5995 4.54286 5.59613 4.53728 5.59166L4.53704 5.59147L4.53685 5.59121C4.52802 5.57944 4.49221 5.54211 4.454 5.50765C4.43493 5.49044 4.41533 5.47402 4.39828 5.46191C4.38976 5.45586 4.38192 5.45091 4.37512 5.44748C4.36827 5.44403 4.36268 5.44222 4.3586 5.44222C4.34038 5.44222 4.32095 5.43768 4.30655 5.42923C4.29935 5.42501 4.29325 5.41972 4.28922 5.41333C4.28514 5.40686 4.28317 5.39922 4.28445 5.39068L4.28448 5.39054C4.28575 5.38374 4.28891 5.3784 4.29264 5.37372C4.2952 5.3705 4.2982 5.36742 4.30116 5.36437C4.30243 5.36306 4.3037 5.36175 4.30493 5.36045C4.31325 5.35157 4.32038 5.34186 4.32038 5.32532C4.32038 5.30867 4.312 5.29295 4.30099 5.2812C4.28997 5.26944 4.27696 5.26238 4.26867 5.26238C4.25116 5.26238 4.23714 5.26966 4.22751 5.28179C4.21788 5.29391 4.21247 5.31108 4.21247 5.33132C4.21247 5.35059 4.22162 5.36031 4.23155 5.36766C4.23362 5.3692 4.23569 5.3706 4.23771 5.37197C4.23811 5.37225 4.23851 5.37252 4.23891 5.37279C4.24128 5.3744 4.24357 5.376 4.24557 5.37768C4.2494 5.3809 4.25294 5.38505 4.25294 5.39126C4.25294 5.40434 4.24802 5.4172 4.23794 5.42668C4.22789 5.43614 4.21278 5.44222 4.19224 5.44222C4.17404 5.44222 4.1379 5.43618 4.10635 5.42717C4.09056 5.42266 4.07581 5.41737 4.06496 5.41166C4.05955 5.40881 4.05499 5.4058 4.05175 5.40263C4.04861 5.39957 4.04612 5.39579 4.04612 5.39126C4.04612 5.39015 4.04636 5.38905 4.04667 5.38808C4.04698 5.38708 4.04742 5.38602 4.04794 5.38493C4.04899 5.38275 4.05047 5.38021 4.05231 5.37739C4.05598 5.37175 4.0612 5.36471 4.06747 5.35678C4.08002 5.34089 4.09692 5.32118 4.11435 5.30131C4.12722 5.28664 4.1404 5.27187 4.15235 5.25847C4.15658 5.25373 4.16066 5.24915 4.16452 5.24482C4.17931 5.22819 4.19074 5.21518 4.19515 5.2093L4.19538 5.209C4.20317 5.20121 4.20343 5.18657 4.19925 5.17611C4.19719 5.17096 4.19424 5.16739 4.1911 5.16627ZM4.39681 5.94292C4.39677 5.94913 4.39423 5.95592 4.39035 5.96287C4.38639 5.96997 4.38077 5.97768 4.37408 5.98575C4.36071 6.00189 4.34277 6.01977 4.32451 6.03738C4.31907 6.04262 4.31361 6.04784 4.30822 6.05298C4.29546 6.06516 4.28314 6.07692 4.27264 6.08763C4.26518 6.09524 4.25869 6.10227 4.25367 6.10849C4.24869 6.11465 4.24534 6.11978 4.2438 6.12372C4.23981 6.14285 4.24787 6.1566 4.25631 6.16935C4.25678 6.17006 4.25726 6.17077 4.25773 6.17149C4.26138 6.17696 4.26502 6.18243 4.2671 6.18786C4.2683 6.19102 4.26906 6.19436 4.26896 6.19789C4.26886 6.20146 4.2679 6.20494 4.26598 6.20835C4.25883 6.22106 4.25149 6.22444 4.24529 6.22527C4.24332 6.22553 4.24133 6.22554 4.23969 6.22554C4.23894 6.22554 4.23827 6.22554 4.2377 6.22556C4.23559 6.22566 4.23474 6.22606 4.2343 6.22665L4.23205 6.22965L4.17574 6.07323L4.1778 6.07195L4.17818 6.07171L4.1793 6.07101C4.18029 6.07039 4.18173 6.06947 4.18356 6.06829C4.18723 6.06593 4.19247 6.06252 4.19875 6.05831C4.2113 6.0499 4.22798 6.03831 4.24451 6.02561C4.26106 6.01289 4.27738 5.99912 4.28925 5.98635C4.2952 5.97995 4.29994 5.9739 4.30304 5.96844C4.3062 5.96287 4.30733 5.9585 4.30692 5.95526C4.30646 5.95159 4.30482 5.9478 4.30194 5.94377C4.29906 5.93975 4.29509 5.93568 4.29027 5.93142C4.28426 5.92612 4.27717 5.92073 4.26947 5.91488C4.26471 5.91125 4.25971 5.90745 4.2546 5.90339C4.22819 5.88242 4.19934 5.85492 4.19008 5.81172C4.181 5.76933 4.17875 5.70448 4.17707 5.64616C4.17697 5.64289 4.17688 5.63963 4.17679 5.63641C4.17606 5.61078 4.17538 5.58672 4.17419 5.56666C4.17353 5.55537 4.17271 5.5454 4.17165 5.53717C4.17058 5.52888 4.16929 5.52259 4.16775 5.5185C4.16638 5.51485 4.16283 5.51072 4.15703 5.50624C4.15134 5.50183 4.14386 5.49735 4.13515 5.49278C4.12181 5.48578 4.10581 5.47867 4.0893 5.47134C4.08425 5.4691 4.07915 5.46683 4.07406 5.46454C4.05244 5.45481 4.03108 5.44463 4.01511 5.43384C4.00713 5.42845 4.00036 5.42282 3.99557 5.41691C3.99079 5.41102 3.98767 5.40447 3.98767 5.39726C3.98767 5.3889 3.99062 5.3795 3.99541 5.36962C4.00023 5.35967 4.00708 5.34887 4.01529 5.33766C4.03169 5.31521 4.05371 5.29076 4.07622 5.2675C4.09865 5.24432 4.12164 5.22226 4.14015 5.2045L4.14035 5.20431C4.14963 5.1954 4.15776 5.1876 4.16413 5.18127C4.17056 5.17489 4.17505 5.17015 4.17716 5.16734C4.18209 5.16077 4.18738 5.15873 4.19226 5.16048C4.19699 5.16216 4.20078 5.16721 4.20322 5.17329C4.20801 5.18526 4.20828 5.20347 4.19822 5.21369C4.19356 5.21986 4.18201 5.233 4.16742 5.2494C4.16355 5.25375 4.15947 5.25832 4.15523 5.26308C4.14328 5.27647 4.13012 5.29122 4.11727 5.30587C4.09985 5.32572 4.08303 5.34535 4.07057 5.36112C4.06433 5.36902 4.05923 5.37589 4.0557 5.38132C4.05394 5.38404 4.05261 5.38633 4.05173 5.38816C4.05129 5.38907 4.051 5.38981 4.05082 5.39039C4.05073 5.39068 4.05067 5.39089 4.05064 5.39105C4.05062 5.39121 4.05062 5.39128 4.05062 5.39126C4.05062 5.39273 4.05149 5.39495 4.0544 5.39779C4.0572 5.40052 4.06135 5.40331 4.06662 5.40609C4.07712 5.41162 4.0916 5.41682 4.10729 5.42131C4.13868 5.43027 4.17448 5.43623 4.19224 5.43623C4.21217 5.43623 4.22628 5.43032 4.23534 5.42179C4.24437 5.41329 4.24844 5.40217 4.24844 5.39126C4.24844 5.38849 4.24692 5.3859 4.24317 5.38275C4.24137 5.38124 4.23924 5.37975 4.23686 5.37813C4.23648 5.37786 4.23609 5.3776 4.23569 5.37733C4.23367 5.37596 4.23152 5.3745 4.22937 5.3729C4.21906 5.36527 4.20798 5.354 4.20798 5.33132C4.20798 5.3096 4.21381 5.29079 4.22442 5.27743C4.23502 5.26408 4.25022 5.25638 4.26867 5.25638C4.27837 5.25638 4.29234 5.2643 4.3038 5.27652C4.31527 5.28875 4.32488 5.30601 4.32488 5.32532C4.32488 5.34476 4.31627 5.35602 4.30773 5.36513C4.30636 5.36659 4.30501 5.36798 4.3037 5.36933C4.30083 5.37229 4.29812 5.37508 4.29572 5.37809C4.29229 5.38238 4.28984 5.38676 4.28885 5.39192C4.28791 5.39834 4.28931 5.40416 4.29266 5.40947C4.29608 5.41489 4.3015 5.41972 4.30836 5.42374C4.32206 5.43178 4.34084 5.43623 4.3586 5.43623C4.36351 5.43623 4.36971 5.43835 4.37671 5.44188C4.38375 5.44543 4.39178 5.4505 4.4004 5.45662C4.41764 5.46887 4.43738 5.48542 4.45652 5.50268C4.49447 5.53691 4.53036 5.57423 4.53983 5.58671C4.54514 5.59093 4.55019 5.59414 4.55463 5.59697L4.55493 5.59716C4.55942 5.60001 4.56347 5.60259 4.56623 5.60546C4.56764 5.60692 4.56886 5.6086 4.56964 5.61062C4.57044 5.6127 4.5707 5.61498 4.57037 5.61744C4.56974 5.62208 4.56703 5.62715 4.56251 5.63317C4.55581 5.6421 4.55313 5.65077 4.55111 5.65728C4.55053 5.65917 4.55 5.66089 4.54944 5.66237C4.54885 5.66395 4.54809 5.66562 4.54697 5.66672C4.54568 5.66799 4.54417 5.66825 4.5426 5.66766C4.54118 5.66712 4.53971 5.66589 4.53813 5.66422C4.53652 5.66252 4.53463 5.66018 4.53236 5.65716M4.36 5.52553C4.35928 5.52661 4.3585 5.52848 4.35775 5.53133C4.35695 5.53437 4.35625 5.53827 4.35565 5.54295C4.35444 5.55232 4.35368 5.56453 4.35326 5.57872C4.35242 5.60707 4.35297 5.64294 4.3541 5.67889C4.35522 5.71482 4.35691 5.75076 4.35831 5.77923C4.35859 5.78488 4.35886 5.79024 4.35911 5.79525C4.36012 5.81542 4.36084 5.82997 4.36084 5.83488C4.36084 5.85174 4.36772 5.86111 4.37595 5.87233C4.37724 5.87409 4.37857 5.87589 4.3799 5.87778C4.38475 5.88462 4.3896 5.89242 4.39291 5.90283C4.39623 5.91325 4.39795 5.92607 4.39681 5.94292" fill="#707070"/>
<path fill-rule="evenodd" clip-rule="evenodd" d="M4.16077 5.43323H4.38557V5.73896H4.16077V5.43323Z" fill="#A7A7A7"/>
<path d="M4.87604 6.53651L4.1382 5.05977C4.13131 5.04599 4.12218 5.03735 4.1178 5.04046C4.11342 5.04358 4.11544 5.05727 4.12233 5.07105L4.86017 6.5478C4.86705 6.56157 4.87618 6.57021 4.88057 6.5671C4.88495 6.56398 4.88292 6.55029 4.87604 6.53651Z" fill="#808080"/>
<path fill-rule="evenodd" clip-rule="evenodd" d="M4.21896 5.19323C4.21896 5.20491 4.21508 5.21611 4.20815 5.22437C4.20123 5.23262 4.19184 5.23726 4.18205 5.23726C4.17226 5.23726 4.16287 5.23262 4.15595 5.22437C4.14903 5.21611 4.14514 5.20491 4.14514 5.19323C4.14514 5.18155 4.14903 5.17035 4.15595 5.1621C4.16287 5.15384 4.17226 5.1492 4.18205 5.1492C4.19184 5.1492 4.20123 5.15384 4.20815 5.1621C4.21508 5.17035 4.21896 5.18155 4.21896 5.19323Z" fill="#D0D0D0"/>
<path fill-rule="evenodd" clip-rule="evenodd" d="M4.18207 5.15249C4.17285 5.15249 4.16405 5.15686 4.15761 5.16455C4.15117 5.17223 4.14762 5.18256 4.14762 5.19324C4.14762 5.20393 4.15117 5.21426 4.15761 5.22194C4.16405 5.22962 4.17285 5.234 4.18207 5.234C4.19129 5.234 4.20009 5.22962 4.20653 5.22194C4.21297 5.21426 4.21652 5.20393 4.21652 5.19324C4.21652 5.18256 4.21297 5.17223 4.20653 5.16455C4.20009 5.15686 4.19129 5.15249 4.18207 5.15249ZM4.15433 5.15967C4.16173 5.15084 4.17171 5.14594 4.18207 5.14594C4.19243 5.14594 4.20241 5.15084 4.20981 5.15967C4.21722 5.1685 4.22144 5.18057 4.22144 5.19324C4.22144 5.20592 4.21722 5.21799 4.20981 5.22682C4.20241 5.23565 4.19243 5.24055 4.18207 5.24055C4.17171 5.24055 4.16173 5.23565 4.15433 5.22682C4.14692 5.21799 4.1427 5.20592 4.1427 5.19324C4.1427 5.18057 4.14692 5.1685 4.15433 5.15967Z" fill="#707070"/>
<path fill-rule="evenodd" clip-rule="evenodd" d="M4.86221 5.58909C4.86221 5.60707 4.77229 5.63105 4.67787 5.63105C4.57896 5.63105 4.49353 5.60707 4.49353 5.58909C4.49353 5.5711 4.57896 5.61906 4.67337 5.61906C4.77678 5.61906 4.86221 5.5711 4.86221 5.58909Z" fill="#808080"/>
<path fill-rule="evenodd" clip-rule="evenodd" d="M4.17877 5.73895H4.36311V5.82887H4.18327L4.17877 5.73895Z" fill="#A7A7A7"/>
<path fill-rule="evenodd" clip-rule="evenodd" d="M4.77675 5.52315C4.75877 5.57111 4.74528 5.60108 4.74078 5.59509C4.74078 5.59509 4.74978 5.54713 4.76776 5.50516L4.80373 5.43323C4.80822 5.43922 4.79474 5.48119 4.77675 5.52315ZM4.82171 5.64304L4.78574 5.67302C4.79507 5.65216 4.80727 5.63385 4.82171 5.61906C4.84419 5.59509 4.86218 5.5831 4.86218 5.58909L4.82621 5.63705L4.82171 5.64304Z" fill="#808080"/>
<path fill-rule="evenodd" clip-rule="evenodd" d="M4.80374 5.58311L4.82623 5.65505L4.79026 5.5951L4.76778 5.52316L4.80374 5.58311ZM4.78576 5.77494C4.78576 5.77494 4.73181 5.78693 4.65987 5.78693C4.58793 5.78693 4.52949 5.78094 4.52949 5.77494L4.65987 5.76295C4.73181 5.76295 4.78576 5.76295 4.78576 5.77494ZM4.36313 5.75096C4.36313 5.75696 4.32267 5.76295 4.27321 5.76295C4.21926 5.76295 4.18329 5.76295 4.18329 5.75096C4.18329 5.75096 4.21926 5.73897 4.27321 5.73897C4.32267 5.73897 4.36313 5.74497 4.36313 5.75096Z" fill="#808080"/>
<path fill-rule="evenodd" clip-rule="evenodd" d="M3.9585 6.51828C3.9585 6.51828 3.98997 6.6142 4.12035 6.6142C4.24624 6.6142 4.2912 6.58423 4.24175 6.53627C4.19229 6.48831 4.08888 6.5003 4.10687 6.54226C4.11586 6.59022 4.0664 6.60221 4.05741 6.57224C4.04392 6.54226 3.99896 6.44635 4.07989 6.44035C4.16531 6.43436 4.34066 6.39839 4.38562 6.46433C4.43058 6.53027 4.33617 6.58423 4.4081 6.60221C4.47554 6.6142 4.48903 6.58423 4.61043 6.57823C4.73182 6.56624 4.78128 6.6082 4.82174 6.60221C4.8667 6.60221 4.85771 6.5003 4.82174 6.48232C4.79027 6.45234 4.72732 6.44635 4.70934 6.42237C4.69585 6.39239 4.65089 6.42237 4.65539 6.3864C4.65539 6.35643 4.71833 6.40438 4.71833 6.39239L4.72732 6.3804H4.71383L4.71833 6.36842L4.70934 6.37441L4.71383 6.36242C4.71383 6.36242 4.70035 6.37441 4.70035 6.36242H4.69135C4.70035 6.35043 4.69585 6.35043 4.69135 6.34444H4.67787V6.32645C4.66887 6.32645 4.66887 6.32645 4.66438 6.33844V6.30847C4.66438 6.30247 4.67337 6.29648 4.68686 6.29648C4.71833 6.29648 4.73182 6.34444 4.74531 6.34444C4.7543 6.34444 4.76779 6.29648 4.80825 6.31446L4.87569 6.35043C4.89817 6.36841 4.8622 6.3864 4.87569 6.41038C4.88918 6.43436 4.97011 6.51229 4.94763 6.60221C4.92515 6.68614 4.85771 6.69813 4.85771 6.7341C4.84872 6.77006 5.05104 6.75807 5.1005 6.77006C5.13489 6.77838 5.16551 6.80417 5.18592 6.842L5.096 6.84799C5.096 6.84799 5.05104 6.81802 4.93864 6.81203C4.82624 6.81203 4.78577 6.75208 4.74081 6.74009L4.56097 6.75208L4.42609 6.7341C4.39911 6.7281 4.23725 6.83001 4.23725 6.85399H4.12935C4.12935 6.85399 4.14283 6.80004 4.20578 6.79404C4.26423 6.78205 4.32717 6.74608 4.32268 6.7221L4.34066 6.56624C4.34066 6.53027 4.36764 6.50629 4.36314 6.4943C4.35865 6.47033 4.28671 6.45234 4.21927 6.45234C4.15183 6.45234 4.07989 6.45834 4.0664 6.47632C4.05741 6.5003 4.0664 6.56624 4.07989 6.55425C4.09338 6.55425 4.07539 6.50629 4.08888 6.5003C4.11802 6.48836 4.14832 6.4823 4.1788 6.48232C4.21477 6.48232 4.27322 6.52428 4.27322 6.54226C4.27322 6.54826 4.2912 6.59022 4.26423 6.60821C4.21935 6.62804 4.17203 6.63618 4.12485 6.63218C4.07787 6.62892 4.03193 6.61258 3.98997 6.58423C3.97198 6.56624 3.9585 6.52428 3.9585 6.51828Z" fill="#D0D0D0"/>
<path fill-rule="evenodd" clip-rule="evenodd" d="M4.66757 6.30619C4.66678 6.30725 4.66662 6.30803 4.66662 6.30847V6.32731C4.66708 6.3266 4.66759 6.32598 4.66818 6.32546C4.66944 6.32434 4.67083 6.32388 4.67235 6.32367C4.6738 6.32346 4.67559 6.32346 4.67774 6.32346L4.6801 6.32346V6.34145H4.69227L4.69293 6.34232C4.69367 6.34331 4.69437 6.34407 4.69508 6.34484C4.69537 6.34516 4.69566 6.34547 4.69596 6.34581C4.69686 6.34682 4.69803 6.34823 4.69853 6.35024C4.6991 6.35249 4.69866 6.35472 4.69772 6.3569C4.69737 6.35769 4.69694 6.35853 4.69641 6.35943H4.70258V6.36243C4.70258 6.36358 4.70275 6.36412 4.70284 6.36433C4.70291 6.36448 4.70298 6.36457 4.70315 6.36464C4.70368 6.36488 4.70476 6.3648 4.70637 6.36408C4.70787 6.36341 4.70942 6.36239 4.71062 6.36149C4.71122 6.36105 4.71172 6.36065 4.71206 6.36037L4.71245 6.36004L4.71255 6.35995L4.71258 6.35993M4.67561 6.32947C4.67447 6.32948 4.67357 6.32952 4.67282 6.32963C4.67168 6.32979 4.6711 6.33007 4.67067 6.33045C4.67023 6.33085 4.66973 6.33155 4.66903 6.33308C4.66831 6.33463 4.66752 6.33674 4.66638 6.33979L4.66212 6.33845V6.30847C4.66212 6.30592 4.66308 6.30371 4.66439 6.30195C4.66571 6.30019 4.66753 6.2987 4.66966 6.29748C4.67394 6.29503 4.67988 6.29349 4.68685 6.29349C4.70353 6.29349 4.71533 6.30624 4.72441 6.31834C4.72639 6.32099 4.7282 6.32354 4.7299 6.32593C4.73221 6.32918 4.73432 6.33216 4.73642 6.33475C4.74007 6.33924 4.74287 6.34145 4.7453 6.34145C4.7457 6.34145 4.74641 6.34116 4.7476 6.34C4.74875 6.33887 4.75006 6.33722 4.75165 6.33511C4.75214 6.33445 4.75265 6.33376 4.75319 6.33304C4.75602 6.32921 4.75946 6.32456 4.7636 6.32033C4.76856 6.31527 4.77463 6.31071 4.78214 6.30863C4.78967 6.30654 4.7985 6.30698 4.80895 6.31163L4.80908 6.31168L4.87685 6.34783L4.87684 6.34787C4.88282 6.35265 4.88552 6.35796 4.88552 6.36402C4.88552 6.36959 4.88316 6.37499 4.88097 6.37973C4.88071 6.38029 4.88046 6.38084 4.8802 6.38138C4.87815 6.3858 4.87622 6.38994 4.87532 6.39424C4.87436 6.39877 4.87457 6.40341 4.87748 6.40859C4.87906 6.41139 4.88169 6.41509 4.88516 6.4197C4.88692 6.42204 4.88882 6.42452 4.89086 6.42719C4.89288 6.42983 4.89505 6.43265 4.89736 6.4357C4.90651 6.44782 4.91728 6.46273 4.92693 6.47977C4.94618 6.51374 4.96135 6.55677 4.94975 6.60316L4.94974 6.60322C4.93825 6.64611 4.91527 6.67054 4.8955 6.68862C4.89262 6.69125 4.88982 6.69374 4.88714 6.69612C4.88056 6.70197 4.8747 6.70718 4.87004 6.71242C4.86348 6.71977 4.85995 6.7265 4.85995 6.7341V6.73459L4.85983 6.73505C4.8595 6.73636 4.85963 6.73743 4.86024 6.73857C4.86093 6.73988 4.86228 6.74132 4.86452 6.74279C4.86897 6.74573 4.87606 6.7482 4.88526 6.75025C4.90358 6.75434 4.92944 6.75658 4.95726 6.75808C4.97432 6.759 4.99204 6.75964 5.00915 6.76025C5.01995 6.76064 5.0305 6.76102 5.04049 6.76145C5.06623 6.76258 5.08833 6.76408 5.10089 6.76712C5.13585 6.77558 5.16699 6.8018 5.18774 6.84026L5.19015 6.84473L5.09551 6.85103M4.80747 6.31728C4.79772 6.31296 4.78971 6.31266 4.78306 6.3145C4.77638 6.31635 4.77092 6.32041 4.76633 6.32509C4.76246 6.32904 4.75927 6.33335 4.75644 6.33718C4.75589 6.33792 4.75535 6.33865 4.75482 6.33935C4.75325 6.34146 4.75171 6.34341 4.75025 6.34484C4.74882 6.34623 4.74715 6.34744 4.7453 6.34744C4.74098 6.34744 4.73703 6.34365 4.73337 6.33915C4.73122 6.3365 4.72888 6.33321 4.72644 6.32979C4.72475 6.3274 4.723 6.32494 4.72123 6.32258C4.71232 6.31071 4.70164 6.29948 4.68685 6.29948C4.68033 6.29948 4.67502 6.30094 4.67144 6.30299C4.66964 6.30401 4.66836 6.30514 4.66757 6.30619M4.06824 6.47812C4.06631 6.48354 4.06526 6.49145 4.06506 6.5004C4.06485 6.50952 4.06554 6.5194 4.06691 6.52817C4.06829 6.53702 4.07032 6.54441 4.07265 6.54877C4.07382 6.55096 4.0749 6.55209 4.0758 6.5525C4.07656 6.55286 4.07745 6.55282 4.07863 6.55177L4.0792 6.55126H4.07988C4.081 6.55126 4.08152 6.55081 4.08186 6.55027C4.08228 6.54959 4.08266 6.54836 4.08285 6.54631C4.08323 6.54217 4.08272 6.53642 4.08215 6.52991C4.08159 6.52364 4.08098 6.51669 4.08144 6.51095C4.08189 6.50522 4.08351 6.49953 4.08816 6.49746L4.08821 6.49744C4.11756 6.48542 4.14809 6.47931 4.17879 6.47932M4.06824 6.47812C4.06964 6.47637 4.07186 6.47461 4.07493 6.4729C4.07817 6.4711 4.08223 6.46943 4.08701 6.46791C4.09656 6.46486 4.10881 6.46244 4.12282 6.46058C4.15081 6.45684 4.18557 6.45535 4.21926 6.45535C4.25285 6.45535 4.28754 6.45983 4.31434 6.46727C4.32775 6.471 4.3391 6.47544 4.34732 6.48037C4.35143 6.48284 4.35467 6.48538 4.35699 6.48793C4.35933 6.49051 4.36055 6.4929 4.36095 6.49504L4.36101 6.49536L4.36112 6.49565C4.36167 6.49713 4.36146 6.49957 4.35956 6.50408C4.35825 6.50718 4.35643 6.51063 4.35434 6.51459C4.35351 6.51617 4.35263 6.51783 4.35172 6.51959C4.34554 6.53158 4.33846 6.54715 4.3384 6.56602L4.32038 6.72225L4.32049 6.72284C4.32087 6.72488 4.32059 6.72727 4.31938 6.73012C4.31815 6.73299 4.31605 6.73615 4.31307 6.73949C4.30712 6.74616 4.29806 6.75315 4.2869 6.75984C4.26464 6.7732 4.23453 6.78511 4.20552 6.79107C4.17359 6.79413 4.15401 6.80939 4.1424 6.8241C4.1366 6.83144 4.13282 6.83861 4.13048 6.84397C4.12931 6.84665 4.1285 6.84888 4.12798 6.85046C4.12772 6.85125 4.12753 6.85188 4.1274 6.85232L4.12726 6.85283L4.12722 6.85298L4.12721 6.85302M4.2724 6.53269C4.27417 6.53574 4.27546 6.53902 4.27546 6.54227C4.27546 6.54224 4.27546 6.54245 4.27558 6.54305C4.27569 6.54359 4.27585 6.54428 4.27606 6.54514C4.27628 6.54599 4.27653 6.54696 4.27682 6.54806C4.2771 6.54914 4.27741 6.55034 4.27773 6.55162C4.27901 6.55675 4.28048 6.56335 4.28106 6.57041C4.28165 6.57747 4.28138 6.58515 4.27907 6.59234C4.27674 6.5996 4.27241 6.6061 4.26522 6.61089L4.26493 6.61109C4.21979 6.63104 4.17218 6.6392 4.12471 6.63518C4.07742 6.63189 4.03118 6.61545 3.98894 6.58691L3.98859 6.58667L3.98861 6.58663C3.97924 6.57726 3.97118 6.56183 3.96551 6.54822C3.96266 6.54138 3.96037 6.5349 3.95879 6.52972C3.958 6.52714 3.95738 6.52485 3.95695 6.52299C3.95655 6.52124 3.95624 6.51954 3.95624 6.51829M4.2724 6.53269C4.27059 6.52957 4.26802 6.52629 4.26492 6.52298L4.2724 6.53269ZM4.26492 6.52298C4.25872 6.51634 4.25014 6.5093 4.24049 6.50287L4.26492 6.52298ZM4.24049 6.50287C4.22126 6.49005 4.19729 6.47933 4.17879 6.47932L4.24049 6.50287Z" fill="#808080"/>
<path fill-rule="evenodd" clip-rule="evenodd" d="M4.77673 6.36842C4.77673 6.37078 4.77638 6.37312 4.77571 6.3753C4.77503 6.37748 4.77403 6.37946 4.77278 6.38113C4.77153 6.3828 4.77004 6.38413 4.76841 6.38503C4.76677 6.38594 4.76502 6.3864 4.76324 6.3864C4.76147 6.3864 4.75972 6.38594 4.75808 6.38503C4.75645 6.38413 4.75496 6.3828 4.75371 6.38113C4.75245 6.37946 4.75146 6.37748 4.75078 6.3753C4.7501 6.37312 4.74976 6.37078 4.74976 6.36842C4.74976 6.36365 4.75118 6.35907 4.75371 6.3557C4.75624 6.35233 4.75967 6.35043 4.76324 6.35043C4.76682 6.35043 4.77025 6.35233 4.77278 6.3557C4.77531 6.35907 4.77673 6.36365 4.77673 6.36842Z" fill="black"/>
<path d="M5.47363 6.08664L5.54556 6.10463L5.66696 5.99672L5.65796 6.05667L5.59502 6.11062L5.55905 6.1346L5.58153 6.18256L5.622 6.26648L5.613 6.32643L5.53657 6.15258L5.46463 6.1346L5.47363 6.08664ZM5.35223 5.37926L5.48711 5.29534L5.45115 5.18743L5.46913 5.17544L5.55905 5.43921L5.54556 5.4512L5.5051 5.3373L5.37022 5.42722L5.35223 5.37926ZM5.13642 5.03157L5.26231 4.8757L5.28929 4.91167V5.17544L5.3882 5.05555L5.41068 5.09151L5.28479 5.24738L5.25781 5.21141V4.94764L5.1589 5.06753L5.13642 5.03157ZM4.57891 4.73183L4.60139 4.50403H4.63736L4.61488 4.71384L4.74976 4.73183V4.7618L4.57891 4.73183ZM4.30465 4.7678L4.27318 4.54L4.30915 4.52801L4.33612 4.73183L4.471 4.69586V4.72583L4.30465 4.7678ZM3.79659 5.09751L3.78311 5.07952L3.87303 4.98361L3.91799 5.04356C3.90833 5.06947 3.89625 5.09364 3.88202 5.11549C3.87035 5.13753 3.85677 5.15766 3.84156 5.17544C3.82257 5.19569 3.80133 5.21187 3.77861 5.2234C3.75613 5.22939 3.73365 5.23539 3.72016 5.2234C3.70296 5.22094 3.687 5.2103 3.6752 5.19342C3.6661 5.17582 3.66138 5.15485 3.66171 5.13348C3.66171 5.1095 3.66621 5.07952 3.6797 5.05555C3.68869 5.03157 3.70667 5.00759 3.72466 4.9896C3.73963 4.97268 3.75627 4.95856 3.77411 4.94764L3.81458 4.93565C3.82357 4.93565 3.83706 4.93565 3.84605 4.94764L3.82807 4.97761C3.81956 4.9728 3.81031 4.97074 3.80109 4.97162L3.77411 4.97761C3.76266 4.98567 3.75207 4.99575 3.74264 5.00759C3.72915 5.01958 3.71567 5.03157 3.71117 5.04955C3.70359 5.05999 3.6975 5.07218 3.69319 5.08552V5.11549C3.69319 5.13348 3.69768 5.15146 3.70667 5.16345L3.73815 5.19342L3.78311 5.18743C3.82448 5.16414 3.85806 5.1215 3.87752 5.06753L3.85954 5.03157L3.79659 5.09751ZM3.7921 6.75805L3.64822 6.89593L3.54032 6.69211L3.5583 6.67413L3.64822 6.83599L3.68869 6.79402L3.61675 6.65614L3.63024 6.64415L3.70667 6.78203L3.76962 6.72209L3.7921 6.75805ZM3.58078 6.45832C3.60326 6.45232 3.61675 6.43434 3.62574 6.40436V6.31444C3.61865 6.28349 3.60451 6.25626 3.58528 6.23651C3.57179 6.21853 3.54931 6.21253 3.53133 6.21853C3.5171 6.22267 3.50439 6.23326 3.49536 6.2485C3.49086 6.26049 3.48187 6.27847 3.48187 6.29646L3.48637 6.3624C3.49536 6.39837 3.50435 6.42235 3.52233 6.44633C3.53582 6.46431 3.5583 6.47031 3.58078 6.45832ZM3.59427 6.50627C3.5811 6.51187 3.56703 6.51259 3.55357 6.50837C3.54011 6.50415 3.52776 6.49514 3.51784 6.4823C3.49385 6.45349 3.47667 6.416 3.46838 6.37439C3.45939 6.33842 3.45939 6.31444 3.45939 6.27847C3.45939 6.24251 3.46838 6.23052 3.47737 6.21253C3.48761 6.19117 3.50378 6.17608 3.52233 6.17057C3.53742 6.16608 3.55318 6.16818 3.5673 6.17656C3.58528 6.18855 3.59877 6.20054 3.61226 6.22452C3.63987 6.27688 3.65262 6.34063 3.64822 6.40436C3.6466 6.42804 3.6404 6.45076 3.63024 6.47031C3.62125 6.48829 3.60776 6.50028 3.59427 6.50627ZM3.60776 6.03868H3.42792V5.87083L3.43691 5.79889L3.45489 5.75693C3.45854 5.75259 3.46282 5.74929 3.46746 5.74723C3.47209 5.74517 3.477 5.74439 3.48187 5.74494C3.49536 5.74494 3.50435 5.75094 3.51334 5.76892C3.51784 5.7869 3.52683 5.81088 3.52683 5.84685C3.53276 5.82155 3.54362 5.79879 3.5583 5.78091L3.60776 5.72096V5.78091L3.57179 5.82287L3.54482 5.85884C3.53946 5.8659 3.53491 5.87399 3.53133 5.88282C3.53057 5.89078 3.53057 5.89884 3.53133 5.9068V5.93078L3.52683 5.99073H3.60776V6.03868ZM3.50885 5.98473V5.88282C3.51037 5.86489 3.51037 5.84679 3.50885 5.82887C3.50725 5.82007 3.50417 5.81187 3.49985 5.80489C3.49663 5.79879 3.49182 5.79452 3.48637 5.7929C3.47737 5.7929 3.46838 5.79889 3.46389 5.81088L3.45489 5.87083V5.99073H3.51334L3.50885 5.98473ZM3.98993 4.97162V4.70185L4.02589 4.67188L4.21023 4.79178L4.17426 4.82175L4.12031 4.78578L4.02589 4.86371V4.94764L3.98993 4.97162ZM4.0214 4.83374L4.10233 4.77379L4.05737 4.73782C4.04343 4.72896 4.02991 4.71895 4.0169 4.70785L4.0214 4.75581V4.83374ZM4.85767 4.7618L5.0465 4.65989L5.07797 4.68987L5.06448 4.96562L5.03301 4.92966L5.03751 4.85172L4.94759 4.7618L4.88914 4.79178L4.85767 4.7618ZM4.96557 4.74981L5.042 4.82175V4.74981C5.04409 4.72961 5.04709 4.70959 5.051 4.68987C5.04141 4.70145 5.03085 4.71151 5.01952 4.71984L4.96557 4.74981ZM5.42867 5.60706L5.59952 5.55311L5.62649 5.71497L5.63548 5.7869L5.62649 5.82887C5.62419 5.83471 5.621 5.83986 5.61713 5.84399C5.61326 5.84811 5.6088 5.85113 5.60401 5.85285C5.59052 5.85285 5.57704 5.85285 5.56804 5.84086C5.55319 5.82078 5.54236 5.79604 5.53657 5.76892C5.53732 5.77889 5.53732 5.78893 5.53657 5.79889L5.51859 5.84685L5.48262 5.91879L5.47363 5.85884L5.5006 5.79889L5.51859 5.76293C5.52468 5.74826 5.52778 5.73173 5.52758 5.71497C5.5266 5.70485 5.5251 5.69484 5.52308 5.68499L5.51409 5.63104L5.43766 5.65502L5.42867 5.60706ZM5.53208 5.62505L5.55006 5.72696C5.55006 5.74494 5.55905 5.76293 5.56355 5.77492C5.56355 5.7869 5.57254 5.7929 5.57704 5.79889L5.59502 5.80489C5.59952 5.80489 5.60851 5.7929 5.60851 5.78091C5.61213 5.76122 5.61213 5.74065 5.60851 5.72096L5.58603 5.60706L5.53208 5.62505Z" fill="#D0D0D0"/>
</g>
<defs>
<clipPath id="clip0_10_2347">
<rect width="18" height="18" rx="2" fill="white"/>
</clipPath>
</defs>
</svg>
