<svg width="20" height="20" viewBox="0 0 20 20" fill="none" xmlns="http://www.w3.org/2000/svg">
<path d="M5.83333 12.381L7.05028 9.90008C7.66495 8.647 9.47154 8.7082 10 10C10.5285 11.2918 12.3351 11.353 12.9497 10.0999L14.1667 7.61905M10 17.5C6.87522 17.5 5.31283 17.5 4.21756 16.7042C3.86383 16.4472 3.55276 16.1362 3.29576 15.7824C2.5 14.6872 2.5 13.1248 2.5 10C2.5 6.87522 2.5 5.31283 3.29576 4.21756C3.55276 3.86383 3.86383 3.55276 4.21756 3.29576C5.31283 2.5 6.87522 2.5 10 2.5C13.1248 2.5 14.6872 2.5 15.7824 3.29576C16.1362 3.55276 16.4472 3.86383 16.7042 4.21756C17.5 5.31283 17.5 6.87522 17.5 10C17.5 13.1248 17.5 14.6872 16.7042 15.7824C16.4472 16.1362 16.1362 16.4472 15.7824 16.7042C14.6872 17.5 13.1248 17.5 10 17.5Z" stroke="#9AA3D9" stroke-width="1.5" stroke-linecap="round"/>
</svg>
