<svg width="16" height="18" viewBox="0 0 16 18" fill="none" xmlns="http://www.w3.org/2000/svg">
<path d="M15 5.75C15.4142 5.75 15.75 5.41421 15.75 5C15.75 4.58579 15.4142 4.25 15 4.25V5.75ZM2.78953 2.39785L2.26157 1.86516L2.26157 1.86516L2.78953 2.39785ZM4.72786 1.53269C5.02206 1.24111 5.02418 0.766238 4.73259 0.472041C4.44101 0.177844 3.96614 0.175726 3.67194 0.467309L4.72786 1.53269ZM13.4107 15.6022L13.9387 16.1348L13.4107 15.6022ZM11.4724 16.4673C11.1782 16.7589 11.1761 17.2338 11.4677 17.528C11.7592 17.8222 12.2341 17.8243 12.5283 17.5327L11.4724 16.4673ZM15.1844 13.2507L15.9284 13.3455V13.3455L15.1844 13.2507ZM1 12.25C0.585788 12.25 0.250001 12.5858 0.250001 13C0.250001 13.4142 0.585788 13.75 1 13.75V12.25ZM15.1902 13.2L14.4441 13.1243L15.1902 13.2ZM1.25133 5.75H15V4.25H1.25133V5.75ZM3.31749 2.93054L4.72786 1.53269L3.67194 0.467309L2.26157 1.86516L3.31749 2.93054ZM2.26157 1.86516C1.71172 2.41012 1.25352 2.86265 0.928594 3.26724C0.594168 3.68367 0.339795 4.12131 0.271833 4.6545L1.75979 4.84416C1.77842 4.698 1.84854 4.51728 2.09813 4.20649C2.35723 3.88386 2.74259 3.50033 3.31749 2.93054L2.26157 1.86516ZM12.8828 15.0695L11.4724 16.4673L12.5283 17.5327L13.9387 16.1348L12.8828 15.0695ZM13.9387 16.1348C14.4885 15.5899 14.9467 15.1373 15.2717 14.7328C15.6061 14.3163 15.8605 13.8787 15.9284 13.3455L14.4405 13.1558C14.4218 13.302 14.3517 13.4827 14.1021 13.7935C13.843 14.1161 13.4577 14.4997 12.8828 15.0695L13.9387 16.1348ZM14.4441 13.1243C14.443 13.1348 14.4418 13.1453 14.4405 13.1558L15.9284 13.3455C15.9314 13.3222 15.934 13.299 15.9364 13.2757L14.4441 13.1243ZM15 12.25H1V13.75H15V12.25ZM15.9364 13.2757C15.9975 12.6728 15.502 12.25 15 12.25L15 13.75C14.7193 13.75 14.4053 13.507 14.4441 13.1243L15.9364 13.2757ZM1.25133 4.25C1.49659 4.25 1.80762 4.46894 1.75979 4.84416L0.271833 4.6545C0.188905 5.30512 0.728466 5.75 1.25133 5.75V4.25Z" fill="#3586FF"/>
</svg>
