<svg width="22" height="22" viewBox="0 0 22 22" fill="none" xmlns="http://www.w3.org/2000/svg">
<path d="M9.79853 5.48489L9.08309 5.25985L9.79853 5.48489ZM7.85557 8.74555L8.30577 8.1457L7.85557 8.74555ZM8.31424 10.2038L9.02968 10.4288L8.31424 10.2038ZM10.2572 11.662L9.80701 11.0621L10.2572 11.662ZM11.7415 11.662L12.1917 11.0621L11.7415 11.662ZM13.6845 10.2038L12.969 10.4288L13.6845 10.2038ZM14.1431 8.74555L13.6929 8.1457L14.1431 8.74555ZM12.2002 5.48489L12.9156 5.25985L12.2002 5.48489ZM13.9052 19.841L13.4251 20.4171H13.4251L13.9052 19.841ZM13.0447 19.1237L13.5249 18.5476L13.5249 18.5476L13.0447 19.1237ZM8.954 19.1237L8.47381 18.5476H8.47381L8.954 19.1237ZM8.09345 19.841L8.57365 20.4171H8.57365L8.09345 19.841ZM16.499 13.1201L15.7491 13.1074L15.749 13.1146L15.749 13.1218L16.499 13.1201ZM16.4993 13.101L15.937 12.6047L16.4993 13.101ZM5.49972 13.1014L6.06198 12.6051L5.49972 13.1014ZM8.59772 7.13611C9.48554 7.13611 10.2507 6.54687 10.514 5.70992L9.08309 5.25985C9.00828 5.49768 8.80389 5.63611 8.59772 5.63611V7.13611ZM8.30577 8.1457C8.09941 7.99083 8.03801 7.7487 8.11234 7.51238C8.18614 7.27776 8.36325 7.13611 8.59772 7.13611V5.63611C6.59985 5.63611 5.88301 8.20285 7.40537 9.34541L8.30577 8.1457ZM9.02968 10.4288C9.29179 9.5955 9.00888 8.6734 8.30577 8.1457L7.40537 9.34541C7.58732 9.48196 7.67475 9.73726 7.5988 9.97873L9.02968 10.4288ZM9.80701 11.0621C9.6094 11.2104 9.39735 11.1929 9.22311 11.0621C9.04535 10.9287 8.94442 10.6999 9.02968 10.4288L7.5988 9.97873C7.30609 10.9093 7.68188 11.7809 8.32272 12.2618C8.96706 12.7454 9.91548 12.8562 10.7074 12.2618L9.80701 11.0621ZM12.1917 11.0621C11.4824 10.5298 10.5163 10.5298 9.80701 11.0621L10.7074 12.2618C10.8832 12.1299 11.1155 12.1299 11.2913 12.2618L12.1917 11.0621ZM12.969 10.4288C13.0543 10.6999 12.9533 10.9287 12.7756 11.0621C12.6013 11.1929 12.3893 11.2104 12.1917 11.0621L11.2913 12.2618C12.0832 12.8562 13.0316 12.7454 13.676 12.2618C14.3168 11.7809 14.6926 10.9093 14.3999 9.97873L12.969 10.4288ZM13.6929 8.1457C12.9898 8.6734 12.7069 9.5955 12.969 10.4288L14.3999 9.97873C14.3239 9.73726 14.4114 9.48196 14.5933 9.34541L13.6929 8.1457ZM13.401 7.13611C13.6354 7.13611 13.8126 7.27776 13.8864 7.51238C13.9607 7.7487 13.8993 7.99083 13.6929 8.1457L14.5933 9.34541C16.1157 8.20285 15.3989 5.63611 13.401 5.63611V7.13611ZM11.4847 5.70992C11.748 6.54687 12.5132 7.13611 13.401 7.13611V5.63611C13.1948 5.63611 12.9904 5.49768 12.9156 5.25985L11.4847 5.70992ZM12.9156 5.25985C12.3175 3.35826 9.68122 3.35826 9.08309 5.25985L10.514 5.70992C10.6718 5.20824 11.3269 5.20824 11.4847 5.70992L12.9156 5.25985ZM4.41602 8.25033C4.41602 4.61445 7.36347 1.66699 10.9993 1.66699V0.166992C6.53505 0.166992 2.91602 3.78602 2.91602 8.25033H4.41602ZM10.9993 1.66699C14.6352 1.66699 17.5827 4.61445 17.5827 8.25033H19.0827C19.0827 3.78602 15.4637 0.166992 10.9993 0.166992V1.66699ZM15.7493 13.5987V18.6808H17.2493V13.5987H15.7493ZM6.24935 18.6808V13.5987H4.74935V18.6808H6.24935ZM14.3854 19.2649L13.5249 18.5476L12.5645 19.6998L13.4251 20.4171L14.3854 19.2649ZM8.47381 18.5476L7.61325 19.2649L8.57365 20.4171L9.4342 19.6998L8.47381 18.5476ZM13.5249 18.5476C13.0516 18.1531 12.6444 17.8119 12.2793 17.5774C11.8962 17.3314 11.4871 17.1534 10.9993 17.1534V18.6534C11.0929 18.6534 11.2184 18.6788 11.4687 18.8396C11.737 19.0119 12.0618 19.2808 12.5645 19.6998L13.5249 18.5476ZM9.4342 19.6998C9.93691 19.2808 10.2617 19.0119 10.53 18.8396C10.7803 18.6788 10.9058 18.6534 10.9993 18.6534V17.1534C10.5116 17.1534 10.1025 17.3314 9.7194 17.5774C9.35435 17.8119 8.94711 18.1531 8.47381 18.5476L9.4342 19.6998ZM4.74935 18.6808C4.74935 19.3716 4.74731 19.9773 4.8147 20.4299C4.88076 20.8736 5.05297 21.4535 5.65054 21.7208L6.26296 20.3515C6.40312 20.4142 6.34664 20.5333 6.29835 20.209C6.25138 19.8936 6.24935 19.4239 6.24935 18.6808H4.74935ZM7.61325 19.2649C7.03421 19.7475 6.66346 20.0541 6.38332 20.2267C6.09221 20.4061 6.13222 20.293 6.26296 20.3515L5.65054 21.7208C6.23868 21.9838 6.78726 21.7397 7.17027 21.5037C7.56425 21.2609 8.03315 20.8676 8.57365 20.4171L7.61325 19.2649ZM15.7493 18.6808C15.7493 19.4239 15.7473 19.8936 15.7004 20.209C15.6521 20.5333 15.5956 20.4142 15.7357 20.3515L16.3482 21.7208C16.9457 21.4535 17.1179 20.8736 17.184 20.4299C17.2514 19.9773 17.2493 19.3716 17.2493 18.6808H15.7493ZM13.4251 20.4171C13.9655 20.8676 14.4345 21.2609 14.8284 21.5037C15.2114 21.7397 15.76 21.9838 16.3482 21.7208L15.7357 20.3515C15.8665 20.293 15.9065 20.4061 15.6154 20.2267C15.3352 20.0541 14.9645 19.7475 14.3854 19.2649L13.4251 20.4171ZM17.2493 13.5987C17.2493 13.4296 17.2493 13.2696 17.249 13.1185L15.749 13.1218C15.7493 13.2709 15.7493 13.4292 15.7493 13.5987H17.2493ZM17.5827 8.25033C17.5827 9.92045 16.9618 11.4437 15.937 12.6047L17.0617 13.5973C18.3189 12.1728 19.0827 10.2998 19.0827 8.25033H17.5827ZM15.937 12.6047C14.7296 13.9727 12.9655 14.8337 10.9993 14.8337V16.3337C13.4137 16.3337 15.5816 15.2742 17.0617 13.5973L15.937 12.6047ZM17.2489 13.1329L17.2492 13.1137L15.7495 13.0883L15.7491 13.1074L17.2489 13.1329ZM6.24935 13.5987C6.24935 13.4222 6.24935 13.2577 6.24971 13.1032L4.74972 13.0997C4.74935 13.2563 4.74935 13.4226 4.74935 13.5987H6.24935ZM10.9993 14.8337C9.03337 14.8337 7.26938 13.9728 6.06198 12.6051L4.93745 13.5978C6.4175 15.2744 8.58519 16.3337 10.9993 16.3337V14.8337ZM6.06198 12.6051C5.03708 11.444 4.41602 9.92063 4.41602 8.25033H2.91602C2.91602 10.3001 3.67992 12.1732 4.93745 13.5978L6.06198 12.6051Z" fill="white"/>
</svg>
