<svg width="18" height="18" viewBox="0 0 18 18" fill="none" xmlns="http://www.w3.org/2000/svg">
<path d="M9.44591 3.90615C9.30179 3.44795 8.69823 3.44795 8.5541 3.90615C8.34514 4.57049 7.7382 5.03724 7.03504 5.03724C6.81749 5.03724 6.65514 5.17103 6.58913 5.38088C6.52272 5.59201 6.57697 5.81382 6.76547 5.9553C7.32298 6.37371 7.54779 7.10543 7.33968 7.76705C7.26285 8.01131 7.3548 8.22047 7.51603 8.34147C7.67462 8.46049 7.87321 8.47801 8.05515 8.34147C8.61728 7.91958 9.38274 7.91958 9.94487 8.34147C10.1268 8.47801 10.3254 8.46049 10.484 8.34147C10.6452 8.22047 10.7372 8.01131 10.6603 7.76705C10.4522 7.10543 10.677 6.37371 11.2345 5.9553C11.423 5.81382 11.4773 5.59201 11.4109 5.38088C11.3449 5.17103 11.1825 5.03724 10.965 5.03724C10.2618 5.03724 9.65488 4.57049 9.44591 3.90615Z" fill="#8990AE"/>
<path fill-rule="evenodd" clip-rule="evenodd" d="M2.4375 6.75C2.4375 3.12563 5.37563 0.1875 9 0.1875C12.6244 0.1875 15.5625 3.12563 15.5625 6.75C15.5625 7.0703 15.5395 7.38537 15.4951 7.69361C15.4001 7.94598 15.2908 8.19131 15.1682 8.42865C14.1844 10.3336 12.3446 11.7234 10.1604 12.091C9.78341 12.1544 9.3958 12.1875 9.00003 12.1875C8.53726 12.1875 8.0856 12.1423 7.64907 12.0561C5.50986 11.6341 3.72192 10.2271 2.7798 8.32583C2.67809 8.12058 2.58624 7.90956 2.50488 7.69338C2.46048 7.3852 2.4375 7.07021 2.4375 6.75ZM7.48094 3.56859C7.95531 2.06047 10.0447 2.06047 10.5191 3.56859C10.5867 3.7836 10.7731 3.91224 10.965 3.91224C12.5468 3.91224 13.1191 5.94753 11.9098 6.85508C11.7432 6.98014 11.665 7.21175 11.7335 7.42949C11.9659 8.16839 11.6678 8.85959 11.1593 9.24125C10.6481 9.62488 9.89725 9.71233 9.26957 9.24125C9.10756 9.11966 8.89246 9.11966 8.73045 9.24125C8.10277 9.71233 7.3519 9.62488 6.84073 9.24125C6.3322 8.85959 6.03411 8.16839 6.26652 7.42949C6.33501 7.21175 6.25681 6.98014 6.09018 6.85508C4.88093 5.94752 5.45324 3.91224 7.03504 3.91224C7.22696 3.91224 7.41331 3.7836 7.48094 3.56859Z" fill="#8990AE"/>
<path d="M2.44772 9.94893C2.38123 10.0615 2.31119 10.1828 2.23577 10.3135L0.866284 12.6855C0.697182 12.9783 0.540821 13.2491 0.450672 13.4732C0.362372 13.6927 0.251168 14.0734 0.496914 14.4257C0.745772 14.7825 1.14524 14.8037 1.38198 14.7919C1.62168 14.78 1.92639 14.72 2.25371 14.6556L2.84716 14.5388C3.17616 14.4741 3.37136 14.4368 3.51618 14.4268C3.58233 14.4223 3.61784 14.4253 3.63532 14.4283C3.64335 14.4296 3.64808 14.4312 3.64808 14.4312L3.65029 14.4323L3.65228 14.4336C3.65228 14.4336 3.65603 14.437 3.66121 14.4432C3.67249 14.4569 3.6929 14.4861 3.72203 14.5457C3.78582 14.6761 3.85109 14.8638 3.95955 15.1811L4.15516 15.7533C4.26303 16.069 4.36345 16.3629 4.47298 16.5765C4.58116 16.7874 4.79921 17.1228 5.23264 17.1599C5.66065 17.1965 5.93471 16.9099 6.08067 16.7237C6.2297 16.5335 6.38599 16.2627 6.55501 15.9699L7.89696 13.6455C7.97684 13.5072 8.04986 13.3807 8.11568 13.2645C7.88458 13.2393 7.65631 13.2043 7.43133 13.1599C5.38584 12.7563 3.61955 11.5802 2.44772 9.94893Z" fill="#8990AE"/>
<path d="M15.436 10.1067C15.4701 10.1655 15.5052 10.2262 15.5414 10.2891L16.925 12.6856C17.0941 12.9783 17.2505 13.2491 17.3406 13.4732C17.4289 13.6927 17.5401 14.0734 17.2944 14.4257C17.0455 14.7825 16.646 14.8037 16.4093 14.7919C16.1696 14.78 15.8649 14.72 15.5376 14.6556L14.9441 14.5388C14.6151 14.4741 14.4199 14.4368 14.2751 14.4268C14.2089 14.4223 14.1734 14.4253 14.1559 14.4283C14.1479 14.4296 14.1432 14.4312 14.1432 14.4312L14.141 14.4323L14.1399 14.4329L14.139 14.4336C14.139 14.4336 14.1352 14.437 14.1301 14.4432C14.1188 14.4569 14.0984 14.4861 14.0692 14.5457C14.0054 14.6761 13.9402 14.8638 13.8317 15.1811L13.6361 15.7533C13.5282 16.069 13.4278 16.3629 13.3183 16.5765C13.2101 16.7874 12.9921 17.1228 12.5586 17.1599C12.1306 17.1965 11.8566 16.9099 11.7106 16.7237C11.5616 16.5335 11.4053 16.2627 11.2363 15.9699L9.89426 13.6455C9.81878 13.5147 9.74941 13.3946 9.68645 13.2837C9.90926 13.2649 10.1296 13.237 10.3471 13.2004C12.4192 12.8517 14.2218 11.7135 15.436 10.1067Z" fill="#8990AE"/>
</svg>
