<svg width="15" height="11" viewBox="0 0 15 11" fill="none" xmlns="http://www.w3.org/2000/svg">
<path d="M0.16 9L1.56 2H4.55C5.45 2 6.14333 2.19667 6.63 2.59C7.12333 2.98333 7.37 3.53 7.37 4.23C7.37 4.81667 7.22667 5.33 6.94 5.77C6.66 6.20333 6.26 6.54 5.74 6.78C5.22 7.02 4.60667 7.14 3.9 7.14H1.63L2.68 6.29L2.14 9H0.16ZM4.55 9L3.12 6.45H5.17L6.62 9H4.55ZM2.63 6.52L1.94 5.61H3.99C4.43 5.61 4.77 5.50667 5.01 5.3C5.25 5.09333 5.37 4.8 5.37 4.42C5.37 4.12667 5.27333 3.91 5.08 3.77C4.88667 3.63 4.61667 3.56 4.27 3.56H2.36L3.42 2.62L2.63 6.52ZM10.1723 9.14C9.77901 9.14 9.39568 9.10667 9.02234 9.04C8.65568 8.97333 8.32234 8.88333 8.02234 8.77C7.72234 8.65 7.46568 8.52 7.25234 8.38L8.04234 6.91C8.27568 7.05667 8.51901 7.18333 8.77234 7.29C9.03234 7.39 9.29568 7.46667 9.56234 7.52C9.83568 7.57333 10.1057 7.6 10.3723 7.6C10.6257 7.6 10.839 7.57667 11.0123 7.53C11.1923 7.47667 11.329 7.40333 11.4223 7.31C11.5223 7.21667 11.5723 7.10667 11.5723 6.98C11.5723 6.84 11.509 6.73 11.3823 6.65C11.2623 6.56333 11.099 6.49 10.8923 6.43C10.6923 6.37 10.4723 6.31 10.2323 6.25C9.99234 6.18333 9.74901 6.10667 9.50234 6.02C9.26234 5.92667 9.03901 5.81333 8.83234 5.68C8.63234 5.54 8.46901 5.36333 8.34234 5.15C8.22234 4.93667 8.16234 4.67333 8.16234 4.36C8.16234 3.85333 8.29901 3.41333 8.57234 3.04C8.85234 2.66667 9.24234 2.37667 9.74234 2.17C10.249 1.96333 10.8457 1.86 11.5323 1.86C12.0257 1.86 12.489 1.91333 12.9223 2.02C13.3623 2.12667 13.739 2.27667 14.0523 2.47L13.3223 3.93C13.049 3.75667 12.749 3.62667 12.4223 3.54C12.0957 3.44667 11.759 3.4 11.4123 3.4C11.139 3.4 10.909 3.43 10.7223 3.49C10.5357 3.55 10.3923 3.63333 10.2923 3.74C10.199 3.84 10.149 3.95333 10.1423 4.08C10.1423 4.21333 10.2023 4.32333 10.3223 4.41C10.449 4.49667 10.6123 4.57 10.8123 4.63C11.019 4.69 11.2423 4.75333 11.4823 4.82C11.7223 4.88 11.9623 4.95333 12.2023 5.04C12.449 5.12 12.6723 5.23 12.8723 5.37C13.079 5.50333 13.2423 5.67333 13.3623 5.88C13.489 6.08667 13.5523 6.34333 13.5523 6.65C13.5523 7.15 13.4123 7.58667 13.1323 7.96C12.859 8.33333 12.469 8.62333 11.9623 8.83C11.4557 9.03667 10.859 9.14 10.1723 9.14ZM9.37234 10.2L9.64234 8.84H10.8423L10.5723 10.2H9.37234ZM10.9723 2.22L11.2523 0.799999H12.4523L12.1623 2.22H10.9723Z" fill="white"/>
</svg>
