<svg width="16" height="18" viewBox="0 0 16 18" fill="none" xmlns="http://www.w3.org/2000/svg">
<path d="M5 6.75C5 7.16421 5.33579 7.5 5.75 7.5C6.16421 7.5 6.5 7.16421 6.5 6.75C6.5 6.33579 6.16421 6 5.75 6C5.33579 6 5 6.33579 5 6.75Z" fill="#8990AE"/>
<path d="M9.5 11.25C9.5 11.6642 9.83579 12 10.25 12C10.6642 12 11 11.6642 11 11.25C11 10.8358 10.6642 10.5 10.25 10.5C9.83579 10.5 9.5 10.8358 9.5 11.25Z" fill="#8990AE"/>
<path d="M5.2196 10.7197C4.92671 11.0126 4.92671 11.4875 5.2196 11.7804C5.5125 12.0733 5.98737 12.0733 6.28026 11.7804L5.2196 10.7197ZM10.5229 7.53776C10.8158 7.24487 10.8158 6.77 10.5229 6.4771C10.23 6.18421 9.75514 6.18421 9.46224 6.4771L10.5229 7.53776ZM1.26865 5.32848L1.93596 5.67081L1.26865 5.32848ZM1.4546 5.0064L2.08473 5.41315H2.08473L1.4546 5.0064ZM1.4546 12.9937L2.08473 12.587H2.08473L1.4546 12.9937ZM1.26865 12.6717L1.93596 12.3293L1.26865 12.6717ZM8.18589 16.6653L8.22308 17.4144L8.18589 16.6653ZM7.81398 16.6653L7.77679 17.4144L7.81398 16.6653ZM14.7312 12.6717L14.0639 12.3293L14.7312 12.6717ZM14.5453 12.9937L13.9151 12.587L14.5453 12.9937ZM14.5453 5.0064L13.9151 5.41315L14.5453 5.0064ZM14.7312 5.32848L14.0639 5.67081L14.7312 5.32848ZM8.18589 1.33481L8.22308 0.585736L8.18589 1.33481ZM7.81398 1.33481L7.77679 0.585736L7.81398 1.33481ZM6.28026 11.7804L10.5229 7.53776L9.46224 6.4771L5.2196 10.7197L6.28026 11.7804ZM1.60522 9.00007C1.60522 8.0317 1.60591 7.35415 1.65393 6.81682C1.70066 6.29379 1.78878 5.95772 1.93596 5.67081L0.601333 4.98615C0.335089 5.50515 0.2165 6.04964 0.159879 6.68332C0.104536 7.30269 0.105225 8.05799 0.105225 9.00007H1.60522ZM4.05258 2.16305C3.23671 2.6341 2.58225 3.01115 2.07354 3.36876C1.55307 3.73464 1.14082 4.10958 0.824476 4.59966L2.08473 5.41315C2.2596 5.14224 2.50658 4.89789 2.93617 4.5959C3.37752 4.28565 3.96394 3.94628 4.80258 3.46209L4.05258 2.16305ZM1.93596 5.67081C1.98126 5.58252 2.03091 5.49652 2.08473 5.41315L0.824476 4.59966C0.743749 4.72472 0.669276 4.85371 0.601333 4.98615L1.93596 5.67081ZM4.80258 14.5381C3.96394 14.0539 3.37752 13.7145 2.93617 13.4042C2.50658 13.1023 2.2596 12.8579 2.08473 12.587L0.824476 13.4005C1.14082 13.8906 1.55307 14.2655 2.07354 14.6314C2.58225 14.989 3.23671 15.3661 4.05258 15.8371L4.80258 14.5381ZM0.105225 9.00007C0.105225 9.94216 0.104536 10.6975 0.159879 11.3168C0.2165 11.9505 0.335089 12.495 0.601333 13.014L1.93596 12.3293C1.78878 12.0424 1.70066 11.7064 1.65393 11.1833C1.60591 10.646 1.60522 9.96845 1.60522 9.00007H0.105225ZM2.08473 12.587C2.03091 12.5036 1.98126 12.4176 1.93596 12.3293L0.601333 13.014C0.669276 13.1464 0.743748 13.2754 0.824476 13.4005L2.08473 12.587ZM11.1973 14.5381C10.3586 15.0222 9.77154 15.3604 9.28218 15.5875C8.80586 15.8085 8.47075 15.9003 8.1487 15.9163L8.22308 17.4144C8.80566 17.3855 9.3365 17.2159 9.91359 16.9481C10.4777 16.6864 11.1314 16.3081 11.9473 15.8371L11.1973 14.5381ZM4.05258 15.8371C4.86845 16.3081 5.52222 16.6864 6.08628 16.9481C6.66336 17.2159 7.1942 17.3855 7.77679 17.4144L7.85117 15.9163C7.52912 15.9003 7.19401 15.8085 6.71769 15.5875C6.22833 15.3604 5.64122 15.0222 4.80258 14.5381L4.05258 15.8371ZM8.1487 15.9163C8.04958 15.9212 7.95029 15.9212 7.85117 15.9163L7.77679 17.4144C7.92546 17.4218 8.07441 17.4218 8.22308 17.4144L8.1487 15.9163ZM14.3946 9.00007C14.3946 9.96845 14.394 10.646 14.3459 11.1833C14.2992 11.7064 14.2111 12.0424 14.0639 12.3293L15.3985 13.014C15.6648 12.495 15.7834 11.9505 15.84 11.3168C15.8953 10.6975 15.8946 9.94216 15.8946 9.00007H14.3946ZM11.9473 15.8371C12.7632 15.3661 13.4176 14.989 13.9263 14.6314C14.4468 14.2655 14.859 13.8906 15.1754 13.4005L13.9151 12.587C13.7403 12.8579 13.4933 13.1023 13.0637 13.4042C12.6224 13.7145 12.0359 14.0539 11.1973 14.5381L11.9473 15.8371ZM14.0639 12.3293C14.0186 12.4176 13.969 12.5036 13.9151 12.587L15.1754 13.4005C15.2561 13.2754 15.3306 13.1464 15.3985 13.014L14.0639 12.3293ZM11.1973 3.46209C12.0359 3.94628 12.6224 4.28565 13.0637 4.5959C13.4933 4.89789 13.7403 5.14224 13.9151 5.41315L15.1754 4.59966C14.859 4.10958 14.4468 3.73464 13.9263 3.36876C13.4176 3.01115 12.7632 2.6341 11.9473 2.16305L11.1973 3.46209ZM15.8946 9.00007C15.8946 8.05799 15.8953 7.30269 15.84 6.68332C15.7834 6.04964 15.6648 5.50515 15.3985 4.98615L14.0639 5.67081C14.2111 5.95772 14.2992 6.29379 14.3459 6.81682C14.394 7.35415 14.3946 8.0317 14.3946 9.00007H15.8946ZM13.9151 5.41315C13.969 5.49653 14.0186 5.58252 14.0639 5.67081L15.3985 4.98615C15.3306 4.85371 15.2561 4.72472 15.1754 4.59966L13.9151 5.41315ZM11.9473 2.16305C11.1314 1.69201 10.4777 1.31376 9.91359 1.05201C9.3365 0.784207 8.80566 0.614661 8.22308 0.585736L8.1487 2.08389C8.47075 2.09988 8.80586 2.1916 9.28218 2.41264C9.77154 2.63973 10.3586 2.9779 11.1973 3.46209L11.9473 2.16305ZM4.80258 3.46209C5.64122 2.9779 6.22833 2.63973 6.71769 2.41264C7.19401 2.1916 7.52912 2.09988 7.85117 2.08389L7.77679 0.585736C7.1942 0.614661 6.66336 0.784207 6.08628 1.05201C5.52222 1.31376 4.86845 1.69201 4.05258 2.16305L4.80258 3.46209ZM8.22308 0.585736C8.07441 0.578355 7.92546 0.578355 7.77679 0.585736L7.85117 2.08389C7.95029 2.07897 8.04958 2.07897 8.1487 2.08389L8.22308 0.585736Z" fill="#8990AE"/>
</svg>
