<svg width="8" height="6" viewBox="0 0 8 6" fill="none" xmlns="http://www.w3.org/2000/svg">
<path d="M7.68848 1.89597C7.88287 1.67532 7.88146 1.31917 7.68533 1.10048C7.48919 0.881794 7.17262 0.883383 6.97823 1.10403L5.81335 2.42626C5.3406 2.96288 5.01524 3.33098 4.73955 3.58005C4.47175 3.822 4.29974 3.90501 4.14569 3.9271C4.04896 3.94097 3.95108 3.94097 3.85435 3.9271C3.7003 3.90501 3.52829 3.822 3.26049 3.58006C2.98481 3.33098 2.65945 2.96288 2.18669 2.42626L1.02181 1.10403C0.827425 0.883384 0.510846 0.881795 0.314715 1.10048C0.118583 1.31917 0.117171 1.67532 0.31156 1.89597L1.49742 3.24202C1.94405 3.749 2.30908 4.16335 2.63433 4.45721C2.97254 4.76278 3.31584 4.98398 3.72791 5.04307C3.9086 5.06898 4.09144 5.06898 4.27213 5.04307C4.6842 4.98398 5.0275 4.76278 5.36571 4.45721C5.69096 4.16335 6.05599 3.749 6.50262 3.24202L7.68848 1.89597Z" fill="#8990AE"/>
</svg>
