<svg width="8" height="6" viewBox="0 0 8 6" fill="none" xmlns="http://www.w3.org/2000/svg">
<path d="M0.31152 4.10403C0.117131 4.32468 0.118543 4.68083 0.314674 4.89952C0.510806 5.11821 0.827385 5.11662 1.02177 4.89597L2.18665 3.57374C2.6594 3.03712 2.98476 2.66902 3.26045 2.41995C3.52825 2.178 3.70026 2.09499 3.85431 2.0729C3.95104 2.05903 4.04892 2.05903 4.14565 2.0729C4.2997 2.09499 4.47171 2.178 4.73951 2.41994C5.01519 2.66902 5.34055 3.03712 5.81331 3.57374L6.97819 4.89597C7.17257 5.11662 7.48915 5.11821 7.68529 4.89952C7.88142 4.68083 7.88283 4.32468 7.68844 4.10403L6.50258 2.75798C6.05595 2.251 5.69092 1.83665 5.36567 1.54279C5.02746 1.23722 4.68416 1.01602 4.27209 0.956931C4.0914 0.931022 3.90856 0.931023 3.72787 0.956931C3.3158 1.01602 2.9725 1.23722 2.63429 1.54279C2.30904 1.83665 1.94401 2.251 1.49738 2.75798L0.31152 4.10403Z" fill="#3586FF"/>
</svg>
