<svg width="26" height="28" viewBox="0 0 26 28" fill="none" xmlns="http://www.w3.org/2000/svg">
<path d="M12.7107 9.28918C12.8072 8.95878 13.1928 8.95878 13.2893 9.28918C13.5412 10.1516 14.2747 10.7619 15.1287 10.7619C15.212 10.7619 15.2653 10.7885 15.305 10.8227C15.3504 10.8617 15.3934 10.9254 15.418 11.0097C15.4678 11.18 15.4249 11.3373 15.2988 11.4393C14.6243 11.9845 14.3543 12.9354 14.6049 13.7936C14.6601 13.9824 14.5977 14.1327 14.4857 14.2231C14.4284 14.2695 14.3686 14.2896 14.3188 14.2913C14.2758 14.2927 14.2183 14.2819 14.1455 14.2231C13.4643 13.6725 12.5357 13.6725 11.8545 14.2231C11.7818 14.2819 11.7242 14.2927 11.6812 14.2913C11.6314 14.2896 11.5716 14.2695 11.5143 14.2231C11.4024 14.1327 11.34 13.9824 11.3951 13.7936C11.6458 12.9354 11.3757 11.9845 10.7012 11.4393C10.5751 11.3373 10.5323 11.18 10.582 11.0097C10.6066 10.9254 10.6497 10.8617 10.695 10.8227C10.7347 10.7885 10.7881 10.7619 10.8713 10.7619C11.7254 10.7619 12.4588 10.1516 12.7107 9.28918Z" fill="white"/>
<path fill-rule="evenodd" clip-rule="evenodd" d="M8.90855 1.78638C9.84836 1.45752 10.9763 1.45771 12.8248 1.45803H13.1755C15.0239 1.45771 16.1519 1.45752 17.0917 1.78638C18.9881 2.44995 20.4749 4.05112 21.0911 6.09339L21.1004 6.12471H21.417C25.4313 6.12471 27.1557 11.6105 23.9669 14.2365L23.9554 14.2461L21.289 16.2835C21.1895 16.3595 21.0866 16.4301 20.9807 16.4949C20.9692 16.5275 20.9574 16.56 20.9453 16.5924C20.6685 17.3328 20.1282 18.2212 19.6087 18.7903C18.7619 19.7178 17.8856 20.1291 16.4863 20.7858L16.3933 20.8295C15.7906 21.1125 15.1812 21.3692 14.6153 21.5564C14.3473 21.6451 14.0767 21.7225 13.8126 21.7787V24.7914H17.3335C17.7822 24.7914 18.146 25.1831 18.146 25.6664C18.146 26.1496 17.7822 26.5414 17.3335 26.5414H8.6668C8.21807 26.5414 7.8543 26.1496 7.8543 25.6664C7.8543 25.1831 8.21807 24.7914 8.6668 24.7914H12.1876V21.7787C11.9235 21.7225 11.653 21.6451 11.385 21.5564C10.8191 21.3692 10.2097 21.1125 9.60695 20.8295L9.51396 20.7858C8.11466 20.1291 7.23838 19.7178 6.39162 18.7903C5.87203 18.2212 5.33177 17.3328 5.055 16.5924C5.04252 16.5591 5.03038 16.5257 5.01855 16.4922C4.91488 16.4303 4.81437 16.3622 4.71752 16.2881L2.04503 14.2461L2.0335 14.2365C-1.15532 11.6105 0.569132 6.12471 4.58347 6.12471H4.89984L4.90918 6.09339C5.52535 4.05112 7.01215 2.44995 8.90855 1.78638ZM4.64012 7.87471H4.58347C2.12765 7.87471 1.0701 11.2245 3.00979 12.8375L4.62595 14.0724C4.60414 13.5098 4.60421 12.8809 4.60429 12.1517L4.6043 10.4018C4.60426 9.37602 4.60424 8.55734 4.64012 7.87471ZM21.3743 14.0725L22.9906 12.8375C24.9303 11.2245 23.8728 7.87471 21.417 7.87471H21.3601C21.396 8.55727 21.396 9.37607 21.396 10.4017L21.396 12.1528C21.3961 12.8816 21.3961 13.5101 21.3743 14.0725ZM14.8394 8.7641C14.2659 6.80047 11.7341 6.80047 11.1606 8.7641C11.1128 8.92757 10.9869 9.0119 10.8713 9.0119C8.94786 9.0119 8.27145 11.6635 9.72578 12.8389C9.83572 12.9278 9.89396 13.1008 9.84498 13.2685C9.5651 14.2267 9.92526 15.1268 10.5389 15.6228C11.1563 16.1218 12.0695 16.2374 12.8299 15.6228C12.9332 15.5393 13.0669 15.5393 13.1701 15.6228C13.9306 16.2374 14.8437 16.1218 15.4612 15.6228C16.0748 15.1268 16.4349 14.2267 16.1551 13.2685C16.1061 13.1008 16.1643 12.9278 16.2743 12.8389C17.7286 11.6635 17.0522 9.0119 15.1287 9.0119C15.0131 9.0119 14.8872 8.92757 14.8394 8.7641Z" fill="white"/>
</svg>
