<svg width="21" height="14" viewBox="0 0 21 14" fill="none" xmlns="http://www.w3.org/2000/svg">
<path d="M5.572 12.196C4.58267 12.196 3.71467 12.014 2.968 11.65C2.23067 11.286 1.65667 10.782 1.246 10.138C0.844667 9.48467 0.644 8.73333 0.644 7.884C0.644 7.03467 0.793333 6.25067 1.092 5.532C1.39067 4.81333 1.81533 4.19267 2.366 3.67C2.91667 3.138 3.57 2.72733 4.326 2.438C5.09133 2.14867 5.94067 2.004 6.874 2.004C7.854 2.004 8.69867 2.158 9.408 2.466C10.1267 2.774 10.7053 3.222 11.144 3.81L9.156 5.378C8.82933 4.97667 8.47467 4.69667 8.092 4.538C7.70933 4.37933 7.26133 4.3 6.748 4.3C6.244 4.3 5.78667 4.384 5.376 4.552C4.97467 4.72 4.62933 4.958 4.34 5.266C4.05067 5.574 3.82667 5.938 3.668 6.358C3.51867 6.76867 3.444 7.21667 3.444 7.702C3.444 8.14067 3.542 8.528 3.738 8.864C3.934 9.19067 4.21867 9.44733 4.592 9.634C4.96533 9.81133 5.418 9.9 5.95 9.9C6.37933 9.9 6.79 9.83 7.182 9.69C7.58333 9.55 7.98467 9.31667 8.386 8.99L9.436 11.02C8.932 11.3933 8.34867 11.6827 7.686 11.888C7.02333 12.0933 6.31867 12.196 5.572 12.196ZM7.07 10.586L7.812 6.89H10.262L9.436 11.02L7.07 10.586ZM14.6514 12.196C14.1008 12.196 13.5641 12.1493 13.0414 12.056C12.5281 11.9627 12.0614 11.8367 11.6414 11.678C11.2214 11.51 10.8621 11.328 10.5634 11.132L11.6694 9.074C11.9961 9.27933 12.3368 9.45667 12.6914 9.606C13.0554 9.746 13.4241 9.85333 13.7974 9.928C14.1801 10.0027 14.5581 10.04 14.9314 10.04C15.2861 10.04 15.5848 10.0073 15.8274 9.942C16.0794 9.86733 16.2708 9.76467 16.4014 9.634C16.5414 9.50333 16.6114 9.34933 16.6114 9.172C16.6114 8.976 16.5228 8.822 16.3454 8.71C16.1774 8.58867 15.9488 8.486 15.6594 8.402C15.3794 8.318 15.0714 8.234 14.7354 8.15C14.3994 8.05667 14.0588 7.94933 13.7134 7.828C13.3774 7.69733 13.0648 7.53867 12.7754 7.352C12.4954 7.156 12.2668 6.90867 12.0894 6.61C11.9214 6.31133 11.8374 5.94267 11.8374 5.504C11.8374 4.79467 12.0288 4.17867 12.4114 3.656C12.8034 3.13333 13.3494 2.72733 14.0494 2.438C14.7588 2.14867 15.5941 2.004 16.5554 2.004C17.2461 2.004 17.8948 2.07867 18.5014 2.228C19.1174 2.37733 19.6448 2.58733 20.0834 2.858L19.0614 4.902C18.6788 4.65933 18.2588 4.47733 17.8014 4.356C17.3441 4.22533 16.8728 4.16 16.3874 4.16C16.0048 4.16 15.6828 4.202 15.4214 4.286C15.1601 4.37 14.9594 4.48667 14.8194 4.636C14.6888 4.776 14.6188 4.93467 14.6094 5.112C14.6094 5.29867 14.6934 5.45267 14.8614 5.574C15.0388 5.69533 15.2674 5.798 15.5474 5.882C15.8368 5.966 16.1494 6.05467 16.4854 6.148C16.8214 6.232 17.1574 6.33467 17.4934 6.456C17.8388 6.568 18.1514 6.722 18.4314 6.918C18.7208 7.10467 18.9494 7.34267 19.1174 7.632C19.2948 7.92133 19.3834 8.28067 19.3834 8.71C19.3834 9.41 19.1874 10.0213 18.7954 10.544C18.4128 11.0667 17.8668 11.4727 17.1574 11.762C16.4481 12.0513 15.6128 12.196 14.6514 12.196ZM13.5314 13.68L13.9094 11.776H15.5894L15.2114 13.68H13.5314ZM15.7714 2.508L16.1634 0.519999H17.8434L17.4374 2.508H15.7714Z" fill="white"/>
</svg>
