<svg width="20" height="22" viewBox="0 0 20 22" fill="none" xmlns="http://www.w3.org/2000/svg">
<path fill-rule="evenodd" clip-rule="evenodd" d="M7 0.25C7.41421 0.25 7.75 0.585786 7.75 1V2.26061C8.41924 2.25 9.16284 2.25 9.98894 2.25H10.0111C10.8372 2.25 11.5808 2.25 12.25 2.26061V1C12.25 0.585786 12.5858 0.25 13 0.25C13.4142 0.25 13.75 0.585786 13.75 1V2.31358C15.2619 2.40837 16.4234 2.65335 17.3798 3.34815C17.8679 3.70281 18.2972 4.13209 18.6518 4.62023C19.2377 5.42656 19.5 6.37094 19.6263 7.53648C19.75 8.67861 19.75 10.1182 19.75 11.9547V12.0115C19.75 13.1713 19.75 14.1686 19.7206 15.0257C19.6564 16.8991 19.4537 18.2761 18.6518 19.3798C18.2972 19.8679 17.8679 20.2972 17.3798 20.6518C16.2761 21.4537 14.8991 21.6564 13.0257 21.7206C12.1684 21.75 11.171 21.75 10.0108 21.75H9.95473C8.1182 21.75 6.67861 21.75 5.53648 21.6263C4.37094 21.5 3.42656 21.2377 2.62024 20.6518C2.13209 20.2972 1.70281 19.8679 1.34815 19.3798C0.762324 18.5734 0.500006 17.6291 0.373728 16.4635C0.249985 15.3214 0.249992 13.8818 0.25 12.0452V11.9548C0.249992 10.1182 0.249985 8.67861 0.373728 7.53648C0.500006 6.37094 0.762324 5.42656 1.34815 4.62023C1.70281 4.13209 2.13209 3.70281 2.62024 3.34815C3.57655 2.65335 4.73808 2.40837 6.25 2.31358V1C6.25 0.585786 6.58579 0.25 7 0.25ZM6.25 3.81725C4.88795 3.91092 4.10177 4.12585 3.50191 4.56168C3.14111 4.82382 2.82382 5.14111 2.56168 5.50191C2.19259 6.00992 1.97745 6.66013 1.865 7.69804C1.75103 8.74999 1.75 10.1084 1.75 12C1.75 13.8916 1.75103 15.25 1.865 16.302C1.97745 17.3399 2.19259 17.9901 2.56168 18.4981C2.82382 18.8589 3.14111 19.1762 3.50191 19.4383C4.00992 19.8074 4.66013 20.0225 5.69805 20.135C6.74999 20.249 8.10843 20.25 10 20.25C10.8483 20.25 11.5918 20.2499 12.2518 20.2392C12.2562 19.7645 12.271 19.4151 12.3208 19.1005C12.7105 16.6401 14.6401 14.7105 17.1005 14.3208C17.4151 14.271 17.7645 14.2562 18.2392 14.2518C18.25 13.5918 18.25 12.8483 18.25 12C18.25 10.1084 18.249 8.74999 18.135 7.69804C18.0225 6.66013 17.8074 6.00992 17.4383 5.50191C17.1762 5.14111 16.8589 4.82382 16.4981 4.56168C15.8982 4.12585 15.1121 3.91092 13.75 3.81725V4C13.75 4.41421 13.4142 4.75 13 4.75C12.5858 4.75 12.25 4.41421 12.25 4V3.76079C11.5904 3.75005 10.8476 3.75 10 3.75C9.15243 3.75 8.40959 3.75005 7.75 3.76079V4C7.75 4.41421 7.41421 4.75 7 4.75C6.58579 4.75 6.25 4.41421 6.25 4V3.81725ZM18.1826 15.7528C17.7776 15.7575 17.5402 15.7699 17.3352 15.8023C15.5166 16.0904 14.0904 17.5166 13.8023 19.3352C13.7699 19.5402 13.7575 19.7776 13.7528 20.1826C15.1131 20.0888 15.8986 19.8738 16.4981 19.4383C16.8589 19.1762 17.1762 18.8589 17.4383 18.4981C17.8739 17.8986 18.0888 17.1131 18.1826 15.7528Z" fill="#A0ABDB"/>
<path d="M6 8C6 8.55228 5.55229 9 5 9C4.44772 9 4 8.55228 4 8C4 7.44772 4.44772 7 5 7C5.55229 7 6 7.44772 6 8Z" fill="#A0ABDB"/>
<path d="M6 12C6 12.5523 5.55229 13 5 13C4.44772 13 4 12.5523 4 12C4 11.4477 4.44772 11 5 11C5.55229 11 6 11.4477 6 12Z" fill="#A0ABDB"/>
<path d="M11 8C11 8.55228 10.5523 9 10 9C9.44772 9 9 8.55228 9 8C9 7.44772 9.44772 7 10 7C10.5523 7 11 7.44772 11 8Z" fill="#A0ABDB"/>
<path d="M11 12C11 12.5523 10.5523 13 10 13C9.44772 13 9 12.5523 9 12C9 11.4477 9.44772 11 10 11C10.5523 11 11 11.4477 11 12Z" fill="#A0ABDB"/>
<path d="M11 16C11 16.5523 10.5523 17 10 17C9.44772 17 9 16.5523 9 16C9 15.4477 9.44772 15 10 15C10.5523 15 11 15.4477 11 16Z" fill="#A0ABDB"/>
<path d="M16 8C16 8.55228 15.5523 9 15 9C14.4477 9 14 8.55228 14 8C14 7.44772 14.4477 7 15 7C15.5523 7 16 7.44772 16 8Z" fill="#A0ABDB"/>
<path d="M16 12C16 12.5523 15.5523 13 15 13C14.4477 13 14 12.5523 14 12C14 11.4477 14.4477 11 15 11C15.5523 11 16 11.4477 16 12Z" fill="#A0ABDB"/>
<path d="M6 16C6 16.5523 5.55229 17 5 17C4.44772 17 4 16.5523 4 16C4 15.4477 4.44772 15 5 15C5.55229 15 6 15.4477 6 16Z" fill="#A0ABDB"/>
</svg>
