<svg width="40" height="17" viewBox="0 0 40 17" fill="none" xmlns="http://www.w3.org/2000/svg">
<mask id="mask0_408_23558" style="mask-type:alpha" maskUnits="userSpaceOnUse" x="1" y="0" width="39" height="17">
<path d="M37.7829 5.49093C38.5185 5.41587 39.072 4.87805 39.0193 4.28966C38.9665 3.70127 38.3273 3.28514 37.5917 3.36019C36.8561 3.43525 36.3026 3.97308 36.3553 4.56146C36.4081 5.14985 37.0473 5.56599 37.7829 5.49093Z" fill="#145C86"/>
<path d="M37.6852 5.2297C38.4208 5.15464 38.9744 4.61682 38.9216 4.02843C38.8688 3.44004 38.2297 3.02391 37.4941 3.09896C36.7584 3.17402 36.2049 3.71184 36.2577 4.30023C36.3105 4.88862 36.9496 5.30475 37.6852 5.2297Z" fill="#E6E6E6"/>
<path d="M20.3391 11.247L20.2722 13.4588H14.3848V13.1734L18.8672 6.82335H16.5925C16.1911 6.82335 15.8566 6.8947 15.7228 6.96605C15.589 7.0374 15.4552 7.10875 15.3883 7.32279C15.2545 7.60819 15.1207 7.89358 15.1207 8.32168H14.8531V6.32391H20.4729V6.60931L15.9904 12.9594H18.3989C18.9341 12.9594 19.2686 12.888 19.4693 12.8167C19.6031 12.674 19.8038 12.5313 19.8707 12.3172C19.9376 12.1745 20.0045 11.8178 20.0714 11.247H20.3391ZM27.0293 6.32391V10.6762C27.0293 11.461 27.0293 11.9605 27.0962 12.1745C27.0962 12.3172 27.1631 12.4599 27.23 12.5313C27.3638 12.6026 27.4307 12.6026 27.5645 12.6026C27.6983 12.6026 27.8321 12.6026 28.0328 12.5313L28.1666 12.8167L26.1595 13.6728H25.825V12.1745C25.2229 12.8167 24.8215 13.2447 24.487 13.3874C24.2194 13.6015 23.8849 13.6728 23.5504 13.6728C23.2159 13.6728 22.8813 13.5301 22.6137 13.3161C22.2792 13.102 22.1454 12.8167 22.0116 12.4599C21.8778 12.0318 21.8778 11.5324 21.8778 10.8902V7.67954C21.8778 7.39414 21.8109 7.10875 21.744 7.0374C21.6771 6.8947 21.6102 6.752 21.4764 6.68065C21.3426 6.60931 21.075 6.60931 20.7405 6.60931V6.32391H23.082V11.1043C23.082 11.7464 23.1489 12.1745 23.4166 12.3886C23.6173 12.6026 23.8849 12.7453 24.1525 12.7453C24.3532 12.7453 24.6208 12.674 24.8884 12.5313C25.156 12.3886 25.4905 12.1032 25.825 11.6751V7.67954C25.825 7.25144 25.7581 6.96605 25.6243 6.82335C25.4905 6.68065 25.156 6.60931 24.7546 6.60931V6.32391H27.0293ZM30.4413 10.8189C29.973 10.6048 29.7054 10.3194 29.5047 9.9627C29.237 9.60596 29.1701 9.17786 29.1701 8.67842C29.1701 7.96493 29.3708 7.39414 29.9061 6.8947C30.3744 6.39526 31.0434 6.10986 31.7793 6.10986C32.4483 6.10986 32.9836 6.25256 33.4519 6.60931H34.8568C35.0575 6.60931 35.1913 6.60931 35.1913 6.60931C35.2582 6.68065 35.2582 6.68065 35.2582 6.68065C35.3251 6.752 35.3251 6.82335 35.3251 6.96605C35.3251 7.10875 35.3251 7.1801 35.3251 7.25144C35.2582 7.25144 35.2582 7.25144 35.1913 7.32279C35.1913 7.32279 35.0575 7.32279 34.8568 7.32279H33.9871C34.2547 7.67954 34.3885 8.17898 34.3885 8.74977C34.3885 9.39191 34.1878 9.9627 33.6526 10.4621C33.1843 10.8902 32.5822 11.1756 31.7793 11.1756C31.4448 11.1756 31.1103 11.1043 30.7758 10.9616C30.5751 11.1756 30.4413 11.3897 30.3075 11.5324C30.2406 11.6751 30.2406 11.8178 30.2406 11.8891C30.2406 11.9605 30.2406 12.0318 30.3075 12.1745C30.4413 12.2459 30.5751 12.3172 30.7758 12.3172C30.9765 12.3172 31.311 12.3886 31.8462 12.3886C32.8498 12.3886 33.4519 12.4599 33.7864 12.5313C34.2547 12.5313 34.5892 12.7453 34.8568 13.0307C35.1244 13.3161 35.2582 13.6728 35.2582 14.1009C35.2582 14.6717 34.9906 15.2425 34.5223 15.742C33.7195 16.5268 32.716 16.8835 31.5117 16.8835C30.5751 16.8835 29.7723 16.6695 29.1701 16.2414C28.7687 15.956 28.6349 15.6706 28.6349 15.3852C28.6349 15.3139 28.6349 15.1712 28.7018 15.0285C28.7687 14.8144 28.9694 14.6004 29.1701 14.2436C29.237 14.1723 29.5047 13.8869 29.973 13.3874C29.7054 13.2447 29.5047 13.102 29.4378 12.9594C29.3039 12.8167 29.237 12.674 29.237 12.5313C29.237 12.3172 29.3039 12.1032 29.4378 11.8891C29.5716 11.6037 29.9061 11.3183 30.4413 10.8189ZM31.6455 6.53796C31.311 6.53796 31.0434 6.68065 30.7758 6.96605C30.5082 7.25144 30.4413 7.75089 30.4413 8.39303C30.4413 9.17786 30.5751 9.82 30.9096 10.2481C31.1772 10.6048 31.4448 10.7475 31.8462 10.7475C32.2476 10.7475 32.5153 10.6048 32.7829 10.3194C32.9836 10.034 33.1174 9.60596 33.1174 8.96382C33.1174 8.10763 32.9836 7.46549 32.6491 7.0374C32.3814 6.68065 32.0469 6.53796 31.6455 6.53796ZM30.3744 13.4588C30.1068 13.7442 29.973 13.9582 29.8392 14.1723C29.7054 14.3863 29.6385 14.6004 29.6385 14.8144C29.6385 15.0998 29.7723 15.3139 30.1068 15.4566C30.5751 15.8133 31.2441 15.956 32.1807 15.956C33.0505 15.956 33.7195 15.8133 34.1209 15.4566C34.5223 15.0998 34.723 14.8144 34.723 14.3863C34.723 14.1009 34.5892 13.9582 34.3216 13.8155C34.1209 13.7442 33.5857 13.6728 32.8498 13.6015C31.7793 13.6015 30.9096 13.5301 30.3744 13.4588ZM38.4026 6.10986V11.8178C38.4026 12.3172 38.4026 12.6026 38.4695 12.7453C38.5364 12.888 38.6033 12.9594 38.7372 13.0307C38.871 13.102 39.0717 13.1734 39.4062 13.1734V13.4588H36.1949V13.1734C36.4625 13.1734 36.7301 13.102 36.797 13.102C36.9308 13.0307 36.9977 12.888 37.0646 12.7453C37.1315 12.6026 37.1984 12.3172 37.1984 11.8178V9.10651C37.1984 8.32168 37.1315 7.82224 37.1315 7.60819C37.0646 7.46549 37.0646 7.32279 36.9308 7.25144C36.8639 7.1801 36.797 7.1801 36.6632 7.1801C36.5294 7.1801 36.3287 7.1801 36.1949 7.25144L36.0611 6.96605L38.0681 6.10986H38.4026Z" fill="url(#paint0_linear_408_23558)"/>
<path fill-rule="evenodd" clip-rule="evenodd" d="M20.3391 11.247L20.2722 13.4588H14.3848V13.1734L18.8672 6.82335H16.5925C16.1911 6.82335 15.8566 6.8947 15.7228 6.96605C15.589 7.0374 15.4552 7.10875 15.3883 7.32279C15.2545 7.60819 15.1207 7.89358 15.1207 8.32168H14.8531V6.32391H20.4729V6.60931L15.9904 12.9594H18.3989C18.9341 12.9594 19.2686 12.888 19.4693 12.8167C19.6031 12.674 19.8038 12.5313 19.8707 12.3172C19.9376 12.1745 20.0045 11.8178 20.0714 11.247H20.3391ZM27.0293 6.32391V10.6762C27.0293 11.461 27.0293 11.9605 27.0962 12.1745C27.0962 12.3172 27.1631 12.4599 27.23 12.5313C27.3638 12.6026 27.4307 12.6026 27.5645 12.6026C27.6983 12.6026 27.8321 12.6026 28.0328 12.5313L28.1666 12.8167L26.1595 13.6728H25.825V12.1745C25.2229 12.8167 24.8215 13.2447 24.487 13.3874C24.2194 13.6015 23.8849 13.6728 23.5504 13.6728C23.2159 13.6728 22.8813 13.5301 22.6137 13.3161C22.2792 13.102 22.1454 12.8167 22.0116 12.4599C21.8778 12.0318 21.8778 11.5324 21.8778 10.8902V7.67954C21.8778 7.39414 21.8109 7.10875 21.744 7.0374C21.6771 6.8947 21.6102 6.752 21.4764 6.68065C21.3426 6.60931 21.075 6.60931 20.7405 6.60931V6.32391H23.082V11.1043C23.082 11.7464 23.1489 12.1745 23.4166 12.3886C23.6173 12.6026 23.8849 12.7453 24.1525 12.7453C24.3532 12.7453 24.6208 12.674 24.8884 12.5313C25.156 12.3886 25.4905 12.1032 25.825 11.6751V7.67954C25.825 7.25144 25.7581 6.96605 25.6243 6.82335C25.4905 6.68065 25.156 6.60931 24.7546 6.60931V6.32391H27.0293ZM31.6455 6.53796C31.311 6.53796 31.0434 6.68065 30.7758 6.96605C30.5082 7.25144 30.4413 7.75089 30.4413 8.39303C30.4413 9.17786 30.5751 9.82 30.9096 10.2481C31.1772 10.6048 31.4448 10.7475 31.8462 10.7475C32.2476 10.7475 32.5153 10.6048 32.7829 10.3194C32.9836 10.034 33.1174 9.60596 33.1174 8.96382C33.1174 8.10763 32.9836 7.46549 32.6491 7.0374C32.3814 6.68065 32.0469 6.53796 31.6455 6.53796ZM30.3744 13.4588C30.1068 13.7442 29.973 13.9582 29.8392 14.1723C29.7054 14.3863 29.6385 14.6004 29.6385 14.8144C29.6385 15.0998 29.7723 15.3139 30.1068 15.4566C30.5751 15.8133 31.2441 15.956 32.1807 15.956C33.0505 15.956 33.7195 15.8133 34.1209 15.4566C34.5223 15.0998 34.723 14.8144 34.723 14.3863C34.723 14.1009 34.5892 13.9582 34.3216 13.8155C34.1209 13.7442 33.5857 13.6728 32.8498 13.6015C31.7793 13.6015 30.9096 13.5301 30.3744 13.4588ZM38.4026 6.10986V11.8178C38.4026 12.3172 38.4026 12.6026 38.4695 12.7453C38.5364 12.888 38.6033 12.9594 38.7372 13.0307C38.871 13.102 39.0717 13.1734 39.4062 13.1734V13.4588H36.1949V13.1734C36.4625 13.1734 36.7301 13.102 36.797 13.102C36.9308 13.0307 36.9977 12.888 37.0646 12.7453C37.1315 12.6026 37.1984 12.3172 37.1984 11.8178V9.10651C37.1984 8.32168 37.1315 7.82224 37.1315 7.60819C37.0646 7.46549 37.0646 7.32279 36.9308 7.25144C36.8639 7.1801 36.797 7.1801 36.6632 7.1801C36.5294 7.1801 36.3287 7.1801 36.1949 7.25144L36.0611 6.96605L38.0681 6.10986H38.4026ZM20.2053 13.3874L20.2722 11.3183H20.1384C20.1384 11.6037 20.0714 11.7464 20.0714 11.9605C20.0045 12.1032 20.0045 12.2459 19.9376 12.3172C19.8707 12.4599 19.8038 12.5313 19.7369 12.674C19.67 12.7453 19.6031 12.8167 19.4693 12.8167C19.4024 12.888 19.2686 12.9594 19.0679 12.9594C18.8672 12.9594 18.6665 12.9594 18.3989 12.9594H15.9904C15.9235 12.9594 15.9235 12.888 15.9235 12.888L20.406 6.60931V6.39526H14.92V8.25033H15.0538C15.0538 8.03628 15.1207 7.89358 15.1207 7.75089C15.1876 7.60819 15.2545 7.39414 15.3214 7.32279C15.3214 7.1801 15.3883 7.10875 15.4552 7.0374C15.5221 6.96605 15.589 6.8947 15.6559 6.8947C15.7897 6.82335 15.8566 6.82335 16.0573 6.82335C16.1911 6.82335 16.3918 6.82335 16.5925 6.82335H18.8672C18.9341 6.82335 18.9341 6.8947 18.8672 6.8947L14.4517 13.1734V13.3874H20.2053ZM26.9624 10.6762V6.39526H24.8215V6.53796C25.0222 6.53796 25.156 6.60931 25.2898 6.60931C25.4905 6.68065 25.5574 6.752 25.6243 6.82335C25.825 6.96605 25.8919 7.25144 25.8919 7.67954V11.6751C25.8919 11.7464 25.8919 11.7464 25.8919 11.7464C25.6912 11.9605 25.4905 12.1032 25.3567 12.2459C25.2229 12.3886 25.0222 12.5313 24.8884 12.6026C24.7546 12.674 24.6208 12.674 24.487 12.7453C24.4201 12.7453 24.2863 12.8167 24.1525 12.8167C24.0187 12.8167 23.8849 12.7453 23.7511 12.674C23.5504 12.674 23.4835 12.6026 23.3497 12.4599C23.2159 12.3172 23.1489 12.1745 23.082 11.9605C23.0151 11.7464 23.0151 11.461 23.0151 11.1043V6.39526H20.8074V6.53796C20.9412 6.53796 21.075 6.53796 21.1419 6.53796C21.2757 6.60931 21.4095 6.60931 21.4764 6.68065C21.5433 6.68065 21.6102 6.752 21.6771 6.82335C21.744 6.82335 21.744 6.8947 21.8109 6.96605C21.8109 7.0374 21.8778 7.1801 21.8778 7.25144C21.8778 7.39414 21.9447 7.53684 21.9447 7.67954V10.8902C21.9447 11.247 21.9447 11.5324 21.9447 11.7464C22.0116 12.0318 22.0116 12.2459 22.0785 12.3886C22.1454 12.6026 22.2123 12.7453 22.2792 12.888C22.3461 13.0307 22.4799 13.1734 22.6137 13.2447C22.7475 13.3874 22.8813 13.4588 23.082 13.5301C23.2159 13.6015 23.3497 13.6015 23.5504 13.6015C23.7511 13.6015 23.8849 13.6015 24.0187 13.5301C24.2194 13.4588 24.3532 13.4588 24.487 13.3161C24.6208 13.2447 24.8215 13.102 25.0222 12.888C25.2229 12.7453 25.4905 12.4599 25.7581 12.1032H25.825C25.825 12.1032 25.8919 12.1032 25.8919 12.1745V13.6015H26.1595L28.0997 12.7453L28.0328 12.6026C27.9659 12.6026 27.8321 12.674 27.7652 12.674C27.6983 12.674 27.6314 12.674 27.5645 12.674C27.4976 12.674 27.4307 12.674 27.3638 12.674C27.2969 12.674 27.2969 12.6026 27.23 12.6026C27.1631 12.5313 27.1631 12.4599 27.0962 12.3886C27.0962 12.3172 27.0293 12.2459 27.0293 12.1745C27.0293 12.0318 26.9624 11.8891 26.9624 11.6037C26.9624 11.3897 26.9624 11.0329 26.9624 10.6762ZM29.9061 10.3908C30.0399 10.5335 30.2406 10.6762 30.4413 10.8189L29.9061 10.3908ZM29.5047 9.89135C29.6385 10.1054 29.7723 10.2481 29.9061 10.3908L29.5047 9.89135ZM29.3039 9.32056C29.3708 9.53461 29.4378 9.74865 29.5047 9.89135L29.3039 9.32056ZM29.237 8.67842C29.237 8.89247 29.237 9.10651 29.3039 9.32056L29.237 8.67842ZM29.3708 7.75089C29.237 8.03628 29.237 8.32168 29.237 8.67842L29.3708 7.75089ZM29.9061 6.96605C29.7054 7.1801 29.5047 7.46549 29.3708 7.75089L29.9061 6.96605ZM30.7758 6.39526C30.4413 6.46661 30.1737 6.68065 29.9061 6.96605L30.7758 6.39526ZM31.7793 6.18121C31.4448 6.18121 31.0434 6.25256 30.7758 6.39526L31.7793 6.18121ZM32.6491 6.32391C32.3814 6.25256 32.1138 6.18121 31.7793 6.18121L32.6491 6.32391ZM33.385 6.68065C33.1843 6.53796 32.9167 6.39526 32.6491 6.32391L33.385 6.68065ZM33.4519 6.68065C33.4519 6.68065 33.4519 6.68065 33.385 6.68065H33.4519ZM34.8568 6.68065H33.4519H34.8568ZM35.1244 6.68065C35.0575 6.68065 34.9906 6.68065 34.8568 6.68065H35.1244ZM35.1913 6.68065H35.1244H35.1913ZM35.2582 6.752C35.2582 6.752 35.2582 6.68065 35.1913 6.68065L35.2582 6.752ZM35.2582 6.82335C35.2582 6.752 35.2582 6.752 35.2582 6.752V6.82335ZM35.2582 6.96605C35.2582 6.8947 35.2582 6.82335 35.2582 6.82335V6.96605ZM35.2582 7.10875C35.2582 7.0374 35.2582 7.0374 35.2582 6.96605V7.10875ZM35.2582 7.1801C35.2582 7.1801 35.2582 7.1801 35.2582 7.10875V7.1801ZM35.1913 7.25144C35.1913 7.25144 35.1913 7.25144 35.2582 7.1801L35.1913 7.25144ZM35.1244 7.25144H35.1913H35.1244ZM34.8568 7.25144C34.9906 7.25144 35.0575 7.25144 35.1244 7.25144H34.8568ZM33.9871 7.25144H34.8568H33.9871ZM33.9202 7.32279C33.9202 7.25144 33.9202 7.25144 33.9871 7.25144L33.9202 7.32279ZM34.2547 7.96493C34.1878 7.75089 34.054 7.53684 33.9202 7.32279L34.2547 7.96493ZM34.3216 8.74977C34.3216 8.46437 34.3216 8.17898 34.2547 7.96493L34.3216 8.74977ZM34.1878 9.60596C34.2547 9.39191 34.3216 9.03517 34.3216 8.74977L34.1878 9.60596ZM33.6526 10.3908C33.8533 10.1767 34.054 9.89135 34.1878 9.60596L33.6526 10.3908ZM32.8498 10.8902C33.1174 10.8189 33.385 10.6048 33.6526 10.3908L32.8498 10.8902ZM31.7793 11.1043C32.1807 11.1043 32.5153 11.0329 32.8498 10.8902L31.7793 11.1043ZM31.311 11.0329C31.4448 11.1043 31.5786 11.1043 31.7793 11.1043L31.311 11.0329ZM30.7758 10.9616C30.9765 10.9616 31.1103 11.0329 31.311 11.0329L30.7758 10.9616ZM30.7089 10.9616C30.7089 10.9616 30.7758 10.8902 30.7758 10.9616H30.7089ZM30.4413 11.247C30.5082 11.1756 30.642 11.0329 30.7089 10.9616L30.4413 11.247ZM30.3075 11.461C30.3075 11.3897 30.3744 11.3183 30.4413 11.247L30.3075 11.461ZM30.1737 11.6751C30.2406 11.6037 30.2406 11.5324 30.3075 11.461L30.1737 11.6751ZM30.1737 11.8891C30.1737 11.8178 30.1737 11.7464 30.1737 11.6751V11.8891ZM30.1737 12.0318C30.1737 12.0318 30.1737 11.9605 30.1737 11.8891V12.0318ZM30.3075 12.1745C30.2406 12.1745 30.2406 12.1032 30.1737 12.0318L30.3075 12.1745ZM30.5082 12.3172C30.4413 12.3172 30.3744 12.2459 30.3075 12.1745L30.5082 12.3172ZM30.7758 12.3886C30.7089 12.3886 30.5751 12.3172 30.5082 12.3172L30.7758 12.3886ZM31.1772 12.3886C30.9765 12.3886 30.8427 12.3886 30.7758 12.3886H31.1772ZM31.8462 12.4599C31.5786 12.4599 31.3779 12.4599 31.1772 12.3886L31.8462 12.4599ZM33.0505 12.5313C32.716 12.4599 32.3145 12.4599 31.8462 12.4599L33.0505 12.5313ZM33.7864 12.5313C33.5857 12.5313 33.385 12.5313 33.0505 12.5313H33.7864ZM34.3885 12.7453C34.1878 12.674 33.9871 12.6026 33.7864 12.5313L34.3885 12.7453ZM34.7899 13.102C34.6561 12.9594 34.5223 12.8167 34.3885 12.7453L34.7899 13.102ZM35.1244 13.5301C35.0575 13.3874 34.9237 13.2447 34.7899 13.102L35.1244 13.5301ZM35.1913 14.1009C35.1913 13.8869 35.1913 13.7442 35.1244 13.5301L35.1913 14.1009ZM34.9906 14.9571C35.1244 14.6717 35.1913 14.3863 35.1913 14.1009L34.9906 14.9571ZM34.4554 15.742C34.723 15.4566 34.8568 15.1712 34.9906 14.9571L34.4554 15.742ZM33.1843 16.5268C33.6526 16.3841 34.054 16.0987 34.4554 15.742L33.1843 16.5268ZM31.5117 16.8122C32.1138 16.8122 32.6491 16.7408 33.1843 16.5268L31.5117 16.8122ZM30.2406 16.6695C30.642 16.7408 31.0434 16.8122 31.5117 16.8122L30.2406 16.6695ZM29.1701 16.17C29.5047 16.3841 29.8392 16.5268 30.2406 16.6695L29.1701 16.17ZM28.7687 15.8133C28.9025 15.8847 29.0363 16.0273 29.1701 16.17L28.7687 15.8133ZM28.7018 15.3852C28.7018 15.5279 28.7018 15.6706 28.7687 15.8133L28.7018 15.3852ZM28.7018 15.2425C28.7018 15.3139 28.7018 15.3139 28.7018 15.3852V15.2425ZM28.7687 15.0285C28.7018 15.0998 28.7018 15.1712 28.7018 15.2425L28.7687 15.0285ZM28.9025 14.7431C28.8356 14.8858 28.7687 14.9571 28.7687 15.0285L28.9025 14.7431ZM29.237 14.2436C29.1032 14.4577 29.0363 14.6004 28.9025 14.7431L29.237 14.2436ZM29.4378 14.0296C29.3039 14.1723 29.237 14.2436 29.237 14.2436L29.4378 14.0296ZM29.973 13.4588C29.7723 13.6728 29.5716 13.8869 29.4378 14.0296L29.973 13.4588ZM29.973 13.3161C30.0399 13.3874 30.0399 13.3874 29.973 13.4588V13.3161ZM29.6385 13.102C29.7723 13.1734 29.8392 13.2447 29.973 13.3161L29.6385 13.102ZM29.4378 12.888C29.5047 12.9594 29.5716 13.0307 29.6385 13.102L29.4378 12.888ZM29.3708 12.7453C29.3708 12.8167 29.4378 12.888 29.4378 12.888L29.3708 12.7453ZM29.3039 12.5313C29.3039 12.6026 29.3039 12.674 29.3708 12.7453L29.3039 12.5313ZM29.3708 12.2459C29.3039 12.3172 29.3039 12.4599 29.3039 12.5313L29.3708 12.2459ZM29.5047 11.8891C29.4378 12.0318 29.3708 12.1745 29.3708 12.2459L29.5047 11.8891ZM29.8392 11.461C29.7054 11.6751 29.5716 11.8178 29.5047 11.8891L29.8392 11.461ZM30.4413 10.8902C30.1737 11.1043 29.973 11.3183 29.8392 11.461L30.4413 10.8902ZM30.4413 10.8189C30.5082 10.8189 30.4413 10.8902 30.4413 10.8902V10.8189ZM31.1772 6.53796C31.311 6.46661 31.5117 6.46661 31.6455 6.46661C31.8462 6.46661 32.0469 6.46661 32.2476 6.60931C32.3814 6.68065 32.5153 6.82335 32.6491 6.96605C32.8498 7.1801 32.9836 7.46549 33.0505 7.82224C33.1174 8.17898 33.1843 8.53572 33.1843 8.96382C33.1843 9.24921 33.1843 9.53461 33.1174 9.74865C33.0505 10.034 32.9167 10.2481 32.8498 10.3908C32.716 10.5335 32.5822 10.6048 32.3814 10.7475C32.2476 10.8189 32.0469 10.8189 31.8462 10.8189C31.6455 10.8189 31.4448 10.8189 31.311 10.6762C31.1103 10.6048 30.9765 10.4621 30.8427 10.3194C30.7089 10.034 30.5751 9.82 30.5082 9.46326C30.3744 9.10651 30.3744 8.74977 30.3744 8.39303C30.3744 8.03628 30.3744 7.75089 30.4413 7.53684C30.5082 7.25144 30.5751 7.10875 30.7089 6.8947C30.8427 6.752 30.9765 6.60931 31.1772 6.53796ZM29.973 13.8155C30.1068 13.6728 30.1737 13.5301 30.3075 13.3874C30.3075 13.3874 30.3075 13.3874 30.3744 13.3874C30.642 13.4588 30.9765 13.4588 31.4448 13.5301C31.8462 13.5301 32.3145 13.5301 32.8498 13.5301C33.2512 13.6015 33.5188 13.6015 33.7864 13.6015C34.054 13.6728 34.2547 13.7442 34.3885 13.7442C34.5223 13.8155 34.5892 13.8869 34.6561 14.0296C34.723 14.1009 34.7899 14.2436 34.7899 14.3863C34.7899 14.6004 34.723 14.8144 34.5892 14.9571C34.5223 15.1712 34.3216 15.3139 34.1209 15.5279C33.9202 15.6706 33.6526 15.8133 33.3181 15.8847C32.9836 15.956 32.5822 16.0273 32.1807 16.0273C31.7124 16.0273 31.311 15.956 30.9765 15.8847C30.5751 15.8133 30.3075 15.6706 30.0399 15.5279C29.9061 15.4566 29.7723 15.3139 29.7054 15.1712C29.6385 15.0998 29.5716 14.9571 29.5716 14.8144C29.5716 14.7431 29.6385 14.6004 29.6385 14.529C29.6385 14.3863 29.7054 14.2436 29.7723 14.1723C29.8392 14.0296 29.9061 13.8869 29.973 13.8155ZM38.3357 11.8178V6.18121H38.0681L36.128 7.0374L36.1949 7.1801C36.2618 7.1801 36.3287 7.1801 36.3956 7.10875C36.5294 7.10875 36.5963 7.10875 36.6632 7.10875C36.7301 7.10875 36.797 7.10875 36.8639 7.10875C36.9308 7.1801 36.9308 7.1801 36.9977 7.25144C37.0646 7.25144 37.0646 7.32279 37.1315 7.39414C37.1315 7.46549 37.1315 7.53684 37.1984 7.60819C37.1984 7.67954 37.1984 7.89358 37.1984 8.17898C37.2653 8.39303 37.2653 8.74977 37.2653 9.10651V11.8178C37.2653 12.1032 37.2653 12.2459 37.1984 12.3886C37.1984 12.5313 37.1984 12.674 37.1315 12.7453C37.1315 12.8167 37.0646 12.888 36.9977 12.9594C36.9977 13.0307 36.9308 13.102 36.8639 13.102C36.797 13.1734 36.7301 13.1734 36.5963 13.1734C36.4625 13.2447 36.3956 13.2447 36.2618 13.2447V13.3874H39.3393V13.2447C39.2055 13.2447 39.0717 13.2447 39.0048 13.1734C38.871 13.1734 38.8041 13.1734 38.7372 13.102C38.6702 13.102 38.6033 13.0307 38.5364 12.9594C38.4695 12.888 38.4695 12.8167 38.4026 12.7453C38.4026 12.674 38.3357 12.5313 38.3357 12.3886C38.3357 12.2459 38.3357 12.1032 38.3357 11.8178Z" fill="#E6E6E6"/>
<path fill-rule="evenodd" clip-rule="evenodd" d="M5.62152 3.6127C5.55462 4.25484 5.48772 4.82563 5.42081 5.39642C5.35391 6.03856 5.35391 6.60935 5.28701 7.18014C5.62152 7.18014 6.02293 7.18014 6.35744 7.1088C6.75886 7.1088 7.09337 7.1088 7.49478 7.03745C8.03 7.03745 8.43141 6.89475 8.63212 6.75205C8.89973 6.46666 9.03353 6.03856 9.10043 5.46777C9.23424 5.46777 9.30114 5.39642 9.36804 5.39642C9.36804 6.03856 9.30114 6.6807 9.30114 7.25149C9.23424 7.89363 9.23424 8.46442 9.16734 9.10656C9.10043 9.10656 9.03353 9.10656 8.89973 9.10656C8.89973 8.60712 8.83282 8.25038 8.76592 8.10768C8.69902 7.96498 8.56522 7.82228 8.36451 7.75094C8.1638 7.60824 7.82929 7.60824 7.42788 7.60824C7.09337 7.60824 6.69196 7.60824 6.35744 7.67959C5.95603 7.67959 5.62152 7.67959 5.22011 7.67959C5.15321 8.17903 5.15321 8.67847 5.0863 9.17791C5.0194 9.67735 5.0194 10.1768 4.9525 10.6762C4.8856 11.1043 4.8856 11.3184 4.9525 11.3897C4.9525 11.5324 5.0194 11.6038 5.15321 11.6751C5.22011 11.6751 5.42081 11.7465 5.68842 11.8178C6.29054 11.8892 6.89266 11.9605 7.42788 12.0319C8.03 12.1032 8.43141 12.1032 8.69902 12.0319C8.96663 12.0319 9.23424 11.8892 9.50185 11.6751C9.83636 11.3897 10.1709 10.8903 10.5054 10.2481C10.6392 10.2481 10.7061 10.2481 10.8399 10.2481C10.6392 10.6762 10.5054 11.1757 10.3047 11.6038C10.1709 12.0319 9.97016 12.46 9.83636 12.9594C8.49831 12.7454 7.16027 12.5313 5.82223 12.3173C4.55109 12.1032 3.21304 11.9605 1.875 11.7465C1.875 11.6751 1.875 11.6038 1.875 11.5324C2.0088 11.5324 2.14261 11.5324 2.27641 11.6038C2.47712 11.6038 2.74473 11.6038 2.94543 11.5324C3.14614 11.4611 3.27995 11.3897 3.34685 11.247C3.41375 11.1757 3.48065 10.8903 3.48065 10.4622C3.61446 9.53466 3.68136 8.60712 3.81516 7.67959C3.88206 6.75205 4.01587 5.89587 4.08277 4.96833C4.14967 4.39754 4.14967 4.11214 4.01587 3.96945C3.88206 3.8981 3.61446 3.82675 3.21304 3.96945C3.07924 3.96945 2.94543 4.0408 2.87853 4.0408C2.87853 3.96945 2.87853 3.8981 2.87853 3.82675C4.14967 3.54135 5.35391 3.18461 6.62505 2.89921C7.82929 2.61382 9.10043 2.25708 10.3716 1.97168C10.3716 2.75652 10.3716 3.54135 10.3716 4.39754C10.2378 4.39754 10.1709 4.39754 10.0371 4.39754C9.97016 3.82675 9.90326 3.47001 9.76945 3.32731C9.70255 3.11326 9.50185 2.97056 9.30114 2.89921C9.10043 2.89921 8.76592 2.89921 8.23071 3.04191C7.82929 3.11326 7.36098 3.25596 6.95956 3.32731C6.49125 3.39866 6.02293 3.54135 5.62152 3.6127Z" fill="#145C86"/>
<path fill-rule="evenodd" clip-rule="evenodd" d="M5.42035 3.47012C5.35345 4.04092 5.28654 4.61171 5.21964 5.25385C5.15274 5.82464 5.15274 6.39543 5.08584 7.03757C5.42035 6.96622 5.82176 6.96622 6.15627 6.96622C6.55769 6.89487 6.8922 6.89487 7.29361 6.89487C7.82883 6.82352 8.23024 6.75217 8.43095 6.53812C8.69855 6.32408 8.83236 5.89599 8.89926 5.25385C9.03307 5.25385 9.09997 5.25385 9.16687 5.25385C9.16687 5.82464 9.09997 6.46678 9.09997 7.10891C9.03307 7.67971 9.03307 8.32185 8.96616 8.96398C8.89926 8.96398 8.83236 8.96398 8.69855 8.89264C8.69855 8.39319 8.63165 8.1078 8.56475 7.9651C8.49785 7.75105 8.36404 7.60836 8.16334 7.53701C7.96263 7.46566 7.62812 7.39431 7.22671 7.39431C6.8922 7.46566 6.49078 7.46566 6.15627 7.46566C5.75486 7.46566 5.42035 7.46566 5.01894 7.53701C4.95203 8.03645 4.95203 8.53589 4.88513 9.03533C4.81823 9.46343 4.81823 9.96287 4.75133 10.4623C4.68443 10.8904 4.68443 11.1044 4.75133 11.2471C4.75133 11.3185 4.81823 11.3898 4.95203 11.4612C5.01894 11.5325 5.21964 11.6039 5.48725 11.6039C6.08937 11.6752 6.69149 11.7466 7.22671 11.8179C7.82883 11.8893 8.23024 11.9606 8.49785 11.8893C8.76546 11.8179 9.03307 11.6752 9.30067 11.4612C9.63519 11.1758 9.9697 10.6764 10.3042 10.0342C10.438 10.0342 10.5718 10.0342 10.6387 10.0342C10.5049 10.5337 10.3042 10.9618 10.1704 11.3898C9.9697 11.8893 9.83589 12.3174 9.63519 12.7455C8.29714 12.5314 6.9591 12.3174 5.62106 12.1747C4.34991 11.9606 3.01187 11.7466 1.67383 11.5325C1.67383 11.4612 1.67383 11.3898 1.67383 11.3185C1.80763 11.3898 1.94144 11.3898 2.07524 11.3898C2.27595 11.3898 2.54356 11.3898 2.74426 11.3185C2.94497 11.3185 3.07877 11.2471 3.14568 11.1044C3.21258 10.9618 3.27948 10.6764 3.27948 10.2483C3.41328 9.39208 3.48019 8.46454 3.61399 7.53701C3.68089 6.60947 3.8147 5.68194 3.8816 4.7544C3.9485 4.25496 3.9485 3.89822 3.8147 3.82687C3.68089 3.68417 3.41328 3.68417 3.01187 3.75552C2.87807 3.82687 2.74426 3.82687 2.67736 3.82687C2.67736 3.75552 2.67736 3.68417 2.67736 3.61282C3.9485 3.32743 5.15274 3.04203 6.42388 2.68529C7.69502 2.39989 8.89926 2.1145 10.1704 1.8291C10.1704 2.61394 10.1704 3.39878 10.1704 4.18361C10.0366 4.18361 9.9697 4.25496 9.83589 4.25496C9.76899 3.68417 9.70209 3.32743 9.56828 3.11338C9.50138 2.89933 9.30067 2.82799 9.09997 2.75664C8.89926 2.68529 8.56475 2.75664 8.09644 2.82799C7.62812 2.97068 7.15981 3.04203 6.75839 3.11338C6.29008 3.25608 5.82176 3.32743 5.42035 3.47012Z" fill="white"/>
<path fill-rule="evenodd" clip-rule="evenodd" d="M11.4414 14.5292L11.7759 0.116699L12.9802 1.97177L12.8464 13.673L11.4414 14.5292Z" fill="url(#paint1_linear_408_23558)"/>
</mask>
<g mask="url(#mask0_408_23558)">
<rect x="-0.414062" y="0.109375" width="39.8202" height="17.1237" fill="#8990AE"/>
</g>
<defs>
<linearGradient id="paint0_linear_408_23558" x1="26.8956" y1="16.8893" x2="26.8956" y2="6.12351" gradientUnits="userSpaceOnUse">
<stop stop-color="#58595B"/>
<stop offset="0.501961" stop-color="#B3B5B7"/>
<stop offset="1" stop-color="#595A5C"/>
</linearGradient>
<linearGradient id="paint1_linear_408_23558" x1="12.7861" y1="13.9597" x2="11.4601" y2="0.696918" gradientUnits="userSpaceOnUse">
<stop stop-color="#00619E"/>
<stop offset="0.188235" stop-color="#0B8ACD"/>
<stop offset="0.521569" stop-color="#61D6FB"/>
<stop offset="1" stop-color="#C7E0F4"/>
</linearGradient>
</defs>
</svg>
