<svg width="51" height="21" viewBox="0 0 51 21" fill="none" xmlns="http://www.w3.org/2000/svg">
<path fill-rule="evenodd" clip-rule="evenodd" d="M18.5482 16.5882C18.5482 16.5882 15.785 20.3835 9.58856 20.3835C4.48072 20.3835 0.628906 17.6952 0.628906 16.1138C0.628906 14.2953 4.48072 13.2674 4.48072 10.5H11.0958C11.0958 12.1604 5.31807 13.0302 5.31807 16.5882C5.31807 19.83 14.2777 19.5928 18.5482 16.5882Z" fill="#8990AE"/>
<path fill-rule="evenodd" clip-rule="evenodd" d="M0.712641 4.33301C0.628906 4.57021 0.628906 4.72835 0.628906 4.88648C0.628906 6.70505 4.48072 7.65386 4.48072 10.5003C4.48072 13.2677 0.628906 14.2956 0.628906 16.1141C0.628906 16.2723 0.628906 16.4304 0.712641 16.5885C0.210231 14.8491 6.90904 13.3468 10.0072 11.7654C10.6771 11.3701 11.0958 10.9747 11.0958 10.5003C11.0958 10.0259 10.6771 9.63056 10.0072 9.23522C6.90904 7.65386 0.210231 6.15157 0.712641 4.33301Z" fill="#8990AE"/>
<path d="M15.701 11.2116H16.3709C16.2872 11.5279 16.1197 11.7651 15.7847 11.9232C15.5335 12.0813 15.1986 12.2395 14.6962 12.2395C14.1938 12.2395 13.7751 12.0813 13.5239 11.7651C13.189 11.5279 13.0215 11.1325 13.0215 10.579C13.0215 10.1046 13.189 9.70929 13.5239 9.39302C13.7751 9.15581 14.1938 8.99768 14.6962 8.99768C15.2823 8.99768 15.701 9.15581 16.0359 9.39302C16.2872 9.70929 16.4546 10.1046 16.4546 10.579C16.4546 10.6581 16.4546 10.6581 16.4546 10.6581C16.4546 10.7372 16.4546 10.7372 16.4546 10.7372C16.4546 10.8162 16.4546 10.8162 16.4546 10.8162H14.0263C14.0263 11.0534 14.11 11.2116 14.2775 11.3697C14.3612 11.4488 14.5287 11.5279 14.7799 11.5279C14.9474 11.5279 15.0311 11.5279 15.1986 11.4488C15.1986 11.4488 15.1986 11.4488 15.2823 11.4488C15.2823 11.3697 15.2823 11.3697 15.3661 11.3697C15.3661 11.2906 15.3661 11.2906 15.4498 11.2906C15.5335 11.2116 15.6173 11.2116 15.701 11.2116ZM14.0263 10.2628H15.4498C15.4498 10.1046 15.3661 9.94649 15.2823 9.86743C15.1149 9.70929 14.9474 9.70929 14.7799 9.70929C14.5287 9.70929 14.3612 9.70929 14.2775 9.86743C14.11 9.94649 14.0263 10.1046 14.0263 10.2628ZM20.5576 12.1604H20.0552C19.9715 12.1604 19.804 12.0813 19.7203 12.0023C19.6366 12.0023 19.6366 11.8441 19.6366 11.7651V10.1837C19.6366 10.0256 19.5528 9.86743 19.3854 9.78836C19.3016 9.70929 19.1341 9.63022 18.9667 9.63022C18.7992 9.63022 18.6317 9.70929 18.548 9.78836C18.3805 9.86743 18.3805 10.0256 18.3805 10.1837V12.1604H17.3757V10.3418C17.3757 9.78836 17.5432 9.47209 17.8781 9.31395C18.2131 9.07675 18.548 8.99768 18.9667 8.99768C19.3854 8.99768 19.7203 9.07675 20.0552 9.23488C20.3902 9.47209 20.5576 9.78836 20.5576 10.3418V12.1604ZM23.907 8.12793H24.4095C24.5769 8.12793 24.6607 8.207 24.7444 8.28607C24.8281 8.36513 24.9119 8.4442 24.9119 8.52327V10.8162C24.9119 11.3697 24.6607 11.7651 24.3257 11.9232C23.907 12.0813 23.5721 12.2395 23.0697 12.2395C22.8185 12.2395 22.651 12.1604 22.3998 12.0813C22.1486 12.0813 21.9811 11.9232 21.8137 11.7651C21.5625 11.5279 21.4787 11.1325 21.4787 10.6581C21.4787 10.1046 21.5625 9.70929 21.8137 9.47209C22.1486 9.15581 22.4836 8.99768 22.9022 8.99768C23.1534 8.99768 23.3209 9.07675 23.4884 9.15581C23.6558 9.23488 23.8233 9.31395 23.907 9.47209V8.12793ZM22.3998 10.579C22.3998 10.8953 22.4836 11.1325 22.5673 11.2906C22.7348 11.4488 22.9022 11.5279 23.1534 11.5279C23.4046 11.5279 23.6558 11.4488 23.7396 11.2906C23.907 11.1325 23.907 10.8953 23.907 10.579C23.907 10.3418 23.907 10.1046 23.7396 9.94649C23.5721 9.78836 23.4046 9.70929 23.1534 9.70929C22.9022 9.70929 22.7348 9.78836 22.5673 9.94649C22.4836 10.1046 22.3998 10.3418 22.3998 10.579ZM26.3354 11.8441C26.0842 11.7651 26.0004 11.5279 25.9167 11.2906C25.833 11.0534 25.7492 10.8162 25.7492 10.579C25.7492 10.3418 25.833 10.1837 25.833 9.94649C25.9167 9.70929 26.0004 9.55115 26.1679 9.39302C26.4191 9.23488 26.754 9.07675 27.089 8.99768C27.5077 8.99768 27.8426 8.99768 28.0938 9.07675C28.5125 9.23488 28.7637 9.39302 28.9312 9.70929C29.0986 9.94649 29.0986 10.2628 29.0986 10.579C29.0986 10.8162 29.0986 11.0534 29.0149 11.2116C29.0149 11.3697 28.9312 11.5279 28.7637 11.686C28.5962 11.9232 28.2613 12.0813 27.9263 12.1604C27.6751 12.2395 27.3402 12.2395 27.0052 12.1604C26.754 12.0813 26.5028 12.0023 26.3354 11.8441ZM26.9215 9.86743C26.754 10.0256 26.6703 10.2628 26.6703 10.6581C26.754 10.9744 26.754 11.2116 26.9215 11.3697C27.0052 11.4488 27.089 11.4488 27.2565 11.5279C27.3402 11.5279 27.5077 11.5279 27.6751 11.5279C27.7589 11.5279 27.9263 11.4488 28.0101 11.2906C28.0938 11.1325 28.1775 10.8953 28.1775 10.579C28.1775 10.3418 28.1775 10.1046 28.0101 9.94649C27.9263 9.86743 27.8426 9.70929 27.6751 9.70929C27.5077 9.63022 27.4239 9.63022 27.2565 9.70929C27.089 9.70929 27.0052 9.78836 26.9215 9.86743ZM30.1034 12.1604V10.6581C30.1034 10.3418 30.1034 10.1046 30.2709 9.86743C30.3546 9.70929 30.5221 9.55115 30.6896 9.39302C30.8571 9.31395 31.0245 9.23488 31.2757 9.15581C31.5269 9.07675 31.7781 9.07675 32.0294 9.07675C32.0294 9.07675 32.0294 9.07675 32.1131 9.07675V9.86743H31.8619C31.5269 9.86743 31.3595 9.94649 31.2757 10.0256C31.1083 10.1837 31.0245 10.3418 31.0245 10.579V12.1604H30.1034ZM33.9553 12.872C33.9553 13.0301 33.9553 13.1092 33.8715 13.1883C33.7041 13.2674 33.6203 13.2674 33.5366 13.2674H33.0342V10.4209C33.0342 9.86743 33.2016 9.47209 33.6203 9.31395C33.9553 9.07675 34.3739 8.99768 34.7926 8.99768C35.0438 8.99768 35.295 9.07675 35.5462 9.07675C35.7974 9.15581 35.9649 9.31395 36.0486 9.39302C36.3836 9.70929 36.4673 10.1046 36.4673 10.579C36.4673 11.0534 36.3836 11.4488 36.0486 11.7651C35.7974 12.0813 35.4625 12.2395 35.0438 12.2395C34.7926 12.2395 34.6251 12.1604 34.3739 12.0813C34.2065 12.0023 34.1227 11.9232 33.9553 11.7651V12.872ZM35.5462 10.6581C35.5462 10.3418 35.4625 10.1046 35.3788 9.94649C35.2113 9.78836 35.0438 9.70929 34.7089 9.70929C34.4577 9.70929 34.2902 9.78836 34.2065 9.94649C34.039 10.1046 33.9553 10.3418 33.9553 10.6581C33.9553 10.8953 34.039 11.1325 34.2065 11.2906C34.2902 11.4488 34.5414 11.5279 34.7926 11.5279C35.0438 11.5279 35.2113 11.4488 35.3788 11.2906C35.4625 11.1325 35.5462 10.8953 35.5462 10.6581ZM39.733 9.94649C39.6492 9.78836 39.398 9.70929 39.2306 9.70929C38.8956 9.70929 38.7282 9.78836 38.5607 9.94649C38.477 10.1046 38.3932 10.2628 38.3932 10.579V12.1604H37.4721V8.207H37.8908C38.0583 8.207 38.142 8.207 38.2257 8.28607C38.3095 8.36513 38.3932 8.4442 38.3932 8.52327V9.47209C38.5607 9.23488 38.8119 9.07675 39.0631 9.07675C39.398 8.99768 39.6492 8.99768 39.9842 9.07675C40.2354 9.15581 40.4029 9.31395 40.5703 9.55115C40.8215 9.70929 40.9053 10.0256 40.9053 10.3418V12.1604H39.9842V10.579C39.9842 10.4209 39.9004 10.3418 39.9004 10.2628C39.9004 10.1046 39.8167 10.0256 39.733 9.94649ZM41.9101 9.07675H42.4125C42.4962 9.07675 42.6637 9.07675 42.7474 9.15581C42.8312 9.23488 42.9149 9.39302 42.9149 9.47209V12.1604H41.9101V9.07675ZM41.9101 8.207H42.4125C42.4962 8.207 42.6637 8.207 42.7474 8.28607C42.8312 8.36513 42.9149 8.4442 42.9149 8.52327V8.83954H41.9101V8.207ZM46.9342 12.1604H46.4318C46.2643 12.1604 46.1806 12.0813 46.0968 12.0023C46.0131 12.0023 45.9294 11.8441 45.9294 11.7651V10.1837C45.9294 10.0256 45.9294 9.86743 45.7619 9.78836C45.5944 9.70929 45.5107 9.63022 45.3432 9.63022C45.1758 9.63022 45.0083 9.70929 44.8408 9.78836C44.7571 9.86743 44.6733 10.0256 44.6733 10.1837V12.1604H43.7523V10.3418C43.7523 9.78836 43.836 9.47209 44.1709 9.31395C44.5059 9.07675 44.9246 8.99768 45.2595 8.99768C45.6782 8.99768 46.0968 9.07675 46.4318 9.23488C46.7667 9.47209 46.9342 9.78836 46.9342 10.3418V12.1604ZM49.9487 10.579C49.8649 10.6581 49.6975 10.7372 49.4463 10.7372C49.195 10.8162 49.1113 10.8162 49.1113 10.8162C48.9438 10.8162 48.8601 10.8953 48.7764 10.9744C48.6926 11.0534 48.6926 11.1325 48.6926 11.2116C48.6926 11.2906 48.6926 11.4488 48.7764 11.5279C48.8601 11.5279 49.0276 11.6069 49.1113 11.6069C49.4463 11.6069 49.6137 11.5279 49.7812 11.3697C49.8649 11.2906 49.9487 11.1325 49.9487 10.8953V10.579ZM50.1999 12.0023C50.0324 12.0813 49.7812 12.1604 49.6137 12.1604C49.3625 12.1604 49.195 12.2395 49.0276 12.2395C48.6926 12.2395 48.3577 12.1604 48.1065 12.0023C47.8553 11.8441 47.7715 11.6069 47.7715 11.2116C47.7715 10.8953 47.8553 10.6581 48.1065 10.579C48.3577 10.4209 48.6089 10.3418 48.9438 10.2628C49.0276 10.2628 49.0276 10.2628 49.1113 10.2628C49.195 10.2628 49.2788 10.2628 49.3625 10.1837C49.7812 10.1837 49.9487 10.1046 49.9487 9.94649C49.9487 9.78836 49.8649 9.70929 49.7812 9.70929C49.6137 9.63022 49.4463 9.63022 49.3625 9.63022C49.195 9.63022 49.1113 9.63022 49.0276 9.70929C48.9438 9.70929 48.8601 9.78836 48.7764 9.86743H47.8553C47.939 9.63022 48.0228 9.39302 48.274 9.23488C48.5252 9.07675 48.8601 8.99768 49.2788 8.99768C49.8649 8.99768 50.1999 9.07675 50.4511 9.23488C50.7023 9.39302 50.8697 9.63022 50.8697 9.86743V10.8953C50.8697 11.2116 50.786 11.4488 50.7023 11.686C50.5348 11.8441 50.3673 11.9232 50.1999 12.0023Z" fill="#8990AE"/>
</svg>
