<svg width="18" height="18" viewBox="0 0 18 18" fill="none" xmlns="http://www.w3.org/2000/svg">
<path d="M12 6.74997L9.40231 9.86718C8.86827 10.508 8.60126 10.8284 8.24998 10.8284C7.8987 10.8284 7.63168 10.508 7.09764 9.86717L5.99998 8.54997M4.19609 3.76421C5.35691 4.05518 6.5392 3.37259 6.86761 2.2218C7.47985 0.0765375 10.5201 0.0765375 11.1323 2.2218C11.4608 3.37259 12.643 4.05518 13.8039 3.76421C15.9678 3.22178 17.488 5.85473 15.9362 7.45757C15.1038 8.31738 15.1038 9.68257 15.9362 10.5424C17.488 12.1452 15.9678 14.7782 13.8039 14.2357C12.643 13.9448 11.4608 14.6274 11.1323 15.7781C10.5201 17.9234 7.47985 17.9234 6.86761 15.7781C6.5392 14.6274 5.35691 13.9448 4.19609 14.2357C2.03212 14.7782 0.511989 12.1452 2.06373 10.5424C2.89613 9.68257 2.89613 8.31738 2.06373 7.45757C0.511989 5.85473 2.03212 3.22178 4.19609 3.76421Z" stroke="#8990AE" stroke-width="1.5" stroke-linecap="round"/>
</svg>
