<svg width="18" height="12" viewBox="0 0 18 12" fill="none" xmlns="http://www.w3.org/2000/svg">
<path fill-rule="evenodd" clip-rule="evenodd" d="M4.86715 0.1875C2.35181 0.1875 0.419628 2.41532 0.775351 4.90538L0.948523 6.11759L2.04073 9.94031C2.35735 11.0485 3.37023 11.8125 4.52275 11.8125C5.40108 11.8125 6.21915 11.3659 6.69411 10.627L6.97489 10.1903C7.92253 8.71618 10.0773 8.71618 11.025 10.1903L11.1967 10.4575C11.7396 11.302 12.6747 11.8125 13.6787 11.8125C15.1471 11.8125 16.392 10.7328 16.5997 9.27916L17.2245 4.90538C17.5802 2.41532 15.6481 0.1875 13.1327 0.1875C12.5544 0.1875 11.9825 0.308865 11.454 0.543747L11.0558 0.720741C10.2868 1.06251 9.97546 1.19775 9.66184 1.26433C9.22543 1.35697 8.77444 1.35697 8.33803 1.26433C8.02441 1.19775 7.71309 1.06251 6.9441 0.72074L6.54586 0.543746C6.01738 0.308864 5.44548 0.1875 4.86715 0.1875ZM5.24992 3.1875C5.56058 3.1875 5.81242 3.43934 5.81242 3.75V4.6875H6.74992C7.06058 4.6875 7.31242 4.93934 7.31242 5.25C7.31242 5.56066 7.06058 5.8125 6.74992 5.8125H5.81242V6.75C5.81242 7.06066 5.56058 7.3125 5.24992 7.3125C4.93926 7.3125 4.68742 7.06066 4.68742 6.75V5.8125H3.74992C3.43926 5.8125 3.18742 5.56066 3.18742 5.25C3.18742 4.93934 3.43926 4.6875 3.74992 4.6875H4.68742V3.75C4.68742 3.43934 4.93926 3.1875 5.24992 3.1875ZM12.75 4.5C13.1642 4.5 13.5 4.16421 13.5 3.75C13.5 3.33579 13.1642 3 12.75 3C12.3358 3 12 3.33579 12 3.75C12 4.16421 12.3358 4.5 12.75 4.5ZM11.25 6C11.6642 6 12 5.66421 12 5.25C12 4.83579 11.6642 4.5 11.25 4.5C10.8358 4.5 10.5 4.83579 10.5 5.25C10.5 5.66421 10.8358 6 11.25 6ZM15 5.25C15 5.66421 14.6642 6 14.25 6C13.8358 6 13.5 5.66421 13.5 5.25C13.5 4.83579 13.8358 4.5 14.25 4.5C14.6642 4.5 15 4.83579 15 5.25ZM12.75 7.5C13.1642 7.5 13.5 7.16421 13.5 6.75C13.5 6.33579 13.1642 6 12.75 6C12.3358 6 12 6.33579 12 6.75C12 7.16421 12.3358 7.5 12.75 7.5Z" fill="#8990AE"/>
</svg>
