<svg width="35" height="11" viewBox="0 0 35 11" fill="none" xmlns="http://www.w3.org/2000/svg">
<path d="M5.10089 3.97641V5.11287H7.84348C7.77066 5.74154 7.55223 6.22514 7.21244 6.53948C6.82411 6.92636 6.19307 7.3616 5.10089 7.3616C3.42621 7.3616 2.11559 6.00752 2.11559 4.33911C2.11559 2.6707 3.40194 1.31663 5.10089 1.31663C5.9989 1.31663 6.67848 1.67933 7.1639 2.13874L7.96483 1.34081C7.28525 0.687953 6.36296 0.180176 5.10089 0.180176C2.79517 0.180176 0.853516 2.04203 0.853516 4.33911C0.853516 6.6362 2.79517 8.49805 5.10089 8.49805C6.33869 8.49805 7.28525 8.08699 8.01337 7.33742C8.76576 6.58784 9.00847 5.52393 9.00847 4.67763C9.00847 4.41165 8.9842 4.16985 8.95993 3.97641H5.10089Z" fill="#8990AE"/>
<path d="M12.4058 3.03369C10.9253 3.03369 9.6875 4.17014 9.6875 5.71766C9.6875 7.26517 10.901 8.40162 12.4058 8.40162C13.9106 8.40162 15.1241 7.28935 15.1241 5.74184C15.1241 4.17014 13.9106 3.03369 12.4058 3.03369ZM12.4058 7.36189C11.5806 7.36189 10.8768 6.68485 10.8768 5.74184C10.8768 4.77464 11.5806 4.12178 12.4058 4.12178C13.231 4.12178 13.9349 4.77464 13.9349 5.74184C13.9349 6.68485 13.231 7.36189 12.4058 7.36189Z" fill="#8990AE"/>
<path d="M25.6824 3.63819H25.6339C25.3669 3.32385 24.8572 3.03369 24.2019 3.03369C22.8427 3.03369 21.6777 4.19432 21.6777 5.71766C21.6777 7.21681 22.8427 8.40162 24.2019 8.40162C24.8572 8.40162 25.3669 8.11146 25.6339 7.79712H25.6824V8.184C25.6824 9.19956 25.1242 9.75569 24.2504 9.75569C23.5223 9.75569 23.0854 9.24792 22.8913 8.7885L21.8719 9.22374C22.1631 9.92495 22.9641 10.8196 24.2747 10.8196C25.6581 10.8196 26.8474 9.99749 26.8474 8.01474V3.17877H25.7309V3.63819H25.6824ZM24.3232 7.36189C23.498 7.36189 22.8913 6.66067 22.8913 5.74184C22.8913 4.79882 23.5223 4.12178 24.3232 4.12178C25.1242 4.12178 25.7552 4.823 25.7552 5.76602C25.7795 6.68485 25.1484 7.36189 24.3232 7.36189Z" fill="#8990AE"/>
<path d="M18.4507 3.03369C16.9702 3.03369 15.7324 4.17014 15.7324 5.71766C15.7324 7.26517 16.946 8.40162 18.4507 8.40162C19.9555 8.40162 21.1691 7.28935 21.1691 5.74184C21.1691 4.17014 19.9555 3.03369 18.4507 3.03369ZM18.4507 7.36189C17.6255 7.36189 16.9217 6.68485 16.9217 5.74184C16.9217 4.77464 17.6255 4.12178 18.4507 4.12178C19.2759 4.12178 19.9798 4.77464 19.9798 5.74184C19.9798 6.68485 19.2759 7.36189 18.4507 7.36189Z" fill="#8990AE"/>
<path d="M27.7461 0.30127H28.9111V8.4257H27.7461V0.30127Z" fill="#8990AE"/>
<path d="M32.5018 7.36189C31.895 7.36189 31.4824 7.09591 31.1912 6.53977L34.8075 5.0648L34.6862 4.75046C34.4677 4.14596 33.7639 3.03369 32.3805 3.03369C30.997 3.03369 29.832 4.12178 29.832 5.71766C29.832 7.21681 30.9728 8.40162 32.5018 8.40162C33.7396 8.40162 34.4435 7.65204 34.759 7.21681L33.8367 6.61231C33.5212 7.07173 33.1086 7.36189 32.5018 7.36189ZM32.429 4.04925C32.9144 4.04925 33.327 4.29104 33.4484 4.62956L31.0213 5.64512C30.997 4.53284 31.8222 4.04925 32.429 4.04925Z" fill="#8990AE"/>
</svg>
