<svg width="24" height="24" viewBox="0 0 24 24" fill="none" xmlns="http://www.w3.org/2000/svg">
<path fill-rule="evenodd" clip-rule="evenodd" d="M0.33329 11.9993C0.333289 5.55603 5.55663 0.332681 12 0.33268C18.4433 0.33268 23.6666 5.55602 23.6666 11.9993C23.6666 18.4427 18.4433 23.666 12 23.666C5.55663 23.666 0.33329 18.4427 0.33329 11.9993ZM13.7173 5.54454C14.0606 5.20436 14.6146 5.20683 14.9548 5.55006C15.2949 5.89329 15.2925 6.44731 14.9492 6.78749L12.8924 8.82601C12.0577 9.65334 11.4851 10.2227 11.0976 10.7052C10.7213 11.1738 10.5922 11.4748 10.5578 11.7444C10.5362 11.9137 10.5362 12.085 10.5578 12.2543C10.5922 12.5239 10.7213 12.8249 11.0977 13.2935C11.4851 13.776 12.0577 14.3454 12.8924 15.1727L14.9492 17.2112C15.2925 17.5514 15.2949 18.1054 14.9548 18.4486C14.6146 18.7919 14.0606 18.7943 13.7173 18.4542L11.6235 16.3789C10.8348 15.5973 10.1903 14.9585 9.73319 14.3893C9.25786 13.7974 8.91377 13.1967 8.82185 12.4755C8.78155 12.1593 8.78155 11.8394 8.82185 11.5232C8.91377 10.802 9.25786 10.2013 9.73319 9.60938C10.1903 9.0402 10.8348 8.4014 11.6235 7.6198L13.7173 5.54454Z" fill="#ADB0D7"/>
</svg>
