<svg width="16" height="16" viewBox="0 0 16 16" fill="none" xmlns="http://www.w3.org/2000/svg">
<path d="M3.72025 2.72417C5.72036 1.271 6.72042 0.544419 7.86253 0.502521C7.95415 0.49916 8.04586 0.49916 8.13748 0.502521C9.27959 0.544419 10.2796 1.271 12.2798 2.72417C14.2799 4.17734 15.2799 4.90392 15.6727 5.97718C15.7042 6.06328 15.7326 6.1505 15.7577 6.23868C16.0708 7.33784 15.6888 8.51347 14.9248 10.8647L13.634 14.8373C13.4289 15.4685 12.8407 15.8959 12.177 15.8959C11.3309 15.8959 10.645 15.21 10.645 14.3639V12.3022C10.645 11.5083 10.0015 10.8647 9.20756 10.8647H6.79244C5.99855 10.8647 5.35497 11.5083 5.35497 12.3022V14.3639C5.35497 15.21 4.66908 15.8959 3.82299 15.8959C3.15929 15.8959 2.57108 15.4685 2.36599 14.8373L1.07522 10.8647C0.311242 8.51347 -0.0707458 7.33784 0.242338 6.23868C0.267454 6.1505 0.295794 6.06328 0.327303 5.97718C0.720082 4.90392 1.72014 4.17734 3.72025 2.72417Z" fill="#3586FF"/>
</svg>
