<svg width="14" height="14" viewBox="0 0 14 14" fill="none" xmlns="http://www.w3.org/2000/svg">
<path d="M4.81515 6.99997C4.81515 5.79365 5.79338 4.81548 7.00043 4.81548C8.20747 4.81548 9.18623 5.79365 9.18623 6.99997C9.18623 8.20629 8.20747 9.18446 7.00043 9.18446C5.79338 9.18446 4.81515 8.20629 4.81515 6.99997ZM3.63354 6.99997C3.63354 8.85839 5.14089 10.3648 7.00043 10.3648C8.85996 10.3648 10.3673 8.85839 10.3673 6.99997C10.3673 5.14156 8.85996 3.63511 7.00043 3.63511C5.14089 3.63511 3.63354 5.14156 3.63354 6.99997ZM9.71377 3.50169C9.71371 3.65722 9.75979 3.80927 9.8462 3.93862C9.9326 4.06797 10.0554 4.16881 10.1992 4.22838C10.3429 4.28796 10.5011 4.30359 10.6538 4.27331C10.8064 4.24303 10.9467 4.1682 11.0567 4.05827C11.1668 3.94834 11.2418 3.80825 11.2722 3.65573C11.3027 3.5032 11.2871 3.34508 11.2276 3.20137C11.1682 3.05766 11.0674 2.93481 10.938 2.84835C10.8086 2.76189 10.6565 2.71572 10.5009 2.71565H10.5006C10.292 2.71575 10.092 2.79859 9.94444 2.94597C9.79691 3.09335 9.71395 3.29322 9.71377 3.50169ZM4.35144 12.3339C3.71217 12.3048 3.36471 12.1984 3.13381 12.1085C2.82768 11.9894 2.60925 11.8475 2.37961 11.6183C2.14996 11.3891 2.0078 11.1711 1.88915 10.8651C1.79914 10.6344 1.69265 10.2871 1.66359 9.6482C1.63181 8.95747 1.62546 8.74998 1.62546 7.00002C1.62546 5.25007 1.63233 5.04316 1.66359 4.35185C1.69271 3.71296 1.79998 3.36628 1.88915 3.13494C2.00833 2.82899 2.15027 2.6107 2.37961 2.38119C2.60894 2.15168 2.82715 2.00961 3.13381 1.89103C3.36461 1.80107 3.71217 1.69465 4.35144 1.66561C5.04259 1.63384 5.25021 1.6275 7.00043 1.6275C8.75064 1.6275 8.95847 1.63436 9.65019 1.66561C10.2895 1.6947 10.6363 1.80191 10.8678 1.89103C11.174 2.00961 11.3924 2.15199 11.622 2.38119C11.8517 2.61039 11.9933 2.82899 12.1125 3.13494C12.2025 3.3656 12.309 3.71296 12.338 4.35185C12.3698 5.04316 12.3762 5.25007 12.3762 7.00002C12.3762 8.74998 12.3698 8.95689 12.338 9.6482C12.3089 10.2871 12.2019 10.6343 12.1125 10.8651C11.9933 11.1711 11.8514 11.3893 11.622 11.6183C11.3927 11.8473 11.174 11.9894 10.8678 12.1085C10.637 12.1985 10.2895 12.3049 9.65019 12.3339C8.95905 12.3657 8.75143 12.372 7.00043 12.372C5.24942 12.372 5.04238 12.3657 4.35144 12.3339ZM4.29715 0.486706C3.59913 0.518475 3.12216 0.629089 2.70561 0.791078C2.27422 0.958361 1.90903 1.18279 1.5441 1.54692C1.17917 1.91106 0.955189 2.27661 0.787805 2.70774C0.625719 3.12429 0.515039 3.60072 0.483251 4.29832C0.450939 4.99702 0.443542 5.2204 0.443542 6.99997C0.443542 8.77954 0.450939 9.00292 0.483251 9.70162C0.515039 10.3993 0.625719 10.8756 0.787805 11.2922C0.955189 11.7231 1.17922 12.089 1.5441 12.453C1.90898 12.817 2.27422 13.0411 2.70561 13.2089C3.12295 13.3709 3.59913 13.4815 4.29715 13.5132C4.99664 13.545 5.21979 13.5529 7.00043 13.5529C8.78106 13.5529 9.00458 13.5455 9.7037 13.5132C10.4018 13.4815 10.8784 13.3709 11.2952 13.2089C11.7264 13.0411 12.0918 12.8172 12.4567 12.453C12.8217 12.0889 13.0452 11.7231 13.213 11.2922C13.3751 10.8756 13.4863 10.3992 13.5176 9.70162C13.5494 9.0024 13.5568 8.77954 13.5568 6.99997C13.5568 5.2204 13.5494 4.99702 13.5176 4.29832C13.4858 3.60067 13.3751 3.12403 13.213 2.70774C13.0452 2.27687 12.8211 1.91163 12.4567 1.54692C12.0924 1.18221 11.7264 0.958361 11.2958 0.791078C10.8784 0.629089 10.4017 0.517951 9.70422 0.486706C9.0051 0.454937 8.78159 0.447021 7.00095 0.447021C5.22031 0.447021 4.99664 0.454413 4.29715 0.486706Z" fill="#8990AE"/>
<path d="M4.81515 6.99997C4.81515 5.79365 5.79338 4.81548 7.00043 4.81548C8.20747 4.81548 9.18623 5.79365 9.18623 6.99997C9.18623 8.20629 8.20747 9.18446 7.00043 9.18446C5.79338 9.18446 4.81515 8.20629 4.81515 6.99997ZM3.63354 6.99997C3.63354 8.85839 5.14089 10.3648 7.00043 10.3648C8.85996 10.3648 10.3673 8.85839 10.3673 6.99997C10.3673 5.14156 8.85996 3.63511 7.00043 3.63511C5.14089 3.63511 3.63354 5.14156 3.63354 6.99997ZM9.71377 3.50169C9.71371 3.65722 9.75979 3.80927 9.8462 3.93862C9.9326 4.06797 10.0554 4.16881 10.1992 4.22838C10.3429 4.28796 10.5011 4.30359 10.6538 4.27331C10.8064 4.24303 10.9467 4.1682 11.0567 4.05827C11.1668 3.94834 11.2418 3.80825 11.2722 3.65573C11.3027 3.5032 11.2871 3.34508 11.2276 3.20137C11.1682 3.05766 11.0674 2.93481 10.938 2.84835C10.8086 2.76189 10.6565 2.71572 10.5009 2.71565H10.5006C10.292 2.71575 10.092 2.79859 9.94444 2.94597C9.79691 3.09335 9.71395 3.29322 9.71377 3.50169ZM4.35144 12.3339C3.71217 12.3048 3.36471 12.1984 3.13381 12.1085C2.82768 11.9894 2.60925 11.8475 2.37961 11.6183C2.14996 11.3891 2.0078 11.1711 1.88915 10.8651C1.79914 10.6344 1.69265 10.2871 1.66359 9.6482C1.63181 8.95747 1.62546 8.74998 1.62546 7.00002C1.62546 5.25007 1.63233 5.04316 1.66359 4.35185C1.69271 3.71296 1.79998 3.36628 1.88915 3.13494C2.00833 2.82899 2.15027 2.6107 2.37961 2.38119C2.60894 2.15168 2.82715 2.00961 3.13381 1.89103C3.36461 1.80107 3.71217 1.69465 4.35144 1.66561C5.04259 1.63384 5.25021 1.6275 7.00043 1.6275C8.75064 1.6275 8.95847 1.63436 9.65019 1.66561C10.2895 1.6947 10.6363 1.80191 10.8678 1.89103C11.174 2.00961 11.3924 2.15199 11.622 2.38119C11.8517 2.61039 11.9933 2.82899 12.1125 3.13494C12.2025 3.3656 12.309 3.71296 12.338 4.35185C12.3698 5.04316 12.3762 5.25007 12.3762 7.00002C12.3762 8.74998 12.3698 8.95689 12.338 9.6482C12.3089 10.2871 12.2019 10.6343 12.1125 10.8651C11.9933 11.1711 11.8514 11.3893 11.622 11.6183C11.3927 11.8473 11.174 11.9894 10.8678 12.1085C10.637 12.1985 10.2895 12.3049 9.65019 12.3339C8.95905 12.3657 8.75143 12.372 7.00043 12.372C5.24942 12.372 5.04238 12.3657 4.35144 12.3339ZM4.29715 0.486706C3.59913 0.518475 3.12216 0.629089 2.70561 0.791078C2.27422 0.958361 1.90903 1.18279 1.5441 1.54692C1.17917 1.91106 0.955189 2.27661 0.787805 2.70774C0.625719 3.12429 0.515039 3.60072 0.483251 4.29832C0.450939 4.99702 0.443542 5.2204 0.443542 6.99997C0.443542 8.77954 0.450939 9.00292 0.483251 9.70162C0.515039 10.3993 0.625719 10.8756 0.787805 11.2922C0.955189 11.7231 1.17922 12.089 1.5441 12.453C1.90898 12.817 2.27422 13.0411 2.70561 13.2089C3.12295 13.3709 3.59913 13.4815 4.29715 13.5132C4.99664 13.545 5.21979 13.5529 7.00043 13.5529C8.78106 13.5529 9.00458 13.5455 9.7037 13.5132C10.4018 13.4815 10.8784 13.3709 11.2952 13.2089C11.7264 13.0411 12.0918 12.8172 12.4567 12.453C12.8217 12.0889 13.0452 11.7231 13.213 11.2922C13.3751 10.8756 13.4863 10.3992 13.5176 9.70162C13.5494 9.0024 13.5568 8.77954 13.5568 6.99997C13.5568 5.2204 13.5494 4.99702 13.5176 4.29832C13.4858 3.60067 13.3751 3.12403 13.213 2.70774C13.0452 2.27687 12.8211 1.91163 12.4567 1.54692C12.0924 1.18221 11.7264 0.958361 11.2958 0.791078C10.8784 0.629089 10.4017 0.517951 9.70422 0.486706C9.0051 0.454937 8.78159 0.447021 7.00095 0.447021C5.22031 0.447021 4.99664 0.454413 4.29715 0.486706Z" fill="#8990AE"/>
</svg>
