<svg width="374" height="229" viewBox="0 0 374 229" fill="none" xmlns="http://www.w3.org/2000/svg">
<rect width="374" height="229" rx="10" fill="#2E3665"/>
<rect x="9" y="10" width="32" height="27" rx="5" fill="#485299"/>
<rect x="45" y="10" width="32" height="27" rx="5" fill="#485299"/>
<rect x="81" y="10" width="32" height="27" rx="5" fill="#485299"/>
<rect x="117" y="10" width="32" height="27" rx="5" fill="#485299"/>
<rect x="153" y="10" width="32" height="27" rx="5" fill="#485299"/>
<rect x="189" y="10" width="32" height="27" rx="5" fill="#485299"/>
<rect x="225" y="10" width="32" height="27" rx="5" fill="#485299"/>
<rect x="261" y="10" width="32" height="27" rx="5" fill="#485299"/>
<rect x="297" y="10" width="32" height="27" rx="5" fill="#485299"/>
<rect x="333" y="10" width="32" height="27" rx="5" fill="#485299"/>
<rect x="9" y="42" width="32" height="27" rx="5" fill="#485299"/>
<rect x="45" y="42" width="32" height="27" rx="5" fill="#485299"/>
<rect x="81" y="42" width="32" height="27" rx="5" fill="#485299"/>
<rect x="117" y="42" width="32" height="27" rx="5" fill="#485299"/>
<rect x="153" y="42" width="32" height="27" rx="5" fill="#485299"/>
<rect x="189" y="42" width="32" height="27" rx="5" fill="#485299"/>
<rect x="225" y="42" width="32" height="27" rx="5" fill="#485299"/>
<rect x="261" y="42" width="32" height="27" rx="5" fill="#485299"/>
<rect x="297" y="42" width="32" height="27" rx="5" fill="#485299"/>
<rect x="333" y="42" width="32" height="27" rx="5" fill="#485299"/>
<rect x="9" y="74" width="32" height="27" rx="5" fill="#485299"/>
<rect x="45" y="74" width="32" height="27" rx="5" fill="#485299"/>
<rect x="81" y="74" width="32" height="27" rx="5" fill="#485299"/>
<rect x="117" y="74" width="32" height="27" rx="5" fill="#485299"/>
<rect x="153" y="74" width="32" height="27" rx="5" fill="#485299"/>
<rect x="189" y="74" width="32" height="27" rx="5" fill="#485299"/>
<rect x="225" y="74" width="32" height="27" rx="5" fill="#485299"/>
<rect x="261" y="74" width="32" height="27" rx="5" fill="#485299"/>
<rect x="297" y="74" width="32" height="27" rx="5" fill="#485299"/>
<rect x="333" y="74" width="32" height="27" rx="5" fill="#485299"/>
<rect x="9" y="106" width="32" height="27" rx="5" fill="#485299"/>
<rect x="45" y="106" width="32" height="27" rx="5" fill="#485299"/>
<rect x="81" y="106" width="32" height="27" rx="5" fill="#485299"/>
<rect x="117" y="106" width="32" height="27" rx="5" fill="#485299"/>
<rect x="153" y="106" width="32" height="27" rx="5" fill="#485299"/>
<rect x="189" y="106" width="32" height="27" rx="5" fill="#485299"/>
<rect x="225" y="106" width="32" height="27" rx="5" fill="#485299"/>
<rect x="261" y="106" width="32" height="27" rx="5" fill="#485299"/>
<rect x="297" y="106" width="32" height="27" rx="5" fill="#485299"/>
<rect x="333" y="106" width="32" height="27" rx="5" fill="#485299"/>
<path d="M24.184 29V19.9L24.982 20.726H22.112V19.2H26.004V29H24.184Z" fill="white"/>
<path d="M56.49 29V27.782L60.382 24.086C60.7087 23.778 60.9513 23.5073 61.11 23.274C61.2687 23.0407 61.3713 22.826 61.418 22.63C61.474 22.4247 61.502 22.2333 61.502 22.056C61.502 21.608 61.348 21.2627 61.04 21.02C60.732 20.768 60.2793 20.642 59.682 20.642C59.206 20.642 58.772 20.726 58.38 20.894C57.9973 21.062 57.666 21.3187 57.386 21.664L56.112 20.684C56.4947 20.1707 57.008 19.774 57.652 19.494C58.3053 19.2047 59.0333 19.06 59.836 19.06C60.5453 19.06 61.1613 19.1767 61.684 19.41C62.216 19.634 62.622 19.956 62.902 20.376C63.1913 20.796 63.336 21.2953 63.336 21.874C63.336 22.1913 63.294 22.5087 63.21 22.826C63.126 23.134 62.9673 23.4607 62.734 23.806C62.5007 24.1513 62.16 24.5387 61.712 24.968L58.366 28.146L57.988 27.46H63.714V29H56.49Z" fill="white"/>
<path d="M95.696 29.14C95.0053 29.14 94.3287 29.042 93.666 28.846C93.0127 28.6407 92.462 28.3607 92.014 28.006L92.798 26.592C93.1527 26.8813 93.582 27.1147 94.086 27.292C94.59 27.4693 95.1173 27.558 95.668 27.558C96.3213 27.558 96.83 27.4273 97.194 27.166C97.558 26.8953 97.74 26.5313 97.74 26.074C97.74 25.626 97.572 25.2713 97.236 25.01C96.9 24.7487 96.3587 24.618 95.612 24.618H94.716V23.372L97.516 20.04L97.754 20.726H92.49V19.2H99.168V20.418L96.368 23.75L95.416 23.19H95.962C97.166 23.19 98.0667 23.4607 98.664 24.002C99.2707 24.534 99.574 25.22 99.574 26.06C99.574 26.6107 99.434 27.1193 99.154 27.586C98.874 28.0527 98.4447 28.4307 97.866 28.72C97.2967 29 96.5733 29.14 95.696 29.14Z" fill="white"/>
<path d="M128.476 26.774V25.514L133.306 19.2H135.252L130.492 25.514L129.582 25.234H137.352V26.774H128.476ZM133.852 29V26.774L133.908 25.234V23.26H135.616V29H133.852Z" fill="white"/>
<path d="M167.864 29.14C167.173 29.14 166.497 29.042 165.834 28.846C165.181 28.6407 164.63 28.3607 164.182 28.006L164.952 26.592C165.307 26.8813 165.736 27.1147 166.24 27.292C166.753 27.4693 167.285 27.558 167.836 27.558C168.48 27.558 168.984 27.4227 169.348 27.152C169.721 26.8813 169.908 26.5173 169.908 26.06C169.908 25.752 169.829 25.4813 169.67 25.248C169.521 25.0147 169.25 24.8373 168.858 24.716C168.475 24.5947 167.948 24.534 167.276 24.534H164.91L165.414 19.2H171.168V20.726H166.086L167.038 19.858L166.66 23.848L165.708 22.994H167.682C168.653 22.994 169.432 23.1247 170.02 23.386C170.617 23.638 171.051 23.9927 171.322 24.45C171.602 24.898 171.742 25.4113 171.742 25.99C171.742 26.5593 171.602 27.082 171.322 27.558C171.042 28.034 170.613 28.4167 170.034 28.706C169.465 28.9953 168.741 29.14 167.864 29.14Z" fill="white"/>
<path d="M204.858 29.14C203.971 29.14 203.211 28.9533 202.576 28.58C201.941 28.1973 201.456 27.6467 201.12 26.928C200.784 26.2093 200.616 25.3227 200.616 24.268C200.616 23.148 200.817 22.2007 201.218 21.426C201.629 20.6513 202.193 20.0633 202.912 19.662C203.64 19.2607 204.475 19.06 205.418 19.06C205.913 19.06 206.384 19.1113 206.832 19.214C207.289 19.3167 207.677 19.4753 207.994 19.69L207.322 21.062C207.051 20.8847 206.757 20.7633 206.44 20.698C206.132 20.6233 205.805 20.586 205.46 20.586C204.536 20.586 203.803 20.8707 203.262 21.44C202.721 22.0093 202.45 22.8493 202.45 23.96C202.45 24.1373 202.455 24.3473 202.464 24.59C202.473 24.8233 202.506 25.0613 202.562 25.304L202.002 24.688C202.17 24.3053 202.399 23.988 202.688 23.736C202.987 23.4747 203.337 23.2787 203.738 23.148C204.149 23.0173 204.592 22.952 205.068 22.952C205.712 22.952 206.286 23.078 206.79 23.33C207.294 23.5727 207.695 23.9227 207.994 24.38C208.293 24.828 208.442 25.3553 208.442 25.962C208.442 26.606 208.283 27.166 207.966 27.642C207.649 28.118 207.219 28.4867 206.678 28.748C206.137 29.0093 205.53 29.14 204.858 29.14ZM204.76 27.712C205.133 27.712 205.465 27.6467 205.754 27.516C206.043 27.376 206.267 27.18 206.426 26.928C206.594 26.676 206.678 26.382 206.678 26.046C206.678 25.5327 206.501 25.1267 206.146 24.828C205.791 24.5293 205.315 24.38 204.718 24.38C204.326 24.38 203.981 24.4547 203.682 24.604C203.393 24.744 203.159 24.94 202.982 25.192C202.814 25.444 202.73 25.7333 202.73 26.06C202.73 26.3587 202.809 26.634 202.968 26.886C203.127 27.138 203.355 27.3387 203.654 27.488C203.962 27.6373 204.331 27.712 204.76 27.712Z" fill="white"/>
<path d="M238.254 29L242.3 19.928L242.776 20.74H237.218L238.086 19.858V22.406H236.392V19.2H244.008V20.418L240.2 29H238.254Z" fill="white"/>
<path d="M276.55 29.14C275.738 29.14 275.033 29.0187 274.436 28.776C273.839 28.5333 273.377 28.1927 273.05 27.754C272.723 27.306 272.56 26.7833 272.56 26.186C272.56 25.5887 272.719 25.0847 273.036 24.674C273.353 24.2633 273.811 23.9507 274.408 23.736C275.005 23.5213 275.719 23.414 276.55 23.414C277.381 23.414 278.095 23.5213 278.692 23.736C279.299 23.9507 279.761 24.268 280.078 24.688C280.405 25.0987 280.568 25.598 280.568 26.186C280.568 26.7833 280.4 27.306 280.064 27.754C279.737 28.1927 279.271 28.5333 278.664 28.776C278.067 29.0187 277.362 29.14 276.55 29.14ZM276.55 27.712C277.222 27.712 277.754 27.572 278.146 27.292C278.538 27.012 278.734 26.6247 278.734 26.13C278.734 25.6447 278.538 25.262 278.146 24.982C277.754 24.702 277.222 24.562 276.55 24.562C275.878 24.562 275.351 24.702 274.968 24.982C274.585 25.262 274.394 25.6447 274.394 26.13C274.394 26.6247 274.585 27.012 274.968 27.292C275.351 27.572 275.878 27.712 276.55 27.712ZM276.55 24.366C275.794 24.366 275.145 24.268 274.604 24.072C274.063 23.8667 273.643 23.5727 273.344 23.19C273.055 22.798 272.91 22.3313 272.91 21.79C272.91 21.23 273.059 20.7493 273.358 20.348C273.666 19.9373 274.095 19.62 274.646 19.396C275.197 19.172 275.831 19.06 276.55 19.06C277.278 19.06 277.917 19.172 278.468 19.396C279.019 19.62 279.448 19.9373 279.756 20.348C280.064 20.7493 280.218 21.23 280.218 21.79C280.218 22.3313 280.069 22.798 279.77 23.19C279.481 23.5727 279.061 23.8667 278.51 24.072C277.959 24.268 277.306 24.366 276.55 24.366ZM276.55 23.246C277.129 23.246 277.586 23.1247 277.922 22.882C278.258 22.63 278.426 22.294 278.426 21.874C278.426 21.4353 278.253 21.0947 277.908 20.852C277.563 20.6093 277.11 20.488 276.55 20.488C275.99 20.488 275.542 20.6093 275.206 20.852C274.87 21.0947 274.702 21.4353 274.702 21.874C274.702 22.294 274.865 22.63 275.192 22.882C275.528 23.1247 275.981 23.246 276.55 23.246Z" fill="white"/>
<path opacity="0.9" d="M311.92 19.06C312.816 19.06 313.577 19.2513 314.202 19.634C314.837 20.0073 315.322 20.5533 315.658 21.272C315.994 21.9907 316.162 22.8773 316.162 23.932C316.162 25.052 315.957 25.9993 315.546 26.774C315.145 27.5487 314.585 28.1367 313.866 28.538C313.147 28.9393 312.312 29.14 311.36 29.14C310.865 29.14 310.394 29.0887 309.946 28.986C309.498 28.8833 309.111 28.7247 308.784 28.51L309.456 27.138C309.727 27.3153 310.021 27.4413 310.338 27.516C310.655 27.5813 310.982 27.614 311.318 27.614C312.242 27.614 312.975 27.3293 313.516 26.76C314.057 26.1907 314.328 25.3507 314.328 24.24C314.328 24.0627 314.323 23.8573 314.314 23.624C314.305 23.3813 314.272 23.1387 314.216 22.896L314.776 23.512C314.617 23.8947 314.389 24.2167 314.09 24.478C313.791 24.73 313.441 24.9213 313.04 25.052C312.639 25.1827 312.195 25.248 311.71 25.248C311.075 25.248 310.501 25.1267 309.988 24.884C309.484 24.632 309.083 24.282 308.784 23.834C308.485 23.3767 308.336 22.8447 308.336 22.238C308.336 21.5847 308.495 21.0247 308.812 20.558C309.129 20.082 309.559 19.7133 310.1 19.452C310.651 19.1907 311.257 19.06 311.92 19.06ZM312.018 20.488C311.645 20.488 311.313 20.558 311.024 20.698C310.735 20.8287 310.506 21.02 310.338 21.272C310.179 21.5147 310.1 21.8087 310.1 22.154C310.1 22.6673 310.277 23.0733 310.632 23.372C310.987 23.6707 311.463 23.82 312.06 23.82C312.452 23.82 312.797 23.75 313.096 23.61C313.395 23.4607 313.628 23.26 313.796 23.008C313.964 22.7467 314.048 22.4573 314.048 22.14C314.048 21.832 313.969 21.5567 313.81 21.314C313.651 21.062 313.423 20.8613 313.124 20.712C312.825 20.5627 312.457 20.488 312.018 20.488Z" fill="white"/>
<path opacity="0.9" d="M343.184 29V19.9L343.982 20.726H341.112V19.2H345.004V29H343.184ZM351.036 29.14C350.261 29.14 349.561 28.944 348.936 28.552C348.32 28.16 347.835 27.5907 347.48 26.844C347.125 26.088 346.948 25.1733 346.948 24.1C346.948 23.0267 347.125 22.1167 347.48 21.37C347.835 20.614 348.32 20.04 348.936 19.648C349.561 19.256 350.261 19.06 351.036 19.06C351.82 19.06 352.52 19.256 353.136 19.648C353.752 20.04 354.237 20.614 354.592 21.37C354.956 22.1167 355.138 23.0267 355.138 24.1C355.138 25.1733 354.956 26.088 354.592 26.844C354.237 27.5907 353.752 28.16 353.136 28.552C352.52 28.944 351.82 29.14 351.036 29.14ZM351.036 27.558C351.493 27.558 351.89 27.4367 352.226 27.194C352.562 26.942 352.823 26.5593 353.01 26.046C353.206 25.5327 353.304 24.884 353.304 24.1C353.304 23.3067 353.206 22.658 353.01 22.154C352.823 21.6407 352.562 21.2627 352.226 21.02C351.89 20.768 351.493 20.642 351.036 20.642C350.597 20.642 350.205 20.768 349.86 21.02C349.524 21.2627 349.258 21.6407 349.062 22.154C348.875 22.658 348.782 23.3067 348.782 24.1C348.782 24.884 348.875 25.5327 349.062 26.046C349.258 26.5593 349.524 26.942 349.86 27.194C350.205 27.4367 350.597 27.558 351.036 27.558Z" fill="white"/>
<path opacity="0.9" d="M56.184 61V51.9L56.982 52.726H54.112V51.2H58.004V61H56.184ZM59.822 61V59.782L63.714 56.086C64.0407 55.778 64.2834 55.5073 64.442 55.274C64.6007 55.0407 64.7034 54.826 64.75 54.63C64.806 54.4247 64.834 54.2333 64.834 54.056C64.834 53.608 64.68 53.2627 64.372 53.02C64.064 52.768 63.6114 52.642 63.014 52.642C62.538 52.642 62.104 52.726 61.712 52.894C61.3294 53.062 60.998 53.3187 60.718 53.664L59.444 52.684C59.8267 52.1707 60.34 51.774 60.984 51.494C61.6374 51.2047 62.3654 51.06 63.168 51.06C63.8774 51.06 64.4934 51.1767 65.016 51.41C65.548 51.634 65.954 51.956 66.234 52.376C66.5234 52.796 66.668 53.2953 66.668 53.874C66.668 54.1913 66.626 54.5087 66.542 54.826C66.458 55.134 66.2994 55.4607 66.066 55.806C65.8327 56.1513 65.492 56.5387 65.044 56.968L61.698 60.146L61.32 59.46H67.046V61H59.822Z" fill="white"/>
<path opacity="0.9" d="M92.184 61V51.9L92.982 52.726H90.112V51.2H94.004V61H92.184ZM99.028 61.14C98.3374 61.14 97.6607 61.042 96.998 60.846C96.3447 60.6407 95.794 60.3607 95.346 60.006L96.13 58.592C96.4847 58.8813 96.914 59.1147 97.418 59.292C97.922 59.4693 98.4494 59.558 99 59.558C99.6534 59.558 100.162 59.4273 100.526 59.166C100.89 58.8953 101.072 58.5313 101.072 58.074C101.072 57.626 100.904 57.2713 100.568 57.01C100.232 56.7487 99.6907 56.618 98.944 56.618H98.048V55.372L100.848 52.04L101.086 52.726H95.822V51.2H102.5V52.418L99.7 55.75L98.748 55.19H99.294C100.498 55.19 101.399 55.4607 101.996 56.002C102.603 56.534 102.906 57.22 102.906 58.06C102.906 58.6107 102.766 59.1193 102.486 59.586C102.206 60.0527 101.777 60.4307 101.198 60.72C100.629 61 99.9054 61.14 99.028 61.14Z" fill="white"/>
<path opacity="0.9" d="M128.184 61V51.9L128.982 52.726H126.112V51.2H130.004V61H128.184ZM131.808 58.774V57.514L136.638 51.2H138.584L133.824 57.514L132.914 57.234H140.684V58.774H131.808ZM137.184 61V58.774L137.24 57.234V55.26H138.948V61H137.184Z" fill="white"/>
<path opacity="0.9" d="M164.184 61V51.9L164.982 52.726H162.112V51.2H166.004V61H164.184ZM171.196 61.14C170.505 61.14 169.829 61.042 169.166 60.846C168.513 60.6407 167.962 60.3607 167.514 60.006L168.284 58.592C168.639 58.8813 169.068 59.1147 169.572 59.292C170.085 59.4693 170.617 59.558 171.168 59.558C171.812 59.558 172.316 59.4227 172.68 59.152C173.053 58.8813 173.24 58.5173 173.24 58.06C173.24 57.752 173.161 57.4813 173.002 57.248C172.853 57.0147 172.582 56.8373 172.19 56.716C171.807 56.5947 171.28 56.534 170.608 56.534H168.242L168.746 51.2H174.5V52.726H169.418L170.37 51.858L169.992 55.848L169.04 54.994H171.014C171.985 54.994 172.764 55.1247 173.352 55.386C173.949 55.638 174.383 55.9927 174.654 56.45C174.934 56.898 175.074 57.4113 175.074 57.99C175.074 58.5593 174.934 59.082 174.654 59.558C174.374 60.034 173.945 60.4167 173.366 60.706C172.797 60.9953 172.073 61.14 171.196 61.14Z" fill="white"/>
<path opacity="0.9" d="M199.184 61V51.9L199.982 52.726H197.112V51.2H201.004V61H199.184ZM207.19 61.14C206.303 61.14 205.543 60.9533 204.908 60.58C204.273 60.1973 203.788 59.6467 203.452 58.928C203.116 58.2093 202.948 57.3227 202.948 56.268C202.948 55.148 203.149 54.2007 203.55 53.426C203.961 52.6513 204.525 52.0633 205.244 51.662C205.972 51.2607 206.807 51.06 207.75 51.06C208.245 51.06 208.716 51.1113 209.164 51.214C209.621 51.3167 210.009 51.4753 210.326 51.69L209.654 53.062C209.383 52.8847 209.089 52.7633 208.772 52.698C208.464 52.6233 208.137 52.586 207.792 52.586C206.868 52.586 206.135 52.8707 205.594 53.44C205.053 54.0093 204.782 54.8493 204.782 55.96C204.782 56.1373 204.787 56.3473 204.796 56.59C204.805 56.8233 204.838 57.0613 204.894 57.304L204.334 56.688C204.502 56.3053 204.731 55.988 205.02 55.736C205.319 55.4747 205.669 55.2787 206.07 55.148C206.481 55.0173 206.924 54.952 207.4 54.952C208.044 54.952 208.618 55.078 209.122 55.33C209.626 55.5727 210.027 55.9227 210.326 56.38C210.625 56.828 210.774 57.3553 210.774 57.962C210.774 58.606 210.615 59.166 210.298 59.642C209.981 60.118 209.551 60.4867 209.01 60.748C208.469 61.0093 207.862 61.14 207.19 61.14ZM207.092 59.712C207.465 59.712 207.797 59.6467 208.086 59.516C208.375 59.376 208.599 59.18 208.758 58.928C208.926 58.676 209.01 58.382 209.01 58.046C209.01 57.5327 208.833 57.1267 208.478 56.828C208.123 56.5293 207.647 56.38 207.05 56.38C206.658 56.38 206.313 56.4547 206.014 56.604C205.725 56.744 205.491 56.94 205.314 57.192C205.146 57.444 205.062 57.7333 205.062 58.06C205.062 58.3587 205.141 58.634 205.3 58.886C205.459 59.138 205.687 59.3387 205.986 59.488C206.294 59.6373 206.663 59.712 207.092 59.712Z" fill="white"/>
<path opacity="0.9" d="M236.184 61V51.9L236.982 52.726H234.112V51.2H238.004V61H236.184ZM241.586 61L245.632 51.928L246.108 52.74H240.55L241.418 51.858V54.406H239.724V51.2H247.34V52.418L243.532 61H241.586Z" fill="white"/>
<path opacity="0.9" d="M271.184 61V51.9L271.982 52.726H269.112V51.2H273.004V61H271.184ZM278.882 61.14C278.07 61.14 277.365 61.0187 276.768 60.776C276.171 60.5333 275.709 60.1927 275.382 59.754C275.055 59.306 274.892 58.7833 274.892 58.186C274.892 57.5887 275.051 57.0847 275.368 56.674C275.685 56.2633 276.143 55.9507 276.74 55.736C277.337 55.5213 278.051 55.414 278.882 55.414C279.713 55.414 280.427 55.5213 281.024 55.736C281.631 55.9507 282.093 56.268 282.41 56.688C282.737 57.0987 282.9 57.598 282.9 58.186C282.9 58.7833 282.732 59.306 282.396 59.754C282.069 60.1927 281.603 60.5333 280.996 60.776C280.399 61.0187 279.694 61.14 278.882 61.14ZM278.882 59.712C279.554 59.712 280.086 59.572 280.478 59.292C280.87 59.012 281.066 58.6247 281.066 58.13C281.066 57.6447 280.87 57.262 280.478 56.982C280.086 56.702 279.554 56.562 278.882 56.562C278.21 56.562 277.683 56.702 277.3 56.982C276.917 57.262 276.726 57.6447 276.726 58.13C276.726 58.6247 276.917 59.012 277.3 59.292C277.683 59.572 278.21 59.712 278.882 59.712ZM278.882 56.366C278.126 56.366 277.477 56.268 276.936 56.072C276.395 55.8667 275.975 55.5727 275.676 55.19C275.387 54.798 275.242 54.3313 275.242 53.79C275.242 53.23 275.391 52.7493 275.69 52.348C275.998 51.9373 276.427 51.62 276.978 51.396C277.529 51.172 278.163 51.06 278.882 51.06C279.61 51.06 280.249 51.172 280.8 51.396C281.351 51.62 281.78 51.9373 282.088 52.348C282.396 52.7493 282.55 53.23 282.55 53.79C282.55 54.3313 282.401 54.798 282.102 55.19C281.813 55.5727 281.393 55.8667 280.842 56.072C280.291 56.268 279.638 56.366 278.882 56.366ZM278.882 55.246C279.461 55.246 279.918 55.1247 280.254 54.882C280.59 54.63 280.758 54.294 280.758 53.874C280.758 53.4353 280.585 53.0947 280.24 52.852C279.895 52.6093 279.442 52.488 278.882 52.488C278.322 52.488 277.874 52.6093 277.538 52.852C277.202 53.0947 277.034 53.4353 277.034 53.874C277.034 54.294 277.197 54.63 277.524 54.882C277.86 55.1247 278.313 55.246 278.882 55.246Z" fill="white"/>
<path opacity="0.9" d="M307.184 61V51.9L307.982 52.726H305.112V51.2H309.004V61H307.184ZM314.252 51.06C315.148 51.06 315.909 51.2513 316.534 51.634C317.169 52.0073 317.654 52.5533 317.99 53.272C318.326 53.9907 318.494 54.8773 318.494 55.932C318.494 57.052 318.289 57.9993 317.878 58.774C317.477 59.5487 316.917 60.1367 316.198 60.538C315.479 60.9393 314.644 61.14 313.692 61.14C313.197 61.14 312.726 61.0887 312.278 60.986C311.83 60.8833 311.443 60.7247 311.116 60.51L311.788 59.138C312.059 59.3153 312.353 59.4413 312.67 59.516C312.987 59.5813 313.314 59.614 313.65 59.614C314.574 59.614 315.307 59.3293 315.848 58.76C316.389 58.1907 316.66 57.3507 316.66 56.24C316.66 56.0627 316.655 55.8573 316.646 55.624C316.637 55.3813 316.604 55.1387 316.548 54.896L317.108 55.512C316.949 55.8947 316.721 56.2167 316.422 56.478C316.123 56.73 315.773 56.9213 315.372 57.052C314.971 57.1827 314.527 57.248 314.042 57.248C313.407 57.248 312.833 57.1267 312.32 56.884C311.816 56.632 311.415 56.282 311.116 55.834C310.817 55.3767 310.668 54.8447 310.668 54.238C310.668 53.5847 310.827 53.0247 311.144 52.558C311.461 52.082 311.891 51.7133 312.432 51.452C312.983 51.1907 313.589 51.06 314.252 51.06ZM314.35 52.488C313.977 52.488 313.645 52.558 313.356 52.698C313.067 52.8287 312.838 53.02 312.67 53.272C312.511 53.5147 312.432 53.8087 312.432 54.154C312.432 54.6673 312.609 55.0733 312.964 55.372C313.319 55.6707 313.795 55.82 314.392 55.82C314.784 55.82 315.129 55.75 315.428 55.61C315.727 55.4607 315.96 55.26 316.128 55.008C316.296 54.7467 316.38 54.4573 316.38 54.14C316.38 53.832 316.301 53.5567 316.142 53.314C315.983 53.062 315.755 52.8613 315.456 52.712C315.157 52.5627 314.789 52.488 314.35 52.488Z" fill="white"/>
<path opacity="0.9" d="M340.49 61V59.782L344.382 56.086C344.709 55.778 344.951 55.5073 345.11 55.274C345.269 55.0407 345.371 54.826 345.418 54.63C345.474 54.4247 345.502 54.2333 345.502 54.056C345.502 53.608 345.348 53.2627 345.04 53.02C344.732 52.768 344.279 52.642 343.682 52.642C343.206 52.642 342.772 52.726 342.38 52.894C341.997 53.062 341.666 53.3187 341.386 53.664L340.112 52.684C340.495 52.1707 341.008 51.774 341.652 51.494C342.305 51.2047 343.033 51.06 343.836 51.06C344.545 51.06 345.161 51.1767 345.684 51.41C346.216 51.634 346.622 51.956 346.902 52.376C347.191 52.796 347.336 53.2953 347.336 53.874C347.336 54.1913 347.294 54.5087 347.21 54.826C347.126 55.134 346.967 55.4607 346.734 55.806C346.501 56.1513 346.16 56.5387 345.712 56.968L342.366 60.146L341.988 59.46H347.714V61H340.49ZM352.852 61.14C352.078 61.14 351.378 60.944 350.752 60.552C350.136 60.16 349.651 59.5907 349.296 58.844C348.942 58.088 348.764 57.1733 348.764 56.1C348.764 55.0267 348.942 54.1167 349.296 53.37C349.651 52.614 350.136 52.04 350.752 51.648C351.378 51.256 352.078 51.06 352.852 51.06C353.636 51.06 354.336 51.256 354.952 51.648C355.568 52.04 356.054 52.614 356.408 53.37C356.772 54.1167 356.954 55.0267 356.954 56.1C356.954 57.1733 356.772 58.088 356.408 58.844C356.054 59.5907 355.568 60.16 354.952 60.552C354.336 60.944 353.636 61.14 352.852 61.14ZM352.852 59.558C353.31 59.558 353.706 59.4367 354.042 59.194C354.378 58.942 354.64 58.5593 354.826 58.046C355.022 57.5327 355.12 56.884 355.12 56.1C355.12 55.3067 355.022 54.658 354.826 54.154C354.64 53.6407 354.378 53.2627 354.042 53.02C353.706 52.768 353.31 52.642 352.852 52.642C352.414 52.642 352.022 52.768 351.676 53.02C351.34 53.2627 351.074 53.6407 350.878 54.154C350.692 54.658 350.598 55.3067 350.598 56.1C350.598 56.884 350.692 57.5327 350.878 58.046C351.074 58.5593 351.34 58.942 351.676 59.194C352.022 59.4367 352.414 59.558 352.852 59.558Z" fill="white"/>
<path opacity="0.9" d="M18.49 93V91.782L22.382 88.086C22.7087 87.778 22.9513 87.5073 23.11 87.274C23.2687 87.0407 23.3713 86.826 23.418 86.63C23.474 86.4247 23.502 86.2333 23.502 86.056C23.502 85.608 23.348 85.2627 23.04 85.02C22.732 84.768 22.2793 84.642 21.682 84.642C21.206 84.642 20.772 84.726 20.38 84.894C19.9973 85.062 19.666 85.3187 19.386 85.664L18.112 84.684C18.4947 84.1707 19.008 83.774 19.652 83.494C20.3053 83.2047 21.0333 83.06 21.836 83.06C22.5453 83.06 23.1613 83.1767 23.684 83.41C24.216 83.634 24.622 83.956 24.902 84.376C25.1913 84.796 25.336 85.2953 25.336 85.874C25.336 86.1913 25.294 86.5087 25.21 86.826C25.126 87.134 24.9673 87.4607 24.734 87.806C24.5007 88.1513 24.16 88.5387 23.712 88.968L20.366 92.146L19.988 91.46H25.714V93H18.49ZM28.3324 93V83.9L29.1304 84.726H26.2604V83.2H30.1524V93H28.3324Z" fill="white"/>
<path opacity="0.9" d="M52.49 93V91.782L56.382 88.086C56.7087 87.778 56.9513 87.5073 57.11 87.274C57.2687 87.0407 57.3713 86.826 57.418 86.63C57.474 86.4247 57.502 86.2333 57.502 86.056C57.502 85.608 57.348 85.2627 57.04 85.02C56.732 84.768 56.2793 84.642 55.682 84.642C55.206 84.642 54.772 84.726 54.38 84.894C53.9973 85.062 53.666 85.3187 53.386 85.664L52.112 84.684C52.4947 84.1707 53.008 83.774 53.652 83.494C54.3053 83.2047 55.0333 83.06 55.836 83.06C56.5453 83.06 57.1613 83.1767 57.684 83.41C58.216 83.634 58.622 83.956 58.902 84.376C59.1913 84.796 59.336 85.2953 59.336 85.874C59.336 86.1913 59.294 86.5087 59.21 86.826C59.126 87.134 58.9673 87.4607 58.734 87.806C58.5007 88.1513 58.16 88.5387 57.712 88.968L54.366 92.146L53.988 91.46H59.714V93H52.49ZM60.6384 93V91.782L64.5304 88.086C64.8571 87.778 65.0998 87.5073 65.2584 87.274C65.4171 87.0407 65.5198 86.826 65.5664 86.63C65.6224 86.4247 65.6504 86.2333 65.6504 86.056C65.6504 85.608 65.4964 85.2627 65.1884 85.02C64.8804 84.768 64.4278 84.642 63.8304 84.642C63.3544 84.642 62.9204 84.726 62.5284 84.894C62.1458 85.062 61.8144 85.3187 61.5344 85.664L60.2604 84.684C60.6431 84.1707 61.1564 83.774 61.8004 83.494C62.4538 83.2047 63.1818 83.06 63.9844 83.06C64.6938 83.06 65.3098 83.1767 65.8324 83.41C66.3644 83.634 66.7704 83.956 67.0504 84.376C67.3398 84.796 67.4844 85.2953 67.4844 85.874C67.4844 86.1913 67.4424 86.5087 67.3584 86.826C67.2744 87.134 67.1158 87.4607 66.8824 87.806C66.6491 88.1513 66.3084 88.5387 65.8604 88.968L62.5144 92.146L62.1364 91.46H67.8624V93H60.6384Z" fill="white"/>
<path opacity="0.9" d="M88.49 93V91.782L92.382 88.086C92.7087 87.778 92.9513 87.5073 93.11 87.274C93.2687 87.0407 93.3713 86.826 93.418 86.63C93.474 86.4247 93.502 86.2333 93.502 86.056C93.502 85.608 93.348 85.2627 93.04 85.02C92.732 84.768 92.2793 84.642 91.682 84.642C91.206 84.642 90.772 84.726 90.38 84.894C89.9973 85.062 89.666 85.3187 89.386 85.664L88.112 84.684C88.4947 84.1707 89.008 83.774 89.652 83.494C90.3053 83.2047 91.0333 83.06 91.836 83.06C92.5453 83.06 93.1613 83.1767 93.684 83.41C94.216 83.634 94.622 83.956 94.902 84.376C95.1913 84.796 95.336 85.2953 95.336 85.874C95.336 86.1913 95.294 86.5087 95.21 86.826C95.126 87.134 94.9673 87.4607 94.734 87.806C94.5007 88.1513 94.16 88.5387 93.712 88.968L90.366 92.146L89.988 91.46H95.714V93H88.49ZM99.8444 93.14C99.1538 93.14 98.4771 93.042 97.8144 92.846C97.1611 92.6407 96.6104 92.3607 96.1624 92.006L96.9464 90.592C97.3011 90.8813 97.7304 91.1147 98.2344 91.292C98.7384 91.4693 99.2658 91.558 99.8164 91.558C100.47 91.558 100.978 91.4273 101.342 91.166C101.706 90.8953 101.888 90.5313 101.888 90.074C101.888 89.626 101.72 89.2713 101.384 89.01C101.048 88.7487 100.507 88.618 99.7604 88.618H98.8644V87.372L101.664 84.04L101.902 84.726H96.6384V83.2H103.316V84.418L100.516 87.75L99.5644 87.19H100.11C101.314 87.19 102.215 87.4607 102.812 88.002C103.419 88.534 103.722 89.22 103.722 90.06C103.722 90.6107 103.582 91.1193 103.302 91.586C103.022 92.0527 102.593 92.4307 102.014 92.72C101.445 93 100.722 93.14 99.8444 93.14Z" fill="white"/>
<path opacity="0.9" d="M124.49 93V91.782L128.382 88.086C128.709 87.778 128.951 87.5073 129.11 87.274C129.269 87.0407 129.371 86.826 129.418 86.63C129.474 86.4247 129.502 86.2333 129.502 86.056C129.502 85.608 129.348 85.2627 129.04 85.02C128.732 84.768 128.279 84.642 127.682 84.642C127.206 84.642 126.772 84.726 126.38 84.894C125.997 85.062 125.666 85.3187 125.386 85.664L124.112 84.684C124.495 84.1707 125.008 83.774 125.652 83.494C126.305 83.2047 127.033 83.06 127.836 83.06C128.545 83.06 129.161 83.1767 129.684 83.41C130.216 83.634 130.622 83.956 130.902 84.376C131.191 84.796 131.336 85.2953 131.336 85.874C131.336 86.1913 131.294 86.5087 131.21 86.826C131.126 87.134 130.967 87.4607 130.734 87.806C130.501 88.1513 130.16 88.5387 129.712 88.968L126.366 92.146L125.988 91.46H131.714V93H124.49ZM132.419 90.774V89.514L137.249 83.2H139.195L134.435 89.514L133.525 89.234H141.295V90.774H132.419ZM137.795 93V90.774L137.851 89.234V87.26H139.559V93H137.795Z" fill="white"/>
<path opacity="0.9" d="M160.49 93V91.782L164.382 88.086C164.709 87.778 164.951 87.5073 165.11 87.274C165.269 87.0407 165.371 86.826 165.418 86.63C165.474 86.4247 165.502 86.2333 165.502 86.056C165.502 85.608 165.348 85.2627 165.04 85.02C164.732 84.768 164.279 84.642 163.682 84.642C163.206 84.642 162.772 84.726 162.38 84.894C161.997 85.062 161.666 85.3187 161.386 85.664L160.112 84.684C160.495 84.1707 161.008 83.774 161.652 83.494C162.305 83.2047 163.033 83.06 163.836 83.06C164.545 83.06 165.161 83.1767 165.684 83.41C166.216 83.634 166.622 83.956 166.902 84.376C167.191 84.796 167.336 85.2953 167.336 85.874C167.336 86.1913 167.294 86.5087 167.21 86.826C167.126 87.134 166.967 87.4607 166.734 87.806C166.501 88.1513 166.16 88.5387 165.712 88.968L162.366 92.146L161.988 91.46H167.714V93H160.49ZM172.012 93.14C171.322 93.14 170.645 93.042 169.982 92.846C169.329 92.6407 168.778 92.3607 168.33 92.006L169.1 90.592C169.455 90.8813 169.884 91.1147 170.388 91.292C170.902 91.4693 171.434 91.558 171.984 91.558C172.628 91.558 173.132 91.4227 173.496 91.152C173.87 90.8813 174.056 90.5173 174.056 90.06C174.056 89.752 173.977 89.4813 173.818 89.248C173.669 89.0147 173.398 88.8373 173.006 88.716C172.624 88.5947 172.096 88.534 171.424 88.534H169.058L169.562 83.2H175.316V84.726H170.234L171.186 83.858L170.808 87.848L169.856 86.994H171.83C172.801 86.994 173.58 87.1247 174.168 87.386C174.766 87.638 175.2 87.9927 175.47 88.45C175.75 88.898 175.89 89.4113 175.89 89.99C175.89 90.5593 175.75 91.082 175.47 91.558C175.19 92.034 174.761 92.4167 174.182 92.706C173.613 92.9953 172.89 93.14 172.012 93.14Z" fill="white"/>
<path opacity="0.9" d="M196.49 93V91.782L200.382 88.086C200.709 87.778 200.951 87.5073 201.11 87.274C201.269 87.0407 201.371 86.826 201.418 86.63C201.474 86.4247 201.502 86.2333 201.502 86.056C201.502 85.608 201.348 85.2627 201.04 85.02C200.732 84.768 200.279 84.642 199.682 84.642C199.206 84.642 198.772 84.726 198.38 84.894C197.997 85.062 197.666 85.3187 197.386 85.664L196.112 84.684C196.495 84.1707 197.008 83.774 197.652 83.494C198.305 83.2047 199.033 83.06 199.836 83.06C200.545 83.06 201.161 83.1767 201.684 83.41C202.216 83.634 202.622 83.956 202.902 84.376C203.191 84.796 203.336 85.2953 203.336 85.874C203.336 86.1913 203.294 86.5087 203.21 86.826C203.126 87.134 202.967 87.4607 202.734 87.806C202.501 88.1513 202.16 88.5387 201.712 88.968L198.366 92.146L197.988 91.46H203.714V93H196.49ZM209.006 93.14C208.12 93.14 207.359 92.9533 206.724 92.58C206.09 92.1973 205.604 91.6467 205.268 90.928C204.932 90.2093 204.764 89.3227 204.764 88.268C204.764 87.148 204.965 86.2007 205.366 85.426C205.777 84.6513 206.342 84.0633 207.06 83.662C207.788 83.2607 208.624 83.06 209.566 83.06C210.061 83.06 210.532 83.1113 210.98 83.214C211.438 83.3167 211.825 83.4753 212.142 83.69L211.47 85.062C211.2 84.8847 210.906 84.7633 210.588 84.698C210.28 84.6233 209.954 84.586 209.608 84.586C208.684 84.586 207.952 84.8707 207.41 85.44C206.869 86.0093 206.598 86.8493 206.598 87.96C206.598 88.1373 206.603 88.3473 206.612 88.59C206.622 88.8233 206.654 89.0613 206.71 89.304L206.15 88.688C206.318 88.3053 206.547 87.988 206.836 87.736C207.135 87.4747 207.485 87.2787 207.886 87.148C208.297 87.0173 208.74 86.952 209.216 86.952C209.86 86.952 210.434 87.078 210.938 87.33C211.442 87.5727 211.844 87.9227 212.142 88.38C212.441 88.828 212.59 89.3553 212.59 89.962C212.59 90.606 212.432 91.166 212.114 91.642C211.797 92.118 211.368 92.4867 210.826 92.748C210.285 93.0093 209.678 93.14 209.006 93.14ZM208.908 91.712C209.282 91.712 209.613 91.6467 209.902 91.516C210.192 91.376 210.416 91.18 210.574 90.928C210.742 90.676 210.826 90.382 210.826 90.046C210.826 89.5327 210.649 89.1267 210.294 88.828C209.94 88.5293 209.464 88.38 208.866 88.38C208.474 88.38 208.129 88.4547 207.83 88.604C207.541 88.744 207.308 88.94 207.13 89.192C206.962 89.444 206.878 89.7333 206.878 90.06C206.878 90.3587 206.958 90.634 207.116 90.886C207.275 91.138 207.504 91.3387 207.802 91.488C208.11 91.6373 208.479 91.712 208.908 91.712Z" fill="white"/>
<path opacity="0.9" d="M232.49 93V91.782L236.382 88.086C236.709 87.778 236.951 87.5073 237.11 87.274C237.269 87.0407 237.371 86.826 237.418 86.63C237.474 86.4247 237.502 86.2333 237.502 86.056C237.502 85.608 237.348 85.2627 237.04 85.02C236.732 84.768 236.279 84.642 235.682 84.642C235.206 84.642 234.772 84.726 234.38 84.894C233.997 85.062 233.666 85.3187 233.386 85.664L232.112 84.684C232.495 84.1707 233.008 83.774 233.652 83.494C234.305 83.2047 235.033 83.06 235.836 83.06C236.545 83.06 237.161 83.1767 237.684 83.41C238.216 83.634 238.622 83.956 238.902 84.376C239.191 84.796 239.336 85.2953 239.336 85.874C239.336 86.1913 239.294 86.5087 239.21 86.826C239.126 87.134 238.967 87.4607 238.734 87.806C238.501 88.1513 238.16 88.5387 237.712 88.968L234.366 92.146L233.988 91.46H239.714V93H232.49ZM242.402 93L246.448 83.928L246.924 84.74H241.366L242.234 83.858V86.406H240.54V83.2H248.156V84.418L244.348 93H242.402Z" fill="white"/>
<path opacity="0.9" d="M268.49 93V91.782L272.382 88.086C272.709 87.778 272.951 87.5073 273.11 87.274C273.269 87.0407 273.371 86.826 273.418 86.63C273.474 86.4247 273.502 86.2333 273.502 86.056C273.502 85.608 273.348 85.2627 273.04 85.02C272.732 84.768 272.279 84.642 271.682 84.642C271.206 84.642 270.772 84.726 270.38 84.894C269.997 85.062 269.666 85.3187 269.386 85.664L268.112 84.684C268.495 84.1707 269.008 83.774 269.652 83.494C270.305 83.2047 271.033 83.06 271.836 83.06C272.545 83.06 273.161 83.1767 273.684 83.41C274.216 83.634 274.622 83.956 274.902 84.376C275.191 84.796 275.336 85.2953 275.336 85.874C275.336 86.1913 275.294 86.5087 275.21 86.826C275.126 87.134 274.967 87.4607 274.734 87.806C274.501 88.1513 274.16 88.5387 273.712 88.968L270.366 92.146L269.988 91.46H275.714V93H268.49ZM280.698 93.14C279.886 93.14 279.182 93.0187 278.584 92.776C277.987 92.5333 277.525 92.1927 277.198 91.754C276.872 91.306 276.708 90.7833 276.708 90.186C276.708 89.5887 276.867 89.0847 277.184 88.674C277.502 88.2633 277.959 87.9507 278.556 87.736C279.154 87.5213 279.868 87.414 280.698 87.414C281.529 87.414 282.243 87.5213 282.84 87.736C283.447 87.9507 283.909 88.268 284.226 88.688C284.553 89.0987 284.716 89.598 284.716 90.186C284.716 90.7833 284.548 91.306 284.212 91.754C283.886 92.1927 283.419 92.5333 282.812 92.776C282.215 93.0187 281.51 93.14 280.698 93.14ZM280.698 91.712C281.37 91.712 281.902 91.572 282.294 91.292C282.686 91.012 282.882 90.6247 282.882 90.13C282.882 89.6447 282.686 89.262 282.294 88.982C281.902 88.702 281.37 88.562 280.698 88.562C280.026 88.562 279.499 88.702 279.116 88.982C278.734 89.262 278.542 89.6447 278.542 90.13C278.542 90.6247 278.734 91.012 279.116 91.292C279.499 91.572 280.026 91.712 280.698 91.712ZM280.698 88.366C279.942 88.366 279.294 88.268 278.752 88.072C278.211 87.8667 277.791 87.5727 277.492 87.19C277.203 86.798 277.058 86.3313 277.058 85.79C277.058 85.23 277.208 84.7493 277.506 84.348C277.814 83.9373 278.244 83.62 278.794 83.396C279.345 83.172 279.98 83.06 280.698 83.06C281.426 83.06 282.066 83.172 282.616 83.396C283.167 83.62 283.596 83.9373 283.904 84.348C284.212 84.7493 284.366 85.23 284.366 85.79C284.366 86.3313 284.217 86.798 283.918 87.19C283.629 87.5727 283.209 87.8667 282.658 88.072C282.108 88.268 281.454 88.366 280.698 88.366ZM280.698 87.246C281.277 87.246 281.734 87.1247 282.07 86.882C282.406 86.63 282.574 86.294 282.574 85.874C282.574 85.4353 282.402 85.0947 282.056 84.852C281.711 84.6093 281.258 84.488 280.698 84.488C280.138 84.488 279.69 84.6093 279.354 84.852C279.018 85.0947 278.85 85.4353 278.85 85.874C278.85 86.294 279.014 86.63 279.34 86.882C279.676 87.1247 280.129 87.246 280.698 87.246Z" fill="white"/>
<path opacity="0.9" d="M304.49 93V91.782L308.382 88.086C308.709 87.778 308.951 87.5073 309.11 87.274C309.269 87.0407 309.371 86.826 309.418 86.63C309.474 86.4247 309.502 86.2333 309.502 86.056C309.502 85.608 309.348 85.2627 309.04 85.02C308.732 84.768 308.279 84.642 307.682 84.642C307.206 84.642 306.772 84.726 306.38 84.894C305.997 85.062 305.666 85.3187 305.386 85.664L304.112 84.684C304.495 84.1707 305.008 83.774 305.652 83.494C306.305 83.2047 307.033 83.06 307.836 83.06C308.545 83.06 309.161 83.1767 309.684 83.41C310.216 83.634 310.622 83.956 310.902 84.376C311.191 84.796 311.336 85.2953 311.336 85.874C311.336 86.1913 311.294 86.5087 311.21 86.826C311.126 87.134 310.967 87.4607 310.734 87.806C310.501 88.1513 310.16 88.5387 309.712 88.968L306.366 92.146L305.988 91.46H311.714V93H304.49ZM316.068 83.06C316.964 83.06 317.725 83.2513 318.35 83.634C318.985 84.0073 319.47 84.5533 319.806 85.272C320.142 85.9907 320.31 86.8773 320.31 87.932C320.31 89.052 320.105 89.9993 319.694 90.774C319.293 91.5487 318.733 92.1367 318.014 92.538C317.296 92.9393 316.46 93.14 315.508 93.14C315.014 93.14 314.542 93.0887 314.094 92.986C313.646 92.8833 313.259 92.7247 312.932 92.51L313.604 91.138C313.875 91.3153 314.169 91.4413 314.486 91.516C314.804 91.5813 315.13 91.614 315.466 91.614C316.39 91.614 317.123 91.3293 317.664 90.76C318.206 90.1907 318.476 89.3507 318.476 88.24C318.476 88.0627 318.472 87.8573 318.462 87.624C318.453 87.3813 318.42 87.1387 318.364 86.896L318.924 87.512C318.766 87.8947 318.537 88.2167 318.238 88.478C317.94 88.73 317.59 88.9213 317.188 89.052C316.787 89.1827 316.344 89.248 315.858 89.248C315.224 89.248 314.65 89.1267 314.136 88.884C313.632 88.632 313.231 88.282 312.932 87.834C312.634 87.3767 312.484 86.8447 312.484 86.238C312.484 85.5847 312.643 85.0247 312.96 84.558C313.278 84.082 313.707 83.7133 314.248 83.452C314.799 83.1907 315.406 83.06 316.068 83.06ZM316.166 84.488C315.793 84.488 315.462 84.558 315.172 84.698C314.883 84.8287 314.654 85.02 314.486 85.272C314.328 85.5147 314.248 85.8087 314.248 86.154C314.248 86.6673 314.426 87.0733 314.78 87.372C315.135 87.6707 315.611 87.82 316.208 87.82C316.6 87.82 316.946 87.75 317.244 87.61C317.543 87.4607 317.776 87.26 317.944 87.008C318.112 86.7467 318.196 86.4573 318.196 86.14C318.196 85.832 318.117 85.5567 317.958 85.314C317.8 85.062 317.571 84.8613 317.272 84.712C316.974 84.5627 316.605 84.488 316.166 84.488Z" fill="white"/>
<path opacity="0.9" d="M343.696 93.14C343.005 93.14 342.329 93.042 341.666 92.846C341.013 92.6407 340.462 92.3607 340.014 92.006L340.798 90.592C341.153 90.8813 341.582 91.1147 342.086 91.292C342.59 91.4693 343.117 91.558 343.668 91.558C344.321 91.558 344.83 91.4273 345.194 91.166C345.558 90.8953 345.74 90.5313 345.74 90.074C345.74 89.626 345.572 89.2713 345.236 89.01C344.9 88.7487 344.359 88.618 343.612 88.618H342.716V87.372L345.516 84.04L345.754 84.726H340.49V83.2H347.168V84.418L344.368 87.75L343.416 87.19H343.962C345.166 87.19 346.067 87.4607 346.664 88.002C347.271 88.534 347.574 89.22 347.574 90.06C347.574 90.6107 347.434 91.1193 347.154 91.586C346.874 92.0527 346.445 92.4307 345.866 92.72C345.297 93 344.573 93.14 343.696 93.14ZM352.852 93.14C352.078 93.14 351.378 92.944 350.752 92.552C350.136 92.16 349.651 91.5907 349.296 90.844C348.942 90.088 348.764 89.1733 348.764 88.1C348.764 87.0267 348.942 86.1167 349.296 85.37C349.651 84.614 350.136 84.04 350.752 83.648C351.378 83.256 352.078 83.06 352.852 83.06C353.636 83.06 354.336 83.256 354.952 83.648C355.568 84.04 356.054 84.614 356.408 85.37C356.772 86.1167 356.954 87.0267 356.954 88.1C356.954 89.1733 356.772 90.088 356.408 90.844C356.054 91.5907 355.568 92.16 354.952 92.552C354.336 92.944 353.636 93.14 352.852 93.14ZM352.852 91.558C353.31 91.558 353.706 91.4367 354.042 91.194C354.378 90.942 354.64 90.5593 354.826 90.046C355.022 89.5327 355.12 88.884 355.12 88.1C355.12 87.3067 355.022 86.658 354.826 86.154C354.64 85.6407 354.378 85.2627 354.042 85.02C353.706 84.768 353.31 84.642 352.852 84.642C352.414 84.642 352.022 84.768 351.676 85.02C351.34 85.2627 351.074 85.6407 350.878 86.154C350.692 86.658 350.598 87.3067 350.598 88.1C350.598 88.884 350.692 89.5327 350.878 90.046C351.074 90.5593 351.34 90.942 351.676 91.194C352.022 91.4367 352.414 91.558 352.852 91.558Z" fill="white"/>
<path opacity="0.9" d="M21.696 125.14C21.0053 125.14 20.3287 125.042 19.666 124.846C19.0127 124.641 18.462 124.361 18.014 124.006L18.798 122.592C19.1527 122.881 19.582 123.115 20.086 123.292C20.59 123.469 21.1173 123.558 21.668 123.558C22.3213 123.558 22.83 123.427 23.194 123.166C23.558 122.895 23.74 122.531 23.74 122.074C23.74 121.626 23.572 121.271 23.236 121.01C22.9 120.749 22.3587 120.618 21.612 120.618H20.716V119.372L23.516 116.04L23.754 116.726H18.49V115.2H25.168V116.418L22.368 119.75L21.416 119.19H21.962C23.166 119.19 24.0667 119.461 24.664 120.002C25.2707 120.534 25.574 121.22 25.574 122.06C25.574 122.611 25.434 123.119 25.154 123.586C24.874 124.053 24.4447 124.431 23.866 124.72C23.2967 125 22.5733 125.14 21.696 125.14ZM28.3324 125V115.9L29.1304 116.726H26.2604V115.2H30.1524V125H28.3324Z" fill="white"/>
<path opacity="0.9" d="M55.696 125.14C55.0053 125.14 54.3287 125.042 53.666 124.846C53.0127 124.641 52.462 124.361 52.014 124.006L52.798 122.592C53.1527 122.881 53.582 123.115 54.086 123.292C54.59 123.469 55.1173 123.558 55.668 123.558C56.3213 123.558 56.83 123.427 57.194 123.166C57.558 122.895 57.74 122.531 57.74 122.074C57.74 121.626 57.572 121.271 57.236 121.01C56.9 120.749 56.3587 120.618 55.612 120.618H54.716V119.372L57.516 116.04L57.754 116.726H52.49V115.2H59.168V116.418L56.368 119.75L55.416 119.19H55.962C57.166 119.19 58.0667 119.461 58.664 120.002C59.2707 120.534 59.574 121.22 59.574 122.06C59.574 122.611 59.434 123.119 59.154 123.586C58.874 124.053 58.4447 124.431 57.866 124.72C57.2967 125 56.5733 125.14 55.696 125.14ZM60.5701 125V123.782L64.4621 120.086C64.7887 119.778 65.0314 119.507 65.1901 119.274C65.3487 119.041 65.4514 118.826 65.4981 118.63C65.5541 118.425 65.5821 118.233 65.5821 118.056C65.5821 117.608 65.4281 117.263 65.1201 117.02C64.8121 116.768 64.3594 116.642 63.7621 116.642C63.2861 116.642 62.8521 116.726 62.4601 116.894C62.0774 117.062 61.7461 117.319 61.4661 117.664L60.1921 116.684C60.5747 116.171 61.0881 115.774 61.7321 115.494C62.3854 115.205 63.1134 115.06 63.9161 115.06C64.6254 115.06 65.2414 115.177 65.7641 115.41C66.2961 115.634 66.7021 115.956 66.9821 116.376C67.2714 116.796 67.4161 117.295 67.4161 117.874C67.4161 118.191 67.3741 118.509 67.2901 118.826C67.2061 119.134 67.0474 119.461 66.8141 119.806C66.5807 120.151 66.2401 120.539 65.7921 120.968L62.4461 124.146L62.0681 123.46H67.7941V125H60.5701Z" fill="white"/>
<path opacity="0.9" d="M91.696 125.14C91.0053 125.14 90.3287 125.042 89.666 124.846C89.0127 124.641 88.462 124.361 88.014 124.006L88.798 122.592C89.1527 122.881 89.582 123.115 90.086 123.292C90.59 123.469 91.1173 123.558 91.668 123.558C92.3213 123.558 92.83 123.427 93.194 123.166C93.558 122.895 93.74 122.531 93.74 122.074C93.74 121.626 93.572 121.271 93.236 121.01C92.9 120.749 92.3587 120.618 91.612 120.618H90.716V119.372L93.516 116.04L93.754 116.726H88.49V115.2H95.168V116.418L92.368 119.75L91.416 119.19H91.962C93.166 119.19 94.0667 119.461 94.664 120.002C95.2707 120.534 95.574 121.22 95.574 122.06C95.574 122.611 95.434 123.119 95.154 123.586C94.874 124.053 94.4447 124.431 93.866 124.72C93.2967 125 92.5733 125.14 91.696 125.14ZM99.7761 125.14C99.0854 125.14 98.4087 125.042 97.7461 124.846C97.0927 124.641 96.5421 124.361 96.0941 124.006L96.8781 122.592C97.2327 122.881 97.6621 123.115 98.1661 123.292C98.6701 123.469 99.1974 123.558 99.7481 123.558C100.401 123.558 100.91 123.427 101.274 123.166C101.638 122.895 101.82 122.531 101.82 122.074C101.82 121.626 101.652 121.271 101.316 121.01C100.98 120.749 100.439 120.618 99.6921 120.618H98.7961V119.372L101.596 116.04L101.834 116.726H96.5701V115.2H103.248V116.418L100.448 119.75L99.4961 119.19H100.042C101.246 119.19 102.147 119.461 102.744 120.002C103.351 120.534 103.654 121.22 103.654 122.06C103.654 122.611 103.514 123.119 103.234 123.586C102.954 124.053 102.525 124.431 101.946 124.72C101.377 125 100.653 125.14 99.7761 125.14Z" fill="white"/>
<path opacity="0.9" d="M127.696 125.14C127.005 125.14 126.329 125.042 125.666 124.846C125.013 124.641 124.462 124.361 124.014 124.006L124.798 122.592C125.153 122.881 125.582 123.115 126.086 123.292C126.59 123.469 127.117 123.558 127.668 123.558C128.321 123.558 128.83 123.427 129.194 123.166C129.558 122.895 129.74 122.531 129.74 122.074C129.74 121.626 129.572 121.271 129.236 121.01C128.9 120.749 128.359 120.618 127.612 120.618H126.716V119.372L129.516 116.04L129.754 116.726H124.49V115.2H131.168V116.418L128.368 119.75L127.416 119.19H127.962C129.166 119.19 130.067 119.461 130.664 120.002C131.271 120.534 131.574 121.22 131.574 122.06C131.574 122.611 131.434 123.119 131.154 123.586C130.874 124.053 130.445 124.431 129.866 124.72C129.297 125 128.573 125.14 127.696 125.14ZM132.624 122.774V121.514L137.454 115.2H139.4L134.64 121.514L133.73 121.234H141.5V122.774H132.624ZM138 125V122.774L138.056 121.234V119.26H139.764V125H138Z" fill="white"/>
<path opacity="0.9" d="M163.696 125.14C163.005 125.14 162.329 125.042 161.666 124.846C161.013 124.641 160.462 124.361 160.014 124.006L160.798 122.592C161.153 122.881 161.582 123.115 162.086 123.292C162.59 123.469 163.117 123.558 163.668 123.558C164.321 123.558 164.83 123.427 165.194 123.166C165.558 122.895 165.74 122.531 165.74 122.074C165.74 121.626 165.572 121.271 165.236 121.01C164.9 120.749 164.359 120.618 163.612 120.618H162.716V119.372L165.516 116.04L165.754 116.726H160.49V115.2H167.168V116.418L164.368 119.75L163.416 119.19H163.962C165.166 119.19 166.067 119.461 166.664 120.002C167.271 120.534 167.574 121.22 167.574 122.06C167.574 122.611 167.434 123.119 167.154 123.586C166.874 124.053 166.445 124.431 165.866 124.72C165.297 125 164.573 125.14 163.696 125.14ZM171.876 125.14C171.185 125.14 170.508 125.042 169.846 124.846C169.192 124.641 168.642 124.361 168.194 124.006L168.964 122.592C169.318 122.881 169.748 123.115 170.252 123.292C170.765 123.469 171.297 123.558 171.848 123.558C172.492 123.558 172.996 123.423 173.36 123.152C173.733 122.881 173.92 122.517 173.92 122.06C173.92 121.752 173.84 121.481 173.682 121.248C173.532 121.015 173.262 120.837 172.87 120.716C172.487 120.595 171.96 120.534 171.288 120.534H168.922L169.426 115.2H175.18V116.726H170.098L171.05 115.858L170.672 119.848L169.72 118.994H171.694C172.664 118.994 173.444 119.125 174.032 119.386C174.629 119.638 175.063 119.993 175.334 120.45C175.614 120.898 175.754 121.411 175.754 121.99C175.754 122.559 175.614 123.082 175.334 123.558C175.054 124.034 174.624 124.417 174.046 124.706C173.476 124.995 172.753 125.14 171.876 125.14Z" fill="white"/>
<path opacity="0.9" d="M199.696 125.14C199.005 125.14 198.329 125.042 197.666 124.846C197.013 124.641 196.462 124.361 196.014 124.006L196.798 122.592C197.153 122.881 197.582 123.115 198.086 123.292C198.59 123.469 199.117 123.558 199.668 123.558C200.321 123.558 200.83 123.427 201.194 123.166C201.558 122.895 201.74 122.531 201.74 122.074C201.74 121.626 201.572 121.271 201.236 121.01C200.9 120.749 200.359 120.618 199.612 120.618H198.716V119.372L201.516 116.04L201.754 116.726H196.49V115.2H203.168V116.418L200.368 119.75L199.416 119.19H199.962C201.166 119.19 202.067 119.461 202.664 120.002C203.271 120.534 203.574 121.22 203.574 122.06C203.574 122.611 203.434 123.119 203.154 123.586C202.874 124.053 202.445 124.431 201.866 124.72C201.297 125 200.573 125.14 199.696 125.14ZM209.006 125.14C208.12 125.14 207.359 124.953 206.724 124.58C206.09 124.197 205.604 123.647 205.268 122.928C204.932 122.209 204.764 121.323 204.764 120.268C204.764 119.148 204.965 118.201 205.366 117.426C205.777 116.651 206.342 116.063 207.06 115.662C207.788 115.261 208.624 115.06 209.566 115.06C210.061 115.06 210.532 115.111 210.98 115.214C211.438 115.317 211.825 115.475 212.142 115.69L211.47 117.062C211.2 116.885 210.906 116.763 210.588 116.698C210.28 116.623 209.954 116.586 209.608 116.586C208.684 116.586 207.952 116.871 207.41 117.44C206.869 118.009 206.598 118.849 206.598 119.96C206.598 120.137 206.603 120.347 206.612 120.59C206.622 120.823 206.654 121.061 206.71 121.304L206.15 120.688C206.318 120.305 206.547 119.988 206.836 119.736C207.135 119.475 207.485 119.279 207.886 119.148C208.297 119.017 208.74 118.952 209.216 118.952C209.86 118.952 210.434 119.078 210.938 119.33C211.442 119.573 211.844 119.923 212.142 120.38C212.441 120.828 212.59 121.355 212.59 121.962C212.59 122.606 212.432 123.166 212.114 123.642C211.797 124.118 211.368 124.487 210.826 124.748C210.285 125.009 209.678 125.14 209.006 125.14ZM208.908 123.712C209.282 123.712 209.613 123.647 209.902 123.516C210.192 123.376 210.416 123.18 210.574 122.928C210.742 122.676 210.826 122.382 210.826 122.046C210.826 121.533 210.649 121.127 210.294 120.828C209.94 120.529 209.464 120.38 208.866 120.38C208.474 120.38 208.129 120.455 207.83 120.604C207.541 120.744 207.308 120.94 207.13 121.192C206.962 121.444 206.878 121.733 206.878 122.06C206.878 122.359 206.958 122.634 207.116 122.886C207.275 123.138 207.504 123.339 207.802 123.488C208.11 123.637 208.479 123.712 208.908 123.712Z" fill="white"/>
<path opacity="0.9" d="M235.696 125.14C235.005 125.14 234.329 125.042 233.666 124.846C233.013 124.641 232.462 124.361 232.014 124.006L232.798 122.592C233.153 122.881 233.582 123.115 234.086 123.292C234.59 123.469 235.117 123.558 235.668 123.558C236.321 123.558 236.83 123.427 237.194 123.166C237.558 122.895 237.74 122.531 237.74 122.074C237.74 121.626 237.572 121.271 237.236 121.01C236.9 120.749 236.359 120.618 235.612 120.618H234.716V119.372L237.516 116.04L237.754 116.726H232.49V115.2H239.168V116.418L236.368 119.75L235.416 119.19H235.962C237.166 119.19 238.067 119.461 238.664 120.002C239.271 120.534 239.574 121.22 239.574 122.06C239.574 122.611 239.434 123.119 239.154 123.586C238.874 124.053 238.445 124.431 237.866 124.72C237.297 125 236.573 125.14 235.696 125.14ZM242.266 125L246.312 115.928L246.788 116.74H241.23L242.098 115.858V118.406H240.404V115.2H248.02V116.418L244.212 125H242.266Z" fill="white"/>
<path opacity="0.9" d="M271.696 125.14C271.005 125.14 270.329 125.042 269.666 124.846C269.013 124.641 268.462 124.361 268.014 124.006L268.798 122.592C269.153 122.881 269.582 123.115 270.086 123.292C270.59 123.469 271.117 123.558 271.668 123.558C272.321 123.558 272.83 123.427 273.194 123.166C273.558 122.895 273.74 122.531 273.74 122.074C273.74 121.626 273.572 121.271 273.236 121.01C272.9 120.749 272.359 120.618 271.612 120.618H270.716V119.372L273.516 116.04L273.754 116.726H268.49V115.2H275.168V116.418L272.368 119.75L271.416 119.19H271.962C273.166 119.19 274.067 119.461 274.664 120.002C275.271 120.534 275.574 121.22 275.574 122.06C275.574 122.611 275.434 123.119 275.154 123.586C274.874 124.053 274.445 124.431 273.866 124.72C273.297 125 272.573 125.14 271.696 125.14ZM280.698 125.14C279.886 125.14 279.182 125.019 278.584 124.776C277.987 124.533 277.525 124.193 277.198 123.754C276.872 123.306 276.708 122.783 276.708 122.186C276.708 121.589 276.867 121.085 277.184 120.674C277.502 120.263 277.959 119.951 278.556 119.736C279.154 119.521 279.868 119.414 280.698 119.414C281.529 119.414 282.243 119.521 282.84 119.736C283.447 119.951 283.909 120.268 284.226 120.688C284.553 121.099 284.716 121.598 284.716 122.186C284.716 122.783 284.548 123.306 284.212 123.754C283.886 124.193 283.419 124.533 282.812 124.776C282.215 125.019 281.51 125.14 280.698 125.14ZM280.698 123.712C281.37 123.712 281.902 123.572 282.294 123.292C282.686 123.012 282.882 122.625 282.882 122.13C282.882 121.645 282.686 121.262 282.294 120.982C281.902 120.702 281.37 120.562 280.698 120.562C280.026 120.562 279.499 120.702 279.116 120.982C278.734 121.262 278.542 121.645 278.542 122.13C278.542 122.625 278.734 123.012 279.116 123.292C279.499 123.572 280.026 123.712 280.698 123.712ZM280.698 120.366C279.942 120.366 279.294 120.268 278.752 120.072C278.211 119.867 277.791 119.573 277.492 119.19C277.203 118.798 277.058 118.331 277.058 117.79C277.058 117.23 277.208 116.749 277.506 116.348C277.814 115.937 278.244 115.62 278.794 115.396C279.345 115.172 279.98 115.06 280.698 115.06C281.426 115.06 282.066 115.172 282.616 115.396C283.167 115.62 283.596 115.937 283.904 116.348C284.212 116.749 284.366 117.23 284.366 117.79C284.366 118.331 284.217 118.798 283.918 119.19C283.629 119.573 283.209 119.867 282.658 120.072C282.108 120.268 281.454 120.366 280.698 120.366ZM280.698 119.246C281.277 119.246 281.734 119.125 282.07 118.882C282.406 118.63 282.574 118.294 282.574 117.874C282.574 117.435 282.402 117.095 282.056 116.852C281.711 116.609 281.258 116.488 280.698 116.488C280.138 116.488 279.69 116.609 279.354 116.852C279.018 117.095 278.85 117.435 278.85 117.874C278.85 118.294 279.014 118.63 279.34 118.882C279.676 119.125 280.129 119.246 280.698 119.246Z" fill="white"/>
<path opacity="0.9" d="M307.696 125.14C307.005 125.14 306.329 125.042 305.666 124.846C305.013 124.641 304.462 124.361 304.014 124.006L304.798 122.592C305.153 122.881 305.582 123.115 306.086 123.292C306.59 123.469 307.117 123.558 307.668 123.558C308.321 123.558 308.83 123.427 309.194 123.166C309.558 122.895 309.74 122.531 309.74 122.074C309.74 121.626 309.572 121.271 309.236 121.01C308.9 120.749 308.359 120.618 307.612 120.618H306.716V119.372L309.516 116.04L309.754 116.726H304.49V115.2H311.168V116.418L308.368 119.75L307.416 119.19H307.962C309.166 119.19 310.067 119.461 310.664 120.002C311.271 120.534 311.574 121.22 311.574 122.06C311.574 122.611 311.434 123.119 311.154 123.586C310.874 124.053 310.445 124.431 309.866 124.72C309.297 125 308.573 125.14 307.696 125.14ZM316.068 115.06C316.964 115.06 317.725 115.251 318.35 115.634C318.985 116.007 319.47 116.553 319.806 117.272C320.142 117.991 320.31 118.877 320.31 119.932C320.31 121.052 320.105 121.999 319.694 122.774C319.293 123.549 318.733 124.137 318.014 124.538C317.296 124.939 316.46 125.14 315.508 125.14C315.014 125.14 314.542 125.089 314.094 124.986C313.646 124.883 313.259 124.725 312.932 124.51L313.604 123.138C313.875 123.315 314.169 123.441 314.486 123.516C314.804 123.581 315.13 123.614 315.466 123.614C316.39 123.614 317.123 123.329 317.664 122.76C318.206 122.191 318.476 121.351 318.476 120.24C318.476 120.063 318.472 119.857 318.462 119.624C318.453 119.381 318.42 119.139 318.364 118.896L318.924 119.512C318.766 119.895 318.537 120.217 318.238 120.478C317.94 120.73 317.59 120.921 317.188 121.052C316.787 121.183 316.344 121.248 315.858 121.248C315.224 121.248 314.65 121.127 314.136 120.884C313.632 120.632 313.231 120.282 312.932 119.834C312.634 119.377 312.484 118.845 312.484 118.238C312.484 117.585 312.643 117.025 312.96 116.558C313.278 116.082 313.707 115.713 314.248 115.452C314.799 115.191 315.406 115.06 316.068 115.06ZM316.166 116.488C315.793 116.488 315.462 116.558 315.172 116.698C314.883 116.829 314.654 117.02 314.486 117.272C314.328 117.515 314.248 117.809 314.248 118.154C314.248 118.667 314.426 119.073 314.78 119.372C315.135 119.671 315.611 119.82 316.208 119.82C316.6 119.82 316.946 119.75 317.244 119.61C317.543 119.461 317.776 119.26 317.944 119.008C318.112 118.747 318.196 118.457 318.196 118.14C318.196 117.832 318.117 117.557 317.958 117.314C317.8 117.062 317.571 116.861 317.272 116.712C316.974 116.563 316.605 116.488 316.166 116.488Z" fill="white"/>
<path opacity="0.9" d="M339.476 122.774V121.514L344.306 115.2H346.252L341.492 121.514L340.582 121.234H348.352V122.774H339.476ZM344.852 125V122.774L344.908 121.234V119.26H346.616V125H344.852ZM353.206 125.14C352.431 125.14 351.731 124.944 351.106 124.552C350.49 124.16 350.005 123.591 349.65 122.844C349.295 122.088 349.118 121.173 349.118 120.1C349.118 119.027 349.295 118.117 349.65 117.37C350.005 116.614 350.49 116.04 351.106 115.648C351.731 115.256 352.431 115.06 353.206 115.06C353.99 115.06 354.69 115.256 355.306 115.648C355.922 116.04 356.407 116.614 356.762 117.37C357.126 118.117 357.308 119.027 357.308 120.1C357.308 121.173 357.126 122.088 356.762 122.844C356.407 123.591 355.922 124.16 355.306 124.552C354.69 124.944 353.99 125.14 353.206 125.14ZM353.206 123.558C353.663 123.558 354.06 123.437 354.396 123.194C354.732 122.942 354.993 122.559 355.18 122.046C355.376 121.533 355.474 120.884 355.474 120.1C355.474 119.307 355.376 118.658 355.18 118.154C354.993 117.641 354.732 117.263 354.396 117.02C354.06 116.768 353.663 116.642 353.206 116.642C352.767 116.642 352.375 116.768 352.03 117.02C351.694 117.263 351.428 117.641 351.232 118.154C351.045 118.658 350.952 119.307 350.952 120.1C350.952 120.884 351.045 121.533 351.232 122.046C351.428 122.559 351.694 122.942 352.03 123.194C352.375 123.437 352.767 123.558 353.206 123.558Z" fill="white"/>
<path opacity="0.9" d="M21.184 61V51.9L21.982 52.726H19.112V51.2H23.004V61H21.184ZM26.516 61V51.9L27.314 52.726H24.444V51.2H28.336V61H26.516Z" fill="white"/>
<rect x="9" y="145" width="356" height="70" rx="10" fill="#1D2036"/>
<path d="M89.354 180.14C88.5887 180.14 87.856 180.033 87.156 179.818C86.456 179.594 85.9007 179.309 85.49 178.964L86.12 177.55C86.512 177.858 86.9973 178.115 87.576 178.32C88.1547 178.525 88.7473 178.628 89.354 178.628C89.8673 178.628 90.2827 178.572 90.6 178.46C90.9173 178.348 91.1507 178.199 91.3 178.012C91.4493 177.816 91.524 177.597 91.524 177.354C91.524 177.055 91.4167 176.817 91.202 176.64C90.9873 176.453 90.7073 176.309 90.362 176.206C90.026 176.094 89.648 175.991 89.228 175.898C88.8173 175.805 88.402 175.697 87.982 175.576C87.5713 175.445 87.1933 175.282 86.848 175.086C86.512 174.881 86.2367 174.61 86.022 174.274C85.8073 173.938 85.7 173.509 85.7 172.986C85.7 172.454 85.84 171.969 86.12 171.53C86.4093 171.082 86.8433 170.727 87.422 170.466C88.01 170.195 88.752 170.06 89.648 170.06C90.236 170.06 90.8193 170.135 91.398 170.284C91.9767 170.433 92.4807 170.648 92.91 170.928L92.336 172.342C91.8973 172.081 91.4447 171.889 90.978 171.768C90.5113 171.637 90.0633 171.572 89.634 171.572C89.13 171.572 88.7193 171.633 88.402 171.754C88.094 171.875 87.8653 172.034 87.716 172.23C87.576 172.426 87.506 172.65 87.506 172.902C87.506 173.201 87.6087 173.443 87.814 173.63C88.0287 173.807 88.304 173.947 88.64 174.05C88.9853 174.153 89.368 174.255 89.788 174.358C90.208 174.451 90.6233 174.559 91.034 174.68C91.454 174.801 91.832 174.96 92.168 175.156C92.5133 175.352 92.7887 175.618 92.994 175.954C93.2087 176.29 93.316 176.715 93.316 177.228C93.316 177.751 93.1713 178.236 92.882 178.684C92.602 179.123 92.168 179.477 91.58 179.748C90.992 180.009 90.25 180.14 89.354 180.14ZM98.4667 180.098C97.636 180.098 96.908 179.935 96.2827 179.608C95.6667 179.272 95.186 178.815 94.8407 178.236C94.5047 177.657 94.3367 176.999 94.3367 176.262C94.3367 175.515 94.5 174.857 94.8267 174.288C95.1627 173.709 95.62 173.257 96.1987 172.93C96.7867 172.603 97.454 172.44 98.2007 172.44C98.9287 172.44 99.5774 172.599 100.147 172.916C100.716 173.233 101.164 173.681 101.491 174.26C101.817 174.839 101.981 175.52 101.981 176.304C101.981 176.379 101.976 176.463 101.967 176.556C101.967 176.649 101.962 176.738 101.953 176.822H95.7227V175.66H101.029L100.343 176.024C100.352 175.595 100.263 175.217 100.077 174.89C99.89 174.563 99.6334 174.307 99.3067 174.12C98.9894 173.933 98.6207 173.84 98.2007 173.84C97.7714 173.84 97.3934 173.933 97.0667 174.12C96.7494 174.307 96.4974 174.568 96.3107 174.904C96.1334 175.231 96.0447 175.618 96.0447 176.066V176.346C96.0447 176.794 96.1474 177.191 96.3527 177.536C96.558 177.881 96.8474 178.147 97.2207 178.334C97.594 178.521 98.0234 178.614 98.5087 178.614C98.9287 178.614 99.3067 178.549 99.6427 178.418C99.9787 178.287 100.277 178.082 100.539 177.802L101.477 178.88C101.141 179.272 100.716 179.575 100.203 179.79C99.6987 179.995 99.12 180.098 98.4667 180.098ZM103.662 180V169.612H105.412V180H103.662ZM111.223 180.098C110.392 180.098 109.664 179.935 109.039 179.608C108.423 179.272 107.942 178.815 107.597 178.236C107.261 177.657 107.093 176.999 107.093 176.262C107.093 175.515 107.256 174.857 107.583 174.288C107.919 173.709 108.376 173.257 108.955 172.93C109.543 172.603 110.21 172.44 110.957 172.44C111.685 172.44 112.333 172.599 112.903 172.916C113.472 173.233 113.92 173.681 114.247 174.26C114.573 174.839 114.737 175.52 114.737 176.304C114.737 176.379 114.732 176.463 114.723 176.556C114.723 176.649 114.718 176.738 114.709 176.822H108.479V175.66H113.785L113.099 176.024C113.108 175.595 113.019 175.217 112.833 174.89C112.646 174.563 112.389 174.307 112.063 174.12C111.745 173.933 111.377 173.84 110.957 173.84C110.527 173.84 110.149 173.933 109.823 174.12C109.505 174.307 109.253 174.568 109.067 174.904C108.889 175.231 108.801 175.618 108.801 176.066V176.346C108.801 176.794 108.903 177.191 109.109 177.536C109.314 177.881 109.603 178.147 109.977 178.334C110.35 178.521 110.779 178.614 111.265 178.614C111.685 178.614 112.063 178.549 112.399 178.418C112.735 178.287 113.033 178.082 113.295 177.802L114.233 178.88C113.897 179.272 113.472 179.575 112.959 179.79C112.455 179.995 111.876 180.098 111.223 180.098ZM119.848 180.098C119.064 180.098 118.364 179.935 117.748 179.608C117.141 179.272 116.665 178.815 116.32 178.236C115.974 177.657 115.802 176.999 115.802 176.262C115.802 175.515 115.974 174.857 116.32 174.288C116.665 173.709 117.141 173.257 117.748 172.93C118.364 172.603 119.064 172.44 119.848 172.44C120.576 172.44 121.215 172.589 121.766 172.888C122.326 173.177 122.75 173.607 123.04 174.176L121.696 174.96C121.472 174.605 121.196 174.344 120.87 174.176C120.552 174.008 120.207 173.924 119.834 173.924C119.404 173.924 119.017 174.017 118.672 174.204C118.326 174.391 118.056 174.661 117.86 175.016C117.664 175.361 117.566 175.777 117.566 176.262C117.566 176.747 117.664 177.167 117.86 177.522C118.056 177.867 118.326 178.133 118.672 178.32C119.017 178.507 119.404 178.6 119.834 178.6C120.207 178.6 120.552 178.516 120.87 178.348C121.196 178.18 121.472 177.919 121.696 177.564L123.04 178.348C122.75 178.908 122.326 179.342 121.766 179.65C121.215 179.949 120.576 180.098 119.848 180.098ZM127.462 180.098C126.641 180.098 126.006 179.888 125.558 179.468C125.11 179.039 124.886 178.409 124.886 177.578V170.872H126.636V177.536C126.636 177.891 126.725 178.166 126.902 178.362C127.089 178.558 127.345 178.656 127.672 178.656C128.064 178.656 128.391 178.553 128.652 178.348L129.142 179.594C128.937 179.762 128.685 179.888 128.386 179.972C128.087 180.056 127.779 180.098 127.462 180.098ZM123.654 173.98V172.58H128.638V173.98H123.654ZM135.487 180V170.9L136.285 171.726H133.415V170.2H137.307V180H135.487ZM143.274 176.836V175.38H147.124V176.836H143.274ZM153.944 180V170.9L154.742 171.726H151.872V170.2H155.764V180H153.944ZM161.796 180.14C161.021 180.14 160.321 179.944 159.696 179.552C159.08 179.16 158.594 178.591 158.24 177.844C157.885 177.088 157.708 176.173 157.708 175.1C157.708 174.027 157.885 173.117 158.24 172.37C158.594 171.614 159.08 171.04 159.696 170.648C160.321 170.256 161.021 170.06 161.796 170.06C162.58 170.06 163.28 170.256 163.896 170.648C164.512 171.04 164.997 171.614 165.352 172.37C165.716 173.117 165.898 174.027 165.898 175.1C165.898 176.173 165.716 177.088 165.352 177.844C164.997 178.591 164.512 179.16 163.896 179.552C163.28 179.944 162.58 180.14 161.796 180.14ZM161.796 178.558C162.253 178.558 162.65 178.437 162.986 178.194C163.322 177.942 163.583 177.559 163.77 177.046C163.966 176.533 164.064 175.884 164.064 175.1C164.064 174.307 163.966 173.658 163.77 173.154C163.583 172.641 163.322 172.263 162.986 172.02C162.65 171.768 162.253 171.642 161.796 171.642C161.357 171.642 160.965 171.768 160.62 172.02C160.284 172.263 160.018 172.641 159.822 173.154C159.635 173.658 159.542 174.307 159.542 175.1C159.542 175.884 159.635 176.533 159.822 177.046C160.018 177.559 160.284 177.942 160.62 178.194C160.965 178.437 161.357 178.558 161.796 178.558ZM175.771 172.44C176.368 172.44 176.9 172.557 177.367 172.79C177.843 173.023 178.216 173.383 178.487 173.868C178.758 174.344 178.893 174.96 178.893 175.716V180H177.143V175.94C177.143 175.277 176.984 174.783 176.667 174.456C176.359 174.129 175.925 173.966 175.365 173.966C174.954 173.966 174.59 174.05 174.273 174.218C173.956 174.386 173.708 174.638 173.531 174.974C173.363 175.301 173.279 175.716 173.279 176.22V180H171.529V172.524H173.195V174.54L172.901 173.924C173.162 173.448 173.54 173.084 174.035 172.832C174.539 172.571 175.118 172.44 175.771 172.44ZM184.277 180.098C183.642 180.098 183.082 179.981 182.597 179.748C182.112 179.505 181.734 179.141 181.463 178.656C181.192 178.161 181.057 177.541 181.057 176.794V172.524H182.807V176.556C182.807 177.228 182.956 177.732 183.255 178.068C183.563 178.395 183.997 178.558 184.557 178.558C184.968 178.558 185.322 178.474 185.621 178.306C185.929 178.138 186.167 177.886 186.335 177.55C186.512 177.214 186.601 176.799 186.601 176.304V172.524H188.351V180H186.685V177.984L186.979 178.6C186.727 179.085 186.358 179.459 185.873 179.72C185.388 179.972 184.856 180.098 184.277 180.098ZM200.078 172.44C200.675 172.44 201.203 172.557 201.66 172.79C202.127 173.023 202.491 173.383 202.752 173.868C203.013 174.344 203.144 174.96 203.144 175.716V180H201.394V175.94C201.394 175.277 201.249 174.783 200.96 174.456C200.671 174.129 200.255 173.966 199.714 173.966C199.331 173.966 198.991 174.05 198.692 174.218C198.403 174.386 198.174 174.633 198.006 174.96C197.847 175.287 197.768 175.702 197.768 176.206V180H196.018V175.94C196.018 175.277 195.873 174.783 195.584 174.456C195.295 174.129 194.879 173.966 194.338 173.966C193.955 173.966 193.615 174.05 193.316 174.218C193.027 174.386 192.798 174.633 192.63 174.96C192.471 175.287 192.392 175.702 192.392 176.206V180H190.642V172.524H192.308V174.512L192.014 173.924C192.266 173.439 192.63 173.07 193.106 172.818C193.591 172.566 194.142 172.44 194.758 172.44C195.458 172.44 196.065 172.613 196.578 172.958C197.101 173.303 197.446 173.826 197.614 174.526L196.928 174.288C197.171 173.728 197.572 173.28 198.132 172.944C198.692 172.608 199.341 172.44 200.078 172.44ZM209.524 180.098C208.89 180.098 208.325 179.958 207.83 179.678C207.336 179.398 206.944 178.978 206.654 178.418C206.374 177.849 206.234 177.13 206.234 176.262C206.234 175.385 206.379 174.666 206.668 174.106C206.967 173.546 207.364 173.131 207.858 172.86C208.362 172.58 208.918 172.44 209.524 172.44C210.262 172.44 210.91 172.599 211.47 172.916C212.04 173.233 212.488 173.677 212.814 174.246C213.15 174.815 213.318 175.487 213.318 176.262C213.318 177.037 213.15 177.709 212.814 178.278C212.488 178.847 212.04 179.295 211.47 179.622C210.91 179.939 210.262 180.098 209.524 180.098ZM205.38 180V169.612H207.13V174.26L206.99 176.248L207.046 178.236V180H205.38ZM209.328 178.6C209.748 178.6 210.122 178.507 210.448 178.32C210.784 178.133 211.05 177.863 211.246 177.508C211.442 177.153 211.54 176.738 211.54 176.262C211.54 175.777 211.442 175.361 211.246 175.016C211.05 174.661 210.784 174.391 210.448 174.204C210.122 174.017 209.748 173.924 209.328 173.924C208.908 173.924 208.53 174.017 208.194 174.204C207.858 174.391 207.592 174.661 207.396 175.016C207.2 175.361 207.102 175.777 207.102 176.262C207.102 176.738 207.2 177.153 207.396 177.508C207.592 177.863 207.858 178.133 208.194 178.32C208.53 178.507 208.908 178.6 209.328 178.6ZM218.492 180.098C217.661 180.098 216.933 179.935 216.308 179.608C215.692 179.272 215.211 178.815 214.866 178.236C214.53 177.657 214.362 176.999 214.362 176.262C214.362 175.515 214.525 174.857 214.852 174.288C215.188 173.709 215.645 173.257 216.224 172.93C216.812 172.603 217.479 172.44 218.226 172.44C218.954 172.44 219.603 172.599 220.172 172.916C220.741 173.233 221.189 173.681 221.516 174.26C221.843 174.839 222.006 175.52 222.006 176.304C222.006 176.379 222.001 176.463 221.992 176.556C221.992 176.649 221.987 176.738 221.978 176.822H215.748V175.66H221.054L220.368 176.024C220.377 175.595 220.289 175.217 220.102 174.89C219.915 174.563 219.659 174.307 219.332 174.12C219.015 173.933 218.646 173.84 218.226 173.84C217.797 173.84 217.419 173.933 217.092 174.12C216.775 174.307 216.523 174.568 216.336 174.904C216.159 175.231 216.07 175.618 216.07 176.066V176.346C216.07 176.794 216.173 177.191 216.378 177.536C216.583 177.881 216.873 178.147 217.246 178.334C217.619 178.521 218.049 178.614 218.534 178.614C218.954 178.614 219.332 178.549 219.668 178.418C220.004 178.287 220.303 178.082 220.564 177.802L221.502 178.88C221.166 179.272 220.741 179.575 220.228 179.79C219.724 179.995 219.145 180.098 218.492 180.098ZM223.687 180V172.524H225.353V174.582L225.157 173.98C225.381 173.476 225.731 173.093 226.207 172.832C226.692 172.571 227.294 172.44 228.013 172.44V174.106C227.938 174.087 227.868 174.078 227.803 174.078C227.738 174.069 227.672 174.064 227.607 174.064C226.944 174.064 226.417 174.26 226.025 174.652C225.633 175.035 225.437 175.609 225.437 176.374V180H223.687ZM231.876 180.098C231.251 180.098 230.649 180.019 230.07 179.86C229.501 179.692 229.048 179.491 228.712 179.258L229.384 177.928C229.72 178.143 230.121 178.32 230.588 178.46C231.055 178.6 231.521 178.67 231.988 178.67C232.539 178.67 232.935 178.595 233.178 178.446C233.43 178.297 233.556 178.096 233.556 177.844C233.556 177.639 233.472 177.485 233.304 177.382C233.136 177.27 232.917 177.186 232.646 177.13C232.375 177.074 232.072 177.023 231.736 176.976C231.409 176.929 231.078 176.869 230.742 176.794C230.415 176.71 230.117 176.593 229.846 176.444C229.575 176.285 229.356 176.075 229.188 175.814C229.02 175.553 228.936 175.207 228.936 174.778C228.936 174.302 229.071 173.891 229.342 173.546C229.613 173.191 229.991 172.921 230.476 172.734C230.971 172.538 231.554 172.44 232.226 172.44C232.73 172.44 233.239 172.496 233.752 172.608C234.265 172.72 234.69 172.879 235.026 173.084L234.354 174.414C233.999 174.199 233.64 174.055 233.276 173.98C232.921 173.896 232.567 173.854 232.212 173.854C231.68 173.854 231.283 173.933 231.022 174.092C230.77 174.251 230.644 174.451 230.644 174.694C230.644 174.918 230.728 175.086 230.896 175.198C231.064 175.31 231.283 175.399 231.554 175.464C231.825 175.529 232.123 175.585 232.45 175.632C232.786 175.669 233.117 175.73 233.444 175.814C233.771 175.898 234.069 176.015 234.34 176.164C234.62 176.304 234.844 176.505 235.012 176.766C235.18 177.027 235.264 177.368 235.264 177.788C235.264 178.255 235.124 178.661 234.844 179.006C234.573 179.351 234.186 179.622 233.682 179.818C233.178 180.005 232.576 180.098 231.876 180.098ZM243.454 180.098C242.633 180.098 241.998 179.888 241.55 179.468C241.102 179.039 240.878 178.409 240.878 177.578V170.872H242.628V177.536C242.628 177.891 242.717 178.166 242.894 178.362C243.081 178.558 243.338 178.656 243.664 178.656C244.056 178.656 244.383 178.553 244.644 178.348L245.134 179.594C244.929 179.762 244.677 179.888 244.378 179.972C244.08 180.056 243.772 180.098 243.454 180.098ZM239.646 173.98V172.58H244.63V173.98H239.646ZM249.688 180.098C248.922 180.098 248.241 179.935 247.644 179.608C247.046 179.272 246.575 178.815 246.23 178.236C245.884 177.657 245.712 176.999 245.712 176.262C245.712 175.515 245.884 174.857 246.23 174.288C246.575 173.709 247.046 173.257 247.644 172.93C248.241 172.603 248.922 172.44 249.688 172.44C250.462 172.44 251.148 172.603 251.746 172.93C252.352 173.257 252.824 173.705 253.16 174.274C253.505 174.843 253.678 175.506 253.678 176.262C253.678 176.999 253.505 177.657 253.16 178.236C252.824 178.815 252.352 179.272 251.746 179.608C251.148 179.935 250.462 180.098 249.688 180.098ZM249.688 178.6C250.117 178.6 250.5 178.507 250.836 178.32C251.172 178.133 251.433 177.863 251.62 177.508C251.816 177.153 251.914 176.738 251.914 176.262C251.914 175.777 251.816 175.361 251.62 175.016C251.433 174.661 251.172 174.391 250.836 174.204C250.5 174.017 250.122 173.924 249.702 173.924C249.272 173.924 248.89 174.017 248.554 174.204C248.227 174.391 247.966 174.661 247.77 175.016C247.574 175.361 247.476 175.777 247.476 176.262C247.476 176.738 247.574 177.153 247.77 177.508C247.966 177.863 248.227 178.133 248.554 178.32C248.89 178.507 249.268 178.6 249.688 178.6ZM263.364 180.098C262.758 180.098 262.202 179.958 261.698 179.678C261.204 179.398 260.807 178.978 260.508 178.418C260.219 177.849 260.074 177.13 260.074 176.262C260.074 175.385 260.214 174.666 260.494 174.106C260.784 173.546 261.176 173.131 261.67 172.86C262.165 172.58 262.73 172.44 263.364 172.44C264.102 172.44 264.75 172.599 265.31 172.916C265.88 173.233 266.328 173.677 266.654 174.246C266.99 174.815 267.158 175.487 267.158 176.262C267.158 177.037 266.99 177.713 266.654 178.292C266.328 178.861 265.88 179.305 265.31 179.622C264.75 179.939 264.102 180.098 263.364 180.098ZM259.22 182.716V172.524H260.886V174.288L260.83 176.276L260.97 178.264V182.716H259.22ZM263.168 178.6C263.588 178.6 263.962 178.507 264.288 178.32C264.624 178.133 264.89 177.863 265.086 177.508C265.282 177.153 265.38 176.738 265.38 176.262C265.38 175.777 265.282 175.361 265.086 175.016C264.89 174.661 264.624 174.391 264.288 174.204C263.962 174.017 263.588 173.924 263.168 173.924C262.748 173.924 262.37 174.017 262.034 174.204C261.698 174.391 261.432 174.661 261.236 175.016C261.04 175.361 260.942 175.777 260.942 176.262C260.942 176.738 261.04 177.153 261.236 177.508C261.432 177.863 261.698 178.133 262.034 178.32C262.37 178.507 262.748 178.6 263.168 178.6ZM268.818 180V169.612H270.568V180H268.818ZM277.471 180V178.488L277.373 178.166V175.52C277.373 175.007 277.219 174.61 276.911 174.33C276.603 174.041 276.136 173.896 275.511 173.896C275.091 173.896 274.675 173.961 274.265 174.092C273.863 174.223 273.523 174.405 273.243 174.638L272.557 173.364C272.958 173.056 273.434 172.827 273.985 172.678C274.545 172.519 275.123 172.44 275.721 172.44C276.803 172.44 277.639 172.701 278.227 173.224C278.824 173.737 279.123 174.535 279.123 175.618V180H277.471ZM275.119 180.098C274.559 180.098 274.069 180.005 273.649 179.818C273.229 179.622 272.902 179.356 272.669 179.02C272.445 178.675 272.333 178.287 272.333 177.858C272.333 177.438 272.431 177.06 272.627 176.724C272.832 176.388 273.163 176.122 273.621 175.926C274.078 175.73 274.685 175.632 275.441 175.632H277.611V176.794H275.567C274.969 176.794 274.568 176.892 274.363 177.088C274.157 177.275 274.055 177.508 274.055 177.788C274.055 178.105 274.181 178.357 274.433 178.544C274.685 178.731 275.035 178.824 275.483 178.824C275.912 178.824 276.295 178.726 276.631 178.53C276.976 178.334 277.223 178.045 277.373 177.662L277.667 178.712C277.499 179.151 277.195 179.491 276.757 179.734C276.327 179.977 275.781 180.098 275.119 180.098ZM281.848 182.814C281.484 182.814 281.12 182.753 280.756 182.632C280.392 182.511 280.089 182.343 279.846 182.128L280.546 180.84C280.723 180.999 280.924 181.125 281.148 181.218C281.372 181.311 281.601 181.358 281.834 181.358C282.151 181.358 282.408 181.279 282.604 181.12C282.8 180.961 282.982 180.695 283.15 180.322L283.584 179.342L283.724 179.132L286.552 172.524H288.232L284.732 180.602C284.499 181.162 284.237 181.605 283.948 181.932C283.668 182.259 283.351 182.487 282.996 182.618C282.651 182.749 282.268 182.814 281.848 182.814ZM283.388 180.266L280.014 172.524H281.834L284.578 178.978L283.388 180.266Z" fill="white"/>
<line x1="20.5" y1="198.5" x2="353.5" y2="198.5" stroke="#3475E3" stroke-width="3" stroke-linecap="round"/>
</svg>
