<svg width="706" height="372" viewBox="0 0 706 372" fill="none" xmlns="http://www.w3.org/2000/svg">
<rect width="706" height="372" rx="10" fill="#2E3565"/>
<path d="M584.111 31.2127L584.451 30.5444L584.111 31.2127ZM582.29 29.3918L582.958 29.0513L582.29 29.3918ZM599.715 29.3918L599.047 29.0513L599.715 29.3918ZM597.894 31.2127L597.554 30.5444L597.894 31.2127ZM597.894 18.7876L597.554 19.4559L597.894 18.7876ZM599.715 20.6085L599.047 20.949L599.715 20.6085ZM584.111 18.7876L584.451 19.4559L584.111 18.7876ZM582.29 20.6085L582.958 20.949L582.29 20.6085ZM587.669 26.7502C587.255 26.7502 586.919 27.0859 586.919 27.5002C586.919 27.9144 587.255 28.2502 587.669 28.2502V26.7502ZM594.336 28.2502C594.75 28.2502 595.086 27.9144 595.086 27.5002C595.086 27.0859 594.75 26.7502 594.336 26.7502V28.2502ZM594.336 21.7502C593.922 21.7502 593.586 22.0859 593.586 22.5002C593.586 22.9144 593.922 23.2502 594.336 23.2502V21.7502ZM597.669 23.2502C598.083 23.2502 598.419 22.9144 598.419 22.5002C598.419 22.0859 598.083 21.7502 597.669 21.7502V23.2502ZM588.503 19.0835H593.503V17.5835H588.503V19.0835ZM593.503 30.9168H588.503V32.4168H593.503V30.9168ZM588.503 30.9168C587.323 30.9168 586.484 30.9162 585.827 30.8626C585.179 30.8096 584.774 30.7087 584.451 30.5444L583.77 31.8809C584.339 32.1709 584.964 32.297 585.705 32.3576C586.437 32.4174 587.348 32.4168 588.503 32.4168V30.9168ZM581.086 25.0002C581.086 26.1546 581.085 27.0655 581.145 27.7979C581.206 28.5391 581.332 29.1633 581.622 29.7323L582.958 29.0513C582.794 28.729 582.693 28.3242 582.64 27.6757C582.587 27.0186 582.586 26.1793 582.586 25.0002H581.086ZM584.451 30.5444C583.809 30.2169 583.286 29.6942 582.958 29.0513L581.622 29.7323C582.093 30.6574 582.845 31.4096 583.77 31.8809L584.451 30.5444ZM599.419 25.0002C599.419 26.1793 599.419 27.0186 599.365 27.6757C599.312 28.3242 599.211 28.729 599.047 29.0513L600.383 29.7323C600.673 29.1633 600.799 28.5391 600.86 27.7979C600.92 27.0655 600.919 26.1546 600.919 25.0002H599.419ZM593.503 32.4168C594.657 32.4168 595.568 32.4174 596.3 32.3576C597.042 32.297 597.666 32.1709 598.235 31.8809L597.554 30.5444C597.231 30.7087 596.827 30.8096 596.178 30.8626C595.521 30.9162 594.682 30.9168 593.503 30.9168V32.4168ZM599.047 29.0513C598.719 29.6942 598.197 30.2169 597.554 30.5444L598.235 31.8809C599.16 31.4096 599.912 30.6574 600.383 29.7323L599.047 29.0513ZM593.503 19.0835C594.682 19.0835 595.521 19.0841 596.178 19.1378C596.827 19.1908 597.231 19.2917 597.554 19.4559L598.235 18.1194C597.666 17.8295 597.042 17.7033 596.3 17.6428C595.568 17.5829 594.657 17.5835 593.503 17.5835V19.0835ZM600.919 25.0002C600.919 23.8458 600.92 22.9349 600.86 22.2024C600.799 21.4612 600.673 20.837 600.383 20.268L599.047 20.949C599.211 21.2713 599.312 21.6762 599.365 22.3246C599.419 22.9818 599.419 23.821 599.419 25.0002H600.919ZM597.554 19.4559C598.197 19.7835 598.719 20.3061 599.047 20.949L600.383 20.268C599.912 19.3429 599.16 18.5908 598.235 18.1194L597.554 19.4559ZM588.503 17.5835C587.348 17.5835 586.437 17.5829 585.705 17.6428C584.964 17.7033 584.339 17.8295 583.77 18.1194L584.451 19.4559C584.774 19.2917 585.179 19.1908 585.827 19.1378C586.484 19.0841 587.323 19.0835 588.503 19.0835V17.5835ZM582.586 25.0002C582.586 23.821 582.587 22.9818 582.64 22.3246C582.693 21.6762 582.794 21.2713 582.958 20.949L581.622 20.268C581.332 20.837 581.206 21.4612 581.145 22.2024C581.085 22.9349 581.086 23.8458 581.086 25.0002H582.586ZM583.77 18.1194C582.845 18.5908 582.093 19.3429 581.622 20.268L582.958 20.949C583.286 20.3061 583.809 19.7835 584.451 19.4559L583.77 18.1194ZM587.669 28.2502H594.336V26.7502H587.669V28.2502ZM594.336 23.2502L597.669 23.2502V21.7502L594.336 21.7502V23.2502Z" fill="#9AA3D9"/>
<path d="M586.003 27.5002C586.003 27.9604 585.63 28.3335 585.169 28.3335C584.709 28.3335 584.336 27.9604 584.336 27.5002C584.336 27.0399 584.709 26.6668 585.169 26.6668C585.63 26.6668 586.003 27.0399 586.003 27.5002Z" fill="#9AA3D9"/>
<path d="M597.669 27.5002C597.669 27.9604 597.296 28.3335 596.836 28.3335C596.376 28.3335 596.003 27.9604 596.003 27.5002C596.003 27.0399 596.376 26.6668 596.836 26.6668C597.296 26.6668 597.669 27.0399 597.669 27.5002Z" fill="#9AA3D9"/>
<path d="M589.336 22.5002C589.336 22.9604 588.963 23.3335 588.503 23.3335C588.042 23.3335 587.669 22.9604 587.669 22.5002C587.669 22.0399 588.042 21.6668 588.503 21.6668C588.963 21.6668 589.336 22.0399 589.336 22.5002Z" fill="#9AA3D9"/>
<path d="M592.669 22.5002C592.669 22.9604 592.296 23.3335 591.836 23.3335C591.376 23.3335 591.003 22.9604 591.003 22.5002C591.003 22.0399 591.376 21.6668 591.836 21.6668C592.296 21.6668 592.669 22.0399 592.669 22.5002Z" fill="#9AA3D9"/>
<path d="M586.003 22.5002C586.003 22.9604 585.63 23.3335 585.169 23.3335C584.709 23.3335 584.336 22.9604 584.336 22.5002C584.336 22.0399 584.709 21.6668 585.169 21.6668C585.63 21.6668 586.003 22.0399 586.003 22.5002Z" fill="#9AA3D9"/>
<path d="M616.833 27.381L618.05 24.9001C618.665 23.647 620.472 23.7082 621 25C621.528 26.2918 623.335 26.353 623.95 25.0999L625.167 22.619M621 32.5C617.875 32.5 616.313 32.5 615.218 31.7042C614.864 31.4472 614.553 31.1362 614.296 30.7824C613.5 29.6872 613.5 28.1248 613.5 25C613.5 21.8752 613.5 20.3128 614.296 19.2176C614.553 18.8638 614.864 18.5528 615.218 18.2958C616.313 17.5 617.875 17.5 621 17.5C624.125 17.5 625.687 17.5 626.782 18.2958C627.136 18.5528 627.447 18.8638 627.704 19.2176C628.5 20.3128 628.5 21.8752 628.5 25C628.5 28.1248 628.5 29.6872 627.704 30.7824C627.447 31.1362 627.136 31.4472 626.782 31.7042C625.687 32.5 624.125 32.5 621 32.5Z" stroke="#9AA3D9" stroke-width="1.5" stroke-linecap="round"/>
<g clip-path="url(#clip0_1517_21002)">
<path d="M651.831 28.3332C651.831 28.7934 651.458 29.1665 650.997 29.1665C650.537 29.1665 650.164 28.7934 650.164 28.3332C650.164 27.8729 650.537 27.4998 650.997 27.4998C651.458 27.4998 651.831 27.8729 651.831 28.3332Z" fill="#9AA3D9"/>
<path d="M650.997 20.8332V25.8332M659.331 24.9998C659.331 29.6022 655.6 33.3332 650.997 33.3332C646.395 33.3332 642.664 29.6022 642.664 24.9998C642.664 20.3975 646.395 16.6665 650.997 16.6665C655.6 16.6665 659.331 20.3975 659.331 24.9998Z" stroke="#9AA3D9" stroke-width="1.5" stroke-linecap="round"/>
</g>
<path d="M685.165 28.1095L685.499 27.7762C685.549 27.7263 685.574 27.7014 685.594 27.68C687.166 26.063 687.166 23.4894 685.594 21.8724C685.574 21.851 685.549 21.8261 685.499 21.7762L685.165 21.4429M686.832 30.6095L687.415 30.0262C687.913 29.5285 688.162 29.2796 688.353 29.0511C690.421 26.5763 690.421 22.9761 688.353 20.5013C688.162 20.2728 687.913 20.0239 687.415 19.5262L686.832 18.9429M676.761 28.2434L677.591 28.9275C679.61 30.5911 680.619 31.4229 681.465 31.1762C681.633 31.1273 681.792 31.0522 681.937 30.9537C682.665 30.4575 682.665 29.1497 682.665 26.534V23.0184C682.665 20.4027 682.665 19.0948 681.937 18.5987C681.792 18.5002 681.633 18.4251 681.465 18.3762C680.619 18.1295 679.61 18.9613 677.591 20.6249L676.761 21.309C676.6 21.4421 676.519 21.5087 676.437 21.5696C675.773 22.0641 674.978 22.3498 674.151 22.3903C674.049 22.3952 673.945 22.3952 673.735 22.3952C673.516 22.3952 673.406 22.3952 673.313 22.4056C672.54 22.4922 671.929 23.1029 671.842 23.8766C671.832 23.969 671.832 24.0788 671.832 24.2984V25.254C671.832 25.4736 671.832 25.5834 671.842 25.6758C671.929 26.4495 672.54 27.0602 673.313 27.1468C673.406 27.1571 673.516 27.1571 673.735 27.1571C673.945 27.1571 674.049 27.1571 674.151 27.1621C674.978 27.2026 675.773 27.4883 676.437 27.9828C676.519 28.0437 676.6 28.1102 676.761 28.2434Z" stroke="#9AA3D9" stroke-width="1.5" stroke-linecap="round"/>
<rect x="28" y="308" width="650" height="52" rx="10" fill="#1D2036"/>
<path d="M178.72 331.2C177.613 331.2 176.613 330.92 175.72 330.36C174.84 329.8 174.147 328.987 173.64 327.92C173.133 326.84 172.88 325.533 172.88 324C172.88 322.467 173.133 321.167 173.64 320.1C174.147 319.02 174.84 318.2 175.72 317.64C176.613 317.08 177.613 316.8 178.72 316.8C179.84 316.8 180.84 317.08 181.72 317.64C182.6 318.2 183.293 319.02 183.8 320.1C184.32 321.167 184.58 322.467 184.58 324C184.58 325.533 184.32 326.84 183.8 327.92C183.293 328.987 182.6 329.8 181.72 330.36C180.84 330.92 179.84 331.2 178.72 331.2ZM178.72 328.94C179.373 328.94 179.94 328.767 180.42 328.42C180.9 328.06 181.273 327.513 181.54 326.78C181.82 326.047 181.96 325.12 181.96 324C181.96 322.867 181.82 321.94 181.54 321.22C181.273 320.487 180.9 319.947 180.42 319.6C179.94 319.24 179.373 319.06 178.72 319.06C178.093 319.06 177.533 319.24 177.04 319.6C176.56 319.947 176.18 320.487 175.9 321.22C175.633 321.94 175.5 322.867 175.5 324C175.5 325.12 175.633 326.047 175.9 326.78C176.18 327.513 176.56 328.06 177.04 328.42C177.533 328.767 178.093 328.94 178.72 328.94ZM185.442 331L190.142 324.88L190.102 326.22L185.622 320.32H188.402L191.542 324.52H190.482L193.642 320.32H196.342L191.822 326.22L191.842 324.88L196.522 331H193.702L190.402 326.54L191.442 326.68L188.202 331H185.442Z" fill="#90A3C7"/>
<path d="M168.704 353.14C167.929 353.14 167.229 352.944 166.604 352.552C165.988 352.16 165.503 351.591 165.148 350.844C164.793 350.088 164.616 349.173 164.616 348.1C164.616 347.027 164.793 346.117 165.148 345.37C165.503 344.614 165.988 344.04 166.604 343.648C167.229 343.256 167.929 343.06 168.704 343.06C169.488 343.06 170.188 343.256 170.804 343.648C171.42 344.04 171.905 344.614 172.26 345.37C172.624 346.117 172.806 347.027 172.806 348.1C172.806 349.173 172.624 350.088 172.26 350.844C171.905 351.591 171.42 352.16 170.804 352.552C170.188 352.944 169.488 353.14 168.704 353.14ZM168.704 351.558C169.161 351.558 169.558 351.437 169.894 351.194C170.23 350.942 170.491 350.559 170.678 350.046C170.874 349.533 170.972 348.884 170.972 348.1C170.972 347.307 170.874 346.658 170.678 346.154C170.491 345.641 170.23 345.263 169.894 345.02C169.558 344.768 169.161 344.642 168.704 344.642C168.265 344.642 167.873 344.768 167.528 345.02C167.192 345.263 166.926 345.641 166.73 346.154C166.543 346.658 166.45 347.307 166.45 348.1C166.45 348.884 166.543 349.533 166.73 350.046C166.926 350.559 167.192 350.942 167.528 351.194C167.873 351.437 168.265 351.558 168.704 351.558ZM185.493 343.2H187.313V353H185.493V343.2ZM180.425 353H178.605V343.2H180.425V353ZM185.633 348.8H180.271V347.246H185.633V348.8ZM189.771 353V345.524H191.521V353H189.771ZM190.653 344.292C190.326 344.292 190.056 344.189 189.841 343.984C189.636 343.779 189.533 343.531 189.533 343.242C189.533 342.943 189.636 342.696 189.841 342.5C190.056 342.295 190.326 342.192 190.653 342.192C190.98 342.192 191.246 342.29 191.451 342.486C191.666 342.673 191.773 342.911 191.773 343.2C191.773 343.508 191.67 343.769 191.465 343.984C191.26 344.189 190.989 344.292 190.653 344.292ZM196.632 353.098C195.811 353.098 195.176 352.888 194.728 352.468C194.28 352.039 194.056 351.409 194.056 350.578V343.872H195.806V350.536C195.806 350.891 195.895 351.166 196.072 351.362C196.259 351.558 196.515 351.656 196.842 351.656C197.234 351.656 197.561 351.553 197.822 351.348L198.312 352.594C198.107 352.762 197.855 352.888 197.556 352.972C197.257 353.056 196.949 353.098 196.632 353.098ZM192.824 346.98V345.58H197.808V346.98H192.824ZM202.062 353.098C201.436 353.098 200.834 353.019 200.256 352.86C199.686 352.692 199.234 352.491 198.898 352.258L199.57 350.928C199.906 351.143 200.307 351.32 200.774 351.46C201.24 351.6 201.707 351.67 202.174 351.67C202.724 351.67 203.121 351.595 203.364 351.446C203.616 351.297 203.742 351.096 203.742 350.844C203.742 350.639 203.658 350.485 203.49 350.382C203.322 350.27 203.102 350.186 202.832 350.13C202.561 350.074 202.258 350.023 201.922 349.976C201.595 349.929 201.264 349.869 200.928 349.794C200.601 349.71 200.302 349.593 200.032 349.444C199.761 349.285 199.542 349.075 199.374 348.814C199.206 348.553 199.122 348.207 199.122 347.778C199.122 347.302 199.257 346.891 199.528 346.546C199.798 346.191 200.176 345.921 200.662 345.734C201.156 345.538 201.74 345.44 202.412 345.44C202.916 345.44 203.424 345.496 203.938 345.608C204.451 345.72 204.876 345.879 205.212 346.084L204.54 347.414C204.185 347.199 203.826 347.055 203.462 346.98C203.107 346.896 202.752 346.854 202.398 346.854C201.866 346.854 201.469 346.933 201.208 347.092C200.956 347.251 200.83 347.451 200.83 347.694C200.83 347.918 200.914 348.086 201.082 348.198C201.25 348.31 201.469 348.399 201.74 348.464C202.01 348.529 202.309 348.585 202.636 348.632C202.972 348.669 203.303 348.73 203.63 348.814C203.956 348.898 204.255 349.015 204.526 349.164C204.806 349.304 205.03 349.505 205.198 349.766C205.366 350.027 205.45 350.368 205.45 350.788C205.45 351.255 205.31 351.661 205.03 352.006C204.759 352.351 204.372 352.622 203.868 352.818C203.364 353.005 202.762 353.098 202.062 353.098Z" fill="#90A3C7"/>
<path d="M516.12 331V318L517.26 319.18H513.16V317H518.72V331H516.12ZM520.797 331L525.497 324.88L525.457 326.22L520.977 320.32H523.757L526.897 324.52H525.837L528.997 320.32H531.697L527.177 326.22L527.197 324.88L531.877 331H529.057L525.757 326.54L526.797 326.68L523.557 331H520.797Z" fill="#90A3C7"/>
<path d="M506.184 353V343.9L506.982 344.726H504.112V343.2H508.004V353H506.184ZM521.405 343.2H523.225V353H521.405V343.2ZM516.337 353H514.517V343.2H516.337V353ZM521.545 348.8H516.183V347.246H521.545V348.8ZM525.683 353V345.524H527.433V353H525.683ZM526.565 344.292C526.238 344.292 525.968 344.189 525.753 343.984C525.548 343.779 525.445 343.531 525.445 343.242C525.445 342.943 525.548 342.696 525.753 342.5C525.968 342.295 526.238 342.192 526.565 342.192C526.892 342.192 527.158 342.29 527.363 342.486C527.578 342.673 527.685 342.911 527.685 343.2C527.685 343.508 527.582 343.769 527.377 343.984C527.172 344.189 526.901 344.292 526.565 344.292ZM532.544 353.098C531.723 353.098 531.088 352.888 530.64 352.468C530.192 352.039 529.968 351.409 529.968 350.578V343.872H531.718V350.536C531.718 350.891 531.807 351.166 531.984 351.362C532.171 351.558 532.427 351.656 532.754 351.656C533.146 351.656 533.473 351.553 533.734 351.348L534.224 352.594C534.019 352.762 533.767 352.888 533.468 352.972C533.169 353.056 532.861 353.098 532.544 353.098ZM528.736 346.98V345.58H533.72V346.98H528.736ZM537.974 353.098C537.348 353.098 536.746 353.019 536.168 352.86C535.598 352.692 535.146 352.491 534.81 352.258L535.482 350.928C535.818 351.143 536.219 351.32 536.686 351.46C537.152 351.6 537.619 351.67 538.086 351.67C538.636 351.67 539.033 351.595 539.276 351.446C539.528 351.297 539.654 351.096 539.654 350.844C539.654 350.639 539.57 350.485 539.402 350.382C539.234 350.27 539.014 350.186 538.744 350.13C538.473 350.074 538.17 350.023 537.834 349.976C537.507 349.929 537.176 349.869 536.84 349.794C536.513 349.71 536.214 349.593 535.944 349.444C535.673 349.285 535.454 349.075 535.286 348.814C535.118 348.553 535.034 348.207 535.034 347.778C535.034 347.302 535.169 346.891 535.44 346.546C535.71 346.191 536.088 345.921 536.574 345.734C537.068 345.538 537.652 345.44 538.324 345.44C538.828 345.44 539.336 345.496 539.85 345.608C540.363 345.72 540.788 345.879 541.124 346.084L540.452 347.414C540.097 347.199 539.738 347.055 539.374 346.98C539.019 346.896 538.664 346.854 538.31 346.854C537.778 346.854 537.381 346.933 537.12 347.092C536.868 347.251 536.742 347.451 536.742 347.694C536.742 347.918 536.826 348.086 536.994 348.198C537.162 348.31 537.381 348.399 537.652 348.464C537.922 348.529 538.221 348.585 538.548 348.632C538.884 348.669 539.215 348.73 539.542 348.814C539.868 348.898 540.167 349.015 540.438 349.164C540.718 349.304 540.942 349.505 541.11 349.766C541.278 350.027 541.362 350.368 541.362 350.788C541.362 351.255 541.222 351.661 540.942 352.006C540.671 352.351 540.284 352.622 539.78 352.818C539.276 353.005 538.674 353.098 537.974 353.098Z" fill="#90A3C7"/>
<rect x="28" y="52" width="56" height="51" rx="10" fill="#485299"/>
<rect x="94" y="52" width="56" height="51" rx="10" fill="#485299"/>
<rect x="160" y="52" width="56" height="51" rx="10" fill="#485299"/>
<rect x="226" y="52" width="56" height="51" rx="10" fill="#485299"/>
<rect x="292" y="52" width="56" height="51" rx="10" fill="#485299"/>
<rect x="358" y="52" width="56" height="51" rx="10" fill="#485299"/>
<rect x="424" y="52" width="56" height="51" rx="10" fill="#485299"/>
<rect x="490" y="52" width="56" height="51" rx="10" fill="#485299"/>
<rect x="556" y="52" width="56" height="51" rx="10" fill="#485299"/>
<rect x="622" y="52" width="56" height="51" rx="10" fill="#485299"/>
<rect x="28" y="113" width="56" height="51" rx="10" fill="#485299"/>
<rect x="94" y="113" width="56" height="51" rx="10" fill="#485299"/>
<rect x="160" y="113" width="56" height="51" rx="10" fill="#485299"/>
<rect x="226" y="113" width="56" height="51" rx="10" fill="#485299"/>
<rect x="292" y="113" width="56" height="51" rx="10" fill="#485299"/>
<rect x="358" y="113" width="56" height="51" rx="10" fill="#485299"/>
<rect x="424" y="113" width="56" height="51" rx="10" fill="#485299"/>
<rect x="490" y="113" width="56" height="51" rx="10" fill="#485299"/>
<rect x="556" y="113" width="56" height="51" rx="10" fill="#485299"/>
<rect x="622" y="113" width="56" height="51" rx="10" fill="#485299"/>
<rect x="28" y="174" width="56" height="51" rx="10" fill="#485299"/>
<rect x="94" y="174" width="56" height="51" rx="10" fill="#485299"/>
<rect x="160" y="174" width="56" height="51" rx="10" fill="#485299"/>
<rect x="226" y="174" width="56" height="51" rx="10" fill="#485299"/>
<rect x="292" y="174" width="56" height="51" rx="10" fill="#485299"/>
<rect x="358" y="174" width="56" height="51" rx="10" fill="#485299"/>
<rect x="424" y="174" width="56" height="51" rx="10" fill="#485299"/>
<rect x="490" y="174" width="56" height="51" rx="10" fill="#485299"/>
<rect x="556" y="174" width="56" height="51" rx="10" fill="#485299"/>
<rect x="622" y="174" width="56" height="51" rx="10" fill="#485299"/>
<rect x="28" y="235" width="56" height="51" rx="10" fill="#485299"/>
<rect x="94" y="235" width="56" height="51" rx="10" fill="#485299"/>
<rect x="160" y="235" width="56" height="51" rx="10" fill="#485299"/>
<rect x="226" y="235" width="56" height="51" rx="10" fill="#485299"/>
<rect x="292" y="235" width="56" height="51" rx="10" fill="#485299"/>
<rect x="358" y="235" width="56" height="51" rx="10" fill="#485299"/>
<rect x="424" y="235" width="56" height="51" rx="10" fill="#485299"/>
<rect x="490" y="235" width="56" height="51" rx="10" fill="#485299"/>
<rect x="556" y="235" width="56" height="51" rx="10" fill="#485299"/>
<rect x="622" y="235" width="56" height="51" rx="10" fill="#485299"/>
<path d="M55.12 85V72L56.26 73.18H52.16V71H57.72V85H55.12Z" fill="white"/>
<path d="M116.7 85V83.26L122.26 77.98C122.727 77.54 123.073 77.1533 123.3 76.82C123.527 76.4867 123.673 76.18 123.74 75.9C123.82 75.6067 123.86 75.3333 123.86 75.08C123.86 74.44 123.64 73.9467 123.2 73.6C122.76 73.24 122.113 73.06 121.26 73.06C120.58 73.06 119.96 73.18 119.4 73.42C118.853 73.66 118.38 74.0267 117.98 74.52L116.16 73.12C116.707 72.3867 117.44 71.82 118.36 71.42C119.293 71.0067 120.333 70.8 121.48 70.8C122.493 70.8 123.373 70.9667 124.12 71.3C124.88 71.62 125.46 72.08 125.86 72.68C126.273 73.28 126.48 73.9933 126.48 74.82C126.48 75.2733 126.42 75.7267 126.3 76.18C126.18 76.62 125.953 77.0867 125.62 77.58C125.287 78.0733 124.8 78.6267 124.16 79.24L119.38 83.78L118.84 82.8H127.02V85H116.7Z" fill="white"/>
<path d="M187.28 85.2C186.293 85.2 185.327 85.06 184.38 84.78C183.447 84.4867 182.66 84.0867 182.02 83.58L183.14 81.56C183.647 81.9733 184.26 82.3067 184.98 82.56C185.7 82.8133 186.453 82.94 187.24 82.94C188.173 82.94 188.9 82.7533 189.42 82.38C189.94 81.9933 190.2 81.4733 190.2 80.82C190.2 80.18 189.96 79.6733 189.48 79.3C189 78.9267 188.227 78.74 187.16 78.74H185.88V76.96L189.88 72.2L190.22 73.18H182.7V71H192.24V72.74L188.24 77.5L186.88 76.7H187.66C189.38 76.7 190.667 77.0867 191.52 77.86C192.387 78.62 192.82 79.6 192.82 80.8C192.82 81.5867 192.62 82.3133 192.22 82.98C191.82 83.6467 191.207 84.1867 190.38 84.6C189.567 85 188.533 85.2 187.28 85.2Z" fill="white"/>
<path d="M247.68 81.82V80.02L254.58 71H257.36L250.56 80.02L249.26 79.62H260.36V81.82H247.68ZM255.36 85V81.82L255.44 79.62V76.8H257.88V85H255.36Z" fill="white"/>
<path d="M318.52 85.2C317.533 85.2 316.567 85.06 315.62 84.78C314.687 84.4867 313.9 84.0867 313.26 83.58L314.36 81.56C314.867 81.9733 315.48 82.3067 316.2 82.56C316.933 82.8133 317.693 82.94 318.48 82.94C319.4 82.94 320.12 82.7467 320.64 82.36C321.173 81.9733 321.44 81.4533 321.44 80.8C321.44 80.36 321.327 79.9733 321.1 79.64C320.887 79.3067 320.5 79.0533 319.94 78.88C319.393 78.7067 318.64 78.62 317.68 78.62H314.3L315.02 71H323.24V73.18H315.98L317.34 71.94L316.8 77.64L315.44 76.42H318.26C319.647 76.42 320.76 76.6067 321.6 76.98C322.453 77.34 323.073 77.8467 323.46 78.5C323.86 79.14 324.06 79.8733 324.06 80.7C324.06 81.5133 323.86 82.26 323.46 82.94C323.06 83.62 322.447 84.1667 321.62 84.58C320.807 84.9933 319.773 85.2 318.52 85.2Z" fill="white"/>
<path d="M386.94 85.2C385.673 85.2 384.587 84.9333 383.68 84.4C382.773 83.8533 382.08 83.0667 381.6 82.04C381.12 81.0133 380.88 79.7467 380.88 78.24C380.88 76.64 381.167 75.2867 381.74 74.18C382.327 73.0733 383.133 72.2333 384.16 71.66C385.2 71.0867 386.393 70.8 387.74 70.8C388.447 70.8 389.12 70.8733 389.76 71.02C390.413 71.1667 390.967 71.3933 391.42 71.7L390.46 73.66C390.073 73.4067 389.653 73.2333 389.2 73.14C388.76 73.0333 388.293 72.98 387.8 72.98C386.48 72.98 385.433 73.3867 384.66 74.2C383.887 75.0133 383.5 76.2133 383.5 77.8C383.5 78.0533 383.507 78.3533 383.52 78.7C383.533 79.0333 383.58 79.3733 383.66 79.72L382.86 78.84C383.1 78.2933 383.427 77.84 383.84 77.48C384.267 77.1067 384.767 76.8267 385.34 76.64C385.927 76.4533 386.56 76.36 387.24 76.36C388.16 76.36 388.98 76.54 389.7 76.9C390.42 77.2467 390.993 77.7467 391.42 78.4C391.847 79.04 392.06 79.7933 392.06 80.66C392.06 81.58 391.833 82.38 391.38 83.06C390.927 83.74 390.313 84.2667 389.54 84.64C388.767 85.0133 387.9 85.2 386.94 85.2ZM386.8 83.16C387.333 83.16 387.807 83.0667 388.22 82.88C388.633 82.68 388.953 82.4 389.18 82.04C389.42 81.68 389.54 81.26 389.54 80.78C389.54 80.0467 389.287 79.4667 388.78 79.04C388.273 78.6133 387.593 78.4 386.74 78.4C386.18 78.4 385.687 78.5067 385.26 78.72C384.847 78.92 384.513 79.2 384.26 79.56C384.02 79.92 383.9 80.3333 383.9 80.8C383.9 81.2267 384.013 81.62 384.24 81.98C384.467 82.34 384.793 82.6267 385.22 82.84C385.66 83.0533 386.187 83.16 386.8 83.16Z" fill="white"/>
<path d="M448.22 85L454 72.04L454.68 73.2H446.74L447.98 71.94V75.58H445.56V71H456.44V72.74L451 85H448.22Z" fill="white"/>
<path d="M517.5 85.2C516.34 85.2 515.333 85.0267 514.48 84.68C513.627 84.3333 512.967 83.8467 512.5 83.22C512.033 82.58 511.8 81.8333 511.8 80.98C511.8 80.1267 512.027 79.4067 512.48 78.82C512.933 78.2333 513.587 77.7867 514.44 77.48C515.293 77.1733 516.313 77.02 517.5 77.02C518.687 77.02 519.707 77.1733 520.56 77.48C521.427 77.7867 522.087 78.24 522.54 78.84C523.007 79.4267 523.24 80.14 523.24 80.98C523.24 81.8333 523 82.58 522.52 83.22C522.053 83.8467 521.387 84.3333 520.52 84.68C519.667 85.0267 518.66 85.2 517.5 85.2ZM517.5 83.16C518.46 83.16 519.22 82.96 519.78 82.56C520.34 82.16 520.62 81.6067 520.62 80.9C520.62 80.2067 520.34 79.66 519.78 79.26C519.22 78.86 518.46 78.66 517.5 78.66C516.54 78.66 515.787 78.86 515.24 79.26C514.693 79.66 514.42 80.2067 514.42 80.9C514.42 81.6067 514.693 82.16 515.24 82.56C515.787 82.96 516.54 83.16 517.5 83.16ZM517.5 78.38C516.42 78.38 515.493 78.24 514.72 77.96C513.947 77.6667 513.347 77.2467 512.92 76.7C512.507 76.14 512.3 75.4733 512.3 74.7C512.3 73.9 512.513 73.2133 512.94 72.64C513.38 72.0533 513.993 71.6 514.78 71.28C515.567 70.96 516.473 70.8 517.5 70.8C518.54 70.8 519.453 70.96 520.24 71.28C521.027 71.6 521.64 72.0533 522.08 72.64C522.52 73.2133 522.74 73.9 522.74 74.7C522.74 75.4733 522.527 76.14 522.1 76.7C521.687 77.2467 521.087 77.6667 520.3 77.96C519.513 78.24 518.58 78.38 517.5 78.38ZM517.5 76.78C518.327 76.78 518.98 76.6067 519.46 76.26C519.94 75.9 520.18 75.42 520.18 74.82C520.18 74.1933 519.933 73.7067 519.44 73.36C518.947 73.0133 518.3 72.84 517.5 72.84C516.7 72.84 516.06 73.0133 515.58 73.36C515.1 73.7067 514.86 74.1933 514.86 74.82C514.86 75.42 515.093 75.9 515.56 76.26C516.04 76.6067 516.687 76.78 517.5 76.78Z" fill="white"/>
<path d="M582.6 70.8C583.88 70.8 584.967 71.0733 585.86 71.62C586.767 72.1533 587.46 72.9333 587.94 73.96C588.42 74.9867 588.66 76.2533 588.66 77.76C588.66 79.36 588.367 80.7133 587.78 81.82C587.207 82.9267 586.407 83.7667 585.38 84.34C584.353 84.9133 583.16 85.2 581.8 85.2C581.093 85.2 580.42 85.1267 579.78 84.98C579.14 84.8333 578.587 84.6067 578.12 84.3L579.08 82.34C579.467 82.5933 579.887 82.7733 580.34 82.88C580.793 82.9733 581.26 83.02 581.74 83.02C583.06 83.02 584.107 82.6133 584.88 81.8C585.653 80.9867 586.04 79.7867 586.04 78.2C586.04 77.9467 586.033 77.6533 586.02 77.32C586.007 76.9733 585.96 76.6267 585.88 76.28L586.68 77.16C586.453 77.7067 586.127 78.1667 585.7 78.54C585.273 78.9 584.773 79.1733 584.2 79.36C583.627 79.5467 582.993 79.64 582.3 79.64C581.393 79.64 580.573 79.4667 579.84 79.12C579.12 78.76 578.547 78.26 578.12 77.62C577.693 76.9667 577.48 76.2067 577.48 75.34C577.48 74.4067 577.707 73.6067 578.16 72.94C578.613 72.26 579.227 71.7333 580 71.36C580.787 70.9867 581.653 70.8 582.6 70.8ZM582.74 72.84C582.207 72.84 581.733 72.94 581.32 73.14C580.907 73.3267 580.58 73.6 580.34 73.96C580.113 74.3067 580 74.7267 580 75.22C580 75.9533 580.253 76.5333 580.76 76.96C581.267 77.3867 581.947 77.6 582.8 77.6C583.36 77.6 583.853 77.5 584.28 77.3C584.707 77.0867 585.04 76.8 585.28 76.44C585.52 76.0667 585.64 75.6533 585.64 75.2C585.64 74.76 585.527 74.3667 585.3 74.02C585.073 73.66 584.747 73.3733 584.32 73.16C583.893 72.9467 583.367 72.84 582.74 72.84Z" fill="white"/>
<path d="M642.12 85V72L643.26 73.18H639.16V71H644.72V85H642.12ZM653.337 85.2C652.231 85.2 651.231 84.92 650.337 84.36C649.457 83.8 648.764 82.9867 648.257 81.92C647.751 80.84 647.497 79.5333 647.497 78C647.497 76.4667 647.751 75.1667 648.257 74.1C648.764 73.02 649.457 72.2 650.337 71.64C651.231 71.08 652.231 70.8 653.337 70.8C654.457 70.8 655.457 71.08 656.337 71.64C657.217 72.2 657.911 73.02 658.417 74.1C658.937 75.1667 659.197 76.4667 659.197 78C659.197 79.5333 658.937 80.84 658.417 81.92C657.911 82.9867 657.217 83.8 656.337 84.36C655.457 84.92 654.457 85.2 653.337 85.2ZM653.337 82.94C653.991 82.94 654.557 82.7667 655.037 82.42C655.517 82.06 655.891 81.5133 656.157 80.78C656.437 80.0467 656.577 79.12 656.577 78C656.577 76.8667 656.437 75.94 656.157 75.22C655.891 74.4867 655.517 73.9467 655.037 73.6C654.557 73.24 653.991 73.06 653.337 73.06C652.711 73.06 652.151 73.24 651.657 73.6C651.177 73.9467 650.797 74.4867 650.517 75.22C650.251 75.94 650.117 76.8667 650.117 78C650.117 79.12 650.251 80.0467 650.517 80.78C650.797 81.5133 651.177 82.06 651.657 82.42C652.151 82.7667 652.711 82.94 653.337 82.94Z" fill="white"/>
<path d="M51.12 146V133L52.26 134.18H48.16V132H53.72V146H51.12ZM58.7372 146V133L59.8772 134.18H55.7772V132H61.3372V146H58.7372Z" fill="white"/>
<path d="M115.12 146V133L116.26 134.18H112.16V132H117.72V146H115.12ZM120.317 146V144.26L125.877 138.98C126.344 138.54 126.691 138.153 126.917 137.82C127.144 137.487 127.291 137.18 127.357 136.9C127.437 136.607 127.477 136.333 127.477 136.08C127.477 135.44 127.257 134.947 126.817 134.6C126.377 134.24 125.731 134.06 124.877 134.06C124.197 134.06 123.577 134.18 123.017 134.42C122.471 134.66 121.997 135.027 121.597 135.52L119.777 134.12C120.324 133.387 121.057 132.82 121.977 132.42C122.911 132.007 123.951 131.8 125.097 131.8C126.111 131.8 126.991 131.967 127.737 132.3C128.497 132.62 129.077 133.08 129.477 133.68C129.891 134.28 130.097 134.993 130.097 135.82C130.097 136.273 130.037 136.727 129.917 137.18C129.797 137.62 129.571 138.087 129.237 138.58C128.904 139.073 128.417 139.627 127.777 140.24L122.997 144.78L122.457 143.8H130.637V146H120.317Z" fill="white"/>
<path d="M181.12 146V133L182.26 134.18H178.16V132H183.72V146H181.12ZM190.897 146.2C189.911 146.2 188.944 146.06 187.997 145.78C187.064 145.487 186.277 145.087 185.637 144.58L186.757 142.56C187.264 142.973 187.877 143.307 188.597 143.56C189.317 143.813 190.071 143.94 190.857 143.94C191.791 143.94 192.517 143.753 193.037 143.38C193.557 142.993 193.817 142.473 193.817 141.82C193.817 141.18 193.577 140.673 193.097 140.3C192.617 139.927 191.844 139.74 190.777 139.74H189.497V137.96L193.497 133.2L193.837 134.18H186.317V132H195.857V133.74L191.857 138.5L190.497 137.7H191.277C192.997 137.7 194.284 138.087 195.137 138.86C196.004 139.62 196.437 140.6 196.437 141.8C196.437 142.587 196.237 143.313 195.837 143.98C195.437 144.647 194.824 145.187 193.997 145.6C193.184 146 192.151 146.2 190.897 146.2Z" fill="white"/>
<path d="M246.12 146V133L247.26 134.18H243.16V132H248.72V146H246.12ZM251.297 142.82V141.02L258.197 132H260.977L254.177 141.02L252.877 140.62H263.977V142.82H251.297ZM258.977 146V142.82L259.057 140.62V137.8H261.497V146H258.977Z" fill="white"/>
<path d="M313.12 146V133L314.26 134.18H310.16V132H315.72V146H313.12ZM323.137 146.2C322.151 146.2 321.184 146.06 320.237 145.78C319.304 145.487 318.517 145.087 317.877 144.58L318.977 142.56C319.484 142.973 320.097 143.307 320.817 143.56C321.551 143.813 322.311 143.94 323.097 143.94C324.017 143.94 324.737 143.747 325.257 143.36C325.791 142.973 326.057 142.453 326.057 141.8C326.057 141.36 325.944 140.973 325.717 140.64C325.504 140.307 325.117 140.053 324.557 139.88C324.011 139.707 323.257 139.62 322.297 139.62H318.917L319.637 132H327.857V134.18H320.597L321.957 132.94L321.417 138.64L320.057 137.42H322.877C324.264 137.42 325.377 137.607 326.217 137.98C327.071 138.34 327.691 138.847 328.077 139.5C328.477 140.14 328.677 140.873 328.677 141.7C328.677 142.513 328.477 143.26 328.077 143.94C327.677 144.62 327.064 145.167 326.237 145.58C325.424 145.993 324.391 146.2 323.137 146.2Z" fill="white"/>
<path d="M378.12 146V133L379.26 134.18H375.16V132H380.72V146H378.12ZM389.557 146.2C388.291 146.2 387.204 145.933 386.297 145.4C385.391 144.853 384.697 144.067 384.217 143.04C383.737 142.013 383.497 140.747 383.497 139.24C383.497 137.64 383.784 136.287 384.357 135.18C384.944 134.073 385.751 133.233 386.777 132.66C387.817 132.087 389.011 131.8 390.357 131.8C391.064 131.8 391.737 131.873 392.377 132.02C393.031 132.167 393.584 132.393 394.037 132.7L393.077 134.66C392.691 134.407 392.271 134.233 391.817 134.14C391.377 134.033 390.911 133.98 390.417 133.98C389.097 133.98 388.051 134.387 387.277 135.2C386.504 136.013 386.117 137.213 386.117 138.8C386.117 139.053 386.124 139.353 386.137 139.7C386.151 140.033 386.197 140.373 386.277 140.72L385.477 139.84C385.717 139.293 386.044 138.84 386.457 138.48C386.884 138.107 387.384 137.827 387.957 137.64C388.544 137.453 389.177 137.36 389.857 137.36C390.777 137.36 391.597 137.54 392.317 137.9C393.037 138.247 393.611 138.747 394.037 139.4C394.464 140.04 394.677 140.793 394.677 141.66C394.677 142.58 394.451 143.38 393.997 144.06C393.544 144.74 392.931 145.267 392.157 145.64C391.384 146.013 390.517 146.2 389.557 146.2ZM389.417 144.16C389.951 144.16 390.424 144.067 390.837 143.88C391.251 143.68 391.571 143.4 391.797 143.04C392.037 142.68 392.157 142.26 392.157 141.78C392.157 141.047 391.904 140.467 391.397 140.04C390.891 139.613 390.211 139.4 389.357 139.4C388.797 139.4 388.304 139.507 387.877 139.72C387.464 139.92 387.131 140.2 386.877 140.56C386.637 140.92 386.517 141.333 386.517 141.8C386.517 142.227 386.631 142.62 386.857 142.98C387.084 143.34 387.411 143.627 387.837 143.84C388.277 144.053 388.804 144.16 389.417 144.16Z" fill="white"/>
<path d="M445.12 146V133L446.26 134.18H442.16V132H447.72V146H445.12ZM452.837 146L458.617 133.04L459.297 134.2H451.357L452.597 132.94V136.58H450.177V132H461.057V133.74L455.617 146H452.837Z" fill="white"/>
<path d="M510.12 146V133L511.26 134.18H507.16V132H512.72V146H510.12ZM521.117 146.2C519.957 146.2 518.951 146.027 518.097 145.68C517.244 145.333 516.584 144.847 516.117 144.22C515.651 143.58 515.417 142.833 515.417 141.98C515.417 141.127 515.644 140.407 516.097 139.82C516.551 139.233 517.204 138.787 518.057 138.48C518.911 138.173 519.931 138.02 521.117 138.02C522.304 138.02 523.324 138.173 524.177 138.48C525.044 138.787 525.704 139.24 526.157 139.84C526.624 140.427 526.857 141.14 526.857 141.98C526.857 142.833 526.617 143.58 526.137 144.22C525.671 144.847 525.004 145.333 524.137 145.68C523.284 146.027 522.277 146.2 521.117 146.2ZM521.117 144.16C522.077 144.16 522.837 143.96 523.397 143.56C523.957 143.16 524.237 142.607 524.237 141.9C524.237 141.207 523.957 140.66 523.397 140.26C522.837 139.86 522.077 139.66 521.117 139.66C520.157 139.66 519.404 139.86 518.857 140.26C518.311 140.66 518.037 141.207 518.037 141.9C518.037 142.607 518.311 143.16 518.857 143.56C519.404 143.96 520.157 144.16 521.117 144.16ZM521.117 139.38C520.037 139.38 519.111 139.24 518.337 138.96C517.564 138.667 516.964 138.247 516.537 137.7C516.124 137.14 515.917 136.473 515.917 135.7C515.917 134.9 516.131 134.213 516.557 133.64C516.997 133.053 517.611 132.6 518.397 132.28C519.184 131.96 520.091 131.8 521.117 131.8C522.157 131.8 523.071 131.96 523.857 132.28C524.644 132.6 525.257 133.053 525.697 133.64C526.137 134.213 526.357 134.9 526.357 135.7C526.357 136.473 526.144 137.14 525.717 137.7C525.304 138.247 524.704 138.667 523.917 138.96C523.131 139.24 522.197 139.38 521.117 139.38ZM521.117 137.78C521.944 137.78 522.597 137.607 523.077 137.26C523.557 136.9 523.797 136.42 523.797 135.82C523.797 135.193 523.551 134.707 523.057 134.36C522.564 134.013 521.917 133.84 521.117 133.84C520.317 133.84 519.677 134.013 519.197 134.36C518.717 134.707 518.477 135.193 518.477 135.82C518.477 136.42 518.711 136.9 519.177 137.26C519.657 137.607 520.304 137.78 521.117 137.78Z" fill="white"/>
<path d="M576.12 146V133L577.26 134.18H573.16V132H578.72V146H576.12ZM586.217 131.8C587.497 131.8 588.584 132.073 589.477 132.62C590.384 133.153 591.077 133.933 591.557 134.96C592.037 135.987 592.277 137.253 592.277 138.76C592.277 140.36 591.984 141.713 591.397 142.82C590.824 143.927 590.024 144.767 588.997 145.34C587.971 145.913 586.777 146.2 585.417 146.2C584.711 146.2 584.037 146.127 583.397 145.98C582.757 145.833 582.204 145.607 581.737 145.3L582.697 143.34C583.084 143.593 583.504 143.773 583.957 143.88C584.411 143.973 584.877 144.02 585.357 144.02C586.677 144.02 587.724 143.613 588.497 142.8C589.271 141.987 589.657 140.787 589.657 139.2C589.657 138.947 589.651 138.653 589.637 138.32C589.624 137.973 589.577 137.627 589.497 137.28L590.297 138.16C590.071 138.707 589.744 139.167 589.317 139.54C588.891 139.9 588.391 140.173 587.817 140.36C587.244 140.547 586.611 140.64 585.917 140.64C585.011 140.64 584.191 140.467 583.457 140.12C582.737 139.76 582.164 139.26 581.737 138.62C581.311 137.967 581.097 137.207 581.097 136.34C581.097 135.407 581.324 134.607 581.777 133.94C582.231 133.26 582.844 132.733 583.617 132.36C584.404 131.987 585.271 131.8 586.217 131.8ZM586.357 133.84C585.824 133.84 585.351 133.94 584.937 134.14C584.524 134.327 584.197 134.6 583.957 134.96C583.731 135.307 583.617 135.727 583.617 136.22C583.617 136.953 583.871 137.533 584.377 137.96C584.884 138.387 585.564 138.6 586.417 138.6C586.977 138.6 587.471 138.5 587.897 138.3C588.324 138.087 588.657 137.8 588.897 137.44C589.137 137.067 589.257 136.653 589.257 136.2C589.257 135.76 589.144 135.367 588.917 135.02C588.691 134.66 588.364 134.373 587.937 134.16C587.511 133.947 586.984 133.84 586.357 133.84Z" fill="white"/>
<path d="M637.7 146V144.26L643.26 138.98C643.727 138.54 644.073 138.153 644.3 137.82C644.527 137.487 644.673 137.18 644.74 136.9C644.82 136.607 644.86 136.333 644.86 136.08C644.86 135.44 644.64 134.947 644.2 134.6C643.76 134.24 643.113 134.06 642.26 134.06C641.58 134.06 640.96 134.18 640.4 134.42C639.853 134.66 639.38 135.027 638.98 135.52L637.16 134.12C637.707 133.387 638.44 132.82 639.36 132.42C640.293 132.007 641.333 131.8 642.48 131.8C643.493 131.8 644.373 131.967 645.12 132.3C645.88 132.62 646.46 133.08 646.86 133.68C647.273 134.28 647.48 134.993 647.48 135.82C647.48 136.273 647.42 136.727 647.3 137.18C647.18 137.62 646.953 138.087 646.62 138.58C646.287 139.073 645.8 139.627 645.16 140.24L640.38 144.78L639.84 143.8H648.02V146H637.7ZM655.361 146.2C654.254 146.2 653.254 145.92 652.361 145.36C651.481 144.8 650.787 143.987 650.281 142.92C649.774 141.84 649.521 140.533 649.521 139C649.521 137.467 649.774 136.167 650.281 135.1C650.787 134.02 651.481 133.2 652.361 132.64C653.254 132.08 654.254 131.8 655.361 131.8C656.481 131.8 657.481 132.08 658.361 132.64C659.241 133.2 659.934 134.02 660.441 135.1C660.961 136.167 661.221 137.467 661.221 139C661.221 140.533 660.961 141.84 660.441 142.92C659.934 143.987 659.241 144.8 658.361 145.36C657.481 145.92 656.481 146.2 655.361 146.2ZM655.361 143.94C656.014 143.94 656.581 143.767 657.061 143.42C657.541 143.06 657.914 142.513 658.181 141.78C658.461 141.047 658.601 140.12 658.601 139C658.601 137.867 658.461 136.94 658.181 136.22C657.914 135.487 657.541 134.947 657.061 134.6C656.581 134.24 656.014 134.06 655.361 134.06C654.734 134.06 654.174 134.24 653.681 134.6C653.201 134.947 652.821 135.487 652.541 136.22C652.274 136.94 652.141 137.867 652.141 139C652.141 140.12 652.274 141.047 652.541 141.78C652.821 142.513 653.201 143.06 653.681 143.42C654.174 143.767 654.734 143.94 655.361 143.94Z" fill="white"/>
<path d="M46.7 207V205.26L52.26 199.98C52.7267 199.54 53.0733 199.153 53.3 198.82C53.5267 198.487 53.6733 198.18 53.74 197.9C53.82 197.607 53.86 197.333 53.86 197.08C53.86 196.44 53.64 195.947 53.2 195.6C52.76 195.24 52.1133 195.06 51.26 195.06C50.58 195.06 49.96 195.18 49.4 195.42C48.8533 195.66 48.38 196.027 47.98 196.52L46.16 195.12C46.7067 194.387 47.44 193.82 48.36 193.42C49.2933 193.007 50.3333 192.8 51.48 192.8C52.4933 192.8 53.3733 192.967 54.12 193.3C54.88 193.62 55.46 194.08 55.86 194.68C56.2733 195.28 56.48 195.993 56.48 196.82C56.48 197.273 56.42 197.727 56.3 198.18C56.18 198.62 55.9533 199.087 55.62 199.58C55.2867 200.073 54.8 200.627 54.16 201.24L49.38 205.78L48.84 204.8H57.02V207H46.7ZM60.7606 207V194L61.9006 195.18H57.8006V193H63.3606V207H60.7606Z" fill="white"/>
<path d="M110.7 207V205.26L116.26 199.98C116.727 199.54 117.073 199.153 117.3 198.82C117.527 198.487 117.673 198.18 117.74 197.9C117.82 197.607 117.86 197.333 117.86 197.08C117.86 196.44 117.64 195.947 117.2 195.6C116.76 195.24 116.113 195.06 115.26 195.06C114.58 195.06 113.96 195.18 113.4 195.42C112.853 195.66 112.38 196.027 111.98 196.52L110.16 195.12C110.707 194.387 111.44 193.82 112.36 193.42C113.293 193.007 114.333 192.8 115.48 192.8C116.493 192.8 117.373 192.967 118.12 193.3C118.88 193.62 119.46 194.08 119.86 194.68C120.273 195.28 120.48 195.993 120.48 196.82C120.48 197.273 120.42 197.727 120.3 198.18C120.18 198.62 119.953 199.087 119.62 199.58C119.287 200.073 118.8 200.627 118.16 201.24L113.38 205.78L112.84 204.8H121.02V207H110.7ZM122.341 207V205.26L127.901 199.98C128.367 199.54 128.714 199.153 128.941 198.82C129.167 198.487 129.314 198.18 129.381 197.9C129.461 197.607 129.501 197.333 129.501 197.08C129.501 196.44 129.281 195.947 128.841 195.6C128.401 195.24 127.754 195.06 126.901 195.06C126.221 195.06 125.601 195.18 125.041 195.42C124.494 195.66 124.021 196.027 123.621 196.52L121.801 195.12C122.347 194.387 123.081 193.82 124.001 193.42C124.934 193.007 125.974 192.8 127.121 192.8C128.134 192.8 129.014 192.967 129.761 193.3C130.521 193.62 131.101 194.08 131.501 194.68C131.914 195.28 132.121 195.993 132.121 196.82C132.121 197.273 132.061 197.727 131.941 198.18C131.821 198.62 131.594 199.087 131.261 199.58C130.927 200.073 130.441 200.627 129.801 201.24L125.021 205.78L124.481 204.8H132.661V207H122.341Z" fill="white"/>
<path d="M176.7 207V205.26L182.26 199.98C182.727 199.54 183.073 199.153 183.3 198.82C183.527 198.487 183.673 198.18 183.74 197.9C183.82 197.607 183.86 197.333 183.86 197.08C183.86 196.44 183.64 195.947 183.2 195.6C182.76 195.24 182.113 195.06 181.26 195.06C180.58 195.06 179.96 195.18 179.4 195.42C178.853 195.66 178.38 196.027 177.98 196.52L176.16 195.12C176.707 194.387 177.44 193.82 178.36 193.42C179.293 193.007 180.333 192.8 181.48 192.8C182.493 192.8 183.373 192.967 184.12 193.3C184.88 193.62 185.46 194.08 185.86 194.68C186.273 195.28 186.48 195.993 186.48 196.82C186.48 197.273 186.42 197.727 186.3 198.18C186.18 198.62 185.953 199.087 185.62 199.58C185.287 200.073 184.8 200.627 184.16 201.24L179.38 205.78L178.84 204.8H187.02V207H176.7ZM192.921 207.2C191.934 207.2 190.967 207.06 190.021 206.78C189.087 206.487 188.301 206.087 187.661 205.58L188.781 203.56C189.287 203.973 189.901 204.307 190.621 204.56C191.341 204.813 192.094 204.94 192.881 204.94C193.814 204.94 194.541 204.753 195.061 204.38C195.581 203.993 195.841 203.473 195.841 202.82C195.841 202.18 195.601 201.673 195.121 201.3C194.641 200.927 193.867 200.74 192.801 200.74H191.521V198.96L195.521 194.2L195.861 195.18H188.341V193H197.881V194.74L193.881 199.5L192.521 198.7H193.301C195.021 198.7 196.307 199.087 197.161 199.86C198.027 200.62 198.461 201.6 198.461 202.8C198.461 203.587 198.261 204.313 197.861 204.98C197.461 205.647 196.847 206.187 196.021 206.6C195.207 207 194.174 207.2 192.921 207.2Z" fill="white"/>
<path d="M241.7 207V205.26L247.26 199.98C247.727 199.54 248.073 199.153 248.3 198.82C248.527 198.487 248.673 198.18 248.74 197.9C248.82 197.607 248.86 197.333 248.86 197.08C248.86 196.44 248.64 195.947 248.2 195.6C247.76 195.24 247.113 195.06 246.26 195.06C245.58 195.06 244.96 195.18 244.4 195.42C243.853 195.66 243.38 196.027 242.98 196.52L241.16 195.12C241.707 194.387 242.44 193.82 243.36 193.42C244.293 193.007 245.333 192.8 246.48 192.8C247.493 192.8 248.373 192.967 249.12 193.3C249.88 193.62 250.46 194.08 250.86 194.68C251.273 195.28 251.48 195.993 251.48 196.82C251.48 197.273 251.42 197.727 251.3 198.18C251.18 198.62 250.953 199.087 250.62 199.58C250.287 200.073 249.8 200.627 249.16 201.24L244.38 205.78L243.84 204.8H252.02V207H241.7ZM253.028 203.82V202.02L259.928 193H262.708L255.908 202.02L254.608 201.62H265.708V203.82H253.028ZM260.708 207V203.82L260.788 201.62V198.8H263.228V207H260.708Z" fill="white"/>
<path d="M308.7 207V205.26L314.26 199.98C314.727 199.54 315.073 199.153 315.3 198.82C315.527 198.487 315.673 198.18 315.74 197.9C315.82 197.607 315.86 197.333 315.86 197.08C315.86 196.44 315.64 195.947 315.2 195.6C314.76 195.24 314.113 195.06 313.26 195.06C312.58 195.06 311.96 195.18 311.4 195.42C310.853 195.66 310.38 196.027 309.98 196.52L308.16 195.12C308.707 194.387 309.44 193.82 310.36 193.42C311.293 193.007 312.333 192.8 313.48 192.8C314.493 192.8 315.373 192.967 316.12 193.3C316.88 193.62 317.46 194.08 317.86 194.68C318.273 195.28 318.48 195.993 318.48 196.82C318.48 197.273 318.42 197.727 318.3 198.18C318.18 198.62 317.953 199.087 317.62 199.58C317.287 200.073 316.8 200.627 316.16 201.24L311.38 205.78L310.84 204.8H319.02V207H308.7ZM325.161 207.2C324.174 207.2 323.207 207.06 322.261 206.78C321.327 206.487 320.541 206.087 319.901 205.58L321.001 203.56C321.507 203.973 322.121 204.307 322.841 204.56C323.574 204.813 324.334 204.94 325.121 204.94C326.041 204.94 326.761 204.747 327.281 204.36C327.814 203.973 328.081 203.453 328.081 202.8C328.081 202.36 327.967 201.973 327.741 201.64C327.527 201.307 327.141 201.053 326.581 200.88C326.034 200.707 325.281 200.62 324.321 200.62H320.941L321.661 193H329.881V195.18H322.621L323.981 193.94L323.441 199.64L322.081 198.42H324.901C326.287 198.42 327.401 198.607 328.241 198.98C329.094 199.34 329.714 199.847 330.101 200.5C330.501 201.14 330.701 201.873 330.701 202.7C330.701 203.513 330.501 204.26 330.101 204.94C329.701 205.62 329.087 206.167 328.261 206.58C327.447 206.993 326.414 207.2 325.161 207.2Z" fill="white"/>
<path d="M373.7 207V205.26L379.26 199.98C379.727 199.54 380.073 199.153 380.3 198.82C380.527 198.487 380.673 198.18 380.74 197.9C380.82 197.607 380.86 197.333 380.86 197.08C380.86 196.44 380.64 195.947 380.2 195.6C379.76 195.24 379.113 195.06 378.26 195.06C377.58 195.06 376.96 195.18 376.4 195.42C375.853 195.66 375.38 196.027 374.98 196.52L373.16 195.12C373.707 194.387 374.44 193.82 375.36 193.42C376.293 193.007 377.333 192.8 378.48 192.8C379.493 192.8 380.373 192.967 381.12 193.3C381.88 193.62 382.46 194.08 382.86 194.68C383.273 195.28 383.48 195.993 383.48 196.82C383.48 197.273 383.42 197.727 383.3 198.18C383.18 198.62 382.953 199.087 382.62 199.58C382.287 200.073 381.8 200.627 381.16 201.24L376.38 205.78L375.84 204.8H384.02V207H373.7ZM391.581 207.2C390.314 207.2 389.227 206.933 388.321 206.4C387.414 205.853 386.721 205.067 386.241 204.04C385.761 203.013 385.521 201.747 385.521 200.24C385.521 198.64 385.807 197.287 386.381 196.18C386.967 195.073 387.774 194.233 388.801 193.66C389.841 193.087 391.034 192.8 392.381 192.8C393.087 192.8 393.761 192.873 394.401 193.02C395.054 193.167 395.607 193.393 396.061 193.7L395.101 195.66C394.714 195.407 394.294 195.233 393.841 195.14C393.401 195.033 392.934 194.98 392.441 194.98C391.121 194.98 390.074 195.387 389.301 196.2C388.527 197.013 388.141 198.213 388.141 199.8C388.141 200.053 388.147 200.353 388.161 200.7C388.174 201.033 388.221 201.373 388.301 201.72L387.501 200.84C387.741 200.293 388.067 199.84 388.481 199.48C388.907 199.107 389.407 198.827 389.981 198.64C390.567 198.453 391.201 198.36 391.881 198.36C392.801 198.36 393.621 198.54 394.341 198.9C395.061 199.247 395.634 199.747 396.061 200.4C396.487 201.04 396.701 201.793 396.701 202.66C396.701 203.58 396.474 204.38 396.021 205.06C395.567 205.74 394.954 206.267 394.181 206.64C393.407 207.013 392.541 207.2 391.581 207.2ZM391.441 205.16C391.974 205.16 392.447 205.067 392.861 204.88C393.274 204.68 393.594 204.4 393.821 204.04C394.061 203.68 394.181 203.26 394.181 202.78C394.181 202.047 393.927 201.467 393.421 201.04C392.914 200.613 392.234 200.4 391.381 200.4C390.821 200.4 390.327 200.507 389.901 200.72C389.487 200.92 389.154 201.2 388.901 201.56C388.661 201.92 388.541 202.333 388.541 202.8C388.541 203.227 388.654 203.62 388.881 203.98C389.107 204.34 389.434 204.627 389.861 204.84C390.301 205.053 390.827 205.16 391.441 205.16Z" fill="white"/>
<path d="M440.7 207V205.26L446.26 199.98C446.727 199.54 447.073 199.153 447.3 198.82C447.527 198.487 447.673 198.18 447.74 197.9C447.82 197.607 447.86 197.333 447.86 197.08C447.86 196.44 447.64 195.947 447.2 195.6C446.76 195.24 446.113 195.06 445.26 195.06C444.58 195.06 443.96 195.18 443.4 195.42C442.853 195.66 442.38 196.027 441.98 196.52L440.16 195.12C440.707 194.387 441.44 193.82 442.36 193.42C443.293 193.007 444.333 192.8 445.48 192.8C446.493 192.8 447.373 192.967 448.12 193.3C448.88 193.62 449.46 194.08 449.86 194.68C450.273 195.28 450.48 195.993 450.48 196.82C450.48 197.273 450.42 197.727 450.3 198.18C450.18 198.62 449.953 199.087 449.62 199.58C449.287 200.073 448.8 200.627 448.16 201.24L443.38 205.78L442.84 204.8H451.02V207H440.7ZM454.861 207L460.641 194.04L461.321 195.2H453.381L454.621 193.94V197.58H452.201V193H463.081V194.74L457.641 207H454.861Z" fill="white"/>
<path d="M505.7 207V205.26L511.26 199.98C511.727 199.54 512.073 199.153 512.3 198.82C512.527 198.487 512.673 198.18 512.74 197.9C512.82 197.607 512.86 197.333 512.86 197.08C512.86 196.44 512.64 195.947 512.2 195.6C511.76 195.24 511.113 195.06 510.26 195.06C509.58 195.06 508.96 195.18 508.4 195.42C507.853 195.66 507.38 196.027 506.98 196.52L505.16 195.12C505.707 194.387 506.44 193.82 507.36 193.42C508.293 193.007 509.333 192.8 510.48 192.8C511.493 192.8 512.373 192.967 513.12 193.3C513.88 193.62 514.46 194.08 514.86 194.68C515.273 195.28 515.48 195.993 515.48 196.82C515.48 197.273 515.42 197.727 515.3 198.18C515.18 198.62 514.953 199.087 514.62 199.58C514.287 200.073 513.8 200.627 513.16 201.24L508.38 205.78L507.84 204.8H516.02V207H505.7ZM523.141 207.2C521.981 207.2 520.974 207.027 520.121 206.68C519.267 206.333 518.607 205.847 518.141 205.22C517.674 204.58 517.441 203.833 517.441 202.98C517.441 202.127 517.667 201.407 518.121 200.82C518.574 200.233 519.227 199.787 520.081 199.48C520.934 199.173 521.954 199.02 523.141 199.02C524.327 199.02 525.347 199.173 526.201 199.48C527.067 199.787 527.727 200.24 528.181 200.84C528.647 201.427 528.881 202.14 528.881 202.98C528.881 203.833 528.641 204.58 528.161 205.22C527.694 205.847 527.027 206.333 526.161 206.68C525.307 207.027 524.301 207.2 523.141 207.2ZM523.141 205.16C524.101 205.16 524.861 204.96 525.421 204.56C525.981 204.16 526.261 203.607 526.261 202.9C526.261 202.207 525.981 201.66 525.421 201.26C524.861 200.86 524.101 200.66 523.141 200.66C522.181 200.66 521.427 200.86 520.881 201.26C520.334 201.66 520.061 202.207 520.061 202.9C520.061 203.607 520.334 204.16 520.881 204.56C521.427 204.96 522.181 205.16 523.141 205.16ZM523.141 200.38C522.061 200.38 521.134 200.24 520.361 199.96C519.587 199.667 518.987 199.247 518.561 198.7C518.147 198.14 517.941 197.473 517.941 196.7C517.941 195.9 518.154 195.213 518.581 194.64C519.021 194.053 519.634 193.6 520.421 193.28C521.207 192.96 522.114 192.8 523.141 192.8C524.181 192.8 525.094 192.96 525.881 193.28C526.667 193.6 527.281 194.053 527.721 194.64C528.161 195.213 528.381 195.9 528.381 196.7C528.381 197.473 528.167 198.14 527.741 198.7C527.327 199.247 526.727 199.667 525.941 199.96C525.154 200.24 524.221 200.38 523.141 200.38ZM523.141 198.78C523.967 198.78 524.621 198.607 525.101 198.26C525.581 197.9 525.821 197.42 525.821 196.82C525.821 196.193 525.574 195.707 525.081 195.36C524.587 195.013 523.941 194.84 523.141 194.84C522.341 194.84 521.701 195.013 521.221 195.36C520.741 195.707 520.501 196.193 520.501 196.82C520.501 197.42 520.734 197.9 521.201 198.26C521.681 198.607 522.327 198.78 523.141 198.78Z" fill="white"/>
<path d="M571.7 207V205.26L577.26 199.98C577.727 199.54 578.073 199.153 578.3 198.82C578.527 198.487 578.673 198.18 578.74 197.9C578.82 197.607 578.86 197.333 578.86 197.08C578.86 196.44 578.64 195.947 578.2 195.6C577.76 195.24 577.113 195.06 576.26 195.06C575.58 195.06 574.96 195.18 574.4 195.42C573.853 195.66 573.38 196.027 572.98 196.52L571.16 195.12C571.707 194.387 572.44 193.82 573.36 193.42C574.293 193.007 575.333 192.8 576.48 192.8C577.493 192.8 578.373 192.967 579.12 193.3C579.88 193.62 580.46 194.08 580.86 194.68C581.273 195.28 581.48 195.993 581.48 196.82C581.48 197.273 581.42 197.727 581.3 198.18C581.18 198.62 580.953 199.087 580.62 199.58C580.287 200.073 579.8 200.627 579.16 201.24L574.38 205.78L573.84 204.8H582.02V207H571.7ZM588.241 192.8C589.521 192.8 590.607 193.073 591.501 193.62C592.407 194.153 593.101 194.933 593.581 195.96C594.061 196.987 594.301 198.253 594.301 199.76C594.301 201.36 594.007 202.713 593.421 203.82C592.847 204.927 592.047 205.767 591.021 206.34C589.994 206.913 588.801 207.2 587.441 207.2C586.734 207.2 586.061 207.127 585.421 206.98C584.781 206.833 584.227 206.607 583.761 206.3L584.721 204.34C585.107 204.593 585.527 204.773 585.981 204.88C586.434 204.973 586.901 205.02 587.381 205.02C588.701 205.02 589.747 204.613 590.521 203.8C591.294 202.987 591.681 201.787 591.681 200.2C591.681 199.947 591.674 199.653 591.661 199.32C591.647 198.973 591.601 198.627 591.521 198.28L592.321 199.16C592.094 199.707 591.767 200.167 591.341 200.54C590.914 200.9 590.414 201.173 589.841 201.36C589.267 201.547 588.634 201.64 587.941 201.64C587.034 201.64 586.214 201.467 585.481 201.12C584.761 200.76 584.187 200.26 583.761 199.62C583.334 198.967 583.121 198.207 583.121 197.34C583.121 196.407 583.347 195.607 583.801 194.94C584.254 194.26 584.867 193.733 585.641 193.36C586.427 192.987 587.294 192.8 588.241 192.8ZM588.381 194.84C587.847 194.84 587.374 194.94 586.961 195.14C586.547 195.327 586.221 195.6 585.981 195.96C585.754 196.307 585.641 196.727 585.641 197.22C585.641 197.953 585.894 198.533 586.401 198.96C586.907 199.387 587.587 199.6 588.441 199.6C589.001 199.6 589.494 199.5 589.921 199.3C590.347 199.087 590.681 198.8 590.921 198.44C591.161 198.067 591.281 197.653 591.281 197.2C591.281 196.76 591.167 196.367 590.941 196.02C590.714 195.66 590.387 195.373 589.961 195.16C589.534 194.947 589.007 194.84 588.381 194.84Z" fill="white"/>
<path d="M642.28 207.2C641.293 207.2 640.327 207.06 639.38 206.78C638.447 206.487 637.66 206.087 637.02 205.58L638.14 203.56C638.647 203.973 639.26 204.307 639.98 204.56C640.7 204.813 641.453 204.94 642.24 204.94C643.173 204.94 643.9 204.753 644.42 204.38C644.94 203.993 645.2 203.473 645.2 202.82C645.2 202.18 644.96 201.673 644.48 201.3C644 200.927 643.227 200.74 642.16 200.74H640.88V198.96L644.88 194.2L645.22 195.18H637.7V193H647.24V194.74L643.24 199.5L641.88 198.7H642.66C644.38 198.7 645.667 199.087 646.52 199.86C647.387 200.62 647.82 201.6 647.82 202.8C647.82 203.587 647.62 204.313 647.22 204.98C646.82 205.647 646.207 206.187 645.38 206.6C644.567 207 643.533 207.2 642.28 207.2ZM655.361 207.2C654.254 207.2 653.254 206.92 652.361 206.36C651.481 205.8 650.787 204.987 650.281 203.92C649.774 202.84 649.521 201.533 649.521 200C649.521 198.467 649.774 197.167 650.281 196.1C650.787 195.02 651.481 194.2 652.361 193.64C653.254 193.08 654.254 192.8 655.361 192.8C656.481 192.8 657.481 193.08 658.361 193.64C659.241 194.2 659.934 195.02 660.441 196.1C660.961 197.167 661.221 198.467 661.221 200C661.221 201.533 660.961 202.84 660.441 203.92C659.934 204.987 659.241 205.8 658.361 206.36C657.481 206.92 656.481 207.2 655.361 207.2ZM655.361 204.94C656.014 204.94 656.581 204.767 657.061 204.42C657.541 204.06 657.914 203.513 658.181 202.78C658.461 202.047 658.601 201.12 658.601 200C658.601 198.867 658.461 197.94 658.181 197.22C657.914 196.487 657.541 195.947 657.061 195.6C656.581 195.24 656.014 195.06 655.361 195.06C654.734 195.06 654.174 195.24 653.681 195.6C653.201 195.947 652.821 196.487 652.541 197.22C652.274 197.94 652.141 198.867 652.141 200C652.141 201.12 652.274 202.047 652.541 202.78C652.821 203.513 653.201 204.06 653.681 204.42C654.174 204.767 654.734 204.94 655.361 204.94Z" fill="white"/>
<path d="M51.28 268.2C50.2933 268.2 49.3267 268.06 48.38 267.78C47.4467 267.487 46.66 267.087 46.02 266.58L47.14 264.56C47.6467 264.973 48.26 265.307 48.98 265.56C49.7 265.813 50.4533 265.94 51.24 265.94C52.1733 265.94 52.9 265.753 53.42 265.38C53.94 264.993 54.2 264.473 54.2 263.82C54.2 263.18 53.96 262.673 53.48 262.3C53 261.927 52.2267 261.74 51.16 261.74H49.88V259.96L53.88 255.2L54.22 256.18H46.7V254H56.24V255.74L52.24 260.5L50.88 259.7H51.66C53.38 259.7 54.6667 260.087 55.52 260.86C56.3867 261.62 56.82 262.6 56.82 263.8C56.82 264.587 56.62 265.313 56.22 265.98C55.82 266.647 55.2067 267.187 54.38 267.6C53.5667 268 52.5333 268.2 51.28 268.2ZM60.7606 268V255L61.9006 256.18H57.8006V254H63.3606V268H60.7606Z" fill="white"/>
<path d="M115.28 268.2C114.293 268.2 113.327 268.06 112.38 267.78C111.447 267.487 110.66 267.087 110.02 266.58L111.14 264.56C111.647 264.973 112.26 265.307 112.98 265.56C113.7 265.813 114.453 265.94 115.24 265.94C116.173 265.94 116.9 265.753 117.42 265.38C117.94 264.993 118.2 264.473 118.2 263.82C118.2 263.18 117.96 262.673 117.48 262.3C117 261.927 116.227 261.74 115.16 261.74H113.88V259.96L117.88 255.2L118.22 256.18H110.7V254H120.24V255.74L116.24 260.5L114.88 259.7H115.66C117.38 259.7 118.667 260.087 119.52 260.86C120.387 261.62 120.82 262.6 120.82 263.8C120.82 264.587 120.62 265.313 120.22 265.98C119.82 266.647 119.207 267.187 118.38 267.6C117.567 268 116.533 268.2 115.28 268.2ZM122.243 268V266.26L127.803 260.98C128.27 260.54 128.616 260.153 128.843 259.82C129.07 259.487 129.216 259.18 129.283 258.9C129.363 258.607 129.403 258.333 129.403 258.08C129.403 257.44 129.183 256.947 128.743 256.6C128.303 256.24 127.656 256.06 126.803 256.06C126.123 256.06 125.503 256.18 124.943 256.42C124.396 256.66 123.923 257.027 123.523 257.52L121.703 256.12C122.25 255.387 122.983 254.82 123.903 254.42C124.836 254.007 125.876 253.8 127.023 253.8C128.036 253.8 128.916 253.967 129.663 254.3C130.423 254.62 131.003 255.08 131.403 255.68C131.816 256.28 132.023 256.993 132.023 257.82C132.023 258.273 131.963 258.727 131.843 259.18C131.723 259.62 131.496 260.087 131.163 260.58C130.83 261.073 130.343 261.627 129.703 262.24L124.923 266.78L124.383 265.8H132.563V268H122.243Z" fill="white"/>
<path d="M181.28 268.2C180.293 268.2 179.327 268.06 178.38 267.78C177.447 267.487 176.66 267.087 176.02 266.58L177.14 264.56C177.647 264.973 178.26 265.307 178.98 265.56C179.7 265.813 180.453 265.94 181.24 265.94C182.173 265.94 182.9 265.753 183.42 265.38C183.94 264.993 184.2 264.473 184.2 263.82C184.2 263.18 183.96 262.673 183.48 262.3C183 261.927 182.227 261.74 181.16 261.74H179.88V259.96L183.88 255.2L184.22 256.18H176.7V254H186.24V255.74L182.24 260.5L180.88 259.7H181.66C183.38 259.7 184.667 260.087 185.52 260.86C186.387 261.62 186.82 262.6 186.82 263.8C186.82 264.587 186.62 265.313 186.22 265.98C185.82 266.647 185.207 267.187 184.38 267.6C183.567 268 182.533 268.2 181.28 268.2ZM192.823 268.2C191.836 268.2 190.87 268.06 189.923 267.78C188.99 267.487 188.203 267.087 187.563 266.58L188.683 264.56C189.19 264.973 189.803 265.307 190.523 265.56C191.243 265.813 191.996 265.94 192.783 265.94C193.716 265.94 194.443 265.753 194.963 265.38C195.483 264.993 195.743 264.473 195.743 263.82C195.743 263.18 195.503 262.673 195.023 262.3C194.543 261.927 193.77 261.74 192.703 261.74H191.423V259.96L195.423 255.2L195.763 256.18H188.243V254H197.783V255.74L193.783 260.5L192.423 259.7H193.203C194.923 259.7 196.21 260.087 197.063 260.86C197.93 261.62 198.363 262.6 198.363 263.8C198.363 264.587 198.163 265.313 197.763 265.98C197.363 266.647 196.75 267.187 195.923 267.6C195.11 268 194.076 268.2 192.823 268.2Z" fill="white"/>
<path d="M246.28 268.2C245.293 268.2 244.327 268.06 243.38 267.78C242.447 267.487 241.66 267.087 241.02 266.58L242.14 264.56C242.647 264.973 243.26 265.307 243.98 265.56C244.7 265.813 245.453 265.94 246.24 265.94C247.173 265.94 247.9 265.753 248.42 265.38C248.94 264.993 249.2 264.473 249.2 263.82C249.2 263.18 248.96 262.673 248.48 262.3C248 261.927 247.227 261.74 246.16 261.74H244.88V259.96L248.88 255.2L249.22 256.18H241.7V254H251.24V255.74L247.24 260.5L245.88 259.7H246.66C248.38 259.7 249.667 260.087 250.52 260.86C251.387 261.62 251.82 262.6 251.82 263.8C251.82 264.587 251.62 265.313 251.22 265.98C250.82 266.647 250.207 267.187 249.38 267.6C248.567 268 247.533 268.2 246.28 268.2ZM253.321 264.82V263.02L260.221 254H263.001L256.201 263.02L254.901 262.62H266.001V264.82H253.321ZM261.001 268V264.82L261.081 262.62V259.8H263.521V268H261.001Z" fill="white"/>
<path d="M313.28 268.2C312.293 268.2 311.327 268.06 310.38 267.78C309.447 267.487 308.66 267.087 308.02 266.58L309.14 264.56C309.647 264.973 310.26 265.307 310.98 265.56C311.7 265.813 312.453 265.94 313.24 265.94C314.173 265.94 314.9 265.753 315.42 265.38C315.94 264.993 316.2 264.473 316.2 263.82C316.2 263.18 315.96 262.673 315.48 262.3C315 261.927 314.227 261.74 313.16 261.74H311.88V259.96L315.88 255.2L316.22 256.18H308.7V254H318.24V255.74L314.24 260.5L312.88 259.7H313.66C315.38 259.7 316.667 260.087 317.52 260.86C318.387 261.62 318.82 262.6 318.82 263.8C318.82 264.587 318.62 265.313 318.22 265.98C317.82 266.647 317.207 267.187 316.38 267.6C315.567 268 314.533 268.2 313.28 268.2ZM324.965 268.2C323.979 268.2 323.012 268.06 322.065 267.78C321.132 267.487 320.345 267.087 319.705 266.58L320.805 264.56C321.312 264.973 321.925 265.307 322.645 265.56C323.379 265.813 324.139 265.94 324.925 265.94C325.845 265.94 326.565 265.747 327.085 265.36C327.619 264.973 327.885 264.453 327.885 263.8C327.885 263.36 327.772 262.973 327.545 262.64C327.332 262.307 326.945 262.053 326.385 261.88C325.839 261.707 325.085 261.62 324.125 261.62H320.745L321.465 254H329.685V256.18H322.425L323.785 254.94L323.245 260.64L321.885 259.42H324.705C326.092 259.42 327.205 259.607 328.045 259.98C328.899 260.34 329.519 260.847 329.905 261.5C330.305 262.14 330.505 262.873 330.505 263.7C330.505 264.513 330.305 265.26 329.905 265.94C329.505 266.62 328.892 267.167 328.065 267.58C327.252 267.993 326.219 268.2 324.965 268.2Z" fill="white"/>
<path d="M378.28 268.2C377.293 268.2 376.327 268.06 375.38 267.78C374.447 267.487 373.66 267.087 373.02 266.58L374.14 264.56C374.647 264.973 375.26 265.307 375.98 265.56C376.7 265.813 377.453 265.94 378.24 265.94C379.173 265.94 379.9 265.753 380.42 265.38C380.94 264.993 381.2 264.473 381.2 263.82C381.2 263.18 380.96 262.673 380.48 262.3C380 261.927 379.227 261.74 378.16 261.74H376.88V259.96L380.88 255.2L381.22 256.18H373.7V254H383.24V255.74L379.24 260.5L377.88 259.7H378.66C380.38 259.7 381.667 260.087 382.52 260.86C383.387 261.62 383.82 262.6 383.82 263.8C383.82 264.587 383.62 265.313 383.22 265.98C382.82 266.647 382.207 267.187 381.38 267.6C380.567 268 379.533 268.2 378.28 268.2ZM391.581 268.2C390.314 268.2 389.227 267.933 388.321 267.4C387.414 266.853 386.721 266.067 386.241 265.04C385.761 264.013 385.521 262.747 385.521 261.24C385.521 259.64 385.807 258.287 386.381 257.18C386.967 256.073 387.774 255.233 388.801 254.66C389.841 254.087 391.034 253.8 392.381 253.8C393.087 253.8 393.761 253.873 394.401 254.02C395.054 254.167 395.607 254.393 396.061 254.7L395.101 256.66C394.714 256.407 394.294 256.233 393.841 256.14C393.401 256.033 392.934 255.98 392.441 255.98C391.121 255.98 390.074 256.387 389.301 257.2C388.527 258.013 388.141 259.213 388.141 260.8C388.141 261.053 388.147 261.353 388.161 261.7C388.174 262.033 388.221 262.373 388.301 262.72L387.501 261.84C387.741 261.293 388.067 260.84 388.481 260.48C388.907 260.107 389.407 259.827 389.981 259.64C390.567 259.453 391.201 259.36 391.881 259.36C392.801 259.36 393.621 259.54 394.341 259.9C395.061 260.247 395.634 260.747 396.061 261.4C396.487 262.04 396.701 262.793 396.701 263.66C396.701 264.58 396.474 265.38 396.021 266.06C395.567 266.74 394.954 267.267 394.181 267.64C393.407 268.013 392.541 268.2 391.581 268.2ZM391.441 266.16C391.974 266.16 392.447 266.067 392.861 265.88C393.274 265.68 393.594 265.4 393.821 265.04C394.061 264.68 394.181 264.26 394.181 263.78C394.181 263.047 393.927 262.467 393.421 262.04C392.914 261.613 392.234 261.4 391.381 261.4C390.821 261.4 390.327 261.507 389.901 261.72C389.487 261.92 389.154 262.2 388.901 262.56C388.661 262.92 388.541 263.333 388.541 263.8C388.541 264.227 388.654 264.62 388.881 264.98C389.107 265.34 389.434 265.627 389.861 265.84C390.301 266.053 390.827 266.16 391.441 266.16Z" fill="white"/>
<path d="M445.28 268.2C444.293 268.2 443.327 268.06 442.38 267.78C441.447 267.487 440.66 267.087 440.02 266.58L441.14 264.56C441.647 264.973 442.26 265.307 442.98 265.56C443.7 265.813 444.453 265.94 445.24 265.94C446.173 265.94 446.9 265.753 447.42 265.38C447.94 264.993 448.2 264.473 448.2 263.82C448.2 263.18 447.96 262.673 447.48 262.3C447 261.927 446.227 261.74 445.16 261.74H443.88V259.96L447.88 255.2L448.22 256.18H440.7V254H450.24V255.74L446.24 260.5L444.88 259.7H445.66C447.38 259.7 448.667 260.087 449.52 260.86C450.387 261.62 450.82 262.6 450.82 263.8C450.82 264.587 450.62 265.313 450.22 265.98C449.82 266.647 449.207 267.187 448.38 267.6C447.567 268 446.533 268.2 445.28 268.2ZM454.665 268L460.445 255.04L461.125 256.2H453.185L454.425 254.94V258.58H452.005V254H462.885V255.74L457.445 268H454.665Z" fill="white"/>
<path d="M510.28 268.2C509.293 268.2 508.327 268.06 507.38 267.78C506.447 267.487 505.66 267.087 505.02 266.58L506.14 264.56C506.647 264.973 507.26 265.307 507.98 265.56C508.7 265.813 509.453 265.94 510.24 265.94C511.173 265.94 511.9 265.753 512.42 265.38C512.94 264.993 513.2 264.473 513.2 263.82C513.2 263.18 512.96 262.673 512.48 262.3C512 261.927 511.227 261.74 510.16 261.74H508.88V259.96L512.88 255.2L513.22 256.18H505.7V254H515.24V255.74L511.24 260.5L509.88 259.7H510.66C512.38 259.7 513.667 260.087 514.52 260.86C515.387 261.62 515.82 262.6 515.82 263.8C515.82 264.587 515.62 265.313 515.22 265.98C514.82 266.647 514.207 267.187 513.38 267.6C512.567 268 511.533 268.2 510.28 268.2ZM523.141 268.2C521.981 268.2 520.974 268.027 520.121 267.68C519.267 267.333 518.607 266.847 518.141 266.22C517.674 265.58 517.441 264.833 517.441 263.98C517.441 263.127 517.667 262.407 518.121 261.82C518.574 261.233 519.227 260.787 520.081 260.48C520.934 260.173 521.954 260.02 523.141 260.02C524.327 260.02 525.347 260.173 526.201 260.48C527.067 260.787 527.727 261.24 528.181 261.84C528.647 262.427 528.881 263.14 528.881 263.98C528.881 264.833 528.641 265.58 528.161 266.22C527.694 266.847 527.027 267.333 526.161 267.68C525.307 268.027 524.301 268.2 523.141 268.2ZM523.141 266.16C524.101 266.16 524.861 265.96 525.421 265.56C525.981 265.16 526.261 264.607 526.261 263.9C526.261 263.207 525.981 262.66 525.421 262.26C524.861 261.86 524.101 261.66 523.141 261.66C522.181 261.66 521.427 261.86 520.881 262.26C520.334 262.66 520.061 263.207 520.061 263.9C520.061 264.607 520.334 265.16 520.881 265.56C521.427 265.96 522.181 266.16 523.141 266.16ZM523.141 261.38C522.061 261.38 521.134 261.24 520.361 260.96C519.587 260.667 518.987 260.247 518.561 259.7C518.147 259.14 517.941 258.473 517.941 257.7C517.941 256.9 518.154 256.213 518.581 255.64C519.021 255.053 519.634 254.6 520.421 254.28C521.207 253.96 522.114 253.8 523.141 253.8C524.181 253.8 525.094 253.96 525.881 254.28C526.667 254.6 527.281 255.053 527.721 255.64C528.161 256.213 528.381 256.9 528.381 257.7C528.381 258.473 528.167 259.14 527.741 259.7C527.327 260.247 526.727 260.667 525.941 260.96C525.154 261.24 524.221 261.38 523.141 261.38ZM523.141 259.78C523.967 259.78 524.621 259.607 525.101 259.26C525.581 258.9 525.821 258.42 525.821 257.82C525.821 257.193 525.574 256.707 525.081 256.36C524.587 256.013 523.941 255.84 523.141 255.84C522.341 255.84 521.701 256.013 521.221 256.36C520.741 256.707 520.501 257.193 520.501 257.82C520.501 258.42 520.734 258.9 521.201 259.26C521.681 259.607 522.327 259.78 523.141 259.78Z" fill="white"/>
<path d="M576.28 268.2C575.293 268.2 574.327 268.06 573.38 267.78C572.447 267.487 571.66 267.087 571.02 266.58L572.14 264.56C572.647 264.973 573.26 265.307 573.98 265.56C574.7 265.813 575.453 265.94 576.24 265.94C577.173 265.94 577.9 265.753 578.42 265.38C578.94 264.993 579.2 264.473 579.2 263.82C579.2 263.18 578.96 262.673 578.48 262.3C578 261.927 577.227 261.74 576.16 261.74H574.88V259.96L578.88 255.2L579.22 256.18H571.7V254H581.24V255.74L577.24 260.5L575.88 259.7H576.66C578.38 259.7 579.667 260.087 580.52 260.86C581.387 261.62 581.82 262.6 581.82 263.8C581.82 264.587 581.62 265.313 581.22 265.98C580.82 266.647 580.207 267.187 579.38 267.6C578.567 268 577.533 268.2 576.28 268.2ZM588.241 253.8C589.521 253.8 590.607 254.073 591.501 254.62C592.407 255.153 593.101 255.933 593.581 256.96C594.061 257.987 594.301 259.253 594.301 260.76C594.301 262.36 594.007 263.713 593.421 264.82C592.847 265.927 592.047 266.767 591.021 267.34C589.994 267.913 588.801 268.2 587.441 268.2C586.734 268.2 586.061 268.127 585.421 267.98C584.781 267.833 584.227 267.607 583.761 267.3L584.721 265.34C585.107 265.593 585.527 265.773 585.981 265.88C586.434 265.973 586.901 266.02 587.381 266.02C588.701 266.02 589.747 265.613 590.521 264.8C591.294 263.987 591.681 262.787 591.681 261.2C591.681 260.947 591.674 260.653 591.661 260.32C591.647 259.973 591.601 259.627 591.521 259.28L592.321 260.16C592.094 260.707 591.767 261.167 591.341 261.54C590.914 261.9 590.414 262.173 589.841 262.36C589.267 262.547 588.634 262.64 587.941 262.64C587.034 262.64 586.214 262.467 585.481 262.12C584.761 261.76 584.187 261.26 583.761 260.62C583.334 259.967 583.121 259.207 583.121 258.34C583.121 257.407 583.347 256.607 583.801 255.94C584.254 255.26 584.867 254.733 585.641 254.36C586.427 253.987 587.294 253.8 588.241 253.8ZM588.381 255.84C587.847 255.84 587.374 255.94 586.961 256.14C586.547 256.327 586.221 256.6 585.981 256.96C585.754 257.307 585.641 257.727 585.641 258.22C585.641 258.953 585.894 259.533 586.401 259.96C586.907 260.387 587.587 260.6 588.441 260.6C589.001 260.6 589.494 260.5 589.921 260.3C590.347 260.087 590.681 259.8 590.921 259.44C591.161 259.067 591.281 258.653 591.281 258.2C591.281 257.76 591.167 257.367 590.941 257.02C590.714 256.66 590.387 256.373 589.961 256.16C589.534 255.947 589.007 255.84 588.381 255.84Z" fill="white"/>
<path d="M636.68 264.82V263.02L643.58 254H646.36L639.56 263.02L638.26 262.62H649.36V264.82H636.68ZM644.36 268V264.82L644.44 262.62V259.8H646.88V268H644.36ZM656.294 268.2C655.188 268.2 654.188 267.92 653.294 267.36C652.414 266.8 651.721 265.987 651.214 264.92C650.708 263.84 650.454 262.533 650.454 261C650.454 259.467 650.708 258.167 651.214 257.1C651.721 256.02 652.414 255.2 653.294 254.64C654.188 254.08 655.188 253.8 656.294 253.8C657.414 253.8 658.414 254.08 659.294 254.64C660.174 255.2 660.868 256.02 661.374 257.1C661.894 258.167 662.154 259.467 662.154 261C662.154 262.533 661.894 263.84 661.374 264.92C660.868 265.987 660.174 266.8 659.294 267.36C658.414 267.92 657.414 268.2 656.294 268.2ZM656.294 265.94C656.948 265.94 657.514 265.767 657.994 265.42C658.474 265.06 658.848 264.513 659.114 263.78C659.394 263.047 659.534 262.12 659.534 261C659.534 259.867 659.394 258.94 659.114 258.22C658.848 257.487 658.474 256.947 657.994 256.6C657.514 256.24 656.948 256.06 656.294 256.06C655.668 256.06 655.108 256.24 654.614 256.6C654.134 256.947 653.754 257.487 653.474 258.22C653.208 258.94 653.074 259.867 653.074 261C653.074 262.12 653.208 263.047 653.474 263.78C653.754 264.513 654.134 265.06 654.614 265.42C655.108 265.767 655.668 265.94 656.294 265.94Z" fill="white"/>
<defs>
<clipPath id="clip0_1517_21002">
<rect width="20" height="20" fill="white" transform="translate(641 15)"/>
</clipPath>
</defs>
</svg>
