<svg width="44" height="56" viewBox="0 0 44 56" fill="none" xmlns="http://www.w3.org/2000/svg">
<path d="M0 14V42L21.9998 56L43.9997 42V14L21.9998 0L0 14Z" fill="#ECB20C"/>
<path d="M14.0123 23.1664L21.9998 6.0382V0L0 14L14.0123 23.1664Z" fill="url(#paint0_linear_114_9281)"/>
<path d="M32.4079 33.7192L22 49.9618V56L43.9998 42L39.2553 38.9807L32.4079 33.7192Z" fill="url(#paint1_linear_114_9281)"/>
<path d="M21.6194 42.7912L4.74424 38.981L0 42.0002L21.9998 56.0002V49.962L21.6194 42.7912Z" fill="url(#paint2_linear_114_9281)"/>
<path d="M22.3759 13.4638L39.2553 17.0192L43.9998 14L22 0V6.0382L22.3759 13.4638Z" fill="url(#paint3_linear_114_9281)"/>
<path d="M14.7728 32.9787L5.4565 17.5123L0 14V42L4.74424 38.9808L14.7728 32.9787Z" fill="url(#paint4_linear_114_9281)"/>
<path d="M29.2266 32.9787L38.5429 17.5123L43.9997 14V42L39.2552 38.9808L29.2266 32.9787Z" fill="url(#paint5_linear_114_9281)"/>
<path d="M4.74609 17.0196V38.9811L22.0017 49.9622L39.257 38.9811V17.0196L22.0017 6.03857L4.74609 17.0196Z" fill="url(#paint6_linear_114_9281)"/>
<path d="M9.49183 17.0942L9.90806 15.442C9.9614 15.23 10.072 15.0362 10.2278 14.8817C10.3836 14.7271 10.5788 14.6174 10.7925 14.5644L12.4577 14.1514C12.5026 14.1402 12.5026 14.077 12.4577 14.066L10.7925 13.653C10.5788 13.6001 10.3836 13.4904 10.2278 13.3358C10.072 13.1812 9.9614 12.9875 9.90806 12.7755L9.49183 11.1232C9.48054 11.0787 9.41676 11.0787 9.40576 11.1232L8.98952 12.7755C8.93619 12.9875 8.82557 13.1812 8.6698 13.3358C8.51403 13.4904 8.31875 13.6001 8.10513 13.653L6.4399 14.066C6.39503 14.0772 6.39503 14.1405 6.4399 14.1514L8.10513 14.5644C8.31875 14.6174 8.51403 14.7271 8.6698 14.8817C8.82557 15.0362 8.93619 15.23 8.98952 15.442L9.40576 17.0942C9.41705 17.1388 9.48082 17.1388 9.49183 17.0942Z" fill="white"/>
<path d="M39.1483 35.2185L39.4604 33.9792C39.5005 33.8202 39.5835 33.6749 39.7003 33.5589C39.8171 33.443 39.9636 33.3607 40.1239 33.3209L41.3729 33.011C41.4064 33.0026 41.4064 32.9553 41.3729 32.9469L40.1239 32.6369C39.9636 32.5971 39.8171 32.5148 39.7003 32.3989C39.5835 32.283 39.5005 32.1377 39.4604 31.9786L39.1483 30.7393C39.1399 30.706 39.0922 30.706 39.0837 30.7393L38.7716 31.9786C38.7315 32.1377 38.6486 32.283 38.5317 32.3989C38.4149 32.5148 38.2684 32.5971 38.1082 32.6369L36.8592 32.9469C36.8256 32.9553 36.8256 33.0026 36.8592 33.011L38.1082 33.3209C38.2684 33.3607 38.4149 33.443 38.5317 33.5589C38.6486 33.6749 38.7315 33.8202 38.7716 33.9792L39.0837 35.2185C39.0922 35.2518 39.1399 35.2518 39.1483 35.2185Z" fill="white"/>
<defs>
<linearGradient id="paint0_linear_114_9281" x1="11.0694" y1="7.08534" x2="14.3182" y2="11.1311" gradientUnits="userSpaceOnUse">
<stop stop-color="#98EEFF"/>
<stop offset="1" stop-color="#5EA9D3"/>
</linearGradient>
<linearGradient id="paint1_linear_114_9281" x1="32.3229" y1="48.0323" x2="29.9801" y2="44.4064" gradientUnits="userSpaceOnUse">
<stop stop-color="#98EEFF"/>
<stop offset="1" stop-color="#5EA9D3"/>
</linearGradient>
<linearGradient id="paint2_linear_114_9281" x1="10.7017" y1="49.3122" x2="14.615" y2="45.1522" gradientUnits="userSpaceOnUse">
<stop stop-color="#4F7EEF"/>
<stop offset="1" stop-color="#5C9AFA"/>
</linearGradient>
<linearGradient id="paint3_linear_114_9281" x1="33.2125" y1="6.78524" x2="29.2989" y2="10.9959" gradientUnits="userSpaceOnUse">
<stop stop-color="#4F7EEF"/>
<stop offset="1" stop-color="#5C9AFA"/>
</linearGradient>
<linearGradient id="paint4_linear_114_9281" x1="-0.000112878" y1="28" x2="5.4346" y2="28" gradientUnits="userSpaceOnUse">
<stop stop-color="#376CD2"/>
<stop offset="1" stop-color="#4D8CE0"/>
</linearGradient>
<linearGradient id="paint5_linear_114_9281" x1="43.9997" y1="28" x2="38.565" y2="28" gradientUnits="userSpaceOnUse">
<stop stop-color="#376CD2"/>
<stop offset="1" stop-color="#4D8CE0"/>
</linearGradient>
<linearGradient id="paint6_linear_114_9281" x1="22.0016" y1="49.9621" x2="22.0016" y2="6.03866" gradientUnits="userSpaceOnUse">
<stop stop-color="#80BDE4"/>
<stop offset="1" stop-color="#C5EAFA"/>
</linearGradient>
</defs>
</svg>
