<svg width="73" height="83" viewBox="0 0 73 83" fill="none" xmlns="http://www.w3.org/2000/svg">
<path d="M0 20.75V62.25L36.1448 83L72.2896 62.25V20.75L36.1448 0L0 20.75Z" fill="#ECB20C"/>
<path d="M23.0217 34.3359L36.1448 8.94948V0L0 20.75L23.0217 34.3359Z" fill="url(#paint0_linear_114_9153)"/>
<path d="M53.2442 49.9766L36.1445 74.0503V82.9998L72.2893 62.2498L64.4943 57.7748L53.2442 49.9766Z" fill="url(#paint1_linear_114_9153)"/>
<path d="M35.5198 63.4227L7.79459 57.7754L0 62.2503L36.1448 83.0003V74.0509L35.5198 63.4227Z" fill="url(#paint2_linear_114_9153)"/>
<path d="M36.7621 19.9553L64.4943 25.2249L72.2893 20.75L36.1445 0V8.94948L36.7621 19.9553Z" fill="url(#paint3_linear_114_9153)"/>
<path d="M24.2712 48.8791L8.9648 25.9558L0 20.75V62.25L7.79459 57.7751L24.2712 48.8791Z" fill="url(#paint4_linear_114_9153)"/>
<path d="M48.0176 48.8791L63.3239 25.9558L72.2892 20.75V62.25L64.4942 57.7751L48.0176 48.8791Z" fill="url(#paint5_linear_114_9153)"/>
<path d="M7.79297 25.2257V57.7758L36.1432 74.0512L64.4929 57.7758V25.2257L36.1432 8.9502L7.79297 25.2257Z" fill="url(#paint6_linear_114_9153)"/>
<path d="M15.5929 25.3369L16.2768 22.8879C16.3644 22.5738 16.5461 22.2866 16.8021 22.0575C17.058 21.8285 17.3788 21.6658 17.7298 21.5873L20.4657 20.9752C20.5394 20.9586 20.5394 20.8648 20.4657 20.8486L17.7298 20.2365C17.3788 20.1581 17.058 19.9954 16.8021 19.7663C16.5461 19.5372 16.3644 19.2501 16.2768 18.9359L15.5929 16.487C15.5744 16.421 15.4696 16.421 15.4515 16.487L14.7676 18.9359C14.68 19.2501 14.4983 19.5372 14.2424 19.7663C13.9864 19.9954 13.6656 20.1581 13.3146 20.2365L10.5787 20.8486C10.505 20.8652 10.505 20.959 10.5787 20.9752L13.3146 21.5873C13.6656 21.6658 13.9864 21.8285 14.2424 22.0575C14.4983 22.2866 14.68 22.5738 14.7676 22.8879L15.4515 25.3369C15.47 25.4028 15.5748 25.4028 15.5929 25.3369Z" fill="white"/>
<path d="M64.318 52.1983L64.8308 50.3615C64.8966 50.1257 65.0329 49.9104 65.2249 49.7385C65.4168 49.5667 65.6574 49.4447 65.9208 49.3858L67.9728 48.9264C68.028 48.9139 68.028 48.8438 67.9728 48.8314L65.9208 48.372C65.6574 48.313 65.4168 48.191 65.2249 48.0192C65.0329 47.8474 64.8966 47.632 64.8308 47.3963L64.318 45.5595C64.3041 45.5101 64.2257 45.5101 64.2118 45.5595L63.699 47.3963C63.6332 47.632 63.4969 47.8474 63.305 48.0192C63.113 48.191 62.8724 48.313 62.609 48.372L60.557 48.8314C60.5018 48.8438 60.5018 48.9139 60.557 48.9264L62.609 49.3858C62.8724 49.4447 63.113 49.5667 63.305 49.7385C63.4969 49.9104 63.6332 50.1257 63.699 50.3615L64.2118 52.1983C64.2257 52.2476 64.3041 52.2476 64.318 52.1983Z" fill="white"/>
<defs>
<linearGradient id="paint0_linear_114_9153" x1="18.1865" y1="10.5015" x2="22.8724" y2="16.97" gradientUnits="userSpaceOnUse">
<stop stop-color="#98EEFF"/>
<stop offset="1" stop-color="#5EA9D3"/>
</linearGradient>
<linearGradient id="paint1_linear_114_9153" x1="53.1047" y1="71.1905" x2="49.7905" y2="65.5046" gradientUnits="userSpaceOnUse">
<stop stop-color="#98EEFF"/>
<stop offset="1" stop-color="#5EA9D3"/>
</linearGradient>
<linearGradient id="paint2_linear_114_9153" x1="17.5824" y1="73.0878" x2="23.316" y2="66.3315" gradientUnits="userSpaceOnUse">
<stop stop-color="#4F7EEF"/>
<stop offset="1" stop-color="#5C9AFA"/>
</linearGradient>
<linearGradient id="paint3_linear_114_9153" x1="54.5663" y1="10.0567" x2="48.8392" y2="16.8869" gradientUnits="userSpaceOnUse">
<stop stop-color="#4F7EEF"/>
<stop offset="1" stop-color="#5C9AFA"/>
</linearGradient>
<linearGradient id="paint4_linear_114_9153" x1="-0.000185453" y1="41.5" x2="8.92882" y2="41.5" gradientUnits="userSpaceOnUse">
<stop stop-color="#376CD2"/>
<stop offset="1" stop-color="#4D8CE0"/>
</linearGradient>
<linearGradient id="paint5_linear_114_9153" x1="72.2892" y1="41.5" x2="63.3602" y2="41.5" gradientUnits="userSpaceOnUse">
<stop stop-color="#376CD2"/>
<stop offset="1" stop-color="#4D8CE0"/>
</linearGradient>
<linearGradient id="paint6_linear_114_9153" x1="36.143" y1="74.0511" x2="36.143" y2="8.95032" gradientUnits="userSpaceOnUse">
<stop stop-color="#80BDE4"/>
<stop offset="1" stop-color="#C5EAFA"/>
</linearGradient>
</defs>
</svg>
