<svg width="18" height="18" viewBox="0 0 18 18" fill="none" xmlns="http://www.w3.org/2000/svg">
<path d="M8.04979 6.56389C8.10867 6.5573 8.23567 6.56858 8.53769 6.71705C8.83581 6.8636 9.21705 7.09751 9.77097 7.43841C10.3246 7.77915 10.7056 8.01433 10.9744 8.2167C11.2432 8.41914 11.3283 8.53822 11.3615 8.61779C11.4628 8.86036 11.4628 9.13964 11.3615 9.38221C11.3283 9.46178 11.2432 9.58086 10.9744 9.78329C10.7056 9.98567 10.3246 10.2208 9.77097 10.5616C9.21705 10.9025 8.83581 11.1364 8.53769 11.283C8.23567 11.4314 8.10866 11.4427 8.04979 11.4361C7.83116 11.4116 7.62099 11.2881 7.47866 11.0793C7.4306 11.0088 7.3742 10.8647 7.34341 10.5069C7.313 10.1535 7.3125 9.68007 7.3125 9C7.3125 8.31993 7.313 7.84647 7.34341 7.4931C7.3742 7.13531 7.4306 6.99121 7.47866 6.92069C7.62099 6.71188 7.83116 6.58839 8.04979 6.56389Z" fill="#8990AE"/>
<path fill-rule="evenodd" clip-rule="evenodd" d="M0.9375 9C0.9375 4.5472 4.5472 0.9375 9 0.9375C13.4528 0.9375 17.0625 4.5472 17.0625 9C17.0625 13.4528 13.4528 17.0625 9 17.0625C4.5472 17.0625 0.9375 13.4528 0.9375 9ZM10.3356 6.46489C9.81279 6.14316 9.38595 5.88046 9.03401 5.70745C8.68035 5.53359 8.31211 5.40246 7.92454 5.44589C7.36436 5.50865 6.86703 5.82057 6.54906 6.28709C6.33326 6.6037 6.25773 6.98798 6.22255 7.39664C6.18749 7.80407 6.18749 8.32626 6.1875 8.97305V9.02694C6.18749 9.67373 6.18749 10.1959 6.22255 10.6034C6.25772 11.012 6.33326 11.3963 6.54906 11.7129C6.86703 12.1794 7.36436 12.4914 7.92454 12.5541C8.31211 12.5975 8.68035 12.4664 9.03401 12.2926C9.38595 12.1195 9.81279 11.8568 10.3355 11.5351L10.3851 11.5046C10.9084 11.1826 11.3351 10.92 11.6511 10.682C11.972 10.4403 12.2503 10.1734 12.3996 9.8158C12.6168 9.29578 12.6168 8.70422 12.3996 8.1842C12.2503 7.82664 11.972 7.55973 11.6511 7.31805C11.3351 7.08 10.9083 6.8174 10.3851 6.49537L10.3356 6.46489Z" fill="#8990AE"/>
</svg>
