<svg width="29" height="18" viewBox="0 0 29 18" fill="none" xmlns="http://www.w3.org/2000/svg">
<path d="M18.1106 2.56056H10.6114V15.5101H18.1106V2.56056Z" fill="#8990AE"/>
<path d="M11.0876 9.03531C11.0864 7.78818 11.3805 6.55713 11.9476 5.43537C12.5148 4.31361 13.34 3.33053 14.361 2.56056C13.0967 1.60562 11.5783 1.01175 9.9793 0.84684C8.38033 0.68193 6.76534 0.952625 5.31891 1.62799C3.87248 2.30336 2.65297 3.35616 1.79978 4.66604C0.946588 5.97591 0.494141 7.49002 0.494141 9.03531C0.494141 10.5806 0.946588 12.0947 1.79978 13.4046C2.65297 14.7145 3.87248 15.7673 5.31891 16.4426C6.76534 17.118 8.38033 17.3887 9.9793 17.2238C11.5783 17.0589 13.0967 16.465 14.361 15.5101C13.3401 14.7401 12.5148 13.757 11.9476 12.6352C11.3805 11.5135 11.0864 10.2824 11.0876 9.03531Z" fill="#8990AE"/>
<path d="M28.2275 9.03531C28.2275 10.5806 27.7751 12.0947 26.922 13.4046C26.0688 14.7144 24.8494 15.7672 23.403 16.4426C21.9566 17.118 20.3416 17.3887 18.7427 17.2238C17.1437 17.0589 15.6253 16.465 14.361 15.5101C15.3811 14.7393 16.2057 13.7561 16.7728 12.6345C17.3398 11.5129 17.6344 10.2822 17.6344 9.03531C17.6344 7.78838 17.3398 6.55772 16.7728 5.43613C16.2057 4.31454 15.3811 3.33131 14.361 2.56056C15.6253 1.60561 17.1437 1.01175 18.7427 0.846838C20.3416 0.68193 21.9566 0.952636 23.403 1.62801C24.8494 2.30339 26.0688 3.35618 26.922 4.66606C27.7751 5.97594 28.2275 7.49004 28.2275 9.03531Z" fill="#8990AE"/>
<path d="M27.4098 14.1385V13.8734H27.521V13.8194H27.2377V13.8734H27.349V14.1385H27.4098ZM27.9599 14.1385V13.8189H27.873L27.7731 14.0387L27.6732 13.8189H27.5863V14.1385H27.6476V13.8974L27.7413 14.1053H27.8049L27.8986 13.8969V14.1385H27.9599Z" fill="#8990AE"/>
</svg>
