<svg width="18" height="12" viewBox="0 0 18 12" fill="none" xmlns="http://www.w3.org/2000/svg">
<path d="M1.49995 6L0.75749 6.10607L0.764735 6.15678L0.778809 6.20604L1.49995 6ZM6.31742 1.05777L6.01282 1.74312L6.31742 1.05777ZM6.71566 1.23476L7.02026 0.549401V0.549401L6.71566 1.23476ZM8.22124 1.81457L8.0655 2.54822L8.22124 1.81457ZM11.2842 1.23476L10.9796 0.549401V0.549401L11.2842 1.23476ZM9.77866 1.81457L9.9344 2.54822L9.77866 1.81457ZM11.6699 10.1533L12.3008 9.74771L12.3008 9.74771L11.6699 10.1533ZM6.22097 10.3229L5.59008 9.91729V9.9173L6.22097 10.3229ZM2.5816 9.78578L3.30275 9.57974L2.5816 9.78578ZM16.0429 9.19961L15.3004 9.09355L16.0429 9.19961ZM16.6677 4.82583L17.4102 4.9319L16.6677 4.82583ZM6.50174 9.8861L7.13263 10.2917L6.50174 9.8861ZM11.4982 9.8861L10.8673 10.2917L10.8673 10.2917L11.4982 9.8861ZM11.6825 1.05777L11.9871 1.74312V1.74312L11.6825 1.05777ZM1.33221 4.82583L0.589752 4.9319L1.33221 4.82583ZM3.74995 4.5C3.33574 4.5 2.99995 4.83579 2.99995 5.25C2.99995 5.66421 3.33574 6 3.74995 6V4.5ZM6.74995 6C7.16417 6 7.49995 5.66421 7.49995 5.25C7.49995 4.83579 7.16417 4.5 6.74995 4.5V6ZM4.49995 6.75C4.49995 7.16421 4.83574 7.5 5.24995 7.5C5.66417 7.5 5.99995 7.16421 5.99995 6.75H4.49995ZM5.99995 3.75C5.99995 3.33579 5.66417 3 5.24995 3C4.83574 3 4.49995 3.33579 4.49995 3.75H5.99995ZM3.30275 9.57974L2.2211 5.79396L0.778809 6.20604L1.86046 9.99182L3.30275 9.57974ZM2.24241 5.89393L2.07468 4.71977L0.589752 4.9319L0.75749 6.10607L2.24241 5.89393ZM5.87086 9.48053L5.59008 9.91729L6.85185 10.7284L7.13263 10.2917L5.87086 9.48053ZM12.3008 9.74771L12.129 9.48053L10.8673 10.2917L11.039 10.5588L12.3008 9.74771ZM6.01282 1.74312L6.41106 1.92012L7.02026 0.549401L6.62203 0.372407L6.01282 1.74312ZM11.5888 1.92012L11.9871 1.74312L11.3779 0.372407L10.9796 0.549401L11.5888 1.92012ZM4.86717 1.5C5.26186 1.5 5.65215 1.58283 6.01282 1.74312L6.62203 0.372407C6.06957 0.12687 5.47173 0 4.86717 0V1.5ZM6.41106 1.92012C7.12914 2.23927 7.58575 2.44638 8.0655 2.54822L8.37699 1.08092C8.08709 1.01938 7.79653 0.894407 7.02026 0.549401L6.41106 1.92012ZM10.9796 0.549401C10.2034 0.894407 9.91281 1.01938 9.62292 1.08092L9.9344 2.54822C10.4142 2.44638 10.8708 2.23927 11.5888 1.92012L10.9796 0.549401ZM8.0655 2.54822C8.6816 2.67901 9.3183 2.67901 9.9344 2.54822L9.62292 1.08092C9.21218 1.16811 8.78772 1.16811 8.37699 1.08092L8.0655 2.54822ZM13.6787 10.5C13.1214 10.5 12.6022 10.2166 12.3008 9.74771L11.039 10.5588C11.6164 11.457 12.611 12 13.6787 12V10.5ZM5.59008 9.9173C5.35662 10.2805 4.9545 10.5 4.52276 10.5V12C5.4649 12 6.34239 11.5209 6.85185 10.7284L5.59008 9.9173ZM1.86046 9.99182C2.20008 11.1805 3.28653 12 4.52276 12V10.5C3.95625 10.5 3.45838 10.1245 3.30275 9.57974L1.86046 9.99182ZM15.3004 9.09355C15.1851 9.90056 14.494 10.5 13.6787 10.5V12C15.2404 12 16.5645 10.8517 16.7853 9.30568L15.3004 9.09355ZM17.4102 4.9319C17.782 2.32888 15.7622 0 13.1327 0V1.5C14.8494 1.5 16.168 3.0204 15.9252 4.71977L17.4102 4.9319ZM7.13263 10.2917C8.00646 8.93238 9.99345 8.93238 10.8673 10.2917L12.129 9.48053C10.6648 7.20276 7.33514 7.20276 5.87086 9.48053L7.13263 10.2917ZM11.9871 1.74312C12.3478 1.58283 12.738 1.5 13.1327 1.5V0C12.5282 0 11.9303 0.12687 11.3779 0.372407L11.9871 1.74312ZM2.07468 4.71977C1.83191 3.0204 3.15055 1.5 4.86717 1.5V0C2.23772 0 0.217892 2.32888 0.589752 4.9319L2.07468 4.71977ZM5.99995 6.75V3.75H4.49995V6.75H5.99995ZM15.9252 4.71977L15.3004 9.09355L16.7853 9.30568L17.4102 4.9319L15.9252 4.71977ZM3.74995 6H5.24995V4.5H3.74995V6ZM5.24995 6H6.74995V4.5H5.24995V6Z" fill="#8990AE"/>
<path d="M13.5 3.75C13.5 4.16421 13.1642 4.5 12.75 4.5C12.3358 4.5 12 4.16421 12 3.75C12 3.33579 12.3358 3 12.75 3C13.1642 3 13.5 3.33579 13.5 3.75Z" fill="#8990AE"/>
<path d="M12 5.25C12 5.66421 11.6642 6 11.25 6C10.8358 6 10.5 5.66421 10.5 5.25C10.5 4.83579 10.8358 4.5 11.25 4.5C11.6642 4.5 12 4.83579 12 5.25Z" fill="#8990AE"/>
<path d="M15 5.25C15 5.66421 14.6642 6 14.25 6C13.8358 6 13.5 5.66421 13.5 5.25C13.5 4.83579 13.8358 4.5 14.25 4.5C14.6642 4.5 15 4.83579 15 5.25Z" fill="#8990AE"/>
<path d="M13.5 6.75C13.5 7.16421 13.1642 7.5 12.75 7.5C12.3358 7.5 12 7.16421 12 6.75C12 6.33579 12.3358 6 12.75 6C13.1642 6 13.5 6.33579 13.5 6.75Z" fill="#8990AE"/>
</svg>
