<svg width="706" height="372" viewBox="0 0 706 372" fill="none" xmlns="http://www.w3.org/2000/svg">
<rect width="706" height="372" rx="10" fill="#2E3565"/>
<path d="M584.111 31.2127L584.451 30.5444L584.111 31.2127ZM582.29 29.3918L582.958 29.0513L582.29 29.3918ZM599.715 29.3918L599.047 29.0513L599.715 29.3918ZM597.894 31.2127L597.554 30.5444L597.894 31.2127ZM597.894 18.7876L597.554 19.4559L597.894 18.7876ZM599.715 20.6085L599.047 20.949L599.715 20.6085ZM584.111 18.7876L584.451 19.4559L584.111 18.7876ZM582.29 20.6085L582.958 20.949L582.29 20.6085ZM587.669 26.7502C587.255 26.7502 586.919 27.0859 586.919 27.5002C586.919 27.9144 587.255 28.2502 587.669 28.2502V26.7502ZM594.336 28.2502C594.75 28.2502 595.086 27.9144 595.086 27.5002C595.086 27.0859 594.75 26.7502 594.336 26.7502V28.2502ZM594.336 21.7502C593.922 21.7502 593.586 22.0859 593.586 22.5002C593.586 22.9144 593.922 23.2502 594.336 23.2502V21.7502ZM597.669 23.2502C598.083 23.2502 598.419 22.9144 598.419 22.5002C598.419 22.0859 598.083 21.7502 597.669 21.7502V23.2502ZM588.503 19.0835H593.503V17.5835H588.503V19.0835ZM593.503 30.9168H588.503V32.4168H593.503V30.9168ZM588.503 30.9168C587.323 30.9168 586.484 30.9162 585.827 30.8626C585.179 30.8096 584.774 30.7087 584.451 30.5444L583.77 31.8809C584.339 32.1709 584.964 32.297 585.705 32.3576C586.437 32.4174 587.348 32.4168 588.503 32.4168V30.9168ZM581.086 25.0002C581.086 26.1546 581.085 27.0655 581.145 27.7979C581.206 28.5391 581.332 29.1633 581.622 29.7323L582.958 29.0513C582.794 28.729 582.693 28.3242 582.64 27.6757C582.587 27.0186 582.586 26.1793 582.586 25.0002H581.086ZM584.451 30.5444C583.809 30.2169 583.286 29.6942 582.958 29.0513L581.622 29.7323C582.093 30.6574 582.845 31.4096 583.77 31.8809L584.451 30.5444ZM599.419 25.0002C599.419 26.1793 599.419 27.0186 599.365 27.6757C599.312 28.3242 599.211 28.729 599.047 29.0513L600.383 29.7323C600.673 29.1633 600.799 28.5391 600.86 27.7979C600.92 27.0655 600.919 26.1546 600.919 25.0002H599.419ZM593.503 32.4168C594.657 32.4168 595.568 32.4174 596.3 32.3576C597.042 32.297 597.666 32.1709 598.235 31.8809L597.554 30.5444C597.231 30.7087 596.827 30.8096 596.178 30.8626C595.521 30.9162 594.682 30.9168 593.503 30.9168V32.4168ZM599.047 29.0513C598.719 29.6942 598.197 30.2169 597.554 30.5444L598.235 31.8809C599.16 31.4096 599.912 30.6574 600.383 29.7323L599.047 29.0513ZM593.503 19.0835C594.682 19.0835 595.521 19.0841 596.178 19.1378C596.827 19.1908 597.231 19.2917 597.554 19.4559L598.235 18.1194C597.666 17.8295 597.042 17.7033 596.3 17.6428C595.568 17.5829 594.657 17.5835 593.503 17.5835V19.0835ZM600.919 25.0002C600.919 23.8458 600.92 22.9349 600.86 22.2024C600.799 21.4612 600.673 20.837 600.383 20.268L599.047 20.949C599.211 21.2713 599.312 21.6762 599.365 22.3246C599.419 22.9818 599.419 23.821 599.419 25.0002H600.919ZM597.554 19.4559C598.197 19.7835 598.719 20.3061 599.047 20.949L600.383 20.268C599.912 19.3429 599.16 18.5908 598.235 18.1194L597.554 19.4559ZM588.503 17.5835C587.348 17.5835 586.437 17.5829 585.705 17.6428C584.964 17.7033 584.339 17.8295 583.77 18.1194L584.451 19.4559C584.774 19.2917 585.179 19.1908 585.827 19.1378C586.484 19.0841 587.323 19.0835 588.503 19.0835V17.5835ZM582.586 25.0002C582.586 23.821 582.587 22.9818 582.64 22.3246C582.693 21.6762 582.794 21.2713 582.958 20.949L581.622 20.268C581.332 20.837 581.206 21.4612 581.145 22.2024C581.085 22.9349 581.086 23.8458 581.086 25.0002H582.586ZM583.77 18.1194C582.845 18.5908 582.093 19.3429 581.622 20.268L582.958 20.949C583.286 20.3061 583.809 19.7835 584.451 19.4559L583.77 18.1194ZM587.669 28.2502H594.336V26.7502H587.669V28.2502ZM594.336 23.2502L597.669 23.2502V21.7502L594.336 21.7502V23.2502Z" fill="#9AA3D9"/>
<path d="M586.003 27.5002C586.003 27.9604 585.63 28.3335 585.169 28.3335C584.709 28.3335 584.336 27.9604 584.336 27.5002C584.336 27.0399 584.709 26.6668 585.169 26.6668C585.63 26.6668 586.003 27.0399 586.003 27.5002Z" fill="#9AA3D9"/>
<path d="M597.669 27.5002C597.669 27.9604 597.296 28.3335 596.836 28.3335C596.376 28.3335 596.003 27.9604 596.003 27.5002C596.003 27.0399 596.376 26.6668 596.836 26.6668C597.296 26.6668 597.669 27.0399 597.669 27.5002Z" fill="#9AA3D9"/>
<path d="M589.336 22.5002C589.336 22.9604 588.963 23.3335 588.503 23.3335C588.042 23.3335 587.669 22.9604 587.669 22.5002C587.669 22.0399 588.042 21.6668 588.503 21.6668C588.963 21.6668 589.336 22.0399 589.336 22.5002Z" fill="#9AA3D9"/>
<path d="M592.669 22.5002C592.669 22.9604 592.296 23.3335 591.836 23.3335C591.376 23.3335 591.003 22.9604 591.003 22.5002C591.003 22.0399 591.376 21.6668 591.836 21.6668C592.296 21.6668 592.669 22.0399 592.669 22.5002Z" fill="#9AA3D9"/>
<path d="M586.003 22.5002C586.003 22.9604 585.63 23.3335 585.169 23.3335C584.709 23.3335 584.336 22.9604 584.336 22.5002C584.336 22.0399 584.709 21.6668 585.169 21.6668C585.63 21.6668 586.003 22.0399 586.003 22.5002Z" fill="#9AA3D9"/>
<path d="M616.833 27.381L618.05 24.9001C618.665 23.647 620.472 23.7082 621 25C621.528 26.2918 623.335 26.353 623.95 25.0999L625.167 22.619M621 32.5C617.875 32.5 616.313 32.5 615.218 31.7042C614.864 31.4472 614.553 31.1362 614.296 30.7824C613.5 29.6872 613.5 28.1248 613.5 25C613.5 21.8752 613.5 20.3128 614.296 19.2176C614.553 18.8638 614.864 18.5528 615.218 18.2958C616.313 17.5 617.875 17.5 621 17.5C624.125 17.5 625.687 17.5 626.782 18.2958C627.136 18.5528 627.447 18.8638 627.704 19.2176C628.5 20.3128 628.5 21.8752 628.5 25C628.5 28.1248 628.5 29.6872 627.704 30.7824C627.447 31.1362 627.136 31.4472 626.782 31.7042C625.687 32.5 624.125 32.5 621 32.5Z" stroke="#9AA3D9" stroke-width="1.5" stroke-linecap="round"/>
<g clip-path="url(#clip0_1530_21007)">
<path d="M651.831 28.3332C651.831 28.7934 651.458 29.1665 650.997 29.1665C650.537 29.1665 650.164 28.7934 650.164 28.3332C650.164 27.8729 650.537 27.4998 650.997 27.4998C651.458 27.4998 651.831 27.8729 651.831 28.3332Z" fill="#9AA3D9"/>
<path d="M650.997 20.8332V25.8332M659.331 24.9998C659.331 29.6022 655.6 33.3332 650.997 33.3332C646.395 33.3332 642.664 29.6022 642.664 24.9998C642.664 20.3975 646.395 16.6665 650.997 16.6665C655.6 16.6665 659.331 20.3975 659.331 24.9998Z" stroke="#9AA3D9" stroke-width="1.5" stroke-linecap="round"/>
</g>
<path d="M685.165 28.1095L685.499 27.7762C685.549 27.7263 685.574 27.7014 685.594 27.68C687.166 26.063 687.166 23.4894 685.594 21.8724C685.574 21.851 685.549 21.8261 685.499 21.7762L685.165 21.4429M686.832 30.6095L687.415 30.0262C687.913 29.5285 688.162 29.2796 688.353 29.0511C690.421 26.5763 690.421 22.9761 688.353 20.5013C688.162 20.2728 687.913 20.0239 687.415 19.5262L686.832 18.9429M676.761 28.2434L677.591 28.9275C679.61 30.5911 680.619 31.4229 681.465 31.1762C681.633 31.1273 681.792 31.0522 681.937 30.9537C682.665 30.4575 682.665 29.1497 682.665 26.534V23.0184C682.665 20.4027 682.665 19.0948 681.937 18.5987C681.792 18.5002 681.633 18.4251 681.465 18.3762C680.619 18.1295 679.61 18.9613 677.591 20.6249L676.761 21.309C676.6 21.4421 676.519 21.5087 676.437 21.5696C675.773 22.0641 674.978 22.3498 674.151 22.3903C674.049 22.3952 673.945 22.3952 673.735 22.3952C673.516 22.3952 673.406 22.3952 673.313 22.4056C672.54 22.4922 671.929 23.1029 671.842 23.8766C671.832 23.969 671.832 24.0788 671.832 24.2984V25.254C671.832 25.4736 671.832 25.5834 671.842 25.6758C671.929 26.4495 672.54 27.0602 673.313 27.1468C673.406 27.1571 673.516 27.1571 673.735 27.1571C673.945 27.1571 674.049 27.1571 674.151 27.1621C674.978 27.2026 675.773 27.4883 676.437 27.9828C676.519 28.0437 676.6 28.1102 676.761 28.2434Z" stroke="#9AA3D9" stroke-width="1.5" stroke-linecap="round"/>
<circle cx="332.535" cy="20" r="5" fill="white"/>
<circle cx="352.535" cy="20" r="5" fill="white"/>
<circle cx="372.535" cy="20" r="5" fill="white"/>
<circle cx="322.535" cy="50" r="5" fill="white"/>
<circle cx="342.535" cy="50" r="5" fill="white"/>
<circle cx="362.535" cy="50" r="5" fill="white"/>
<circle cx="382.535" cy="50" r="5" fill="white"/>
<circle cx="312.535" cy="80" r="5" fill="white"/>
<circle cx="332.535" cy="80" r="5" fill="white"/>
<circle cx="352.535" cy="80" r="5" fill="white"/>
<circle cx="372.535" cy="80" r="5" fill="white"/>
<circle cx="392.535" cy="80" r="5" fill="white"/>
<circle cx="302.535" cy="110" r="5" fill="white"/>
<circle cx="322.535" cy="110" r="5" fill="white"/>
<circle cx="342.535" cy="110" r="5" fill="white"/>
<circle cx="362.535" cy="110" r="5" fill="white"/>
<circle cx="382.535" cy="110" r="5" fill="white"/>
<circle cx="402.535" cy="110" r="5" fill="white"/>
<circle cx="292.535" cy="140" r="5" fill="white"/>
<circle cx="312.535" cy="140" r="5" fill="white"/>
<circle cx="332.535" cy="140" r="5" fill="white"/>
<circle cx="352.535" cy="140" r="5" fill="white"/>
<circle cx="372.535" cy="140" r="5" fill="white"/>
<circle cx="392.535" cy="140" r="5" fill="white"/>
<circle cx="412.535" cy="140" r="5" fill="white"/>
<circle cx="282.535" cy="170" r="5" fill="white"/>
<circle cx="302.535" cy="170" r="5" fill="white"/>
<circle cx="322.535" cy="170" r="5" fill="white"/>
<circle cx="342.535" cy="170" r="5" fill="white"/>
<circle cx="362.535" cy="170" r="5" fill="white"/>
<circle cx="382.535" cy="170" r="5" fill="white"/>
<circle cx="402.535" cy="170" r="5" fill="white"/>
<circle cx="422.535" cy="170" r="5" fill="white"/>
<circle cx="272.535" cy="200" r="5" fill="white"/>
<circle cx="292.535" cy="200" r="5" fill="white"/>
<circle cx="312.535" cy="200" r="5" fill="white"/>
<circle cx="332.535" cy="200" r="5" fill="white"/>
<circle cx="352.535" cy="200" r="5" fill="white"/>
<circle cx="372.535" cy="200" r="5" fill="white"/>
<circle cx="392.535" cy="200" r="5" fill="white"/>
<circle cx="412.535" cy="200" r="5" fill="white"/>
<circle cx="432.535" cy="200" r="5" fill="white"/>
<circle cx="262.535" cy="230" r="5" fill="white"/>
<circle cx="282.535" cy="230" r="5" fill="white"/>
<circle cx="302.535" cy="230" r="5" fill="white"/>
<circle cx="322.535" cy="230" r="5" fill="white"/>
<circle cx="342.535" cy="230" r="5" fill="white"/>
<circle cx="362.535" cy="230" r="5" fill="white"/>
<circle cx="382.535" cy="230" r="5" fill="white"/>
<circle cx="402.535" cy="230" r="5" fill="white"/>
<circle cx="422.535" cy="230" r="5" fill="white"/>
<circle cx="442.535" cy="230" r="5" fill="white"/>
<circle cx="252.535" cy="260" r="5" fill="white"/>
<circle cx="272.535" cy="260" r="5" fill="white"/>
<circle cx="292.535" cy="260" r="5" fill="white"/>
<circle cx="312.535" cy="260" r="5" fill="white"/>
<circle cx="332.535" cy="260" r="5" fill="white"/>
<circle cx="352.535" cy="260" r="5" fill="white"/>
<circle cx="372.535" cy="260" r="5" fill="white"/>
<circle cx="392.535" cy="260" r="5" fill="white"/>
<circle cx="412.535" cy="260" r="5" fill="white"/>
<circle cx="432.535" cy="260" r="5" fill="white"/>
<circle cx="452.535" cy="260" r="5" fill="white"/>
<circle cx="242.535" cy="290" r="5" fill="white"/>
<circle cx="262.535" cy="290" r="5" fill="white"/>
<circle cx="282.535" cy="290" r="5" fill="white"/>
<circle cx="302.535" cy="290" r="5" fill="white"/>
<circle cx="322.535" cy="290" r="5" fill="white"/>
<circle cx="342.535" cy="290" r="5" fill="white"/>
<circle cx="362.535" cy="290" r="5" fill="white"/>
<circle cx="382.535" cy="290" r="5" fill="white"/>
<circle cx="402.535" cy="290" r="5" fill="white"/>
<circle cx="422.535" cy="290" r="5" fill="white"/>
<circle cx="442.535" cy="290" r="5" fill="white"/>
<circle cx="462.535" cy="290" r="5" fill="white"/>
<circle cx="232.535" cy="320" r="5" fill="white"/>
<circle cx="252.535" cy="320" r="5" fill="white"/>
<circle cx="272.535" cy="320" r="5" fill="white"/>
<circle cx="292.535" cy="320" r="5" fill="white"/>
<circle cx="312.535" cy="320" r="5" fill="white"/>
<circle cx="332.535" cy="320" r="5" fill="white"/>
<circle cx="352.535" cy="320" r="5" fill="white"/>
<circle cx="372.535" cy="320" r="5" fill="white"/>
<circle cx="392.535" cy="320" r="5" fill="white"/>
<circle cx="412.535" cy="320" r="5" fill="white"/>
<circle cx="432.535" cy="320" r="5" fill="white"/>
<circle cx="452.535" cy="320" r="5" fill="white"/>
<circle cx="472.535" cy="320" r="5" fill="white"/>
<path d="M216 341.85C216 340.595 216.438 339.286 217.587 338.781C218.636 338.32 220.046 338.225 221.308 339.898C223.698 343.065 229.128 343.274 232.985 339.898C235.466 337.727 236.951 338.348 237.695 339.069C238.183 339.54 238.293 340.248 238.293 340.927V352C238.293 354.761 236.054 357 233.293 357H221C218.239 357 216 354.761 216 352V341.85Z" fill="#FF5789"/>
<path d="M221.56 350.172C221.313 350.172 221.071 350.137 220.835 350.067C220.601 349.994 220.405 349.894 220.245 349.767L220.52 349.262C220.646 349.365 220.8 349.449 220.98 349.512C221.163 349.575 221.353 349.607 221.55 349.607C221.78 349.607 221.96 349.559 222.09 349.462C222.223 349.365 222.29 349.235 222.29 349.072C222.29 348.962 222.261 348.865 222.205 348.782C222.151 348.699 222.055 348.635 221.915 348.592C221.778 348.549 221.59 348.527 221.35 348.527H220.505L220.685 346.622H222.74V347.167H220.925L221.265 346.857L221.13 348.282L220.79 347.977H221.495C221.841 347.977 222.12 348.024 222.33 348.117C222.543 348.207 222.698 348.334 222.795 348.497C222.895 348.657 222.945 348.84 222.945 349.047C222.945 349.25 222.895 349.437 222.795 349.607C222.695 349.777 222.541 349.914 222.335 350.017C222.131 350.12 221.873 350.172 221.56 350.172ZM223.71 350.157C223.596 350.157 223.5 350.119 223.42 350.042C223.34 349.962 223.3 349.862 223.3 349.742C223.3 349.615 223.34 349.515 223.42 349.442C223.5 349.365 223.596 349.327 223.71 349.327C223.823 349.327 223.92 349.365 224 349.442C224.08 349.515 224.12 349.615 224.12 349.742C224.12 349.862 224.08 349.962 224 350.042C223.92 350.119 223.823 350.157 223.71 350.157ZM224.471 349.327V348.877L226.196 346.622H226.891L225.191 348.877L224.866 348.777H227.641V349.327H224.471ZM226.391 350.122V349.327L226.411 348.777V348.072H227.021V350.122H226.391ZM227.666 350.122L228.841 348.592L228.831 348.927L227.711 347.452H228.406L229.191 348.502H228.926L229.716 347.452H230.391L229.261 348.927L229.266 348.592L230.436 350.122H229.731L228.906 349.007L229.166 349.042L228.356 350.122H227.666Z" fill="white"/>
<path d="M243.867 341.85C243.867 340.595 244.305 339.286 245.454 338.781C246.503 338.32 247.913 338.225 249.175 339.898C251.565 343.065 256.995 343.274 260.852 339.898C263.333 337.727 264.818 338.348 265.562 339.069C266.05 339.54 266.16 340.248 266.16 340.927V352C266.16 354.761 263.921 357 261.16 357H248.867C246.106 357 243.867 354.761 243.867 352V341.85Z" fill="#FF9457"/>
<path d="M249.427 350.171C249.18 350.171 248.939 350.136 248.702 350.066C248.469 349.993 248.272 349.893 248.112 349.766L248.387 349.261C248.514 349.365 248.667 349.448 248.847 349.511C249.03 349.575 249.22 349.606 249.417 349.606C249.647 349.606 249.827 349.558 249.957 349.461C250.09 349.365 250.157 349.235 250.157 349.071C250.157 348.961 250.129 348.865 250.072 348.781C250.019 348.698 249.922 348.635 249.782 348.591C249.645 348.548 249.457 348.526 249.217 348.526H248.372L248.552 346.621H250.607V347.166H248.792L249.132 346.856L248.997 348.281L248.657 347.976H249.362C249.709 347.976 249.987 348.023 250.197 348.116C250.41 348.206 250.565 348.333 250.662 348.496C250.762 348.656 250.812 348.84 250.812 349.046C250.812 349.25 250.762 349.436 250.662 349.606C250.562 349.776 250.409 349.913 250.202 350.016C249.999 350.12 249.74 350.171 249.427 350.171ZM251.577 350.156C251.463 350.156 251.367 350.118 251.287 350.041C251.207 349.961 251.167 349.861 251.167 349.741C251.167 349.615 251.207 349.515 251.287 349.441C251.367 349.365 251.463 349.326 251.577 349.326C251.69 349.326 251.787 349.365 251.867 349.441C251.947 349.515 251.987 349.615 251.987 349.741C251.987 349.861 251.947 349.961 251.867 350.041C251.787 350.118 251.69 350.156 251.577 350.156ZM252.338 349.326V348.876L254.063 346.621H254.758L253.058 348.876L252.733 348.776H255.508V349.326H252.338ZM254.258 350.121V349.326L254.278 348.776V348.071H254.888V350.121H254.258ZM255.533 350.121L256.708 348.591L256.698 348.926L255.578 347.451H256.273L257.058 348.501H256.793L257.583 347.451H258.258L257.128 348.926L257.133 348.591L258.303 350.121H257.598L256.773 349.006L257.033 349.041L256.223 350.121H255.533Z" fill="white"/>
<path d="M271.727 341.85C271.727 340.595 272.164 339.286 273.313 338.781C274.363 338.32 275.772 338.225 277.034 339.898C279.424 343.065 284.854 343.274 288.712 339.898C291.192 337.727 292.678 338.348 293.422 339.069C293.909 339.54 294.019 340.248 294.019 340.927V352C294.019 354.761 291.781 357 289.019 357H276.727C273.965 357 271.727 354.761 271.727 352V341.85Z" fill="#FFA857"/>
<path d="M277.286 350.171C277.04 350.171 276.798 350.136 276.561 350.066C276.328 349.993 276.131 349.893 275.971 349.766L276.246 349.261C276.373 349.365 276.526 349.448 276.706 349.511C276.89 349.575 277.08 349.606 277.276 349.606C277.506 349.606 277.686 349.558 277.816 349.461C277.95 349.365 278.016 349.235 278.016 349.071C278.016 348.961 277.988 348.865 277.931 348.781C277.878 348.698 277.781 348.635 277.641 348.591C277.505 348.548 277.316 348.526 277.076 348.526H276.231L276.411 346.621H278.466V347.166H276.651L276.991 346.856L276.856 348.281L276.516 347.976H277.221C277.568 347.976 277.846 348.023 278.056 348.116C278.27 348.206 278.425 348.333 278.521 348.496C278.621 348.656 278.671 348.84 278.671 349.046C278.671 349.25 278.621 349.436 278.521 349.606C278.421 349.776 278.268 349.913 278.061 350.016C277.858 350.12 277.6 350.171 277.286 350.171ZM279.436 350.156C279.323 350.156 279.226 350.118 279.146 350.041C279.066 349.961 279.026 349.861 279.026 349.741C279.026 349.615 279.066 349.515 279.146 349.441C279.226 349.365 279.323 349.326 279.436 349.326C279.55 349.326 279.646 349.365 279.726 349.441C279.806 349.515 279.846 349.615 279.846 349.741C279.846 349.861 279.806 349.961 279.726 350.041C279.646 350.118 279.55 350.156 279.436 350.156ZM280.197 349.326V348.876L281.922 346.621H282.617L280.917 348.876L280.592 348.776H283.367V349.326H280.197ZM282.117 350.121V349.326L282.137 348.776V348.071H282.747V350.121H282.117ZM283.393 350.121L284.568 348.591L284.558 348.926L283.438 347.451H284.133L284.918 348.501H284.653L285.443 347.451H286.118L284.988 348.926L284.993 348.591L286.163 350.121H285.458L284.633 349.006L284.893 349.041L284.083 350.121H283.393Z" fill="white"/>
<path d="M299.602 341.85C299.602 340.595 300.039 339.286 301.188 338.781C302.238 338.32 303.647 338.225 304.909 339.898C307.299 343.065 312.729 343.274 316.587 339.898C319.067 337.727 320.553 338.348 321.297 339.069C321.784 339.54 321.894 340.248 321.894 340.927V352C321.894 354.761 319.656 357 316.894 357H304.602C301.84 357 299.602 354.761 299.602 352V341.85Z" fill="#FFB257"/>
<path d="M305.161 350.171C304.915 350.171 304.673 350.136 304.436 350.066C304.203 349.993 304.006 349.893 303.846 349.766L304.121 349.261C304.248 349.365 304.401 349.448 304.581 349.511C304.765 349.575 304.955 349.606 305.151 349.606C305.381 349.606 305.561 349.558 305.691 349.461C305.825 349.365 305.891 349.235 305.891 349.071C305.891 348.961 305.863 348.865 305.806 348.781C305.753 348.698 305.656 348.635 305.516 348.591C305.38 348.548 305.191 348.526 304.951 348.526H304.106L304.286 346.621H306.341V347.166H304.526L304.866 346.856L304.731 348.281L304.391 347.976H305.096C305.443 347.976 305.721 348.023 305.931 348.116C306.145 348.206 306.3 348.333 306.396 348.496C306.496 348.656 306.546 348.84 306.546 349.046C306.546 349.25 306.496 349.436 306.396 349.606C306.296 349.776 306.143 349.913 305.936 350.016C305.733 350.12 305.475 350.171 305.161 350.171ZM307.311 350.156C307.198 350.156 307.101 350.118 307.021 350.041C306.941 349.961 306.901 349.861 306.901 349.741C306.901 349.615 306.941 349.515 307.021 349.441C307.101 349.365 307.198 349.326 307.311 349.326C307.425 349.326 307.521 349.365 307.601 349.441C307.681 349.515 307.721 349.615 307.721 349.741C307.721 349.861 307.681 349.961 307.601 350.041C307.521 350.118 307.425 350.156 307.311 350.156ZM308.072 349.326V348.876L309.797 346.621H310.492L308.792 348.876L308.467 348.776H311.242V349.326H308.072ZM309.992 350.121V349.326L310.012 348.776V348.071H310.622V350.121H309.992ZM311.268 350.121L312.443 348.591L312.433 348.926L311.313 347.451H312.008L312.793 348.501H312.528L313.318 347.451H313.993L312.863 348.926L312.868 348.591L314.038 350.121H313.333L312.508 349.006L312.768 349.041L311.958 350.121H311.268Z" fill="white"/>
<path d="M327.461 341.85C327.461 340.595 327.899 339.286 329.048 338.781C330.097 338.32 331.507 338.225 332.769 339.898C335.159 343.065 340.589 343.274 344.446 339.898C346.927 337.727 348.412 338.348 349.156 339.069C349.644 339.54 349.754 340.248 349.754 340.927V352C349.754 354.761 347.515 357 344.754 357H332.461C329.7 357 327.461 354.761 327.461 352V341.85Z" fill="#FFB257"/>
<path d="M333.021 350.171C332.774 350.171 332.532 350.136 332.296 350.066C332.062 349.993 331.866 349.893 331.706 349.766L331.981 349.261C332.107 349.365 332.261 349.448 332.441 349.511C332.624 349.575 332.814 349.606 333.011 349.606C333.241 349.606 333.421 349.558 333.551 349.461C333.684 349.365 333.751 349.235 333.751 349.071C333.751 348.961 333.722 348.865 333.666 348.781C333.612 348.698 333.516 348.635 333.376 348.591C333.239 348.548 333.051 348.526 332.811 348.526H331.966L332.146 346.621H334.201V347.166H332.386L332.726 346.856L332.591 348.281L332.251 347.976H332.956C333.302 347.976 333.581 348.023 333.791 348.116C334.004 348.206 334.159 348.333 334.256 348.496C334.356 348.656 334.406 348.84 334.406 349.046C334.406 349.25 334.356 349.436 334.256 349.606C334.156 349.776 334.002 349.913 333.796 350.016C333.592 350.12 333.334 350.171 333.021 350.171ZM335.171 350.156C335.057 350.156 334.961 350.118 334.881 350.041C334.801 349.961 334.761 349.861 334.761 349.741C334.761 349.615 334.801 349.515 334.881 349.441C334.961 349.365 335.057 349.326 335.171 349.326C335.284 349.326 335.381 349.365 335.461 349.441C335.541 349.515 335.581 349.615 335.581 349.741C335.581 349.861 335.541 349.961 335.461 350.041C335.381 350.118 335.284 350.156 335.171 350.156ZM335.932 349.326V348.876L337.657 346.621H338.352L336.652 348.876L336.327 348.776H339.102V349.326H335.932ZM337.852 350.121V349.326L337.872 348.776V348.071H338.482V350.121H337.852ZM339.127 350.121L340.302 348.591L340.292 348.926L339.172 347.451H339.867L340.652 348.501H340.387L341.177 347.451H341.852L340.722 348.926L340.727 348.591L341.897 350.121H341.192L340.367 349.006L340.627 349.041L339.817 350.121H339.127Z" fill="white"/>
<path d="M355.328 341.85C355.328 340.595 355.766 339.286 356.915 338.781C357.964 338.32 359.374 338.225 360.636 339.898C363.026 343.065 368.456 343.274 372.313 339.898C374.794 337.727 376.279 338.348 377.023 339.069C377.511 339.54 377.621 340.248 377.621 340.927V352C377.621 354.761 375.382 357 372.621 357H360.328C357.567 357 355.328 354.761 355.328 352V341.85Z" fill="#FFBC57"/>
<path d="M360.888 350.172C360.641 350.172 360.399 350.137 360.163 350.067C359.929 349.994 359.733 349.894 359.573 349.767L359.848 349.262C359.974 349.365 360.128 349.449 360.308 349.512C360.491 349.575 360.681 349.607 360.878 349.607C361.108 349.607 361.288 349.559 361.418 349.462C361.551 349.365 361.618 349.235 361.618 349.072C361.618 348.962 361.589 348.865 361.533 348.782C361.479 348.699 361.383 348.635 361.243 348.592C361.106 348.549 360.918 348.527 360.678 348.527H359.833L360.013 346.622H362.068V347.167H360.253L360.593 346.857L360.458 348.282L360.118 347.977H360.823C361.169 347.977 361.448 348.024 361.658 348.117C361.871 348.207 362.026 348.334 362.123 348.497C362.223 348.657 362.273 348.84 362.273 349.047C362.273 349.25 362.223 349.437 362.123 349.607C362.023 349.777 361.869 349.914 361.663 350.017C361.459 350.12 361.201 350.172 360.888 350.172ZM363.038 350.157C362.924 350.157 362.828 350.119 362.748 350.042C362.668 349.962 362.628 349.862 362.628 349.742C362.628 349.615 362.668 349.515 362.748 349.442C362.828 349.365 362.924 349.327 363.038 349.327C363.151 349.327 363.248 349.365 363.328 349.442C363.408 349.515 363.448 349.615 363.448 349.742C363.448 349.862 363.408 349.962 363.328 350.042C363.248 350.119 363.151 350.157 363.038 350.157ZM363.799 349.327V348.877L365.524 346.622H366.219L364.519 348.877L364.194 348.777H366.969V349.327H363.799ZM365.719 350.122V349.327L365.739 348.777V348.072H366.349V350.122H365.719ZM366.994 350.122L368.169 348.592L368.159 348.927L367.039 347.452H367.734L368.519 348.502H368.254L369.044 347.452H369.719L368.589 348.927L368.594 348.592L369.764 350.122H369.059L368.234 349.007L368.494 349.042L367.684 350.122H366.994Z" fill="white"/>
<path d="M383.195 341.85C383.195 340.595 383.633 339.286 384.782 338.781C385.831 338.32 387.241 338.225 388.503 339.898C390.893 343.065 396.323 343.274 400.18 339.898C402.661 337.727 404.146 338.348 404.891 339.069C405.378 339.54 405.488 340.248 405.488 340.927V352C405.488 354.761 403.25 357 400.488 357H388.195C385.434 357 383.195 354.761 383.195 352V341.85Z" fill="#F3D533"/>
<path d="M388.755 350.171C388.508 350.171 388.267 350.136 388.03 350.066C387.797 349.993 387.6 349.893 387.44 349.766L387.715 349.261C387.842 349.365 387.995 349.448 388.175 349.511C388.358 349.575 388.548 349.606 388.745 349.606C388.975 349.606 389.155 349.558 389.285 349.461C389.418 349.365 389.485 349.235 389.485 349.071C389.485 348.961 389.457 348.865 389.4 348.781C389.347 348.698 389.25 348.635 389.11 348.591C388.973 348.548 388.785 348.526 388.545 348.526H387.7L387.88 346.621H389.935V347.166H388.12L388.46 346.856L388.325 348.281L387.985 347.976H388.69C389.037 347.976 389.315 348.023 389.525 348.116C389.738 348.206 389.893 348.333 389.99 348.496C390.09 348.656 390.14 348.84 390.14 349.046C390.14 349.25 390.09 349.436 389.99 349.606C389.89 349.776 389.737 349.913 389.53 350.016C389.327 350.12 389.068 350.171 388.755 350.171ZM390.905 350.156C390.792 350.156 390.695 350.118 390.615 350.041C390.535 349.961 390.495 349.861 390.495 349.741C390.495 349.615 390.535 349.515 390.615 349.441C390.695 349.365 390.792 349.326 390.905 349.326C391.018 349.326 391.115 349.365 391.195 349.441C391.275 349.515 391.315 349.615 391.315 349.741C391.315 349.861 391.275 349.961 391.195 350.041C391.115 350.118 391.018 350.156 390.905 350.156ZM391.666 349.326V348.876L393.391 346.621H394.086L392.386 348.876L392.061 348.776H394.836V349.326H391.666ZM393.586 350.121V349.326L393.606 348.776V348.071H394.216V350.121H393.586ZM394.861 350.121L396.036 348.591L396.026 348.926L394.906 347.451H395.601L396.386 348.501H396.121L396.911 347.451H397.586L396.456 348.926L396.461 348.591L397.631 350.121H396.926L396.101 349.006L396.361 349.041L395.551 350.121H394.861Z" fill="white"/>
<path d="M411.055 341.85C411.055 340.595 411.492 339.286 412.642 338.781C413.691 338.32 415.1 338.225 416.363 339.898C418.752 343.065 424.182 343.274 428.04 339.898C430.521 337.727 432.006 338.348 432.75 339.069C433.238 339.54 433.348 340.248 433.348 340.927V352C433.348 354.761 431.109 357 428.348 357H416.055C413.293 357 411.055 354.761 411.055 352V341.85Z" fill="#F36133"/>
<path d="M416.614 350.171C416.368 350.171 416.126 350.136 415.889 350.066C415.656 349.993 415.459 349.893 415.299 349.766L415.574 349.261C415.701 349.365 415.854 349.448 416.034 349.511C416.218 349.575 416.408 349.606 416.604 349.606C416.834 349.606 417.014 349.558 417.144 349.461C417.278 349.365 417.344 349.235 417.344 349.071C417.344 348.961 417.316 348.865 417.259 348.781C417.206 348.698 417.109 348.635 416.969 348.591C416.833 348.548 416.644 348.526 416.404 348.526H415.559L415.739 346.621H417.794V347.166H415.979L416.319 346.856L416.184 348.281L415.844 347.976H416.549C416.896 347.976 417.174 348.023 417.384 348.116C417.598 348.206 417.753 348.333 417.849 348.496C417.949 348.656 417.999 348.84 417.999 349.046C417.999 349.25 417.949 349.436 417.849 349.606C417.749 349.776 417.596 349.913 417.389 350.016C417.186 350.12 416.928 350.171 416.614 350.171ZM418.764 350.156C418.651 350.156 418.554 350.118 418.474 350.041C418.394 349.961 418.354 349.861 418.354 349.741C418.354 349.615 418.394 349.515 418.474 349.441C418.554 349.365 418.651 349.326 418.764 349.326C418.878 349.326 418.974 349.365 419.054 349.441C419.134 349.515 419.174 349.615 419.174 349.741C419.174 349.861 419.134 349.961 419.054 350.041C418.974 350.118 418.878 350.156 418.764 350.156ZM419.525 349.326V348.876L421.25 346.621H421.945L420.245 348.876L419.92 348.776H422.695V349.326H419.525ZM421.445 350.121V349.326L421.465 348.776V348.071H422.075V350.121H421.445ZM422.721 350.121L423.896 348.591L423.886 348.926L422.766 347.451H423.461L424.246 348.501H423.981L424.771 347.451H425.446L424.316 348.926L424.321 348.591L425.491 350.121H424.786L423.961 349.006L424.221 349.041L423.411 350.121H422.721Z" fill="white"/>
<path d="M438.93 341.85C438.93 340.595 439.367 339.286 440.517 338.78C441.566 338.319 442.975 338.225 444.238 339.898C446.627 343.065 452.057 343.274 455.915 339.898C458.396 337.726 459.881 338.348 460.625 339.068C461.113 339.54 461.223 340.248 461.223 340.926V351.999C461.223 354.761 458.984 357 456.223 357H443.93C441.168 357 438.93 354.761 438.93 352V341.85Z" fill="#FB845E"/>
<path d="M444.489 350.171C444.243 350.171 444.001 350.136 443.764 350.066C443.531 349.993 443.334 349.893 443.174 349.766L443.449 349.261C443.576 349.364 443.729 349.448 443.909 349.511C444.093 349.574 444.283 349.606 444.479 349.606C444.709 349.606 444.889 349.558 445.019 349.461C445.153 349.364 445.219 349.234 445.219 349.071C445.219 348.961 445.191 348.864 445.134 348.781C445.081 348.698 444.984 348.634 444.844 348.591C444.708 348.548 444.519 348.526 444.279 348.526H443.434L443.614 346.621H445.669V347.166H443.854L444.194 346.856L444.059 348.281L443.719 347.976H444.424C444.771 347.976 445.049 348.023 445.259 348.116C445.473 348.206 445.628 348.333 445.724 348.496C445.824 348.656 445.874 348.839 445.874 349.046C445.874 349.249 445.824 349.436 445.724 349.606C445.624 349.776 445.471 349.913 445.264 350.016C445.061 350.119 444.803 350.171 444.489 350.171ZM446.639 350.156C446.526 350.156 446.429 350.118 446.349 350.041C446.269 349.961 446.229 349.861 446.229 349.741C446.229 349.614 446.269 349.514 446.349 349.441C446.429 349.364 446.526 349.326 446.639 349.326C446.753 349.326 446.849 349.364 446.929 349.441C447.009 349.514 447.049 349.614 447.049 349.741C447.049 349.861 447.009 349.961 446.929 350.041C446.849 350.118 446.753 350.156 446.639 350.156ZM447.4 349.326V348.876L449.125 346.621H449.82L448.12 348.876L447.795 348.776H450.57V349.326H447.4ZM449.32 350.121V349.326L449.34 348.776V348.071H449.95V350.121H449.32ZM450.596 350.121L451.771 348.591L451.761 348.926L450.641 347.451H451.336L452.121 348.501H451.856L452.646 347.451H453.321L452.191 348.926L452.196 348.591L453.366 350.121H452.661L451.836 349.006L452.096 349.041L451.286 350.121H450.596Z" fill="white"/>
<path d="M466.789 341.85C466.789 340.595 467.227 339.286 468.376 338.78C469.425 338.319 470.835 338.225 472.097 339.898C474.487 343.065 479.917 343.274 483.774 339.898C486.255 337.726 487.74 338.348 488.484 339.068C488.972 339.54 489.082 340.248 489.082 340.926V351.999C489.082 354.761 486.843 357 484.082 357H471.789C469.028 357 466.789 354.761 466.789 352V341.85Z" fill="#F33378"/>
<path d="M472.349 350.171C472.102 350.171 471.86 350.136 471.624 350.066C471.39 349.993 471.194 349.893 471.034 349.766L471.309 349.261C471.435 349.364 471.589 349.448 471.769 349.511C471.952 349.574 472.142 349.606 472.339 349.606C472.569 349.606 472.749 349.558 472.879 349.461C473.012 349.364 473.079 349.234 473.079 349.071C473.079 348.961 473.05 348.864 472.994 348.781C472.94 348.698 472.844 348.634 472.704 348.591C472.567 348.548 472.379 348.526 472.139 348.526H471.294L471.474 346.621H473.529V347.166H471.714L472.054 346.856L471.919 348.281L471.579 347.976H472.284C472.63 347.976 472.909 348.023 473.119 348.116C473.332 348.206 473.487 348.333 473.584 348.496C473.684 348.656 473.734 348.839 473.734 349.046C473.734 349.249 473.684 349.436 473.584 349.606C473.484 349.776 473.33 349.913 473.124 350.016C472.92 350.119 472.662 350.171 472.349 350.171ZM474.499 350.156C474.385 350.156 474.289 350.118 474.209 350.041C474.129 349.961 474.089 349.861 474.089 349.741C474.089 349.614 474.129 349.514 474.209 349.441C474.289 349.364 474.385 349.326 474.499 349.326C474.612 349.326 474.709 349.364 474.789 349.441C474.869 349.514 474.909 349.614 474.909 349.741C474.909 349.861 474.869 349.961 474.789 350.041C474.709 350.118 474.612 350.156 474.499 350.156ZM475.26 349.326V348.876L476.985 346.621H477.68L475.98 348.876L475.655 348.776H478.43V349.326H475.26ZM477.18 350.121V349.326L477.2 348.776V348.071H477.81V350.121H477.18ZM478.455 350.121L479.63 348.591L479.62 348.926L478.5 347.451H479.195L479.98 348.501H479.715L480.505 347.451H481.18L480.05 348.926L480.055 348.591L481.225 350.121H480.52L479.695 349.006L479.955 349.041L479.145 350.121H478.455Z" fill="white"/>
<defs>
<clipPath id="clip0_1530_21007">
<rect width="20" height="20" fill="white" transform="translate(641 15)"/>
</clipPath>
</defs>
</svg>
