<svg width="18" height="18" viewBox="0 0 18 18" fill="none" xmlns="http://www.w3.org/2000/svg">
<g clip-path="url(#clip0_10_2326)">
<path d="M7.20001 0H18V18H7.20001V0Z" fill="#FF0000"/>
<path d="M0 0H7.2V18H0V0Z" fill="#006600"/>
<path fill-rule="evenodd" clip-rule="evenodd" d="M9.54845 11.4825C8.64001 11.445 4.48595 7.98749 4.45782 7.43249L4.68564 6.92624C5.09907 7.72499 9.34595 11.0887 9.76501 10.9687L9.54845 11.4825Z" fill="#FFFF00"/>
<path fill-rule="evenodd" clip-rule="evenodd" d="M4.68538 6.91501C4.68825 6.91489 4.69097 6.91672 4.6926 6.91987C4.7435 7.01822 4.85418 7.15724 5.01071 7.32545C5.167 7.49339 5.36826 7.68967 5.59958 7.90249C6.06222 8.32811 6.64477 8.81957 7.22755 9.28237C7.81033 9.74518 8.39322 10.1792 8.85651 10.49C9.08818 10.6454 9.2898 10.7699 9.44649 10.8518C9.52485 10.8927 9.59179 10.9229 9.64553 10.941C9.69966 10.9592 9.73913 10.9647 9.76326 10.9578C9.7665 10.9568 9.76985 10.9585 9.77182 10.9621C9.77379 10.9656 9.77401 10.9704 9.77238 10.9743L9.55582 11.488C9.55428 11.4917 9.55134 11.4939 9.5482 11.4938C9.43319 11.489 9.26783 11.4303 9.06712 11.331C8.86618 11.2316 8.62901 11.0912 8.37005 10.922C7.85212 10.5837 7.24658 10.1305 6.66865 9.66118C6.09071 9.19184 5.5402 8.70626 5.13234 8.30323C4.92844 8.10173 4.76002 7.9207 4.64162 7.77254C4.58243 7.69848 4.53556 7.6324 4.50298 7.5759C4.47069 7.51992 4.45136 7.47157 4.44942 7.43327C4.4493 7.43097 4.44972 7.42869 4.4506 7.42672L4.67842 6.92047C4.67989 6.91719 4.68252 6.91514 4.68538 6.91501ZM4.68626 6.94677L4.46649 7.43516C4.46904 7.46599 4.48541 7.50853 4.51635 7.56218C4.54815 7.61732 4.5943 7.68247 4.65317 7.75614C4.77087 7.90343 4.9387 8.08387 5.14239 8.28515C5.54972 8.68766 6.09977 9.17286 6.67742 9.64196C7.25507 10.1111 7.86014 10.5639 8.37747 10.9018C8.63615 11.0708 8.87277 11.2109 9.07299 11.3099C9.27044 11.4076 9.43171 11.4649 9.54363 11.471L9.74945 10.9828C9.72213 10.9849 9.68557 10.9777 9.6414 10.9628C9.58669 10.9444 9.51902 10.9139 9.44033 10.8727C9.28294 10.7905 9.08079 10.6657 8.84893 10.5101C8.38516 10.199 7.80191 9.76468 7.21891 9.30171C6.63591 8.83873 6.05303 8.34699 5.59 7.92101C5.35849 7.70802 5.15686 7.5114 5.00013 7.34297C4.85078 7.18248 4.74152 7.0469 4.68626 6.94677Z" fill="black"/>
<path fill-rule="evenodd" clip-rule="evenodd" d="M4.63779 6.85501C4.55622 7.14751 5.72341 8.10751 7.12404 9.24751C8.52747 10.3838 9.73685 11.085 9.82404 10.9875L9.86622 10.8825C9.84935 10.92 9.80997 10.9313 9.74529 10.905C9.3656 10.7588 8.37841 10.155 7.15497 9.16501C5.92872 8.17501 4.8656 7.26376 4.69966 6.87751C4.68673 6.8413 4.68092 6.80129 4.68279 6.76126H4.67716L4.64341 6.84376L4.63779 6.85501ZM9.5681 11.4975C9.55404 11.535 9.5231 11.535 9.46966 11.5275C9.13216 11.4788 8.10279 10.8113 6.88497 9.84001C5.46747 8.70751 4.29747 7.68001 4.42685 7.41001L4.4606 7.32751L4.46622 7.33126C4.35372 7.78876 6.77529 9.63376 6.91872 9.75376C8.31935 10.9088 9.5006 11.5875 9.60466 11.4113L9.5681 11.4975Z" fill="#FFFF00"/>
<path fill-rule="evenodd" clip-rule="evenodd" d="M4.66978 6.75586C4.67126 6.75225 4.6741 6.75 4.67718 6.75H4.68281C4.68514 6.75 4.68736 6.75128 4.68896 6.75355C4.69055 6.75581 4.69138 6.75885 4.69123 6.76195C4.68946 6.79993 4.69494 6.83789 4.70717 6.87228C4.74788 6.96681 4.84422 7.0949 4.98624 7.24995C5.12813 7.40486 5.31466 7.58571 5.53448 7.78555C5.97408 8.18521 6.54627 8.6604 7.15937 9.15538L7.15937 9.15538C8.38266 10.1453 9.36907 10.7484 9.74765 10.8942L9.74777 10.8942C9.77947 10.9071 9.8041 10.9104 9.82239 10.9065C9.84039 10.9028 9.85206 10.8922 9.85901 10.8767C9.86137 10.8715 9.86643 10.8697 9.87041 10.8727C9.87439 10.8757 9.87585 10.8824 9.87368 10.8878L9.8315 10.9928C9.83099 10.9941 9.8303 10.9952 9.82948 10.9961C9.82158 11.005 9.80905 11.0078 9.79476 11.0078C9.77997 11.0077 9.76121 11.0045 9.73888 10.9984C9.69417 10.9861 9.63387 10.9621 9.55994 10.9271C9.41201 10.8572 9.20853 10.743 8.96407 10.5903C8.47511 10.285 7.82164 9.82544 7.11968 9.25712L7.11966 9.2571C6.41941 8.68715 5.77724 8.16198 5.32033 7.7427C5.09192 7.53311 4.90947 7.34968 4.78916 7.20014C4.72904 7.12542 4.68406 7.05871 4.65665 7.00105C4.62948 6.9439 4.61826 6.89284 4.6299 6.85108L4.63781 6.855L4.63079 6.84876L4.63621 6.83792L4.66978 6.75586ZM4.6454 6.86011C4.63716 6.89137 4.64471 6.93391 4.6709 6.989C4.69718 7.04428 4.74095 7.10946 4.80067 7.18368C4.92003 7.33204 5.10163 7.51471 5.3299 7.72417C5.78634 8.14302 6.42807 8.66784 7.12844 9.23788C7.82992 9.80582 8.48285 10.265 8.97123 10.57C9.21544 10.7225 9.41837 10.8363 9.56558 10.9059C9.63922 10.9408 9.69867 10.9644 9.74227 10.9763C9.76409 10.9823 9.78162 10.9852 9.79481 10.9853C9.80703 10.9853 9.81402 10.9829 9.81752 10.98L9.84009 10.9238C9.8354 10.926 9.83038 10.9276 9.82502 10.9288C9.80325 10.9334 9.77587 10.9292 9.74292 10.9158C9.36209 10.7691 8.37416 10.1647 7.15063 9.17462C6.53748 8.6796 5.96497 8.20416 5.52497 7.80414C5.30498 7.60413 5.11798 7.42287 4.97555 7.26736C4.83342 7.11218 4.73471 6.98165 4.69236 6.88309C4.69226 6.88285 4.69216 6.88259 4.69207 6.88234C4.68186 6.85377 4.67589 6.82294 4.6744 6.79155L4.65084 6.84914C4.65072 6.84943 4.65059 6.84971 4.65046 6.84999L4.6454 6.86011ZM4.45322 7.32211C4.45539 7.3168 4.46033 7.31473 4.4644 7.31744L4.47002 7.32119C4.47376 7.32368 4.47557 7.32946 4.47426 7.33475C4.46808 7.35989 4.47032 7.39101 4.48151 7.42836C4.49269 7.46564 4.51247 7.50802 4.54008 7.55482C4.59527 7.64838 4.68068 7.75787 4.78725 7.87729C5.0003 8.11603 5.29659 8.393 5.60115 8.65966C6.08579 9.08399 6.59012 9.48116 6.81261 9.65638C6.86983 9.70144 6.90842 9.73183 6.92322 9.74421C7.62328 10.3215 8.26841 10.7797 8.75141 11.0715C8.99295 11.2174 9.19372 11.3216 9.34042 11.3782C9.41382 11.4066 9.47329 11.4229 9.5174 11.4268C9.53946 11.4287 9.55728 11.4275 9.5709 11.4234C9.58457 11.4193 9.59319 11.4125 9.59805 11.4043C9.60078 11.3997 9.60572 11.3986 9.60938 11.4019C9.61305 11.4052 9.6142 11.4117 9.61203 11.4168L9.57557 11.5028C9.56709 11.5252 9.55328 11.5362 9.53511 11.5405C9.51761 11.5445 9.49536 11.5424 9.4688 11.5387L9.46878 11.5387C9.38322 11.5263 9.25472 11.475 9.09164 11.3903C8.92835 11.3056 8.72976 11.1871 8.50375 11.0398C8.05173 10.7452 7.48972 10.3354 6.88067 9.84965L6.88066 9.84965C6.17188 9.28338 5.52476 8.74318 5.07095 8.31071C4.8441 8.09454 4.66522 7.90496 4.55106 7.75228C4.49404 7.67601 4.45272 7.60837 4.42976 7.55076C4.40702 7.49371 4.40109 7.44327 4.4196 7.40428L4.45322 7.32211ZM9.56812 11.4975L9.56078 11.492L9.58157 11.4429C9.57932 11.4438 9.577 11.4446 9.57462 11.4453C9.55882 11.4501 9.53922 11.4512 9.51629 11.4492C9.4704 11.4452 9.40958 11.4284 9.33572 11.3998C9.1879 11.3427 8.9863 11.2381 8.74444 11.092C8.26065 10.7997 7.61486 10.341 6.91431 9.76332L6.91426 9.76328C6.89981 9.75119 6.86176 9.72123 6.80519 9.67668C6.58348 9.50208 6.07726 9.10343 5.59189 8.67847C5.28719 8.41168 4.99022 8.13413 4.77639 7.89451C4.66952 7.77475 4.58307 7.6641 4.52681 7.56873C4.49869 7.52105 4.47785 7.47676 4.46584 7.43671C4.4585 7.41221 4.45434 7.38888 4.45403 7.36711L4.43428 7.41539C4.43419 7.41561 4.43409 7.41584 4.43398 7.41606C4.42034 7.44452 4.42271 7.48513 4.44466 7.5402C4.46646 7.59489 4.5064 7.66067 4.56301 7.73639C4.67614 7.8877 4.85409 8.0764 5.08076 8.29241C5.53398 8.72432 6.18061 9.26412 6.88933 9.83035C7.49809 10.3159 8.05967 10.7254 8.51116 11.0196C8.73692 11.1667 8.93506 11.2849 9.09776 11.3694C9.26065 11.4539 9.38738 11.5043 9.47057 11.5163C9.49744 11.5201 9.51739 11.5217 9.53222 11.5183C9.54633 11.515 9.55498 11.5074 9.56058 11.4925L9.56812 11.4975Z" fill="black"/>
<path fill-rule="evenodd" clip-rule="evenodd" d="M7.2056 7.76999C8.11122 7.75874 9.2306 7.60499 9.87747 7.25999L9.73685 6.95999C9.35716 7.24124 8.23216 7.42874 7.19716 7.45499C5.97654 7.43999 5.1131 7.28624 4.67997 6.89999L4.5506 7.22249C5.34372 7.67249 6.15935 7.76624 7.2056 7.76999Z" fill="#FFFF00"/>
<path fill-rule="evenodd" clip-rule="evenodd" d="M4.67794 6.8891C4.68025 6.88833 4.6827 6.8889 4.68468 6.89066C4.89972 7.08243 5.22241 7.21711 5.64458 7.30562C6.06655 7.39409 6.58706 7.43626 7.19713 7.44376C7.71431 7.43064 8.25392 7.37723 8.71159 7.292C8.94045 7.24938 9.14871 7.19881 9.32338 7.1414C9.49819 7.08393 9.63883 7.01976 9.73277 6.95018C9.73669 6.94727 9.74164 6.94897 9.74402 6.95405L9.88464 7.25405C9.88597 7.25688 9.88628 7.26034 9.88551 7.26351C9.88473 7.26668 9.88294 7.26922 9.88062 7.27046C9.23221 7.61628 8.1115 7.77001 7.20569 7.78126C7.20566 7.78126 7.20562 7.78126 7.20559 7.78126C7.20099 7.78123 7.19722 7.77628 7.19718 7.77012C7.19713 7.76391 7.20087 7.75882 7.20553 7.75876C7.20555 7.75876 7.20557 7.75876 7.20558 7.75876C6.16336 7.75502 5.35124 7.66191 4.56241 7.21697L4.68306 6.91622C4.90108 7.10703 5.22396 7.24021 5.64196 7.32785C6.06512 7.41656 6.58659 7.45876 7.1971 7.46626L7.1971 7.46627L7.19734 7.46626C7.71512 7.45313 8.25546 7.39966 8.71393 7.31428C8.94316 7.27159 9.15202 7.2209 9.32742 7.16324C9.49845 7.10702 9.63816 7.04401 9.73393 6.97498L9.86497 7.25454C9.21824 7.59522 8.10664 7.74756 7.20558 7.75876M4.67794 6.8891C4.67563 6.88987 4.67367 6.89191 4.67255 6.89471L4.67794 6.8891ZM4.67255 6.89471L4.54317 7.21721L4.67255 6.89471ZM7.20559 7.78126C6.15907 7.77751 5.34205 7.68378 4.54731 7.23287C4.54513 7.23163 4.54344 7.22923 4.54265 7.22625C4.54187 7.22327 4.54206 7.21999 4.54317 7.21721" fill="black"/>
<path fill-rule="evenodd" clip-rule="evenodd" d="M9.91405 7.26749C9.89155 7.31624 9.46968 7.50749 8.85093 7.64999C8.30548 7.7602 7.75447 7.81411 7.2028 7.81124C6.67425 7.81389 6.14616 7.76878 5.62218 7.67624C4.97249 7.54124 4.6378 7.35374 4.51124 7.28624L4.54218 7.20374C4.89937 7.39124 5.23687 7.50374 5.63062 7.58624C6.15078 7.67989 6.67511 7.72624 7.19999 7.72499C7.7488 7.72576 8.29689 7.67186 8.83968 7.56374C9.47249 7.42499 9.81843 7.24874 9.86905 7.16999L9.91405 7.27124V7.26749ZM9.7903 6.96374C9.7228 7.03874 9.37968 7.19999 8.7778 7.32749C8.25806 7.42775 7.73358 7.47788 7.20843 7.47749C6.58968 7.47749 6.08062 7.41749 5.6953 7.34249C5.08218 7.23749 4.75593 7.04249 4.6378 6.98999L4.67437 6.90749C4.76718 6.97124 5.07937 7.13999 5.70093 7.25624C6.20059 7.34548 6.70431 7.38808 7.20843 7.38374C7.72984 7.38396 8.25058 7.33382 8.76655 7.23374C9.37124 7.12124 9.69749 6.91874 9.74812 6.86624L9.7903 6.96374ZM4.22718 9.22499C4.78405 9.62624 6.02437 9.82499 7.19718 9.83999C8.26593 9.84374 9.6553 9.62249 10.1756 9.25499L10.1616 8.85374C9.99843 9.19124 8.5078 9.51749 7.18593 9.50624C5.86405 9.49124 4.63499 9.22124 4.22437 8.86874V9.22499" fill="#FFFF00"/>
<path fill-rule="evenodd" clip-rule="evenodd" d="M9.74975 6.85522C9.75215 6.85585 9.75422 6.85782 9.75544 6.86064L9.79763 6.95814L9.79032 6.96376L9.79572 6.9724C9.77775 6.99236 9.74258 7.01704 9.69145 7.04473C9.64005 7.07257 9.57173 7.10387 9.48681 7.13675C9.31696 7.20253 9.08036 7.27481 8.77914 7.33862L8.77903 7.33864C8.25889 7.43898 7.73399 7.48915 7.20844 7.48876L7.20844 7.47751V7.48876C7.20844 7.48876 7.20844 7.48876 7.20844 7.48876C6.58932 7.48876 6.07988 7.42873 5.69417 7.35366C5.6942 7.35366 5.69422 7.35367 5.69424 7.35367L5.69532 7.34251L5.6941 7.35364C5.69412 7.35365 5.69415 7.35365 5.69417 7.35366C5.16986 7.26386 4.85469 7.10824 4.70046 7.03208C4.67405 7.01904 4.65236 7.00833 4.63515 7.00068C4.63273 6.99961 4.63081 6.99713 4.62991 6.99395C4.62902 6.99077 4.62926 6.98721 4.63055 6.98429L4.66712 6.90179C4.66939 6.89666 4.67427 6.89478 4.67824 6.89751C4.76997 6.96052 5.08117 7.12898 5.70209 7.24511C5.70208 7.24511 5.70207 7.24511 5.70206 7.24511L5.70094 7.25626L5.70211 7.24512C5.70211 7.24512 5.7021 7.24512 5.70209 7.24511C6.20135 7.33428 6.70468 7.37685 7.20839 7.37251L7.20844 7.37251C7.72945 7.37273 8.24978 7.32263 8.76535 7.22263L8.7654 7.22262C9.06727 7.16646 9.29952 7.08785 9.4625 7.01682C9.544 6.9813 9.60814 6.94769 9.65499 6.91974C9.70208 6.89166 9.73116 6.86961 9.74295 6.85738C9.74488 6.85538 9.74736 6.8546 9.74975 6.85522ZM9.77933 6.96088L9.74545 6.88259C9.72949 6.89668 9.7015 6.91665 9.66188 6.94028C9.61443 6.96859 9.54972 7.00247 9.46774 7.0382C9.30378 7.10967 9.07056 7.18856 8.76776 7.2449C8.25139 7.34506 7.73027 7.39522 7.20847 7.39501C6.70397 7.39935 6.19986 7.35672 5.69982 7.26741L5.69977 7.2674C5.09244 7.15381 4.77955 6.99005 4.67762 6.92231L4.65036 6.98383C4.66593 6.99104 4.68451 7.00022 4.70625 7.01095C4.86062 7.08715 5.17409 7.24191 5.69639 7.33135L5.69654 7.33138L5.69654 7.33138C6.08144 7.4063 6.5901 7.46626 7.20844 7.46626H7.20845C7.73317 7.46665 8.25723 7.41656 8.77655 7.31639C9.07718 7.2527 9.31306 7.18061 9.48211 7.11514C9.56664 7.08241 9.63438 7.05136 9.6851 7.02388C9.73071 6.99918 9.76195 6.97769 9.77933 6.96088ZM9.8698 7.1588C9.87251 7.15912 9.87494 7.16116 9.87633 7.16428L9.91769 7.25735C9.9206 7.25919 9.92251 7.26312 9.92251 7.26751V7.27126C9.92251 7.27633 9.91996 7.28077 9.9163 7.28211C9.9159 7.28226 9.91549 7.28236 9.91509 7.28243C9.91351 7.2842 9.91179 7.2859 9.91001 7.28754C9.90511 7.29203 9.89878 7.29691 9.89115 7.30211C9.87589 7.31254 9.85484 7.32472 9.82852 7.3383C9.77583 7.36546 9.7014 7.3985 9.60845 7.43441C9.42251 7.50625 9.16204 7.58978 8.85238 7.6611L8.85221 7.66113C8.30634 7.77143 7.75491 7.82538 7.20282 7.82251C6.67389 7.82516 6.14544 7.78002 5.62108 7.68741L5.62089 7.68738L5.62089 7.68738C4.99428 7.55717 4.6601 7.37813 4.52298 7.30465C4.51774 7.30185 4.51279 7.2992 4.50812 7.29671C4.50593 7.29554 4.50421 7.2932 4.50337 7.29026C4.50253 7.28732 4.50265 7.28404 4.50371 7.28123L4.53465 7.19873C4.5366 7.19352 4.54122 7.19116 4.54528 7.19329C4.90176 7.38042 5.23862 7.49273 5.63185 7.57513C6.1516 7.6687 6.67552 7.71501 7.19999 7.71376H7.20001C7.74838 7.71453 8.29603 7.66067 8.83839 7.55265C9.15446 7.48334 9.39874 7.4047 9.5702 7.33364C9.65594 7.29811 9.72336 7.26451 9.77239 7.23499C9.79691 7.22023 9.81671 7.20655 9.83187 7.19424C9.84715 7.18182 9.8572 7.17119 9.86266 7.16269C9.86443 7.15994 9.86709 7.15849 9.8698 7.1588ZM9.90242 7.26711L9.86733 7.18816C9.86044 7.19621 9.85147 7.20466 9.84065 7.21346C9.82472 7.2264 9.80425 7.24049 9.77933 7.2555C9.72948 7.28551 9.66137 7.31942 9.5752 7.35513C9.40284 7.42656 9.15777 7.50542 8.84106 7.57486L8.84094 7.57489C8.29774 7.68309 7.74924 7.73703 7.20001 7.73626C6.67475 7.73751 6.15004 7.69112 5.6295 7.59741L5.62932 7.59738L5.62932 7.59737C5.23773 7.51533 4.9015 7.4036 4.54629 7.21799L4.5229 7.28037C4.52498 7.28148 4.52711 7.28262 4.52929 7.28379C4.66582 7.35695 4.99868 7.5353 5.6234 7.66513C6.14697 7.75759 6.67464 7.80265 7.20279 7.80001H7.20285C7.75406 7.80288 8.30461 7.74901 8.8496 7.6389C9.15864 7.56773 9.41846 7.48439 9.60375 7.4128C9.69642 7.377 9.77035 7.34417 9.82243 7.31731C9.84849 7.30387 9.86893 7.29201 9.88346 7.28209C9.89073 7.27712 9.89637 7.27274 9.90043 7.26901C9.90117 7.26834 9.90183 7.2677 9.90242 7.26711ZM10.1638 8.8429C10.1673 8.84417 10.1698 8.84835 10.17 8.85324L10.1841 9.25449C10.1842 9.25884 10.1825 9.26291 10.1796 9.26495C9.91798 9.44972 9.43923 9.59709 8.89323 9.69787C8.34686 9.79873 7.73194 9.85314 7.19717 9.85126L7.19711 9.85126C6.61041 9.84376 6.00674 9.79029 5.48001 9.68849C4.95469 9.58696 4.50496 9.43718 4.22502 9.23623C4.22481 9.23625 4.22459 9.23626 4.22438 9.23626C4.21972 9.23626 4.21594 9.23122 4.21594 9.22501V8.86876C4.21594 8.86464 4.21763 8.86086 4.22034 8.85888C4.22305 8.85691 4.22635 8.85707 4.22895 8.8593C4.43264 9.03416 4.84098 9.18953 5.3648 9.30297C5.88815 9.4163 6.52544 9.48751 7.186 9.49501C7.84646 9.50063 8.54911 9.42193 9.10692 9.29969C9.38584 9.23857 9.62833 9.1666 9.81114 9.08896C9.90255 9.05013 9.97882 9.00998 10.0372 8.96919C10.0958 8.92824 10.1353 8.88734 10.1545 8.84767C10.1565 8.84355 10.1602 8.84163 10.1638 8.8429ZM4.23282 9.21627C4.51 9.41533 4.95734 9.56473 5.48243 9.66622C6.00826 9.76785 6.61116 9.82126 7.19726 9.82876M4.23282 9.21627V8.88914V9.21627Z" fill="black"/>
<path fill-rule="evenodd" clip-rule="evenodd" d="M10.2037 9.16875V9.2625C10.125 9.39 9.63561 9.5775 9.02249 9.7125C8.41336 9.82925 7.79848 9.8844 7.18311 9.8775C6.59961 9.88413 6.0166 9.83022 5.43936 9.71625C5.00864 9.64989 4.58776 9.49822 4.19061 9.26625V9.1575C4.46343 9.3975 5.2003 9.5775 5.4478 9.63C5.89218 9.72 6.46311 9.7875 7.18311 9.7875C7.93968 9.7875 8.54436 9.71625 9.01124 9.6225C9.4528 9.53625 10.08 9.315 10.2037 9.16875ZM10.2037 8.83125V8.925C10.125 9.04875 9.63561 9.23625 9.02249 9.37125C8.41343 9.48925 7.79855 9.54566 7.18311 9.54C6.59965 9.54458 6.01676 9.49068 5.43936 9.37875C5.00864 9.31239 4.58776 9.16072 4.19061 8.92875V8.81625C4.46343 9.06 5.20311 9.23625 5.4478 9.28875C6.02234 9.40097 6.60245 9.45487 7.18311 9.45C7.93968 9.45 8.54718 9.375 9.01124 9.28125C9.4528 9.19875 10.08 8.9775 10.2037 8.83125ZM7.19436 11.4113C5.91186 11.4038 4.81218 10.9463 4.57874 10.8713L4.74749 11.2238C5.53637 11.5963 6.36882 11.7779 7.20561 11.76C8.18155 11.7225 9.03374 11.6213 9.6328 11.2313L9.80718 10.8638C9.39936 11.1225 8.00718 11.4113 7.19155 11.4113" fill="#FFFF00"/>
<path fill-rule="evenodd" clip-rule="evenodd" d="M4.18665 8.80632C4.1894 8.80436 4.19274 8.80458 4.19532 8.8069C4.33032 8.92751 4.58202 9.03214 4.83177 9.11328C5.08103 9.19426 5.32684 9.25139 5.4491 9.27762C6.0232 9.38975 6.60286 9.44361 7.18307 9.43874L7.18313 9.43874C7.93927 9.43874 8.54635 9.36378 9.00999 9.27012L9.01008 9.2701C9.23046 9.22893 9.49728 9.1531 9.72443 9.06931C9.838 9.02741 9.94152 8.98358 10.0243 8.94115C10.1074 8.89853 10.1685 8.85788 10.1982 8.82282L10.2038 8.83124H10.2122V8.92499C10.2122 8.92766 10.2115 8.93024 10.2102 8.93227C10.1994 8.94917 10.1822 8.9664 10.1598 8.98387C10.1372 9.00144 10.1089 9.01966 10.0754 9.03832C10.0085 9.07565 9.92041 9.11504 9.81583 9.15472C9.60662 9.23408 9.33067 9.31479 9.02388 9.38234L9.02372 9.38238C8.41425 9.50045 7.79897 9.5569 7.18312 9.55124C6.5993 9.55582 6.01604 9.50189 5.43829 9.3899C5.00678 9.3234 4.58512 9.17144 4.18724 8.93905C4.18417 8.93725 4.18219 8.93321 4.18219 8.92874V8.81624C4.18219 8.81209 4.18391 8.80827 4.18665 8.80632ZM10.1953 8.8546C10.1603 8.88855 10.1027 8.92508 10.0303 8.96215C9.9469 9.00493 9.84282 9.04898 9.72893 9.09099C9.50117 9.17501 9.23365 9.25105 9.01247 9.29237C8.548 9.3862 7.9401 9.46124 7.18315 9.46124C7.18315 9.46124 7.18314 9.46124 7.18313 9.46124V9.44999L7.18318 9.46124C7.18317 9.46124 7.18316 9.46124 7.18315 9.46124C6.60207 9.46611 6.02155 9.41217 5.44659 9.29987L5.44647 9.29985L5.44647 9.29985C5.32402 9.27358 5.07769 9.21633 4.82777 9.13514C4.58602 9.0566 4.33951 8.95523 4.19906 8.83698V8.81624H4.19063L4.18593 8.82559C4.1902 8.8294 4.19458 8.8332 4.19906 8.83698V8.92138C4.19738 8.9204 4.1957 8.91942 4.19401 8.91844L4.19063 8.92874H4.19906V8.92138C4.59396 9.15124 5.01229 9.30161 5.44035 9.36757L5.44059 9.36761L5.44059 9.36761C6.01757 9.47946 6.60004 9.53332 7.18308 9.52874L7.18319 9.52874C7.79817 9.5344 8.4126 9.47803 9.02121 9.36012C9.02118 9.36013 9.02115 9.36014 9.02113 9.36014L9.0225 9.37124L9.02129 9.36011C9.02126 9.36011 9.02124 9.36012 9.02121 9.36012C9.32751 9.29268 9.60278 9.21215 9.81121 9.13308C9.91545 9.09353 10.0028 9.05442 10.0689 9.01756C10.102 8.99913 10.1296 8.98135 10.1513 8.96445C10.1715 8.94866 10.1862 8.93399 10.1953 8.92074V8.92499H10.2038L10.1973 8.91771C10.1967 8.91871 10.196 8.91972 10.1953 8.92074V8.8546ZM4.18663 9.14759C4.18936 9.14562 4.19268 9.14582 4.19527 9.1481C4.3303 9.26689 4.58134 9.37153 4.83072 9.45313C5.07966 9.53459 5.32549 9.59265 5.44911 9.61888C5.89304 9.70878 6.46354 9.77624 7.18313 9.77624C7.93929 9.77624 8.54356 9.70503 9.01 9.61137L9.01003 9.61136C9.23043 9.56831 9.49727 9.49154 9.72442 9.40728C9.838 9.36515 9.94152 9.3212 10.0243 9.27871C10.1074 9.23603 10.1685 9.19538 10.1982 9.16032L10.2038 9.16874H10.2122V9.26249C10.2122 9.2651 10.2115 9.26763 10.2103 9.26964C10.1995 9.28705 10.1823 9.30471 10.1599 9.32256C10.1373 9.3405 10.109 9.35904 10.0755 9.37797C10.0085 9.41583 9.92043 9.45558 9.81584 9.4955C9.60662 9.57533 9.33067 9.65604 9.02388 9.72359L9.0237 9.72363C8.41418 9.84045 7.7989 9.89564 7.18313 9.88874C6.59925 9.89537 6.01587 9.84143 5.43827 9.7274C5.00677 9.66089 4.58512 9.50894 4.18724 9.27655C4.18417 9.27475 4.18219 9.27071 4.18219 9.26624V9.15749C4.18219 9.15335 4.18389 9.14955 4.18663 9.14759ZM10.1953 9.1921C10.1603 9.22605 10.1027 9.26258 10.0303 9.29971C9.9469 9.34254 9.84283 9.38671 9.72894 9.42896C9.50118 9.51344 9.23365 9.59042 9.01249 9.63362C8.54518 9.72746 7.94008 9.79874 7.18313 9.79874C6.46273 9.79874 5.89137 9.7312 5.44655 9.64111L5.44649 9.6411C5.3226 9.61482 5.07626 9.55664 4.8267 9.47498C4.58526 9.39597 4.33943 9.29458 4.19906 9.17806V9.25888C4.59396 9.48874 5.01229 9.63911 5.44035 9.70507L5.44061 9.70511L5.44061 9.70511C6.01741 9.819 6.59999 9.87287 7.18306 9.86624H7.1832C7.79811 9.87314 8.41253 9.81803 9.02121 9.70137C9.32751 9.63393 9.60278 9.5534 9.8112 9.47386C9.91543 9.43409 10.0028 9.39462 10.0689 9.35725C10.1019 9.33857 10.1295 9.32048 10.1512 9.30324C10.1715 9.28709 10.1862 9.27202 10.1953 9.25833V9.1921ZM9.8135 10.8563C9.816 10.86 9.81633 10.8655 9.81432 10.8698L9.63995 11.2373C9.63911 11.239 9.63792 11.2404 9.63652 11.2414C9.03559 11.6326 8.18162 11.7337 7.20587 11.7712L7.20576 11.7712C6.36797 11.7891 5.53451 11.6073 4.74469 11.2343C4.74291 11.2335 4.7414 11.2319 4.74039 11.2298L4.57164 10.8773C4.56979 10.8734 4.56988 10.8684 4.57188 10.8647C4.57388 10.861 4.57738 10.8592 4.58073 10.8603C4.60932 10.8695 4.65082 10.8844 4.704 10.9035C5.08588 11.0405 6.06961 11.3934 7.1942 11.4C7.60116 11.3997 8.15135 11.3277 8.651 11.2234C9.1521 11.1189 9.60092 10.9822 9.80356 10.8536C9.80696 10.8514 9.81101 10.8525 9.8135 10.8563ZM7.19105 11.4225C7.19122 11.4225 7.19139 11.4225 7.19156 11.4225C7.19245 11.4225 7.19333 11.4225 7.19422 11.4225M7.19105 11.4225C6.06525 11.4152 5.08059 11.0619 4.69949 10.9251C4.65809 10.9103 4.62381 10.898 4.59725 10.889L4.75305 11.2144C5.54016 11.5856 6.37065 11.7666 7.20545 11.7487C8.18038 11.7113 9.02989 11.6102 9.62696 11.2225L9.78493 10.8896C9.56935 11.015 9.13437 11.1453 8.65361 11.2456C8.15358 11.35 7.60261 11.4221 7.1945 11.4225" fill="black"/>
<path fill-rule="evenodd" clip-rule="evenodd" d="M9.70032 11.1488C9.67472 11.1993 9.64846 11.2494 9.62157 11.2988C9.34032 11.4338 8.89033 11.5763 8.7047 11.6138C8.2066 11.7375 7.70106 11.8003 7.19439 11.8013C6.05814 11.7788 5.1272 11.4825 4.69126 11.2275L4.6547 11.1488L4.66032 11.1338L4.71939 11.1675C5.51983 11.5207 6.35689 11.7042 7.20001 11.7113C7.72876 11.7113 8.2547 11.6325 8.67939 11.5313C9.33189 11.355 9.59626 11.2238 9.67782 11.1638L9.69751 11.1488H9.70032ZM9.84939 10.8188C9.83087 10.8627 9.81212 10.9064 9.79314 10.95C9.64126 11.025 9.23064 11.1825 8.63157 11.295C8.23782 11.3663 7.99314 11.4375 7.20845 11.4563C6.31144 11.4442 5.41994 11.2676 4.55907 10.9313L4.52814 10.8375C5.40278 11.1598 6.30404 11.3362 7.21126 11.3625C7.92845 11.3438 8.23501 11.2725 8.62595 11.2013C9.32345 11.0588 9.67501 10.9013 9.77908 10.86C9.77914 10.8575 9.77914 10.855 9.77908 10.8525L9.8522 10.815L9.84939 10.8188Z" fill="#FFFF00"/>
<path fill-rule="evenodd" clip-rule="evenodd" d="M9.85929 10.8089C9.86146 10.8133 9.861 10.8192 9.85818 10.8229L9.85619 10.8256C9.83784 10.8691 9.81925 10.9125 9.80045 10.9556C9.79946 10.9579 9.79792 10.9596 9.79608 10.9605C9.64352 11.0359 9.23229 11.1935 8.63277 11.3061L8.63272 11.3061C8.57176 11.3172 8.51435 11.3282 8.45795 11.339C8.15015 11.3982 7.87227 11.4516 7.20862 11.4675L7.20838 11.4675C6.31059 11.4555 5.41832 11.2787 4.55672 10.942C4.55433 10.9411 4.55237 10.9388 4.55137 10.9358L4.52043 10.842C4.51912 10.838 4.51964 10.8334 4.52177 10.8301C4.5239 10.8268 4.52726 10.8255 4.5304 10.8266C5.40432 11.1487 6.30482 11.3249 7.21129 11.3512C7.8499 11.3345 8.16251 11.2762 8.49969 11.2133C8.5408 11.2056 8.58228 11.1979 8.62476 11.1901C9.26057 11.0602 9.60854 10.9179 9.74361 10.8626C9.75384 10.8584 9.76286 10.8548 9.77068 10.8516C9.77093 10.8473 9.773 10.8436 9.77606 10.842L9.84919 10.8045C9.8529 10.8026 9.85712 10.8044 9.85929 10.8089ZM9.83177 10.8375L9.78753 10.8602C9.78753 10.8603 9.78752 10.8603 9.78752 10.8604C9.7874 10.8652 9.78497 10.8694 9.78149 10.8708C9.77238 10.8744 9.76137 10.8789 9.7484 10.8842C9.6131 10.9395 9.26425 11.0822 8.62724 11.2124L8.62711 11.2124C8.58463 11.2201 8.54315 11.2279 8.50202 11.2355C8.1646 11.2985 7.85119 11.357 7.21144 11.3737L7.21109 11.3737L7.21109 11.3737C6.30909 11.3475 5.41298 11.1732 4.54302 10.8546L4.56523 10.9219C5.42414 11.257 6.31354 11.433 7.20843 11.445C7.87094 11.4292 8.148 11.3759 8.45557 11.3168C8.51198 11.3059 8.56941 11.2949 8.63043 11.2838C9.22532 11.1721 9.63395 11.0161 9.78738 10.9408C9.80232 10.9065 9.81712 10.8721 9.83177 10.8375ZM4.65279 11.1287C4.65479 11.1234 4.65956 11.1211 4.66366 11.1234L4.72239 11.157C5.52189 11.5097 6.35795 11.6929 7.20005 11.7C7.72817 11.7 8.25356 11.6213 8.67782 11.5202C9.33014 11.344 9.59335 11.213 9.67371 11.1539C9.67373 11.1539 9.67375 11.1539 9.67376 11.1539L9.69334 11.139C9.69462 11.138 9.69606 11.1375 9.69753 11.1375H9.70034C9.70346 11.1375 9.70633 11.1398 9.70779 11.1435C9.70925 11.1471 9.70908 11.1516 9.70733 11.155C9.68167 11.2057 9.65536 11.2558 9.62842 11.3054C9.62742 11.3072 9.62604 11.3086 9.62445 11.3093C9.34273 11.4446 8.89235 11.5872 8.70612 11.6248C8.20756 11.7487 7.70155 11.8115 7.19441 11.8125L7.19428 11.8125C6.05722 11.79 5.12511 11.4935 4.68789 11.2378C4.68632 11.2369 4.685 11.2354 4.6841 11.2334L4.64754 11.1547C4.646 11.1513 4.64586 11.1472 4.64717 11.1437L4.65279 11.1287ZM4.66445 11.1483L4.69707 11.2186C5.13272 11.4725 6.06113 11.7675 7.19446 11.79C7.70059 11.789 8.2056 11.7263 8.70317 11.6027L8.70345 11.6026L8.70345 11.6026C8.88802 11.5653 9.33542 11.4237 9.61629 11.2893C9.63616 11.2528 9.65569 11.2159 9.67487 11.1786C9.5846 11.2416 9.31608 11.3707 8.68108 11.5423L8.68089 11.5423C8.2558 11.6437 7.72936 11.7225 7.20003 11.7225L7.19997 11.7225C6.35597 11.7154 5.51804 11.5317 4.71675 11.1782C4.71652 11.1781 4.7163 11.178 4.71608 11.1778L4.66445 11.1483Z" fill="black"/>
<path fill-rule="evenodd" clip-rule="evenodd" d="M9.86624 8.91C9.86906 10.035 9.43593 11.0475 9.09 11.49C8.57906 12.1544 7.89674 12.5328 7.18312 12.5475C6.33093 12.5662 5.52937 11.8275 5.31281 11.5013C4.82833 10.8162 4.5526 9.91514 4.53937 8.97375C4.58999 7.74375 4.95281 6.88875 5.47593 6.3C5.98411 5.74221 6.62337 5.44084 7.28156 5.44875C7.66578 5.47359 8.04187 5.60517 8.38574 5.83506C8.72961 6.06495 9.03366 6.38808 9.27843 6.78375C9.62999 7.35375 9.78468 7.9725 9.86624 8.91ZM7.18875 5.0625C7.97554 5.06247 8.73044 5.47714 9.28889 6.21612C9.84734 6.9551 10.1641 7.95847 10.17 9.0075C10.17 9.52803 10.0931 10.0435 9.9437 10.5244C9.79431 11.0053 9.57533 11.4422 9.29928 11.8103C9.02323 12.1784 8.69551 12.4703 8.33483 12.6695C7.97415 12.8687 7.58758 12.9712 7.19718 12.9712C6.80679 12.9712 6.42021 12.8687 6.05954 12.6695C5.69886 12.4703 5.37114 12.1784 5.09509 11.8103C4.81904 11.4422 4.60006 11.0053 4.45066 10.5244C4.30126 10.0435 4.22437 9.52803 4.22437 9.0075C4.22156 6.8325 5.55468 5.0625 7.18875 5.0625Z" fill="#FFFF00"/>
<path fill-rule="evenodd" clip-rule="evenodd" d="M9.28296 6.2241C8.72609 5.48721 7.97333 5.07371 7.18876 5.07374C5.55933 5.07374 4.23002 6.83874 4.23282 9.00747L4.23282 9.00749C4.23282 9.52654 4.3095 10.0405 4.45847 10.52C4.60745 10.9996 4.8258 11.4353 5.10107 11.8023C5.37633 12.1694 5.70313 12.4605 6.06278 12.6591C6.42243 12.8578 6.80791 12.96 7.1972 12.96C7.58648 12.96 7.97196 12.8578 8.33161 12.6591C8.69127 12.4605 9.01806 12.1694 9.29333 11.8023C9.56859 11.4353 9.78695 10.9996 9.93592 10.52C10.0849 10.0405 10.1616 9.52654 10.1616 9.0075C10.1556 7.96147 9.83982 6.96097 9.28296 6.2241ZM7.18876 5.05124C7.97778 5.05121 8.73482 5.46706 9.29485 6.20813C9.85488 6.9492 10.1725 7.95541 10.1784 9.0074L10.1784 9.00749C10.1784 9.52949 10.1013 10.0464 9.95151 10.5287C9.80169 11.0109 9.58209 11.4491 9.30526 11.8182C9.02842 12.1874 8.69977 12.4801 8.33807 12.6799C7.97637 12.8797 7.5887 12.9825 7.1972 12.9825C6.80569 12.9825 6.41802 12.8797 6.05632 12.6799C5.69462 12.4801 5.36597 12.1874 5.08913 11.8182C4.8123 11.4491 4.5927 11.0109 4.44288 10.5287C4.29306 10.0464 4.21595 9.5295 4.21595 9.0075C4.21313 6.82624 5.55007 5.05124 7.18876 5.05124ZM7.28133 5.45999C6.6252 5.45215 5.98795 5.7526 5.48135 6.30863C4.96014 6.89525 4.59839 7.74719 4.54783 8.97394C4.56109 9.91239 4.836 10.8106 5.31896 11.4935L5.31914 11.4938L5.31914 11.4938C5.42651 11.6555 5.68006 11.921 6.0134 12.1437C6.34662 12.3663 6.75869 12.5456 7.183 12.5362H7.183C7.89447 12.5216 8.57473 12.1443 9.08412 11.4819L9.08417 11.4819C9.42856 11.0413 9.86046 10.032 9.85782 8.91066C9.77635 7.97472 9.62201 7.35849 9.27194 6.7909C9.02792 6.39644 8.72479 6.07429 8.38197 5.8451C8.0392 5.61595 7.66432 5.48478 7.28133 5.45999ZM9.86626 8.90999L9.87464 8.90869C9.79297 7.96999 9.63793 7.34887 9.28496 6.77659L9.28496 6.77658C9.03944 6.3797 8.73445 6.05558 8.38953 5.82499C8.04462 5.5944 7.66738 5.46242 7.28198 5.4375L7.28198 5.43749L7.28165 5.43749C6.62147 5.42956 5.98029 5.73184 5.47058 6.2913L5.4705 6.29139C4.94555 6.8822 4.58171 7.74013 4.53096 8.97312C4.53095 8.9734 4.53094 8.97367 4.53095 8.97395C4.54421 9.91808 4.82074 10.8218 5.30659 11.5088C5.41584 11.6733 5.67129 11.9403 6.00584 12.1638C6.34058 12.3874 6.75539 12.5682 7.18327 12.5587C7.89902 12.544 8.58338 12.1645 9.09585 11.4981C9.09585 11.4981 9.09585 11.4981 9.09585 11.4981L9.09001 11.49L9.0959 11.498C9.09589 11.4981 9.09587 11.4981 9.09585 11.4981" fill="black"/>
<path fill-rule="evenodd" clip-rule="evenodd" d="M7.19717 5.04376C8.83404 5.04376 10.1672 6.82126 10.1672 9.00376C10.1672 11.1863 8.83404 12.9638 7.19998 12.9638C5.56592 12.9638 4.22998 11.1863 4.22998 9.00376C4.22998 6.82126 5.56311 5.04376 7.19998 5.04376H7.19717ZM4.29186 9.00001C4.29186 11.13 5.60529 12.8738 7.19717 12.8738C8.78904 12.8738 10.1025 11.13 10.1025 9.00001C10.1025 6.87001 8.78904 5.12626 7.19717 5.12626C5.60529 5.12626 4.29186 6.87001 4.29186 9.00001Z" fill="#FFFF00"/>
<path fill-rule="evenodd" clip-rule="evenodd" d="M7.19859 5.055C5.56702 5.05602 4.23843 6.82809 4.23843 9.00375C4.23843 11.18 5.57059 12.9525 7.2 12.9525C8.82939 12.9525 10.1587 11.18 10.1587 9.00375C10.1587 6.82809 8.83016 5.05602 7.19859 5.055ZM7.20015 5.0325C8.84033 5.03465 10.1756 6.81636 10.1756 9.00375C10.1756 11.1925 8.83872 12.975 7.2 12.975C5.56128 12.975 4.22156 11.1925 4.22156 9.00375C4.22156 6.81636 5.55685 5.03465 7.19702 5.0325C7.19708 5.0325 7.19713 5.0325 7.19718 5.0325H7.2C7.20005 5.0325 7.2001 5.0325 7.20015 5.0325ZM4.28343 9C4.28343 6.86377 5.60066 5.115 7.19718 5.115C8.79371 5.115 10.1109 6.86377 10.1109 9C10.1109 11.1362 8.79371 12.885 7.19718 12.885C5.60066 12.885 4.28343 11.1362 4.28343 9ZM7.19718 5.1375C5.60996 5.1375 4.30031 6.87623 4.30031 9C4.30031 11.1238 5.60996 12.8625 7.19718 12.8625C8.78441 12.8625 10.0941 11.1238 10.0941 9C10.0941 6.87623 8.78441 5.1375 7.19718 5.1375Z" fill="black"/>
<path fill-rule="evenodd" clip-rule="evenodd" d="M7.19997 5.37375C7.92059 5.37672 8.61107 5.75972 9.12062 6.43913C9.63018 7.11854 9.91744 8.03917 9.91966 9C9.91744 9.96117 9.63028 10.8822 9.1208 11.5622C8.61132 12.2422 7.92085 12.626 7.19997 12.63C5.70935 12.63 4.48029 10.995 4.48029 9C4.48325 8.03947 4.77074 7.11941 5.28014 6.44021C5.78954 5.76102 6.47958 5.3777 7.19997 5.37375ZM4.54497 9C4.54497 10.95 5.7431 12.54 7.19997 12.54C8.65685 12.54 9.85497 10.9462 9.85497 9C9.85497 7.05 8.65685 5.46 7.19997 5.46C6.49674 5.46395 5.82314 5.83818 5.32588 6.5012C4.82861 7.16423 4.54793 8.06235 4.54497 9Z" fill="#FFFF00"/>
<path fill-rule="evenodd" clip-rule="evenodd" d="M9.11467 6.44707C8.6067 5.76977 7.91837 5.38796 7.19999 5.38499C6.48184 5.38894 5.79393 5.77107 5.28612 6.44816C4.77829 7.12525 4.49169 8.04246 4.48874 9.00001C4.48875 10.9888 5.71401 12.6187 7.19995 12.6187C7.91861 12.6148 8.60694 12.2321 9.11484 11.5542C9.62274 10.8763 9.90902 9.95818 9.91124 8.99999C9.90901 8.04214 9.62265 7.12438 9.11467 6.44707ZM7.19999 5.37374L7.20001 5.36249C7.92286 5.36546 8.61547 5.74965 9.12661 6.43116C9.63774 7.11268 9.92588 8.03615 9.92811 8.99995V9.00002C9.92588 9.96417 9.63784 10.888 9.12678 11.5701C8.61573 12.2523 7.92313 12.6373 7.20002 12.6412H7.19999C5.7047 12.6412 4.47186 11.0012 4.47186 8.99999L4.47186 8.99994C4.47483 8.03645 4.76321 7.11355 5.27418 6.43225C5.78516 5.75095 6.47733 5.36645 7.19995 5.36249L7.19999 5.37374ZM7.19999 5.44874C8.66151 5.44874 9.86343 7.04376 9.86343 8.99999C9.86343 10.9525 8.66152 12.5512 7.19999 12.5512C5.73846 12.5512 4.53655 10.9562 4.53655 8.99999H4.54499L4.53655 8.99994C4.53952 8.05932 4.82108 7.15836 5.31992 6.49324C5.81877 5.82811 6.49449 5.4527 7.19995 5.44874L7.19999 5.44874ZM4.55343 9.00001C4.55344 10.9438 5.74777 12.5287 7.19999 12.5287C8.65221 12.5287 9.84655 10.94 9.84655 8.99999C9.84655 7.05622 8.65222 5.47125 7.20001 5.47124C6.499 5.47518 5.82755 5.84823 5.33186 6.50915C4.83617 7.17007 4.55638 8.06534 4.55343 9.00001Z" fill="black"/>
<path fill-rule="evenodd" clip-rule="evenodd" d="M7.32094 5.02499H7.065V12.9862H7.31813L7.32094 5.02499Z" fill="#FFFF00"/>
<path fill-rule="evenodd" clip-rule="evenodd" d="M7.05658 5.02501C7.05658 5.0188 7.06036 5.01376 7.06502 5.01376H7.32095C7.32319 5.01376 7.32534 5.01495 7.32692 5.01706C7.3285 5.01917 7.32939 5.02203 7.32939 5.02502L7.32658 12.9863C7.32658 12.9925 7.3228 12.9975 7.31814 12.9975H7.06502C7.06036 12.9975 7.05658 12.9925 7.05658 12.9863V5.02501ZM7.07345 5.03626V12.975H7.30971L7.31251 5.03626H7.07345Z" fill="black"/>
<path fill-rule="evenodd" clip-rule="evenodd" d="M7.2928 4.98001H7.35749V13.0313H7.29561V4.98001H7.2928ZM7.03967 4.98001H7.10717V13.0313H7.04249V4.98001H7.03967Z" fill="#FFFF00"/>
<path fill-rule="evenodd" clip-rule="evenodd" d="M7.03125 4.98C7.03125 4.97379 7.03503 4.96875 7.03969 4.96875H7.10719C7.11185 4.96875 7.11562 4.97379 7.11562 4.98V13.0312C7.11562 13.0375 7.11185 13.0425 7.10719 13.0425H7.0425C7.03784 13.0425 7.03406 13.0375 7.03406 13.0312V4.98839C7.03234 4.98633 7.03125 4.98333 7.03125 4.98ZM7.05094 4.99125V13.02H7.09875V4.99125H7.05094ZM7.28437 4.98C7.28437 4.97379 7.28815 4.96875 7.29281 4.96875H7.3575C7.36216 4.96875 7.36594 4.97379 7.36594 4.98V13.0312C7.36594 13.0375 7.36216 13.0425 7.3575 13.0425H7.29562C7.29096 13.0425 7.28719 13.0375 7.28719 13.0312V4.98839C7.28546 4.98633 7.28437 4.98333 7.28437 4.98ZM7.30406 4.99125V13.02H7.34906V4.99125H7.30406Z" fill="black"/>
<path fill-rule="evenodd" clip-rule="evenodd" d="M10.17 9.15749V8.86499L9.99001 8.63999L8.96907 8.27999L7.50094 8.08124L5.72907 8.20124L4.46907 8.59874L4.21594 8.84999V9.14624L4.86001 8.75999L6.39001 8.44124H7.86094L8.94094 8.59874L9.68907 8.83874L10.17 9.15749Z" fill="#FFFF00"/>
<path fill-rule="evenodd" clip-rule="evenodd" d="M7.50053 8.07002C7.50096 8.06999 7.50138 8.07001 7.50181 8.07006L8.96993 8.26882C8.97038 8.26887 8.97081 8.26898 8.97124 8.26913L9.99218 8.62913C9.99353 8.62961 9.99477 8.63052 9.99579 8.6318L10.1758 8.8568C10.1775 8.85893 10.1785 8.8619 10.1785 8.86501V9.15751C10.1785 9.1614 10.1769 9.16502 10.1745 9.16707C10.172 9.16912 10.1689 9.16931 10.1663 9.16758L9.68618 8.8494L8.93951 8.60986L7.8605 8.45251H6.39067L4.86244 8.77089L4.21942 9.15652C4.21681 9.15808 4.21378 9.15778 4.21138 9.1557C4.20897 9.15363 4.20752 9.15007 4.20752 9.14626V8.85001C4.20752 8.84645 4.20878 8.84311 4.21092 8.84098L4.46404 8.58973C4.46497 8.58882 4.46602 8.58816 4.46714 8.58781L5.72714 8.19031C5.72764 8.19015 5.72814 8.19006 5.72865 8.19002L7.50053 8.07002ZM5.73028 8.21244L4.47272 8.60917L4.22439 8.85566V9.12886L4.85656 8.74975C4.85725 8.74934 4.85797 8.74905 4.85872 8.74889L6.38872 8.43014C6.38915 8.43005 6.38958 8.43001 6.39002 8.43001H7.86096C7.86108 8.43001 7.8612 8.43001 7.86132 8.43002C7.86151 8.43003 7.86169 8.43005 7.86187 8.43007L8.94187 8.58757C8.94223 8.58763 8.94258 8.58771 8.94293 8.58782L9.69106 8.82782C9.69167 8.82802 9.69227 8.82831 9.69284 8.82868L10.1616 9.13935V8.86988L9.9858 8.65016L8.96757 8.29111L7.50074 8.09254L5.73028 8.21244Z" fill="black"/>
<path fill-rule="evenodd" clip-rule="evenodd" d="M7.19999 8.39251C7.9003 8.39251 8.57811 8.47876 9.12092 8.61751C9.6778 8.76751 10.0687 8.95501 10.2037 9.16126V9.26627C10.0406 9.00377 9.51468 8.81626 9.10686 8.70376C8.57249 8.56876 7.89749 8.47877 7.19718 8.47877C6.46311 8.47877 5.77686 8.57626 5.24811 8.71126C4.82624 8.82376 4.26093 9.04876 4.19061 9.26627V9.15751C4.22718 9.00751 4.64905 8.78251 5.23968 8.62126C5.77124 8.48251 6.45749 8.39251 7.19718 8.39251H7.19999ZM7.19999 8.05126C7.84406 8.04954 8.48695 8.12484 9.12092 8.27626C9.6778 8.42626 10.0687 8.61376 10.2037 8.82376V8.92501C10.0406 8.66626 9.51468 8.47501 9.10686 8.36626C8.57249 8.22751 7.89749 8.14126 7.19718 8.14126C6.54443 8.13851 5.8929 8.21634 5.25093 8.37376C4.84311 8.47501 4.2553 8.70751 4.19061 8.92501V8.82001C4.22999 8.67001 4.65749 8.43376 5.23968 8.28376C5.77405 8.14501 6.45749 8.05126 7.19999 8.05126ZM7.18311 6.31876C8.28843 6.31126 9.25311 6.52501 9.69468 6.82501L9.85499 7.20001C9.47249 6.92251 8.43186 6.63751 7.18593 6.67501C6.17061 6.68626 5.08499 6.82501 4.54218 7.21501L4.73343 6.78751C5.18061 6.47626 6.23249 6.31876 7.18311 6.31876Z" fill="#FFFF00"/>
<path fill-rule="evenodd" clip-rule="evenodd" d="M8.68652 6.46768C8.25248 6.37778 7.73543 6.32626 7.18317 6.33C7.18316 6.33 7.18314 6.33 7.18313 6.33M8.68652 6.46768C9.11927 6.55731 9.46888 6.68496 9.68861 6.8335L8.68652 6.46768ZM9.68861 6.8335L9.83339 7.17217C9.63574 7.03845 9.28972 6.90524 8.84562 6.80828C8.38141 6.70692 7.80927 6.64499 7.18581 6.66375C6.67794 6.66938 6.15235 6.7069 5.68574 6.79183C5.23424 6.874 4.83715 7.00069 4.56477 7.18649L4.73946 6.79601C4.96191 6.64208 5.33443 6.52557 5.77062 6.44756C6.20787 6.36936 6.70811 6.33001 7.18309 6.33M7.18311 6.3075C6.70749 6.3075 6.20649 6.3469 5.76837 6.42526C5.33055 6.50356 4.95452 6.62094 4.72954 6.77753C4.72815 6.77849 4.72699 6.77995 4.72619 6.78174L4.53494 7.20924C4.533 7.21359 4.53347 7.21913 4.5361 7.22278C4.53872 7.22644 4.54285 7.22731 4.54619 7.22491C4.81622 7.0309 5.22209 6.89892 5.68802 6.81412C6.15373 6.72936 6.67858 6.69188 7.18601 6.68625L7.18613 6.68625C7.80859 6.66752 8.37971 6.72934 8.8429 6.83048C9.30634 6.93167 9.66099 7.07206 9.85097 7.20989C9.85428 7.21229 9.85839 7.21147 9.86103 7.20788C9.86367 7.20429 9.8642 7.1988 9.86233 7.19443L9.70202 6.81943C9.7012 6.81752 9.69999 6.81598 9.69852 6.81498C9.47655 6.66417 9.12395 6.53551 8.68911 6.44545C8.25409 6.35535 7.73615 6.30375 7.18311 6.3075ZM9.11936 8.28731C8.48591 8.13602 7.84355 8.06078 7.20002 8.0625L7.2 8.05125V8.0625C6.458 8.0625 5.7751 8.15619 5.2413 8.2948L5.24129 8.2948C4.95058 8.3697 4.69867 8.46609 4.51469 8.56235C4.42267 8.61049 4.34787 8.65848 4.29376 8.70357C4.2667 8.72611 4.245 8.74778 4.22895 8.76819C4.21339 8.78799 4.20359 8.80604 4.19906 8.82199V8.88246C4.20794 8.86628 4.2192 8.85032 4.23242 8.83462C4.25606 8.80657 4.28645 8.77881 4.32205 8.75159C4.39323 8.69716 4.48604 8.64428 4.58928 8.59519C4.7958 8.49698 5.04515 8.4134 5.2494 8.36269L5.24941 8.36269C5.8919 8.20514 6.54395 8.12725 7.19722 8.13C7.89799 8.13001 8.57352 8.21631 9.10849 8.35521L9.10853 8.35522C9.31263 8.40965 9.54648 8.48477 9.74984 8.57875C9.85151 8.62574 9.94573 8.67752 10.0249 8.73391C10.095 8.78391 10.1538 8.83782 10.1953 8.89567V8.82795C10.1287 8.72637 9.99971 8.62887 9.81759 8.53804C9.63397 8.44646 9.39752 8.36223 9.11936 8.28731ZM7.19999 8.04C7.84456 8.03828 8.48795 8.11364 9.12243 8.26518L9.12261 8.26522C9.40129 8.34029 9.63871 8.42481 9.8235 8.51697C10.008 8.60896 10.1412 8.70914 10.2102 8.81643C10.2115 8.81847 10.2122 8.82107 10.2122 8.82375V8.925C10.2122 8.92973 10.21 8.93395 10.2066 8.93557C10.2033 8.93719 10.1996 8.93586 10.1973 8.93224C10.1575 8.86913 10.0951 8.80947 10.0169 8.75375C9.93882 8.69811 9.84548 8.64677 9.74431 8.60001C9.54197 8.50649 9.30895 8.43161 9.10524 8.37729C8.57146 8.2387 7.89702 8.1525 7.19719 8.1525H7.19716C6.54494 8.14975 5.89393 8.22752 5.25247 8.38482C5.0489 8.43536 4.80045 8.51865 4.59495 8.61638C4.49217 8.66526 4.4004 8.71761 4.33044 8.77111C4.29546 8.79786 4.26613 8.82474 4.24364 8.85143C4.2211 8.87819 4.20588 8.90423 4.19847 8.92915C4.19698 8.93417 4.19302 8.93707 4.18904 8.93605C4.18507 8.93504 4.18219 8.9304 4.18219 8.925V8.82C4.18219 8.81874 4.18235 8.81748 4.18266 8.81629C4.18821 8.79516 4.20025 8.7736 4.21731 8.75191C4.23445 8.7301 4.25716 8.70753 4.28481 8.68449C4.34013 8.6384 4.41597 8.58983 4.50852 8.54141C4.69367 8.44454 4.94661 8.34781 5.23809 8.27271C5.77303 8.13381 6.457 8.04 7.19999 8.04ZM7.19719 8.40375C6.45799 8.40375 5.77231 8.4937 5.24135 8.63228C4.94637 8.71282 4.69374 8.80922 4.51044 8.90408C4.41876 8.95153 4.34467 8.99847 4.29137 9.04266C4.26471 9.06476 4.24346 9.08601 4.22784 9.10611C4.21266 9.12563 4.20326 9.14348 4.19906 9.15935V9.22501C4.22407 9.17992 4.26717 9.13601 4.32198 9.09385C4.39207 9.03995 4.48303 8.98766 4.58468 8.9388C4.78803 8.84105 5.03526 8.75655 5.24647 8.70022L5.24654 8.7002C5.77582 8.56507 6.46261 8.4675 7.19719 8.4675C7.898 8.4675 8.57353 8.55756 9.10845 8.6927L9.10859 8.69274C9.31264 8.74903 9.54648 8.82414 9.74984 8.91812C9.85151 8.96511 9.94574 9.0169 10.0249 9.07353C10.095 9.12373 10.1538 9.17803 10.1953 9.23662V9.1655C10.1287 9.06574 9.99969 8.96918 9.81761 8.87883C9.63396 8.78771 9.39749 8.70347 9.11932 8.62854C8.57709 8.48995 7.89983 8.40375 7.2 8.40375H7.19719ZM5.23807 8.61021C5.77023 8.47131 6.45703 8.38125 7.19719 8.38125H7.2C7.90079 8.38125 8.57914 8.46756 9.12253 8.60645L9.12261 8.60648C9.40129 8.68154 9.63871 8.76606 9.82349 8.85774C10.0079 8.94926 10.1411 9.04848 10.2101 9.15386C10.2115 9.15591 10.2122 9.15853 10.2122 9.16125V9.26625C10.2122 9.271 10.21 9.27523 10.2066 9.27684C10.2033 9.27845 10.1995 9.27708 10.1973 9.27343C10.1575 9.20941 10.0951 9.1493 10.0169 9.09335C9.93881 9.03748 9.84548 8.98614 9.74431 8.93938C9.54198 8.84588 9.30898 8.771 9.10524 8.71479C8.57142 8.57994 7.89697 8.49 7.19719 8.49C6.46366 8.49 5.77796 8.58744 5.24975 8.7223C5.03909 8.77847 4.79274 8.86271 4.5904 8.95996C4.48921 9.0086 4.39928 9.06037 4.33041 9.11334C4.26108 9.16667 4.21478 9.21996 4.19838 9.27071C4.19679 9.27561 4.19284 9.27835 4.18892 9.27727C4.185 9.27619 4.18219 9.27159 4.18219 9.26625V9.1575C4.18219 9.15632 4.18233 9.15515 4.1826 9.15403C4.18778 9.13281 4.19944 9.11136 4.21612 9.08991C4.23288 9.06836 4.25519 9.04616 4.28246 9.02356C4.33699 8.97834 4.41215 8.93082 4.50433 8.88311C4.68876 8.78766 4.94237 8.69094 5.238 8.61023L5.23807 8.61021Z" fill="black"/>
<path fill-rule="evenodd" clip-rule="evenodd" d="M7.20002 6.62625C7.77713 6.61327 8.35399 6.66722 8.92408 6.7875C9.37408 6.9 9.8044 7.065 9.86627 7.155L9.91408 7.2675C9.76502 7.14 9.39096 6.99375 8.91283 6.87375C8.43471 6.75375 7.8244 6.7125 7.19721 6.71625C6.48565 6.7125 5.93158 6.76125 5.45908 6.87375C5.13337 6.93462 4.81713 7.06504 4.52252 7.26L4.57033 7.14375C4.73908 7.03125 5.00065 6.8925 5.44502 6.78375C5.93721 6.66375 6.4969 6.63 7.20002 6.62625ZM7.20002 6.28875C7.8019 6.28125 8.39815 6.32625 8.86221 6.43875C9.16287 6.49827 9.45384 6.62505 9.72284 6.81375L9.79315 6.96375C9.67502 6.7875 9.23065 6.61875 8.83408 6.52875C8.37283 6.42 7.8019 6.37875 7.20002 6.37125C6.63975 6.3646 6.08003 6.41978 5.52658 6.53625C5.2372 6.59002 4.95614 6.70523 4.69408 6.8775L4.75596 6.75375C4.91908 6.64125 5.18346 6.53625 5.51533 6.45C6.07242 6.33201 6.63598 6.27681 7.20002 6.285V6.28875ZM8.67377 10.65C8.18629 10.5375 7.69186 10.4872 7.19721 10.5C5.35502 10.53 4.76158 11.0063 4.68846 11.1488L4.54783 10.8488C5.02033 10.3988 6.02158 10.1438 7.20846 10.1663C7.8244 10.1813 8.35596 10.2375 8.80033 10.3538L8.67377 10.6538" fill="#FFFF00"/>
<path fill-rule="evenodd" clip-rule="evenodd" d="M5.51676 6.46107C5.18649 6.54692 4.92389 6.65117 4.76172 6.76241L4.71829 6.84927C4.97312 6.68651 5.24532 6.57714 5.5253 6.52512C6.07918 6.40856 6.63934 6.35333 7.20005 6.35999L7.20005 6.35999C7.80206 6.3675 8.37354 6.40875 8.83548 6.51766C9.03405 6.56273 9.24468 6.62752 9.42057 6.70319C9.50852 6.74103 9.58794 6.78164 9.65288 6.82397C9.69263 6.84987 9.72722 6.87658 9.7551 6.90391L9.71684 6.82229C9.44925 6.63496 9.15989 6.50905 8.86092 6.44987L8.86065 6.44982L8.86065 6.44981C8.39732 6.33749 7.80165 6.2925 7.20005 6.29999C7.1978 6.30002 7.19564 6.29885 7.19404 6.29674C7.1939 6.29655 7.19376 6.29635 7.19363 6.29615C6.6322 6.28847 6.07127 6.34363 5.51676 6.46107ZM7.20621 6.27742C7.20469 6.27519 7.2025 6.27378 7.20007 6.27374C6.63555 6.26554 6.07152 6.32079 5.51396 6.43888L5.51396 6.43888L5.51367 6.43895C5.18158 6.52526 4.91625 6.6305 4.75204 6.74375C4.75077 6.74463 4.74969 6.74592 4.74889 6.7475L4.68702 6.87125C4.6849 6.87549 4.68518 6.88109 4.6877 6.88492C4.69022 6.88874 4.69435 6.88983 4.69777 6.88758C4.95902 6.71584 5.23921 6.60098 5.5277 6.54739L5.5277 6.54739L5.52785 6.54736C6.08084 6.43098 6.64009 6.37584 7.1999 6.38249C7.80163 6.38999 8.37201 6.43124 8.83257 6.53982L8.83262 6.53983C9.03061 6.58477 9.24043 6.64934 9.41539 6.72461C9.50288 6.76224 9.58149 6.80248 9.64547 6.84418C9.70964 6.886 9.75838 6.92882 9.78681 6.97124C9.78973 6.9756 9.79466 6.97625 9.79817 6.97274C9.80167 6.96923 9.80258 6.96273 9.80026 6.95778L9.72994 6.80778C9.72915 6.80609 9.72804 6.80471 9.72672 6.80379C9.45692 6.61453 9.16509 6.48736 8.86354 6.42764C8.40039 6.31538 7.80616 6.27031 7.20621 6.27742ZM8.9226 6.79858C8.35303 6.67842 7.7767 6.62452 7.20012 6.63749L7.19998 6.62624L7.20001 6.63749C6.49698 6.64124 5.93791 6.675 5.44649 6.79481C5.00492 6.90287 4.74449 7.04052 4.57642 7.15224L4.5427 7.23423C4.83123 7.04744 5.13997 6.92203 5.45771 6.86263C5.93086 6.75 6.48542 6.70124 7.19716 6.70499C7.82452 6.70124 8.43545 6.74249 8.91435 6.86269C9.15361 6.92274 9.36694 6.98938 9.53919 7.05701C9.69187 7.11696 9.81284 7.1779 9.89098 7.23606L9.85938 7.1617C9.8525 7.15207 9.84023 7.14068 9.82243 7.12788C9.80424 7.11481 9.78092 7.10072 9.75305 7.08587C9.69733 7.05617 9.62396 7.02371 9.53832 6.99048C9.36709 6.92405 9.14733 6.85477 8.9226 6.79858ZM7.19989 6.61499C6.49669 6.61875 5.9364 6.65249 5.44346 6.77268L5.44345 6.77268C4.99835 6.88161 4.73602 7.02068 4.56651 7.13368C4.56498 7.1347 4.56372 7.13633 4.56289 7.13833L4.51508 7.25458C4.51331 7.25889 4.51384 7.26424 4.51639 7.26778C4.51894 7.27133 4.52293 7.27226 4.52623 7.27007C4.82002 7.07564 5.13539 6.94558 5.46021 6.88488L5.46021 6.88489L5.46052 6.88482C5.93233 6.77248 6.48584 6.72375 7.19713 6.72749H7.1972C7.8242 6.72374 8.43388 6.765 8.91123 6.8848C9.15009 6.94475 9.36285 7.01123 9.53443 7.0786C9.70624 7.14606 9.83603 7.21413 9.90948 7.27696C9.91275 7.27976 9.91702 7.27922 9.91984 7.27566C9.92266 7.27211 9.92329 7.26645 9.92138 7.26195L9.87357 7.14945C9.87325 7.14871 9.87288 7.14802 9.87244 7.14739C9.86373 7.13471 9.84921 7.12157 9.83044 7.10807C9.81149 7.09445 9.78752 7.08001 9.75932 7.06498C9.70289 7.03491 9.62895 7.00221 9.54304 6.96888C9.37117 6.9022 9.15082 6.83274 8.92559 6.77644L8.92559 6.77643L8.92536 6.77638C8.35479 6.656 7.77746 6.602 7.19989 6.61499ZM4.55916 10.8518L4.68914 11.1291C4.71308 11.0915 4.76386 11.0396 4.84833 10.9815C4.94367 10.9159 5.08285 10.8418 5.27718 10.7713C5.66582 10.6304 6.27547 10.5038 7.19705 10.4887C7.19705 10.4887 7.19706 10.4887 7.19706 10.4887L7.19716 10.5L7.197 10.4887C7.19702 10.4887 7.19703 10.4887 7.19705 10.4887C7.69072 10.476 8.18417 10.526 8.67073 10.6379L8.66637 10.6482C8.6648 10.652 8.66499 10.6564 8.6666 10.6598C8.18148 10.5483 7.68951 10.4985 7.19733 10.5112L7.19727 10.5112C6.27667 10.5262 5.6685 10.6527 5.2816 10.793C5.08815 10.8632 4.95013 10.9368 4.85607 11.0015C4.76163 11.0665 4.71242 11.1219 4.69538 11.1551C4.69377 11.1582 4.69108 11.1601 4.68824 11.16C4.68539 11.1599 4.68277 11.1579 4.68126 11.1547L4.54063 10.8547C4.53827 10.8497 4.53926 10.843 4.54288 10.8396C4.78058 10.6132 5.1504 10.4366 5.60862 10.3193C6.06702 10.2019 6.61464 10.1437 7.20853 10.155L7.20857 10.155C7.82474 10.17 8.35685 10.2263 8.80191 10.3427C8.80457 10.3434 8.80681 10.3458 8.80795 10.349C8.80908 10.3523 8.80897 10.3561 8.80764 10.3593L8.68108 10.6593C8.67879 10.6647 8.67365 10.6666 8.66959 10.6635C8.66833 10.6626 8.66732 10.6613 8.6666 10.6598M8.78721 10.3618L8.67073 10.6379L8.78721 10.3618ZM8.78721 10.3618C8.79103 10.3628 8.79485 10.3638 8.79866 10.3648L8.80029 10.3537L8.79293 10.3482L8.78721 10.3618ZM8.78721 10.3618C8.34585 10.2478 7.81868 10.1924 7.20829 10.1775L7.20841 10.1662L7.20826 10.1775C7.20827 10.1775 7.20828 10.1775 7.20829 10.1775C6.61531 10.1663 6.06886 10.2243 5.6118 10.3414C5.15873 10.4573 4.79421 10.6311 4.55916 10.8518" fill="black"/>
<path fill-rule="evenodd" clip-rule="evenodd" d="M7.18877 10.4587C7.70064 10.47 8.20127 10.4962 8.68783 10.6162L8.65408 10.6987C8.20408 10.5862 7.72033 10.5487 7.19158 10.5487C6.50814 10.5412 5.82189 10.6275 5.22283 10.8562C5.03439 10.9275 4.7222 11.0887 4.68845 11.2237L4.6547 11.1487C4.66595 11.0662 4.85158 10.9012 5.20595 10.7737C5.8922 10.5112 6.53346 10.4625 7.18877 10.4587ZM7.21127 10.1137C7.75154 10.113 8.29082 10.1758 8.82283 10.3012L8.78627 10.3875C8.26676 10.2604 7.73943 10.1989 7.21127 10.2037C6.53064 10.2037 5.80783 10.2712 5.1497 10.5262C4.93877 10.6087 4.57033 10.7887 4.55908 10.9275L4.52533 10.845C4.53095 10.7175 4.84877 10.5487 5.13564 10.44C5.79658 10.1812 6.5222 10.1175 7.21127 10.1137Z" fill="#FFFF00"/>
<path fill-rule="evenodd" clip-rule="evenodd" d="M8.80963 10.3096C8.28191 10.186 7.7471 10.1243 7.2113 10.125C6.52251 10.1287 5.79783 10.1925 5.13803 10.4508L5.13796 10.4508C4.99476 10.5051 4.84405 10.5743 4.72858 10.6457C4.6708 10.6814 4.62221 10.7174 4.58783 10.7522C4.57065 10.7695 4.55728 10.7863 4.54811 10.8023C4.53964 10.817 4.53508 10.8305 4.53397 10.8426L4.55682 10.8984C4.56064 10.8876 4.56603 10.877 4.57259 10.8666C4.58477 10.8472 4.60152 10.8279 4.62155 10.8087C4.66162 10.7704 4.71589 10.732 4.77603 10.6955C4.8964 10.6226 5.04165 10.5568 5.14734 10.5154L5.14737 10.5154C5.80659 10.26 6.53031 10.1925 7.21125 10.1925C7.73793 10.1877 8.26378 10.2488 8.78189 10.375L8.80963 10.3096ZM7.21128 10.1137L7.21127 10.1025C7.75204 10.1017 8.29181 10.1645 8.82431 10.2902C8.82701 10.2908 8.82931 10.2931 8.83048 10.2964C8.83164 10.2997 8.83154 10.3036 8.83019 10.3068L8.79363 10.393C8.79186 10.3972 8.7883 10.3994 8.78476 10.3985C8.26577 10.2716 7.73897 10.2102 7.21134 10.215L7.21128 10.215C6.53098 10.215 5.80909 10.2825 5.15208 10.537C5.04684 10.5782 4.90241 10.6436 4.78302 10.716C4.72328 10.7522 4.67015 10.7899 4.63138 10.827C4.61199 10.8455 4.59646 10.8636 4.58551 10.881C4.57451 10.8985 4.56864 10.9144 4.56748 10.9287C4.56709 10.9336 4.56435 10.9376 4.56074 10.9385C4.55712 10.9395 4.55345 10.9372 4.55169 10.9329L4.51794 10.8504C4.51718 10.8485 4.51683 10.8464 4.51692 10.8443C4.51776 10.8254 4.52434 10.8067 4.53472 10.7886C4.54513 10.7705 4.55976 10.7523 4.57764 10.7342C4.6134 10.6981 4.66324 10.6612 4.72148 10.6252C4.83804 10.5532 4.98965 10.4836 5.13332 10.4292C5.79539 10.17 6.52193 10.1062 7.21125 10.1025L7.21128 10.1137ZM7.18892 10.4475V10.4475C7.70085 10.4587 8.20208 10.485 8.68938 10.6052C8.69204 10.6058 8.6943 10.6081 8.69546 10.6114C8.69662 10.6147 8.69655 10.6185 8.69525 10.6216L8.6615 10.7041C8.65975 10.7084 8.65613 10.7107 8.65254 10.7098C8.20326 10.5975 7.72008 10.56 7.19159 10.56L7.19152 10.56C6.50859 10.5525 5.82321 10.6387 5.22517 10.867L5.22515 10.8671C5.13126 10.9026 5.00655 10.9605 4.90123 11.0263C4.84855 11.0592 4.80098 11.0939 4.76461 11.1285C4.72785 11.1636 4.704 11.1972 4.69647 11.2273C4.69543 11.2315 4.69267 11.2344 4.68939 11.2349C4.68611 11.2354 4.68293 11.2333 4.68123 11.2295L4.64748 11.1545C4.64643 11.1522 4.64605 11.1494 4.64642 11.1467C4.64977 11.1222 4.66539 11.0942 4.69016 11.0649C4.7153 11.0351 4.75121 11.0023 4.79761 10.9682C4.89043 10.9002 5.02607 10.8268 5.20371 10.7629C5.89104 10.5 6.53317 10.4512 7.18875 10.4475L7.18892 10.4475ZM7.18873 10.47C6.53373 10.4737 5.89341 10.5225 5.2083 10.7845L5.20817 10.7846L5.20817 10.7846C5.03146 10.8482 4.89712 10.921 4.80574 10.988C4.76003 11.0215 4.72527 11.0533 4.70137 11.0817C4.67893 11.1083 4.66716 11.1305 4.6637 11.1468L4.68744 11.1996C4.70036 11.1692 4.72447 11.1391 4.7548 11.1102C4.79234 11.0745 4.84093 11.0391 4.89407 11.0059C5.00039 10.9395 5.12598 10.8812 5.22053 10.8454C5.8206 10.6163 6.5077 10.53 7.19163 10.5375C7.71827 10.5375 8.20063 10.5747 8.64962 10.6862L8.67486 10.6245C8.19266 10.5071 7.6965 10.4811 7.18873 10.47Z" fill="black"/>
<path fill-rule="evenodd" clip-rule="evenodd" d="M9.82688 10.8938L9.60751 11.355L8.96907 10.6013L7.32095 9.12001L5.45907 7.75876L4.49438 7.32001L4.6997 6.81001L4.77001 6.76126L5.36907 6.96001L7.34907 8.32126L8.49095 9.28126L9.45001 10.2L9.84095 10.8L9.82688 10.8938Z" fill="#FFFF00"/>
<path fill-rule="evenodd" clip-rule="evenodd" d="M4.76613 6.75127C4.76796 6.75 4.77007 6.74967 4.77206 6.75033L5.37112 6.94908C5.37176 6.94929 5.37237 6.9496 5.37295 6.95L7.35295 8.31125C7.35317 8.3114 7.35338 8.31156 7.35359 8.31173L8.49546 9.27173C8.49561 9.27185 8.49575 9.27198 8.49588 9.27211L9.45495 10.1909C9.45548 10.1914 9.45596 10.192 9.45639 10.1926L9.84733 10.7926C9.84904 10.7953 9.84975 10.7988 9.84924 10.8022L9.83517 10.896C9.83497 10.8973 9.83458 10.8986 9.83402 10.8998L9.61465 11.361C9.61333 11.3638 9.61115 11.3657 9.60871 11.3661C9.60626 11.3666 9.60378 11.3656 9.60193 11.3634L8.96391 10.6102L7.31657 9.12962L5.45567 7.76908L4.49168 7.33065C4.48933 7.32958 4.48745 7.32719 4.48655 7.32412C4.48564 7.32104 4.48579 7.31759 4.48697 7.31468L4.69228 6.80468C4.69308 6.80269 4.69431 6.80106 4.69582 6.80002L4.76613 6.75127ZM4.77108 6.77319L4.70591 6.81838L4.50654 7.31363L5.46181 7.7481C5.46227 7.74831 5.46272 7.74857 5.46314 7.74889L7.32502 9.11014C7.32524 9.1103 7.32546 9.11048 7.32568 9.11067L8.9738 10.5919C8.97411 10.5922 8.9744 10.5925 8.97468 10.5928L9.6057 11.3378L9.81893 10.8895L9.83188 10.8032L9.4443 10.2084L8.48624 9.29058L7.34489 8.33103L5.36609 6.9706L4.77108 6.77319Z" fill="black"/>
<path fill-rule="evenodd" clip-rule="evenodd" d="M4.46063 7.33126C4.62938 7.18126 5.87251 7.91626 7.17751 8.96626C8.47407 10.0163 9.7172 11.2013 9.6047 11.4225L9.56813 11.5013L9.55126 11.52C9.55407 11.5163 9.57376 11.4825 9.55126 11.4038C9.49501 11.16 8.61188 10.2225 7.1522 9.04501C5.72626 7.91626 4.53938 7.23376 4.42407 7.42876L4.46063 7.33126ZM9.87188 10.89C9.97876 10.605 8.82563 9.44626 7.39407 8.31751C5.93157 7.21126 4.87407 6.55876 4.68001 6.75376L4.64063 6.86251C4.64063 6.86626 4.64063 6.85501 4.65188 6.84376C4.68563 6.80626 4.7447 6.80626 4.77001 6.80626C5.10188 6.81376 6.0497 7.39501 7.38001 8.41126C7.96501 8.86126 9.84376 10.4738 9.83532 10.9238C9.83532 10.9613 9.83813 10.9688 9.82688 10.9913L9.8747 10.8938L9.87188 10.89Z" fill="#FFFF00"/>
<path fill-rule="evenodd" clip-rule="evenodd" d="M5.5648 7.03736C6.03663 7.31462 6.66692 7.75452 7.39825 8.30771L7.39838 8.30781C8.11435 8.87234 8.76083 9.44447 9.21506 9.91124C9.44212 10.1446 9.62142 10.3519 9.73734 10.5189C9.79526 10.6024 9.8377 10.6763 9.8623 10.7387C9.88525 10.797 9.89374 10.848 9.88188 10.8878C9.88358 10.8914 9.8836 10.8962 9.88177 10.8999L9.83503 10.9952C9.83467 10.996 9.8343 10.9967 9.83392 10.9975C9.83134 11.0026 9.82613 11.004 9.82225 11.0006C9.81837 10.9972 9.8173 10.9903 9.81984 10.9851L9.81988 10.985C9.82022 10.9843 9.82054 10.9837 9.82085 10.983C9.82515 10.9741 9.82645 10.9686 9.82694 10.962C9.82724 10.958 9.82725 10.9535 9.82717 10.9472C9.82708 10.941 9.8269 10.9333 9.8269 10.9237L9.8269 10.9235C9.82738 10.8979 9.82113 10.8671 9.808 10.8313C9.79491 10.7956 9.77525 10.7556 9.74961 10.712C9.69833 10.6247 9.62376 10.5235 9.53187 10.413C9.34813 10.1919 9.0961 9.93438 8.82532 9.67665C8.28378 9.16124 7.66808 8.64581 7.37581 8.42099C6.71078 7.91297 6.14149 7.51377 5.69708 7.24068C5.47486 7.10413 5.28398 6.99918 5.12804 6.92792C4.97193 6.85659 4.85153 6.81936 4.76995 6.8175C4.75728 6.8175 4.73683 6.81752 4.71545 6.82205C4.69387 6.82661 4.67245 6.83556 4.6573 6.85239C4.65719 6.85251 4.65708 6.85263 4.65696 6.85275C4.65247 6.85724 4.65048 6.86145 4.6496 6.86378C4.64917 6.86494 4.64896 6.86576 4.64883 6.86627C4.64881 6.86636 4.6487 6.86683 4.64858 6.86722C4.64855 6.86734 4.64828 6.86828 4.6478 6.86928C4.64762 6.86965 4.6467 6.87158 4.64492 6.87296C4.64381 6.87382 4.64199 6.87476 4.63972 6.87441C4.6374 6.87406 4.63572 6.87254 4.63471 6.87118C4.63311 6.86906 4.63263 6.86668 4.63254 6.86625C4.63254 6.86623 4.63254 6.86622 4.63253 6.86621C4.63237 6.86544 4.63231 6.86481 4.63229 6.86454C4.63223 6.86398 4.63222 6.86351 4.63222 6.86337C4.63221 6.86304 4.63221 6.86265 4.63221 6.8625C4.63221 6.8608 4.6325 6.85913 4.63305 6.85761L4.67243 6.74886C4.67301 6.74724 4.67387 6.74584 4.67495 6.74476C4.70146 6.71812 4.74152 6.70697 4.79255 6.70833C4.8438 6.7097 4.90744 6.72373 4.9824 6.74935C5.13234 6.80062 5.32892 6.89875 5.5648 7.03736ZM9.84387 10.9361L9.86421 10.8946C9.86319 10.8916 9.8632 10.8881 9.86435 10.885C9.87578 10.8545 9.87119 10.8096 9.84736 10.7492C9.82377 10.6893 9.78247 10.6171 9.72495 10.5342C9.60998 10.3685 9.43156 10.1621 9.20476 9.92906C8.75126 9.46304 8.10543 8.89144 7.38986 8.32724C6.65872 7.7742 6.02903 7.33474 5.55799 7.05795C5.32242 6.91952 5.12683 6.82196 4.97821 6.77115C4.90388 6.74574 4.84164 6.73214 4.79221 6.73083C4.74373 6.72954 4.70882 6.7401 4.68671 6.76116L4.66597 6.81845C4.68081 6.80869 4.69733 6.8031 4.7128 6.79982C4.73561 6.795 4.75724 6.795 4.76991 6.795H4.77017C4.85453 6.7969 4.97704 6.83514 5.13351 6.90664C5.29019 6.97823 5.48163 7.08352 5.70414 7.22025C6.14918 7.49372 6.71894 7.89327 7.38422 8.40149C7.67695 8.62667 8.29314 9.1425 8.83512 9.65834C9.10609 9.91624 9.35873 10.1743 9.54317 10.3963C9.63537 10.5072 9.71076 10.6093 9.7629 10.6981C9.78897 10.7425 9.80937 10.7838 9.82316 10.8214C9.83689 10.8588 9.84432 10.8933 9.84378 10.9239C9.84378 10.9284 9.84382 10.9324 9.84387 10.9361ZM4.46715 7.33907L4.44591 7.39571C4.44909 7.39412 4.45242 7.39272 4.4559 7.39149C4.47236 7.38567 4.49263 7.38354 4.51623 7.38467C4.56345 7.38692 4.62556 7.40224 4.70069 7.42943C4.85105 7.48385 5.05523 7.58641 5.30007 7.73017C5.78983 8.01774 6.44335 8.47079 7.15652 9.03532L7.15658 9.03537C7.88661 9.62427 8.47256 10.1532 8.88311 10.5655C9.08837 10.7717 9.2499 10.9488 9.3637 11.0897C9.42059 11.1602 9.46568 11.2217 9.49836 11.2735C9.53073 11.3247 9.55162 11.3673 9.55926 11.4001C9.5681 11.4311 9.57074 11.456 9.57032 11.4752L9.59772 11.4162C9.6031 11.4056 9.60491 11.3914 9.60197 11.3722C9.59901 11.353 9.59134 11.3297 9.57872 11.3024C9.5535 11.2479 9.50968 11.1802 9.44934 11.101C9.32877 10.943 9.14378 10.7417 8.91448 10.5142C8.45597 10.0593 7.82129 9.50075 7.17315 8.97586C6.52089 8.45106 5.88417 8.00504 5.38954 7.70901C5.14219 7.56098 4.93058 7.45057 4.77042 7.38655C4.69031 7.35453 4.62335 7.33424 4.57139 7.32655C4.5454 7.32271 4.5234 7.32205 4.50551 7.32454C4.48871 7.32688 4.47606 7.33191 4.46715 7.33907ZM4.46065 7.33125L4.45597 7.32189C4.46809 7.31111 4.48435 7.30486 4.50376 7.30216C4.52325 7.29945 4.54654 7.30024 4.57325 7.30419C4.62666 7.31209 4.69471 7.3328 4.77526 7.365C4.93643 7.42942 5.1488 7.54027 5.39645 7.68848C5.89181 7.98495 6.52915 8.43143 7.18188 8.95661C7.83031 9.48173 8.46549 10.0407 8.92455 10.4961C9.15404 10.7238 9.33977 10.9258 9.46117 11.085C9.52181 11.1645 9.56678 11.2338 9.59308 11.2906C9.60622 11.319 9.61498 11.3448 9.6185 11.3677C9.62203 11.3907 9.6204 11.4116 9.6118 11.4286L9.57532 11.5072C9.57485 11.5082 9.57425 11.5091 9.57355 11.5099L9.55668 11.5286C9.55321 11.5325 9.54809 11.532 9.54504 11.5276C9.542 11.5231 9.54212 11.5163 9.54531 11.512C9.54537 11.512 9.54661 11.5101 9.54812 11.5062C9.54963 11.5023 9.55137 11.4963 9.55246 11.4881C9.55461 11.4716 9.5542 11.4456 9.54339 11.4078C9.54332 11.4075 9.54327 11.4073 9.54321 11.4071C9.53671 11.3789 9.51774 11.3391 9.48546 11.288C9.45338 11.2372 9.40884 11.1763 9.35222 11.1062C9.239 10.966 9.07797 10.7894 8.87296 10.5835C8.46297 10.1718 7.87752 9.64324 7.14788 9.05465C6.43512 8.49045 5.78224 8.03787 5.29327 7.75076C5.04873 7.60718 4.84544 7.50513 4.69627 7.45115C4.62164 7.42414 4.56096 7.40931 4.51563 7.40716C4.49297 7.40608 4.47451 7.40818 4.46023 7.41324C4.44594 7.41829 4.43642 7.42606 4.43071 7.43571C4.42803 7.44024 4.42322 7.44134 4.41957 7.43824C4.41591 7.43515 4.41461 7.42888 4.41654 7.42372L4.4531 7.32622L4.46065 7.33125Z" fill="black"/>
<path d="M5.41803 9.4413C5.41847 9.7518 5.46511 10.0591 5.55522 10.3454C5.64534 10.6317 5.77715 10.8914 5.94303 11.1093C6.10689 11.3311 6.30205 11.5076 6.51727 11.6284C6.73249 11.7492 6.96352 11.8121 7.19704 11.8133C7.66964 11.8133 8.12287 11.5629 8.45704 11.1173C8.62233 10.8982 8.75354 10.6377 8.84312 10.3507C8.9327 10.0638 8.97889 9.75609 8.97904 9.4453V6.27729L5.41803 6.26929V9.4413Z" fill="white"/>
<path fill-rule="evenodd" clip-rule="evenodd" d="M5.40753 6.25525L8.98954 6.2633V9.44528C8.98939 9.75792 8.94292 10.0675 8.85281 10.3561C8.7627 10.6447 8.63073 10.9068 8.46446 11.1272C8.46445 11.1272 8.46446 11.1272 8.46446 11.1272M5.93561 11.1192C6.10043 11.3423 6.29673 11.5197 6.5132 11.6413C6.7297 11.7628 6.96209 11.826 7.19699 11.8273H7.19704C7.67242 11.8272 8.12832 11.5754 8.46446 11.1272M5.93561 11.1192C5.76877 10.9 5.63619 10.6388 5.54554 10.3508C5.45489 10.0628 5.40798 9.75366 5.40753 9.44131L5.40753 6.25525M5.42853 9.44127C5.42898 9.74992 5.47533 10.0554 5.56491 10.34C5.65449 10.6246 5.78551 10.8827 5.9504 11.0993L5.95052 11.0995C6.1134 11.32 6.3074 11.4954 6.52135 11.6155C6.73529 11.7356 6.96495 11.798 7.19708 11.7993C7.66688 11.7992 8.11743 11.5503 8.44962 11.1074L8.44964 11.1074C8.61395 10.8895 8.74438 10.6306 8.83343 10.3453C8.92247 10.0601 8.96839 9.75423 8.96854 9.44527V6.29125L5.42853 6.2833V9.44127Z" fill="black"/>
<path d="M5.48401 9.44527C5.48464 9.74312 5.5295 10.0379 5.61601 10.3125C5.70251 10.5871 5.82894 10.8361 5.98801 11.0453C6.30741 11.4734 6.74113 11.715 7.19401 11.7173C7.6461 11.7176 8.07982 11.4788 8.40002 11.0533C8.55854 10.8438 8.68442 10.5946 8.7704 10.32C8.85639 10.0454 8.90078 9.75084 8.90102 9.45327V6.37326H5.49001V9.44527M8.22002 7.29726V9.25327L8.21702 9.45727C8.21803 9.63597 8.19198 9.8131 8.14043 9.97806C8.08888 10.143 8.01289 10.2924 7.91702 10.4173C7.72624 10.6725 7.46728 10.8164 7.19701 10.8173C6.91501 10.8173 6.66601 10.6573 6.48001 10.4093C6.28857 10.1549 6.18067 9.80963 6.18001 9.44927V7.28926L8.22002 7.29726Z" fill="#FF0000"/>
<path fill-rule="evenodd" clip-rule="evenodd" d="M5.48256 6.36328H8.90857V9.45329C8.90833 9.75218 8.86374 10.0481 8.77738 10.3239C8.69102 10.5997 8.56459 10.85 8.40537 11.0604C8.08376 11.4878 7.64814 11.7276 7.19406 11.7273C6.7392 11.7251 6.30356 11.4823 5.98276 11.0524C5.82301 10.8423 5.69603 10.5922 5.60915 10.3164C5.52226 10.0405 5.4772 9.74449 5.47656 9.44532L5.48406 9.44529H5.48256V6.36328ZM5.49156 9.44529C5.4922 9.74181 5.53686 10.0352 5.62298 10.3086C5.7091 10.582 5.83497 10.83 5.99333 11.0382L5.99338 11.0382C6.31138 11.4645 6.7432 11.7051 7.1941 11.7073C7.64419 11.7076 8.07599 11.4699 8.39478 11.0462C8.5526 10.8377 8.67793 10.5896 8.76354 10.3162C8.84914 10.0428 8.89333 9.74953 8.89357 9.45328V6.38328H5.49756V9.44529H5.49156ZM6.17256 7.27925L8.22757 7.28731V9.25329L8.22757 9.25349L8.22457 9.45722C8.22457 9.45726 8.22457 9.4573 8.22457 9.45735C8.22558 9.63735 8.19933 9.81577 8.14741 9.98192C8.09548 10.1481 8.01893 10.2986 7.92234 10.4244C7.73017 10.6815 7.46932 10.8264 7.19709 10.8273C6.91286 10.8273 6.662 10.666 6.47477 10.4164C6.28192 10.1601 6.17323 9.81232 6.17256 9.44932V7.27925ZM6.18756 7.29931V9.44927C6.18822 9.80697 6.29533 10.1497 6.48536 10.4022C6.67013 10.6486 6.91728 10.8073 7.19705 10.8073C7.46533 10.8064 7.72238 10.6636 7.91176 10.4102L7.91183 10.4101C8.00698 10.2862 8.0824 10.1379 8.13356 9.97423C8.18472 9.81052 8.21057 9.63472 8.20957 9.45737L8.20957 9.45709L8.21257 9.25329V7.30725L6.18756 7.29931Z" fill="black"/>
<path d="M5.70599 7.17727C5.70899 6.95727 5.82599 6.90527 5.82599 6.90527C5.82899 6.90527 5.95499 6.96127 5.95499 7.18127H5.70599" fill="#FFFF00"/>
<path d="M5.60403 6.90927L5.58303 7.16127H5.70903C5.70903 6.95327 5.82903 6.92127 5.82903 6.92127C5.83203 6.92127 5.94903 6.96527 5.95203 7.16127H6.07803L6.05403 6.90527H5.60403V6.90927ZM5.57403 7.16527H6.08403C6.09303 7.16527 6.10203 7.17727 6.10203 7.19327C6.10203 7.21327 6.09303 7.22527 6.08403 7.22527H5.57403C5.56503 7.22527 5.55603 7.21327 5.55603 7.19327C5.55603 7.17727 5.56503 7.16527 5.57703 7.16527H5.57403Z" fill="#FFFF00"/>
<path fill-rule="evenodd" clip-rule="evenodd" d="M5.59652 6.89526H6.06065L6.08502 7.15529C6.09845 7.15611 6.10952 7.17325 6.10952 7.19326C6.10952 7.21682 6.0985 7.23526 6.08402 7.23526H5.57402C5.55954 7.23526 5.54852 7.21682 5.54852 7.19326C5.54852 7.1731 5.55937 7.15736 5.57402 7.15546V7.15526H5.57598L5.59652 6.90871V6.89526ZM5.61107 6.91526L5.5914 7.15126H5.70162C5.70348 7.05036 5.73351 6.99039 5.76417 6.95564C5.77988 6.93784 5.79559 6.92684 5.80739 6.92028C5.81116 6.91819 5.81455 6.91654 5.81742 6.91526H5.61107ZM5.82902 6.92126C5.82863 6.91861 5.82834 6.91668 5.82812 6.91526L5.82902 6.92126ZM5.83999 6.91526C5.84339 6.91692 5.84756 6.91918 5.85228 6.92216C5.86424 6.92967 5.87987 6.94179 5.8955 6.96028C5.92591 6.99626 5.95594 7.05598 5.95928 7.15126H6.06953L6.0474 6.91526H5.83999ZM5.94439 7.15526C5.9418 7.06397 5.91349 7.00831 5.88555 6.97524C5.87118 6.95824 5.85681 6.94711 5.84589 6.94025C5.84043 6.93682 5.83586 6.93447 5.83263 6.933C5.83111 6.93231 5.82991 6.93183 5.82907 6.93152C5.82831 6.93177 5.82727 6.93214 5.82598 6.93264C5.82293 6.93383 5.8185 6.93578 5.81316 6.93874C5.80246 6.94469 5.78817 6.95469 5.77388 6.97088C5.7461 7.00236 5.71768 7.05795 5.71656 7.15526H5.94439ZM5.57702 7.17526C5.56917 7.17526 5.56352 7.18279 5.56352 7.19326C5.56352 7.20971 5.5705 7.21526 5.57402 7.21526H6.08402C6.08755 7.21526 6.09452 7.20971 6.09452 7.19326C6.09452 7.18177 6.08816 7.17526 6.08402 7.17526H5.57702Z" fill="black"/>
<path d="M5.75999 7.16127C5.75999 7.02927 5.82899 6.99327 5.82899 6.99327C5.82899 6.99327 5.89799 7.03327 5.89799 7.16127H5.75999ZM5.58599 6.80127H6.07499C6.08399 6.80127 6.09299 6.81727 6.09299 6.83327C6.09299 6.84527 6.08399 6.85727 6.07499 6.85727H5.58599C5.57699 6.85727 5.56799 6.84527 5.56799 6.82927C5.56799 6.81727 5.57699 6.80527 5.58599 6.80527V6.80127ZM5.77199 7.22128H6.05999C6.06899 7.22128 6.07799 7.23328 6.07799 7.24928C6.07799 7.26528 6.06899 7.27728 6.05999 7.27728H5.59499C5.58299 7.27728 5.57699 7.26528 5.57699 7.24928C5.57699 7.23328 5.58299 7.22128 5.59499 7.22128H5.77199ZM5.92199 6.79727H5.95799V6.82927H5.98499V6.79727H6.02399V6.83327H6.05099V6.79327H6.08699V6.87327C6.08699 6.88927 6.08099 6.89727 6.07199 6.89727H5.93999C5.93099 6.89727 5.92199 6.88927 5.92199 6.87727V6.79727ZM6.05999 6.90527L6.06899 7.16127H5.93999L5.94899 6.90127H6.05999" fill="#FFFF00"/>
<path fill-rule="evenodd" clip-rule="evenodd" d="M6.04355 6.78326H6.09455V6.80739C6.09817 6.81466 6.10055 6.82384 6.10055 6.83326C6.10055 6.8412 6.09805 6.84852 6.09455 6.85417V6.87326C6.09455 6.88282 6.09276 6.89147 6.08857 6.89785C6.08426 6.90441 6.07829 6.90726 6.07205 6.90726H6.06763L6.07691 7.17127H5.93219L5.94133 6.90726H5.94005C5.93397 6.90726 5.92783 6.9046 5.92307 6.89966C5.91822 6.89463 5.91455 6.88691 5.91455 6.87726V6.86726H5.58605C5.57218 6.86726 5.56055 6.84977 5.56055 6.82926C5.56055 6.82001 5.56394 6.8116 5.56837 6.80569C5.57113 6.80201 5.57462 6.79887 5.57855 6.79702V6.79126H5.91455V6.78726H5.96555V6.79126H5.97755V6.78726H6.03155V6.79126H6.04355V6.78326ZM6.04355 6.81126H6.03155V6.82326H6.04355V6.81126ZM6.01655 6.81126V6.84326H6.05855V6.81126H6.07505C6.07596 6.81126 6.07764 6.81202 6.07955 6.81443V6.84539C6.07797 6.84665 6.07638 6.84726 6.07505 6.84726H5.92955V6.81126H5.95055V6.83926H5.99255V6.81126H6.01655ZM5.97755 6.81126H5.96555V6.81926H5.97755V6.81126ZM5.91455 6.81126H5.59355V6.81526H5.58605C5.58399 6.81526 5.5813 6.81674 5.57898 6.81984C5.57665 6.82293 5.57555 6.82652 5.57555 6.82926C5.57555 6.84076 5.58191 6.84726 5.58605 6.84726H5.91455V6.81126ZM5.92955 6.86726V6.87726C5.92955 6.87962 5.93037 6.88189 5.93228 6.88387C5.93426 6.88593 5.93712 6.88726 5.94005 6.88726H6.07205C6.0748 6.88726 6.07633 6.88612 6.07728 6.88468C6.07834 6.88306 6.07955 6.87971 6.07955 6.87326V6.86663C6.07809 6.86704 6.07658 6.86726 6.07505 6.86726H5.92955ZM5.95621 6.91126L5.9479 7.15127H6.06119L6.05275 6.91126H5.95621ZM5.83204 6.98409L5.82905 6.99326L5.82631 6.98395L5.8292 6.98245L5.83204 6.98409ZM5.82891 7.00436C5.82726 7.00548 5.82498 7.00713 5.82227 7.00941C5.81627 7.01445 5.80821 7.02251 5.80012 7.03446C5.78492 7.05693 5.76932 7.09364 5.76769 7.15127H5.8904C5.88872 7.09557 5.87318 7.05888 5.85793 7.03589C5.84981 7.02365 5.8417 7.0152 5.83567 7.00984C5.8329 7.00738 5.83058 7.00558 5.82891 7.00436ZM5.82631 6.98395C5.82632 6.98395 5.82631 6.98395 5.82905 6.99326C5.83204 6.98409 5.83203 6.98409 5.83204 6.98409L5.83208 6.98412L5.83215 6.98416L5.83236 6.98429C5.83254 6.9844 5.83278 6.98454 5.83307 6.98473C5.83367 6.98512 5.83451 6.98567 5.83555 6.98641C5.83763 6.98789 5.84053 6.99012 5.84399 6.99319C5.8509 6.99933 5.86004 7.00888 5.86917 7.02264C5.88752 7.0503 5.90555 7.09461 5.90555 7.16127V7.17127H5.75255V7.16127C5.75255 7.09268 5.77054 7.04832 5.78898 7.02107C5.79814 7.00752 5.80732 6.99833 5.81427 6.99249C5.81774 6.98957 5.82067 6.98748 5.82276 6.9861C5.82381 6.98541 5.82465 6.9849 5.82526 6.98455C5.82556 6.98437 5.8258 6.98423 5.82598 6.98413L5.8262 6.98402L5.82627 6.98398L5.82631 6.98395ZM5.5874 7.23551C5.58577 7.23823 5.58455 7.24279 5.58455 7.24927C5.58455 7.25574 5.58577 7.2603 5.5874 7.26302C5.58886 7.26544 5.59112 7.26727 5.59505 7.26727H6.06005C6.06418 7.26727 6.07055 7.26076 6.07055 7.24927C6.07055 7.23777 6.06418 7.23127 6.06005 7.23127H5.59505C5.59112 7.23127 5.58886 7.23309 5.5874 7.23551ZM5.57569 7.22302C5.58024 7.21544 5.58697 7.21127 5.59505 7.21127H6.06005C6.07391 7.21127 6.08555 7.22876 6.08555 7.24927C6.08555 7.26977 6.07391 7.28727 6.06005 7.28727H5.59505C5.58697 7.28727 5.58024 7.28309 5.57569 7.27551C5.57132 7.26823 5.56955 7.25879 5.56955 7.24927C5.56955 7.23974 5.57132 7.2303 5.57569 7.22302Z" fill="black"/>
<path d="M5.73005 6.66528V6.80128H5.61005V6.66528H5.73005Z" fill="#FFFF00"/>
<path fill-rule="evenodd" clip-rule="evenodd" d="M5.60254 6.65527H5.73754V6.81127H5.60254V6.65527ZM5.61754 6.67527V6.79127H5.72254V6.67527H5.61754Z" fill="black"/>
<path d="M5.58905 6.56128H5.62505V6.60128H5.65205V6.56128H5.68805V6.60128H5.71505V6.56128H5.75105V6.64128C5.75105 6.65728 5.74505 6.66528 5.73605 6.66528H5.60705C5.60228 6.66528 5.5977 6.66275 5.59432 6.65825C5.59095 6.65375 5.58905 6.64764 5.58905 6.64128V6.56128Z" fill="#FFFF00"/>
<path fill-rule="evenodd" clip-rule="evenodd" d="M5.59654 6.57127V6.64127C5.59654 6.64498 5.59765 6.64854 5.59962 6.65117C5.60159 6.6538 5.60426 6.65527 5.60704 6.65527H5.73604C5.7388 6.65527 5.74033 6.65413 5.74127 6.65268C5.74233 6.65107 5.74354 6.64771 5.74354 6.64127V6.57127H5.72254V6.61127H5.68054V6.57127H5.65954V6.61127H5.61754V6.57127H5.59654ZM5.58904 6.56127V6.55127H5.63254V6.59127H5.64454V6.55127H5.69554V6.59127H5.70754V6.55127H5.75854V6.64127C5.75854 6.65083 5.75675 6.65947 5.75256 6.66585C5.74826 6.67241 5.74229 6.67527 5.73604 6.67527H5.60704C5.60028 6.67527 5.59379 6.67169 5.58901 6.66531C5.58423 6.65894 5.58154 6.65029 5.58154 6.64127V6.56127H5.58904Z" fill="black"/>
<path d="M5.81702 6.62527C5.81702 6.60127 5.84402 6.60127 5.84402 6.62527V6.68927H5.81702V6.62527Z" fill="black"/>
<path d="M5.65802 6.71328C5.65802 6.68928 5.68202 6.68928 5.68202 6.71328V6.76128H5.65802V6.71328Z" fill="black"/>
<path d="M6.97804 9.09728C6.97749 9.18171 7.00109 9.26324 7.04404 9.32529C7.06407 9.35516 7.08856 9.37912 7.11594 9.39565C7.14332 9.41218 7.17298 9.42091 7.20304 9.42129C7.26604 9.42129 7.32304 9.38129 7.36204 9.32529C7.40498 9.26324 7.42858 9.18171 7.42804 9.09728V8.66528H6.97804V9.09728Z" fill="#003399"/>
<path d="M7.08302 8.88929C7.10788 8.88929 7.12803 8.86242 7.12803 8.82929C7.12803 8.79615 7.10788 8.76929 7.08302 8.76929C7.05817 8.76929 7.03802 8.79615 7.03802 8.82929C7.03802 8.86242 7.05817 8.88929 7.08302 8.88929Z" fill="white"/>
<path d="M7.33205 8.88929C7.3569 8.88929 7.37705 8.86242 7.37705 8.82929C7.37705 8.79615 7.3569 8.76929 7.33205 8.76929C7.3072 8.76929 7.28705 8.79615 7.28705 8.82929C7.28705 8.86242 7.3072 8.88929 7.33205 8.88929Z" fill="white"/>
<path d="M7.20601 9.04929C7.23086 9.04929 7.25101 9.02243 7.25101 8.98929C7.25101 8.95615 7.23086 8.92929 7.20601 8.92929C7.18116 8.92929 7.16101 8.95615 7.16101 8.98929C7.16101 9.02243 7.18116 9.04929 7.20601 9.04929Z" fill="white"/>
<path d="M7.08302 9.21729C7.10788 9.21729 7.12803 9.19043 7.12803 9.15729C7.12803 9.12415 7.10788 9.09729 7.08302 9.09729C7.05817 9.09729 7.03802 9.12415 7.03802 9.15729C7.03802 9.19043 7.05817 9.21729 7.08302 9.21729Z" fill="white"/>
<path d="M7.33205 9.21729C7.3569 9.21729 7.37705 9.19043 7.37705 9.15729C7.37705 9.12415 7.3569 9.09729 7.33205 9.09729C7.3072 9.09729 7.28705 9.12415 7.28705 9.15729C7.28705 9.19043 7.3072 9.21729 7.33205 9.21729Z" fill="white"/>
</g>
<defs>
<clipPath id="clip0_10_2326">
<rect width="18" height="18" rx="2" fill="white"/>
</clipPath>
</defs>
</svg>
