<svg width="374" height="265" viewBox="0 0 374 265" fill="none" xmlns="http://www.w3.org/2000/svg">
<rect width="374" height="265" rx="10" fill="#2E3665"/>
<rect width="22" height="6" rx="2" transform="matrix(-1 0 0 1 275 21)" fill="#6387C8"/>
<rect width="22" height="6" rx="2" transform="matrix(-1 0 0 1 249 21)" fill="#6387C8"/>
<rect width="22" height="6" rx="2" transform="matrix(-1 0 0 1 223 21)" fill="#6387C8"/>
<rect width="22" height="6" rx="2" transform="matrix(-1 0 0 1 197 21)" fill="#6387C8"/>
<rect width="22" height="6" rx="2" transform="matrix(-1 0 0 1 170 21)" fill="#6387C8"/>
<rect width="22" height="6" rx="2" transform="matrix(-1 0 0 1 144 21)" fill="#6387C8"/>
<rect width="22" height="6" rx="2" transform="matrix(-1 0 0 1 118 21)" fill="#6387C8"/>
<rect width="22" height="6" rx="2" transform="matrix(-1 0 0 1 91 21)" fill="#6387C8"/>
<rect width="22" height="6" rx="2" transform="matrix(-1 0 0 1 301 39)" fill="#6387C8"/>
<rect width="22" height="6" rx="2" transform="matrix(-1 0 0 1 275 39)" fill="#6387C8"/>
<rect width="23" height="6" rx="2" transform="matrix(-1 0 0 1 249 39)" fill="#6387C8"/>
<rect width="22" height="6" rx="2" transform="matrix(-1 0 0 1 222 39)" fill="#6387C8"/>
<rect width="22" height="6" rx="2" transform="matrix(-1 0 0 1 196 39)" fill="#6387C8"/>
<rect width="22" height="6" rx="2" transform="matrix(-1 0 0 1 170 39)" fill="#6387C8"/>
<rect width="22" height="6" rx="2" transform="matrix(-1 0 0 1 143 39)" fill="#6387C8"/>
<rect width="22" height="6" rx="2" transform="matrix(-1 0 0 1 117 39)" fill="#6387C8"/>
<rect width="22" height="6" rx="2" transform="matrix(-1 0 0 1 91 39)" fill="#6387C8"/>
<rect width="22" height="6" rx="2" transform="matrix(-1 0 0 1 301 57)" fill="#6387C8"/>
<rect width="22" height="6" rx="2" transform="matrix(-1 0 0 1 275 57)" fill="#6387C8"/>
<rect width="22" height="6" rx="2" transform="matrix(-1 0 0 1 249 57)" fill="#6387C8"/>
<rect width="22" height="6" rx="2" transform="matrix(-1 0 0 1 223 57)" fill="#6387C8"/>
<rect width="22" height="6" rx="2" transform="matrix(-1 0 0 1 196 57)" fill="#6387C8"/>
<rect width="22" height="6" rx="2" transform="matrix(-1 0 0 1 170 57)" fill="#6387C8"/>
<rect width="22" height="6" rx="2" transform="matrix(-1 0 0 1 144 57)" fill="#6387C8"/>
<rect width="22" height="6" rx="2" transform="matrix(-1 0 0 1 117 57)" fill="#6387C8"/>
<rect width="22" height="6" rx="2" transform="matrix(-1 0 0 1 91 57)" fill="#6387C8"/>
<rect width="22" height="6" rx="2" transform="matrix(-1 0 0 1 354 75)" fill="#6387C8"/>
<rect width="22" height="6" rx="2" transform="matrix(-1 0 0 1 328 75)" fill="#6387C8"/>
<rect width="22" height="6" rx="2" transform="matrix(-1 0 0 1 301 75)" fill="#6387C8"/>
<rect width="22" height="6" rx="2" transform="matrix(-1 0 0 1 275 75)" fill="#6387C8"/>
<rect width="22" height="6" rx="2" transform="matrix(-1 0 0 1 249 75)" fill="#6387C8"/>
<rect width="22" height="6" rx="2" transform="matrix(-1 0 0 1 222 75)" fill="#6387C8"/>
<rect width="22" height="6" rx="2" transform="matrix(-1 0 0 1 196 75)" fill="#6387C8"/>
<rect width="22" height="6" rx="2" transform="matrix(-1 0 0 1 170 75)" fill="#6387C8"/>
<rect width="22" height="6" rx="2" transform="matrix(-1 0 0 1 144 75)" fill="#6387C8"/>
<rect width="22" height="6" rx="2" transform="matrix(-1 0 0 1 117 75)" fill="#6387C8"/>
<rect width="22" height="6" rx="2" transform="matrix(-1 0 0 1 91 75)" fill="#6387C8"/>
<rect width="22" height="6" rx="2" transform="matrix(-1 0 0 1 328 93)" fill="#6387C8"/>
<rect width="22" height="6" rx="2" transform="matrix(-1 0 0 1 302 93)" fill="#6387C8"/>
<rect width="22" height="6" rx="2" transform="matrix(-1 0 0 1 275 93)" fill="#6387C8"/>
<rect width="22" height="6" rx="2" transform="matrix(-1 0 0 1 249 93)" fill="#6387C8"/>
<rect width="22" height="6" rx="2" transform="matrix(-1 0 0 1 223 93)" fill="#6387C8"/>
<rect width="22" height="6" rx="2" transform="matrix(-1 0 0 1 196 93)" fill="#6387C8"/>
<rect width="22" height="6" rx="2" transform="matrix(-1 0 0 1 170 93)" fill="#6387C8"/>
<rect width="22" height="6" rx="2" transform="matrix(-1 0 0 1 144 93)" fill="#6387C8"/>
<rect width="22" height="6" rx="2" transform="matrix(-1 0 0 1 118 93)" fill="#6387C8"/>
<rect width="22" height="6" rx="2" transform="matrix(-1 0 0 1 91 93)" fill="#6387C8"/>
<rect width="22" height="6" rx="2" transform="matrix(-1 0 0 1 328 111)" fill="#6387C8"/>
<rect width="22" height="6" rx="2" transform="matrix(-1 0 0 1 302 111)" fill="#6387C8"/>
<rect width="22" height="6" rx="2" transform="matrix(-1 0 0 1 275 111)" fill="#6387C8"/>
<rect width="22" height="6" rx="2" transform="matrix(-1 0 0 1 249 111)" fill="#6387C8"/>
<rect width="22" height="6" rx="2" transform="matrix(-1 0 0 1 223 111)" fill="#6387C8"/>
<rect width="22" height="6" rx="2" transform="matrix(-1 0 0 1 196 111)" fill="#6387C8"/>
<rect width="22" height="6" rx="2" transform="matrix(-1 0 0 1 170 111)" fill="#6387C8"/>
<rect width="22" height="6" rx="2" transform="matrix(-1 0 0 1 144 111)" fill="#6387C8"/>
<rect width="22" height="6" rx="2" transform="matrix(-1 0 0 1 118 111)" fill="#6387C8"/>
<rect width="22" height="6" rx="2" transform="matrix(-1 0 0 1 91 111)" fill="#6387C8"/>
<rect width="22" height="6" rx="2" transform="matrix(-1 0 0 1 354 129)" fill="#6387C8"/>
<rect width="22" height="6" rx="2" transform="matrix(-1 0 0 1 328 129)" fill="#6387C8"/>
<rect width="22" height="6" rx="2" transform="matrix(-1 0 0 1 301 129)" fill="#6387C8"/>
<rect width="22" height="6" rx="2" transform="matrix(-1 0 0 1 275 129)" fill="#6387C8"/>
<rect width="22" height="6" rx="2" transform="matrix(-1 0 0 1 249 129)" fill="#6387C8"/>
<rect width="22" height="6" rx="2" transform="matrix(-1 0 0 1 222 129)" fill="#6387C8"/>
<rect width="22" height="6" rx="2" transform="matrix(-1 0 0 1 196 129)" fill="#6387C8"/>
<rect width="22" height="6" rx="2" transform="matrix(-1 0 0 1 170 129)" fill="#6387C8"/>
<rect width="22" height="6" rx="2" transform="matrix(-1 0 0 1 144 129)" fill="#6387C8"/>
<rect width="22" height="6" rx="2" transform="matrix(-1 0 0 1 117 129)" fill="#6387C8"/>
<rect width="22" height="6" rx="2" transform="matrix(-1 0 0 1 91 129)" fill="#6387C8"/>
<rect width="22" height="6" rx="2" transform="matrix(-1 0 0 1 354 147)" fill="#6387C8"/>
<rect width="22" height="6" rx="2" transform="matrix(-1 0 0 1 328 147)" fill="#6387C8"/>
<rect width="22" height="6" rx="2" transform="matrix(-1 0 0 1 301 147)" fill="#6387C8"/>
<rect width="22" height="6" rx="2" transform="matrix(-1 0 0 1 275 147)" fill="#6387C8"/>
<rect width="22" height="6" rx="2" transform="matrix(-1 0 0 1 249 147)" fill="#6387C8"/>
<rect width="22" height="6" rx="2" transform="matrix(-1 0 0 1 222 147)" fill="#6387C8"/>
<rect width="22" height="6" rx="2" transform="matrix(-1 0 0 1 196 147)" fill="#6387C8"/>
<rect width="22" height="6" rx="2" transform="matrix(-1 0 0 1 170 147)" fill="#6387C8"/>
<rect width="22" height="6" rx="2" transform="matrix(-1 0 0 1 144 147)" fill="#6387C8"/>
<rect width="22" height="6" rx="2" transform="matrix(-1 0 0 1 117 147)" fill="#6387C8"/>
<rect width="22" height="6" rx="2" transform="matrix(-1 0 0 1 91 147)" fill="#6387C8"/>
<rect width="22" height="6" rx="2" transform="matrix(-1 0 0 1 275 165)" fill="#6387C8"/>
<rect width="22" height="6" rx="2" transform="matrix(-1 0 0 1 249 165)" fill="#6387C8"/>
<rect width="22" height="6" rx="2" transform="matrix(-1 0 0 1 222 165)" fill="#6387C8"/>
<rect width="22" height="6" rx="2" transform="matrix(-1 0 0 1 196 165)" fill="#6387C8"/>
<rect width="22" height="6" rx="2" transform="matrix(-1 0 0 1 170 165)" fill="#6387C8"/>
<rect width="22" height="6" rx="2" transform="matrix(-1 0 0 1 143 165)" fill="#6387C8"/>
<rect width="22" height="6" rx="2" transform="matrix(-1 0 0 1 117 165)" fill="#6387C8"/>
<rect width="22" height="6" rx="2" transform="matrix(-1 0 0 1 91 165)" fill="#6387C8"/>
<rect width="22" height="6" rx="2" transform="matrix(-1 0 0 1 275 183)" fill="#6387C8"/>
<rect width="22" height="6" rx="2" transform="matrix(-1 0 0 1 249 183)" fill="#6387C8"/>
<rect width="22" height="6" rx="2" transform="matrix(-1 0 0 1 222 183)" fill="#6387C8"/>
<rect width="22" height="6" rx="2" transform="matrix(-1 0 0 1 196 183)" fill="#6387C8"/>
<rect width="22" height="6" rx="2" transform="matrix(-1 0 0 1 170 183)" fill="#6387C8"/>
<rect width="22" height="6" rx="2" transform="matrix(-1 0 0 1 143 183)" fill="#6387C8"/>
<rect width="22" height="6" rx="2" transform="matrix(-1 0 0 1 117 183)" fill="#6387C8"/>
<rect width="22" height="6" rx="2" transform="matrix(-1 0 0 1 91 183)" fill="#6387C8"/>
<rect width="22" height="6" rx="2" transform="matrix(-1 0 0 1 354 201)" fill="#6387C8"/>
<rect width="22" height="6" rx="2" transform="matrix(-1 0 0 1 328 201)" fill="#6387C8"/>
<rect width="22" height="6" rx="2" transform="matrix(-1 0 0 1 301 201)" fill="#6387C8"/>
<rect width="22" height="6" rx="2" transform="matrix(-1 0 0 1 275 201)" fill="#6387C8"/>
<rect width="22" height="6" rx="2" transform="matrix(-1 0 0 1 249 201)" fill="#6387C8"/>
<rect width="22" height="6" rx="2" transform="matrix(-1 0 0 1 222 201)" fill="#6387C8"/>
<rect width="22" height="6" rx="2" transform="matrix(-1 0 0 1 196 201)" fill="#6387C8"/>
<rect width="22" height="6" rx="2" transform="matrix(-1 0 0 1 170 201)" fill="#6387C8"/>
<rect width="22" height="6" rx="2" transform="matrix(-1 0 0 1 144 201)" fill="#6387C8"/>
<rect width="22" height="6" rx="2" transform="matrix(-1 0 0 1 117 201)" fill="#6387C8"/>
<rect width="22" height="6" rx="2" transform="matrix(-1 0 0 1 91 201)" fill="#6387C8"/>
<rect width="22" height="6" rx="2" transform="matrix(-1 0 0 1 354 219)" fill="#6387C8"/>
<rect width="22" height="6" rx="2" transform="matrix(-1 0 0 1 328 219)" fill="#6387C8"/>
<rect width="22" height="6" rx="2" transform="matrix(-1 0 0 1 301 219)" fill="#6387C8"/>
<rect width="22" height="6" rx="2" transform="matrix(-1 0 0 1 275 219)" fill="#6387C8"/>
<rect width="22" height="6" rx="2" transform="matrix(-1 0 0 1 249 219)" fill="#6387C8"/>
<rect width="22" height="6" rx="2" transform="matrix(-1 0 0 1 222 219)" fill="#6387C8"/>
<rect width="22" height="6" rx="2" transform="matrix(-1 0 0 1 196 219)" fill="#6387C8"/>
<rect width="22" height="6" rx="2" transform="matrix(-1 0 0 1 170 219)" fill="#6387C8"/>
<rect width="22" height="6" rx="2" transform="matrix(-1 0 0 1 144 219)" fill="#6387C8"/>
<rect width="22" height="6" rx="2" transform="matrix(-1 0 0 1 117 219)" fill="#6387C8"/>
<rect width="22" height="6" rx="2" transform="matrix(-1 0 0 1 91 219)" fill="#6387C8"/>
<rect width="22" height="6" rx="2" transform="matrix(-1 0 0 1 275 237)" fill="#6387C8"/>
<rect width="22" height="6" rx="2" transform="matrix(-1 0 0 1 249 237)" fill="#6387C8"/>
<rect width="22" height="6" rx="2" transform="matrix(-1 0 0 1 222 237)" fill="#6387C8"/>
<rect width="22" height="6" rx="2" transform="matrix(-1 0 0 1 196 237)" fill="#6387C8"/>
<rect width="22" height="6" rx="2" transform="matrix(-1 0 0 1 170 237)" fill="#6387C8"/>
<rect width="23" height="6" rx="2" transform="matrix(-1 0 0 1 144 237)" fill="#6387C8"/>
<rect width="22" height="6" rx="2" transform="matrix(-1 0 0 1 117 237)" fill="#6387C8"/>
<rect width="22" height="6" rx="2" transform="matrix(-1 0 0 1 91 237)" fill="#6387C8"/>
<rect x="12" y="9" width="44" height="21" rx="5" fill="#151936"/>
<path d="M25.112 22.08C24.7173 22.08 24.3307 22.024 23.952 21.912C23.5787 21.7947 23.264 21.6347 23.008 21.432L23.456 20.624C23.6587 20.7893 23.904 20.9227 24.192 21.024C24.48 21.1253 24.7813 21.176 25.096 21.176C25.4693 21.176 25.76 21.1013 25.968 20.952C26.176 20.7973 26.28 20.5893 26.28 20.328C26.28 20.072 26.184 19.8693 25.992 19.72C25.8 19.5707 25.4907 19.496 25.064 19.496H24.552V18.784L26.152 16.88L26.288 17.272H23.28V16.4H27.096V17.096L25.496 19L24.952 18.68H25.264C25.952 18.68 26.4667 18.8347 26.808 19.144C27.1547 19.448 27.328 19.84 27.328 20.32C27.328 20.6347 27.248 20.9253 27.088 21.192C26.928 21.4587 26.6827 21.6747 26.352 21.84C26.0267 22 25.6133 22.08 25.112 22.08ZM30.3443 22.08C29.9016 22.08 29.5016 21.968 29.1443 21.744C28.7923 21.52 28.5149 21.1947 28.3123 20.768C28.1096 20.336 28.0083 19.8133 28.0083 19.2C28.0083 18.5867 28.1096 18.0667 28.3123 17.64C28.5149 17.208 28.7923 16.88 29.1443 16.656C29.5016 16.432 29.9016 16.32 30.3443 16.32C30.7923 16.32 31.1923 16.432 31.5443 16.656C31.8963 16.88 32.1736 17.208 32.3763 17.64C32.5843 18.0667 32.6883 18.5867 32.6883 19.2C32.6883 19.8133 32.5843 20.336 32.3763 20.768C32.1736 21.1947 31.8963 21.52 31.5443 21.744C31.1923 21.968 30.7923 22.08 30.3443 22.08ZM30.3443 21.176C30.6056 21.176 30.8323 21.1067 31.0243 20.968C31.2163 20.824 31.3656 20.6053 31.4723 20.312C31.5843 20.0187 31.6403 19.648 31.6403 19.2C31.6403 18.7467 31.5843 18.376 31.4723 18.088C31.3656 17.7947 31.2163 17.5787 31.0243 17.44C30.8323 17.296 30.6056 17.224 30.3443 17.224C30.0936 17.224 29.8696 17.296 29.6723 17.44C29.4803 17.5787 29.3283 17.7947 29.2163 18.088C29.1096 18.376 29.0563 18.7467 29.0563 19.2C29.0563 19.648 29.1096 20.0187 29.2163 20.312C29.3283 20.6053 29.4803 20.824 29.6723 20.968C29.8696 21.1067 30.0936 21.176 30.3443 21.176ZM33.9213 22.056C33.74 22.056 33.5853 21.9947 33.4573 21.872C33.3293 21.744 33.2653 21.584 33.2653 21.392C33.2653 21.1893 33.3293 21.0293 33.4573 20.912C33.5853 20.7893 33.74 20.728 33.9213 20.728C34.1026 20.728 34.2573 20.7893 34.3853 20.912C34.5133 21.0293 34.5773 21.1893 34.5773 21.392C34.5773 21.584 34.5133 21.744 34.3853 21.872C34.2573 21.9947 34.1026 22.056 33.9213 22.056ZM35.2566 22V21.304L37.4806 19.192C37.6672 19.016 37.8059 18.8613 37.8966 18.728C37.9872 18.5947 38.0459 18.472 38.0726 18.36C38.1046 18.2427 38.1206 18.1333 38.1206 18.032C38.1206 17.776 38.0326 17.5787 37.8566 17.44C37.6806 17.296 37.4219 17.224 37.0806 17.224C36.8086 17.224 36.5606 17.272 36.3366 17.368C36.1179 17.464 35.9286 17.6107 35.7686 17.808L35.0406 17.248C35.2592 16.9547 35.5526 16.728 35.9206 16.568C36.2939 16.4027 36.7099 16.32 37.1686 16.32C37.5739 16.32 37.9259 16.3867 38.2246 16.52C38.5286 16.648 38.7606 16.832 38.9206 17.072C39.0859 17.312 39.1686 17.5973 39.1686 17.928C39.1686 18.1093 39.1446 18.2907 39.0966 18.472C39.0486 18.648 38.9579 18.8347 38.8246 19.032C38.6912 19.2293 38.4966 19.4507 38.2406 19.696L36.3286 21.512L36.1126 21.12H39.3846V22H35.2566ZM39.6658 22L41.5458 19.552L41.5298 20.088L39.7378 17.728H40.8498L42.1058 19.408H41.6818L42.9458 17.728H44.0258L42.2178 20.088L42.2258 19.552L44.0978 22H42.9698L41.6497 20.216L42.0658 20.272L40.7697 22H39.6658Z" fill="#A6B0DA"/>
<rect x="12" y="34" width="44" height="21" rx="5" fill="#151936"/>
<path d="M23.28 47V46.304L25.504 44.192C25.6907 44.016 25.8293 43.8613 25.92 43.728C26.0107 43.5947 26.0693 43.472 26.096 43.36C26.128 43.2427 26.144 43.1333 26.144 43.032C26.144 42.776 26.056 42.5787 25.88 42.44C25.704 42.296 25.4453 42.224 25.104 42.224C24.832 42.224 24.584 42.272 24.36 42.368C24.1413 42.464 23.952 42.6107 23.792 42.808L23.064 42.248C23.2827 41.9547 23.576 41.728 23.944 41.568C24.3173 41.4027 24.7333 41.32 25.192 41.32C25.5973 41.32 25.9493 41.3867 26.248 41.52C26.552 41.648 26.784 41.832 26.944 42.072C27.1093 42.312 27.192 42.5973 27.192 42.928C27.192 43.1093 27.168 43.2907 27.12 43.472C27.072 43.648 26.9813 43.8347 26.848 44.032C26.7147 44.2293 26.52 44.4507 26.264 44.696L24.352 46.512L24.136 46.12H27.408V47H23.28ZM27.8111 45.728V45.008L30.5711 41.4H31.6831L28.9631 45.008L28.4431 44.848H32.8831V45.728H27.8111ZM30.8831 47V45.728L30.9151 44.848V43.72H31.8911V47H30.8831ZM34.101 47.056C33.9197 47.056 33.765 46.9947 33.637 46.872C33.509 46.744 33.445 46.584 33.445 46.392C33.445 46.1893 33.509 46.0293 33.637 45.912C33.765 45.7893 33.9197 45.728 34.101 45.728C34.2823 45.728 34.437 45.7893 34.565 45.912C34.693 46.0293 34.757 46.1893 34.757 46.392C34.757 46.584 34.693 46.744 34.565 46.872C34.437 46.9947 34.2823 47.056 34.101 47.056ZM37.3181 41.32C37.8301 41.32 38.2648 41.4293 38.6221 41.648C38.9848 41.8613 39.2621 42.1733 39.4541 42.584C39.6461 42.9947 39.7421 43.5013 39.7421 44.104C39.7421 44.744 39.6248 45.2853 39.3901 45.728C39.1608 46.1707 38.8408 46.5067 38.4301 46.736C38.0195 46.9653 37.5421 47.08 36.9981 47.08C36.7155 47.08 36.4461 47.0507 36.1901 46.992C35.9341 46.9333 35.7128 46.8427 35.5261 46.72L35.9101 45.936C36.0648 46.0373 36.2328 46.1093 36.4141 46.152C36.5955 46.1893 36.7821 46.208 36.9741 46.208C37.5021 46.208 37.9208 46.0453 38.2301 45.72C38.5395 45.3947 38.6941 44.9147 38.6941 44.28C38.6941 44.1787 38.6915 44.0613 38.6861 43.928C38.6808 43.7893 38.6621 43.6507 38.6301 43.512L38.9501 43.864C38.8595 44.0827 38.7288 44.2667 38.5581 44.416C38.3875 44.56 38.1875 44.6693 37.9581 44.744C37.7288 44.8187 37.4755 44.856 37.1981 44.856C36.8355 44.856 36.5075 44.7867 36.2141 44.648C35.9261 44.504 35.6968 44.304 35.5261 44.048C35.3555 43.7867 35.2701 43.4827 35.2701 43.136C35.2701 42.7627 35.3608 42.4427 35.5421 42.176C35.7235 41.904 35.9688 41.6933 36.2781 41.544C36.5928 41.3947 36.9395 41.32 37.3181 41.32ZM37.3741 42.136C37.1608 42.136 36.9715 42.176 36.8061 42.256C36.6408 42.3307 36.5101 42.44 36.4141 42.584C36.3235 42.7227 36.2781 42.8907 36.2781 43.088C36.2781 43.3813 36.3795 43.6133 36.5821 43.784C36.7848 43.9547 37.0568 44.04 37.3981 44.04C37.6221 44.04 37.8195 44 37.9901 43.92C38.1608 43.8347 38.2941 43.72 38.3901 43.576C38.4861 43.4267 38.5341 43.2613 38.5341 43.08C38.5341 42.904 38.4888 42.7467 38.3981 42.608C38.3075 42.464 38.1768 42.3493 38.0061 42.264C37.8355 42.1787 37.6248 42.136 37.3741 42.136ZM40.0876 47L41.9676 44.552L41.9516 45.088L40.1596 42.728H41.2716L42.5276 44.408H42.1036L43.3676 42.728H44.4476L42.6396 45.088L42.6476 44.552L44.5196 47H43.3916L42.0716 45.216L42.4876 45.272L41.1916 47H40.0876Z" fill="#A6B0DA"/>
<rect x="12" y="59" width="44" height="21" rx="5" fill="#151936"/>
<path d="M23.28 72V71.304L25.504 69.192C25.6907 69.016 25.8293 68.8613 25.92 68.728C26.0107 68.5947 26.0693 68.472 26.096 68.36C26.128 68.2427 26.144 68.1333 26.144 68.032C26.144 67.776 26.056 67.5787 25.88 67.44C25.704 67.296 25.4453 67.224 25.104 67.224C24.832 67.224 24.584 67.272 24.36 67.368C24.1413 67.464 23.952 67.6107 23.792 67.808L23.064 67.248C23.2827 66.9547 23.576 66.728 23.944 66.568C24.3173 66.4027 24.7333 66.32 25.192 66.32C25.5973 66.32 25.9493 66.3867 26.248 66.52C26.552 66.648 26.784 66.832 26.944 67.072C27.1093 67.312 27.192 67.5973 27.192 67.928C27.192 68.1093 27.168 68.2907 27.12 68.472C27.072 68.648 26.9813 68.8347 26.848 69.032C26.7147 69.2293 26.52 69.4507 26.264 69.696L24.352 71.512L24.136 71.12H27.408V72H23.28ZM27.9363 72V71.304L30.1603 69.192C30.3469 69.016 30.4856 68.8613 30.5763 68.728C30.6669 68.5947 30.7256 68.472 30.7523 68.36C30.7843 68.2427 30.8003 68.1333 30.8003 68.032C30.8003 67.776 30.7123 67.5787 30.5363 67.44C30.3603 67.296 30.1016 67.224 29.7603 67.224C29.4883 67.224 29.2403 67.272 29.0163 67.368C28.7976 67.464 28.6083 67.6107 28.4483 67.808L27.7203 67.248C27.9389 66.9547 28.2323 66.728 28.6003 66.568C28.9736 66.4027 29.3896 66.32 29.8483 66.32C30.2536 66.32 30.6056 66.3867 30.9043 66.52C31.2083 66.648 31.4403 66.832 31.6003 67.072C31.7656 67.312 31.8483 67.5973 31.8483 67.928C31.8483 68.1093 31.8243 68.2907 31.7763 68.472C31.7283 68.648 31.6376 68.8347 31.5043 69.032C31.3709 69.2293 31.1763 69.4507 30.9203 69.696L29.0083 71.512L28.7923 71.12H32.0642V72H27.9363ZM33.3666 72.056C33.1853 72.056 33.0306 71.9947 32.9026 71.872C32.7746 71.744 32.7106 71.584 32.7106 71.392C32.7106 71.1893 32.7746 71.0293 32.9026 70.912C33.0306 70.7893 33.1853 70.728 33.3666 70.728C33.548 70.728 33.7026 70.7893 33.8306 70.912C33.9586 71.0293 34.0226 71.1893 34.0226 71.392C34.0226 71.584 33.9586 71.744 33.8306 71.872C33.7026 71.9947 33.548 72.056 33.3666 72.056ZM34.7019 72V71.304L36.9259 69.192C37.1125 69.016 37.2512 68.8613 37.3419 68.728C37.4325 68.5947 37.4912 68.472 37.5179 68.36C37.5499 68.2427 37.5659 68.1333 37.5659 68.032C37.5659 67.776 37.4779 67.5787 37.3019 67.44C37.1259 67.296 36.8672 67.224 36.5259 67.224C36.2539 67.224 36.0059 67.272 35.7819 67.368C35.5632 67.464 35.3739 67.6107 35.2139 67.808L34.4859 67.248C34.7045 66.9547 34.9979 66.728 35.3659 66.568C35.7392 66.4027 36.1552 66.32 36.6139 66.32C37.0192 66.32 37.3712 66.3867 37.6699 66.52C37.9739 66.648 38.2059 66.832 38.3659 67.072C38.5312 67.312 38.6139 67.5973 38.6139 67.928C38.6139 68.1093 38.5899 68.2907 38.5419 68.472C38.4939 68.648 38.4032 68.8347 38.2699 69.032C38.1365 69.2293 37.9419 69.4507 37.6859 69.696L35.7739 71.512L35.5579 71.12H38.8299V72H34.7019ZM39.1111 72L40.9911 69.552L40.9751 70.088L39.1831 67.728H40.2951L41.5511 69.408H41.1271L42.3911 67.728H43.4711L41.6631 70.088L41.6711 69.552L43.5431 72H42.4151L41.0951 70.216L41.5111 70.272L40.2151 72H39.1111Z" fill="#A6B0DA"/>
<rect x="12" y="84" width="44" height="21" rx="5" fill="#151936"/>
<path d="M23.28 97V96.304L25.504 94.192C25.6907 94.016 25.8293 93.8613 25.92 93.728C26.0107 93.5947 26.0693 93.472 26.096 93.36C26.128 93.2427 26.144 93.1333 26.144 93.032C26.144 92.776 26.056 92.5787 25.88 92.44C25.704 92.296 25.4453 92.224 25.104 92.224C24.832 92.224 24.584 92.272 24.36 92.368C24.1413 92.464 23.952 92.6107 23.792 92.808L23.064 92.248C23.2827 91.9547 23.576 91.728 23.944 91.568C24.3173 91.4027 24.7333 91.32 25.192 91.32C25.5973 91.32 25.9493 91.3867 26.248 91.52C26.552 91.648 26.784 91.832 26.944 92.072C27.1093 92.312 27.192 92.5973 27.192 92.928C27.192 93.1093 27.168 93.2907 27.12 93.472C27.072 93.648 26.9813 93.8347 26.848 94.032C26.7147 94.2293 26.52 94.4507 26.264 94.696L24.352 96.512L24.136 96.12H27.408V97H23.28ZM28.9043 97V91.8L29.3603 92.272H27.7203V91.4H29.9443V97H28.9043ZM31.6791 97.056C31.4978 97.056 31.3431 96.9947 31.2151 96.872C31.0871 96.744 31.0231 96.584 31.0231 96.392C31.0231 96.1893 31.0871 96.0293 31.2151 95.912C31.3431 95.7893 31.4978 95.728 31.6791 95.728C31.8605 95.728 32.0151 95.7893 32.1431 95.912C32.2711 96.0293 32.3351 96.1893 32.3351 96.392C32.3351 96.584 32.2711 96.744 32.1431 96.872C32.0151 96.9947 31.8605 97.056 31.6791 97.056ZM33.0144 97V96.304L35.2384 94.192C35.425 94.016 35.5637 93.8613 35.6544 93.728C35.745 93.5947 35.8037 93.472 35.8304 93.36C35.8624 93.2427 35.8784 93.1333 35.8784 93.032C35.8784 92.776 35.7904 92.5787 35.6144 92.44C35.4384 92.296 35.1797 92.224 34.8384 92.224C34.5664 92.224 34.3184 92.272 34.0944 92.368C33.8757 92.464 33.6864 92.6107 33.5264 92.808L32.7984 92.248C33.017 91.9547 33.3104 91.728 33.6784 91.568C34.0517 91.4027 34.4677 91.32 34.9264 91.32C35.3317 91.32 35.6837 91.3867 35.9824 91.52C36.2864 91.648 36.5184 91.832 36.6784 92.072C36.8437 92.312 36.9264 92.5973 36.9264 92.928C36.9264 93.1093 36.9024 93.2907 36.8544 93.472C36.8064 93.648 36.7157 93.8347 36.5824 94.032C36.449 94.2293 36.2544 94.4507 35.9984 94.696L34.0864 96.512L33.8704 96.12H37.1424V97H33.0144ZM37.4236 97L39.3036 94.552L39.2876 95.088L37.4956 92.728H38.6076L39.8636 94.408H39.4396L40.7036 92.728H41.7836L39.9756 95.088L39.9836 94.552L41.8556 97H40.7276L39.4076 95.216L39.8236 95.272L38.5276 97H37.4236Z" fill="#A6B0DA"/>
<rect x="12" y="109" width="44" height="21" rx="5" fill="#151936"/>
<path d="M24.248 122V116.8L24.704 117.272H23.064V116.4H25.288V122H24.248ZM28.6469 122.08C28.1829 122.08 27.7802 122.011 27.4389 121.872C27.0975 121.733 26.8335 121.539 26.6469 121.288C26.4602 121.032 26.3669 120.733 26.3669 120.392C26.3669 120.051 26.4575 119.763 26.6389 119.528C26.8202 119.293 27.0815 119.115 27.4229 118.992C27.7642 118.869 28.1722 118.808 28.6469 118.808C29.1215 118.808 29.5295 118.869 29.8709 118.992C30.2175 119.115 30.4815 119.296 30.6629 119.536C30.8495 119.771 30.9429 120.056 30.9429 120.392C30.9429 120.733 30.8469 121.032 30.6549 121.288C30.4682 121.539 30.2015 121.733 29.8549 121.872C29.5135 122.011 29.1109 122.08 28.6469 122.08ZM28.6469 121.264C29.0309 121.264 29.3349 121.184 29.5589 121.024C29.7829 120.864 29.8949 120.643 29.8949 120.36C29.8949 120.083 29.7829 119.864 29.5589 119.704C29.3349 119.544 29.0309 119.464 28.6469 119.464C28.2629 119.464 27.9615 119.544 27.7429 119.704C27.5242 119.864 27.4149 120.083 27.4149 120.36C27.4149 120.643 27.5242 120.864 27.7429 121.024C27.9615 121.184 28.2629 121.264 28.6469 121.264ZM28.6469 119.352C28.2149 119.352 27.8442 119.296 27.5349 119.184C27.2255 119.067 26.9855 118.899 26.8149 118.68C26.6495 118.456 26.5669 118.189 26.5669 117.88C26.5669 117.56 26.6522 117.285 26.8229 117.056C26.9989 116.821 27.2442 116.64 27.5589 116.512C27.8735 116.384 28.2362 116.32 28.6469 116.32C29.0629 116.32 29.4282 116.384 29.7429 116.512C30.0575 116.64 30.3029 116.821 30.4789 117.056C30.6549 117.285 30.7429 117.56 30.7429 117.88C30.7429 118.189 30.6575 118.456 30.4869 118.68C30.3215 118.899 30.0815 119.067 29.7669 119.184C29.4522 119.296 29.0789 119.352 28.6469 119.352ZM28.6469 118.712C28.9775 118.712 29.2389 118.643 29.4309 118.504C29.6229 118.36 29.7189 118.168 29.7189 117.928C29.7189 117.677 29.6202 117.483 29.4229 117.344C29.2255 117.205 28.9669 117.136 28.6469 117.136C28.3269 117.136 28.0709 117.205 27.8789 117.344C27.6869 117.483 27.5909 117.677 27.5909 117.928C27.5909 118.168 27.6842 118.36 27.8709 118.504C28.0629 118.643 28.3215 118.712 28.6469 118.712ZM32.3198 122.056C32.1384 122.056 31.9838 121.995 31.8558 121.872C31.7278 121.744 31.6638 121.584 31.6638 121.392C31.6638 121.189 31.7278 121.029 31.8558 120.912C31.9838 120.789 32.1384 120.728 32.3198 120.728C32.5011 120.728 32.6558 120.789 32.7838 120.912C32.9118 121.029 32.9758 121.189 32.9758 121.392C32.9758 121.584 32.9118 121.744 32.7838 121.872C32.6558 121.995 32.5011 122.056 32.3198 122.056ZM33.655 122V121.304L35.879 119.192C36.0657 119.016 36.2043 118.861 36.295 118.728C36.3857 118.595 36.4443 118.472 36.471 118.36C36.503 118.243 36.519 118.133 36.519 118.032C36.519 117.776 36.431 117.579 36.255 117.44C36.079 117.296 35.8203 117.224 35.479 117.224C35.207 117.224 34.959 117.272 34.735 117.368C34.5163 117.464 34.327 117.611 34.167 117.808L33.439 117.248C33.6577 116.955 33.951 116.728 34.319 116.568C34.6923 116.403 35.1083 116.32 35.567 116.32C35.9723 116.32 36.3243 116.387 36.623 116.52C36.927 116.648 37.159 116.832 37.319 117.072C37.4843 117.312 37.567 117.597 37.567 117.928C37.567 118.109 37.543 118.291 37.495 118.472C37.447 118.648 37.3563 118.835 37.223 119.032C37.0897 119.229 36.895 119.451 36.639 119.696L34.727 121.512L34.511 121.12H37.783V122H33.655ZM38.0642 122L39.9442 119.552L39.9282 120.088L38.1362 117.728H39.2482L40.5042 119.408H40.0802L41.3442 117.728H42.4242L40.6162 120.088L40.6242 119.552L42.4962 122H41.3682L40.0482 120.216L40.4642 120.272L39.1682 122H38.0642Z" fill="#A6B0DA"/>
<rect x="12" y="134" width="44" height="21" rx="5" fill="#151936"/>
<path d="M24.248 147V141.8L24.704 142.272H23.064V141.4H25.288V147H24.248ZM27.3349 147L29.6469 141.816L29.9189 142.28H26.7429L27.2389 141.776V143.232H26.2709V141.4H30.6229V142.096L28.4469 147H27.3349ZM31.4916 147.056C31.3103 147.056 31.1556 146.995 31.0276 146.872C30.8996 146.744 30.8356 146.584 30.8356 146.392C30.8356 146.189 30.8996 146.029 31.0276 145.912C31.1556 145.789 31.3103 145.728 31.4916 145.728C31.673 145.728 31.8276 145.789 31.9556 145.912C32.0836 146.029 32.1476 146.189 32.1476 146.392C32.1476 146.584 32.0836 146.744 31.9556 146.872C31.8276 146.995 31.673 147.056 31.4916 147.056ZM32.8269 147V146.304L35.0509 144.192C35.2375 144.016 35.3762 143.861 35.4669 143.728C35.5575 143.595 35.6162 143.472 35.6429 143.36C35.6749 143.243 35.6909 143.133 35.6909 143.032C35.6909 142.776 35.6029 142.579 35.4269 142.44C35.2509 142.296 34.9922 142.224 34.6509 142.224C34.3789 142.224 34.1309 142.272 33.9069 142.368C33.6882 142.464 33.4989 142.611 33.3389 142.808L32.6109 142.248C32.8295 141.955 33.1229 141.728 33.4909 141.568C33.8642 141.403 34.2802 141.32 34.7389 141.32C35.1442 141.32 35.4962 141.387 35.7949 141.52C36.0989 141.648 36.3309 141.832 36.4909 142.072C36.6562 142.312 36.7389 142.597 36.7389 142.928C36.7389 143.109 36.7149 143.291 36.6669 143.472C36.6189 143.648 36.5282 143.835 36.3949 144.032C36.2615 144.229 36.0669 144.451 35.8109 144.696L33.8989 146.512L33.6829 146.12H36.9549V147H32.8269ZM37.2361 147L39.1161 144.552L39.1001 145.088L37.3081 142.728H38.4201L39.6761 144.408H39.2521L40.5161 142.728H41.5961L39.7881 145.088L39.7961 144.552L41.6681 147H40.5401L39.2201 145.216L39.6361 145.272L38.3401 147H37.2361Z" fill="#A6B0DA"/>
<rect x="12" y="159" width="44" height="21" rx="5" fill="#151936"/>
<path d="M24.248 172V166.8L24.704 167.272H23.064V166.4H25.288V172H24.248ZM28.8229 172.08C28.3162 172.08 27.8815 171.973 27.5189 171.76C27.1562 171.541 26.8789 171.227 26.6869 170.816C26.4949 170.405 26.3989 169.899 26.3989 169.296C26.3989 168.656 26.5135 168.115 26.7429 167.672C26.9775 167.229 27.3002 166.893 27.7109 166.664C28.1269 166.435 28.6042 166.32 29.1429 166.32C29.4255 166.32 29.6949 166.349 29.9509 166.408C30.2122 166.467 30.4335 166.557 30.6149 166.68L30.2309 167.464C30.0762 167.363 29.9082 167.293 29.7269 167.256C29.5509 167.213 29.3642 167.192 29.1669 167.192C28.6389 167.192 28.2202 167.355 27.9109 167.68C27.6015 168.005 27.4469 168.485 27.4469 169.12C27.4469 169.221 27.4495 169.341 27.4549 169.48C27.4602 169.613 27.4789 169.749 27.5109 169.888L27.1909 169.536C27.2869 169.317 27.4175 169.136 27.5829 168.992C27.7535 168.843 27.9535 168.731 28.1829 168.656C28.4175 168.581 28.6709 168.544 28.9429 168.544C29.3109 168.544 29.6389 168.616 29.9269 168.76C30.2149 168.899 30.4442 169.099 30.6149 169.36C30.7855 169.616 30.8709 169.917 30.8709 170.264C30.8709 170.632 30.7802 170.952 30.5989 171.224C30.4175 171.496 30.1722 171.707 29.8629 171.856C29.5535 172.005 29.2069 172.08 28.8229 172.08ZM28.7669 171.264C28.9802 171.264 29.1695 171.227 29.3349 171.152C29.5002 171.072 29.6282 170.96 29.7189 170.816C29.8149 170.672 29.8629 170.504 29.8629 170.312C29.8629 170.019 29.7615 169.787 29.5589 169.616C29.3562 169.445 29.0842 169.36 28.7429 169.36C28.5189 169.36 28.3215 169.403 28.1509 169.488C27.9855 169.568 27.8522 169.68 27.7509 169.824C27.6549 169.968 27.6069 170.133 27.6069 170.32C27.6069 170.491 27.6522 170.648 27.7429 170.792C27.8335 170.936 27.9642 171.051 28.1349 171.136C28.3109 171.221 28.5215 171.264 28.7669 171.264ZM32.1166 172.056C31.9353 172.056 31.7806 171.995 31.6526 171.872C31.5246 171.744 31.4606 171.584 31.4606 171.392C31.4606 171.189 31.5246 171.029 31.6526 170.912C31.7806 170.789 31.9353 170.728 32.1166 170.728C32.298 170.728 32.4526 170.789 32.5806 170.912C32.7086 171.029 32.7726 171.189 32.7726 171.392C32.7726 171.584 32.7086 171.744 32.5806 171.872C32.4526 171.995 32.298 172.056 32.1166 172.056ZM33.4519 172V171.304L35.6759 169.192C35.8625 169.016 36.0012 168.861 36.0919 168.728C36.1825 168.595 36.2412 168.472 36.2679 168.36C36.2999 168.243 36.3159 168.133 36.3159 168.032C36.3159 167.776 36.2279 167.579 36.0519 167.44C35.8759 167.296 35.6172 167.224 35.2759 167.224C35.0039 167.224 34.7559 167.272 34.5319 167.368C34.3132 167.464 34.1239 167.611 33.9639 167.808L33.2359 167.248C33.4545 166.955 33.7479 166.728 34.1159 166.568C34.4892 166.403 34.9052 166.32 35.3639 166.32C35.7692 166.32 36.1212 166.387 36.4199 166.52C36.7239 166.648 36.9559 166.832 37.1159 167.072C37.2812 167.312 37.3639 167.597 37.3639 167.928C37.3639 168.109 37.3399 168.291 37.2919 168.472C37.2439 168.648 37.1532 168.835 37.0199 169.032C36.8865 169.229 36.6919 169.451 36.4359 169.696L34.5239 171.512L34.3079 171.12H37.5799V172H33.4519ZM37.8611 172L39.7411 169.552L39.7251 170.088L37.9331 167.728H39.0451L40.3011 169.408H39.8771L41.1411 167.728H42.2211L40.4131 170.088L40.4211 169.552L42.2931 172H41.1651L39.8451 170.216L40.2611 170.272L38.9651 172H37.8611Z" fill="#A6B0DA"/>
<rect x="12" y="184" width="44" height="21" rx="5" fill="#151936"/>
<path d="M24.248 197V191.8L24.704 192.272H23.064V191.4H25.288V197H24.248ZM28.2549 197.08C27.8602 197.08 27.4735 197.024 27.0949 196.912C26.7215 196.795 26.4069 196.635 26.1509 196.432L26.5909 195.624C26.7935 195.789 27.0389 195.923 27.3269 196.024C27.6202 196.125 27.9242 196.176 28.2389 196.176C28.6069 196.176 28.8949 196.099 29.1029 195.944C29.3162 195.789 29.4229 195.581 29.4229 195.32C29.4229 195.144 29.3775 194.989 29.2869 194.856C29.2015 194.723 29.0469 194.621 28.8229 194.552C28.6042 194.483 28.3029 194.448 27.9189 194.448H26.5669L26.8549 191.4H30.1429V192.272H27.2389L27.7829 191.776L27.5669 194.056L27.0229 193.568H28.1509C28.7055 193.568 29.1509 193.643 29.4869 193.792C29.8282 193.936 30.0762 194.139 30.2309 194.4C30.3909 194.656 30.4709 194.949 30.4709 195.28C30.4709 195.605 30.3909 195.904 30.2309 196.176C30.0709 196.448 29.8255 196.667 29.4949 196.832C29.1695 196.997 28.7562 197.08 28.2549 197.08ZM31.6948 197.056C31.5134 197.056 31.3588 196.995 31.2308 196.872C31.1028 196.744 31.0388 196.584 31.0388 196.392C31.0388 196.189 31.1028 196.029 31.2308 195.912C31.3588 195.789 31.5134 195.728 31.6948 195.728C31.8761 195.728 32.0308 195.789 32.1588 195.912C32.2868 196.029 32.3508 196.189 32.3508 196.392C32.3508 196.584 32.2868 196.744 32.1588 196.872C32.0308 196.995 31.8761 197.056 31.6948 197.056ZM33.03 197V196.304L35.254 194.192C35.4407 194.016 35.5793 193.861 35.67 193.728C35.7607 193.595 35.8193 193.472 35.846 193.36C35.878 193.243 35.894 193.133 35.894 193.032C35.894 192.776 35.806 192.579 35.63 192.44C35.454 192.296 35.1953 192.224 34.854 192.224C34.582 192.224 34.334 192.272 34.11 192.368C33.8913 192.464 33.702 192.611 33.542 192.808L32.814 192.248C33.0327 191.955 33.326 191.728 33.694 191.568C34.0673 191.403 34.4833 191.32 34.942 191.32C35.3473 191.32 35.6993 191.387 35.998 191.52C36.302 191.648 36.534 191.832 36.694 192.072C36.8593 192.312 36.942 192.597 36.942 192.928C36.942 193.109 36.918 193.291 36.87 193.472C36.822 193.648 36.7313 193.835 36.598 194.032C36.4647 194.229 36.27 194.451 36.014 194.696L34.102 196.512L33.886 196.12H37.158V197H33.03ZM37.4392 197L39.3192 194.552L39.3032 195.088L37.5112 192.728H38.6232L39.8792 194.408H39.4552L40.7192 192.728H41.7992L39.9912 195.088L39.9992 194.552L41.8712 197H40.7432L39.4232 195.216L39.8392 195.272L38.5432 197H37.4392Z" fill="#A6B0DA"/>
<rect x="12" y="209" width="44" height="21" rx="5" fill="#151936"/>
<path d="M24.248 222V216.8L24.704 217.272H23.064V216.4H25.288V222H24.248ZM26.3189 220.728V220.008L29.0789 216.4H30.1909L27.4709 220.008L26.9509 219.848H31.3909V220.728H26.3189ZM29.3909 222V220.728L29.4229 219.848V218.72H30.3989V222H29.3909ZM32.6088 222.056C32.4275 222.056 32.2728 221.995 32.1448 221.872C32.0168 221.744 31.9528 221.584 31.9528 221.392C31.9528 221.189 32.0168 221.029 32.1448 220.912C32.2728 220.789 32.4275 220.728 32.6088 220.728C32.7901 220.728 32.9448 220.789 33.0728 220.912C33.2008 221.029 33.2648 221.189 33.2648 221.392C33.2648 221.584 33.2008 221.744 33.0728 221.872C32.9448 221.995 32.7901 222.056 32.6088 222.056ZM33.9441 222V221.304L36.1681 219.192C36.3547 219.016 36.4934 218.861 36.5841 218.728C36.6747 218.595 36.7334 218.472 36.7601 218.36C36.7921 218.243 36.8081 218.133 36.8081 218.032C36.8081 217.776 36.7201 217.579 36.5441 217.44C36.3681 217.296 36.1094 217.224 35.7681 217.224C35.4961 217.224 35.2481 217.272 35.0241 217.368C34.8054 217.464 34.6161 217.611 34.4561 217.808L33.7281 217.248C33.9467 216.955 34.2401 216.728 34.6081 216.568C34.9814 216.403 35.3974 216.32 35.8561 216.32C36.2614 216.32 36.6134 216.387 36.9121 216.52C37.2161 216.648 37.4481 216.832 37.6081 217.072C37.7734 217.312 37.8561 217.597 37.8561 217.928C37.8561 218.109 37.8321 218.291 37.7841 218.472C37.7361 218.648 37.6454 218.835 37.5121 219.032C37.3787 219.229 37.1841 219.451 36.9281 219.696L35.0161 221.512L34.8001 221.12H38.0721V222H33.9441ZM38.3533 222L40.2333 219.552L40.2173 220.088L38.4253 217.728H39.5373L40.7933 219.408H40.3693L41.6333 217.728H42.7133L40.9053 220.088L40.9133 219.552L42.7853 222H41.6573L40.3372 220.216L40.7533 220.272L39.4572 222H38.3533Z" fill="#A6B0DA"/>
<rect x="12" y="234" width="44" height="21" rx="5" fill="#151936"/>
<path d="M24.248 247V241.8L24.704 242.272H23.064V241.4H25.288V247H24.248ZM28.1589 247.08C27.7642 247.08 27.3775 247.024 26.9989 246.912C26.6255 246.795 26.3109 246.635 26.0549 246.432L26.5029 245.624C26.7055 245.789 26.9509 245.923 27.2389 246.024C27.5269 246.125 27.8282 246.176 28.1429 246.176C28.5162 246.176 28.8069 246.101 29.0149 245.952C29.2229 245.797 29.3269 245.589 29.3269 245.328C29.3269 245.072 29.2309 244.869 29.0389 244.72C28.8469 244.571 28.5375 244.496 28.1109 244.496H27.5989V243.784L29.1989 241.88L29.3349 242.272H26.3269V241.4H30.1429V242.096L28.5429 244L27.9989 243.68H28.3109C28.9989 243.68 29.5135 243.835 29.8549 244.144C30.2015 244.448 30.3749 244.84 30.3749 245.32C30.3749 245.635 30.2949 245.925 30.1349 246.192C29.9749 246.459 29.7295 246.675 29.3989 246.84C29.0735 247 28.6602 247.08 28.1589 247.08ZM31.6791 247.056C31.4978 247.056 31.3431 246.995 31.2151 246.872C31.0871 246.744 31.0231 246.584 31.0231 246.392C31.0231 246.189 31.0871 246.029 31.2151 245.912C31.3431 245.789 31.4978 245.728 31.6791 245.728C31.8605 245.728 32.0151 245.789 32.1431 245.912C32.2711 246.029 32.3351 246.189 32.3351 246.392C32.3351 246.584 32.2711 246.744 32.1431 246.872C32.0151 246.995 31.8605 247.056 31.6791 247.056ZM33.0144 247V246.304L35.2384 244.192C35.425 244.016 35.5637 243.861 35.6544 243.728C35.745 243.595 35.8037 243.472 35.8304 243.36C35.8624 243.243 35.8784 243.133 35.8784 243.032C35.8784 242.776 35.7904 242.579 35.6144 242.44C35.4384 242.296 35.1797 242.224 34.8384 242.224C34.5664 242.224 34.3184 242.272 34.0944 242.368C33.8757 242.464 33.6864 242.611 33.5264 242.808L32.7984 242.248C33.017 241.955 33.3104 241.728 33.6784 241.568C34.0517 241.403 34.4677 241.32 34.9264 241.32C35.3317 241.32 35.6837 241.387 35.9824 241.52C36.2864 241.648 36.5184 241.832 36.6784 242.072C36.8437 242.312 36.9264 242.597 36.9264 242.928C36.9264 243.109 36.9024 243.291 36.8544 243.472C36.8064 243.648 36.7157 243.835 36.5824 244.032C36.449 244.229 36.2544 244.451 35.9984 244.696L34.0864 246.512L33.8704 246.12H37.1424V247H33.0144ZM37.4236 247L39.3036 244.552L39.2876 245.088L37.4956 242.728H38.6076L39.8636 244.408H39.4396L40.7036 242.728H41.7836L39.9756 245.088L39.9836 244.552L41.8556 247H40.7276L39.4076 245.216L39.8236 245.272L38.5276 247H37.4236Z" fill="#A6B0DA"/>
</svg>
