<svg width="48" height="9" viewBox="0 0 48 9" fill="none" xmlns="http://www.w3.org/2000/svg">
<path d="M3.04921 7.07415V1.6589H0.861328V0.400424H6.81938V1.6589H4.63151V7.07415H3.04921ZM9.63703 7.15042C9.03796 7.15042 8.51052 7.03602 8.05473 6.8072C7.60543 6.57839 7.25706 6.26694 7.00963 5.87288C6.76217 5.47246 6.63847 5.018 6.63847 4.50953C6.63847 3.9947 6.75892 3.54025 6.99986 3.14619C7.24729 2.74576 7.58262 2.43431 8.00589 2.21186C8.42913 1.98305 8.90773 1.86864 9.44169 1.86864C9.95608 1.86864 10.4184 1.97669 10.8286 2.1928C11.2454 2.40254 11.5742 2.70763 11.8151 3.10805C12.0561 3.50211 12.1765 3.97564 12.1765 4.5286C12.1765 4.58581 12.1733 4.65254 12.1668 4.72881C12.1602 4.79872 12.1537 4.86546 12.1472 4.92903H7.87892V4.06144H11.3463L10.7603 4.31886C10.7603 4.05191 10.7049 3.81992 10.5942 3.62288C10.4835 3.42584 10.3305 3.2733 10.1352 3.16525C9.93982 3.05085 9.7119 2.99364 9.45145 2.99364C9.19098 2.99364 8.95982 3.05085 8.75797 3.16525C8.56263 3.2733 8.4096 3.42903 8.29891 3.63242C8.1882 3.82946 8.13287 4.06461 8.13287 4.33792V4.56674C8.13287 4.84639 8.19472 5.09427 8.31845 5.31038C8.44867 5.52013 8.62773 5.6822 8.85565 5.79661C9.09006 5.90465 9.36355 5.95869 9.6761 5.95869C9.95608 5.95869 10.2003 5.91738 10.4087 5.83475C10.6235 5.75211 10.8189 5.62817 10.9947 5.46292L11.8054 6.32097C11.5644 6.58792 11.2617 6.7945 10.897 6.94068C10.5324 7.08052 10.1124 7.15042 9.63703 7.15042ZM13.191 7.07415V0H14.7147V7.07415H13.191ZM18.7367 7.15042C18.1376 7.15042 17.6102 7.03602 17.1543 6.8072C16.705 6.57839 16.3567 6.26694 16.1092 5.87288C15.8618 5.47246 15.7381 5.018 15.7381 4.50953C15.7381 3.9947 15.8585 3.54025 16.0995 3.14619C16.3469 2.74576 16.6823 2.43431 17.1055 2.21186C17.5288 1.98305 18.0073 1.86864 18.5413 1.86864C19.0557 1.86864 19.518 1.97669 19.9283 2.1928C20.345 2.40254 20.6738 2.70763 20.9148 3.10805C21.1557 3.50211 21.2761 3.97564 21.2761 4.5286C21.2761 4.58581 21.2729 4.65254 21.2664 4.72881C21.2599 4.79872 21.2534 4.86546 21.2468 4.92903H16.9785V4.06144H20.4459L19.8599 4.31886C19.8599 4.05191 19.8045 3.81992 19.6938 3.62288C19.5832 3.42584 19.4301 3.2733 19.2348 3.16525C19.0394 3.05085 18.8115 2.99364 18.5511 2.99364C18.2906 2.99364 18.0595 3.05085 17.8576 3.16525C17.6622 3.2733 17.5092 3.42903 17.3985 3.63242C17.2878 3.82946 17.2325 4.06461 17.2325 4.33792V4.56674C17.2325 4.84639 17.2943 5.09427 17.4181 5.31038C17.5483 5.52013 17.7274 5.6822 17.9553 5.79661C18.1897 5.90465 18.4632 5.95869 18.7757 5.95869C19.0557 5.95869 19.2999 5.91738 19.5083 5.83475C19.7231 5.75211 19.9185 5.62817 20.0943 5.46292L20.905 6.32097C20.6641 6.58792 20.3613 6.7945 19.9966 6.94068C19.632 7.08052 19.212 7.15042 18.7367 7.15042ZM24.7617 9C24.2668 9 23.7882 8.93963 23.3259 8.81886C22.8701 8.70445 22.4892 8.52967 22.1831 8.29449L22.7887 7.22669C23.0101 7.40467 23.2901 7.54448 23.6287 7.64619C23.9738 7.75423 24.3124 7.80826 24.6445 7.80826C25.1851 7.80826 25.5757 7.69069 25.8165 7.45551C26.0641 7.22033 26.1877 6.87077 26.1877 6.40678V5.63453L26.2853 4.34746L26.2658 3.05085V1.94492H27.7114V6.2161C27.7114 7.16949 27.4574 7.87183 26.9495 8.32309C26.4416 8.77436 25.7125 9 24.7617 9ZM24.5273 6.82627C24.0389 6.82627 23.5961 6.72457 23.1989 6.52119C22.8083 6.31144 22.4924 6.02225 22.2515 5.6536C22.0171 5.27861 21.8999 4.84322 21.8999 4.34746C21.8999 3.84533 22.0171 3.40997 22.2515 3.04131C22.4924 2.66632 22.8083 2.37711 23.1989 2.17373C23.5961 1.97034 24.0389 1.86864 24.5273 1.86864C24.9701 1.86864 25.3609 1.95763 25.6993 2.13559C26.038 2.3072 26.3017 2.57732 26.4905 2.94598C26.6795 3.30826 26.7737 3.77542 26.7737 4.34746C26.7737 4.91313 26.6795 5.38029 26.4905 5.74894C26.3017 6.11123 26.038 6.38135 25.6993 6.55932C25.3609 6.7373 24.9701 6.82627 24.5273 6.82627ZM24.8301 5.60593C25.097 5.60593 25.3347 5.55509 25.543 5.45339C25.7516 5.34535 25.9142 5.19597 26.0314 5.0053C26.1486 4.81462 26.2072 4.59534 26.2072 4.34746C26.2072 4.09321 26.1486 3.87393 26.0314 3.68962C25.9142 3.49894 25.7516 3.35276 25.543 3.25106C25.3347 3.14302 25.097 3.08898 24.8301 3.08898C24.5631 3.08898 24.3254 3.14302 24.1171 3.25106C23.9087 3.35276 23.7426 3.49894 23.6189 3.68962C23.5017 3.87393 23.4431 4.09321 23.4431 4.34746C23.4431 4.59534 23.5017 4.81462 23.6189 5.0053C23.7426 5.19597 23.9087 5.34535 24.1171 5.45339C24.3254 5.55509 24.5631 5.60593 24.8301 5.60593ZM29.1296 7.07415V1.94492H30.5849V3.39407L30.3798 2.97458C30.5361 2.61229 30.7868 2.33898 31.1319 2.15466C31.4769 1.96398 31.8969 1.86864 32.3919 1.86864V3.24153C32.3267 3.23516 32.2681 3.23199 32.2161 3.23199C32.164 3.22563 32.1086 3.22246 32.05 3.22246C31.6332 3.22246 31.2947 3.34003 31.0342 3.57521C30.7803 3.80403 30.6533 4.16314 30.6533 4.65254V7.07415H29.1296ZM36.1777 7.07415V6.07309L36.08 5.85381V4.06144C36.08 3.74365 35.9792 3.49577 35.7772 3.3178C35.5819 3.13982 35.2791 3.05085 34.8689 3.05085C34.5888 3.05085 34.3121 3.09535 34.0386 3.18432C33.7717 3.26696 33.5437 3.38136 33.3549 3.52754L32.8079 2.48835C33.0944 2.29131 33.4396 2.13877 33.8433 2.03072C34.2469 1.92267 34.6571 1.86864 35.074 1.86864C35.8749 1.86864 36.4968 2.05297 36.9395 2.42161C37.3822 2.79026 37.6037 3.36547 37.6037 4.14725V7.07415H36.1777ZM34.5758 7.15042C34.1656 7.15042 33.814 7.08369 33.521 6.95021C33.2279 6.81037 33.0033 6.62289 32.847 6.38771C32.6907 6.15253 32.6126 5.88878 32.6126 5.5964C32.6126 5.29131 32.6876 5.02436 32.8372 4.79555C32.9935 4.56674 33.2377 4.38876 33.5698 4.26165C33.9019 4.12818 34.3348 4.06144 34.8689 4.06144H36.2656V4.92903H35.0349C34.6767 4.92903 34.4293 4.98623 34.2926 5.10064C34.1624 5.21504 34.0972 5.35805 34.0972 5.52966C34.0972 5.72034 34.1722 5.87288 34.3219 5.98729C34.4782 6.09533 34.6899 6.14936 34.9568 6.14936C35.2107 6.14936 35.4385 6.09216 35.6405 5.97775C35.8424 5.85698 35.9889 5.6822 36.08 5.45339L36.3144 6.13983C36.2038 6.47035 36.0019 6.7214 35.7088 6.89301C35.4158 7.06462 35.0381 7.15042 34.5758 7.15042ZM45.7125 1.86864C46.1291 1.86864 46.4971 1.95127 46.8162 2.11653C47.1417 2.27542 47.3957 2.52331 47.5781 2.86017C47.7668 3.19069 47.8613 3.61652 47.8613 4.13771V7.07415H46.3376V4.36653C46.3376 3.9534 46.2497 3.64831 46.0739 3.45127C45.8981 3.25423 45.6505 3.15572 45.3316 3.15572C45.1101 3.15572 44.9116 3.20656 44.7358 3.30826C44.56 3.4036 44.4232 3.54978 44.3256 3.74682C44.2279 3.94386 44.1791 4.19492 44.1791 4.5V7.07415H42.6554V4.36653C42.6554 3.9534 42.5674 3.64831 42.3916 3.45127C42.2222 3.25423 41.978 3.15572 41.6591 3.15572C41.4376 3.15572 41.2391 3.20656 41.0633 3.30826C40.8875 3.4036 40.7507 3.54978 40.6531 3.74682C40.5554 3.94386 40.5065 4.19492 40.5065 4.5V7.07415H38.9828V1.94492H40.4382V3.3464L40.1647 2.93644C40.3468 2.58686 40.6042 2.3231 40.9363 2.14513C41.2747 1.96081 41.6591 1.86864 42.0888 1.86864C42.5706 1.86864 42.9906 1.98941 43.3488 2.23093C43.7134 2.46611 43.9544 2.8284 44.0716 3.3178L43.5344 3.17479C43.7102 2.77436 43.9901 2.45658 44.3744 2.2214C44.7651 1.98623 45.211 1.86864 45.7125 1.86864Z" fill="#8990AE"/>
</svg>
