<svg width="18" height="14" viewBox="0 0 18 14" fill="none" xmlns="http://www.w3.org/2000/svg">
<path d="M6 1L6 13" stroke="#8990AE" stroke-width="1.5" stroke-linecap="round" stroke-dasharray="2 3"/>
<path d="M1.5 4.33333C1.5 2.49238 2.99238 1 4.83333 1H13.1667C15.0076 1 16.5 2.49238 16.5 4.33333C16.5 4.7408 16.2663 5.11216 15.899 5.28849L15.5335 5.46394C14.2447 6.08253 14.2447 7.91747 15.5335 8.53606L15.899 8.71151C16.2663 8.88784 16.5 9.2592 16.5 9.66667C16.5 11.5076 15.0076 13 13.1667 13H4.83333C2.99238 13 1.5 11.5076 1.5 9.66667C1.5 9.2592 1.73367 8.88784 2.10102 8.71151L2.46654 8.53606C3.75526 7.91747 3.75526 6.08253 2.46654 5.46394L2.10102 5.28849C1.73367 5.11216 1.5 4.7408 1.5 4.33333Z" stroke="#8990AE" stroke-width="1.5"/>
<path d="M9.76314 5.30303C9.99507 4.56566 11.0049 4.56566 11.2369 5.30303C11.3406 5.63279 11.6381 5.85605 11.9737 5.85605C12.7243 5.85605 13.0363 6.84817 12.4291 7.30389C12.1576 7.50769 12.044 7.86894 12.1477 8.1987C12.3796 8.93607 11.5626 9.54924 10.9554 9.09352C10.6839 8.88972 10.3161 8.88972 10.0446 9.09352C9.43738 9.54924 8.62039 8.93607 8.85232 8.1987C8.95604 7.86894 8.84242 7.50769 8.57086 7.30389C7.96365 6.84817 8.27572 5.85605 9.02627 5.85605C9.36193 5.85605 9.65941 5.63279 9.76314 5.30303Z" stroke="#8990AE" stroke-width="1.5"/>
</svg>
