<svg width="706" height="372" viewBox="0 0 706 372" fill="none" xmlns="http://www.w3.org/2000/svg">
<rect width="706" height="372" rx="10" fill="#2E3565"/>
<path d="M601.111 28.2127L601.451 27.5444L601.111 28.2127ZM599.29 26.3918L599.958 26.0513L599.29 26.3918ZM616.715 26.3918L616.047 26.0513L616.715 26.3918ZM614.894 28.2127L614.554 27.5444L614.894 28.2127ZM614.894 15.7876L614.554 16.4559L614.894 15.7876ZM616.715 17.6085L616.047 17.949L616.715 17.6085ZM601.111 15.7876L601.451 16.4559L601.111 15.7876ZM599.29 17.6085L599.958 17.949L599.29 17.6085ZM604.669 23.7502C604.255 23.7502 603.919 24.0859 603.919 24.5002C603.919 24.9144 604.255 25.2502 604.669 25.2502V23.7502ZM611.336 25.2502C611.75 25.2502 612.086 24.9144 612.086 24.5002C612.086 24.0859 611.75 23.7502 611.336 23.7502V25.2502ZM611.336 18.7502C610.922 18.7502 610.586 19.0859 610.586 19.5002C610.586 19.9144 610.922 20.2502 611.336 20.2502V18.7502ZM614.669 20.2502C615.083 20.2502 615.419 19.9144 615.419 19.5002C615.419 19.0859 615.083 18.7502 614.669 18.7502V20.2502ZM605.503 16.0835H610.503V14.5835H605.503V16.0835ZM610.503 27.9168H605.503V29.4168H610.503V27.9168ZM605.503 27.9168C604.323 27.9168 603.484 27.9162 602.827 27.8626C602.179 27.8096 601.774 27.7087 601.451 27.5444L600.77 28.8809C601.339 29.1709 601.964 29.297 602.705 29.3576C603.437 29.4174 604.348 29.4168 605.503 29.4168V27.9168ZM598.086 22.0002C598.086 23.1546 598.085 24.0655 598.145 24.7979C598.206 25.5391 598.332 26.1633 598.622 26.7323L599.958 26.0513C599.794 25.729 599.693 25.3242 599.64 24.6757C599.587 24.0186 599.586 23.1793 599.586 22.0002H598.086ZM601.451 27.5444C600.809 27.2169 600.286 26.6942 599.958 26.0513L598.622 26.7323C599.093 27.6574 599.845 28.4096 600.77 28.8809L601.451 27.5444ZM616.419 22.0002C616.419 23.1793 616.419 24.0186 616.365 24.6757C616.312 25.3242 616.211 25.729 616.047 26.0513L617.383 26.7323C617.673 26.1633 617.799 25.5391 617.86 24.7979C617.92 24.0655 617.919 23.1546 617.919 22.0002H616.419ZM610.503 29.4168C611.657 29.4168 612.568 29.4174 613.3 29.3576C614.042 29.297 614.666 29.1709 615.235 28.8809L614.554 27.5444C614.231 27.7087 613.827 27.8096 613.178 27.8626C612.521 27.9162 611.682 27.9168 610.503 27.9168V29.4168ZM616.047 26.0513C615.719 26.6942 615.197 27.2169 614.554 27.5444L615.235 28.8809C616.16 28.4096 616.912 27.6574 617.383 26.7323L616.047 26.0513ZM610.503 16.0835C611.682 16.0835 612.521 16.0841 613.178 16.1378C613.827 16.1908 614.231 16.2917 614.554 16.4559L615.235 15.1194C614.666 14.8295 614.042 14.7033 613.3 14.6428C612.568 14.5829 611.657 14.5835 610.503 14.5835V16.0835ZM617.919 22.0002C617.919 20.8458 617.92 19.9349 617.86 19.2024C617.799 18.4612 617.673 17.837 617.383 17.268L616.047 17.949C616.211 18.2713 616.312 18.6762 616.365 19.3246C616.419 19.9818 616.419 20.821 616.419 22.0002H617.919ZM614.554 16.4559C615.197 16.7835 615.719 17.3061 616.047 17.949L617.383 17.268C616.912 16.3429 616.16 15.5908 615.235 15.1194L614.554 16.4559ZM605.503 14.5835C604.348 14.5835 603.437 14.5829 602.705 14.6428C601.964 14.7033 601.339 14.8295 600.77 15.1194L601.451 16.4559C601.774 16.2917 602.179 16.1908 602.827 16.1378C603.484 16.0841 604.323 16.0835 605.503 16.0835V14.5835ZM599.586 22.0002C599.586 20.821 599.587 19.9818 599.64 19.3246C599.693 18.6762 599.794 18.2713 599.958 17.949L598.622 17.268C598.332 17.837 598.206 18.4612 598.145 19.2024C598.085 19.9349 598.086 20.8458 598.086 22.0002H599.586ZM600.77 15.1194C599.845 15.5908 599.093 16.3429 598.622 17.268L599.958 17.949C600.286 17.3061 600.809 16.7835 601.451 16.4559L600.77 15.1194ZM604.669 25.2502H611.336V23.7502H604.669V25.2502ZM611.336 20.2502L614.669 20.2502V18.7502L611.336 18.7502V20.2502Z" fill="#9AA3D9"/>
<path d="M603.003 24.5002C603.003 24.9604 602.63 25.3335 602.169 25.3335C601.709 25.3335 601.336 24.9604 601.336 24.5002C601.336 24.0399 601.709 23.6668 602.169 23.6668C602.63 23.6668 603.003 24.0399 603.003 24.5002Z" fill="#9AA3D9"/>
<path d="M614.669 24.5002C614.669 24.9604 614.296 25.3335 613.836 25.3335C613.376 25.3335 613.003 24.9604 613.003 24.5002C613.003 24.0399 613.376 23.6668 613.836 23.6668C614.296 23.6668 614.669 24.0399 614.669 24.5002Z" fill="#9AA3D9"/>
<path d="M606.336 19.5002C606.336 19.9604 605.963 20.3335 605.503 20.3335C605.042 20.3335 604.669 19.9604 604.669 19.5002C604.669 19.0399 605.042 18.6668 605.503 18.6668C605.963 18.6668 606.336 19.0399 606.336 19.5002Z" fill="#9AA3D9"/>
<path d="M609.669 19.5002C609.669 19.9604 609.296 20.3335 608.836 20.3335C608.376 20.3335 608.003 19.9604 608.003 19.5002C608.003 19.0399 608.376 18.6668 608.836 18.6668C609.296 18.6668 609.669 19.0399 609.669 19.5002Z" fill="#9AA3D9"/>
<path d="M603.003 19.5002C603.003 19.9604 602.63 20.3335 602.169 20.3335C601.709 20.3335 601.336 19.9604 601.336 19.5002C601.336 19.0399 601.709 18.6668 602.169 18.6668C602.63 18.6668 603.003 19.0399 603.003 19.5002Z" fill="#9AA3D9"/>
<path d="M628.833 24.381L630.05 21.9001C630.665 20.647 632.472 20.7082 633 22C633.528 23.2918 635.335 23.353 635.95 22.0999L637.167 19.619M633 29.5C629.875 29.5 628.313 29.5 627.218 28.7042C626.864 28.4472 626.553 28.1362 626.296 27.7824C625.5 26.6872 625.5 25.1248 625.5 22C625.5 18.8752 625.5 17.3128 626.296 16.2176C626.553 15.8638 626.864 15.5528 627.218 15.2958C628.313 14.5 629.875 14.5 633 14.5C636.125 14.5 637.687 14.5 638.782 15.2958C639.136 15.5528 639.447 15.8638 639.704 16.2176C640.5 17.3128 640.5 18.8752 640.5 22C640.5 25.1248 640.5 26.6872 639.704 27.7824C639.447 28.1362 639.136 28.4472 638.782 28.7042C637.687 29.5 636.125 29.5 633 29.5Z" stroke="#9AA3D9" stroke-width="1.5" stroke-linecap="round"/>
<g clip-path="url(#clip0_1524_21005)">
<path d="M658.831 25.3332C658.831 25.7934 658.458 26.1665 657.997 26.1665C657.537 26.1665 657.164 25.7934 657.164 25.3332C657.164 24.8729 657.537 24.4998 657.997 24.4998C658.458 24.4998 658.831 24.8729 658.831 25.3332Z" fill="#9AA3D9"/>
<path d="M657.997 17.8332V22.8332M666.331 21.9998C666.331 26.6022 662.6 30.3332 657.997 30.3332C653.395 30.3332 649.664 26.6022 649.664 21.9998C649.664 17.3975 653.395 13.6665 657.997 13.6665C662.6 13.6665 666.331 17.3975 666.331 21.9998Z" stroke="#9AA3D9" stroke-width="1.5" stroke-linecap="round"/>
</g>
<path d="M687.165 25.1095L687.499 24.7762C687.549 24.7263 687.574 24.7014 687.594 24.68C689.166 23.063 689.166 20.4894 687.594 18.8724C687.574 18.851 687.549 18.8261 687.499 18.7762L687.165 18.4429M688.832 27.6095L689.415 27.0262C689.913 26.5285 690.162 26.2796 690.353 26.0511C692.421 23.5763 692.421 19.9761 690.353 17.5013C690.162 17.2728 689.913 17.0239 689.415 16.5262L688.832 15.9429M678.761 25.2434L679.591 25.9275C681.61 27.5911 682.619 28.4229 683.465 28.1762C683.633 28.1273 683.792 28.0522 683.937 27.9537C684.665 27.4575 684.665 26.1497 684.665 23.534V20.0184C684.665 17.4027 684.665 16.0948 683.937 15.5987C683.792 15.5002 683.633 15.4251 683.465 15.3762C682.619 15.1295 681.61 15.9613 679.591 17.6249L678.761 18.309C678.6 18.4421 678.519 18.5087 678.437 18.5696C677.773 19.0641 676.978 19.3498 676.151 19.3903C676.049 19.3952 675.945 19.3952 675.735 19.3952C675.516 19.3952 675.406 19.3952 675.313 19.4056C674.54 19.4922 673.929 20.1029 673.842 20.8766C673.832 20.969 673.832 21.0788 673.832 21.2984V22.254C673.832 22.4736 673.832 22.5834 673.842 22.6758C673.929 23.4495 674.54 24.0602 675.313 24.1468C675.406 24.1571 675.516 24.1571 675.735 24.1571C675.945 24.1571 676.049 24.1571 676.151 24.1621C676.978 24.2026 677.773 24.4883 678.437 24.9828C678.519 25.0437 678.6 25.1102 678.761 25.2434Z" stroke="#9AA3D9" stroke-width="1.5" stroke-linecap="round"/>
<defs>
<clipPath id="clip0_1524_21005">
<rect width="20" height="20" fill="white" transform="translate(648 12)"/>
</clipPath>
</defs>
</svg>
