<svg width="14" height="12" viewBox="0 0 14 12" fill="none" xmlns="http://www.w3.org/2000/svg">
<path d="M13.0707 2.16385C12.6744 2.33439 12.2578 2.45315 11.8312 2.51719C12.0306 2.48299 12.3241 2.12396 12.441 1.97864C12.6185 1.75943 12.7537 1.50919 12.8399 1.24062C12.8399 1.22068 12.8598 1.19218 12.8399 1.17793C12.8298 1.17245 12.8186 1.16957 12.8071 1.16957C12.7957 1.16957 12.7844 1.17245 12.7744 1.17793C12.3111 1.42881 11.818 1.62028 11.3069 1.74783C11.2891 1.75327 11.2701 1.75376 11.252 1.74924C11.234 1.74472 11.2175 1.73537 11.2043 1.72218C11.1645 1.6748 11.1217 1.63007 11.0761 1.58826C10.8676 1.40146 10.631 1.24857 10.3751 1.13519C10.0296 0.993452 9.65644 0.932068 9.28376 0.955675C8.92214 0.978513 8.56908 1.07551 8.24655 1.24062C7.92894 1.4147 7.6498 1.6512 7.4259 1.93589C7.19039 2.22892 7.02036 2.56898 6.92724 2.93321C6.85046 3.27966 6.84175 3.63774 6.9016 3.98751C6.9016 4.04735 6.9016 4.0559 6.85031 4.04735C4.81864 3.74816 3.1517 3.02724 1.78965 1.47998C1.72981 1.41159 1.69847 1.41159 1.65002 1.47998C1.05733 2.38041 1.34513 3.80515 2.08599 4.50897C2.18572 4.603 2.28831 4.69418 2.39659 4.77967C2.0569 4.75555 1.72552 4.6635 1.42207 4.50897C1.36508 4.47192 1.33373 4.49187 1.33088 4.56026C1.32281 4.65507 1.32281 4.75039 1.33088 4.8452C1.39034 5.29958 1.56941 5.73001 1.84977 6.09248C2.13014 6.45496 2.50174 6.73647 2.92659 6.90822C3.03015 6.95258 3.13807 6.98601 3.24858 7.00795C2.93412 7.06986 2.6116 7.07949 2.294 7.03645C2.22562 7.0222 2.19997 7.05924 2.22562 7.12478C2.64449 8.26457 3.55347 8.6122 4.22025 8.80597C4.31143 8.82022 4.40261 8.82022 4.50519 8.84301C4.50519 8.84301 4.50519 8.84301 4.4881 8.86011C4.29148 9.21914 3.49648 9.46135 3.13175 9.58672C2.46602 9.82585 1.75623 9.91725 1.05164 9.85457C0.940506 9.83748 0.914861 9.84033 0.886366 9.85457C0.857871 9.86882 0.886366 9.90017 0.91771 9.92866C1.06018 10.0227 1.20266 10.1053 1.35083 10.1851C1.79194 10.4257 2.25828 10.6168 2.74137 10.755C5.24321 11.4446 8.05848 10.9374 9.93629 9.07097C11.4123 7.60634 11.9309 5.58607 11.9309 3.56294C11.9309 3.48601 12.0249 3.44041 12.0791 3.40052C12.4525 3.10956 12.7817 2.76594 13.0565 2.38041C13.104 2.32294 13.1284 2.24977 13.1248 2.17525C13.1248 2.13251 13.1248 2.14105 13.0707 2.16385Z" fill="#8990AE"/>
</svg>
