<svg width="18" height="18" viewBox="0 0 18 18" fill="none" xmlns="http://www.w3.org/2000/svg">
<g clip-path="url(#clip0_10_2512)">
<path fill-rule="evenodd" clip-rule="evenodd" d="M0 0H25.65V1.38516H0V0ZM0 2.77031H25.65V4.15547H0V2.77031ZM0 5.53711H25.65V6.92578H0V5.53711ZM0 8.30742H25.65V9.69258H0V8.30742ZM0 11.0777H25.65V12.4629H0V11.0777ZM0 13.8445H25.65V15.2297H0V13.8445ZM0 16.6148H25.65V18H0V16.6148Z" fill="#BD3D44"/>
<path fill-rule="evenodd" clip-rule="evenodd" d="M0 1.38516H25.65V2.77032H0V1.38516ZM0 4.15547H25.65V5.53712H0V4.15547ZM0 6.92227H25.65V8.30743H0V6.92227ZM0 9.69258H25.65V11.0777H0V9.69258ZM0 12.4629H25.65V13.8481H0V12.4629ZM0 15.2297H25.65V16.6148H0V15.2297Z" fill="white"/>
<path fill-rule="evenodd" clip-rule="evenodd" d="M0 0H10.2595V9.69258H0V0Z" fill="#192F5D"/>
<path fill-rule="evenodd" clip-rule="evenodd" d="M0.854309 0.414856L0.949231 0.798059H1.24982L1.00724 1.03361L1.09952 1.42032L0.854309 1.18126L0.611731 1.41681L0.704016 1.03361L0.458801 0.798059H0.764661L0.854309 0.414856ZM2.56554 0.414856L2.65782 0.798059H2.96105L2.71583 1.03361L2.80812 1.42032L2.56554 1.18126L2.32032 1.41681L2.41261 1.03361L2.17003 0.798059H2.47062L2.56554 0.414856ZM4.27413 0.414856L4.36906 0.798059H4.66701L4.42443 1.03361L4.51671 1.42032L4.2715 1.18126L4.02892 1.41681L4.1212 1.03361L3.87599 0.798059H4.17921L4.27413 0.414856ZM5.98536 0.414856L6.07765 0.798059H6.38087L6.13566 1.03361L6.23058 1.42032L5.98536 1.18126L5.74015 1.41681L5.83507 1.03361L5.58986 0.798059H5.89044L5.98536 0.414856ZM7.69396 0.414856L7.78888 0.798059H8.08947L7.84689 1.03361L7.93917 1.42032L7.69396 1.18126L7.45138 1.41681L7.54367 1.03361L7.30109 0.798059H7.60167L7.69396 0.414856ZM9.40519 0.414856L9.49747 0.798059H9.8007L9.55548 1.03361L9.6504 1.42032L9.40519 1.18126L9.15997 1.41681L9.2549 1.03361L9.00968 0.798059H9.3129L9.40519 0.414856ZM1.71124 1.38517L1.80353 1.76837H2.10675L1.86154 2.00392L1.95118 2.38712L1.71388 2.15157L1.46866 2.38712L1.55568 2.00392L1.31837 1.76837H1.61896L1.71124 1.38517ZM3.41984 1.38517L3.51476 1.76837H3.81534L3.57013 2.00392L3.66505 2.38712L3.41984 2.15157L3.17462 2.38712L3.26954 2.00392L3.02433 1.76837H3.32755L3.41984 1.38517ZM5.13107 1.38517L5.22335 1.76837H5.52658L5.28136 2.00392L5.37365 2.38712L5.13107 2.15157L4.88585 2.38712L4.97814 2.00392L4.73556 1.76837H5.03615L5.13107 1.38517ZM6.83966 1.38517L6.93458 1.76837H7.23517L6.98995 2.00392L7.08488 2.38712L6.83966 2.15157L6.59708 2.38712L6.68937 2.00392L6.44415 1.76837H6.75001L6.83966 1.38517ZM8.55089 1.38517L8.64318 1.76837H8.9464L8.70119 2.00392L8.79347 2.38712L8.55089 2.15157L8.30568 2.38712L8.39796 2.00392L8.15538 1.76837H8.45597L8.55089 1.38517ZM0.854309 2.35197L0.949231 2.7422H1.24982L1.00724 2.97775L1.09952 3.36095L0.854309 3.12189L0.611731 3.36095L0.704016 2.97423L0.458801 2.73868H0.764661L0.854309 2.35197ZM2.56554 2.35197L2.65782 2.73868H2.96105L2.71583 2.97423L2.80812 3.35743L2.56554 3.11837L2.32032 3.35743L2.41261 2.97072L2.17003 2.73517H2.47062L2.56554 2.35197ZM4.27413 2.35197L4.36906 2.73868H4.66701L4.42443 2.97423L4.51671 3.35743L4.2715 3.11837L4.02892 3.35743L4.1212 2.97072L3.87599 2.73517H4.17921L4.27413 2.35197ZM5.98536 2.35197L6.07765 2.73868H6.38087L6.13566 2.97423L6.23058 3.35743L5.98536 3.11837L5.74015 3.35743L5.83507 2.97072L5.58986 2.73517H5.89044L5.98536 2.35197ZM7.69396 2.35197L7.78888 2.73868H8.08947L7.84689 2.97423L7.93917 3.35743L7.69396 3.11837L7.45138 3.35743L7.54367 2.97072L7.30109 2.73517H7.60167L7.69396 2.35197ZM9.40519 2.35197L9.49747 2.73868H9.8007L9.55548 2.97423L9.6504 3.35743L9.40519 3.11837L9.15997 3.35743L9.2549 2.97072L9.00968 2.73517H9.3129L9.40519 2.35197ZM1.71124 3.32228L1.80353 3.70548H2.10675L1.86154 3.94103L1.95382 4.32775L1.71124 4.08868L1.46603 4.32423L1.55831 3.94103L1.31573 3.70548H1.61632L1.71124 3.32228ZM3.41984 3.32228L3.51476 3.70548H3.81534L3.57013 3.94103L3.66505 4.32775L3.41984 4.08868L3.17462 4.32423L3.26954 3.94103L3.02433 3.70548H3.32755L3.41984 3.32228ZM5.13107 3.32228L5.22335 3.70548H5.52658L5.28136 3.94103L5.37365 4.32775L5.13107 4.08868L4.88585 4.32423L4.97814 3.94103L4.73556 3.70548H5.03615L5.13107 3.32228ZM6.83966 3.32228L6.93458 3.70548H7.23517L6.99259 3.94103L7.08488 4.32775L6.83966 4.08868L6.59708 4.32423L6.68937 3.94103L6.44415 3.70548H6.75001L6.83966 3.32228ZM8.55089 3.32228L8.64318 3.70548H8.9464L8.70119 3.94103L8.79347 4.32775L8.55089 4.08868L8.30568 4.32423L8.39796 3.94103L8.15538 3.70548H8.45597L8.55089 3.32228ZM0.854309 4.29259L0.949231 4.67579H1.24982L1.00724 4.91134L1.09952 5.29806L0.854309 5.059L0.611731 5.29454L0.704016 4.91134L0.458801 4.67579H0.764661L0.854309 4.29259ZM2.56554 4.29259L2.65782 4.67579H2.96105L2.71583 4.91134L2.80812 5.29454L2.56554 5.059L2.32032 5.29454L2.41261 4.91134L2.17003 4.67579H2.47062L2.56554 4.29259ZM4.27413 4.29259L4.36906 4.67579H4.66701L4.42443 4.91134L4.51671 5.29806L4.2715 5.059L4.02892 5.29454L4.1212 4.91134L3.87599 4.67579H4.17921L4.27413 4.29259ZM5.98536 4.29259L6.07765 4.67579H6.38087L6.13566 4.91134L6.23058 5.29806L5.98536 5.059L5.74015 5.29454L5.83507 4.91134L5.58986 4.67579H5.89044L5.98536 4.29259ZM7.69396 4.29259L7.78888 4.67579H8.08947L7.84689 4.91134L7.93917 5.29806L7.69396 5.059L7.45138 5.29454L7.54367 4.91134L7.30109 4.67579H7.60167L7.69396 4.29259ZM9.40519 4.29259L9.49747 4.67579H9.8007L9.55548 4.91134L9.6504 5.29806L9.40519 5.059L9.15997 5.29454L9.2549 4.91134L9.00968 4.67579H9.3129L9.40519 4.29259ZM1.71124 5.2629L1.80353 5.64611H2.10675L1.86154 5.88165L1.95382 6.26486L1.71124 6.02579L1.46603 6.26486L1.55831 5.87814L1.31573 5.64259H1.61632L1.71124 5.2629ZM3.41984 5.2629L3.51476 5.64611H3.81534L3.57013 5.88165L3.66505 6.26486L3.41984 6.02579L3.17462 6.26486L3.26954 5.87814L3.02433 5.64259H3.32755L3.41984 5.2629ZM5.13107 5.2629L5.22335 5.64611H5.52658L5.28136 5.88165L5.37365 6.26486L5.13107 6.02579L4.88585 6.26486L4.97814 5.87814L4.73556 5.64259H5.03615L5.13107 5.2629ZM6.83966 5.2629L6.93458 5.64611H7.23517L6.99259 5.88165L7.08488 6.26486L6.83966 6.02579L6.59708 6.26486L6.68937 5.87814L6.44415 5.64259H6.75001L6.83966 5.2629ZM8.55089 5.2629L8.64318 5.64611H8.9464L8.70119 5.88165L8.79347 6.26486L8.55089 6.02579L8.30568 6.26486L8.39796 5.87814L8.15538 5.64259H8.45597L8.55089 5.2629ZM0.854309 6.2297L0.949231 6.61642H1.24982L1.00724 6.85196L1.09952 7.23165L0.854309 6.99611L0.611731 7.23165L0.704016 6.84845L0.458801 6.6129H0.764661L0.854309 6.2297ZM2.56554 6.2297L2.65782 6.61642H2.96105L2.71583 6.85196L2.81075 7.23165L2.56554 6.99611L2.32032 7.23165L2.41525 6.84845L2.17003 6.6129H2.47062L2.56554 6.2297ZM4.27413 6.2297L4.36906 6.61642H4.66701L4.42443 6.85196L4.51671 7.23165L4.2715 6.99611L4.02892 7.23165L4.1212 6.84845L3.87599 6.6129H4.17921L4.27413 6.2297ZM5.98536 6.2297L6.07765 6.61642H6.38087L6.13566 6.85196L6.23058 7.23165L5.98536 6.99611L5.74015 7.23165L5.83507 6.84845L5.58986 6.6129H5.89044L5.98536 6.2297ZM7.69396 6.2297L7.78888 6.61642H8.08947L7.84689 6.85196L7.93917 7.23165L7.69396 6.99611L7.45138 7.23165L7.54367 6.84845L7.30109 6.6129H7.60167L7.69396 6.2297ZM9.40519 6.2297L9.49747 6.61642H9.8007L9.55548 6.85196L9.6504 7.23165L9.40519 6.99611L9.15997 7.23165L9.2549 6.84845L9.00968 6.6129H9.3129L9.40519 6.2297ZM1.71124 7.20001L1.80353 7.58322H2.10675L1.86154 7.81876L1.95382 8.20548L1.71124 7.96642L1.46603 8.20197L1.55831 7.81876L1.31573 7.58322H1.61632L1.71124 7.20001ZM3.41984 7.20001L3.51476 7.58322H3.81534L3.57013 7.81876L3.66505 8.20548L3.41984 7.96642L3.17462 8.20197L3.26954 7.81876L3.02433 7.58322H3.32755L3.41984 7.20001ZM5.13107 7.20001L5.22335 7.58322H5.52658L5.28136 7.81876L5.37365 8.20548L5.13107 7.96642L4.88585 8.20197L4.97814 7.81876L4.73556 7.58322H5.03615L5.13107 7.20001ZM6.83966 7.20001L6.93458 7.58322H7.23517L6.99259 7.81876L7.08488 8.20548L6.83966 7.96642L6.59708 8.20197L6.68937 7.81876L6.44415 7.58322H6.75001L6.83966 7.20001ZM8.55089 7.20001L8.64318 7.58322H8.9464L8.70119 7.81876L8.79347 8.20548L8.55089 7.96642L8.30568 8.20197L8.39796 7.81876L8.15538 7.58322H8.45597L8.55089 7.20001ZM0.854309 8.17032L0.949231 8.55353H1.24982L1.00724 8.78907L1.09952 9.17228L0.854309 8.93673L0.611731 9.17228L0.704016 8.78556L0.458801 8.55001H0.764661L0.854309 8.17032ZM2.56554 8.17032L2.65782 8.55353H2.96105L2.71583 8.78907L2.81075 9.17228L2.56554 8.93673L2.32032 9.17228L2.41525 8.78556L2.17003 8.55001H2.47062L2.56554 8.17032ZM4.27413 8.17032L4.36906 8.55353H4.66701L4.4297 8.78907L4.52199 9.17228L4.27677 8.93673L4.03419 9.17228L4.12648 8.78556L3.88126 8.55001H4.18449L4.27413 8.17032ZM5.98536 8.17032L6.07765 8.55353H6.38087L6.13566 8.78907L6.23058 9.17228L5.98536 8.93673L5.74015 9.17228L5.83507 8.78556L5.58986 8.55001H5.89044L5.98536 8.17032ZM7.69396 8.17032L7.78888 8.55353H8.08947L7.84689 8.78907L7.93917 9.17228L7.69396 8.93673L7.45138 9.17228L7.54367 8.78556L7.30109 8.55001H7.60167L7.69396 8.17032ZM9.40519 8.17032L9.49747 8.55353H9.8007L9.55548 8.78907L9.6504 9.17228L9.40519 8.93673L9.15997 9.17228L9.2549 8.78556L9.00968 8.55001H9.3129L9.40519 8.17032Z" fill="white"/>
</g>
<defs>
<clipPath id="clip0_10_2512">
<rect width="18" height="18" rx="2" fill="white"/>
</clipPath>
</defs>
</svg>
