<svg width="22" height="22" viewBox="0 0 22 22" fill="none" xmlns="http://www.w3.org/2000/svg">
<path d="M13 7.10449C13 8.20906 12.1046 9.10449 11 9.10449V10.6045C12.933 10.6045 14.5 9.03749 14.5 7.10449H13ZM11 9.10449C9.89543 9.10449 9 8.20906 9 7.10449H7.5C7.5 9.03749 9.067 10.6045 11 10.6045V9.10449ZM9 7.10449C9 5.99992 9.89543 5.10449 11 5.10449V3.60449C9.067 3.60449 7.5 5.1715 7.5 7.10449H9ZM11 5.10449C12.1046 5.10449 13 5.99992 13 7.10449H14.5C14.5 5.1715 12.933 3.60449 11 3.60449V5.10449ZM8.25 13.3545H13.75V11.8545H8.25V13.3545ZM13.75 17.3545H8.25V18.8545H13.75V17.3545ZM8.25 17.3545C7.14543 17.3545 6.25 16.4591 6.25 15.3545H4.75C4.75 17.2875 6.317 18.8545 8.25 18.8545V17.3545ZM15.75 15.3545C15.75 16.4591 14.8546 17.3545 13.75 17.3545V18.8545C15.683 18.8545 17.25 17.2875 17.25 15.3545H15.75ZM13.75 13.3545C14.8546 13.3545 15.75 14.2499 15.75 15.3545H17.25C17.25 13.4215 15.683 11.8545 13.75 11.8545V13.3545ZM8.25 11.8545C6.317 11.8545 4.75 13.4215 4.75 15.3545H6.25C6.25 14.2499 7.14543 13.3545 8.25 13.3545V11.8545Z" fill="white"/>
<path d="M7.10646 9.52326C6.96187 9.29099 6.69058 9.16699 6.41699 9.16699C5.27791 9.16699 4.35449 8.24358 4.35449 7.10449C4.35449 5.9654 5.27791 5.04199 6.41699 5.04199C6.69058 5.04199 6.96187 4.91799 7.10645 4.68573C7.11285 4.67545 7.11928 4.66521 7.12576 4.65499C7.36648 4.27502 7.24451 3.73703 6.79741 3.6878C6.6725 3.67405 6.54557 3.66699 6.41699 3.66699C4.51851 3.66699 2.97949 5.20601 2.97949 7.10449C2.97949 9.00297 4.51851 10.542 6.41699 10.542C6.54557 10.542 6.6725 10.5349 6.79741 10.5212C7.24451 10.472 7.36648 9.93396 7.12576 9.55399C7.11928 9.54378 7.11285 9.53353 7.10646 9.52326Z" fill="white"/>
<path d="M4.31626 16.7908C4.2122 16.6172 4.02852 16.5003 3.82611 16.5003H3.66699C2.52791 16.5003 1.60449 15.5769 1.60449 14.4378C1.60449 13.2987 2.52791 12.3753 3.66699 12.3753H3.82611C4.02852 12.3753 4.2122 12.2585 4.31626 12.0849C4.57027 11.6611 4.29462 11.0003 3.80054 11.0003H3.66699C1.76851 11.0003 0.229492 12.5393 0.229492 14.4378C0.229492 16.3363 1.76851 17.8753 3.66699 17.8753H3.80054C4.29462 17.8753 4.57027 17.2146 4.31626 16.7908Z" fill="white"/>
<path d="M14.8749 9.55399C14.6342 9.93396 14.7561 10.472 15.2032 10.5212C15.3282 10.5349 15.4551 10.542 15.5837 10.542C17.4821 10.542 19.0212 9.00297 19.0212 7.10449C19.0212 5.20601 17.4821 3.66699 15.5837 3.66699C15.4551 3.66699 15.3282 3.67405 15.2032 3.6878C14.7561 3.73703 14.6342 4.27502 14.8749 4.65499C14.8814 4.66521 14.8878 4.67545 14.8942 4.68572C15.0388 4.91799 15.3101 5.04199 15.5837 5.04199C16.7227 5.04199 17.6462 5.9654 17.6462 7.10449C17.6462 8.24358 16.7227 9.16699 15.5837 9.16699C15.3101 9.16699 15.0388 9.29099 14.8942 9.52326C14.8878 9.53353 14.8814 9.54378 14.8749 9.55399Z" fill="white"/>
<path d="M17.6844 16.7908C17.4304 17.2146 17.706 17.8753 18.2001 17.8753H18.3337C20.2321 17.8753 21.7712 16.3363 21.7712 14.4378C21.7712 12.5393 20.2321 11.0003 18.3337 11.0003H18.2001C17.706 11.0003 17.4304 11.6611 17.6844 12.0849C17.7885 12.2585 17.9721 12.3753 18.1745 12.3753H18.3337C19.4727 12.3753 20.3962 13.2987 20.3962 14.4378C20.3962 15.5769 19.4727 16.5003 18.3337 16.5003H18.1745C17.9721 16.5003 17.7885 16.6172 17.6844 16.7908Z" fill="white"/>
</svg>
