<svg width="17" height="21" viewBox="0 0 17 21" fill="none" xmlns="http://www.w3.org/2000/svg">
<path d="M11.75 5C11.75 6.79493 10.2949 8.25 8.5 8.25V9.75C11.1234 9.75 13.25 7.62335 13.25 5H11.75ZM8.5 8.25C6.70507 8.25 5.25 6.79493 5.25 5H3.75C3.75 7.62335 5.87665 9.75 8.5 9.75V8.25ZM5.25 5C5.25 3.20507 6.70507 1.75 8.5 1.75V0.25C5.87665 0.25 3.75 2.37665 3.75 5H5.25ZM8.5 1.75C10.2949 1.75 11.75 3.20507 11.75 5H13.25C13.25 2.37665 11.1234 0.25 8.5 0.25V1.75ZM5.5 12.75H11.5V11.25H5.5V12.75ZM11.5 19.25H5.5V20.75H11.5V19.25ZM5.5 19.25C3.70507 19.25 2.25 17.7949 2.25 16H0.75C0.75 18.6234 2.87665 20.75 5.5 20.75V19.25ZM14.75 16C14.75 17.7949 13.2949 19.25 11.5 19.25V20.75C14.1234 20.75 16.25 18.6234 16.25 16H14.75ZM11.5 12.75C13.2949 12.75 14.75 14.2051 14.75 16H16.25C16.25 13.3766 14.1234 11.25 11.5 11.25V12.75ZM5.5 11.25C2.87665 11.25 0.75 13.3766 0.75 16H2.25C2.25 14.2051 3.70507 12.75 5.5 12.75V11.25Z" fill="#9DA6CA"/>
</svg>
