<svg width="12" height="17" viewBox="0 0 12 17" fill="none" xmlns="http://www.w3.org/2000/svg">
<path d="M4.03503 5.03724C4.73819 5.03724 5.34513 4.57049 5.5541 3.90615C5.69822 3.44795 6.30178 3.44795 6.4459 3.90615C6.65487 4.57049 7.26181 5.03724 7.96497 5.03724C8.18252 5.03724 8.34487 5.17103 8.41088 5.38088C8.47729 5.59201 8.42304 5.81382 8.23453 5.9553C7.67703 6.37371 7.45222 7.10543 7.66032 7.76705C7.73715 8.01131 7.64521 8.22047 7.48398 8.34147C7.32539 8.46049 7.12679 8.47801 6.94486 8.34147C6.38273 7.91958 5.61727 7.91958 5.05514 8.34147C4.8732 8.47801 4.67461 8.46049 4.51602 8.34147C4.35479 8.22047 4.26284 8.01131 4.33968 7.76705C4.54778 7.10543 4.32297 6.37371 3.76546 5.9553C3.57696 5.81382 3.52271 5.59201 3.58912 5.38088C3.65513 5.17103 3.81748 5.03724 4.03503 5.03724Z" fill="#8990AE"/>
<path fill-rule="evenodd" clip-rule="evenodd" d="M6 12C9.1066 12 11.625 9.4816 11.625 6.375C11.625 3.2684 9.1066 0.75 6 0.75C2.8934 0.75 0.375 3.2684 0.375 6.375C0.375 9.4816 2.8934 12 6 12ZM7.51907 3.56859C7.0447 2.06047 4.9553 2.06047 4.48093 3.56859C4.4133 3.7836 4.22695 3.91224 4.03503 3.91224C2.45323 3.91224 1.88093 5.94753 3.09017 6.85508C3.2568 6.98014 3.335 7.21175 3.26651 7.42949C3.0341 8.16839 3.33219 8.85959 3.84072 9.24125C4.35189 9.62488 5.10276 9.71233 5.73044 9.24125C5.89245 9.11966 6.10755 9.11966 6.26956 9.24125C6.89724 9.71233 7.64811 9.62488 8.15928 9.24125C8.66781 8.85959 8.9659 8.16839 8.73349 7.42949C8.665 7.21175 8.7432 6.98014 8.90983 6.85508C10.1191 5.94753 9.54677 3.91224 7.96497 3.91224C7.77305 3.91224 7.5867 3.7836 7.51907 3.56859Z" fill="#8990AE"/>
<path d="M6 13.125C7.7288 13.125 9.3058 12.4751 10.5 11.4062V14.909C10.5 16.0822 10.5 16.6687 10.1258 16.8361C9.75153 17.0035 9.29354 16.6218 8.37755 15.8583L7.67346 15.2714C6.8749 14.6058 6.47562 14.273 6 14.273C5.52438 14.273 5.1251 14.6058 4.32654 15.2714L3.62245 15.8583C2.70646 16.6218 2.24847 17.0035 1.87423 16.8361C1.5 16.6687 1.5 16.0822 1.5 14.909V11.4062C2.6942 12.4751 4.2712 13.125 6 13.125Z" fill="#8990AE"/>
</svg>
