<svg width="18" height="14" viewBox="0 0 18 14" fill="none" xmlns="http://www.w3.org/2000/svg">
<path d="M9.57715 0.498384C8.95088 0.315845 8.34916 0.565799 7.77201 0.929894C7.19235 1.29557 6.48883 1.87541 5.60862 2.60087L4.82848 3.24384C4.67888 3.36714 4.61839 3.4168 4.55843 3.46147C4.05078 3.83976 3.44198 4.05832 2.80963 4.08926C2.73495 4.09292 2.65669 4.09307 2.46283 4.09307L2.43165 4.09307C2.26454 4.09302 2.13578 4.09298 2.02066 4.10586C1.06318 4.213 0.307441 4.96874 0.200303 5.92622C0.187422 6.04134 0.187458 6.1701 0.187506 6.33721V7.25965C0.187458 7.42676 0.187422 7.55552 0.200303 7.67064C0.30744 8.62812 1.06318 9.38386 2.02066 9.49099C2.13578 9.50388 2.26454 9.50384 2.43166 9.50379L2.46283 9.50379C2.65669 9.50379 2.73495 9.50394 2.80963 9.5076C3.44198 9.53854 4.05078 9.75709 4.55844 10.1354C4.61839 10.1801 4.67888 10.2297 4.82848 10.353L5.60861 10.996C6.48882 11.7214 7.19235 12.3013 7.77201 12.667C8.34916 13.0311 8.95088 13.281 9.57715 13.0985C9.785 13.0379 9.98202 12.945 10.161 12.8231C10.7001 12.4559 10.89 11.8326 10.9761 11.1556C11.0625 10.4758 11.0625 9.56408 11.0625 8.42344V5.17342C11.0625 4.03277 11.0625 3.12109 10.9761 2.44121C10.89 1.76426 10.7001 1.14096 10.161 0.773765C9.98202 0.651898 9.785 0.558966 9.57715 0.498384Z" fill="#8990AE"/>
<path d="M14.6478 1.15068C14.4281 0.931011 14.0719 0.931011 13.8523 1.15068C13.6326 1.37035 13.6326 1.72651 13.8523 1.94618L14.3773 2.47118C14.8338 2.92771 15.0355 3.13018 15.1872 3.31172C16.8739 5.3302 16.8739 8.26666 15.1872 10.2851C15.0355 10.4667 14.8338 10.6691 14.3773 11.1257L13.8523 11.6507C13.6326 11.8704 13.6326 12.2265 13.8523 12.4462C14.0719 12.6658 14.4281 12.6658 14.6478 12.4462L15.1995 11.8944C15.6222 11.4718 15.8623 11.2317 16.0504 11.0065C18.0862 8.57043 18.0862 5.02643 16.0504 2.59034C15.8623 2.3652 15.6221 2.12504 15.1995 1.70239L14.6478 1.15068Z" fill="#8990AE"/>
<path d="M13.1478 3.40068C12.9281 3.18101 12.5719 3.18101 12.3523 3.40068C12.1326 3.62035 12.1326 3.97651 12.3523 4.19618L12.6523 4.49618C12.6985 4.54245 12.7175 4.56139 12.7327 4.57703C13.9347 5.81403 13.9347 7.78282 12.7327 9.01982C12.7175 9.03546 12.6985 9.05441 12.6523 9.10068L12.3523 9.40068C12.1326 9.62035 12.1326 9.97651 12.3523 10.1962C12.5719 10.4158 12.9281 10.4158 13.1478 10.1962L13.4518 9.89216C13.4928 9.85116 13.518 9.82598 13.5395 9.80385C15.1658 8.13026 15.1658 5.4666 13.5395 3.79301C13.5179 3.77084 13.4929 3.74579 13.4517 3.70467L13.1478 3.40068Z" fill="#8990AE"/>
</svg>
