<svg width="16" height="16" viewBox="0 0 16 16" fill="none" xmlns="http://www.w3.org/2000/svg">
<g clip-path="url(#clip0_199_9592)">
<path d="M2.92502 14.1751L3.3169 13.5357L2.92502 14.1751ZM1.82455 13.0747L2.46403 12.6828L1.82455 13.0747ZM14.1755 13.0747L13.536 12.6828L14.1755 13.0747ZM13.075 14.1751L12.6831 13.5357L13.075 14.1751ZM13.075 3.82421L12.6831 4.46369L13.075 3.82421ZM14.1755 4.92468L13.536 5.31655L14.1755 4.92468ZM2.92502 3.82421L3.3169 4.46369L2.92502 3.82421ZM1.82455 4.92468L2.46403 5.31655L1.82455 4.92468ZM12.3179 1.69731L12.8591 1.17813V1.17813L12.3179 1.69731ZM2.56283 1.92687L3.01568 2.52472H3.01568L2.56283 1.92687ZM1.90298 2.61479L2.5183 3.0436L1.90298 2.61479ZM12.6667 3.41989H13.4167L13.4167 3.41618L12.6667 3.41989ZM12.2424 9.32544C12.6567 9.32544 12.9924 8.98966 12.9924 8.57544C12.9924 8.16123 12.6567 7.82544 12.2424 7.82544V9.32544ZM10.4243 7.82544C10.01 7.82544 9.67426 8.16123 9.67426 8.57544C9.67426 8.98966 10.01 9.32544 10.4243 9.32544V7.82544ZM7.00002 4.08301H9.00002V2.58301H7.00002V4.08301ZM9.00002 13.9163H7.00002V15.4163H9.00002V13.9163ZM7.00002 13.9163C5.89435 13.9163 5.11777 13.9156 4.51574 13.8583C3.92487 13.8021 3.58003 13.6969 3.3169 13.5357L2.53315 14.8146C3.07158 15.1446 3.67309 15.285 4.37376 15.3516C5.06327 15.4171 5.9234 15.4163 7.00002 15.4163V13.9163ZM0.583352 8.99967C0.583352 10.0763 0.582561 10.9364 0.64812 11.6259C0.714739 12.3266 0.855121 12.9281 1.18507 13.4665L2.46403 12.6828C2.30278 12.4197 2.19757 12.0748 2.14138 11.484C2.08414 10.8819 2.08335 10.1053 2.08335 8.99967H0.583352ZM3.3169 13.5357C2.9693 13.3227 2.67704 13.0304 2.46403 12.6828L1.18507 13.4665C1.52177 14.016 1.98371 14.4779 2.53315 14.8146L3.3169 13.5357ZM9.00002 15.4163C10.0766 15.4163 10.9368 15.4171 11.6263 15.3516C12.3269 15.285 12.9285 15.1446 13.4669 14.8146L12.6831 13.5357C12.42 13.6969 12.0752 13.8021 11.4843 13.8583C10.8823 13.9156 10.1057 13.9163 9.00002 13.9163V15.4163ZM13.536 12.6828C13.323 13.0304 13.0307 13.3227 12.6831 13.5357L13.4669 14.8146C14.0163 14.4779 14.4783 14.016 14.815 13.4665L13.536 12.6828ZM12.6831 4.46369C13.0307 4.6767 13.323 4.96895 13.536 5.31655L14.815 4.53281C14.4783 3.98337 14.0163 3.52142 13.4669 3.18473L12.6831 4.46369ZM7.00002 2.58301C5.9234 2.58301 5.06327 2.58222 4.37376 2.64778C3.67309 2.71439 3.07158 2.85478 2.53315 3.18473L3.3169 4.46369C3.58003 4.30244 3.92487 4.19722 4.51574 4.14104C5.11777 4.0838 5.89435 4.08301 7.00002 4.08301V2.58301ZM2.08335 8.99967C2.08335 7.89401 2.08414 7.11743 2.14138 6.5154C2.19757 5.92453 2.30278 5.57969 2.46403 5.31655L1.18507 4.53281C0.855121 5.07124 0.714739 5.67275 0.64812 6.37342C0.582561 7.06292 0.583352 7.92305 0.583352 8.99967H2.08335ZM2.53315 3.18473C1.98371 3.52142 1.52177 3.98337 1.18507 4.53281L2.46403 5.31655C2.67704 4.96895 2.9693 4.6767 3.3169 4.46369L2.53315 3.18473ZM6.70207 2.08301H10.2812V0.583008H6.70207V2.08301ZM10.2812 2.08301C10.8657 2.08301 11.2255 2.08474 11.4862 2.12128C11.7221 2.15434 11.763 2.20232 11.7766 2.21648L12.8591 1.17813C12.5233 0.827995 12.1083 0.693821 11.6944 0.635806C11.3054 0.581279 10.8215 0.583008 10.2812 0.583008V2.08301ZM6.70207 0.583008C5.60107 0.583008 4.71254 0.58189 4.00348 0.661979C3.27846 0.743871 2.65229 0.918243 2.10999 1.32901L3.01568 2.52472C3.2574 2.34163 3.58244 2.21907 4.17184 2.1525C4.77719 2.08413 5.56626 2.08301 6.70207 2.08301V0.583008ZM2.08335 6.93009C2.08335 5.74808 2.0843 4.91938 2.15054 4.282C2.2155 3.6569 2.33644 3.30456 2.5183 3.0436L1.28766 2.18597C0.899894 2.74239 0.736018 3.38173 0.658573 4.12695C0.582404 4.85989 0.583352 5.78015 0.583352 6.93009H2.08335ZM2.10999 1.32901C1.79327 1.56891 1.516 1.85832 1.28766 2.18597L2.5183 3.0436C2.6579 2.84329 2.82597 2.66841 3.01568 2.52472L2.10999 1.32901ZM13.4167 3.41618C13.4145 2.96718 13.4052 2.5561 13.3446 2.20839C13.2807 1.84159 13.1497 1.48106 12.8591 1.17813L11.7766 2.21648C11.7932 2.23376 11.8343 2.27919 11.8669 2.46598C11.9028 2.67184 11.9144 2.96195 11.9167 3.4236L13.4167 3.41618ZM0.583352 6.93009C0.583352 7.57175 0.569893 8.17847 0.583615 8.68659L2.08307 8.64609C2.07001 8.16247 2.08335 7.62449 2.08335 6.93009H0.583352ZM14.3333 9.64362H10.4243V11.1436H14.3333V9.64362ZM7.85608 8.57544C7.85608 9.99381 9.00589 11.1436 10.4243 11.1436V9.64362C9.83432 9.64362 9.35608 9.16538 9.35608 8.57544H7.85608ZM9.35608 8.57544C9.35608 7.9855 9.83432 7.50726 10.4243 7.50726V6.00726C9.00589 6.00726 7.85608 7.15707 7.85608 8.57544H9.35608ZM12.2424 7.82544H10.4243V9.32544H12.2424V7.82544ZM9.00002 4.08301C9.92597 4.08301 10.624 4.08333 11.187 4.11807C11.7491 4.15276 12.1198 4.21946 12.4004 4.32602L12.933 2.92374C12.445 2.73843 11.8997 2.6592 11.2793 2.62092C10.6598 2.58269 9.90873 2.58301 9.00002 2.58301V4.08301ZM12.4004 4.32602C12.5047 4.36561 12.5974 4.41113 12.6831 4.46369L13.4669 3.18473C13.2973 3.0808 13.12 2.99476 12.933 2.92374L12.4004 4.32602ZM11.9167 3.41989V3.62488H13.4167V3.41989H11.9167ZM10.4243 7.50726H14.6296V6.00726H10.4243V7.50726ZM15.4167 8.99967C15.4167 8.08629 15.417 7.3321 15.3782 6.71048L13.8811 6.80404C13.9164 7.36834 13.9167 8.06878 13.9167 8.99967H15.4167ZM15.3782 6.71048C15.3251 5.8608 15.1952 5.15323 14.815 4.53281L13.536 5.31655C13.7231 5.62184 13.8329 6.03311 13.8811 6.80404L15.3782 6.71048ZM13.9167 8.99967C13.9167 9.52528 13.9167 9.97949 13.91 10.3812L15.4098 10.4061C15.4167 9.98941 15.4167 9.52171 15.4167 8.99967H13.9167ZM13.91 10.3812C13.8882 11.692 13.7891 12.2698 13.536 12.6828L14.815 13.4665C15.3085 12.6612 15.3885 11.6862 15.4098 10.4061L13.91 10.3812ZM14.3333 11.1436H14.6599V9.64362H14.3333V11.1436Z" fill="white"/>
</g>
<defs>
<clipPath id="clip0_199_9592">
<rect width="16" height="16" fill="white"/>
</clipPath>
</defs>
</svg>
