<svg width="187" height="65" viewBox="0 0 187 65" fill="none" xmlns="http://www.w3.org/2000/svg">
<g clip-path="url(#clip0_55_5430)">
<path d="M23.4593 61.2015C34.646 61.2015 43.7145 52.1094 43.7145 40.8937C43.7145 29.678 34.646 20.5859 23.4593 20.5859C12.2727 20.5859 3.2041 29.678 3.2041 40.8937C3.2041 52.1094 12.2727 61.2015 23.4593 61.2015Z" fill="url(#paint0_radial_55_5430)"/>
<path opacity="0.11" d="M5.01789 42.1635C5.01789 31.4329 13.6933 22.7349 24.3962 22.7349C28.9794 22.7349 33.1916 24.3317 36.5081 26.9993C33.0829 23.7268 28.4472 21.7167 23.3431 21.7167C12.8052 21.7167 4.26465 30.2794 4.26465 40.8447C4.26465 44.4329 5.25024 47.7918 6.96659 50.6586C5.71867 48.0924 5.01789 45.2106 5.01789 42.1635Z" fill="white"/>
<path d="M16.6801 25.8947C16.8225 26.2968 18.0779 26.2103 19.4757 25.7031C20.8773 25.1959 21.8966 24.4632 21.7542 24.0612C21.6118 23.6592 20.3564 23.7456 18.9586 24.2528C17.5533 24.76 16.5339 25.4927 16.6801 25.8947Z" fill="white"/>
<path opacity="0.8" d="M22.4288 44.632C23.137 44.8011 23.8078 44.5418 23.9203 44.0534C24.0364 43.5649 23.553 43.0352 22.841 42.8661C22.1327 42.697 21.4619 42.9563 21.3495 43.4447C21.2371 43.9331 21.7167 44.4629 22.4288 44.632Z" fill="white"/>
<path d="M10.9464 30.2343C11.1038 30.0427 11.1301 29.8022 10.9989 29.6933C10.8677 29.5843 10.6354 29.6482 10.4742 29.8398C10.3131 30.0314 10.2906 30.2719 10.4218 30.3809C10.5529 30.4936 10.7853 30.4259 10.9464 30.2343Z" fill="white"/>
<path d="M39.3187 23.8021L27.9376 18.572C27.9376 18.572 26.5772 22.7989 26.1613 24.2116C25.824 25.3613 28.5447 27.4241 30.5458 28.2882C32.7494 29.2388 35.6274 29.6634 36.3357 29.0359H36.3395L39.3187 23.8021Z" fill="url(#paint1_radial_55_5430)"/>
<path opacity="0.35" d="M36.3582 29.0322L38.4118 25.4327C35.9984 27.9012 31.8874 28.0628 28.9082 26.3157C26.7234 25.0345 27.0119 22.6486 27.4129 20.2778C27.4129 20.2778 26.5997 22.7989 26.1837 24.2116C25.8465 25.3614 28.5672 27.4241 30.5683 28.2882C32.7681 29.2388 35.6499 29.6634 36.3582 29.0322Z" fill="#350A0A"/>
<path d="M39.3187 23.802C38.8428 24.8427 35.9085 24.5159 32.7681 23.0693C29.6277 21.6228 27.4616 19.6127 27.9376 18.5719C28.4135 17.5312 31.3478 17.8581 34.4882 19.3046C37.6323 20.7474 39.7947 22.7612 39.3187 23.802Z" fill="url(#paint2_radial_55_5430)"/>
<path d="M36.6707 22.2346C36.869 21.8007 35.7684 20.8693 34.2124 20.1542C32.6563 19.4391 31.2341 19.2112 31.0358 19.6451C30.8374 20.0789 31.938 21.0104 33.4941 21.7254C35.0501 22.4405 36.4723 22.6685 36.6707 22.2346Z" fill="#EA2A81"/>
<path d="M27.8289 18.9064C27.7727 19.7631 28.9831 20.8714 29.6502 21.4012C33.1016 24.1365 38.127 25.1885 39.1651 24.0764L39.2625 23.9073C39.285 23.8735 39.3037 23.8396 39.3187 23.8058C39.3037 23.7983 39.255 23.8998 39.1164 24.0125C37.5611 25.4816 28.3123 21.5365 27.9188 18.9327C27.9151 18.9064 27.9113 18.8839 27.9113 18.8613C27.9076 18.681 27.9526 18.5795 27.9338 18.572C27.9113 18.6209 27.8926 18.6735 27.8851 18.7298C27.8701 18.7787 27.8514 18.835 27.8289 18.9064Z" fill="#C3E6E6"/>
<path d="M31.2991 19.4549C32.6894 19.4023 35.5937 20.552 36.6767 22.0248C36.3432 20.7398 32.5582 19.0942 31.2991 19.4549Z" fill="#C3E6E6"/>
<path d="M33.6188 21.6041C32.4983 21.0593 31.7188 20.2027 31.5389 19.4249C31.2691 19.4362 31.0892 19.5076 31.0255 19.6428C30.8269 20.0749 31.9287 21.0067 33.4876 21.7206C35.0428 22.4345 36.4669 22.6637 36.6655 22.2316C36.7067 22.1376 36.6917 22.0212 36.6205 21.8897C35.9048 22.2353 34.743 22.1527 33.6188 21.6041Z" fill="#A3C5CC"/>
<path opacity="0.35" d="M33.8511 19.237C32.4046 18.4592 28.8969 17.6401 28.2224 18.4592C27.4017 19.4511 30.1261 21.5589 32.4571 22.6109C29.8413 21.0029 28.6346 19.2294 29.0581 18.6358C29.4478 18.0835 32.0523 18.5494 33.8511 19.237Z" fill="#350A0A"/>
<path d="M48.4663 10.0994C48.4101 10.8132 48.2377 12.9812 43.5421 12.7971C43.1299 12.782 42.639 12.658 42.0694 12.5153C40.5067 12.1245 38.3631 11.591 36.0172 13.03C34.2296 14.1271 33.4389 16.6294 33.0866 18.5381C32.9105 19.4924 32.8168 20.4618 32.7831 21.3635C33.0042 21.4838 33.2403 21.604 33.4876 21.7167C33.6562 21.7956 33.8211 21.867 33.986 21.9309C34.0235 19.0153 34.7543 15.2392 36.6542 14.0745C38.5655 12.9023 40.2706 13.3268 41.7771 13.7025C42.3842 13.8528 42.9575 13.9956 43.4934 14.0181C48.3389 14.2098 49.5344 12.0456 49.6805 10.1971L48.4663 10.0994Z" fill="url(#paint3_radial_55_5430)"/>
<path d="M43.0025 13.8415C41.9607 13.7062 40.428 12.9848 38.809 13.0787C37.385 13.1652 36.3432 13.8978 35.53 14.901C34.5257 16.1371 34.2858 17.5686 33.9823 19.0114C33.6825 20.4542 33.1503 21.1831 32.8355 20.4692C32.8093 20.7735 32.7943 21.0704 32.7831 21.3634C33.0042 21.4837 33.2403 21.6039 33.4876 21.7166C33.6562 21.7955 33.8211 21.8669 33.986 21.9308C34.0235 19.0152 34.7543 15.2391 36.6542 14.0744C38.5655 12.9022 40.2706 13.3267 41.7771 13.7024C42.3842 13.8527 42.9575 13.9955 43.4934 14.0181C48.3389 14.2097 49.5344 12.0455 49.6805 10.197C48.6462 14.2585 44.123 13.988 43.0025 13.8415Z" fill="#E6D7CF"/>
<path d="M33.4876 21.7205C33.6563 21.7994 33.8212 21.8708 33.986 21.9346C33.9935 21.2959 34.0348 20.6196 34.1172 19.9358V19.9396C33.8999 21.9985 33.0079 21.3936 32.8056 20.9653C32.7981 21.1005 32.7906 21.2358 32.7868 21.3673C33.0042 21.4875 33.2403 21.6078 33.4876 21.7205Z" fill="#E6D7CF"/>
<path d="M34.1323 19.8005C34.1247 19.8456 34.121 19.8907 34.1172 19.9358C34.121 19.8907 34.1285 19.8456 34.1323 19.8005Z" fill="#E6D7CF"/>
<path d="M37.6436 12.3161C38.5917 12.132 39.6485 12.1433 40.5404 12.3161C41.3911 12.4815 42.2005 12.6618 43.1337 12.752C42.8189 12.6994 42.4666 12.613 42.0731 12.5153C40.8777 12.2222 39.3449 11.839 37.6436 12.3161Z" fill="#E6D7CF"/>
<path d="M33.6712 17.8618C33.4951 17.8092 33.7724 15.8216 34.8779 14.2925C35.6274 13.263 36.3994 12.8159 37.3513 12.5378C38.2169 12.2861 36.8154 12.9812 36.257 13.4208C35.6986 13.8641 34.9154 14.9011 34.5069 15.8029C34.046 16.8286 33.8511 17.9107 33.6712 17.8618Z" fill="#806F66"/>
<path d="M41.4323 12.6693C42.193 12.8309 43.2986 12.9849 44.4453 12.9511C45.5883 12.9173 46.5439 12.752 47.5182 12.2034C48.0616 11.8991 47.833 12.5528 47.0423 12.8647C45.8693 13.3343 44.6289 13.417 43.1299 13.3081C42.6427 13.2742 42.2268 13.1427 41.6796 13.0338C41.0763 12.9173 41.0463 12.5867 41.4323 12.6693Z" fill="#806F66"/>
<path d="M43.6283 21.4087C43.9694 19.8119 44.1193 16.374 43.3735 15.5587C42.6278 14.7396 40.0045 16.2876 38.3219 16.9113C40.4992 15.3596 41.526 14.3789 41.5635 13.3382C41.6009 12.3726 38.4381 9.62605 36.5081 8.58154C38.2769 9.17518 41.7696 10.6217 43.2798 9.74629C44.6327 8.96478 44.9624 4.37721 44.5202 -0.0788574C45.6745 3.3853 46.2216 8.58906 47.4845 8.83328C48.7512 9.0775 51.8578 7.41681 53.6042 5.68849C52.2925 7.52577 50.6849 9.41189 50.9622 11.1853C51.2432 12.9888 52.6111 14.3113 54.7996 15.4084C52.36 14.5555 50.846 14.1685 50.0141 14.6419C48.8374 15.3107 51.5843 20.3341 52.1389 21.0856C50.5649 19.2558 48.2602 16.6896 47.2147 16.7911C46.1729 16.8888 44.6364 19.5076 43.6283 21.4087Z" fill="#E51010"/>
<path d="M47.4133 18.324C47.1248 17.3133 46.3228 14.9989 45.6707 15.0327C44.9624 15.0702 43.6733 16.2538 42.9088 17.1179C43.6771 15.5775 43.9993 14.5931 43.707 13.9919C43.4372 13.4321 40.7353 13.0113 39.3262 13.0038C40.769 12.7107 43.3698 12.2035 43.9656 11.2454C44.4978 10.3925 43.7108 9.224 42.3767 7.11244C44.078 8.72804 45.2847 9.69741 46.0755 9.44943C46.8662 9.20521 48.3015 7.44307 49.0247 6.04163C48.8336 7.48064 48.3614 8.80695 49.051 9.73122C49.7555 10.6705 51.1908 10.6292 52.8659 11.0049C51.2245 11.2604 49.6393 11.6624 49.4519 12.3951C49.2346 13.2405 51.4419 14.9538 52.1014 15.6376C50.6586 15.0778 49.006 13.8153 48.5338 14.2211C47.9717 14.5968 47.4096 16.9413 47.4133 18.324Z" fill="url(#paint4_radial_55_5430)"/>
<path d="M48.4176 14.8787C48.0429 14.4654 47.121 13.5486 46.8175 13.7177C46.4877 13.9018 46.1504 14.7697 45.9893 15.3634C45.993 14.4466 45.9181 13.9018 45.637 13.6839C45.3784 13.481 43.9918 13.9168 43.3173 14.2437C43.9356 13.7628 45.0599 12.9099 45.1161 12.3125C45.1686 11.779 44.5202 11.407 43.3885 10.7157C44.5765 11.0839 45.3784 11.2642 45.7007 10.9599C46.0192 10.6556 46.2928 9.47956 46.3078 8.63794C46.5551 9.3706 46.6376 10.1145 47.1847 10.3888C47.7393 10.6706 48.4139 10.3137 49.302 10.0957C48.5788 10.603 47.9192 11.1703 48.0017 11.5611C48.0954 12.0157 49.5494 12.3125 50.0253 12.4816C49.2046 12.5567 48.1216 12.3426 47.9942 12.6469C47.8105 12.97 48.0916 14.2212 48.4176 14.8787Z" fill="url(#paint5_radial_55_5430)"/>
<path d="M47.7843 12.2673L48.4776 12.1058L47.4021 12.087L51.3219 10.5879L47.6119 11.4896L48.0729 10.9561L47.0011 11.5647L48.5525 9.18643L47.0123 10.9598L47.2447 9.6899L46.7388 10.8885L46.454 6.65405L46.3715 11.1327L45.8544 10.2873L45.948 10.9861L44.3254 9.28411L45.5358 11.3093L44.3516 10.6292L45.3672 11.5384L41.7021 10.787L45.6145 11.9893L43.5347 12.0908L45.2285 12.3275L43.1112 13.3457L45.7719 12.6844L45.0749 13.2856L45.5808 13.0413L43.9169 15.4347L46.0005 13.3457L45.7045 14.6682L46.409 12.8948L46.7537 17.2532L46.7987 13.4133L47.1585 14.0182L47.0648 13.3194L48.6875 15.0214L47.2259 12.6543L48.3802 13.5185L47.6457 12.7671L49.3807 12.9474L47.7843 12.2673Z" fill="url(#paint6_radial_55_5430)"/>
<path d="M42.0731 38.4064C42.1968 38.5718 42.3167 38.7483 42.4254 38.9362C42.4254 38.9362 42.3617 38.7033 42.0731 38.4064Z" fill="#231F20"/>
<path d="M32.3709 37.0425C32.3296 37.0275 32.2847 37.0162 32.2397 37.0087L31.0068 37.4295C30.9918 37.4483 30.9768 37.4633 30.9618 37.4821L32.3709 37.0425Z" fill="white"/>
<path d="M31.0068 37.4295C31.3965 37.2867 31.8125 37.1439 32.2435 37.0087L32.3746 37.0425L30.9656 37.4821C30.9243 37.5347 30.8906 37.591 30.8569 37.6511C30.8007 37.7563 30.7594 37.8653 30.7332 37.9743L32.8693 37.3431L34.6793 36.8095L36.4257 36.291C36.3882 36.2647 36.3507 36.2347 36.3095 36.2084C36.4631 36.1971 36.613 36.1933 36.7629 36.1896C36.9128 36.1858 37.059 36.1858 37.2089 36.1896C39.1126 36.2347 40.8852 36.8208 42.0731 38.4063C41.5972 37.9179 40.5104 37.2566 38.0895 37.1702C37.9734 37.1665 37.8534 37.1627 37.7298 37.1627C37.6099 37.1589 37.4862 37.1589 37.3625 37.1627C36.7817 37.1702 36.1371 37.2078 35.4213 37.2792C34.7168 37.3543 33.9373 37.4633 33.0829 37.6173C32.3484 37.7488 31.5614 37.9142 30.7107 38.1133C30.4709 38.1696 30.2236 38.2298 29.9725 38.2936C29.3916 38.4402 28.7808 38.6017 28.1437 38.7821C28.0313 38.8121 27.9188 38.8459 27.8064 38.876C27.7689 38.8873 27.7315 38.8985 27.6902 38.9098C27.6902 38.9098 27.7352 38.8873 27.8177 38.8422C27.9039 38.7971 28.0313 38.7295 28.1924 38.6506C28.6683 38.4101 29.4591 38.0381 30.4334 37.6549L31.0068 37.4295Z" fill="#231F20"/>
<path d="M27.8177 38.8384C27.8139 38.8496 27.8102 38.8609 27.8064 38.8722C26.9333 41.4647 28.0163 44.3878 30.4971 45.7366C33.274 47.2508 36.7479 46.2213 38.2544 43.441C39.3787 41.367 39.0976 38.906 37.7298 37.1589C37.4525 36.8019 37.1264 36.4751 36.7629 36.1895L36.4219 36.291L32.8655 37.343L30.7295 37.9742L30.0324 38.1808L28.1587 38.7369L27.8177 38.8384Z" fill="url(#paint7_radial_55_5430)"/>
<path d="M27.6902 38.9061C27.7277 38.8948 27.7689 38.8835 27.8064 38.8722C26.9333 41.4647 28.0163 44.3879 30.4971 45.7367C33.274 47.2509 36.7479 46.2214 38.2544 43.441C39.3787 41.367 39.0976 38.9061 37.7298 37.1589C37.8535 37.1589 37.9734 37.1627 38.0895 37.1665C37.8347 36.8133 37.5387 36.4826 37.2051 36.1896C37.059 36.1858 36.9091 36.1858 36.7592 36.1896C36.6093 36.1933 36.4556 36.1971 36.3057 36.2084C36.3432 36.2347 36.3844 36.2647 36.4219 36.291C36.7742 36.5465 37.089 36.8396 37.3625 37.1589C38.7828 38.8272 39.1126 41.2694 38.0034 43.3058C36.5718 45.9471 33.2628 46.924 30.6283 45.4887C28.2186 44.1737 27.1956 41.2844 28.1399 38.7783C28.1437 38.7633 28.1512 38.752 28.1549 38.737C28.1662 38.7069 28.1774 38.6769 28.1924 38.6431C28.0275 38.7257 27.9001 38.7896 27.8177 38.8347C27.7352 38.8835 27.6902 38.9061 27.6902 38.9061Z" fill="white"/>
<path d="M29.9275 38.3613C28.9681 40.1309 29.6202 42.3402 31.3815 43.3058C33.1466 44.2676 35.3501 43.6139 36.3132 41.848C37.1639 40.2812 36.7479 38.3688 35.4176 37.2829C35.2452 37.1439 35.0578 37.0162 34.8592 36.9072C34.7992 36.8734 34.7355 36.8434 34.6756 36.8133L32.8655 37.3468L30.7295 37.978C30.7557 37.8691 30.7969 37.7601 30.8531 37.6549C30.8868 37.5948 30.9206 37.5384 30.9618 37.4858L30.4334 37.6511C30.2872 37.8127 30.1523 37.9931 30.0324 38.1847C30.0099 38.2185 29.9912 38.2561 29.9687 38.2936C29.9537 38.3124 29.9425 38.3387 29.9275 38.3613Z" fill="#231F20"/>
<path d="M32.8693 37.3431L30.7332 37.9744C30.722 38.0194 30.7145 38.0645 30.7107 38.1096C30.6508 38.6168 30.8944 39.1316 31.3703 39.3908C31.9924 39.729 32.7681 39.4998 33.1054 38.8761C33.3265 38.4665 33.304 37.9856 33.0829 37.6136C33.0229 37.516 32.9517 37.4258 32.8693 37.3431Z" fill="white"/>
<path d="M42.4254 38.9361C42.4254 38.9361 41.3461 34.9572 27.6902 38.9061C27.6902 38.9061 38.7903 32.7705 42.4254 38.9361Z" fill="#231F20"/>
<path d="M22.5712 36.0394C22.5674 36.0507 22.5637 36.0619 22.5599 36.077C21.743 38.6845 19.1497 40.409 16.3541 40.0371C13.2212 39.62 11.0176 36.7382 11.4336 33.5972C11.7409 31.2564 13.416 29.4342 15.5483 28.8293C15.9831 28.7053 16.4365 28.6339 16.9012 28.6151L17.1148 28.8969L19.3708 31.8463L20.7274 33.6197L21.1696 34.1983L22.3575 35.7538L22.5712 36.0394Z" fill="url(#paint8_radial_55_5430)"/>
<path opacity="0.86" d="M22.5712 36.0394C22.53 35.9529 22.4662 35.8252 22.3801 35.6599C22.3726 35.6937 22.3651 35.7238 22.3538 35.7576C22.3501 35.7726 22.3463 35.7839 22.3426 35.7989C21.6343 38.3801 19.1085 40.1122 16.3878 39.7515C13.416 39.357 11.3174 36.6142 11.7109 33.6347C12.0145 31.3353 13.7158 29.5581 15.8407 29.0472C16.2491 28.9495 16.6764 28.8969 17.1111 28.9006C17.1598 28.9006 17.2048 28.9006 17.2535 28.9006C17.1373 28.8029 17.0174 28.709 16.8975 28.6188C16.7775 28.5287 16.6576 28.4423 16.5377 28.3558C16.0955 28.3972 15.6645 28.4911 15.2486 28.6264C15.346 28.6902 15.4434 28.7616 15.5446 28.833C13.416 29.4379 11.7409 31.2602 11.4299 33.6009C11.0139 36.742 13.2174 39.6238 16.3503 40.0408C19.146 40.4128 21.7392 38.6882 22.5562 36.0807C22.5824 36.1107 22.6049 36.1446 22.6311 36.1746C22.6349 36.1671 22.6161 36.122 22.5712 36.0394Z" fill="white"/>
<path d="M11.3062 27.27C11.1076 27.3301 10.909 27.4052 10.7104 27.4916C10.7104 27.4916 10.8977 27.3376 11.3062 27.27Z" fill="#231F20"/>
<path d="M21.1471 34.4049C20.8848 36.4 19.056 37.8052 17.0661 37.5384C15.0762 37.2754 13.6746 35.4419 13.9407 33.4468C14.173 31.6809 15.6346 30.3771 17.3472 30.287C17.5683 30.2757 17.7931 30.2832 18.0217 30.3133C18.0892 30.3208 18.1566 30.332 18.2241 30.3471L19.3708 31.8462L20.7274 33.6196C20.7724 33.5144 20.8024 33.4017 20.8173 33.2852C20.8248 33.2176 20.8286 33.15 20.8286 33.0861L21.1584 33.5332C21.1808 33.7511 21.1846 33.9766 21.1696 34.202C21.1659 34.2433 21.1621 34.2846 21.1584 34.326C21.1546 34.3523 21.1509 34.3786 21.1471 34.4049Z" fill="#231F20"/>
<path d="M19.3708 31.8461L20.7274 33.6195C20.7087 33.6609 20.6899 33.7022 20.6674 33.7435C20.4201 34.1906 19.9179 34.4612 19.382 34.3898C18.6813 34.2958 18.1866 33.6534 18.2803 32.9508C18.3402 32.4886 18.64 32.1167 19.041 31.9401C19.1422 31.895 19.2546 31.8612 19.3708 31.8461Z" fill="white"/>
<path d="M19.9479 31.8988C19.9891 31.9138 20.0341 31.9289 20.0716 31.9476L20.8211 33.0147C20.8248 33.0372 20.8248 33.0598 20.8248 33.0823L19.9479 31.8988Z" fill="white"/>
<path d="M20.8248 33.0147C20.5925 32.669 20.3414 32.3083 20.0753 31.9476L19.9517 31.8988L20.8323 33.0861C20.8323 33.1537 20.8286 33.2176 20.8211 33.2852C20.8061 33.4017 20.7724 33.5144 20.7311 33.6196L19.3745 31.8462L18.2278 30.3471L17.1186 28.8968C17.1673 28.8968 17.2122 28.8968 17.261 28.8968C17.1448 28.7991 17.0249 28.7052 16.9049 28.615C16.785 28.5248 16.6651 28.4384 16.5452 28.352C14.9825 27.2661 13.2024 26.6913 11.3099 27.2699C11.9807 27.1534 13.2474 27.2624 15.256 28.6225C15.3535 28.6864 15.4509 28.7578 15.5521 28.8292C15.6495 28.8968 15.7507 28.9719 15.8519 29.0471C16.3166 29.3927 16.815 29.806 17.3509 30.2869C17.8793 30.7641 18.4414 31.3127 19.041 31.9401C19.5544 32.4812 20.0978 33.0786 20.6674 33.7436C20.8286 33.9315 20.9935 34.1268 21.1584 34.326C21.5443 34.7881 21.9378 35.2765 22.3501 35.7988C22.4213 35.889 22.4925 35.9829 22.5674 36.0731C22.5936 36.1031 22.6161 36.137 22.6424 36.167C22.6424 36.167 22.6199 36.1219 22.5787 36.0355C22.5374 35.9491 22.4737 35.8213 22.3875 35.656C22.1439 35.1826 21.7242 34.4124 21.1621 33.5294L20.8248 33.0147Z" fill="#231F20"/>
<path d="M10.7104 27.4917C10.7104 27.4917 13.9182 24.9142 22.6386 36.1708C22.6349 36.1671 17.2685 24.6512 10.7104 27.4917Z" fill="#231F20"/>
<path d="M11.3512 42.6783C12.408 47.897 24.9433 53.9011 32.7231 49.4262C28.2224 54.2843 22.6274 57.1511 16.0655 53.6569C12.4829 51.752 9.61983 46.86 11.3512 42.6783Z" fill="url(#paint9_radial_55_5430)"/>
<path d="M18.7562 50.5647C21.327 51.7482 23.6429 53.1083 25.5841 54.5323C28.2036 53.593 30.587 51.7332 32.7231 49.4262C24.9433 53.9011 12.4079 47.897 11.3512 42.6783C10.6354 44.4066 10.7066 46.2551 11.2874 47.9647C13.6334 48.5095 16.1779 49.3774 18.7562 50.5647Z" fill="#231F20"/>
<path d="M16.0655 53.657C12.4829 51.7521 9.61981 46.8564 11.3474 42.6746C9.97208 44.9252 10.0208 51.211 16.5976 54.3859C23.493 57.711 29.594 53.5255 32.7194 49.4263C28.2224 54.2844 22.6274 57.1512 16.0655 53.657Z" fill="url(#paint10_radial_55_5430)"/>
<path d="M13.3298 45.9095C13.1912 46.691 13.1462 47.7243 13.3074 48.5771C15.005 50.5196 22.8222 53.4165 24.2163 53.6381C25.1157 52.9806 25.9701 52.0375 26.5885 50.993C21.5144 51.0644 16.1667 48.7274 13.3298 45.9095Z" fill="white"/>
<path d="M13.2474 49.9861C13.1612 50.3919 13.1462 50.8766 13.1799 51.2786C14.0119 52.2668 15.0087 53.0934 16.0693 53.657C17.9655 54.6676 19.7793 55.1448 21.5106 55.1974C21.9378 54.8931 22.3126 54.5136 22.5936 54.1003C19.2022 53.811 14.4953 51.1359 13.2474 49.9861Z" fill="white"/>
<path d="M21.5106 55.1974C21.8629 54.9456 22.1814 54.6413 22.44 54.3106C20.8623 55.0132 16.2529 54.7728 13.2137 50.2078C13.1612 50.5609 13.1575 50.9479 13.1837 51.2823C14.0156 52.2705 15.0125 53.0971 16.073 53.6607C17.9617 54.6676 19.7793 55.1448 21.5106 55.1974Z" fill="#A3C2CC"/>
<path opacity="0.42" d="M24.4786 53.4352C25.2806 52.7928 26.0338 51.9323 26.5885 50.9893C21.5181 51.0607 16.1667 48.7237 13.3298 45.9095C13.2137 46.5783 13.1612 47.4274 13.2511 48.1939C16.86 48.5245 23.3581 51.4928 24.4786 53.4352Z" fill="#A3C5CC"/>
<path d="M69.8908 39.342C70.5653 38.5304 70.8989 37.5423 70.8989 36.3738C70.8989 34.9348 70.333 33.8226 69.2012 33.0411C68.0695 32.2596 66.3831 31.8651 64.1384 31.8651H54.1513L50.3813 50.764H61.2603C62.8755 50.764 64.3482 50.5536 65.6786 50.129C67.0052 49.7082 68.0695 49.0507 68.8715 48.1564C69.6697 47.266 70.0707 46.1275 70.0707 44.7411C70.0707 43.3547 69.5198 42.2801 68.4143 41.5137C68.1482 41.3296 67.8559 41.168 67.5411 41.0252C68.5154 40.6157 69.2987 40.0521 69.8908 39.342ZM62.6056 36.3174C63.1265 36.3174 63.535 36.4114 63.8311 36.5992C64.1271 36.7871 64.277 37.0801 64.277 37.4784C64.277 37.8203 64.2058 38.1134 64.0634 38.3576C63.921 38.6018 63.6924 38.7897 63.3776 38.9249C63.0628 39.0602 62.6656 39.1278 62.1784 39.1278H58.9518L59.5102 36.3212H62.6056V36.3174ZM63.1565 45.8758C62.7518 46.1651 62.2346 46.3079 61.6088 46.3079H57.5165L58.1087 43.3397H62.2009C62.6131 43.3397 62.9767 43.4449 63.2914 43.6515C63.6062 43.8582 63.7636 44.17 63.7636 44.5833C63.7636 45.1582 63.5613 45.5903 63.1565 45.8758Z" fill="white"/>
<path d="M84.7009 45.5264C83.9926 45.8683 83.2693 46.0411 82.5348 46.0411C81.7628 46.0411 81.0845 45.8871 80.4999 45.5828C79.9153 45.2784 79.4619 44.8463 79.1396 44.2865C78.8173 43.7304 78.6562 43.0804 78.6562 42.344C78.6562 41.4987 78.7798 40.7247 79.0347 40.0221C79.2857 39.3195 79.6343 38.7108 80.084 38.1998C80.5337 37.6851 81.0658 37.2906 81.6879 37.0125C82.3062 36.7345 82.9958 36.5955 83.749 36.5955C84.6109 36.5955 85.3567 36.7908 85.9825 37.1778C86.6121 37.5648 87.1218 38.1096 87.519 38.8122L92.0984 35.2203C91.4164 33.9955 90.3746 33.0599 88.973 32.4137C87.5715 31.7674 85.9675 31.4406 84.1537 31.4406C82.4112 31.4406 80.8147 31.7148 79.3607 32.2634C77.9067 32.8119 76.6513 33.5897 75.5907 34.6004C74.5302 35.6073 73.7095 36.8059 73.1249 38.1923C72.5403 39.5787 72.248 41.1004 72.248 42.7536C72.248 44.4293 72.6489 45.8984 73.4472 47.1683C74.2454 48.4382 75.3734 49.4264 76.8274 50.1365C78.2814 50.8466 79.979 51.2036 81.9165 51.2036C83.6591 51.2036 85.233 50.9293 86.6421 50.3807C88.0511 49.8322 89.329 48.8553 90.4795 47.4501L86.7358 43.8582C86.0875 44.6247 85.4092 45.1845 84.7009 45.5264Z" fill="white"/>
<path d="M111.604 39.3419C112.279 38.5304 112.612 37.5422 112.612 36.3737C112.612 34.9347 112.046 33.8226 110.915 33.0411C109.783 32.2596 108.096 31.8651 105.852 31.8651H95.8609L92.0909 50.7639H102.97C104.585 50.7639 106.058 50.5535 107.388 50.1289C108.715 49.7081 109.779 49.0506 110.581 48.1564C111.379 47.2659 111.78 46.1275 111.78 44.7411C111.78 43.3546 111.229 42.2801 110.124 41.5136C109.858 41.3295 109.566 41.1679 109.251 41.0252C110.229 40.6156 111.012 40.052 111.604 39.3419ZM104.319 36.3174C104.84 36.3174 105.248 36.4113 105.544 36.5992C105.841 36.787 105.99 37.0801 105.99 37.4783C105.99 37.8203 105.919 38.1133 105.777 38.3575C105.634 38.6018 105.406 38.7896 105.091 38.9249C104.776 39.0601 104.379 39.1278 103.892 39.1278H100.665L101.224 36.3211H104.319V36.3174ZM104.87 45.8757C104.465 46.1651 103.948 46.3078 103.322 46.3078H99.2299L99.822 43.3396H103.914C104.327 43.3396 104.69 43.4448 105.005 43.6515C105.32 43.8581 105.477 44.17 105.477 44.5833C105.477 45.1581 105.275 45.5902 104.87 45.8757Z" fill="#ED2020"/>
<path d="M130.911 32.5113C129.483 31.7899 127.793 31.433 125.833 31.433C124.11 31.433 122.521 31.7073 121.067 32.2558C119.613 32.8044 118.357 33.5821 117.297 34.5928C116.236 35.5997 115.415 36.7945 114.831 38.1697C114.246 39.5448 113.954 41.074 113.954 42.746C113.954 44.4029 114.344 45.8645 115.127 47.1344C115.906 48.4044 117.012 49.3963 118.44 50.1177C119.867 50.8391 121.557 51.196 123.517 51.196C125.241 51.196 126.83 50.9217 128.284 50.3732C129.738 49.8246 130.994 49.0469 132.054 48.0362C133.115 47.0292 133.935 45.8344 134.52 44.4593C135.105 43.0841 135.397 41.5549 135.397 39.883C135.397 38.226 135.007 36.7645 134.224 35.4945C133.445 34.2246 132.339 33.2327 130.911 32.5113ZM128.663 42.4604C128.449 43.1518 128.123 43.7717 127.692 44.309C127.261 44.85 126.744 45.2708 126.144 45.5789C125.541 45.887 124.848 46.0373 124.057 46.0373C123.285 46.0373 122.626 45.8833 122.078 45.5789C121.531 45.2746 121.108 44.8425 120.812 44.2827C120.516 43.7266 120.366 43.0841 120.366 42.3665C120.366 41.5925 120.474 40.8599 120.688 40.1648C120.902 39.4734 121.228 38.8535 121.659 38.3162C122.09 37.7752 122.611 37.3544 123.221 37.0463C123.832 36.7419 124.522 36.5879 125.294 36.5879C126.066 36.5879 126.725 36.7419 127.272 37.0463C127.82 37.3544 128.243 37.7789 128.539 38.3275C128.835 38.876 128.985 39.5185 128.985 40.2587C128.989 41.0327 128.88 41.7691 128.663 42.4604Z" fill="#ED2020"/>
<path d="M153.748 32.5113C152.321 31.7899 150.631 31.433 148.671 31.433C146.947 31.433 145.358 31.7073 143.904 32.2558C142.45 32.8044 141.194 33.5821 140.134 34.5928C139.073 35.5997 138.253 36.7945 137.668 38.1697C137.083 39.5448 136.791 41.074 136.791 42.746C136.791 44.4029 137.181 45.8645 137.964 47.1344C138.744 48.4044 139.849 49.3963 141.277 50.1177C142.705 50.8391 144.395 51.196 146.355 51.196C148.079 51.196 149.667 50.9217 151.121 50.3732C152.576 49.8246 153.831 49.0469 154.891 48.0362C155.952 47.0292 156.773 45.8344 157.357 44.4593C157.942 43.0841 158.234 41.5549 158.234 39.883C158.234 38.226 157.844 36.7645 157.061 35.4945C156.282 34.2246 155.176 33.2327 153.748 32.5113ZM151.5 42.4604C151.286 43.1518 150.96 43.7717 150.529 44.309C150.098 44.85 149.581 45.2708 148.982 45.5789C148.378 45.887 147.685 46.0373 146.894 46.0373C146.122 46.0373 145.463 45.8833 144.916 45.5789C144.369 45.2746 143.945 44.8425 143.649 44.2827C143.353 43.7266 143.203 43.0841 143.203 42.3665C143.203 41.5925 143.312 40.8599 143.525 40.1648C143.739 39.4734 144.065 38.8535 144.496 38.3162C144.927 37.7752 145.448 37.3544 146.059 37.0463C146.669 36.7419 147.359 36.5879 148.131 36.5879C148.903 36.5879 149.563 36.7419 150.11 37.0463C150.657 37.3544 151.08 37.7789 151.376 38.3275C151.672 38.876 151.822 39.5185 151.822 40.2587C151.822 41.0327 151.717 41.7691 151.5 42.4604Z" fill="#ED2020"/>
<path d="M179.505 31.8651L171.62 41.9006L167.524 31.8651H162.353L158.583 50.7639H164.373L166.063 42.2688L168.978 49.0619H171.778L177.084 42.1373L175.413 50.7639H181.203L184.92 31.8651H179.505Z" fill="#ED2020"/>
</g>
<defs>
<radialGradient id="paint0_radial_55_5430" cx="0" cy="0" r="1" gradientUnits="userSpaceOnUse" gradientTransform="translate(18.461 33.3768) scale(29.1159 29.1915)">
<stop stop-color="#FF0000"/>
<stop offset="1" stop-color="#3F1000"/>
</radialGradient>
<radialGradient id="paint1_radial_55_5430" cx="0" cy="0" r="1" gradientUnits="userSpaceOnUse" gradientTransform="translate(29.2632 24.1149) scale(11.3132 11.3426)">
<stop stop-color="#FF0000"/>
<stop offset="1" stop-color="#3F1000"/>
</radialGradient>
<radialGradient id="paint2_radial_55_5430" cx="0" cy="0" r="1" gradientUnits="userSpaceOnUse" gradientTransform="translate(31.6006 19.6316) scale(10.5635 10.5909)">
<stop stop-color="#FF0000"/>
<stop offset="1" stop-color="#3F1000"/>
</radialGradient>
<radialGradient id="paint3_radial_55_5430" cx="0" cy="0" r="1" gradientUnits="userSpaceOnUse" gradientTransform="translate(32.6786 21.2441) scale(19.6315 19.6825)">
<stop stop-color="#D9A257"/>
<stop offset="1" stop-color="#F2DAAA"/>
</radialGradient>
<radialGradient id="paint4_radial_55_5430" cx="0" cy="0" r="1" gradientUnits="userSpaceOnUse" gradientTransform="translate(46.556 12.1233) rotate(-47.4974) scale(6.30756 6.30615)">
<stop stop-color="#FFAA33"/>
<stop offset="1" stop-color="#F27130"/>
</radialGradient>
<radialGradient id="paint5_radial_55_5430" cx="0" cy="0" r="1" gradientUnits="userSpaceOnUse" gradientTransform="translate(46.556 12.1234) rotate(-73.691) scale(3.35558 3.34826)">
<stop stop-color="#FFD24D"/>
<stop offset="1" stop-color="#FF9500"/>
</radialGradient>
<radialGradient id="paint6_radial_55_5430" cx="0" cy="0" r="1" gradientUnits="userSpaceOnUse" gradientTransform="translate(46.9161 11.843) rotate(-19.3711) scale(4.81162 4.82137)">
<stop stop-color="#FFF2CC"/>
<stop offset="1" stop-color="#FFDAA6"/>
</radialGradient>
<radialGradient id="paint7_radial_55_5430" cx="0" cy="0" r="1" gradientUnits="userSpaceOnUse" gradientTransform="translate(33.2283 41.3143) scale(5.42487 5.43896)">
<stop stop-color="#FFF2CC"/>
<stop offset="1" stop-color="#FFDAA6"/>
</radialGradient>
<radialGradient id="paint8_radial_55_5430" cx="0" cy="0" r="1" gradientUnits="userSpaceOnUse" gradientTransform="translate(16.9784 34.35) scale(5.65722 5.67191)">
<stop stop-color="#FFF2CC"/>
<stop offset="1" stop-color="#FFDAA6"/>
</radialGradient>
<radialGradient id="paint9_radial_55_5430" cx="0" cy="0" r="1" gradientUnits="userSpaceOnUse" gradientTransform="translate(16.9682 53.7466) rotate(24.6803) scale(16.8389 16.8651)">
<stop stop-color="#0E2623"/>
<stop offset="1" stop-color="#00131A"/>
</radialGradient>
<radialGradient id="paint10_radial_55_5430" cx="0" cy="0" r="1" gradientUnits="userSpaceOnUse" gradientTransform="translate(16.7882 54.1064) rotate(24.6803) scale(16.8583 16.8845)">
<stop stop-color="#FFF2CC"/>
<stop offset="1" stop-color="#FFDAA6"/>
</radialGradient>
<clipPath id="clip0_55_5430">
<rect width="187" height="65" fill="white"/>
</clipPath>
</defs>
</svg>
